<?xml version="1.0" encoding="UTF-8" standalone="no"?>
<!DOCTYPE svg PUBLIC "-//W3C//DTD SVG 1.1//EN"
 "http://www.w3.org/Graphics/SVG/1.1/DTD/svg11.dtd">
<!-- Generated by graphviz version 2.40.1 (20161225.0304)
 -->
<!-- Title: %0 Pages: 1 -->
<svg width="478pt" height="1284pt"
 viewBox="0.00 0.00 477.65 1283.99" xmlns="http://www.w3.org/2000/svg" xmlns:xlink="http://www.w3.org/1999/xlink">
<g id="graph0" class="graph" transform="scale(1 1) rotate(0) translate(4 1279.9911)">
<title>%0</title>
<polygon fill="#ffffff" stroke="transparent" points="-4,4 -4,-1279.9911 473.6499,-1279.9911 473.6499,4 -4,4"/>
<!-- start -->
<g id="node1" class="node">
<title>start</title>
<ellipse fill="none" stroke="#0000ff" cx="70.5219" cy="-1246.7175" rx="29.049" ry="29.049"/>
<text text-anchor="middle" x="70.5219" y="-1242.5175" font-family="Times,serif" font-size="14.00" fill="#000000">Start</text>
</g>
<!-- lookupUser -->
<g id="node7" class="node">
<title>lookupUser</title>
<polygon fill="none" stroke="#000000" points="113.8951,-1181.4439 27.1487,-1181.4439 27.1487,-1145.4439 113.8951,-1145.4439 113.8951,-1181.4439"/>
<text text-anchor="middle" x="70.5219" y="-1159.2439" font-family="Times,serif" font-size="14.00" fill="#000000">Lookup user</text>
</g>
<!-- start&#45;&gt;lookupUser -->
<g id="edge1" class="edge">
<title>start&#45;&gt;lookupUser</title>
<path fill="none" stroke="#000000" d="M70.5219,-1217.1239C70.5219,-1208.9326 70.5219,-1200.061 70.5219,-1191.934"/>
<polygon fill="#000000" stroke="#000000" points="74.022,-1191.7991 70.5219,-1181.7991 67.022,-1191.7992 74.022,-1191.7991"/>
</g>
<!-- 200 -->
<g id="node2" class="node">
<title>200</title>
<ellipse fill="none" stroke="#00ff00" cx="224.5219" cy="-25.5219" rx="25.5439" ry="25.5439"/>
<text text-anchor="middle" x="224.5219" y="-21.3219" font-family="Times,serif" font-size="14.00" fill="#000000">200</text>
</g>
<!-- 422 -->
<g id="node3" class="node">
<title>422</title>
<ellipse fill="none" stroke="#ff0000" cx="25.5219" cy="-25.5219" rx="25.5439" ry="25.5439"/>
<text text-anchor="middle" x="25.5219" y="-21.3219" font-family="Times,serif" font-size="14.00" fill="#000000">422</text>
</g>
<!-- containerCore -->
<g id="node4" class="node">
<title>containerCore</title>
<polygon fill="none" stroke="#000000" points="468.4414,-1181.4439 366.6025,-1181.4439 366.6025,-1177.4439 362.6025,-1177.4439 362.6025,-1173.4439 366.6025,-1173.4439 366.6025,-1153.4439 362.6025,-1153.4439 362.6025,-1149.4439 366.6025,-1149.4439 366.6025,-1145.4439 468.4414,-1145.4439 468.4414,-1181.4439"/>
<polyline fill="none" stroke="#000000" points="366.6025,-1177.4439 370.6025,-1177.4439 370.6025,-1173.4439 366.6025,-1173.4439 "/>
<polyline fill="none" stroke="#000000" points="366.6025,-1153.4439 370.6025,-1153.4439 370.6025,-1149.4439 366.6025,-1149.4439 "/>
<text text-anchor="middle" x="417.5219" y="-1159.2439" font-family="Times,serif" font-size="14.00" fill="#000000">Container Core</text>
</g>
<!-- oracle -->
<g id="node6" class="node">
<title>oracle</title>
<path fill="none" stroke="#000000" d="M450.3926,-696.1711C450.3926,-697.977 435.6594,-699.4439 417.5219,-699.4439 399.3844,-699.4439 384.6513,-697.977 384.6513,-696.1711 384.6513,-696.1711 384.6513,-666.7166 384.6513,-666.7166 384.6513,-664.9107 399.3844,-663.4439 417.5219,-663.4439 435.6594,-663.4439 450.3926,-664.9107 450.3926,-666.7166 450.3926,-666.7166 450.3926,-696.1711 450.3926,-696.1711"/>
<path fill="none" stroke="#000000" d="M450.3926,-696.1711C450.3926,-694.3653 435.6594,-692.8984 417.5219,-692.8984 399.3844,-692.8984 384.6513,-694.3653 384.6513,-696.1711"/>
<text text-anchor="middle" x="417.5219" y="-677.2439" font-family="Times,serif" font-size="14.00" fill="#000000">User DB</text>
</g>
<!-- containerCore&#45;&gt;oracle -->
<!-- asyncPlatform -->
<g id="node5" class="node">
<title>asyncPlatform</title>
<polygon fill="none" stroke="#000000" points="469.7782,-267.0439 365.2656,-267.0439 365.2656,-263.0439 361.2656,-263.0439 361.2656,-259.0439 365.2656,-259.0439 365.2656,-239.0439 361.2656,-239.0439 361.2656,-235.0439 365.2656,-235.0439 365.2656,-231.0439 469.7782,-231.0439 469.7782,-267.0439"/>
<polyline fill="none" stroke="#000000" points="365.2656,-263.0439 369.2656,-263.0439 369.2656,-259.0439 365.2656,-259.0439 "/>
<polyline fill="none" stroke="#000000" points="365.2656,-239.0439 369.2656,-239.0439 369.2656,-235.0439 365.2656,-235.0439 "/>
<text text-anchor="middle" x="417.5219" y="-244.8439" font-family="Times,serif" font-size="14.00" fill="#000000">Async Platform</text>
</g>
<!-- oracle&#45;&gt;asyncPlatform -->
<!-- lookupUser&#45;&gt;containerCore -->
<g id="edge2" class="edge">
<title>lookupUser&#45;&gt;containerCore</title>
<path fill="none" stroke="#595959" stroke-dasharray="5,2" d="M113.921,-1163.4439C146.7419,-1163.4439 186.1886,-1163.4439 186.1886,-1163.4439 186.1886,-1163.4439 301.8553,-1163.4439 301.8553,-1163.4439 301.8553,-1163.4439 328.5162,-1163.4439 356.2382,-1163.4439"/>
<polygon fill="#595959" stroke="#595959" points="356.4522,-1166.9439 366.4521,-1163.4439 356.4521,-1159.9439 356.4522,-1166.9439"/>
</g>
<!-- validateJobConfig -->
<g id="node8" class="node">
<title>validateJobConfig</title>
<polygon fill="none" stroke="#000000" points="132.6005,-1109.4439 8.4433,-1109.4439 8.4433,-1073.4439 132.6005,-1073.4439 132.6005,-1109.4439"/>
<text text-anchor="middle" x="70.5219" y="-1087.2439" font-family="Times,serif" font-size="14.00" fill="#000000">Validate job config</text>
</g>
<!-- lookupUser&#45;&gt;validateJobConfig -->
<g id="edge3" class="edge">
<title>lookupUser&#45;&gt;validateJobConfig</title>
<path fill="none" stroke="#000000" d="M70.5219,-1145.2752C70.5219,-1137.5748 70.5219,-1128.4182 70.5219,-1119.8605"/>
<polygon fill="#000000" stroke="#000000" points="74.022,-1119.8571 70.5219,-1109.8571 67.022,-1119.8572 74.022,-1119.8571"/>
</g>
<!-- validateBlastConfig -->
<g id="node9" class="node">
<title>validateBlastConfig</title>
<polygon fill="none" stroke="#000000" points="136.6508,-1037.4439 4.393,-1037.4439 4.393,-1001.4439 136.6508,-1001.4439 136.6508,-1037.4439"/>
<text text-anchor="middle" x="70.5219" y="-1015.2439" font-family="Times,serif" font-size="14.00" fill="#000000">Validate blast config</text>
</g>
<!-- validateJobConfig&#45;&gt;validateBlastConfig -->
<g id="edge4" class="edge">
<title>validateJobConfig&#45;&gt;validateBlastConfig</title>
<path fill="none" stroke="#000000" d="M70.5219,-1073.2752C70.5219,-1065.5748 70.5219,-1056.4182 70.5219,-1047.8605"/>
<polygon fill="#000000" stroke="#000000" points="74.022,-1047.8571 70.5219,-1037.8571 67.022,-1047.8572 74.022,-1047.8571"/>
</g>
<!-- validateQuery -->
<g id="node10" class="node">
<title>validateQuery</title>
<polygon fill="none" stroke="#000000" points="119.8195,-965.4439 21.2243,-965.4439 21.2243,-929.4439 119.8195,-929.4439 119.8195,-965.4439"/>
<text text-anchor="middle" x="70.5219" y="-943.2439" font-family="Times,serif" font-size="14.00" fill="#000000">Validate query</text>
</g>
<!-- validateBlastConfig&#45;&gt;validateQuery -->
<g id="edge5" class="edge">
<title>validateBlastConfig&#45;&gt;validateQuery</title>
<path fill="none" stroke="#000000" d="M70.5219,-1001.2752C70.5219,-993.5748 70.5219,-984.4182 70.5219,-975.8605"/>
<polygon fill="#000000" stroke="#000000" points="74.022,-975.8571 70.5219,-965.8571 67.022,-975.8572 74.022,-975.8571"/>
</g>
<!-- isRequestValid -->
<g id="node11" class="node">
<title>isRequestValid</title>
<polygon fill="none" stroke="#000000" points="70.5219,-893.5441 .4615,-851.8439 70.5219,-810.1436 140.5823,-851.8439 70.5219,-893.5441"/>
<text text-anchor="middle" x="70.5219" y="-856.0439" font-family="Times,serif" font-size="14.00" fill="#000000">Is request</text>
<text text-anchor="middle" x="70.5219" y="-839.2439" font-family="Times,serif" font-size="14.00" fill="#000000">valid?</text>
</g>
<!-- validateQuery&#45;&gt;isRequestValid -->
<g id="edge6" class="edge">
<title>validateQuery&#45;&gt;isRequestValid</title>
<path fill="none" stroke="#000000" d="M70.5219,-929.0112C70.5219,-921.6787 70.5219,-912.8409 70.5219,-903.8033"/>
<polygon fill="#000000" stroke="#000000" points="74.022,-903.5842 70.5219,-893.5842 67.022,-903.5842 74.022,-903.5842"/>
</g>
<!-- isRequestValid&#45;&gt;422 -->
<g id="edge7" class="edge">
<title>isRequestValid&#45;&gt;422</title>
<path fill="none" stroke="#000000" d="M60.9786,-815.7064C47.7692,-765.687 25.5219,-681.4439 25.5219,-681.4439 25.5219,-681.4439 25.5219,-681.4439 25.5219,-177.0439 25.5219,-177.0439 25.5219,-106.2597 25.5219,-61.4515"/>
<polygon fill="#000000" stroke="#000000" points="29.022,-61.2255 25.5219,-51.2256 22.022,-61.2256 29.022,-61.2255"/>
</g>
<!-- generateHash -->
<g id="node12" class="node">
<title>generateHash</title>
<polygon fill="none" stroke="#000000" points="183.2488,-774.2439 61.795,-774.2439 61.795,-738.2439 183.2488,-738.2439 183.2488,-774.2439"/>
<text text-anchor="middle" x="122.5219" y="-752.0439" font-family="Times,serif" font-size="14.00" fill="#000000">Generate Job Hash</text>
</g>
<!-- isRequestValid&#45;&gt;generateHash -->
<g id="edge8" class="edge">
<title>isRequestValid&#45;&gt;generateHash</title>
<path fill="none" stroke="#000000" d="M87.6928,-820.2759C94.164,-808.3787 101.4633,-794.9592 107.7019,-783.4899"/>
<polygon fill="#000000" stroke="#000000" points="110.9476,-784.8476 112.6513,-774.3906 104.7984,-781.5028 110.9476,-784.8476"/>
</g>
<!-- lookupJob -->
<g id="node13" class="node">
<title>lookupJob</title>
<polygon fill="none" stroke="#000000" points="178.3563,-702.0458 82.6875,-702.0458 82.6875,-660.8419 178.3563,-660.8419 178.3563,-702.0458"/>
<text text-anchor="middle" x="130.5219" y="-685.6439" font-family="Times,serif" font-size="14.00" fill="#000000">Lookup job in</text>
<text text-anchor="middle" x="130.5219" y="-668.8439" font-family="Times,serif" font-size="14.00" fill="#000000">user DB</text>
</g>
<!-- generateHash&#45;&gt;lookupJob -->
<g id="edge9" class="edge">
<title>generateHash&#45;&gt;lookupJob</title>
<path fill="none" stroke="#000000" d="M124.4585,-738.1369C125.2894,-730.3677 126.2839,-721.0691 127.2249,-712.2713"/>
<polygon fill="#000000" stroke="#000000" points="130.7084,-712.6109 128.2918,-702.2954 123.7481,-711.8664 130.7084,-712.6109"/>
</g>
<!-- lookupJob&#45;&gt;oracle -->
<g id="edge10" class="edge">
<title>lookupJob&#45;&gt;oracle</title>
<path fill="none" stroke="#595959" stroke-dasharray="5,2" d="M178.3553,-681.4439C202.2719,-681.4439 226.1886,-681.4439 226.1886,-681.4439 226.1886,-681.4439 321.8553,-681.4439 321.8553,-681.4439 321.8553,-681.4439 348.9465,-681.4439 374.2958,-681.4439"/>
<polygon fill="#595959" stroke="#595959" points="374.5989,-684.9439 384.5989,-681.4439 374.5989,-677.9439 374.5989,-684.9439"/>
</g>
<!-- doesJobExist -->
<g id="node14" class="node">
<title>doesJobExist</title>
<polygon fill="none" stroke="#000000" points="146.5219,-624.7441 53.3217,-583.0439 146.5219,-541.3436 239.7222,-583.0439 146.5219,-624.7441"/>
<text text-anchor="middle" x="146.5219" y="-587.2439" font-family="Times,serif" font-size="14.00" fill="#000000">Does job</text>
<text text-anchor="middle" x="146.5219" y="-570.4439" font-family="Times,serif" font-size="14.00" fill="#000000">already exist?</text>
</g>
<!-- lookupJob&#45;&gt;doesJobExist -->
<g id="edge11" class="edge">
<title>lookupJob&#45;&gt;doesJobExist</title>
<path fill="none" stroke="#000000" d="M133.9151,-660.5757C135.2773,-652.1981 136.9099,-642.158 138.5413,-632.1245"/>
<polygon fill="#000000" stroke="#000000" points="142.012,-632.5871 140.1624,-622.155 135.1027,-631.4636 142.012,-632.5871"/>
</g>
<!-- isLinkUserSet1 -->
<g id="node15" class="node">
<title>isLinkUserSet1</title>
<polygon fill="none" stroke="#000000" points="143.5219,-505.5441 55.9671,-463.8439 143.5219,-422.1436 231.0767,-463.8439 143.5219,-505.5441"/>
<text text-anchor="middle" x="143.5219" y="-468.0439" font-family="Times,serif" font-size="14.00" fill="#000000">Is &#39;link user&#39;</text>
<text text-anchor="middle" x="143.5219" y="-451.2439" font-family="Times,serif" font-size="14.00" fill="#000000">true?</text>
</g>
<!-- doesJobExist&#45;&gt;isLinkUserSet1 -->
<g id="edge13" class="edge">
<title>doesJobExist&#45;&gt;isLinkUserSet1</title>
<path fill="none" stroke="#000000" d="M145.4811,-541.688C145.267,-533.1819 145.0391,-524.1271 144.8173,-515.314"/>
<polygon fill="#000000" stroke="#000000" points="148.3115,-515.0353 144.5609,-505.1266 141.3137,-515.2115 148.3115,-515.0353"/>
</g>
<!-- recordJob -->
<g id="node17" class="node">
<title>recordJob</title>
<polygon fill="none" stroke="#000000" points="355.6181,-481.8439 249.4258,-481.8439 249.4258,-445.8439 355.6181,-445.8439 355.6181,-481.8439"/>
<text text-anchor="middle" x="302.5219" y="-459.6439" font-family="Times,serif" font-size="14.00" fill="#000000">Write job to DB</text>
</g>
<!-- doesJobExist&#45;&gt;recordJob -->
<g id="edge12" class="edge">
<title>doesJobExist&#45;&gt;recordJob</title>
<path fill="none" stroke="#000000" d="M181.1434,-556.5895C207.8725,-536.1657 244.5667,-508.1276 270.5938,-488.2402"/>
<polygon fill="#000000" stroke="#000000" points="272.8222,-490.9423 278.6431,-482.0897 268.5722,-485.3801 272.8222,-490.9423"/>
</g>
<!-- linkUser1 -->
<g id="node18" class="node">
<title>linkUser1</title>
<polygon fill="none" stroke="#000000" points="196.0661,-362.6439 90.9777,-362.6439 90.9777,-326.6439 196.0661,-326.6439 196.0661,-362.6439"/>
<text text-anchor="middle" x="143.5219" y="-340.4439" font-family="Times,serif" font-size="14.00" fill="#000000">Link user to job</text>
</g>
<!-- isLinkUserSet1&#45;&gt;linkUser1 -->
<g id="edge15" class="edge">
<title>isLinkUserSet1&#45;&gt;linkUser1</title>
<path fill="none" stroke="#000000" d="M143.5219,-422.1535C143.5219,-405.8383 143.5219,-387.5492 143.5219,-372.8355"/>
<polygon fill="#000000" stroke="#000000" points="147.022,-372.8328 143.5219,-362.8329 140.022,-372.8329 147.022,-372.8328"/>
</g>
<!-- isLinkUserSet2 -->
<g id="node16" class="node">
<title>isLinkUserSet2</title>
<polygon fill="none" stroke="#000000" points="301.5219,-386.3441 213.9671,-344.6439 301.5219,-302.9436 389.0767,-344.6439 301.5219,-386.3441"/>
<text text-anchor="middle" x="301.5219" y="-348.8439" font-family="Times,serif" font-size="14.00" fill="#000000">Is &#39;link user&#39;</text>
<text text-anchor="middle" x="301.5219" y="-332.0439" font-family="Times,serif" font-size="14.00" fill="#000000">true?</text>
</g>
<!-- linkUser2 -->
<g id="node19" class="node">
<title>linkUser2</title>
<polygon fill="none" stroke="#000000" points="344.0661,-267.0439 238.9777,-267.0439 238.9777,-231.0439 344.0661,-231.0439 344.0661,-267.0439"/>
<text text-anchor="middle" x="291.5219" y="-244.8439" font-family="Times,serif" font-size="14.00" fill="#000000">Link user to job</text>
</g>
<!-- isLinkUserSet2&#45;&gt;linkUser2 -->
<g id="edge16" class="edge">
<title>isLinkUserSet2&#45;&gt;linkUser2</title>
<path fill="none" stroke="#000000" d="M297.339,-304.6548C296.3831,-295.5169 295.3863,-285.9875 294.4935,-277.4517"/>
<polygon fill="#000000" stroke="#000000" points="297.9504,-276.8568 293.429,-267.2752 290.9884,-277.5851 297.9504,-276.8568"/>
</g>
<!-- recordJob&#45;&gt;isLinkUserSet2 -->
<g id="edge14" class="edge">
<title>recordJob&#45;&gt;isLinkUserSet2</title>
<path fill="none" stroke="#000000" d="M302.37,-445.7399C302.2595,-432.5646 302.1039,-414.0184 301.9561,-396.4022"/>
<polygon fill="#000000" stroke="#000000" points="305.4543,-396.1554 301.8704,-386.1852 298.4545,-396.2142 305.4543,-396.1554"/>
</g>
<!-- linkUser1&#45;&gt;oracle -->
<g id="edge17" class="edge">
<title>linkUser1&#45;&gt;oracle</title>
<path fill="none" stroke="#595959" stroke-dasharray="5,2" d="M170.1,-362.7692C186.5382,-373.9795 204.5219,-386.2439 204.5219,-386.2439 204.5219,-386.2439 364.5219,-422.2439 364.5219,-422.2439 364.5219,-422.2439 398.048,-586.2055 411.7708,-653.3178"/>
<polygon fill="#595959" stroke="#595959" points="408.3626,-654.1213 413.7951,-663.2174 415.2207,-652.7189 408.3626,-654.1213"/>
</g>
<!-- getJobStatus -->
<g id="node20" class="node">
<title>getJobStatus</title>
<polygon fill="none" stroke="#000000" points="198.0093,-267.0439 105.0345,-267.0439 105.0345,-231.0439 198.0093,-231.0439 198.0093,-267.0439"/>
<text text-anchor="middle" x="151.5219" y="-244.8439" font-family="Times,serif" font-size="14.00" fill="#000000">Get job status</text>
</g>
<!-- linkUser1&#45;&gt;getJobStatus -->
<g id="edge18" class="edge">
<title>linkUser1&#45;&gt;getJobStatus</title>
<path fill="none" stroke="#000000" d="M145.0644,-326.2112C146.2228,-312.3686 147.8301,-293.1611 149.1513,-277.3723"/>
<polygon fill="#000000" stroke="#000000" points="152.6651,-277.3528 150.0113,-267.0957 145.6895,-276.769 152.6651,-277.3528"/>
</g>
<!-- linkUser2&#45;&gt;oracle -->
<g id="edge22" class="edge">
<title>linkUser2&#45;&gt;oracle</title>
<path fill="none" stroke="#595959" stroke-dasharray="5,2" d="M327.449,-267.1753C358.5337,-282.8629 398.5219,-303.0439 398.5219,-303.0439 398.5219,-303.0439 411.5219,-541.4439 411.5219,-541.4439 411.5219,-541.4439 414.5617,-612.373 416.314,-653.2588"/>
<polygon fill="#595959" stroke="#595959" points="412.8248,-653.587 416.7498,-663.4279 419.8183,-653.2872 412.8248,-653.587"/>
</g>
<!-- submitJob -->
<g id="node22" class="node">
<title>submitJob</title>
<polygon fill="none" stroke="#000000" points="263.3671,-123.0439 185.6768,-123.0439 185.6768,-87.0439 263.3671,-87.0439 263.3671,-123.0439"/>
<text text-anchor="middle" x="224.5219" y="-100.8439" font-family="Times,serif" font-size="14.00" fill="#000000">Submit job</text>
</g>
<!-- linkUser2&#45;&gt;submitJob -->
<g id="edge23" class="edge">
<title>linkUser2&#45;&gt;submitJob</title>
<path fill="none" stroke="#000000" d="M286.2604,-230.831C278.6632,-204.5327 265.5219,-159.0439 265.5219,-159.0439 265.5219,-159.0439 255.0809,-145.2922 244.7367,-131.6681"/>
<polygon fill="#000000" stroke="#000000" points="247.2374,-129.1738 238.4027,-123.3258 241.6622,-133.4068 247.2374,-129.1738"/>
</g>
<!-- getJobStatus&#45;&gt;asyncPlatform -->
<g id="edge19" class="edge">
<title>getJobStatus&#45;&gt;asyncPlatform</title>
<path fill="none" stroke="#595959" stroke-dasharray="5,2" d="M195.2768,-267.1493C216.9415,-276.114 238.5219,-285.0439 238.5219,-285.0439 238.5219,-285.0439 344.5219,-285.0439 344.5219,-285.0439 344.5219,-285.0439 356.8428,-278.9678 371.3611,-271.8081"/>
<polygon fill="#595959" stroke="#595959" points="373.1735,-274.8168 380.5942,-267.2548 370.0774,-268.5387 373.1735,-274.8168"/>
</g>
<!-- isJobExpired -->
<g id="node21" class="node">
<title>isJobExpired</title>
<polygon fill="none" stroke="#000000" points="159.5219,-195.0439 63.0003,-177.0439 159.5219,-159.0439 256.0435,-177.0439 159.5219,-195.0439"/>
<text text-anchor="middle" x="159.5219" y="-172.8439" font-family="Times,serif" font-size="14.00" fill="#000000">Is job expired?</text>
</g>
<!-- getJobStatus&#45;&gt;isJobExpired -->
<g id="edge20" class="edge">
<title>getJobStatus&#45;&gt;isJobExpired</title>
<path fill="none" stroke="#000000" d="M153.5407,-230.8752C154.4094,-223.0563 155.445,-213.7361 156.4084,-205.0659"/>
<polygon fill="#000000" stroke="#000000" points="159.9057,-205.2826 157.5315,-194.9573 152.9485,-204.5096 159.9057,-205.2826"/>
</g>
<!-- isJobExpired&#45;&gt;submitJob -->
<g id="edge21" class="edge">
<title>isJobExpired&#45;&gt;submitJob</title>
<path fill="none" stroke="#000000" d="M173.626,-161.4209C181.719,-152.4564 192.0812,-140.9782 201.3409,-130.7213"/>
<polygon fill="#000000" stroke="#000000" points="204.048,-132.9457 208.1512,-123.1776 198.8521,-128.255 204.048,-132.9457"/>
</g>
<!-- submitJob&#45;&gt;200 -->
<g id="edge25" class="edge">
<title>submitJob&#45;&gt;200</title>
<path fill="none" stroke="#000000" d="M224.5219,-86.9991C224.5219,-79.4237 224.5219,-70.3312 224.5219,-61.491"/>
<polygon fill="#000000" stroke="#000000" points="228.022,-61.3352 224.5219,-51.3353 221.022,-61.3353 228.022,-61.3352"/>
</g>
<!-- submitJob&#45;&gt;asyncPlatform -->
<g id="edge24" class="edge">
<title>submitJob&#45;&gt;asyncPlatform</title>
<path fill="none" stroke="#595959" stroke-dasharray="5,2" d="M248.767,-123.1335C283.1712,-148.8029 346.2488,-195.866 384.7802,-224.6148"/>
<polygon fill="#595959" stroke="#595959" points="382.9704,-227.6313 393.0783,-230.8062 387.1564,-222.0208 382.9704,-227.6313"/>
</g>
<!-- a -->
<g id="node23" class="node">
<title>a</title>
<ellipse fill="#ffffff" stroke="#ffffff" cx="417.5219" cy="-1246.7175" rx="1.8" ry="1.8"/>
</g>
<!-- a&#45;&gt;containerCore -->
</g>
</svg>
