<?xml version="1.0" encoding="UTF-8" standalone="no"?>
<!DOCTYPE svg PUBLIC "-//W3C//DTD SVG 1.1//EN"
 "http://www.w3.org/Graphics/SVG/1.1/DTD/svg11.dtd">
<!-- Generated by graphviz version 2.40.1 (20161225.0304)
 -->
<!-- Title: %0 Pages: 1 -->
<svg width="354pt" height="477pt"
 viewBox="0.00 0.00 353.64 477.00" xmlns="http://www.w3.org/2000/svg" xmlns:xlink="http://www.w3.org/1999/xlink">
<g id="graph0" class="graph" transform="scale(1 1) rotate(0) translate(4 473)">
<title>%0</title>
<polygon fill="#ffffff" stroke="transparent" points="-4,4 -4,-473 349.644,-473 349.644,4 -4,4"/>
<!-- start -->
<g id="node1" class="node">
<title>start</title>
<ellipse fill="none" stroke="#0000ff" cx="245.8393" cy="-451" rx="29.049" ry="18"/>
<text text-anchor="middle" x="245.8393" y="-446.8" font-family="Times,serif" font-size="14.00" fill="#000000">Start</text>
</g>
<!-- lookupUser -->
<g id="node6" class="node">
<title>lookupUser</title>
<polygon fill="none" stroke="#000000" points="183.1531,-360.5 183.1531,-396.5 308.5255,-396.5 308.5255,-360.5 183.1531,-360.5"/>
<text text-anchor="middle" x="192.9031" y="-374.3" font-family="Times,serif" font-size="14.00" fill="#000000"> </text>
<polyline fill="none" stroke="#000000" points="202.6531,-360.5 202.6531,-396.5 "/>
<text text-anchor="middle" x="245.8393" y="-374.3" font-family="Times,serif" font-size="14.00" fill="#000000">Lookup user</text>
<polyline fill="none" stroke="#000000" points="289.0255,-360.5 289.0255,-396.5 "/>
<text text-anchor="middle" x="298.7755" y="-374.3" font-family="Times,serif" font-size="14.00" fill="#000000"> </text>
</g>
<!-- start&#45;&gt;lookupUser -->
<g id="edge1" class="edge">
<title>start&#45;&gt;lookupUser</title>
<path fill="none" stroke="#000000" d="M245.8393,-432.7052C245.8393,-424.832 245.8393,-415.4471 245.8393,-406.7167"/>
<polygon fill="#000000" stroke="#000000" points="249.3394,-406.5378 245.8393,-396.5378 242.3394,-406.5378 249.3394,-406.5378"/>
</g>
<!-- 204 -->
<g id="node2" class="node">
<title>204</title>
<ellipse fill="none" stroke="#00ff00" cx="109.8393" cy="-18" rx="27" ry="18"/>
<text text-anchor="middle" x="109.8393" y="-13.8" font-family="Times,serif" font-size="14.00" fill="#000000">204</text>
</g>
<!-- 404 -->
<g id="node3" class="node">
<title>404</title>
<ellipse fill="none" stroke="#ff0000" cx="301.8393" cy="-18" rx="27" ry="18"/>
<text text-anchor="middle" x="301.8393" y="-13.8" font-family="Times,serif" font-size="14.00" fill="#000000">404</text>
</g>
<!-- containerCore -->
<g id="node4" class="node">
<title>containerCore</title>
<polygon fill="none" stroke="#000000" points="180.7588,-469 78.9199,-469 78.9199,-465 74.9199,-465 74.9199,-461 78.9199,-461 78.9199,-441 74.9199,-441 74.9199,-437 78.9199,-437 78.9199,-433 180.7588,-433 180.7588,-469"/>
<polyline fill="none" stroke="#000000" points="78.9199,-465 82.9199,-465 82.9199,-461 78.9199,-461 "/>
<polyline fill="none" stroke="#000000" points="78.9199,-441 82.9199,-441 82.9199,-437 78.9199,-437 "/>
<text text-anchor="middle" x="129.8393" y="-446.8" font-family="Times,serif" font-size="14.00" fill="#000000">Container Core</text>
</g>
<!-- containerCore&#45;&gt;start -->
<!-- userDB -->
<g id="node5" class="node">
<title>userDB</title>
<path fill="none" stroke="#000000" d="M102.71,-248.7273C102.71,-250.5331 87.9768,-252 69.8393,-252 51.7018,-252 36.9687,-250.5331 36.9687,-248.7273 36.9687,-248.7273 36.9687,-219.2727 36.9687,-219.2727 36.9687,-217.4669 51.7018,-216 69.8393,-216 87.9768,-216 102.71,-217.4669 102.71,-219.2727 102.71,-219.2727 102.71,-248.7273 102.71,-248.7273"/>
<path fill="none" stroke="#000000" d="M102.71,-248.7273C102.71,-246.9214 87.9768,-245.4545 69.8393,-245.4545 51.7018,-245.4545 36.9687,-246.9214 36.9687,-248.7273"/>
<text text-anchor="middle" x="69.8393" y="-229.8" font-family="Times,serif" font-size="14.00" fill="#000000">User DB</text>
</g>
<!-- lookupUser&#45;&gt;containerCore -->
<g id="edge9" class="edge">
<title>lookupUser&#45;&gt;containerCore</title>
<path fill="none" stroke="#595959" stroke-dasharray="5,2" d="M216.8342,-396.6282C201.8812,-405.9738 183.4667,-417.4829 167.4356,-427.5023"/>
<polygon fill="#595959" stroke="#595959" points="165.4368,-424.6242 158.8118,-432.8922 169.1468,-430.5602 165.4368,-424.6242"/>
</g>
<!-- lookupJob -->
<g id="node7" class="node">
<title>lookupJob</title>
<polygon fill="none" stroke="#000000" points="318.4362,-324 173.2425,-324 173.2425,-288 318.4362,-288 318.4362,-324"/>
<text text-anchor="middle" x="245.8393" y="-301.8" font-family="Times,serif" font-size="14.00" fill="#000000">Lookup job in user DB</text>
</g>
<!-- lookupUser&#45;&gt;lookupJob -->
<g id="edge2" class="edge">
<title>lookupUser&#45;&gt;lookupJob</title>
<path fill="none" stroke="#000000" d="M245.8393,-360.2052C245.8393,-352.332 245.8393,-342.9471 245.8393,-334.2167"/>
<polygon fill="#000000" stroke="#000000" points="249.3394,-334.0378 245.8393,-324.0378 242.3394,-334.0378 249.3394,-334.0378"/>
</g>
<!-- lookupJob&#45;&gt;userDB -->
<g id="edge10" class="edge">
<title>lookupJob&#45;&gt;userDB</title>
<path fill="none" stroke="#595959" stroke-dasharray="5,2" d="M201.4271,-287.8314C174.0372,-276.6264 139.1103,-262.3381 112.124,-251.2983"/>
<polygon fill="#595959" stroke="#595959" points="113.1504,-247.9367 102.5697,-247.3897 110.4999,-254.4155 113.1504,-247.9367"/>
</g>
<!-- doesJobExist -->
<g id="node9" class="node">
<title>doesJobExist</title>
<polygon fill="none" stroke="#000000" points="245.8393,-252 146.2297,-234 245.8393,-216 345.449,-234 245.8393,-252"/>
<text text-anchor="middle" x="245.8393" y="-229.8" font-family="Times,serif" font-size="14.00" fill="#000000">Does job exist?</text>
</g>
<!-- lookupJob&#45;&gt;doesJobExist -->
<g id="edge3" class="edge">
<title>lookupJob&#45;&gt;doesJobExist</title>
<path fill="none" stroke="#000000" d="M245.8393,-287.8314C245.8393,-280.131 245.8393,-270.9743 245.8393,-262.4166"/>
<polygon fill="#000000" stroke="#000000" points="249.3394,-262.4132 245.8393,-252.4133 242.3394,-262.4133 249.3394,-262.4132"/>
</g>
<!-- deleteLink -->
<g id="node8" class="node">
<title>deleteLink</title>
<polygon fill="none" stroke="#000000" points="209.7182,-108 9.9605,-108 9.9605,-72 209.7182,-72 209.7182,-108"/>
<text text-anchor="middle" x="109.8393" y="-85.8" font-family="Times,serif" font-size="14.00" fill="#000000">Delete link between user and job</text>
</g>
<!-- deleteLink&#45;&gt;204 -->
<g id="edge8" class="edge">
<title>deleteLink&#45;&gt;204</title>
<path fill="none" stroke="#000000" d="M109.8393,-71.8314C109.8393,-64.131 109.8393,-54.9743 109.8393,-46.4166"/>
<polygon fill="#000000" stroke="#000000" points="113.3394,-46.4132 109.8393,-36.4133 106.3394,-46.4133 113.3394,-46.4132"/>
</g>
<!-- deleteLink&#45;&gt;userDB -->
<g id="edge11" class="edge">
<title>deleteLink&#45;&gt;userDB</title>
<path fill="none" stroke="#595959" stroke-dasharray="5,2" d="M49.2637,-108.0006C32.2512,-116.1579 15.716,-127.7431 5.8393,-144 -2.4682,-157.6742 -.9028,-165.4899 5.8393,-180 11.4465,-192.0675 21.2257,-202.409 31.4767,-210.7159"/>
<polygon fill="#595959" stroke="#595959" points="29.636,-213.7114 39.7283,-216.9358 33.8496,-208.1215 29.636,-213.7114"/>
</g>
<!-- doesJobExist&#45;&gt;404 -->
<g id="edge4" class="edge">
<title>doesJobExist&#45;&gt;404</title>
<path fill="none" stroke="#000000" d="M267.62,-219.8142C280.1966,-210.2523 294.8674,-196.4082 301.8393,-180 320.4976,-136.0882 314.4277,-79.2366 308.2092,-45.8769"/>
<polygon fill="#000000" stroke="#000000" points="311.6105,-45.0363 306.2161,-35.9175 304.7466,-46.4099 311.6105,-45.0363"/>
</g>
<!-- isUserLinked -->
<g id="node10" class="node">
<title>isUserLinked</title>
<polygon fill="none" stroke="#000000" points="153.8393,-180 23.5437,-162 153.8393,-144 284.1349,-162 153.8393,-180"/>
<text text-anchor="middle" x="153.8393" y="-157.8" font-family="Times,serif" font-size="14.00" fill="#000000">Is user linked to job?</text>
</g>
<!-- doesJobExist&#45;&gt;isUserLinked -->
<g id="edge5" class="edge">
<title>doesJobExist&#45;&gt;isUserLinked</title>
<path fill="none" stroke="#000000" d="M226.7769,-219.0816C213.7538,-208.8896 196.2832,-195.217 181.7055,-183.8083"/>
<polygon fill="#000000" stroke="#000000" points="183.5443,-180.803 173.5121,-177.3961 179.2301,-186.3155 183.5443,-180.803"/>
</g>
<!-- isUserLinked&#45;&gt;404 -->
<g id="edge6" class="edge">
<title>isUserLinked&#45;&gt;404</title>
<path fill="none" stroke="#000000" d="M177.3425,-147.0898C192.5005,-136.9484 212.2254,-122.7374 227.8393,-108 249.2709,-87.7715 270.2755,-61.4189 284.3981,-42.4638"/>
<polygon fill="#000000" stroke="#000000" points="287.2784,-44.4547 290.3794,-34.3238 281.6375,-40.3097 287.2784,-44.4547"/>
</g>
<!-- isUserLinked&#45;&gt;deleteLink -->
<g id="edge7" class="edge">
<title>isUserLinked&#45;&gt;deleteLink</title>
<path fill="none" stroke="#000000" d="M143.6342,-145.3008C138.4783,-136.8638 132.0953,-126.4189 126.27,-116.8865"/>
<polygon fill="#000000" stroke="#000000" points="129.115,-114.8299 120.914,-108.1222 123.142,-118.4801 129.115,-114.8299"/>
</g>
</g>
</svg>
