<?xml version="1.0" encoding="UTF-8" standalone="no"?>
<!DOCTYPE svg PUBLIC "-//W3C//DTD SVG 1.1//EN"
 "http://www.w3.org/Graphics/SVG/1.1/DTD/svg11.dtd">
<!-- Generated by graphviz version 2.40.1 (20161225.0304)
 -->
<!-- Title: %0 Pages: 1 -->
<svg width="306pt" height="451pt"
 viewBox="0.00 0.00 306.13 451.20" xmlns="http://www.w3.org/2000/svg" xmlns:xlink="http://www.w3.org/1999/xlink">
<g id="graph0" class="graph" transform="scale(1 1) rotate(0) translate(4 447.2)">
<title>%0</title>
<polygon fill="#ffffff" stroke="transparent" points="-4,4 -4,-447.2 302.128,-447.2 302.128,4 -4,4"/>
<!-- start -->
<g id="node1" class="node">
<title>start</title>
<ellipse fill="none" stroke="#0000ff" cx="91" cy="-425.2" rx="29.049" ry="18"/>
<text text-anchor="middle" x="91" y="-421" font-family="Times,serif" font-size="14.00" fill="#000000">Start</text>
</g>
<!-- lookupJob1 -->
<g id="node6" class="node">
<title>lookupJob1</title>
<polygon fill="none" stroke="#000000" points="165.2035,-371.2 16.7965,-371.2 16.7965,-335.2 165.2035,-335.2 165.2035,-371.2"/>
<text text-anchor="middle" x="91" y="-349" font-family="Times,serif" font-size="14.00" fill="#000000">Lookup job in User DB</text>
</g>
<!-- start&#45;&gt;lookupJob1 -->
<g id="edge1" class="edge">
<title>start&#45;&gt;lookupJob1</title>
<path fill="none" stroke="#000000" d="M91,-407.0314C91,-399.331 91,-390.1743 91,-381.6166"/>
<polygon fill="#000000" stroke="#000000" points="94.5001,-381.6132 91,-371.6133 87.5001,-381.6133 94.5001,-381.6132"/>
</g>
<!-- A -->
<g id="node10" class="node">
<title>A</title>
<polygon fill="none" stroke="#ffffff" points="192,-443.2 156,-443.2 156,-407.2 192,-407.2 192,-443.2"/>
<text text-anchor="middle" x="174" y="-421" font-family="Times,serif" font-size="14.00" fill="#ffffff">A</text>
</g>
<!-- start&#45;&gt;A -->
<!-- 200 -->
<g id="node2" class="node">
<title>200</title>
<ellipse fill="none" stroke="#00ff00" cx="156" cy="-18" rx="27" ry="18"/>
<text text-anchor="middle" x="156" y="-13.8" font-family="Times,serif" font-size="14.00" fill="#000000">200</text>
</g>
<!-- 404 -->
<g id="node3" class="node">
<title>404</title>
<ellipse fill="none" stroke="#ff0000" cx="27" cy="-18" rx="27" ry="18"/>
<text text-anchor="middle" x="27" y="-13.8" font-family="Times,serif" font-size="14.00" fill="#000000">404</text>
</g>
<!-- asyncPlatform -->
<g id="node4" class="node">
<title>asyncPlatform</title>
<polygon fill="none" stroke="#000000" points="298.2563,-275.6 193.7437,-275.6 193.7437,-271.6 189.7437,-271.6 189.7437,-267.6 193.7437,-267.6 193.7437,-247.6 189.7437,-247.6 189.7437,-243.6 193.7437,-243.6 193.7437,-239.6 298.2563,-239.6 298.2563,-275.6"/>
<polyline fill="none" stroke="#000000" points="193.7437,-271.6 197.7437,-271.6 197.7437,-267.6 193.7437,-267.6 "/>
<polyline fill="none" stroke="#000000" points="193.7437,-247.6 197.7437,-247.6 197.7437,-243.6 193.7437,-243.6 "/>
<text text-anchor="middle" x="246" y="-253.4" font-family="Times,serif" font-size="14.00" fill="#000000">Async Platform</text>
</g>
<!-- oracle -->
<g id="node5" class="node">
<title>oracle</title>
<path fill="none" stroke="#000000" d="M278.8707,-367.9273C278.8707,-369.7331 264.1375,-371.2 246,-371.2 227.8625,-371.2 213.1293,-369.7331 213.1293,-367.9273 213.1293,-367.9273 213.1293,-338.4727 213.1293,-338.4727 213.1293,-336.6669 227.8625,-335.2 246,-335.2 264.1375,-335.2 278.8707,-336.6669 278.8707,-338.4727 278.8707,-338.4727 278.8707,-367.9273 278.8707,-367.9273"/>
<path fill="none" stroke="#000000" d="M278.8707,-367.9273C278.8707,-366.1214 264.1375,-364.6545 246,-364.6545 227.8625,-364.6545 213.1293,-366.1214 213.1293,-367.9273"/>
<text text-anchor="middle" x="246" y="-349" font-family="Times,serif" font-size="14.00" fill="#000000">User DB</text>
</g>
<!-- oracle&#45;&gt;asyncPlatform -->
<!-- lookupJob1&#45;&gt;oracle -->
<g id="edge7" class="edge">
<title>lookupJob1&#45;&gt;oracle</title>
<path fill="none" stroke="#595959" stroke-dasharray="5,2" d="M165.1699,-353.2C177.793,-353.2 190.4162,-353.2 203.0393,-353.2"/>
<polygon fill="#595959" stroke="#595959" points="203.1628,-356.7001 213.1628,-353.2 203.1627,-349.7001 203.1628,-356.7001"/>
</g>
<!-- doesJobExist -->
<g id="node9" class="node">
<title>doesJobExist</title>
<polygon fill="none" stroke="#000000" points="91,-299.3002 24.6868,-257.6 91,-215.8998 157.3132,-257.6 91,-299.3002"/>
<text text-anchor="middle" x="91" y="-261.8" font-family="Times,serif" font-size="14.00" fill="#000000">Does job</text>
<text text-anchor="middle" x="91" y="-245" font-family="Times,serif" font-size="14.00" fill="#000000">exist?</text>
</g>
<!-- lookupJob1&#45;&gt;doesJobExist -->
<g id="edge2" class="edge">
<title>lookupJob1&#45;&gt;doesJobExist</title>
<path fill="none" stroke="#000000" d="M91,-334.7674C91,-327.4349 91,-318.5971 91,-309.5594"/>
<polygon fill="#000000" stroke="#000000" points="94.5001,-309.3403 91,-299.3403 87.5001,-309.3404 94.5001,-309.3403"/>
</g>
<!-- lookupJob2 -->
<g id="node7" class="node">
<title>lookupJob2</title>
<polygon fill="none" stroke="#000000" points="229.5414,-180 82.4586,-180 82.4586,-144 229.5414,-144 229.5414,-180"/>
<text text-anchor="middle" x="156" y="-157.8" font-family="Times,serif" font-size="14.00" fill="#000000">Lookup job in platform</text>
</g>
<!-- lookupJob2&#45;&gt;asyncPlatform -->
<g id="edge8" class="edge">
<title>lookupJob2&#45;&gt;asyncPlatform</title>
<path fill="none" stroke="#595959" stroke-dasharray="5,2" d="M172.9944,-180.0518C186.679,-194.5879 206.0988,-215.2161 221.4696,-231.5432"/>
<polygon fill="#595959" stroke="#595959" points="219.2441,-234.2853 228.6471,-239.1674 224.3409,-229.4871 219.2441,-234.2853"/>
</g>
<!-- getError -->
<g id="node8" class="node">
<title>getError</title>
<polygon fill="none" stroke="#000000" points="200.5646,-108 111.4354,-108 111.4354,-72 200.5646,-72 200.5646,-108"/>
<text text-anchor="middle" x="156" y="-85.8" font-family="Times,serif" font-size="14.00" fill="#000000">Get error file</text>
</g>
<!-- lookupJob2&#45;&gt;getError -->
<g id="edge5" class="edge">
<title>lookupJob2&#45;&gt;getError</title>
<path fill="none" stroke="#000000" d="M156,-143.8314C156,-136.131 156,-126.9743 156,-118.4166"/>
<polygon fill="#000000" stroke="#000000" points="159.5001,-118.4132 156,-108.4133 152.5001,-118.4133 159.5001,-118.4132"/>
</g>
<!-- getError&#45;&gt;200 -->
<g id="edge6" class="edge">
<title>getError&#45;&gt;200</title>
<path fill="none" stroke="#000000" d="M156,-71.8314C156,-64.131 156,-54.9743 156,-46.4166"/>
<polygon fill="#000000" stroke="#000000" points="159.5001,-46.4132 156,-36.4133 152.5001,-46.4133 159.5001,-46.4132"/>
</g>
<!-- doesJobExist&#45;&gt;404 -->
<g id="edge3" class="edge">
<title>doesJobExist&#45;&gt;404</title>
<path fill="none" stroke="#000000" d="M78.2161,-223.4801C73.4198,-210.0368 68.1347,-194.3956 64,-180 50.6913,-133.6636 38.9916,-78.7915 32.4713,-46.2718"/>
<polygon fill="#000000" stroke="#000000" points="35.8415,-45.2734 30.4637,-36.1449 28.9751,-46.6347 35.8415,-45.2734"/>
</g>
<!-- doesJobExist&#45;&gt;lookupJob2 -->
<g id="edge4" class="edge">
<title>doesJobExist&#45;&gt;lookupJob2</title>
<path fill="none" stroke="#000000" d="M111.0325,-228.1368C119.6172,-215.5107 129.5698,-200.8728 137.9261,-188.5826"/>
<polygon fill="#000000" stroke="#000000" points="140.9579,-190.3483 143.6862,-180.1107 135.1692,-186.4124 140.9579,-190.3483"/>
</g>
<!-- B -->
<g id="node11" class="node">
<title>B</title>
<polygon fill="none" stroke="#ffffff" points="264,-443.2 228,-443.2 228,-407.2 264,-407.2 264,-443.2"/>
<text text-anchor="middle" x="246" y="-421" font-family="Times,serif" font-size="14.00" fill="#ffffff">B</text>
</g>
<!-- A&#45;&gt;B -->
<!-- B&#45;&gt;oracle -->
</g>
</svg>
