<?xml version="1.0" encoding="UTF-8" standalone="no"?>
<!DOCTYPE svg PUBLIC "-//W3C//DTD SVG 1.1//EN"
 "http://www.w3.org/Graphics/SVG/1.1/DTD/svg11.dtd">
<!-- Generated by graphviz version 2.40.1 (20161225.0304)
 -->
<!-- Title: %0 Pages: 1 -->
<svg width="410pt" height="642pt"
 viewBox="0.00 0.00 410.13 641.60" xmlns="http://www.w3.org/2000/svg" xmlns:xlink="http://www.w3.org/1999/xlink">
<g id="graph0" class="graph" transform="scale(1 1) rotate(0) translate(4 637.6)">
<title>%0</title>
<polygon fill="#ffffff" stroke="transparent" points="-4,4 -4,-637.6 406.128,-637.6 406.128,4 -4,4"/>
<!-- start -->
<g id="node1" class="node">
<title>start</title>
<ellipse fill="none" stroke="#0000ff" cx="108" cy="-615.6" rx="29.049" ry="18"/>
<text text-anchor="middle" x="108" y="-611.4" font-family="Times,serif" font-size="14.00" fill="#000000">Start</text>
</g>
<!-- lookupJob1 -->
<g id="node7" class="node">
<title>lookupJob1</title>
<polygon fill="none" stroke="#000000" points="180.5968,-560.6 35.4032,-560.6 35.4032,-524.6 180.5968,-524.6 180.5968,-560.6"/>
<text text-anchor="middle" x="108" y="-538.4" font-family="Times,serif" font-size="14.00" fill="#000000">Lookup job in user DB</text>
</g>
<!-- start&#45;&gt;lookupJob1 -->
<g id="edge1" class="edge">
<title>start&#45;&gt;lookupJob1</title>
<path fill="none" stroke="#000000" d="M108,-597.5551C108,-589.4828 108,-579.7764 108,-570.7817"/>
<polygon fill="#000000" stroke="#000000" points="111.5001,-570.6903 108,-560.6904 104.5001,-570.6904 111.5001,-570.6903"/>
</g>
<!-- 200 -->
<g id="node2" class="node">
<title>200</title>
<ellipse fill="none" stroke="#00ff00" cx="300" cy="-18" rx="27" ry="18"/>
<text text-anchor="middle" x="300" y="-13.8" font-family="Times,serif" font-size="14.00" fill="#000000">200</text>
</g>
<!-- 403 -->
<g id="node3" class="node">
<title>403</title>
<ellipse fill="none" stroke="#ff0000" cx="146" cy="-18" rx="27" ry="18"/>
<text text-anchor="middle" x="146" y="-13.8" font-family="Times,serif" font-size="14.00" fill="#000000">403</text>
</g>
<!-- 404 -->
<g id="node4" class="node">
<title>404</title>
<ellipse fill="none" stroke="#ff0000" cx="27" cy="-18" rx="27" ry="18"/>
<text text-anchor="middle" x="27" y="-13.8" font-family="Times,serif" font-size="14.00" fill="#000000">404</text>
</g>
<!-- asyncPlatform -->
<g id="node5" class="node">
<title>asyncPlatform</title>
<polygon fill="none" stroke="#000000" points="402.2563,-238.2 297.7437,-238.2 297.7437,-234.2 293.7437,-234.2 293.7437,-230.2 297.7437,-230.2 297.7437,-210.2 293.7437,-210.2 293.7437,-206.2 297.7437,-206.2 297.7437,-202.2 402.2563,-202.2 402.2563,-238.2"/>
<polyline fill="none" stroke="#000000" points="297.7437,-234.2 301.7437,-234.2 301.7437,-230.2 297.7437,-230.2 "/>
<polyline fill="none" stroke="#000000" points="297.7437,-210.2 301.7437,-210.2 301.7437,-206.2 297.7437,-206.2 "/>
<text text-anchor="middle" x="350" y="-216" font-family="Times,serif" font-size="14.00" fill="#000000">Async Platform</text>
</g>
<!-- asyncPlatform&#45;&gt;200 -->
<!-- oracle -->
<g id="node6" class="node">
<title>oracle</title>
<path fill="none" stroke="#000000" d="M382.8707,-557.3273C382.8707,-559.1331 368.1375,-560.6 350,-560.6 331.8625,-560.6 317.1293,-559.1331 317.1293,-557.3273 317.1293,-557.3273 317.1293,-527.8727 317.1293,-527.8727 317.1293,-526.0669 331.8625,-524.6 350,-524.6 368.1375,-524.6 382.8707,-526.0669 382.8707,-527.8727 382.8707,-527.8727 382.8707,-557.3273 382.8707,-557.3273"/>
<path fill="none" stroke="#000000" d="M382.8707,-557.3273C382.8707,-555.5214 368.1375,-554.0545 350,-554.0545 331.8625,-554.0545 317.1293,-555.5214 317.1293,-557.3273"/>
<text text-anchor="middle" x="350" y="-538.4" font-family="Times,serif" font-size="14.00" fill="#000000">User DB</text>
</g>
<!-- oracle&#45;&gt;asyncPlatform -->
<!-- lookupJob1&#45;&gt;oracle -->
<g id="edge9" class="edge">
<title>lookupJob1&#45;&gt;oracle</title>
<path fill="none" stroke="#595959" stroke-dasharray="5,2" d="M180.7891,-542.6C222.9098,-542.6 265.0305,-542.6 307.1512,-542.6"/>
<polygon fill="#595959" stroke="#595959" points="307.2815,-546.1001 317.2815,-542.6 307.2814,-539.1001 307.2815,-546.1001"/>
</g>
<!-- doesJobExist -->
<g id="node10" class="node">
<title>doesJobExist</title>
<polygon fill="none" stroke="#000000" points="108,-487.7002 41.6868,-446 108,-404.2998 174.3132,-446 108,-487.7002"/>
<text text-anchor="middle" x="108" y="-450.2" font-family="Times,serif" font-size="14.00" fill="#000000">Does job</text>
<text text-anchor="middle" x="108" y="-433.4" font-family="Times,serif" font-size="14.00" fill="#000000">exist?</text>
</g>
<!-- lookupJob1&#45;&gt;doesJobExist -->
<g id="edge2" class="edge">
<title>lookupJob1&#45;&gt;doesJobExist</title>
<path fill="none" stroke="#000000" d="M108,-524.4303C108,-516.8044 108,-507.5101 108,-498.023"/>
<polygon fill="#000000" stroke="#000000" points="111.5001,-497.7228 108,-487.7228 104.5001,-497.7228 111.5001,-497.7228"/>
</g>
<!-- lookupJob2 -->
<g id="node8" class="node">
<title>lookupJob2</title>
<polygon fill="none" stroke="#000000" points="231.5414,-351.6 84.4586,-351.6 84.4586,-315.6 231.5414,-315.6 231.5414,-351.6"/>
<text text-anchor="middle" x="158" y="-329.4" font-family="Times,serif" font-size="14.00" fill="#000000">Lookup job in platform</text>
</g>
<!-- lookupJob2&#45;&gt;asyncPlatform -->
<g id="edge10" class="edge">
<title>lookupJob2&#45;&gt;asyncPlatform</title>
<path fill="none" stroke="#595959" stroke-dasharray="5,2" d="M188.8481,-315.3803C221.8782,-295.8719 274.3914,-264.8563 310.4401,-243.5651"/>
<polygon fill="#595959" stroke="#595959" points="312.398,-246.4736 319.2284,-238.3745 308.8381,-240.4464 312.398,-246.4736"/>
</g>
<!-- isJobComplete -->
<g id="node11" class="node">
<title>isJobComplete</title>
<polygon fill="none" stroke="#000000" points="163,-278.5002 80.2969,-220.2 163,-161.8998 245.7031,-220.2 163,-278.5002"/>
<text text-anchor="middle" x="163" y="-232.8" font-family="Times,serif" font-size="14.00" fill="#000000">Is job</text>
<text text-anchor="middle" x="163" y="-216" font-family="Times,serif" font-size="14.00" fill="#000000">status</text>
<text text-anchor="middle" x="163" y="-199.2" font-family="Times,serif" font-size="14.00" fill="#000000">&#39;complete&#39;?</text>
</g>
<!-- lookupJob2&#45;&gt;isJobComplete -->
<g id="edge5" class="edge">
<title>lookupJob2&#45;&gt;isJobComplete</title>
<path fill="none" stroke="#000000" d="M158.8033,-315.3803C159.1548,-307.4095 159.5909,-297.5176 160.0479,-287.1529"/>
<polygon fill="#000000" stroke="#000000" points="163.5464,-287.2625 160.4904,-277.118 156.5532,-286.9541 163.5464,-287.2625"/>
</g>
<!-- getJobResult -->
<g id="node9" class="node">
<title>getJobResult</title>
<polygon fill="none" stroke="#000000" points="295.2036,-109 202.7964,-109 202.7964,-73 295.2036,-73 295.2036,-109"/>
<text text-anchor="middle" x="249" y="-86.8" font-family="Times,serif" font-size="14.00" fill="#000000">Get job result</text>
</g>
<!-- getJobResult&#45;&gt;200 -->
<g id="edge8" class="edge">
<title>getJobResult&#45;&gt;200</title>
<path fill="none" stroke="#000000" d="M261.6067,-72.9551C267.9947,-63.8115 275.8476,-52.571 282.7833,-42.6434"/>
<polygon fill="#000000" stroke="#000000" points="285.7244,-44.545 288.5824,-34.3429 279.9861,-40.536 285.7244,-44.545"/>
</g>
<!-- getJobResult&#45;&gt;asyncPlatform -->
<g id="edge11" class="edge">
<title>getJobResult&#45;&gt;asyncPlatform</title>
<path fill="none" stroke="#595959" stroke-dasharray="5,2" d="M263.1841,-109.1444C280.4448,-131.2244 309.7215,-168.6754 329.45,-193.9123"/>
<polygon fill="#595959" stroke="#595959" points="326.8271,-196.24 335.7434,-201.9628 332.342,-191.9288 326.8271,-196.24"/>
</g>
<!-- doesJobExist&#45;&gt;404 -->
<g id="edge3" class="edge">
<title>doesJobExist&#45;&gt;404</title>
<path fill="none" stroke="#ff0000" d="M98.2264,-410.1751C80.328,-344.5687 44.1066,-211.8 44.1066,-211.8 44.1066,-211.8 34.2699,-100.36 29.5149,-46.4909"/>
<polygon fill="#ff0000" stroke="#ff0000" points="32.9752,-45.8857 28.6093,-36.2322 26.0023,-46.5013 32.9752,-45.8857"/>
<text text-anchor="middle" x="35.5533" y="-216" font-family="Times,serif" font-size="14.00" fill="#000000">No</text>
</g>
<!-- doesJobExist&#45;&gt;lookupJob2 -->
<g id="edge4" class="edge">
<title>doesJobExist&#45;&gt;lookupJob2</title>
<path fill="none" stroke="#00ff00" d="M122.5965,-413.1871C129.9963,-396.5523 138.8762,-376.5904 145.8915,-360.8198"/>
<polygon fill="#00ff00" stroke="#00ff00" points="149.1222,-362.1687 149.9887,-351.6093 142.7264,-359.3235 149.1222,-362.1687"/>
<text text-anchor="middle" x="152.8829" y="-373.8" font-family="Times,serif" font-size="14.00" fill="#000000">Yes</text>
</g>
<!-- isJobComplete&#45;&gt;403 -->
<g id="edge6" class="edge">
<title>isJobComplete&#45;&gt;403</title>
<path fill="none" stroke="#ff0000" d="M155.4941,-166.8637C150.94,-134.5031 146,-99.4 146,-99.4 146,-99.4 146,-69.8055 146,-46.3055"/>
<polygon fill="#ff0000" stroke="#ff0000" points="149.5001,-46.0653 146,-36.0653 142.5001,-46.0653 149.5001,-46.0653"/>
<text text-anchor="middle" x="154.5533" y="-86.8" font-family="Times,serif" font-size="14.00" fill="#000000">No</text>
</g>
<!-- isJobComplete&#45;&gt;getJobResult -->
<g id="edge7" class="edge">
<title>isJobComplete&#45;&gt;getJobResult</title>
<path fill="none" stroke="#00ff00" d="M189.5046,-180.3815C203.0767,-159.9917 219.233,-135.7197 231.2822,-117.6179"/>
<polygon fill="#00ff00" stroke="#00ff00" points="234.2104,-119.5352 236.838,-109.2713 228.3833,-115.6564 234.2104,-119.5352"/>
<text text-anchor="middle" x="234.8829" y="-131.2" font-family="Times,serif" font-size="14.00" fill="#000000">Yes</text>
</g>
</g>
</svg>
