<?xml version="1.0" encoding="UTF-8" standalone="no"?>
<!DOCTYPE svg PUBLIC "-//W3C//DTD SVG 1.1//EN"
 "http://www.w3.org/Graphics/SVG/1.1/DTD/svg11.dtd">
<!-- Generated by graphviz version 2.40.1 (20161225.0304)
 -->
<!-- Title: %0 Pages: 1 -->
<svg width="293pt" height="326pt"
 viewBox="0.00 0.00 292.79 326.00" xmlns="http://www.w3.org/2000/svg" xmlns:xlink="http://www.w3.org/1999/xlink">
<g id="graph0" class="graph" transform="scale(1 1) rotate(0) translate(4 322)">
<title>%0</title>
<polygon fill="#ffffff" stroke="transparent" points="-4,4 -4,-322 288.7865,-322 288.7865,4 -4,4"/>
<!-- start -->
<g id="node1" class="node">
<title>start</title>
<ellipse fill="none" stroke="#0000ff" cx="74.1017" cy="-300" rx="29.049" ry="18"/>
<text text-anchor="middle" x="74.1017" y="-295.8" font-family="Times,serif" font-size="14.00" fill="#000000">Start</text>
</g>
<!-- lookupJob -->
<g id="node5" class="node">
<title>lookupJob</title>
<polygon fill="none" stroke="#000000" points="148.3052,-245 -.1018,-245 -.1018,-209 148.3052,-209 148.3052,-245"/>
<text text-anchor="middle" x="74.1017" y="-222.8" font-family="Times,serif" font-size="14.00" fill="#000000">Lookup job in User DB</text>
</g>
<!-- start&#45;&gt;lookupJob -->
<g id="edge1" class="edge">
<title>start&#45;&gt;lookupJob</title>
<path fill="none" stroke="#000000" d="M74.1017,-281.9551C74.1017,-273.8828 74.1017,-264.1764 74.1017,-255.1817"/>
<polygon fill="#000000" stroke="#000000" points="77.6018,-255.0903 74.1017,-245.0904 70.6018,-255.0904 77.6018,-255.0903"/>
</g>
<!-- 200 -->
<g id="node2" class="node">
<title>200</title>
<ellipse fill="none" stroke="#00ff00" cx="29.1017" cy="-18" rx="27" ry="18"/>
<text text-anchor="middle" x="29.1017" y="-13.8" font-family="Times,serif" font-size="14.00" fill="#000000">200</text>
</g>
<!-- 404 -->
<g id="node3" class="node">
<title>404</title>
<ellipse fill="none" stroke="#ff0000" cx="119.1017" cy="-18" rx="27" ry="18"/>
<text text-anchor="middle" x="119.1017" y="-13.8" font-family="Times,serif" font-size="14.00" fill="#000000">404</text>
</g>
<!-- oracle -->
<g id="node4" class="node">
<title>oracle</title>
<path fill="none" stroke="#000000" d="M284.9724,-241.7273C284.9724,-243.5331 270.2392,-245 252.1017,-245 233.9642,-245 219.231,-243.5331 219.231,-241.7273 219.231,-241.7273 219.231,-212.2727 219.231,-212.2727 219.231,-210.4669 233.9642,-209 252.1017,-209 270.2392,-209 284.9724,-210.4669 284.9724,-212.2727 284.9724,-212.2727 284.9724,-241.7273 284.9724,-241.7273"/>
<path fill="none" stroke="#000000" d="M284.9724,-241.7273C284.9724,-239.9214 270.2392,-238.4545 252.1017,-238.4545 233.9642,-238.4545 219.231,-239.9214 219.231,-241.7273"/>
<text text-anchor="middle" x="252.1017" y="-222.8" font-family="Times,serif" font-size="14.00" fill="#000000">User DB</text>
</g>
<!-- lookupJob&#45;&gt;oracle -->
<g id="edge5" class="edge">
<title>lookupJob&#45;&gt;oracle</title>
<path fill="none" stroke="#595959" stroke-dasharray="5,2" d="M148.5001,-227C168.6953,-227 188.8905,-227 209.0856,-227"/>
<polygon fill="#595959" stroke="#595959" points="209.3216,-230.5001 219.3215,-227 209.3215,-223.5001 209.3216,-230.5001"/>
</g>
<!-- doesJobExist -->
<g id="node6" class="node">
<title>doesJobExist</title>
<polygon fill="none" stroke="#000000" points="74.1017,-172.1002 7.7885,-130.4 74.1017,-88.6998 140.4149,-130.4 74.1017,-172.1002"/>
<text text-anchor="middle" x="74.1017" y="-134.6" font-family="Times,serif" font-size="14.00" fill="#000000">Does job</text>
<text text-anchor="middle" x="74.1017" y="-117.8" font-family="Times,serif" font-size="14.00" fill="#000000">exist?</text>
</g>
<!-- lookupJob&#45;&gt;doesJobExist -->
<g id="edge2" class="edge">
<title>lookupJob&#45;&gt;doesJobExist</title>
<path fill="none" stroke="#000000" d="M74.1017,-208.8303C74.1017,-201.2044 74.1017,-191.9101 74.1017,-182.423"/>
<polygon fill="#000000" stroke="#000000" points="77.6018,-182.1228 74.1017,-172.1228 70.6018,-182.1228 77.6018,-182.1228"/>
</g>
<!-- doesJobExist&#45;&gt;200 -->
<g id="edge4" class="edge">
<title>doesJobExist&#45;&gt;200</title>
<path fill="none" stroke="#00ff00" d="M60.7221,-96.9806C54.0913,-80.4184 46.1884,-60.6789 39.9422,-45.0771"/>
<polygon fill="#00ff00" stroke="#00ff00" points="43.0728,-43.4797 36.1067,-35.4969 36.5742,-46.0815 43.0728,-43.4797"/>
<text text-anchor="middle" x="59.9846" y="-58.2" font-family="Times,serif" font-size="14.00" fill="#000000">Yes</text>
</g>
<!-- doesJobExist&#45;&gt;404 -->
<g id="edge3" class="edge">
<title>doesJobExist&#45;&gt;404</title>
<path fill="none" stroke="#ff0000" d="M87.4813,-96.9806C94.1121,-80.4184 102.015,-60.6789 108.2612,-45.0771"/>
<polygon fill="#ff0000" stroke="#ff0000" points="111.6292,-46.0815 112.0967,-35.4969 105.1306,-43.4797 111.6292,-46.0815"/>
<text text-anchor="middle" x="112.655" y="-58.2" font-family="Times,serif" font-size="14.00" fill="#000000">No</text>
</g>
</g>
</svg>
