<?xml version="1.0" encoding="UTF-8" standalone="no"?>
<!DOCTYPE svg PUBLIC "-//W3C//DTD SVG 1.1//EN"
 "http://www.w3.org/Graphics/SVG/1.1/DTD/svg11.dtd">
<!-- Generated by graphviz version 2.40.1 (20161225.0304)
 -->
<!-- Title: %0 Pages: 1 -->
<svg width="382pt" height="757pt"
 viewBox="0.00 0.00 382.13 756.80" xmlns="http://www.w3.org/2000/svg" xmlns:xlink="http://www.w3.org/1999/xlink">
<g id="graph0" class="graph" transform="scale(1 1) rotate(0) translate(4 752.8)">
<title>%0</title>
<polygon fill="#ffffff" stroke="transparent" points="-4,4 -4,-752.8 378.128,-752.8 378.128,4 -4,4"/>
<!-- start -->
<g id="node1" class="node">
<title>start</title>
<ellipse fill="none" stroke="#0000ff" cx="165" cy="-730.8" rx="29.049" ry="18"/>
<text text-anchor="middle" x="165" y="-726.6" font-family="Times,serif" font-size="14.00" fill="#000000">Start</text>
</g>
<!-- lookupJob1 -->
<g id="node7" class="node">
<title>lookupJob1</title>
<polygon fill="none" stroke="#000000" points="237.2035,-676.8 88.7965,-676.8 88.7965,-640.8 237.2035,-640.8 237.2035,-676.8"/>
<text text-anchor="middle" x="163" y="-654.6" font-family="Times,serif" font-size="14.00" fill="#000000">Lookup job in User DB</text>
</g>
<!-- start&#45;&gt;lookupJob1 -->
<g id="edge1" class="edge">
<title>start&#45;&gt;lookupJob1</title>
<path fill="none" stroke="#000000" d="M164.4953,-712.6314C164.2814,-704.931 164.0271,-695.7743 163.7894,-687.2166"/>
<polygon fill="#000000" stroke="#000000" points="167.2879,-687.1122 163.5115,-677.2133 160.2906,-687.3066 167.2879,-687.1122"/>
</g>
<!-- A -->
<g id="node13" class="node">
<title>A</title>
<polygon fill="none" stroke="#ffffff" points="267,-748.8 231,-748.8 231,-712.8 267,-712.8 267,-748.8"/>
<text text-anchor="middle" x="249" y="-726.6" font-family="Times,serif" font-size="14.00" fill="#ffffff">A</text>
</g>
<!-- start&#45;&gt;A -->
<!-- 200 -->
<g id="node2" class="node">
<title>200</title>
<ellipse fill="none" stroke="#00ff00" cx="155" cy="-18" rx="27" ry="18"/>
<text text-anchor="middle" x="155" y="-13.8" font-family="Times,serif" font-size="14.00" fill="#000000">200</text>
</g>
<!-- 403 -->
<g id="node3" class="node">
<title>403</title>
<ellipse fill="none" stroke="#ff0000" cx="264" cy="-18" rx="27" ry="18"/>
<text text-anchor="middle" x="264" y="-13.8" font-family="Times,serif" font-size="14.00" fill="#000000">403</text>
</g>
<!-- 404 -->
<g id="node4" class="node">
<title>404</title>
<ellipse fill="none" stroke="#ff0000" cx="27" cy="-18" rx="27" ry="18"/>
<text text-anchor="middle" x="27" y="-13.8" font-family="Times,serif" font-size="14.00" fill="#000000">404</text>
</g>
<!-- asyncPlatform -->
<g id="node5" class="node">
<title>asyncPlatform</title>
<polygon fill="none" stroke="#000000" points="374.2563,-485.6 269.7437,-485.6 269.7437,-481.6 265.7437,-481.6 265.7437,-477.6 269.7437,-477.6 269.7437,-457.6 265.7437,-457.6 265.7437,-453.6 269.7437,-453.6 269.7437,-449.6 374.2563,-449.6 374.2563,-485.6"/>
<polyline fill="none" stroke="#000000" points="269.7437,-481.6 273.7437,-481.6 273.7437,-477.6 269.7437,-477.6 "/>
<polyline fill="none" stroke="#000000" points="269.7437,-457.6 273.7437,-457.6 273.7437,-453.6 269.7437,-453.6 "/>
<text text-anchor="middle" x="322" y="-463.4" font-family="Times,serif" font-size="14.00" fill="#000000">Async Platform</text>
</g>
<!-- oracle -->
<g id="node6" class="node">
<title>oracle</title>
<path fill="none" stroke="#000000" d="M353.8707,-673.5273C353.8707,-675.3331 339.1375,-676.8 321,-676.8 302.8625,-676.8 288.1293,-675.3331 288.1293,-673.5273 288.1293,-673.5273 288.1293,-644.0727 288.1293,-644.0727 288.1293,-642.2669 302.8625,-640.8 321,-640.8 339.1375,-640.8 353.8707,-642.2669 353.8707,-644.0727 353.8707,-644.0727 353.8707,-673.5273 353.8707,-673.5273"/>
<path fill="none" stroke="#000000" d="M353.8707,-673.5273C353.8707,-671.7214 339.1375,-670.2545 321,-670.2545 302.8625,-670.2545 288.1293,-671.7214 288.1293,-673.5273"/>
<text text-anchor="middle" x="321" y="-654.6" font-family="Times,serif" font-size="14.00" fill="#000000">User DB</text>
</g>
<!-- oracle&#45;&gt;asyncPlatform -->
<!-- lookupJob1&#45;&gt;oracle -->
<g id="edge11" class="edge">
<title>lookupJob1&#45;&gt;oracle</title>
<path fill="none" stroke="#595959" stroke-dasharray="5,2" d="M237.3711,-658.8C250.8209,-658.8 264.2708,-658.8 277.7206,-658.8"/>
<polygon fill="#595959" stroke="#595959" points="278.0058,-662.3001 288.0058,-658.8 278.0057,-655.3001 278.0058,-662.3001"/>
</g>
<!-- doesJobExist -->
<g id="node10" class="node">
<title>doesJobExist</title>
<polygon fill="none" stroke="#000000" points="160,-604.9002 93.6868,-563.2 160,-521.4998 226.3132,-563.2 160,-604.9002"/>
<text text-anchor="middle" x="160" y="-567.4" font-family="Times,serif" font-size="14.00" fill="#000000">Does job</text>
<text text-anchor="middle" x="160" y="-550.6" font-family="Times,serif" font-size="14.00" fill="#000000">exist?</text>
</g>
<!-- lookupJob1&#45;&gt;doesJobExist -->
<g id="edge2" class="edge">
<title>lookupJob1&#45;&gt;doesJobExist</title>
<path fill="none" stroke="#000000" d="M162.4216,-640.3674C162.184,-632.7966 161.8961,-623.6212 161.6029,-614.278"/>
<polygon fill="#000000" stroke="#000000" points="165.0968,-614.027 161.2848,-604.1417 158.1003,-614.2466 165.0968,-614.027"/>
</g>
<!-- lookupJob2 -->
<g id="node8" class="node">
<title>lookupJob2</title>
<polygon fill="none" stroke="#000000" points="233.5414,-485.6 86.4586,-485.6 86.4586,-449.6 233.5414,-449.6 233.5414,-485.6"/>
<text text-anchor="middle" x="160" y="-463.4" font-family="Times,serif" font-size="14.00" fill="#000000">Lookup job in platform</text>
</g>
<!-- lookupJob2&#45;&gt;asyncPlatform -->
<g id="edge12" class="edge">
<title>lookupJob2&#45;&gt;asyncPlatform</title>
<path fill="none" stroke="#595959" stroke-dasharray="5,2" d="M233.7227,-467.6C242.3148,-467.6 250.9069,-467.6 259.499,-467.6"/>
<polygon fill="#595959" stroke="#595959" points="259.5854,-471.1001 269.5853,-467.6 259.5853,-464.1001 259.5854,-471.1001"/>
</g>
<!-- isJobComplete -->
<g id="node11" class="node">
<title>isJobComplete</title>
<polygon fill="none" stroke="#000000" points="165,-413.5002 82.2969,-355.2 165,-296.8998 247.7031,-355.2 165,-413.5002"/>
<text text-anchor="middle" x="165" y="-367.8" font-family="Times,serif" font-size="14.00" fill="#000000">Is job</text>
<text text-anchor="middle" x="165" y="-351" font-family="Times,serif" font-size="14.00" fill="#000000">status</text>
<text text-anchor="middle" x="165" y="-334.2" font-family="Times,serif" font-size="14.00" fill="#000000">&#39;complete&#39;?</text>
</g>
<!-- lookupJob2&#45;&gt;isJobComplete -->
<g id="edge5" class="edge">
<title>lookupJob2&#45;&gt;isJobComplete</title>
<path fill="none" stroke="#000000" d="M160.8033,-449.541C161.147,-441.815 161.5717,-432.2681 162.0177,-422.2427"/>
<polygon fill="#000000" stroke="#000000" points="165.5206,-422.2532 162.4685,-412.1075 158.5275,-421.942 165.5206,-422.2532"/>
</g>
<!-- getError -->
<g id="node9" class="node">
<title>getError</title>
<polygon fill="none" stroke="#000000" points="199.5646,-108 110.4354,-108 110.4354,-72 199.5646,-72 199.5646,-108"/>
<text text-anchor="middle" x="155" y="-85.8" font-family="Times,serif" font-size="14.00" fill="#000000">Get error file</text>
</g>
<!-- getError&#45;&gt;200 -->
<g id="edge10" class="edge">
<title>getError&#45;&gt;200</title>
<path fill="none" stroke="#000000" d="M155,-71.8314C155,-64.131 155,-54.9743 155,-46.4166"/>
<polygon fill="#000000" stroke="#000000" points="158.5001,-46.4132 155,-36.4133 151.5001,-46.4133 158.5001,-46.4132"/>
</g>
<!-- doesJobExist&#45;&gt;404 -->
<g id="edge3" class="edge">
<title>doesJobExist&#45;&gt;404</title>
<path fill="none" stroke="#ff0000" d="M126.4667,-542.0611C106.9044,-528.1712 83.1692,-508.3852 68,-485.6 34.3326,-435.0292 27,-415.9527 27,-355.2 27,-355.2 27,-355.2 27,-202.4 27,-147.131 27,-82.544 27,-46.3422"/>
<polygon fill="#ff0000" stroke="#ff0000" points="30.5001,-46.0602 27,-36.0602 23.5001,-46.0602 30.5001,-46.0602"/>
<text text-anchor="middle" x="117.9134" y="-513.4611" font-family="Times,serif" font-size="14.00" fill="#000000">No</text>
</g>
<!-- doesJobExist&#45;&gt;lookupJob2 -->
<g id="edge4" class="edge">
<title>doesJobExist&#45;&gt;lookupJob2</title>
<path fill="none" stroke="#00ff00" d="M160,-521.5466C160,-512.9675 160,-504.1199 160,-496.1339"/>
<polygon fill="#00ff00" stroke="#00ff00" points="163.5001,-495.8842 160,-485.8842 156.5001,-495.8843 163.5001,-495.8842"/>
<text text-anchor="middle" x="149.1171" y="-508.9466" font-family="Times,serif" font-size="14.00" fill="#000000">Yes</text>
</g>
<!-- isJobComplete&#45;&gt;getError -->
<g id="edge7" class="edge">
<title>isJobComplete&#45;&gt;getError</title>
<path fill="none" stroke="#00ff00" d="M162.8547,-298.3079C160.7694,-243.0045 157.6877,-161.2785 156.0743,-118.4897"/>
<polygon fill="#00ff00" stroke="#00ff00" points="159.5623,-118.1048 155.6879,-108.2438 152.5673,-118.3686 159.5623,-118.1048"/>
<text text-anchor="middle" x="151.9718" y="-285.7079" font-family="Times,serif" font-size="14.00" fill="#000000">Yes</text>
</g>
<!-- isJobFailed -->
<g id="node12" class="node">
<title>isJobFailed</title>
<polygon fill="none" stroke="#000000" points="264,-260.7002 200.6863,-202.4 264,-144.0998 327.3137,-202.4 264,-260.7002"/>
<text text-anchor="middle" x="264" y="-215" font-family="Times,serif" font-size="14.00" fill="#000000">Is job</text>
<text text-anchor="middle" x="264" y="-198.2" font-family="Times,serif" font-size="14.00" fill="#000000">status</text>
<text text-anchor="middle" x="264" y="-181.4" font-family="Times,serif" font-size="14.00" fill="#000000">&#39;failed&#39;?</text>
</g>
<!-- isJobComplete&#45;&gt;isJobFailed -->
<g id="edge6" class="edge">
<title>isJobComplete&#45;&gt;isJobFailed</title>
<path fill="none" stroke="#ff0000" d="M191.0111,-315.0536C204.4046,-294.3815 220.785,-269.0996 234.6318,-247.7278"/>
<polygon fill="#ff0000" stroke="#ff0000" points="237.6963,-249.4348 240.1965,-239.1391 231.8216,-245.6285 237.6963,-249.4348"/>
<text text-anchor="middle" x="199.5644" y="-286.4536" font-family="Times,serif" font-size="14.00" fill="#000000">No</text>
</g>
<!-- isJobFailed&#45;&gt;403 -->
<g id="edge8" class="edge">
<title>isJobFailed&#45;&gt;403</title>
<path fill="none" stroke="#ff0000" d="M264,-144.0547C264,-111.5562 264,-72.5411 264,-46.6102"/>
<polygon fill="#ff0000" stroke="#ff0000" points="267.5001,-46.3551 264,-36.3551 260.5001,-46.3552 267.5001,-46.3551"/>
<text text-anchor="middle" x="255.4467" y="-131.4547" font-family="Times,serif" font-size="14.00" fill="#000000">No</text>
</g>
<!-- isJobFailed&#45;&gt;getError -->
<g id="edge9" class="edge">
<title>isJobFailed&#45;&gt;getError</title>
<path fill="none" stroke="#00ff00" d="M233.9267,-171.3887C216.8774,-153.8075 195.8069,-132.0797 179.7261,-115.4974"/>
<polygon fill="#00ff00" stroke="#00ff00" points="182.1954,-113.0162 172.7211,-108.2739 177.1702,-117.8893 182.1954,-113.0162"/>
<text text-anchor="middle" x="223.0438" y="-142.7887" font-family="Times,serif" font-size="14.00" fill="#000000">Yes</text>
</g>
<!-- B -->
<g id="node14" class="node">
<title>B</title>
<polygon fill="none" stroke="#ffffff" points="339,-748.8 303,-748.8 303,-712.8 339,-712.8 339,-748.8"/>
<text text-anchor="middle" x="321" y="-726.6" font-family="Times,serif" font-size="14.00" fill="#ffffff">B</text>
</g>
<!-- A&#45;&gt;B -->
<!-- B&#45;&gt;oracle -->
</g>
</svg>
