<?xml version="1.0" encoding="UTF-8" standalone="no"?>
<!DOCTYPE svg PUBLIC "-//W3C//DTD SVG 1.1//EN"
 "http://www.w3.org/Graphics/SVG/1.1/DTD/svg11.dtd">
<!-- Generated by graphviz version 2.40.1 (20161225.0304)
 -->
<!-- Title: %0 Pages: 1 -->
<svg width="368pt" height="497pt"
 viewBox="0.00 0.00 368.45 496.53" xmlns="http://www.w3.org/2000/svg" xmlns:xlink="http://www.w3.org/1999/xlink">
<g id="graph0" class="graph" transform="scale(1 1) rotate(0) translate(4 492.5331)">
<title>%0</title>
<polygon fill="#ffffff" stroke="transparent" points="-4,4 -4,-492.5331 364.4471,-492.5331 364.4471,4 -4,4"/>
<!-- containerCore -->
<g id="node1" class="node">
<title>containerCore</title>
<polygon fill="none" stroke="#000000" points="281.2385,-393.9858 179.3997,-393.9858 179.3997,-389.9858 175.3997,-389.9858 175.3997,-385.9858 179.3997,-385.9858 179.3997,-365.9858 175.3997,-365.9858 175.3997,-361.9858 179.3997,-361.9858 179.3997,-357.9858 281.2385,-357.9858 281.2385,-393.9858"/>
<polyline fill="none" stroke="#000000" points="179.3997,-389.9858 183.3997,-389.9858 183.3997,-385.9858 179.3997,-385.9858 "/>
<polyline fill="none" stroke="#000000" points="179.3997,-365.9858 183.3997,-365.9858 183.3997,-361.9858 179.3997,-361.9858 "/>
<text text-anchor="middle" x="230.3191" y="-371.7858" font-family="Times,serif" font-size="14.00" fill="#000000">Container Core</text>
</g>
<!-- oracle -->
<g id="node10" class="node">
<title>oracle</title>
<path fill="none" stroke="#000000" d="M258.1898,-318.713C258.1898,-320.5189 243.4566,-321.9858 225.3191,-321.9858 207.1816,-321.9858 192.4484,-320.5189 192.4484,-318.713 192.4484,-318.713 192.4484,-289.2585 192.4484,-289.2585 192.4484,-287.4526 207.1816,-285.9858 225.3191,-285.9858 243.4566,-285.9858 258.1898,-287.4526 258.1898,-289.2585 258.1898,-289.2585 258.1898,-318.713 258.1898,-318.713"/>
<path fill="none" stroke="#000000" d="M258.1898,-318.713C258.1898,-316.9072 243.4566,-315.4403 225.3191,-315.4403 207.1816,-315.4403 192.4484,-316.9072 192.4484,-318.713"/>
<text text-anchor="middle" x="225.3191" y="-299.7858" font-family="Times,serif" font-size="14.00" fill="#000000">User DB</text>
</g>
<!-- containerCore&#45;&gt;oracle -->
<g id="edge3" class="edge">
<title>containerCore&#45;&gt;oracle</title>
<path fill="none" stroke="#000000" d="M228.3646,-347.8402C228.0122,-342.7668 227.6447,-337.4745 227.2919,-332.3936"/>
<polygon fill="#000000" stroke="#000000" points="224.8729,-348.0836 229.0574,-357.8171 231.8561,-347.5986 224.8729,-348.0836"/>
<polygon fill="#000000" stroke="#000000" points="230.7823,-332.1325 226.5978,-322.399 223.7991,-332.6175 230.7823,-332.1325"/>
</g>
<!-- asyncPlatform -->
<g id="node2" class="node">
<title>asyncPlatform</title>
<polygon fill="none" stroke="#000000" points="360.5754,-127.9858 256.0628,-127.9858 256.0628,-123.9858 252.0628,-123.9858 252.0628,-119.9858 256.0628,-119.9858 256.0628,-99.9858 252.0628,-99.9858 252.0628,-95.9858 256.0628,-95.9858 256.0628,-91.9858 360.5754,-91.9858 360.5754,-127.9858"/>
<polyline fill="none" stroke="#000000" points="256.0628,-123.9858 260.0628,-123.9858 260.0628,-119.9858 256.0628,-119.9858 "/>
<polyline fill="none" stroke="#000000" points="256.0628,-99.9858 260.0628,-99.9858 260.0628,-95.9858 256.0628,-95.9858 "/>
<text text-anchor="middle" x="308.3191" y="-105.7858" font-family="Times,serif" font-size="14.00" fill="#000000">Async Platform</text>
</g>
<!-- start -->
<g id="node3" class="node">
<title>start</title>
<ellipse fill="none" stroke="#0000ff" cx="100.3191" cy="-459.2594" rx="29.049" ry="29.049"/>
<text text-anchor="middle" x="100.3191" y="-455.0594" font-family="Times,serif" font-size="14.00" fill="#000000">Start</text>
</g>
<!-- lookupUser -->
<g id="node5" class="node">
<title>lookupUser</title>
<polygon fill="none" stroke="#000000" points="143.6923,-393.9858 56.9459,-393.9858 56.9459,-357.9858 143.6923,-357.9858 143.6923,-393.9858"/>
<text text-anchor="middle" x="100.3191" y="-371.7858" font-family="Times,serif" font-size="14.00" fill="#000000">Lookup user</text>
</g>
<!-- start&#45;&gt;lookupUser -->
<g id="edge1" class="edge">
<title>start&#45;&gt;lookupUser</title>
<path fill="none" stroke="#000000" d="M100.3191,-429.6658C100.3191,-421.4745 100.3191,-412.6029 100.3191,-404.476"/>
<polygon fill="#000000" stroke="#000000" points="103.8192,-404.341 100.3191,-394.341 96.8192,-404.3411 103.8192,-404.341"/>
</g>
<!-- end -->
<g id="node4" class="node">
<title>end</title>
<ellipse fill="none" stroke="#0000ff" cx="173.3191" cy="-26.5929" rx="26.6861" ry="26.6861"/>
<text text-anchor="middle" x="173.3191" y="-22.3929" font-family="Times,serif" font-size="14.00" fill="#000000">End</text>
</g>
<!-- lookupUser&#45;&gt;containerCore -->
<g id="edge2" class="edge">
<title>lookupUser&#45;&gt;containerCore</title>
<path fill="none" stroke="#000000" d="M154.0023,-375.9858C158.9991,-375.9858 163.9959,-375.9858 168.9927,-375.9858"/>
<polygon fill="#000000" stroke="#000000" points="153.7371,-372.4859 143.7371,-375.9858 153.737,-379.4859 153.7371,-372.4859"/>
<polygon fill="#000000" stroke="#000000" points="169.2493,-379.4859 179.2492,-375.9858 169.2492,-372.4859 169.2493,-379.4859"/>
</g>
<!-- lookupJobs -->
<g id="node6" class="node">
<title>lookupJobs</title>
<polygon fill="none" stroke="#000000" points="152.7078,-321.9858 65.9304,-321.9858 65.9304,-285.9858 152.7078,-285.9858 152.7078,-321.9858"/>
<text text-anchor="middle" x="109.3191" y="-299.7858" font-family="Times,serif" font-size="14.00" fill="#000000">Lookup jobs</text>
</g>
<!-- lookupUser&#45;&gt;lookupJobs -->
<g id="edge4" class="edge">
<title>lookupUser&#45;&gt;lookupJobs</title>
<path fill="none" stroke="#000000" d="M102.5902,-357.8171C103.5527,-350.1167 104.6973,-340.9601 105.767,-332.4024"/>
<polygon fill="#000000" stroke="#000000" points="109.25,-332.756 107.0174,-322.399 102.304,-331.8877 109.25,-332.756"/>
</g>
<!-- isProjectIdFilter -->
<g id="node7" class="node">
<title>isProjectIdFilter</title>
<polygon fill="none" stroke="#000000" points="109.3191,-250.086 12.9059,-208.3858 109.3191,-166.6855 205.7323,-208.3858 109.3191,-250.086"/>
<text text-anchor="middle" x="109.3191" y="-212.5858" font-family="Times,serif" font-size="14.00" fill="#000000">Is project&#45;id</text>
<text text-anchor="middle" x="109.3191" y="-195.7858" font-family="Times,serif" font-size="14.00" fill="#000000">filter enabled?</text>
</g>
<!-- lookupJobs&#45;&gt;isProjectIdFilter -->
<g id="edge6" class="edge">
<title>lookupJobs&#45;&gt;isProjectIdFilter</title>
<path fill="none" stroke="#000000" d="M109.3191,-285.5531C109.3191,-278.2206 109.3191,-269.3828 109.3191,-260.3452"/>
<polygon fill="#000000" stroke="#000000" points="112.8192,-260.1261 109.3191,-250.1261 105.8192,-260.1261 112.8192,-260.1261"/>
</g>
<!-- lookupJobs&#45;&gt;oracle -->
<g id="edge5" class="edge">
<title>lookupJobs&#45;&gt;oracle</title>
<path fill="none" stroke="#000000" d="M163.041,-303.9858C169.478,-303.9858 175.9151,-303.9858 182.3522,-303.9858"/>
<polygon fill="#000000" stroke="#000000" points="162.8191,-300.4859 152.8191,-303.9858 162.8191,-307.4859 162.8191,-300.4859"/>
<polygon fill="#000000" stroke="#000000" points="182.4676,-307.4859 192.4675,-303.9858 182.4675,-300.4859 182.4676,-307.4859"/>
</g>
<!-- projectIdFilter -->
<g id="node8" class="node">
<title>projectIdFilter</title>
<polygon fill="none" stroke="#000000" points="90.458,-130.5877 .1802,-130.5877 .1802,-89.3839 90.458,-89.3839 90.458,-130.5877"/>
<text text-anchor="middle" x="45.3191" y="-114.1858" font-family="Times,serif" font-size="14.00" fill="#000000">Filter results</text>
<text text-anchor="middle" x="45.3191" y="-97.3858" font-family="Times,serif" font-size="14.00" fill="#000000">by project ID</text>
</g>
<!-- isProjectIdFilter&#45;&gt;projectIdFilter -->
<g id="edge7" class="edge">
<title>isProjectIdFilter&#45;&gt;projectIdFilter</title>
<path fill="none" stroke="#000000" d="M88.008,-175.62C80.4332,-163.9738 71.9557,-150.9395 64.5639,-139.5746"/>
<polygon fill="#000000" stroke="#000000" points="67.2929,-137.351 58.9065,-130.8764 61.4248,-141.1676 67.2929,-137.351"/>
</g>
<!-- lookupStatus -->
<g id="node9" class="node">
<title>lookupStatus</title>
<polygon fill="none" stroke="#000000" points="220.4728,-130.5877 126.1654,-130.5877 126.1654,-89.3839 220.4728,-89.3839 220.4728,-130.5877"/>
<text text-anchor="middle" x="173.3191" y="-114.1858" font-family="Times,serif" font-size="14.00" fill="#000000">Lookup result</text>
<text text-anchor="middle" x="173.3191" y="-97.3858" font-family="Times,serif" font-size="14.00" fill="#000000">job statuses</text>
</g>
<!-- isProjectIdFilter&#45;&gt;lookupStatus -->
<g id="edge8" class="edge">
<title>isProjectIdFilter&#45;&gt;lookupStatus</title>
<path fill="none" stroke="#000000" d="M130.6302,-175.62C138.205,-163.9738 146.6825,-150.9395 154.0743,-139.5746"/>
<polygon fill="#000000" stroke="#000000" points="157.2134,-141.1676 159.7317,-130.8764 151.3453,-137.351 157.2134,-141.1676"/>
</g>
<!-- projectIdFilter&#45;&gt;lookupStatus -->
<g id="edge9" class="edge">
<title>projectIdFilter&#45;&gt;lookupStatus</title>
<path fill="none" stroke="#000000" d="M90.8191,-109.9858C99.1435,-109.9858 107.4678,-109.9858 115.7922,-109.9858"/>
<polygon fill="#000000" stroke="#000000" points="115.9461,-113.4859 125.9461,-109.9858 115.946,-106.4859 115.9461,-113.4859"/>
</g>
<!-- lookupStatus&#45;&gt;asyncPlatform -->
<g id="edge10" class="edge">
<title>lookupStatus&#45;&gt;asyncPlatform</title>
<path fill="none" stroke="#000000" d="M230.5485,-109.9858C235.7562,-109.9858 240.9638,-109.9858 246.1715,-109.9858"/>
<polygon fill="#000000" stroke="#000000" points="230.5164,-106.4859 220.5164,-109.9858 230.5163,-113.4859 230.5164,-106.4859"/>
<polygon fill="#000000" stroke="#000000" points="246.1863,-113.4859 256.1862,-109.9858 246.1862,-106.4859 246.1863,-113.4859"/>
</g>
<!-- lookupStatus&#45;&gt;end -->
<g id="edge11" class="edge">
<title>lookupStatus&#45;&gt;end</title>
<path fill="none" stroke="#000000" d="M173.3191,-89.3718C173.3191,-81.537 173.3191,-72.3546 173.3191,-63.4683"/>
<polygon fill="#000000" stroke="#000000" points="176.8192,-63.2709 173.3191,-53.271 169.8192,-63.271 176.8192,-63.2709"/>
</g>
</g>
</svg>
