<?xml version="1.0" encoding="UTF-8" standalone="no"?>
<!DOCTYPE svg PUBLIC "-//W3C//DTD SVG 1.1//EN"
 "http://www.w3.org/Graphics/SVG/1.1/DTD/svg11.dtd">
<!-- Generated by graphviz version 2.40.1 (20161225.0304)
 -->
<!-- Title: %0 Pages: 1 -->
<svg width="367pt" height="754pt"
 viewBox="0.00 0.00 366.65 753.59" xmlns="http://www.w3.org/2000/svg" xmlns:xlink="http://www.w3.org/1999/xlink">
<g id="graph0" class="graph" transform="scale(1 1) rotate(0) translate(4 749.5911)">
<title>%0</title>
<polygon fill="#ffffff" stroke="transparent" points="-4,4 -4,-749.5911 362.6499,-749.5911 362.6499,4 -4,4"/>
<!-- start -->
<g id="node1" class="node">
<title>start</title>
<ellipse fill="none" stroke="#0000ff" cx="77.5219" cy="-716.3175" rx="29.049" ry="29.049"/>
<text text-anchor="middle" x="77.5219" y="-712.1175" font-family="Times,serif" font-size="14.00" fill="#000000">Start</text>
</g>
<!-- lookupUser -->
<g id="node7" class="node">
<title>lookupUser</title>
<polygon fill="none" stroke="#000000" points="120.8951,-650.0439 34.1487,-650.0439 34.1487,-614.0439 120.8951,-614.0439 120.8951,-650.0439"/>
<text text-anchor="middle" x="77.5219" y="-627.8439" font-family="Times,serif" font-size="14.00" fill="#000000">Lookup user</text>
</g>
<!-- start&#45;&gt;lookupUser -->
<g id="edge6" class="edge">
<title>start&#45;&gt;lookupUser</title>
<path fill="none" stroke="#000000" d="M77.5219,-686.8427C77.5219,-678.299 77.5219,-668.9896 77.5219,-660.509"/>
<polygon fill="#000000" stroke="#000000" points="81.022,-660.3299 77.5219,-650.33 74.022,-660.33 81.022,-660.3299"/>
</g>
<!-- 200 -->
<g id="node2" class="node">
<title>200</title>
<ellipse fill="none" stroke="#00ff00" cx="264.5219" cy="-25.5219" rx="25.5439" ry="25.5439"/>
<text text-anchor="middle" x="264.5219" y="-21.3219" font-family="Times,serif" font-size="14.00" fill="#000000">200</text>
</g>
<!-- 404 -->
<g id="node3" class="node">
<title>404</title>
<ellipse fill="none" stroke="#ff0000" cx="25.5219" cy="-25.5219" rx="25.5439" ry="25.5439"/>
<text text-anchor="middle" x="25.5219" y="-21.3219" font-family="Times,serif" font-size="14.00" fill="#000000">404</text>
</g>
<!-- containerCore -->
<g id="node4" class="node">
<title>containerCore</title>
<polygon fill="none" stroke="#000000" points="357.4414,-650.0439 255.6025,-650.0439 255.6025,-646.0439 251.6025,-646.0439 251.6025,-642.0439 255.6025,-642.0439 255.6025,-622.0439 251.6025,-622.0439 251.6025,-618.0439 255.6025,-618.0439 255.6025,-614.0439 357.4414,-614.0439 357.4414,-650.0439"/>
<polyline fill="none" stroke="#000000" points="255.6025,-646.0439 259.6025,-646.0439 259.6025,-642.0439 255.6025,-642.0439 "/>
<polyline fill="none" stroke="#000000" points="255.6025,-622.0439 259.6025,-622.0439 259.6025,-618.0439 255.6025,-618.0439 "/>
<text text-anchor="middle" x="306.5219" y="-627.8439" font-family="Times,serif" font-size="14.00" fill="#000000">Container Core</text>
</g>
<!-- oracle -->
<g id="node6" class="node">
<title>oracle</title>
<path fill="none" stroke="#000000" d="M339.3926,-519.7711C339.3926,-521.577 324.6594,-523.0439 306.5219,-523.0439 288.3844,-523.0439 273.6513,-521.577 273.6513,-519.7711 273.6513,-519.7711 273.6513,-490.3166 273.6513,-490.3166 273.6513,-488.5107 288.3844,-487.0439 306.5219,-487.0439 324.6594,-487.0439 339.3926,-488.5107 339.3926,-490.3166 339.3926,-490.3166 339.3926,-519.7711 339.3926,-519.7711"/>
<path fill="none" stroke="#000000" d="M339.3926,-519.7711C339.3926,-517.9653 324.6594,-516.4984 306.5219,-516.4984 288.3844,-516.4984 273.6513,-517.9653 273.6513,-519.7711"/>
<text text-anchor="middle" x="306.5219" y="-500.8439" font-family="Times,serif" font-size="14.00" fill="#000000">User DB</text>
</g>
<!-- containerCore&#45;&gt;oracle -->
<!-- asyncPlatform -->
<g id="node5" class="node">
<title>asyncPlatform</title>
<polygon fill="none" stroke="#000000" points="358.7782,-333.0439 254.2656,-333.0439 254.2656,-329.0439 250.2656,-329.0439 250.2656,-325.0439 254.2656,-325.0439 254.2656,-305.0439 250.2656,-305.0439 250.2656,-301.0439 254.2656,-301.0439 254.2656,-297.0439 358.7782,-297.0439 358.7782,-333.0439"/>
<polyline fill="none" stroke="#000000" points="254.2656,-329.0439 258.2656,-329.0439 258.2656,-325.0439 254.2656,-325.0439 "/>
<polyline fill="none" stroke="#000000" points="254.2656,-305.0439 258.2656,-305.0439 258.2656,-301.0439 254.2656,-301.0439 "/>
<text text-anchor="middle" x="306.5219" y="-310.8439" font-family="Times,serif" font-size="14.00" fill="#000000">Async Platform</text>
</g>
<!-- asyncPlatform&#45;&gt;200 -->
<!-- oracle&#45;&gt;asyncPlatform -->
<!-- lookupUser&#45;&gt;containerCore -->
<g id="edge7" class="edge">
<title>lookupUser&#45;&gt;containerCore</title>
<path fill="none" stroke="#595959" stroke-dasharray="5,2" d="M121.0401,-632.0439C138.1823,-632.0439 153.8553,-632.0439 153.8553,-632.0439 153.8553,-632.0439 230.1886,-632.0439 230.1886,-632.0439 230.1886,-632.0439 236.3505,-632.0439 245.1728,-632.0439"/>
<polygon fill="#595959" stroke="#595959" points="245.183,-635.5439 255.183,-632.0439 245.1829,-628.5439 245.183,-635.5439"/>
</g>
<!-- lookupJob1 -->
<g id="node8" class="node">
<title>lookupJob1</title>
<polygon fill="none" stroke="#000000" points="151.7255,-577.0439 3.3184,-577.0439 3.3184,-541.0439 151.7255,-541.0439 151.7255,-577.0439"/>
<text text-anchor="middle" x="77.5219" y="-554.8439" font-family="Times,serif" font-size="14.00" fill="#000000">Lookup job in User DB</text>
</g>
<!-- lookupUser&#45;&gt;lookupJob1 -->
<g id="edge8" class="edge">
<title>lookupUser&#45;&gt;lookupJob1</title>
<path fill="none" stroke="#000000" d="M77.5219,-613.9989C77.5219,-605.9267 77.5219,-596.2202 77.5219,-587.2256"/>
<polygon fill="#000000" stroke="#000000" points="81.022,-587.1342 77.5219,-577.1342 74.022,-587.1342 81.022,-587.1342"/>
</g>
<!-- lookupJob1&#45;&gt;oracle -->
<g id="edge9" class="edge">
<title>lookupJob1&#45;&gt;oracle</title>
<path fill="none" stroke="#595959" stroke-dasharray="5,2" d="M151.8717,-541.5116C188.9928,-532.7581 232.5605,-522.4845 263.9766,-515.0764"/>
<polygon fill="#595959" stroke="#595959" points="264.7963,-518.4791 273.7261,-512.7774 263.1897,-511.666 264.7963,-518.4791"/>
</g>
<!-- wasJobFound1 -->
<g id="node11" class="node">
<title>wasJobFound1</title>
<polygon fill="none" stroke="#000000" points="77.5219,-469.1441 15.4922,-427.4439 77.5219,-385.7436 139.5516,-427.4439 77.5219,-469.1441"/>
<text text-anchor="middle" x="77.5219" y="-431.6439" font-family="Times,serif" font-size="14.00" fill="#000000">Was job</text>
<text text-anchor="middle" x="77.5219" y="-414.8439" font-family="Times,serif" font-size="14.00" fill="#000000">found?</text>
</g>
<!-- lookupJob1&#45;&gt;wasJobFound1 -->
<g id="edge10" class="edge">
<title>lookupJob1&#45;&gt;wasJobFound1</title>
<path fill="none" stroke="#000000" d="M77.5219,-541.0214C77.5219,-525.0996 77.5219,-501.0803 77.5219,-479.225"/>
<polygon fill="#000000" stroke="#000000" points="81.022,-479.0448 77.5219,-469.0448 74.022,-479.0448 81.022,-479.0448"/>
</g>
<!-- lookupJob2 -->
<g id="node9" class="node">
<title>lookupJob2</title>
<polygon fill="none" stroke="#000000" points="210.0093,-333.0439 117.0345,-333.0439 117.0345,-297.0439 210.0093,-297.0439 210.0093,-333.0439"/>
<text text-anchor="middle" x="163.5219" y="-310.8439" font-family="Times,serif" font-size="14.00" fill="#000000">Get job status</text>
</g>
<!-- lookupJob2&#45;&gt;asyncPlatform -->
<g id="edge13" class="edge">
<title>lookupJob2&#45;&gt;asyncPlatform</title>
<path fill="none" stroke="#595959" stroke-dasharray="5,2" d="M210.0103,-315.0439C210.7696,-315.0439 211.1886,-315.0439 211.1886,-315.0439 211.1886,-315.0439 230.0272,-315.0439 244.0182,-315.0439"/>
<polygon fill="#595959" stroke="#595959" points="244.1106,-318.5439 254.1105,-315.0439 244.1105,-311.5439 244.1106,-318.5439"/>
</g>
<!-- isLinkUser -->
<g id="node12" class="node">
<title>isLinkUser</title>
<polygon fill="none" stroke="#000000" points="183.5219,-260.1441 95.9671,-218.4439 183.5219,-176.7436 271.0767,-218.4439 183.5219,-260.1441"/>
<text text-anchor="middle" x="183.5219" y="-222.6439" font-family="Times,serif" font-size="14.00" fill="#000000">Is &#39;link user&#39;</text>
<text text-anchor="middle" x="183.5219" y="-205.8439" font-family="Times,serif" font-size="14.00" fill="#000000"> true?</text>
</g>
<!-- lookupJob2&#45;&gt;isLinkUser -->
<g id="edge14" class="edge">
<title>lookupJob2&#45;&gt;isLinkUser</title>
<path fill="none" stroke="#000000" d="M167.2838,-296.8741C169.0858,-288.1705 171.3377,-277.2936 173.5854,-266.4374"/>
<polygon fill="#000000" stroke="#000000" points="177.0352,-267.038 175.6353,-256.5361 170.1805,-265.6188 177.0352,-267.038"/>
</g>
<!-- linkUser -->
<g id="node10" class="node">
<title>linkUser</title>
<polygon fill="none" stroke="#000000" points="228.0661,-124.0439 122.9777,-124.0439 122.9777,-88.0439 228.0661,-88.0439 228.0661,-124.0439"/>
<text text-anchor="middle" x="175.5219" y="-101.8439" font-family="Times,serif" font-size="14.00" fill="#000000">Link user to job</text>
</g>
<!-- linkUser&#45;&gt;200 -->
<g id="edge18" class="edge">
<title>linkUser&#45;&gt;200</title>
<path fill="none" stroke="#000000" d="M195.7174,-87.7722C208.1504,-76.5235 224.2347,-61.9714 237.7253,-49.7659"/>
<polygon fill="#000000" stroke="#000000" points="240.2543,-52.1978 245.3215,-42.8933 235.5579,-47.007 240.2543,-52.1978"/>
</g>
<!-- linkUser&#45;&gt;oracle -->
<g id="edge17" class="edge">
<title>linkUser&#45;&gt;oracle</title>
<path fill="none" stroke="#595959" stroke-dasharray="5,2" d="M152.6022,-124.2766C126.2321,-145.2541 86.5219,-176.8439 86.5219,-176.8439 86.5219,-176.8439 86.5219,-260.0439 86.5219,-260.0439 86.5219,-260.0439 108.5219,-333.0439 108.5219,-333.0439 108.5219,-333.0439 122.5219,-367.8439 122.5219,-367.8439 122.5219,-367.8439 148.5219,-385.8439 148.5219,-385.8439 148.5219,-385.8439 228.9365,-446.511 275.0286,-481.2843"/>
<polygon fill="#595959" stroke="#595959" points="273.1175,-484.2269 283.2085,-487.4555 277.3334,-478.6388 273.1175,-484.2269"/>
</g>
<!-- wasJobFound1&#45;&gt;404 -->
<g id="edge11" class="edge">
<title>wasJobFound1&#45;&gt;404</title>
<path fill="none" stroke="#000000" d="M62.7599,-395.5352C47.3864,-362.3048 25.5219,-315.0439 25.5219,-315.0439 25.5219,-315.0439 25.5219,-315.0439 25.5219,-106.0439 25.5219,-106.0439 25.5219,-83.1038 25.5219,-61.7124"/>
<polygon fill="#000000" stroke="#000000" points="29.022,-61.4428 25.5219,-51.4428 22.022,-61.4428 29.022,-61.4428"/>
<text text-anchor="middle" x="32.5219" y="-214.2439" font-family="Times,serif" font-size="14.00" fill="#000000">no</text>
</g>
<!-- wasJobFound1&#45;&gt;lookupJob2 -->
<g id="edge12" class="edge">
<title>wasJobFound1&#45;&gt;lookupJob2</title>
<path fill="none" stroke="#000000" d="M98.7804,-399.6596C112.3735,-381.8937 129.9002,-358.9867 143.2888,-341.488"/>
<polygon fill="#000000" stroke="#000000" points="146.1967,-343.4473 149.4936,-333.3785 140.6373,-339.1937 146.1967,-343.4473"/>
<text text-anchor="middle" x="145.8515" y="-355.2439" font-family="Times,serif" font-size="14.00" fill="#000000">yes</text>
</g>
<!-- isLinkUser&#45;&gt;200 -->
<g id="edge15" class="edge">
<title>isLinkUser&#45;&gt;200</title>
<path fill="none" stroke="#000000" d="M202.4085,-185.4273C217.9805,-158.2051 237.5219,-124.0439 237.5219,-124.0439 237.5219,-124.0439 247.2748,-88.4561 255.0573,-60.058"/>
<polygon fill="#000000" stroke="#000000" points="258.4411,-60.9527 257.7087,-50.3832 251.69,-59.1025 258.4411,-60.9527"/>
<text text-anchor="middle" x="254.5219" y="-101.8439" font-family="Times,serif" font-size="14.00" fill="#000000">no</text>
</g>
<!-- isLinkUser&#45;&gt;linkUser -->
<g id="edge16" class="edge">
<title>isLinkUser&#45;&gt;linkUser</title>
<path fill="none" stroke="#000000" d="M180.6337,-177.8649C179.6127,-163.5199 178.4868,-147.7 177.5521,-134.5672"/>
<polygon fill="#000000" stroke="#000000" points="181.0196,-133.9853 176.8184,-124.2591 174.0373,-134.4823 181.0196,-133.9853"/>
<text text-anchor="middle" x="188.8515" y="-146.2439" font-family="Times,serif" font-size="14.00" fill="#000000">yes</text>
</g>
<!-- A -->
<g id="node13" class="node">
<title>A</title>
<ellipse fill="#ffffff" stroke="#ffffff" cx="267.5219" cy="-716.3175" rx="1.8" ry="1.8"/>
</g>
<!-- B -->
<g id="node14" class="node">
<title>B</title>
<ellipse fill="#ffffff" stroke="#ffffff" cx="306.5219" cy="-716.3175" rx="1.8" ry="1.8"/>
</g>
<!-- A&#45;&gt;B -->
<!-- B&#45;&gt;containerCore -->
</g>
</svg>
