<?xml version="1.0" encoding="UTF-8" standalone="no"?>
<!DOCTYPE svg PUBLIC "-//W3C//DTD SVG 1.1//EN"
 "http://www.w3.org/Graphics/SVG/1.1/DTD/svg11.dtd">
<!-- Generated by graphviz version 2.40.1 (20161225.0304)
 -->
<!-- Title: %0 Pages: 1 -->
<svg width="411pt" height="680pt"
 viewBox="0.00 0.00 411.26 679.99" xmlns="http://www.w3.org/2000/svg" xmlns:xlink="http://www.w3.org/1999/xlink">
<g id="graph0" class="graph" transform="scale(1 1) rotate(0) translate(4 675.9911)">
<title>%0</title>
<polygon fill="#ffffff" stroke="transparent" points="-4,4 -4,-675.9911 407.2614,-675.9911 407.2614,4 -4,4"/>
<!-- start -->
<g id="node1" class="node">
<title>start</title>
<ellipse fill="none" stroke="#0000ff" cx="111.5219" cy="-642.7175" rx="29.049" ry="29.049"/>
<text text-anchor="middle" x="111.5219" y="-638.5175" font-family="Times,serif" font-size="14.00" fill="#000000">Start</text>
</g>
<!-- lookupUser -->
<g id="node9" class="node">
<title>lookupUser</title>
<polygon fill="none" stroke="#000000" points="153.8951,-577.4439 67.1487,-577.4439 67.1487,-541.4439 153.8951,-541.4439 153.8951,-577.4439"/>
<text text-anchor="middle" x="110.5219" y="-555.2439" font-family="Times,serif" font-size="14.00" fill="#000000">Lookup user</text>
</g>
<!-- start&#45;&gt;lookupUser -->
<g id="edge1" class="edge">
<title>start&#45;&gt;lookupUser</title>
<path fill="none" stroke="#000000" d="M111.1665,-613.1239C111.0682,-604.9326 110.9616,-596.061 110.8641,-587.934"/>
<polygon fill="#000000" stroke="#000000" points="114.3623,-587.7563 110.7423,-577.7991 107.3628,-587.8405 114.3623,-587.7563"/>
</g>
<!-- A -->
<g id="node15" class="node">
<title>A</title>
<ellipse fill="#ffffff" stroke="#ffffff" cx="179.5219" cy="-642.7175" rx="1.8" ry="1.8"/>
</g>
<!-- start&#45;&gt;A -->
<!-- 204 -->
<g id="node2" class="node">
<title>204</title>
<ellipse fill="none" stroke="#00ff00" cx="156.5219" cy="-25.5219" rx="25.5439" ry="25.5439"/>
<text text-anchor="middle" x="156.5219" y="-21.3219" font-family="Times,serif" font-size="14.00" fill="#000000">204</text>
</g>
<!-- 403 -->
<g id="node3" class="node">
<title>403</title>
<ellipse fill="none" stroke="#ff0000" cx="25.5219" cy="-25.5219" rx="25.5439" ry="25.5439"/>
<text text-anchor="middle" x="25.5219" y="-21.3219" font-family="Times,serif" font-size="14.00" fill="#000000">403</text>
</g>
<!-- containerCore -->
<g id="node4" class="node">
<title>containerCore</title>
<polygon fill="none" stroke="#000000" points="310.4414,-577.4439 208.6025,-577.4439 208.6025,-573.4439 204.6025,-573.4439 204.6025,-569.4439 208.6025,-569.4439 208.6025,-549.4439 204.6025,-549.4439 204.6025,-545.4439 208.6025,-545.4439 208.6025,-541.4439 310.4414,-541.4439 310.4414,-577.4439"/>
<polyline fill="none" stroke="#000000" points="208.6025,-573.4439 212.6025,-573.4439 212.6025,-569.4439 208.6025,-569.4439 "/>
<polyline fill="none" stroke="#000000" points="208.6025,-549.4439 212.6025,-549.4439 212.6025,-545.4439 208.6025,-545.4439 "/>
<text text-anchor="middle" x="259.5219" y="-555.2439" font-family="Times,serif" font-size="14.00" fill="#000000">Container Core</text>
</g>
<!-- oracle -->
<g id="node6" class="node">
<title>oracle</title>
<path fill="none" stroke="#000000" d="M292.3926,-502.1711C292.3926,-503.977 277.6594,-505.4439 259.5219,-505.4439 241.3844,-505.4439 226.6513,-503.977 226.6513,-502.1711 226.6513,-502.1711 226.6513,-472.7166 226.6513,-472.7166 226.6513,-470.9107 241.3844,-469.4439 259.5219,-469.4439 277.6594,-469.4439 292.3926,-470.9107 292.3926,-472.7166 292.3926,-472.7166 292.3926,-502.1711 292.3926,-502.1711"/>
<path fill="none" stroke="#000000" d="M292.3926,-502.1711C292.3926,-500.3653 277.6594,-498.8984 259.5219,-498.8984 241.3844,-498.8984 226.6513,-500.3653 226.6513,-502.1711"/>
<text text-anchor="middle" x="259.5219" y="-483.2439" font-family="Times,serif" font-size="14.00" fill="#000000">User DB</text>
</g>
<!-- containerCore&#45;&gt;oracle -->
<!-- asyncPlatform -->
<g id="node5" class="node">
<title>asyncPlatform</title>
<polygon fill="none" stroke="#000000" points="311.7782,-218.6439 207.2656,-218.6439 207.2656,-214.6439 203.2656,-214.6439 203.2656,-210.6439 207.2656,-210.6439 207.2656,-190.6439 203.2656,-190.6439 203.2656,-186.6439 207.2656,-186.6439 207.2656,-182.6439 311.7782,-182.6439 311.7782,-218.6439"/>
<polyline fill="none" stroke="#000000" points="207.2656,-214.6439 211.2656,-214.6439 211.2656,-210.6439 207.2656,-210.6439 "/>
<polyline fill="none" stroke="#000000" points="207.2656,-190.6439 211.2656,-190.6439 211.2656,-186.6439 207.2656,-186.6439 "/>
<text text-anchor="middle" x="259.5219" y="-196.4439" font-family="Times,serif" font-size="14.00" fill="#000000">Async Platform</text>
</g>
<!-- postgres -->
<g id="node7" class="node">
<title>postgres</title>
<path fill="none" stroke="#000000" d="M403.5025,-310.9711C403.5025,-312.777 386.479,-314.2439 365.5219,-314.2439 344.5649,-314.2439 327.5414,-312.777 327.5414,-310.9711 327.5414,-310.9711 327.5414,-281.5166 327.5414,-281.5166 327.5414,-279.7107 344.5649,-278.2439 365.5219,-278.2439 386.479,-278.2439 403.5025,-279.7107 403.5025,-281.5166 403.5025,-281.5166 403.5025,-310.9711 403.5025,-310.9711"/>
<path fill="none" stroke="#000000" d="M403.5025,-310.9711C403.5025,-309.1653 386.479,-307.6984 365.5219,-307.6984 344.5649,-307.6984 327.5414,-309.1653 327.5414,-310.9711"/>
<text text-anchor="middle" x="365.5219" y="-292.0439" font-family="Times,serif" font-size="14.00" fill="#000000">Queue DB</text>
</g>
<!-- asyncPlatform&#45;&gt;postgres -->
<g id="edge14" class="edge">
<title>asyncPlatform&#45;&gt;postgres</title>
<path fill="none" stroke="#595959" stroke-dasharray="5,2" d="M279.5376,-218.6957C295.948,-233.496 319.3612,-254.6121 337.6132,-271.0733"/>
<polygon fill="#595959" stroke="#595959" points="335.314,-273.7129 345.0841,-277.8112 340.0022,-268.5147 335.314,-273.7129"/>
</g>
<!-- s3 -->
<g id="node8" class="node">
<title>s3</title>
<polygon fill="none" stroke="#000000" points="393.5219,-123.0439 390.5219,-127.0439 369.5219,-127.0439 366.5219,-123.0439 339.5219,-123.0439 339.5219,-87.0439 393.5219,-87.0439 393.5219,-123.0439"/>
<text text-anchor="middle" x="366.5219" y="-100.8439" font-family="Times,serif" font-size="14.00" fill="#000000">S3</text>
</g>
<!-- asyncPlatform&#45;&gt;s3 -->
<g id="edge15" class="edge">
<title>asyncPlatform&#45;&gt;s3</title>
<path fill="none" stroke="#595959" stroke-dasharray="5,2" d="M279.8997,-182.4372C296.5591,-167.5527 320.2829,-146.3565 338.6919,-129.9088"/>
<polygon fill="#595959" stroke="#595959" points="341.0948,-132.4554 346.2201,-123.1827 336.4309,-127.2354 341.0948,-132.4554"/>
</g>
<!-- oracle&#45;&gt;asyncPlatform -->
<!-- postgres&#45;&gt;s3 -->
<!-- lookupUser&#45;&gt;containerCore -->
<g id="edge10" class="edge">
<title>lookupUser&#45;&gt;containerCore</title>
<path fill="none" stroke="#595959" stroke-dasharray="5,2" d="M153.8833,-559.4439C168.6355,-559.4439 183.3878,-559.4439 198.1401,-559.4439"/>
<polygon fill="#595959" stroke="#595959" points="198.3532,-562.9439 208.3532,-559.4439 198.3532,-555.9439 198.3532,-562.9439"/>
</g>
<!-- lookupJob1 -->
<g id="node10" class="node">
<title>lookupJob1</title>
<polygon fill="none" stroke="#000000" points="181.1188,-505.4439 35.9251,-505.4439 35.9251,-469.4439 181.1188,-469.4439 181.1188,-505.4439"/>
<text text-anchor="middle" x="108.5219" y="-483.2439" font-family="Times,serif" font-size="14.00" fill="#000000">Lookup job in user DB</text>
</g>
<!-- lookupUser&#45;&gt;lookupJob1 -->
<g id="edge2" class="edge">
<title>lookupUser&#45;&gt;lookupJob1</title>
<path fill="none" stroke="#000000" d="M110.0172,-541.2752C109.8033,-533.5748 109.549,-524.4182 109.3113,-515.8605"/>
<polygon fill="#000000" stroke="#000000" points="112.8098,-515.756 109.0334,-505.8571 105.8125,-515.9505 112.8098,-515.756"/>
</g>
<!-- lookupJob1&#45;&gt;oracle -->
<g id="edge11" class="edge">
<title>lookupJob1&#45;&gt;oracle</title>
<path fill="none" stroke="#595959" stroke-dasharray="5,2" d="M181.0727,-487.4439C192.8444,-487.4439 204.6161,-487.4439 216.3878,-487.4439"/>
<polygon fill="#595959" stroke="#595959" points="216.7326,-490.9439 226.7326,-487.4439 216.7326,-483.9439 216.7326,-490.9439"/>
</g>
<!-- isUserLinkedToJob -->
<g id="node13" class="node">
<title>isUserLinkedToJob</title>
<polygon fill="none" stroke="#000000" points="107.5219,-433.5441 14.5387,-391.8439 107.5219,-350.1436 200.5051,-391.8439 107.5219,-433.5441"/>
<text text-anchor="middle" x="107.5219" y="-396.0439" font-family="Times,serif" font-size="14.00" fill="#000000">Is user</text>
<text text-anchor="middle" x="107.5219" y="-379.2439" font-family="Times,serif" font-size="14.00" fill="#000000">linked to job?</text>
</g>
<!-- lookupJob1&#45;&gt;isUserLinkedToJob -->
<g id="edge3" class="edge">
<title>lookupJob1&#45;&gt;isUserLinkedToJob</title>
<path fill="none" stroke="#000000" d="M108.3291,-469.0112C108.2524,-461.6787 108.16,-452.8409 108.0654,-443.8033"/>
<polygon fill="#000000" stroke="#000000" points="111.563,-443.547 107.9585,-433.5842 104.5634,-443.6203 111.563,-443.547"/>
</g>
<!-- lookupJob2 -->
<g id="node11" class="node">
<title>lookupJob2</title>
<polygon fill="none" stroke="#000000" points="143.1199,-314.2439 71.924,-314.2439 71.924,-278.2439 143.1199,-278.2439 143.1199,-314.2439"/>
<text text-anchor="middle" x="107.5219" y="-292.0439" font-family="Times,serif" font-size="14.00" fill="#000000">Get status</text>
</g>
<!-- lookupJob2&#45;&gt;asyncPlatform -->
<g id="edge12" class="edge">
<title>lookupJob2&#45;&gt;asyncPlatform</title>
<path fill="none" stroke="#595959" stroke-dasharray="5,2" d="M136.4697,-278.0372C160.7694,-262.754 195.6491,-240.8165 222.0726,-224.1975"/>
<polygon fill="#595959" stroke="#595959" points="224.0804,-227.0695 230.6819,-218.7827 220.3535,-221.144 224.0804,-227.0695"/>
</g>
<!-- isJobExpired -->
<g id="node14" class="node">
<title>isJobExpired</title>
<polygon fill="none" stroke="#000000" points="107.5219,-242.3441 43.1313,-200.6439 107.5219,-158.9436 171.9125,-200.6439 107.5219,-242.3441"/>
<text text-anchor="middle" x="107.5219" y="-204.8439" font-family="Times,serif" font-size="14.00" fill="#000000">Is job</text>
<text text-anchor="middle" x="107.5219" y="-188.0439" font-family="Times,serif" font-size="14.00" fill="#000000">expired?</text>
</g>
<!-- lookupJob2&#45;&gt;isJobExpired -->
<g id="edge6" class="edge">
<title>lookupJob2&#45;&gt;isJobExpired</title>
<path fill="none" stroke="#000000" d="M107.5219,-277.8112C107.5219,-270.4787 107.5219,-261.6409 107.5219,-252.6033"/>
<polygon fill="#000000" stroke="#000000" points="111.022,-252.3842 107.5219,-242.3842 104.022,-252.3842 111.022,-252.3842"/>
</g>
<!-- submitJob -->
<g id="node12" class="node">
<title>submitJob</title>
<polygon fill="none" stroke="#000000" points="195.3671,-123.0439 117.6768,-123.0439 117.6768,-87.0439 195.3671,-87.0439 195.3671,-123.0439"/>
<text text-anchor="middle" x="156.5219" y="-100.8439" font-family="Times,serif" font-size="14.00" fill="#000000">Submit job</text>
</g>
<!-- submitJob&#45;&gt;204 -->
<g id="edge9" class="edge">
<title>submitJob&#45;&gt;204</title>
<path fill="none" stroke="#000000" d="M156.5219,-86.9991C156.5219,-79.4237 156.5219,-70.3312 156.5219,-61.491"/>
<polygon fill="#000000" stroke="#000000" points="160.022,-61.3352 156.5219,-51.3353 153.022,-61.3353 160.022,-61.3352"/>
</g>
<!-- submitJob&#45;&gt;asyncPlatform -->
<g id="edge13" class="edge">
<title>submitJob&#45;&gt;asyncPlatform</title>
<path fill="none" stroke="#595959" stroke-dasharray="5,2" d="M175.9711,-123.0957C191.7747,-137.7639 214.2619,-158.6355 231.9268,-175.0313"/>
<polygon fill="#595959" stroke="#595959" points="229.952,-177.9736 239.6625,-182.2112 234.714,-172.843 229.952,-177.9736"/>
</g>
<!-- isUserLinkedToJob&#45;&gt;403 -->
<g id="edge4" class="edge">
<title>isUserLinkedToJob&#45;&gt;403</title>
<path fill="none" stroke="#000000" d="M82.8477,-360.8715C61.8977,-332.1043 33.932,-287.0734 25.5219,-242.2439 13.7292,-179.3833 17.5973,-104.4495 21.5279,-61.1908"/>
<polygon fill="#000000" stroke="#000000" points="25.019,-61.4502 22.4927,-51.161 18.0512,-60.7799 25.019,-61.4502"/>
<text text-anchor="middle" x="75.8477" y="-348.2715" font-family="Times,serif" font-size="14.00" fill="#000000">no</text>
</g>
<!-- isUserLinkedToJob&#45;&gt;lookupJob2 -->
<g id="edge5" class="edge">
<title>isUserLinkedToJob&#45;&gt;lookupJob2</title>
<path fill="none" stroke="#000000" d="M107.5219,-350.1904C107.5219,-341.6114 107.5219,-332.7638 107.5219,-324.7778"/>
<polygon fill="#000000" stroke="#000000" points="111.022,-324.528 107.5219,-314.5281 104.022,-324.5281 111.022,-324.528"/>
<text text-anchor="middle" x="98.1923" y="-337.5904" font-family="Times,serif" font-size="14.00" fill="#000000">yes</text>
</g>
<!-- isJobExpired&#45;&gt;403 -->
<g id="edge7" class="edge">
<title>isJobExpired&#45;&gt;403</title>
<path fill="none" stroke="#000000" d="M92.4819,-168.5238C77.7746,-137.1144 55.4963,-89.5363 40.7313,-58.0035"/>
<polygon fill="#000000" stroke="#000000" points="43.8173,-56.3404 36.4069,-48.7683 37.4778,-59.3089 43.8173,-56.3404"/>
<text text-anchor="middle" x="85.4819" y="-155.9238" font-family="Times,serif" font-size="14.00" fill="#000000">no</text>
</g>
<!-- isJobExpired&#45;&gt;submitJob -->
<g id="edge8" class="edge">
<title>isJobExpired&#45;&gt;submitJob</title>
<path fill="none" stroke="#000000" d="M123.7022,-169.0759C129.8001,-157.1787 136.6783,-143.7592 142.5569,-132.2899"/>
<polygon fill="#000000" stroke="#000000" points="145.7741,-133.6863 147.2207,-123.1906 139.5447,-130.4933 145.7741,-133.6863"/>
<text text-anchor="middle" x="114.3726" y="-156.4759" font-family="Times,serif" font-size="14.00" fill="#000000">yes</text>
</g>
<!-- B -->
<g id="node16" class="node">
<title>B</title>
<ellipse fill="#ffffff" stroke="#ffffff" cx="219.5219" cy="-642.7175" rx="1.8" ry="1.8"/>
</g>
<!-- A&#45;&gt;B -->
<!-- C -->
<g id="node17" class="node">
<title>C</title>
<ellipse fill="#ffffff" stroke="#ffffff" cx="259.5219" cy="-642.7175" rx="1.8" ry="1.8"/>
</g>
<!-- B&#45;&gt;C -->
<!-- C&#45;&gt;containerCore -->
<!-- D -->
<g id="node18" class="node">
<title>D</title>
<ellipse fill="#ffffff" stroke="#ffffff" cx="332.5219" cy="-642.7175" rx="1.8" ry="1.8"/>
</g>
<!-- C&#45;&gt;D -->
<!-- D&#45;&gt;postgres -->
</g>
</svg>
