<?xml version="1.0" encoding="UTF-8" standalone="no"?>
<!DOCTYPE svg PUBLIC "-//W3C//DTD SVG 1.1//EN"
 "http://www.w3.org/Graphics/SVG/1.1/DTD/svg11.dtd">
<!-- Generated by graphviz version 2.40.1 (20161225.0304)
 -->
<!-- Title: %0 Pages: 1 -->
<svg width="299pt" height="494pt"
 viewBox="0.00 0.00 298.95 494.39" xmlns="http://www.w3.org/2000/svg" xmlns:xlink="http://www.w3.org/1999/xlink">
<g id="graph0" class="graph" transform="scale(1 1) rotate(0) translate(4 490.3911)">
<title>%0</title>
<polygon fill="#ffffff" stroke="transparent" points="-4,4 -4,-490.3911 294.9513,-490.3911 294.9513,4 -4,4"/>
<!-- start -->
<g id="node1" class="node">
<title>start</title>
<ellipse fill="none" stroke="#0000ff" cx="92.9916" cy="-457.1175" rx="29.049" ry="29.049"/>
<text text-anchor="middle" x="92.9916" y="-452.9175" font-family="Times,serif" font-size="14.00" fill="#000000">Start</text>
</g>
<!-- lookupUser -->
<g id="node6" class="node">
<title>lookupUser</title>
<polygon fill="none" stroke="#000000" points="136.3648,-391.8439 49.6184,-391.8439 49.6184,-355.8439 136.3648,-355.8439 136.3648,-391.8439"/>
<text text-anchor="middle" x="92.9916" y="-369.6439" font-family="Times,serif" font-size="14.00" fill="#000000">Lookup user</text>
</g>
<!-- start&#45;&gt;lookupUser -->
<g id="edge1" class="edge">
<title>start&#45;&gt;lookupUser</title>
<path fill="none" stroke="#000000" d="M92.9916,-427.5239C92.9916,-419.3326 92.9916,-410.461 92.9916,-402.334"/>
<polygon fill="#000000" stroke="#000000" points="96.4917,-402.1991 92.9916,-392.1991 89.4917,-402.1992 96.4917,-402.1991"/>
</g>
<!-- A -->
<g id="node10" class="node">
<title>A</title>
<ellipse fill="#ffffff" stroke="#ffffff" cx="159.9916" cy="-457.1175" rx="1.8" ry="1.8"/>
</g>
<!-- start&#45;&gt;A -->
<!-- 204 -->
<g id="node2" class="node">
<title>204</title>
<ellipse fill="none" stroke="#00ff00" cx="154.9916" cy="-25.5219" rx="25.5439" ry="25.5439"/>
<text text-anchor="middle" x="154.9916" y="-21.3219" font-family="Times,serif" font-size="14.00" fill="#000000">204</text>
</g>
<!-- 404 -->
<g id="node3" class="node">
<title>404</title>
<ellipse fill="none" stroke="#ff0000" cx="30.9916" cy="-25.5219" rx="25.5439" ry="25.5439"/>
<text text-anchor="middle" x="30.9916" y="-21.3219" font-family="Times,serif" font-size="14.00" fill="#000000">404</text>
</g>
<!-- containerCore -->
<g id="node4" class="node">
<title>containerCore</title>
<polygon fill="none" stroke="#000000" points="290.911,-391.8439 189.0722,-391.8439 189.0722,-387.8439 185.0722,-387.8439 185.0722,-383.8439 189.0722,-383.8439 189.0722,-363.8439 185.0722,-363.8439 185.0722,-359.8439 189.0722,-359.8439 189.0722,-355.8439 290.911,-355.8439 290.911,-391.8439"/>
<polyline fill="none" stroke="#000000" points="189.0722,-387.8439 193.0722,-387.8439 193.0722,-383.8439 189.0722,-383.8439 "/>
<polyline fill="none" stroke="#000000" points="189.0722,-363.8439 193.0722,-363.8439 193.0722,-359.8439 189.0722,-359.8439 "/>
<text text-anchor="middle" x="239.9916" y="-369.6439" font-family="Times,serif" font-size="14.00" fill="#000000">Container Core</text>
</g>
<!-- oracle -->
<g id="node5" class="node">
<title>oracle</title>
<path fill="none" stroke="#000000" d="M272.8623,-316.5711C272.8623,-318.377 258.1291,-319.8439 239.9916,-319.8439 221.8541,-319.8439 207.1209,-318.377 207.1209,-316.5711 207.1209,-316.5711 207.1209,-287.1166 207.1209,-287.1166 207.1209,-285.3107 221.8541,-283.8439 239.9916,-283.8439 258.1291,-283.8439 272.8623,-285.3107 272.8623,-287.1166 272.8623,-287.1166 272.8623,-316.5711 272.8623,-316.5711"/>
<path fill="none" stroke="#000000" d="M272.8623,-316.5711C272.8623,-314.7653 258.1291,-313.2984 239.9916,-313.2984 221.8541,-313.2984 207.1209,-314.7653 207.1209,-316.5711"/>
<text text-anchor="middle" x="239.9916" y="-297.6439" font-family="Times,serif" font-size="14.00" fill="#000000">User DB</text>
</g>
<!-- containerCore&#45;&gt;oracle -->
<g id="edge8" class="edge">
<title>containerCore&#45;&gt;oracle</title>
<path fill="none" stroke="#595959" stroke-dasharray="5,2" d="M228.0868,-355.6752C226.586,-347.9748 226.1442,-338.8182 226.7614,-330.2605"/>
<polygon fill="#595959" stroke="#595959" points="230.2438,-330.6201 228.0396,-320.2571 223.3003,-329.7328 230.2438,-330.6201"/>
</g>
<!-- containerCore&#45;&gt;oracle -->
<!-- lookupUser&#45;&gt;containerCore -->
<g id="edge7" class="edge">
<title>lookupUser&#45;&gt;containerCore</title>
<path fill="none" stroke="#595959" stroke-dasharray="5,2" d="M136.3451,-373.8439C150.4628,-373.8439 164.5805,-373.8439 178.6982,-373.8439"/>
<polygon fill="#595959" stroke="#595959" points="178.9781,-377.3439 188.9781,-373.8439 178.9781,-370.3439 178.9781,-377.3439"/>
</g>
<!-- lookupJob -->
<g id="node7" class="node">
<title>lookupJob</title>
<polygon fill="none" stroke="#000000" points="133.4348,-319.8439 52.5484,-319.8439 52.5484,-283.8439 133.4348,-283.8439 133.4348,-319.8439"/>
<text text-anchor="middle" x="92.9916" y="-297.6439" font-family="Times,serif" font-size="14.00" fill="#000000">Lookup job</text>
</g>
<!-- lookupUser&#45;&gt;lookupJob -->
<g id="edge2" class="edge">
<title>lookupUser&#45;&gt;lookupJob</title>
<path fill="none" stroke="#000000" d="M92.9916,-355.6752C92.9916,-347.9748 92.9916,-338.8182 92.9916,-330.2605"/>
<polygon fill="#000000" stroke="#000000" points="96.4917,-330.2571 92.9916,-320.2571 89.4917,-330.2572 96.4917,-330.2571"/>
</g>
<!-- lookupJob&#45;&gt;oracle -->
<g id="edge9" class="edge">
<title>lookupJob&#45;&gt;oracle</title>
<path fill="none" stroke="#595959" stroke-dasharray="5,2" d="M133.474,-301.8439C154.6667,-301.8439 175.8594,-301.8439 197.052,-301.8439"/>
<polygon fill="#595959" stroke="#595959" points="197.121,-305.3439 207.1209,-301.8439 197.1209,-298.3439 197.121,-305.3439"/>
</g>
<!-- isUserLinkedToJob -->
<g id="node9" class="node">
<title>isUserLinkedToJob</title>
<polygon fill="none" stroke="#000000" points="92.9916,-247.9441 .0084,-206.2439 92.9916,-164.5436 185.9748,-206.2439 92.9916,-247.9441"/>
<text text-anchor="middle" x="92.9916" y="-210.4439" font-family="Times,serif" font-size="14.00" fill="#000000">Is user</text>
<text text-anchor="middle" x="92.9916" y="-193.6439" font-family="Times,serif" font-size="14.00" fill="#000000">linked to job?</text>
</g>
<!-- lookupJob&#45;&gt;isUserLinkedToJob -->
<g id="edge3" class="edge">
<title>lookupJob&#45;&gt;isUserLinkedToJob</title>
<path fill="none" stroke="#000000" d="M92.9916,-283.4112C92.9916,-276.0787 92.9916,-267.2409 92.9916,-258.2033"/>
<polygon fill="#000000" stroke="#000000" points="96.4917,-257.9842 92.9916,-247.9842 89.4917,-257.9842 96.4917,-257.9842"/>
</g>
<!-- updateJob -->
<g id="node8" class="node">
<title>updateJob</title>
<polygon fill="none" stroke="#000000" points="223.7683,-128.4458 86.2149,-128.4458 86.2149,-87.2419 223.7683,-87.2419 223.7683,-128.4458"/>
<text text-anchor="middle" x="154.9916" y="-112.0439" font-family="Times,serif" font-size="14.00" fill="#000000">Update user metadata</text>
<text text-anchor="middle" x="154.9916" y="-95.2439" font-family="Times,serif" font-size="14.00" fill="#000000">for job</text>
</g>
<!-- updateJob&#45;&gt;204 -->
<g id="edge6" class="edge">
<title>updateJob&#45;&gt;204</title>
<path fill="none" stroke="#000000" d="M154.9916,-87.0706C154.9916,-79.265 154.9916,-70.1508 154.9916,-61.3653"/>
<polygon fill="#000000" stroke="#000000" points="158.4917,-61.3009 154.9916,-51.3009 151.4917,-61.301 158.4917,-61.3009"/>
</g>
<!-- updateJob&#45;&gt;oracle -->
<g id="edge10" class="edge">
<title>updateJob&#45;&gt;oracle</title>
<path fill="none" stroke="#595959" stroke-dasharray="5,2" d="M176.8662,-128.4922C186.4236,-138.5803 197.0197,-151.3886 203.9916,-164.6439 222.39,-199.6238 231.8689,-244.6699 236.3808,-273.4115"/>
<polygon fill="#595959" stroke="#595959" points="232.9574,-274.1892 237.875,-283.5737 239.883,-273.1709 232.9574,-274.1892"/>
</g>
<!-- isUserLinkedToJob&#45;&gt;404 -->
<g id="edge4" class="edge">
<title>isUserLinkedToJob&#45;&gt;404</title>
<path fill="none" stroke="#000000" d="M80.445,-169.6721C69.3977,-137.4708 53.4347,-90.9405 42.6588,-59.5303"/>
<polygon fill="#000000" stroke="#000000" points="45.9109,-58.2238 39.3552,-49.9008 39.2897,-60.4954 45.9109,-58.2238"/>
<text text-anchor="middle" x="73.445" y="-157.0721" font-family="Times,serif" font-size="14.00" fill="#000000">no</text>
</g>
<!-- isUserLinkedToJob&#45;&gt;updateJob -->
<g id="edge5" class="edge">
<title>isUserLinkedToJob&#45;&gt;updateJob</title>
<path fill="none" stroke="#000000" d="M113.6367,-173.4781C120.9748,-161.8319 129.1874,-148.7976 136.3482,-137.4327"/>
<polygon fill="#000000" stroke="#000000" points="139.4591,-139.061 141.8288,-128.7345 133.5366,-135.3293 139.4591,-139.061"/>
<text text-anchor="middle" x="113.6367" y="-160.8781" font-family="Times,serif" font-size="14.00" fill="#000000">yes</text>
</g>
<!-- B -->
<g id="node11" class="node">
<title>B</title>
<ellipse fill="#ffffff" stroke="#ffffff" cx="199.9916" cy="-457.1175" rx="1.8" ry="1.8"/>
</g>
<!-- A&#45;&gt;B -->
<!-- C -->
<g id="node12" class="node">
<title>C</title>
<ellipse fill="#ffffff" stroke="#ffffff" cx="239.9916" cy="-457.1175" rx="1.8" ry="1.8"/>
</g>
<!-- B&#45;&gt;C -->
<!-- C&#45;&gt;containerCore -->
</g>
</svg>
