<?xml version="1.0" encoding="UTF-8" standalone="no"?>
<!DOCTYPE svg PUBLIC "-//W3C//DTD SVG 1.1//EN"
 "http://www.w3.org/Graphics/SVG/1.1/DTD/svg11.dtd">
<!-- Generated by graphviz version 2.43.0 (0)
 -->
<!-- Title: %3 Pages: 1 -->
<svg width="510pt" height="1171pt"
 viewBox="0.00 0.00 510.00 1171.43" xmlns="http://www.w3.org/2000/svg" xmlns:xlink="http://www.w3.org/1999/xlink">
<g id="graph0" class="graph" transform="scale(1 1) rotate(0) translate(4 1167.43)">
<title>%3</title>
<polygon fill="white" stroke="transparent" points="-4,4 -4,-1167.43 506,-1167.43 506,4 -4,4"/>
<!-- 401 -->
<g id="node1" class="node">
<title>401</title>
<ellipse fill="none" stroke="orange" cx="54" cy="-1024.43" rx="54" ry="18"/>
<text text-anchor="middle" x="54" y="-1020.73" font-family="Times,serif" font-size="14.00">401</text>
</g>
<!-- 404 -->
<g id="node2" class="node">
<title>404</title>
<ellipse fill="none" stroke="orange" cx="54" cy="-891.43" rx="54" ry="18"/>
<text text-anchor="middle" x="54" y="-887.73" font-family="Times,serif" font-size="14.00">404</text>
</g>
<!-- 401&#45;&gt;404 -->
<!-- IsUserTokenProvided -->
<g id="node8" class="node">
<title>IsUserTokenProvided</title>
<polygon fill="none" stroke="black" points="251,-1069.43 180,-1024.43 251,-979.43 322,-1024.43 251,-1069.43"/>
<text text-anchor="middle" x="251" y="-1035.73" font-family="Times,serif" font-size="14.00">Is user</text>
<text text-anchor="middle" x="251" y="-1020.73" font-family="Times,serif" font-size="14.00">token</text>
<text text-anchor="middle" x="251" y="-1005.73" font-family="Times,serif" font-size="14.00">provided?</text>
</g>
<!-- 401&#45;&gt;IsUserTokenProvided -->
<g id="edge3" class="edge">
<title>401&#45;&gt;IsUserTokenProvided</title>
<path fill="none" stroke="darkred" d="M118.33,-1024.43C138.85,-1024.43 159.38,-1024.43 179.9,-1024.43"/>
<polygon fill="darkred" stroke="darkred" points="118.25,-1020.93 108.25,-1024.43 118.25,-1027.93 118.25,-1020.93"/>
<text text-anchor="middle" x="169.4" y="-1028.23" font-family="Times,serif" font-size="14.00">No</text>
</g>
<!-- DoesJobExist2 -->
<g id="node14" class="node">
<title>DoesJobExist2</title>
<polygon fill="none" stroke="black" points="250,-591.43 188,-561.43 250,-531.43 312,-561.43 250,-591.43"/>
<text text-anchor="middle" x="250" y="-565.23" font-family="Times,serif" font-size="14.00">Does job</text>
<text text-anchor="middle" x="250" y="-550.23" font-family="Times,serif" font-size="14.00">exist?</text>
</g>
<!-- 404&#45;&gt;DoesJobExist2 -->
<g id="edge14" class="edge">
<title>404&#45;&gt;DoesJobExist2:w</title>
<path fill="none" stroke="darkred" d="M52.82,-863.05C50.97,-784.07 57.26,-561.43 187,-561.43"/>
<polygon fill="darkred" stroke="darkred" points="49.33,-863.31 53.13,-873.2 56.33,-863.1 49.33,-863.31"/>
<text text-anchor="middle" x="176.5" y="-565.23" font-family="Times,serif" font-size="14.00">No</text>
</g>
<!-- 200 -->
<g id="node3" class="node">
<title>200</title>
<ellipse fill="none" stroke="darkgreen" cx="145" cy="-21.21" rx="54" ry="21.43"/>
<text text-anchor="middle" x="145" y="-25.01" font-family="Times,serif" font-size="14.00">200</text>
<text text-anchor="middle" x="145" y="-10.01" font-family="Times,serif" font-size="14.00">Job details</text>
</g>
<!-- DB -->
<g id="node4" class="node">
<title>DB</title>
<path fill="none" stroke="black" d="M492,-576.15C492,-577.96 467.8,-579.43 438,-579.43 408.2,-579.43 384,-577.96 384,-576.15 384,-576.15 384,-546.7 384,-546.7 384,-544.89 408.2,-543.43 438,-543.43 467.8,-543.43 492,-544.89 492,-546.7 492,-546.7 492,-576.15 492,-576.15"/>
<path fill="none" stroke="black" d="M492,-576.15C492,-574.35 467.8,-572.88 438,-572.88 408.2,-572.88 384,-574.35 384,-576.15"/>
<text text-anchor="middle" x="438" y="-557.73" font-family="Times,serif" font-size="14.00">MBlast DB</text>
</g>
<!-- FS -->
<g id="node5" class="node">
<title>FS</title>
<path fill="none" stroke="black" d="M490,-256.4C490,-258.49 465.8,-260.18 436,-260.18 406.2,-260.18 382,-258.49 382,-256.4 382,-256.4 382,-222.45 382,-222.45 382,-220.37 406.2,-218.68 436,-218.68 465.8,-218.68 490,-220.37 490,-222.45 490,-222.45 490,-256.4 490,-256.4"/>
<path fill="none" stroke="black" d="M490,-256.4C490,-254.32 465.8,-252.63 436,-252.63 406.2,-252.63 382,-254.32 382,-256.4"/>
<text text-anchor="middle" x="436" y="-243.23" font-family="Times,serif" font-size="14.00">MBlast</text>
<text text-anchor="middle" x="436" y="-228.23" font-family="Times,serif" font-size="14.00">workspaces</text>
</g>
<!-- DB&#45;&gt;FS -->
<!-- Queue -->
<g id="node6" class="node">
<title>Queue</title>
<polygon fill="none" stroke="black" points="490,-136.43 382,-136.43 382,-132.43 378,-132.43 378,-128.43 382,-128.43 382,-108.43 378,-108.43 378,-104.43 382,-104.43 382,-100.43 490,-100.43 490,-136.43"/>
<polyline fill="none" stroke="black" points="382,-132.43 386,-132.43 386,-128.43 382,-128.43 "/>
<polyline fill="none" stroke="black" points="382,-108.43 386,-108.43 386,-104.43 382,-104.43 "/>
<text text-anchor="middle" x="436" y="-114.73" font-family="Times,serif" font-size="14.00">Job queue</text>
</g>
<!-- FS&#45;&gt;Queue -->
<!-- Start -->
<g id="node7" class="node">
<title>Start</title>
<ellipse fill="none" stroke="darkgreen" cx="251" cy="-1145.43" rx="72.71" ry="18"/>
<text text-anchor="middle" x="251" y="-1141.73" font-family="Times,serif" font-size="14.00">GET /jobs/{job&#45;id}</text>
</g>
<!-- Start&#45;&gt;IsUserTokenProvided -->
<g id="edge1" class="edge">
<title>Start&#45;&gt;IsUserTokenProvided</title>
<path fill="none" stroke="darkblue" d="M251,-1127.38C251,-1114.81 251,-1096.96 251,-1079.7"/>
<polygon fill="darkblue" stroke="darkblue" points="254.5,-1079.66 251,-1069.66 247.5,-1079.66 254.5,-1079.66"/>
</g>
<!-- ValidateJobID -->
<g id="node9" class="node">
<title>ValidateJobID</title>
<polygon fill="none" stroke="black" points="502,-1042.43 394,-1042.43 394,-1006.43 502,-1006.43 502,-1042.43"/>
<text text-anchor="middle" x="448" y="-1020.73" font-family="Times,serif" font-size="14.00">Validate job ID</text>
</g>
<!-- IsUserTokenProvided&#45;&gt;ValidateJobID -->
<g id="edge2" class="edge">
<title>IsUserTokenProvided&#45;&gt;ValidateJobID</title>
<path fill="none" stroke="darkgreen" d="M322.18,-1024.43C342.74,-1024.43 363.29,-1024.43 383.85,-1024.43"/>
<polygon fill="darkgreen" stroke="darkgreen" points="383.94,-1027.93 393.94,-1024.43 383.94,-1020.93 383.94,-1027.93"/>
<text text-anchor="middle" x="334.68" y="-1028.23" font-family="Times,serif" font-size="14.00">Yes</text>
</g>
<!-- IsJobIDValid -->
<g id="node10" class="node">
<title>IsJobIDValid</title>
<polygon fill="none" stroke="black" points="251,-921.43 190,-891.43 251,-861.43 312,-891.43 251,-921.43"/>
<text text-anchor="middle" x="251" y="-895.23" font-family="Times,serif" font-size="14.00">Is job ID</text>
<text text-anchor="middle" x="251" y="-880.23" font-family="Times,serif" font-size="14.00">valid?</text>
</g>
<!-- IsUserTokenProvided&#45;&gt;IsJobIDValid -->
<!-- ValidateJobID&#45;&gt;IsJobIDValid -->
<g id="edge4" class="edge">
<title>ValidateJobID&#45;&gt;IsJobIDValid</title>
<path fill="none" stroke="darkblue" d="M422.25,-1006.3C386.95,-982.83 323.5,-940.64 284.54,-914.73"/>
<polygon fill="darkblue" stroke="darkblue" points="286.4,-911.77 276.14,-909.14 282.53,-917.59 286.4,-911.77"/>
</g>
<!-- IsJobIDValid&#45;&gt;404 -->
<g id="edge6" class="edge">
<title>IsJobIDValid&#45;&gt;404</title>
<path fill="none" stroke="darkred" d="M189.94,-891.43C166.12,-891.43 142.29,-891.43 118.46,-891.43"/>
<polygon fill="darkred" stroke="darkred" points="118.25,-887.93 108.25,-891.43 118.25,-894.93 118.25,-887.93"/>
<text text-anchor="middle" x="179.44" y="-895.23" font-family="Times,serif" font-size="14.00">No</text>
</g>
<!-- LookupUserJob -->
<g id="node11" class="node">
<title>LookupUserJob</title>
<polygon fill="none" stroke="black" points="492,-909.43 384,-909.43 384,-873.43 492,-873.43 492,-909.43"/>
<text text-anchor="middle" x="438" y="-895.23" font-family="Times,serif" font-size="14.00">Lookup</text>
<text text-anchor="middle" x="438" y="-880.23" font-family="Times,serif" font-size="14.00">user job</text>
</g>
<!-- IsJobIDValid&#45;&gt;LookupUserJob -->
<g id="edge5" class="edge">
<title>IsJobIDValid&#45;&gt;LookupUserJob</title>
<path fill="none" stroke="darkgreen" d="M312.36,-891.43C332.74,-891.43 353.13,-891.43 373.52,-891.43"/>
<polygon fill="darkgreen" stroke="darkgreen" points="373.52,-894.93 383.52,-891.43 373.52,-887.93 373.52,-894.93"/>
<text text-anchor="middle" x="324.86" y="-895.23" font-family="Times,serif" font-size="14.00">Yes</text>
</g>
<!-- DoesJobExist1 -->
<g id="node13" class="node">
<title>DoesJobExist1</title>
<polygon fill="none" stroke="black" points="251,-803.43 179,-773.43 251,-743.43 323,-773.43 251,-803.43"/>
<text text-anchor="middle" x="251" y="-777.23" font-family="Times,serif" font-size="14.00">Does user</text>
<text text-anchor="middle" x="251" y="-762.23" font-family="Times,serif" font-size="14.00">job exist?</text>
</g>
<!-- IsJobIDValid&#45;&gt;DoesJobExist1 -->
<!-- LookupUserJob&#45;&gt;DB -->
<g id="edge8" class="edge">
<title>LookupUserJob&#45;&gt;DB</title>
<path fill="none" stroke="darkblue" stroke-dasharray="1,5" d="M438,-862.88C438,-800.9 438,-651.08 438,-589.52"/>
<polygon fill="darkblue" stroke="darkblue" points="434.5,-863.25 438,-873.25 441.5,-863.25 434.5,-863.25"/>
<polygon fill="darkblue" stroke="darkblue" points="441.5,-589.43 438,-579.43 434.5,-589.43 441.5,-589.43"/>
</g>
<!-- LookupUserJob&#45;&gt;DoesJobExist1 -->
<g id="edge7" class="edge">
<title>LookupUserJob&#45;&gt;DoesJobExist1</title>
<path fill="none" stroke="darkgreen" d="M410.41,-873.31C377.91,-853.15 323.79,-819.58 287.76,-797.23"/>
<polygon fill="darkgreen" stroke="darkgreen" points="289.35,-794.1 279.01,-791.8 285.66,-800.05 289.35,-794.1"/>
<text text-anchor="middle" x="397.91" y="-862.11" font-family="Times,serif" font-size="14.00">Yes</text>
</g>
<!-- LookupJob -->
<g id="node12" class="node">
<title>LookupJob</title>
<polygon fill="none" stroke="black" points="305,-685.43 197,-685.43 197,-649.43 305,-649.43 305,-685.43"/>
<text text-anchor="middle" x="251" y="-663.73" font-family="Times,serif" font-size="14.00">Lookup job</text>
</g>
<!-- LookupJob&#45;&gt;DB -->
<g id="edge12" class="edge">
<title>LookupJob&#45;&gt;DB</title>
<path fill="none" stroke="darkblue" stroke-dasharray="1,5" d="M290.84,-644.27C322.56,-626.63 366.74,-602.06 398.4,-584.45"/>
<polygon fill="darkblue" stroke="darkblue" points="288.92,-641.33 281.88,-649.25 292.32,-647.45 288.92,-641.33"/>
<polygon fill="darkblue" stroke="darkblue" points="400.35,-587.37 407.39,-579.45 396.95,-581.25 400.35,-587.37"/>
</g>
<!-- LookupJob&#45;&gt;DoesJobExist2 -->
<g id="edge11" class="edge">
<title>LookupJob&#45;&gt;DoesJobExist2</title>
<path fill="none" stroke="darkblue" d="M250.83,-649.25C250.71,-636.38 250.54,-618.24 250.38,-601.86"/>
<polygon fill="darkblue" stroke="darkblue" points="253.87,-601.4 250.28,-591.43 246.88,-601.46 253.87,-601.4"/>
</g>
<!-- DoesJobExist1&#45;&gt;LookupJob -->
<g id="edge10" class="edge">
<title>DoesJobExist1&#45;&gt;LookupJob</title>
<path fill="none" stroke="darkred" d="M251,-743.18C251,-728.34 251,-710.42 251,-695.84"/>
<polygon fill="darkred" stroke="darkred" points="254.5,-695.46 251,-685.46 247.5,-695.46 254.5,-695.46"/>
<text text-anchor="middle" x="240.5" y="-731.98" font-family="Times,serif" font-size="14.00">No</text>
</g>
<!-- RefreshJobStatus -->
<g id="node15" class="node">
<title>RefreshJobStatus</title>
<polygon fill="none" stroke="black" points="306,-257.43 198,-257.43 198,-221.43 306,-221.43 306,-257.43"/>
<text text-anchor="middle" x="252" y="-243.23" font-family="Times,serif" font-size="14.00">Refresh job</text>
<text text-anchor="middle" x="252" y="-228.23" font-family="Times,serif" font-size="14.00">status</text>
</g>
<!-- DoesJobExist1&#45;&gt;RefreshJobStatus -->
<g id="edge9" class="edge">
<title>DoesJobExist1&#45;&gt;RefreshJobStatus</title>
<path fill="none" stroke="darkgreen" d="M222.21,-755.36C173.25,-723.89 79,-651.73 79,-562.43 79,-562.43 79,-562.43 79,-454.43 79,-368.62 164.16,-297.88 214.98,-263.3"/>
<polygon fill="darkgreen" stroke="darkgreen" points="217.05,-266.12 223.43,-257.66 213.17,-260.3 217.05,-266.12"/>
<text text-anchor="middle" x="209.71" y="-744.16" font-family="Times,serif" font-size="14.00">Yes</text>
</g>
<!-- LinkUserToJob -->
<g id="node16" class="node">
<title>LinkUserToJob</title>
<polygon fill="none" stroke="black" points="306,-473.43 198,-473.43 198,-437.43 306,-437.43 306,-473.43"/>
<text text-anchor="middle" x="252" y="-459.23" font-family="Times,serif" font-size="14.00">Link user</text>
<text text-anchor="middle" x="252" y="-444.23" font-family="Times,serif" font-size="14.00">to job</text>
</g>
<!-- DoesJobExist2&#45;&gt;LinkUserToJob -->
<g id="edge13" class="edge">
<title>DoesJobExist2&#45;&gt;LinkUserToJob</title>
<path fill="none" stroke="darkgreen" d="M250.56,-531.46C250.85,-516.46 251.2,-498.27 251.48,-483.55"/>
<polygon fill="darkgreen" stroke="darkgreen" points="254.98,-483.61 251.67,-473.55 247.98,-483.48 254.98,-483.61"/>
<text text-anchor="middle" x="238.06" y="-520.26" font-family="Times,serif" font-size="14.00">Yes</text>
</g>
<!-- RefreshJobStatus&#45;&gt;FS -->
<g id="edge20" class="edge">
<title>RefreshJobStatus&#45;&gt;FS</title>
<path fill="none" stroke="darkblue" stroke-dasharray="1,5" d="M316.29,-239.43C334.71,-239.43 353.13,-239.43 371.54,-239.43"/>
<polygon fill="darkblue" stroke="darkblue" points="316.27,-235.93 306.27,-239.43 316.27,-242.93 316.27,-235.93"/>
<polygon fill="darkblue" stroke="darkblue" points="371.78,-242.93 381.78,-239.43 371.78,-235.93 371.78,-242.93"/>
</g>
<!-- RefreshJobStatus&#45;&gt;Queue -->
<g id="edge19" class="edge">
<title>RefreshJobStatus&#45;&gt;Queue</title>
<path fill="none" stroke="darkblue" stroke-dasharray="1,5" d="M287.02,-215.78C319.7,-194.64 368.2,-163.27 400.91,-142.12"/>
<polygon fill="darkblue" stroke="darkblue" points="284.86,-213.01 278.36,-221.38 288.66,-218.88 284.86,-213.01"/>
<polygon fill="darkblue" stroke="darkblue" points="403.19,-144.81 409.69,-136.44 399.39,-138.94 403.19,-144.81"/>
</g>
<!-- UpdateLastUsed -->
<g id="node19" class="node">
<title>UpdateLastUsed</title>
<polygon fill="none" stroke="black" points="281,-136.43 173,-136.43 173,-100.43 281,-100.43 281,-136.43"/>
<text text-anchor="middle" x="227" y="-122.23" font-family="Times,serif" font-size="14.00">Update</text>
<text text-anchor="middle" x="227" y="-107.23" font-family="Times,serif" font-size="14.00">last used</text>
</g>
<!-- RefreshJobStatus&#45;&gt;UpdateLastUsed -->
<!-- LinkUserToJob&#45;&gt;DB -->
<g id="edge16" class="edge">
<title>LinkUserToJob&#45;&gt;DB</title>
<path fill="none" stroke="darkblue" stroke-dasharray="1,5" d="M282.45,-473.45C314.08,-491.14 363.71,-518.89 398.37,-538.27"/>
<polygon fill="darkblue" stroke="darkblue" points="396.85,-541.43 407.29,-543.25 400.27,-535.32 396.85,-541.43"/>
</g>
<!-- LinkUserToSubJobs -->
<g id="node17" class="node">
<title>LinkUserToSubJobs</title>
<polygon fill="none" stroke="black" points="198,-342.93 198,-378.93 306,-378.93 306,-342.93 198,-342.93"/>
<text text-anchor="middle" x="203.5" y="-357.23" font-family="Times,serif" font-size="14.00"> </text>
<polyline fill="none" stroke="black" points="209,-342.93 209,-378.93 "/>
<text text-anchor="middle" x="251.5" y="-364.73" font-family="Times,serif" font-size="14.00">Link user</text>
<text text-anchor="middle" x="251.5" y="-349.73" font-family="Times,serif" font-size="14.00">to sub jobs</text>
<polyline fill="none" stroke="black" points="294,-342.93 294,-378.93 "/>
<text text-anchor="middle" x="300" y="-357.23" font-family="Times,serif" font-size="14.00"> </text>
</g>
<!-- LinkUserToJob&#45;&gt;LinkUserToSubJobs -->
<g id="edge15" class="edge">
<title>LinkUserToJob&#45;&gt;LinkUserToSubJobs</title>
<path fill="none" stroke="darkblue" d="M252,-437.03C252,-423.51 252,-404.51 252,-389"/>
<polygon fill="darkblue" stroke="darkblue" points="255.5,-388.93 252,-378.93 248.5,-388.93 255.5,-388.93"/>
</g>
<!-- LinkUserToSubJobs&#45;&gt;RefreshJobStatus -->
<g id="edge17" class="edge">
<title>LinkUserToSubJobs&#45;&gt;RefreshJobStatus</title>
<path fill="none" stroke="darkblue" d="M252,-342.8C252,-323.19 252,-290.8 252,-267.7"/>
<polygon fill="darkblue" stroke="darkblue" points="255.5,-267.52 252,-257.52 248.5,-267.52 255.5,-267.52"/>
</g>
<!-- IsJobStillCached -->
<g id="node18" class="node">
<title>IsJobStillCached</title>
<polygon fill="none" stroke="black" points="64,-284.43 2,-239.43 64,-194.43 126,-239.43 64,-284.43"/>
<text text-anchor="middle" x="64" y="-250.73" font-family="Times,serif" font-size="14.00">Is job</text>
<text text-anchor="middle" x="64" y="-235.73" font-family="Times,serif" font-size="14.00">status</text>
<text text-anchor="middle" x="64" y="-220.73" font-family="Times,serif" font-size="14.00">expired?</text>
</g>
<!-- IsJobStillCached&#45;&gt;200 -->
<g id="edge22" class="edge">
<title>IsJobStillCached:s&#45;&gt;200</title>
<path fill="none" stroke="darkgreen" d="M64,-194.43C64,-138.92 98.88,-82.11 122.86,-49.6"/>
<polygon fill="darkgreen" stroke="darkgreen" points="125.76,-51.57 129,-41.49 120.17,-47.35 125.76,-51.57"/>
<text text-anchor="middle" x="51.5" y="-183.23" font-family="Times,serif" font-size="14.00">Yes</text>
</g>
<!-- IsJobStillCached&#45;&gt;RefreshJobStatus -->
<g id="edge18" class="edge">
<title>IsJobStillCached&#45;&gt;RefreshJobStatus</title>
<path fill="none" stroke="darkblue" d="M136.16,-239.43C156.73,-239.43 177.31,-239.43 197.88,-239.43"/>
<polygon fill="darkblue" stroke="darkblue" points="136.05,-235.93 126.05,-239.43 136.05,-242.93 136.05,-235.93"/>
</g>
<!-- IsJobStillCached&#45;&gt;UpdateLastUsed -->
<g id="edge21" class="edge">
<title>IsJobStillCached&#45;&gt;UpdateLastUsed</title>
<path fill="none" stroke="darkred" d="M94.28,-216.32C123.02,-195.34 166.05,-163.92 195.27,-142.59"/>
<polygon fill="darkred" stroke="darkred" points="197.47,-145.32 203.49,-136.59 193.35,-139.66 197.47,-145.32"/>
<text text-anchor="middle" x="83.78" y="-220.12" font-family="Times,serif" font-size="14.00">No</text>
</g>
<!-- UpdateLastUsed&#45;&gt;200 -->
<g id="edge23" class="edge">
<title>UpdateLastUsed&#45;&gt;200</title>
<path fill="none" stroke="darkblue" d="M212.34,-100.4C200.15,-86.25 182.56,-65.83 168.42,-49.41"/>
<polygon fill="darkblue" stroke="darkblue" points="170.97,-47.01 161.79,-41.71 165.67,-51.58 170.97,-47.01"/>
</g>
</g>
</svg>
