<?xml version="1.0" encoding="UTF-8" standalone="no"?>
<!DOCTYPE svg PUBLIC "-//W3C//DTD SVG 1.1//EN"
 "http://www.w3.org/Graphics/SVG/1.1/DTD/svg11.dtd">
<!-- Generated by graphviz version 2.43.0 (0)
 -->
<!-- Title: %3 Pages: 1 -->
<svg width="611pt" height="632pt"
 viewBox="0.00 0.00 611.00 632.25" xmlns="http://www.w3.org/2000/svg" xmlns:xlink="http://www.w3.org/1999/xlink">
<g id="graph0" class="graph" transform="scale(1 1) rotate(0) translate(4 628.25)">
<title>%3</title>
<polygon fill="white" stroke="transparent" points="-4,4 -4,-628.25 607,-628.25 607,4 -4,4"/>
<!-- Start -->
<g id="node1" class="node">
<title>Start</title>
<ellipse fill="none" stroke="black" cx="247" cy="-606.25" rx="47" ry="18"/>
<text text-anchor="middle" x="247" y="-602.55" font-family="Times,serif" font-size="14.00">Start</text>
</g>
<!-- More -->
<g id="node5" class="node">
<title>More</title>
<polygon fill="none" stroke="black" points="247,-552.25 166,-507.25 247,-462.25 328,-507.25 247,-552.25"/>
<text text-anchor="middle" x="247" y="-518.55" font-family="Times,serif" font-size="14.00">More</text>
<text text-anchor="middle" x="247" y="-503.55" font-family="Times,serif" font-size="14.00">sub&#45;jobs</text>
<text text-anchor="middle" x="247" y="-488.55" font-family="Times,serif" font-size="14.00">remaining?</text>
</g>
<!-- Start&#45;&gt;More -->
<g id="edge1" class="edge">
<title>Start&#45;&gt;More</title>
<path fill="none" stroke="darkblue" d="M247,-587.91C247,-580.62 247,-571.72 247,-562.53"/>
<polygon fill="darkblue" stroke="darkblue" points="250.5,-562.51 247,-552.51 243.5,-562.51 250.5,-562.51"/>
</g>
<!-- DB -->
<g id="node2" class="node">
<title>DB</title>
<path fill="none" stroke="purple" d="M494,-337.98C494,-339.78 472.93,-341.25 447,-341.25 421.07,-341.25 400,-339.78 400,-337.98 400,-337.98 400,-308.52 400,-308.52 400,-306.72 421.07,-305.25 447,-305.25 472.93,-305.25 494,-306.72 494,-308.52 494,-308.52 494,-337.98 494,-337.98"/>
<path fill="none" stroke="purple" d="M494,-337.98C494,-336.17 472.93,-334.7 447,-334.7 421.07,-334.7 400,-336.17 400,-337.98"/>
<text text-anchor="middle" x="447" y="-319.55" font-family="Times,serif" font-size="14.00">MBlast DB</text>
</g>
<!-- Refresh -->
<g id="node3" class="node">
<title>Refresh</title>
<polygon fill="none" stroke="black" points="400,-389.75 400,-425.75 494,-425.75 494,-389.75 400,-389.75"/>
<text text-anchor="middle" x="404" y="-404.05" font-family="Times,serif" font-size="14.00"> </text>
<polyline fill="none" stroke="black" points="408,-389.75 408,-425.75 "/>
<text text-anchor="middle" x="446.5" y="-411.55" font-family="Times,serif" font-size="14.00">Refresh</text>
<text text-anchor="middle" x="446.5" y="-396.55" font-family="Times,serif" font-size="14.00">Job Status</text>
<polyline fill="none" stroke="black" points="485,-389.75 485,-425.75 "/>
<text text-anchor="middle" x="489.5" y="-404.05" font-family="Times,serif" font-size="14.00"> </text>
</g>
<!-- Refresh&#45;&gt;DB -->
<g id="edge6" class="edge">
<title>Refresh&#45;&gt;DB</title>
<path fill="none" stroke="#333333" stroke-dasharray="1,5" d="M447,-379.65C447,-370.57 447,-360.45 447,-351.38"/>
<polygon fill="#333333" stroke="#333333" points="443.5,-379.66 447,-389.66 450.5,-379.66 443.5,-379.66"/>
<polygon fill="#333333" stroke="#333333" points="450.5,-351.32 447,-341.32 443.5,-351.32 450.5,-351.32"/>
</g>
<!-- IsExpired -->
<g id="node4" class="node">
<title>IsExpired</title>
<polygon fill="none" stroke="black" points="257,-353.25 186,-323.25 257,-293.25 328,-323.25 257,-353.25"/>
<text text-anchor="middle" x="257" y="-327.05" font-family="Times,serif" font-size="14.00">Sub&#45;job is</text>
<text text-anchor="middle" x="257" y="-312.05" font-family="Times,serif" font-size="14.00">expired?</text>
</g>
<!-- Refresh&#45;&gt;IsExpired -->
<g id="edge5" class="edge">
<title>Refresh&#45;&gt;IsExpired</title>
<path fill="none" stroke="darkblue" d="M407.63,-389.66C376.27,-376.04 332.42,-357 300.12,-342.97"/>
<polygon fill="darkblue" stroke="darkblue" points="301.48,-339.75 290.91,-338.97 298.69,-346.17 301.48,-339.75"/>
</g>
<!-- Queue -->
<g id="node8" class="node">
<title>Queue</title>
<polygon fill="none" stroke="purple" points="472,-36 378,-36 378,-32 374,-32 374,-28 378,-28 378,-8 374,-8 374,-4 378,-4 378,0 472,0 472,-36"/>
<polyline fill="none" stroke="purple" points="378,-32 382,-32 382,-28 378,-28 "/>
<polyline fill="none" stroke="purple" points="378,-8 382,-8 382,-4 378,-4 "/>
<text text-anchor="middle" x="425" y="-14.3" font-family="Times,serif" font-size="14.00">Job queue</text>
</g>
<!-- Refresh&#45;&gt;Queue -->
<g id="edge7" class="edge">
<title>Refresh&#45;&gt;Queue</title>
<path fill="none" stroke="#333333" stroke-dasharray="1,5" d="M490.17,-384.52C536.34,-357.31 603,-306.54 603,-240.25 603,-240.25 603,-240.25 603,-166.25 603,-102.25 533.84,-60.83 481.74,-38.7"/>
<polygon fill="#333333" stroke="#333333" points="488.17,-381.64 481.23,-389.65 491.65,-387.71 488.17,-381.64"/>
<polygon fill="#333333" stroke="#333333" points="482.81,-35.35 472.23,-34.79 480.15,-41.83 482.81,-35.35"/>
</g>
<!-- IsExpired&#45;&gt;More -->
<g id="edge9" class="edge">
<title>IsExpired&#45;&gt;More</title>
<path fill="none" stroke="darkred" d="M255.44,-352.62C253.97,-379.32 251.74,-419.99 249.94,-452.78"/>
<polygon fill="darkred" stroke="darkred" points="246.42,-452.94 249.37,-463.12 253.41,-453.33 246.42,-452.94"/>
<text text-anchor="middle" x="244.94" y="-356.42" font-family="Times,serif" font-size="14.00">No</text>
</g>
<!-- NewWorkspace -->
<g id="node10" class="node">
<title>NewWorkspace</title>
<polygon fill="none" stroke="black" points="304,-257.25 210,-257.25 210,-221.25 304,-221.25 304,-257.25"/>
<text text-anchor="middle" x="257" y="-243.05" font-family="Times,serif" font-size="14.00">Create</text>
<text text-anchor="middle" x="257" y="-228.05" font-family="Times,serif" font-size="14.00">workspace</text>
</g>
<!-- IsExpired&#45;&gt;NewWorkspace -->
<g id="edge8" class="edge">
<title>IsExpired&#45;&gt;NewWorkspace</title>
<path fill="none" stroke="darkgreen" d="M257,-293.11C257,-284.79 257,-275.75 257,-267.54"/>
<polygon fill="darkgreen" stroke="darkgreen" points="260.5,-267.36 257,-257.36 253.5,-267.36 260.5,-267.36"/>
<text text-anchor="middle" x="244.5" y="-281.91" font-family="Times,serif" font-size="14.00">Yes</text>
</g>
<!-- Next -->
<g id="node6" class="node">
<title>Next</title>
<polygon fill="none" stroke="black" points="494,-525.25 400,-525.25 400,-489.25 494,-489.25 494,-525.25"/>
<text text-anchor="middle" x="447" y="-511.05" font-family="Times,serif" font-size="14.00">Next</text>
<text text-anchor="middle" x="447" y="-496.05" font-family="Times,serif" font-size="14.00">sub&#45;job</text>
</g>
<!-- More&#45;&gt;Next -->
<g id="edge2" class="edge">
<title>More&#45;&gt;Next</title>
<path fill="none" stroke="darkgreen" d="M328.25,-507.25C348.71,-507.25 369.18,-507.25 389.64,-507.25"/>
<polygon fill="darkgreen" stroke="darkgreen" points="389.69,-510.75 399.69,-507.25 389.69,-503.75 389.69,-510.75"/>
<text text-anchor="middle" x="365.25" y="-511.05" font-family="Times,serif" font-size="14.00"> &#160;&#160;&#160;&#160;&#160;&#160;&#160;&#160;&#160;&#160;Yes</text>
</g>
<!-- Next&#45;&gt;Refresh -->
<g id="edge4" class="edge">
<title>Next&#45;&gt;Refresh</title>
<path fill="none" stroke="darkblue" d="M447,-488.82C447,-474.26 447,-453.24 447,-436.39"/>
<polygon fill="darkblue" stroke="darkblue" points="450.5,-436.03 447,-426.03 443.5,-436.03 450.5,-436.03"/>
</g>
<!-- End -->
<g id="node7" class="node">
<title>End</title>
<ellipse fill="none" stroke="black" cx="47" cy="-507.25" rx="47" ry="18"/>
<text text-anchor="middle" x="47" y="-503.55" font-family="Times,serif" font-size="14.00">End</text>
</g>
<!-- End&#45;&gt;More -->
<g id="edge3" class="edge">
<title>End&#45;&gt;More</title>
<path fill="none" stroke="darkred" d="M104.33,-507.25C124.84,-507.25 145.35,-507.25 165.86,-507.25"/>
<polygon fill="darkred" stroke="darkred" points="104.27,-503.75 94.27,-507.25 104.27,-510.75 104.27,-503.75"/>
<text text-anchor="middle" x="155.36" y="-511.05" font-family="Times,serif" font-size="14.00">No</text>
</g>
<!-- Workspace -->
<g id="node9" class="node">
<title>Workspace</title>
<path fill="none" stroke="purple" d="M448,-109.6C448,-111.68 426.93,-113.38 401,-113.38 375.07,-113.38 354,-111.68 354,-109.6 354,-109.6 354,-75.65 354,-75.65 354,-73.57 375.07,-71.87 401,-71.87 426.93,-71.87 448,-73.57 448,-75.65 448,-75.65 448,-109.6 448,-109.6"/>
<path fill="none" stroke="purple" d="M448,-109.6C448,-107.52 426.93,-105.83 401,-105.83 375.07,-105.83 354,-107.52 354,-109.6"/>
<text text-anchor="middle" x="401" y="-96.42" font-family="Times,serif" font-size="14.00">MBlast</text>
<text text-anchor="middle" x="401" y="-81.42" font-family="Times,serif" font-size="14.00">Workspaces</text>
</g>
<!-- NewWorkspace&#45;&gt;Workspace -->
<g id="edge11" class="edge">
<title>NewWorkspace&#45;&gt;Workspace</title>
<path fill="none" stroke="#333333" stroke-dasharray="1,5" d="M283.24,-221.09C297.22,-211.37 314.3,-198.52 328,-185.25 348.14,-165.74 367.76,-140.66 381.58,-121.68"/>
<polygon fill="#333333" stroke="#333333" points="384.52,-123.59 387.5,-113.43 378.83,-119.51 384.52,-123.59"/>
</g>
<!-- NewQuery -->
<g id="node11" class="node">
<title>NewQuery</title>
<polygon fill="none" stroke="black" points="292,-185.25 198,-185.25 198,-149.25 292,-149.25 292,-185.25"/>
<text text-anchor="middle" x="245" y="-171.05" font-family="Times,serif" font-size="14.00">Create</text>
<text text-anchor="middle" x="245" y="-156.05" font-family="Times,serif" font-size="14.00">query file</text>
</g>
<!-- NewWorkspace&#45;&gt;NewQuery -->
<g id="edge10" class="edge">
<title>NewWorkspace&#45;&gt;NewQuery</title>
<path fill="none" stroke="darkblue" d="M254.03,-220.95C252.71,-213.23 251.12,-203.96 249.65,-195.36"/>
<polygon fill="darkblue" stroke="darkblue" points="253.07,-194.62 247.93,-185.35 246.17,-195.8 253.07,-194.62"/>
</g>
<!-- NewQuery&#45;&gt;Workspace -->
<g id="edge13" class="edge">
<title>NewQuery&#45;&gt;Workspace</title>
<path fill="none" stroke="#333333" stroke-dasharray="1,5" d="M281.58,-149.22C302.47,-139.49 328.95,-127.17 351.67,-116.59"/>
<polygon fill="#333333" stroke="#333333" points="353.23,-119.72 360.82,-112.33 350.28,-113.38 353.23,-119.72"/>
</g>
<!-- Submit -->
<g id="node12" class="node">
<title>Submit</title>
<polygon fill="none" stroke="black" points="282,-110.62 188,-110.62 188,-74.62 282,-74.62 282,-110.62"/>
<text text-anchor="middle" x="235" y="-96.42" font-family="Times,serif" font-size="14.00">Submit to</text>
<text text-anchor="middle" x="235" y="-81.42" font-family="Times,serif" font-size="14.00">queue</text>
</g>
<!-- NewQuery&#45;&gt;Submit -->
<g id="edge12" class="edge">
<title>NewQuery&#45;&gt;Submit</title>
<path fill="none" stroke="darkblue" d="M242.63,-149.04C241.47,-140.63 240.05,-130.3 238.75,-120.86"/>
<polygon fill="darkblue" stroke="darkblue" points="242.18,-120.14 237.35,-110.71 235.25,-121.1 242.18,-120.14"/>
</g>
<!-- Submit&#45;&gt;More -->
<g id="edge14" class="edge">
<title>Submit&#45;&gt;More</title>
<path fill="none" stroke="darkblue" d="M192.24,-110.8C145.45,-132.76 77,-175.59 77,-238.25 77,-324.25 77,-324.25 77,-324.25 77,-395.02 146.49,-449.69 196.61,-479.92"/>
<polygon fill="darkblue" stroke="darkblue" points="195.02,-483.04 205.41,-485.1 198.57,-477.01 195.02,-483.04"/>
</g>
<!-- Submit&#45;&gt;Queue -->
<g id="edge15" class="edge">
<title>Submit&#45;&gt;Queue</title>
<path fill="none" stroke="#333333" stroke-dasharray="1,5" d="M279.55,-74.6C306.84,-64.16 341.97,-50.74 370.86,-39.69"/>
<polygon fill="#333333" stroke="#333333" points="372.31,-42.89 380.4,-36.05 369.81,-36.35 372.31,-42.89"/>
</g>
</g>
</svg>
