<?xml version="1.0" encoding="UTF-8" standalone="no"?>
<!DOCTYPE svg PUBLIC "-//W3C//DTD SVG 1.1//EN"
 "http://www.w3.org/Graphics/SVG/1.1/DTD/svg11.dtd">
<!-- Generated by graphviz version 2.43.0 (0)
 -->
<!-- Title: %3 Pages: 1 -->
<svg width="655pt" height="639pt"
 viewBox="0.00 0.00 655.00 639.43" xmlns="http://www.w3.org/2000/svg" xmlns:xlink="http://www.w3.org/1999/xlink">
<g id="graph0" class="graph" transform="scale(1 1) rotate(0) translate(4 635.43)">
<title>%3</title>
<polygon fill="white" stroke="transparent" points="-4,4 -4,-635.43 651,-635.43 651,4 -4,4"/>
<!-- Start -->
<g id="node1" class="node">
<title>Start</title>
<ellipse fill="none" stroke="black" cx="252" cy="-613.43" rx="54" ry="18"/>
<text text-anchor="middle" x="252" y="-609.73" font-family="Times,serif" font-size="14.00">Start</text>
</g>
<!-- LookupUserJob -->
<g id="node4" class="node">
<title>LookupUserJob</title>
<polygon fill="none" stroke="black" points="108,-533.43 0,-533.43 0,-497.43 108,-497.43 108,-533.43"/>
<text text-anchor="middle" x="54" y="-519.23" font-family="Times,serif" font-size="14.00">Lookup</text>
<text text-anchor="middle" x="54" y="-504.23" font-family="Times,serif" font-size="14.00">user job</text>
</g>
<!-- Start&#45;&gt;LookupUserJob -->
<g id="edge1" class="edge">
<title>Start&#45;&gt;LookupUserJob</title>
<path fill="none" stroke="darkblue" d="M222.78,-598.26C190.06,-582.39 136.63,-556.49 98.66,-538.08"/>
<polygon fill="darkblue" stroke="darkblue" points="99.89,-534.79 89.36,-533.57 96.83,-541.08 99.89,-534.79"/>
</g>
<!-- LookupJob -->
<g id="node5" class="node">
<title>LookupJob</title>
<polygon fill="none" stroke="black" points="504,-533.43 396,-533.43 396,-497.43 504,-497.43 504,-533.43"/>
<text text-anchor="middle" x="450" y="-511.73" font-family="Times,serif" font-size="14.00">Lookup job</text>
</g>
<!-- Start&#45;&gt;LookupJob -->
<!-- End -->
<g id="node2" class="node">
<title>End</title>
<ellipse fill="none" stroke="black" cx="179" cy="-21.21" rx="54" ry="18"/>
<text text-anchor="middle" x="179" y="-17.51" font-family="Times,serif" font-size="14.00">End</text>
</g>
<!-- NotFound -->
<g id="node3" class="node">
<title>NotFound</title>
<ellipse fill="none" stroke="darkred" cx="585" cy="-21.21" rx="54" ry="21.43"/>
<text text-anchor="middle" x="585" y="-25.01" font-family="Times,serif" font-size="14.00">Not</text>
<text text-anchor="middle" x="585" y="-10.01" font-family="Times,serif" font-size="14.00">found</text>
</g>
<!-- DB -->
<g id="node6" class="node">
<title>DB</title>
<path fill="none" stroke="purple" d="M108,-420.15C108,-421.96 83.8,-423.43 54,-423.43 24.2,-423.43 0,-421.96 0,-420.15 0,-420.15 0,-390.7 0,-390.7 0,-388.89 24.2,-387.43 54,-387.43 83.8,-387.43 108,-388.89 108,-390.7 108,-390.7 108,-420.15 108,-420.15"/>
<path fill="none" stroke="purple" d="M108,-420.15C108,-418.35 83.8,-416.88 54,-416.88 24.2,-416.88 0,-418.35 0,-420.15"/>
<text text-anchor="middle" x="54" y="-401.73" font-family="Times,serif" font-size="14.00">MBlast DB</text>
</g>
<!-- LookupUserJob&#45;&gt;DB -->
<g id="edge3" class="edge">
<title>LookupUserJob&#45;&gt;DB</title>
<path fill="none" stroke="#333333" stroke-dasharray="1,5" d="M54,-487.06C54,-467.15 54,-440.8 54,-423.74"/>
<polygon fill="#333333" stroke="#333333" points="50.5,-487.07 54,-497.07 57.5,-487.07 50.5,-487.07"/>
</g>
<!-- DoesJobExist1 -->
<g id="node7" class="node">
<title>DoesJobExist1</title>
<polygon fill="none" stroke="black" points="252,-545.43 180,-515.43 252,-485.43 324,-515.43 252,-545.43"/>
<text text-anchor="middle" x="252" y="-519.23" font-family="Times,serif" font-size="14.00">Does user</text>
<text text-anchor="middle" x="252" y="-504.23" font-family="Times,serif" font-size="14.00">job exist?</text>
</g>
<!-- LookupUserJob&#45;&gt;DoesJobExist1 -->
<g id="edge2" class="edge">
<title>LookupUserJob&#45;&gt;DoesJobExist1</title>
<path fill="none" stroke="darkblue" d="M108.14,-515.43C128.66,-515.43 149.19,-515.43 169.71,-515.43"/>
<polygon fill="darkblue" stroke="darkblue" points="169.79,-518.93 179.79,-515.43 169.79,-511.93 169.79,-518.93"/>
</g>
<!-- LookupJob&#45;&gt;DB -->
<g id="edge6" class="edge">
<title>LookupJob&#45;&gt;DB</title>
<path fill="none" stroke="#333333" stroke-dasharray="1,5" d="M389.15,-494.28C379.43,-491.22 369.46,-488.17 360,-485.43 272.39,-460.03 169.52,-434.3 108.16,-419.38"/>
<polygon fill="#333333" stroke="#333333" points="388.17,-497.64 398.76,-497.34 390.29,-490.97 388.17,-497.64"/>
</g>
<!-- DoesJobExist2 -->
<g id="node8" class="node">
<title>DoesJobExist2</title>
<polygon fill="none" stroke="black" points="585,-435.43 523,-405.43 585,-375.43 647,-405.43 585,-435.43"/>
<text text-anchor="middle" x="585" y="-409.23" font-family="Times,serif" font-size="14.00">Does job</text>
<text text-anchor="middle" x="585" y="-394.23" font-family="Times,serif" font-size="14.00">exist?</text>
</g>
<!-- LookupJob&#45;&gt;DoesJobExist2 -->
<g id="edge7" class="edge">
<title>LookupJob:e&#45;&gt;DoesJobExist2</title>
<path fill="none" stroke="darkblue" d="M505,-515.43C542.23,-515.43 564.03,-473.59 575.24,-441.76"/>
<polygon fill="darkblue" stroke="darkblue" points="578.56,-442.85 578.38,-432.26 571.92,-440.65 578.56,-442.85"/>
</g>
<!-- LinkUserToJob -->
<g id="node10" class="node">
<title>LinkUserToJob</title>
<polygon fill="none" stroke="black" points="451,-423.43 343,-423.43 343,-387.43 451,-387.43 451,-423.43"/>
<text text-anchor="middle" x="397" y="-409.23" font-family="Times,serif" font-size="14.00">Link user</text>
<text text-anchor="middle" x="397" y="-394.23" font-family="Times,serif" font-size="14.00">to job</text>
</g>
<!-- LookupJob&#45;&gt;LinkUserToJob -->
<!-- DoesJobExist1&#45;&gt;LookupJob -->
<g id="edge5" class="edge">
<title>DoesJobExist1&#45;&gt;LookupJob</title>
<path fill="none" stroke="darkred" d="M324.32,-515.43C344.85,-515.43 365.38,-515.43 385.92,-515.43"/>
<polygon fill="darkred" stroke="darkred" points="386,-518.93 396,-515.43 386,-511.93 386,-518.93"/>
<text text-anchor="middle" x="334.82" y="-519.23" font-family="Times,serif" font-size="14.00">No</text>
</g>
<!-- RefreshJobStatus -->
<g id="node9" class="node">
<title>RefreshJobStatus</title>
<polygon fill="none" stroke="black" points="451,-226.43 343,-226.43 343,-190.43 451,-190.43 451,-226.43"/>
<text text-anchor="middle" x="397" y="-212.23" font-family="Times,serif" font-size="14.00">Refresh job</text>
<text text-anchor="middle" x="397" y="-197.23" font-family="Times,serif" font-size="14.00">status</text>
</g>
<!-- DoesJobExist1&#45;&gt;RefreshJobStatus -->
<g id="edge4" class="edge">
<title>DoesJobExist1&#45;&gt;RefreshJobStatus</title>
<path fill="none" stroke="darkgreen" d="M253.47,-485.93C256.94,-440.93 268.51,-351.98 307,-288.43 320.6,-265.96 342.69,-246.44 361.58,-232.41"/>
<polygon fill="darkgreen" stroke="darkgreen" points="363.65,-235.24 369.72,-226.56 359.56,-229.56 363.65,-235.24"/>
<text text-anchor="middle" x="240.97" y="-474.73" font-family="Times,serif" font-size="14.00">Yes</text>
</g>
<!-- DoesJobExist1&#45;&gt;LinkUserToJob -->
<!-- DoesJobExist2&#45;&gt;NotFound -->
<g id="edge9" class="edge">
<title>DoesJobExist2&#45;&gt;NotFound</title>
<path fill="none" stroke="darkred" d="M585,-375.38C585,-304.8 585,-124.74 585,-52.69"/>
<polygon fill="darkred" stroke="darkred" points="588.5,-52.48 585,-42.48 581.5,-52.48 588.5,-52.48"/>
<text text-anchor="middle" x="574.5" y="-364.18" font-family="Times,serif" font-size="14.00">No</text>
</g>
<!-- LinkUserToJob&#45;&gt;DB -->
<g id="edge11" class="edge">
<title>LinkUserToJob&#45;&gt;DB</title>
<path fill="none" stroke="#333333" stroke-dasharray="1,5" d="M342.86,-405.43C268.02,-405.43 193.18,-405.43 118.34,-405.43"/>
<polygon fill="#333333" stroke="#333333" points="118.26,-401.93 108.26,-405.43 118.26,-408.93 118.26,-401.93"/>
</g>
<!-- LinkUserToJob&#45;&gt;DoesJobExist2 -->
<g id="edge8" class="edge">
<title>LinkUserToJob&#45;&gt;DoesJobExist2</title>
<path fill="none" stroke="darkgreen" d="M461.4,-405.43C481.89,-405.43 502.38,-405.43 522.87,-405.43"/>
<polygon fill="darkgreen" stroke="darkgreen" points="461.34,-401.93 451.34,-405.43 461.34,-408.93 461.34,-401.93"/>
<text text-anchor="middle" x="510.37" y="-409.23" font-family="Times,serif" font-size="14.00">Yes</text>
</g>
<!-- LinkUserToSubJobs -->
<g id="node11" class="node">
<title>LinkUserToSubJobs</title>
<polygon fill="none" stroke="black" points="343,-288.93 343,-324.93 451,-324.93 451,-288.93 343,-288.93"/>
<text text-anchor="middle" x="348.5" y="-303.23" font-family="Times,serif" font-size="14.00"> </text>
<polyline fill="none" stroke="black" points="354,-288.93 354,-324.93 "/>
<text text-anchor="middle" x="396.5" y="-310.73" font-family="Times,serif" font-size="14.00">Link user</text>
<text text-anchor="middle" x="396.5" y="-295.73" font-family="Times,serif" font-size="14.00">to sub jobs</text>
<polyline fill="none" stroke="black" points="439,-288.93 439,-324.93 "/>
<text text-anchor="middle" x="445" y="-303.23" font-family="Times,serif" font-size="14.00"> </text>
</g>
<!-- LinkUserToJob&#45;&gt;LinkUserToSubJobs -->
<g id="edge10" class="edge">
<title>LinkUserToJob&#45;&gt;LinkUserToSubJobs</title>
<path fill="none" stroke="darkblue" d="M397,-387.17C397,-372.77 397,-351.96 397,-335.28"/>
<polygon fill="darkblue" stroke="darkblue" points="400.5,-335.03 397,-325.03 393.5,-335.03 400.5,-335.03"/>
</g>
<!-- LinkUserToSubJobs&#45;&gt;RefreshJobStatus -->
<g id="edge12" class="edge">
<title>LinkUserToSubJobs&#45;&gt;RefreshJobStatus</title>
<path fill="none" stroke="darkblue" d="M397,-288.67C397,-274.27 397,-253.46 397,-236.78"/>
<polygon fill="darkblue" stroke="darkblue" points="400.5,-236.53 397,-226.53 393.5,-236.53 400.5,-236.53"/>
</g>
<!-- IsJobStillCached -->
<g id="node12" class="node">
<title>IsJobStillCached</title>
<polygon fill="none" stroke="black" points="209,-238.43 147,-208.43 209,-178.43 271,-208.43 209,-238.43"/>
<text text-anchor="middle" x="209" y="-212.23" font-family="Times,serif" font-size="14.00">Is job</text>
<text text-anchor="middle" x="209" y="-197.23" font-family="Times,serif" font-size="14.00">expired?</text>
</g>
<!-- LinkUserToSubJobs&#45;&gt;IsJobStillCached -->
<!-- IsJobStillCached&#45;&gt;End -->
<g id="edge15" class="edge">
<title>IsJobStillCached&#45;&gt;End</title>
<path fill="none" stroke="darkgreen" d="M204.64,-180.49C198.95,-145.4 189.07,-84.37 183.38,-49.23"/>
<polygon fill="darkgreen" stroke="darkgreen" points="186.81,-48.53 181.75,-39.22 179.9,-49.65 186.81,-48.53"/>
<text text-anchor="middle" x="192.14" y="-169.29" font-family="Times,serif" font-size="14.00">Yes</text>
</g>
<!-- IsJobStillCached&#45;&gt;RefreshJobStatus -->
<g id="edge13" class="edge">
<title>IsJobStillCached&#45;&gt;RefreshJobStatus</title>
<path fill="none" stroke="darkblue" d="M281.16,-208.43C301.73,-208.43 322.31,-208.43 342.88,-208.43"/>
<polygon fill="darkblue" stroke="darkblue" points="281.05,-204.93 271.05,-208.43 281.05,-211.93 281.05,-204.93"/>
</g>
<!-- UpdateLastUsed -->
<g id="node13" class="node">
<title>UpdateLastUsed</title>
<polygon fill="none" stroke="black" points="151,-128.43 43,-128.43 43,-92.43 151,-92.43 151,-128.43"/>
<text text-anchor="middle" x="97" y="-114.23" font-family="Times,serif" font-size="14.00">Update</text>
<text text-anchor="middle" x="97" y="-99.23" font-family="Times,serif" font-size="14.00">last used</text>
</g>
<!-- IsJobStillCached&#45;&gt;UpdateLastUsed -->
<g id="edge14" class="edge">
<title>IsJobStillCached:w&#45;&gt;UpdateLastUsed</title>
<path fill="none" stroke="darkred" d="M146,-208.43C114.72,-208.43 103.4,-167.73 99.31,-139.06"/>
<polygon fill="darkred" stroke="darkred" points="102.74,-138.28 98.07,-128.77 95.79,-139.12 102.74,-138.28"/>
<text text-anchor="middle" x="135.5" y="-212.23" font-family="Times,serif" font-size="14.00">No</text>
</g>
<!-- UpdateLastUsed&#45;&gt;End -->
<g id="edge16" class="edge">
<title>UpdateLastUsed&#45;&gt;End</title>
<path fill="none" stroke="darkblue" d="M113.2,-92.2C125.57,-79.04 142.75,-60.76 156.46,-46.19"/>
<polygon fill="darkblue" stroke="darkblue" points="159.37,-48.21 163.67,-38.52 154.27,-43.41 159.37,-48.21"/>
</g>
</g>
</svg>
