<?xml version="1.0" encoding="UTF-8" standalone="no"?>
<!DOCTYPE svg PUBLIC "-//W3C//DTD SVG 1.1//EN"
 "http://www.w3.org/Graphics/SVG/1.1/DTD/svg11.dtd">
<!-- Generated by graphviz version 2.43.0 (0)
 -->
<!-- Title: %3 Pages: 1 -->
<svg width="491pt" height="829pt"
 viewBox="0.00 0.00 491.00 829.43" xmlns="http://www.w3.org/2000/svg" xmlns:xlink="http://www.w3.org/1999/xlink">
<g id="graph0" class="graph" transform="scale(1 1) rotate(0) translate(4 825.43)">
<title>%3</title>
<polygon fill="white" stroke="transparent" points="-4,4 -4,-825.43 487,-825.43 487,4 -4,4"/>
<!-- 401 -->
<g id="node1" class="node">
<title>401</title>
<ellipse fill="none" stroke="orange" cx="54" cy="-682.43" rx="54" ry="18"/>
<text text-anchor="middle" x="54" y="-678.73" font-family="Times,serif" font-size="14.00">401</text>
</g>
<!-- 404 -->
<g id="node2" class="node">
<title>404</title>
<ellipse fill="none" stroke="orange" cx="91" cy="-370.93" rx="54" ry="18"/>
<text text-anchor="middle" x="91" y="-367.23" font-family="Times,serif" font-size="14.00">404</text>
</g>
<!-- 401&#45;&gt;404 -->
<!-- IsUserTokenProvided -->
<g id="node5" class="node">
<title>IsUserTokenProvided</title>
<polygon fill="none" stroke="black" points="265,-727.43 194,-682.43 265,-637.43 336,-682.43 265,-727.43"/>
<text text-anchor="middle" x="265" y="-693.73" font-family="Times,serif" font-size="14.00">Is user</text>
<text text-anchor="middle" x="265" y="-678.73" font-family="Times,serif" font-size="14.00">token</text>
<text text-anchor="middle" x="265" y="-663.73" font-family="Times,serif" font-size="14.00">provided?</text>
</g>
<!-- 401&#45;&gt;IsUserTokenProvided -->
<g id="edge3" class="edge">
<title>401&#45;&gt;IsUserTokenProvided</title>
<path fill="none" stroke="darkred" d="M118.4,-682.43C143.51,-682.43 168.62,-682.43 193.73,-682.43"/>
<polygon fill="darkred" stroke="darkred" points="118.4,-678.93 108.4,-682.43 118.4,-685.93 118.4,-678.93"/>
<text text-anchor="middle" x="183.23" y="-686.23" font-family="Times,serif" font-size="14.00">No</text>
</g>
<!-- 200 -->
<g id="node3" class="node">
<title>200</title>
<ellipse fill="none" stroke="darkgreen" cx="335" cy="-21.21" rx="54" ry="21.43"/>
<text text-anchor="middle" x="335" y="-25.01" font-family="Times,serif" font-size="14.00">200</text>
<text text-anchor="middle" x="335" y="-10.01" font-family="Times,serif" font-size="14.00">Job details</text>
</g>
<!-- Start -->
<g id="node4" class="node">
<title>Start</title>
<ellipse fill="none" stroke="darkgreen" cx="265" cy="-803.43" rx="72.71" ry="18"/>
<text text-anchor="middle" x="265" y="-799.73" font-family="Times,serif" font-size="14.00">GET /jobs/{job&#45;id}</text>
</g>
<!-- Start&#45;&gt;IsUserTokenProvided -->
<g id="edge1" class="edge">
<title>Start&#45;&gt;IsUserTokenProvided</title>
<path fill="none" stroke="darkblue" d="M265,-785.38C265,-772.81 265,-754.96 265,-737.7"/>
<polygon fill="darkblue" stroke="darkblue" points="268.5,-737.66 265,-727.66 261.5,-737.66 268.5,-737.66"/>
</g>
<!-- ValidateJobID -->
<g id="node6" class="node">
<title>ValidateJobID</title>
<polygon fill="none" stroke="black" points="267,-542.93 267,-578.93 375,-578.93 375,-542.93 267,-542.93"/>
<text text-anchor="middle" x="272" y="-557.23" font-family="Times,serif" font-size="14.00"> </text>
<polyline fill="none" stroke="black" points="277,-542.93 277,-578.93 "/>
<text text-anchor="middle" x="320.5" y="-564.73" font-family="Times,serif" font-size="14.00">Job ID hash</text>
<text text-anchor="middle" x="320.5" y="-549.73" font-family="Times,serif" font-size="14.00">validation</text>
<polyline fill="none" stroke="black" points="364,-542.93 364,-578.93 "/>
<text text-anchor="middle" x="369.5" y="-557.23" font-family="Times,serif" font-size="14.00"> </text>
</g>
<!-- IsUserTokenProvided&#45;&gt;ValidateJobID -->
<g id="edge2" class="edge">
<title>IsUserTokenProvided&#45;&gt;ValidateJobID</title>
<path fill="none" stroke="darkgreen" d="M280.9,-647.5C289.66,-628.81 300.37,-605.95 308.52,-588.56"/>
<polygon fill="darkgreen" stroke="darkgreen" points="311.91,-589.56 312.99,-579.02 305.58,-586.59 311.91,-589.56"/>
<text text-anchor="middle" x="268.4" y="-636.3" font-family="Times,serif" font-size="14.00">Yes</text>
</g>
<!-- ValidateJobID&#45;&gt;404 -->
<g id="edge5" class="edge">
<title>ValidateJobID&#45;&gt;404</title>
<path fill="none" stroke="darkred" d="M300.18,-542.91C258.56,-508.89 165.08,-432.48 118.49,-394.39"/>
<polygon fill="darkred" stroke="darkred" points="120.58,-391.58 110.62,-387.97 116.15,-397 120.58,-391.58"/>
<text text-anchor="middle" x="275.68" y="-531.71" font-family="Times,serif" font-size="14.00">Invalid</text>
<text text-anchor="middle" x="275.68" y="-516.71" font-family="Times,serif" font-size="14.00">hash</text>
</g>
<!-- GetAndLinkUserJob -->
<g id="node7" class="node">
<title>GetAndLinkUserJob</title>
<polygon fill="none" stroke="black" points="281,-447.93 281,-483.93 389,-483.93 389,-447.93 281,-447.93"/>
<text text-anchor="middle" x="284.5" y="-462.23" font-family="Times,serif" font-size="14.00"> </text>
<polyline fill="none" stroke="black" points="288,-447.93 288,-483.93 "/>
<text text-anchor="middle" x="335" y="-469.73" font-family="Times,serif" font-size="14.00">Get and Link</text>
<text text-anchor="middle" x="335" y="-454.73" font-family="Times,serif" font-size="14.00">User Job</text>
<polyline fill="none" stroke="black" points="382,-447.93 382,-483.93 "/>
<text text-anchor="middle" x="385.5" y="-462.23" font-family="Times,serif" font-size="14.00"> </text>
</g>
<!-- ValidateJobID&#45;&gt;GetAndLinkUserJob -->
<g id="edge4" class="edge">
<title>ValidateJobID&#45;&gt;GetAndLinkUserJob</title>
<path fill="none" stroke="darkblue" d="M323.57,-542.87C325.61,-529.32 328.5,-510.11 330.86,-494.4"/>
<polygon fill="darkblue" stroke="darkblue" points="334.37,-494.6 332.4,-484.19 327.45,-493.56 334.37,-494.6"/>
</g>
<!-- GetAndLinkUserJob&#45;&gt;404 -->
<g id="edge7" class="edge">
<title>GetAndLinkUserJob&#45;&gt;404</title>
<path fill="none" stroke="darkred" d="M290.25,-447.87C245.99,-431 178.7,-405.35 134.78,-388.61"/>
<polygon fill="darkred" stroke="darkred" points="135.83,-385.27 125.24,-384.98 133.34,-391.81 135.83,-385.27"/>
<text text-anchor="middle" x="242.25" y="-436.67" font-family="Times,serif" font-size="14.00">Job not found</text>
</g>
<!-- RefreshJobStatus -->
<g id="node8" class="node">
<title>RefreshJobStatus</title>
<polygon fill="none" stroke="black" points="281,-352.93 281,-388.93 389,-388.93 389,-352.93 281,-352.93"/>
<text text-anchor="middle" x="288" y="-367.23" font-family="Times,serif" font-size="14.00"> </text>
<polyline fill="none" stroke="black" points="295,-352.93 295,-388.93 "/>
<text text-anchor="middle" x="335" y="-374.73" font-family="Times,serif" font-size="14.00">Refresh</text>
<text text-anchor="middle" x="335" y="-359.73" font-family="Times,serif" font-size="14.00">job status</text>
<polyline fill="none" stroke="black" points="375,-352.93 375,-388.93 "/>
<text text-anchor="middle" x="382" y="-367.23" font-family="Times,serif" font-size="14.00"> </text>
</g>
<!-- GetAndLinkUserJob&#45;&gt;RefreshJobStatus -->
<g id="edge6" class="edge">
<title>GetAndLinkUserJob&#45;&gt;RefreshJobStatus</title>
<path fill="none" stroke="darkblue" d="M335,-447.87C335,-434.32 335,-415.11 335,-399.4"/>
<polygon fill="darkblue" stroke="darkblue" points="338.5,-399.19 335,-389.19 331.5,-399.19 338.5,-399.19"/>
</g>
<!-- RefreshSubJobStatus -->
<g id="node9" class="node">
<title>RefreshSubJobStatus</title>
<polygon fill="none" stroke="black" points="193,-248.93 193,-293.93 301,-293.93 301,-248.93 193,-248.93"/>
<text text-anchor="middle" x="201.5" y="-267.73" font-family="Times,serif" font-size="14.00"> </text>
<polyline fill="none" stroke="black" points="210,-248.93 210,-293.93 "/>
<text text-anchor="middle" x="246.5" y="-282.73" font-family="Times,serif" font-size="14.00">Refresh</text>
<text text-anchor="middle" x="246.5" y="-267.73" font-family="Times,serif" font-size="14.00">sub&#45;job</text>
<text text-anchor="middle" x="246.5" y="-252.73" font-family="Times,serif" font-size="14.00">statuses</text>
<polyline fill="none" stroke="black" points="283,-248.93 283,-293.93 "/>
<text text-anchor="middle" x="292" y="-267.73" font-family="Times,serif" font-size="14.00"> </text>
</g>
<!-- RefreshJobStatus&#45;&gt;RefreshSubJobStatus -->
<g id="edge8" class="edge">
<title>RefreshJobStatus&#45;&gt;RefreshSubJobStatus</title>
<path fill="none" stroke="darkblue" d="M319.27,-352.5C306.61,-338.47 288.53,-318.44 273.63,-301.93"/>
<polygon fill="darkblue" stroke="darkblue" points="275.9,-299.22 266.6,-294.14 270.7,-303.91 275.9,-299.22"/>
</g>
<!-- UpdateLastUsed -->
<g id="node11" class="node">
<title>UpdateLastUsed</title>
<polygon fill="none" stroke="black" points="483,-163.43 375,-163.43 375,-127.43 483,-127.43 483,-163.43"/>
<text text-anchor="middle" x="429" y="-149.23" font-family="Times,serif" font-size="14.00">Update</text>
<text text-anchor="middle" x="429" y="-134.23" font-family="Times,serif" font-size="14.00">last used</text>
</g>
<!-- RefreshJobStatus&#45;&gt;UpdateLastUsed -->
<!-- IsJobStillCached -->
<g id="node10" class="node">
<title>IsJobStillCached</title>
<polygon fill="none" stroke="black" points="241,-190.43 179,-145.43 241,-100.43 303,-145.43 241,-190.43"/>
<text text-anchor="middle" x="241" y="-156.73" font-family="Times,serif" font-size="14.00">Is job</text>
<text text-anchor="middle" x="241" y="-141.73" font-family="Times,serif" font-size="14.00">status</text>
<text text-anchor="middle" x="241" y="-126.73" font-family="Times,serif" font-size="14.00">expired?</text>
</g>
<!-- RefreshSubJobStatus&#45;&gt;IsJobStillCached -->
<g id="edge9" class="edge">
<title>RefreshSubJobStatus&#45;&gt;IsJobStillCached</title>
<path fill="none" stroke="darkblue" d="M245.95,-248.83C245.29,-235.08 244.4,-216.64 243.55,-199.2"/>
<polygon fill="darkblue" stroke="darkblue" points="247.04,-198.9 243.06,-189.08 240.05,-199.24 247.04,-198.9"/>
</g>
<!-- IsJobStillCached&#45;&gt;200 -->
<g id="edge11" class="edge">
<title>IsJobStillCached:s&#45;&gt;200</title>
<path fill="none" stroke="darkgreen" d="M241,-100.43C241,-73.22 264.55,-53.66 288.07,-40.9"/>
<polygon fill="darkgreen" stroke="darkgreen" points="289.71,-43.99 297.04,-36.34 286.54,-37.75 289.71,-43.99"/>
<text text-anchor="middle" x="228.5" y="-89.23" font-family="Times,serif" font-size="14.00">Yes</text>
</g>
<!-- IsJobStillCached&#45;&gt;UpdateLastUsed -->
<g id="edge10" class="edge">
<title>IsJobStillCached:e&#45;&gt;UpdateLastUsed:w</title>
<path fill="none" stroke="darkred" d="M303,-145.43C331.38,-145.43 340.88,-145.43 364.98,-145.43"/>
<polygon fill="darkred" stroke="darkred" points="365,-148.93 375,-145.43 365,-141.93 365,-148.93"/>
<text text-anchor="middle" x="313.5" y="-149.23" font-family="Times,serif" font-size="14.00">No</text>
</g>
<!-- UpdateLastUsed&#45;&gt;200 -->
<g id="edge12" class="edge">
<title>UpdateLastUsed&#45;&gt;200</title>
<path fill="none" stroke="darkblue" d="M415.73,-127.18C400.25,-107.05 374.45,-73.5 356.18,-49.75"/>
<polygon fill="darkblue" stroke="darkblue" points="358.94,-47.59 350.07,-41.8 353.39,-51.86 358.94,-47.59"/>
</g>
</g>
</svg>
