<?xml version="1.0" encoding="UTF-8" standalone="no"?>
<!DOCTYPE svg PUBLIC "-//W3C//DTD SVG 1.1//EN"
 "http://www.w3.org/Graphics/SVG/1.1/DTD/svg11.dtd">
<!-- Generated by graphviz version 2.43.0 (0)
 -->
<!-- Title: %3 Pages: 1 -->
<svg width="663pt" height="956pt"
 viewBox="0.00 0.00 663.00 955.68" xmlns="http://www.w3.org/2000/svg" xmlns:xlink="http://www.w3.org/1999/xlink">
<g id="graph0" class="graph" transform="scale(1 1) rotate(0) translate(4 951.68)">
<title>%3</title>
<polygon fill="white" stroke="transparent" points="-4,4 -4,-951.68 659,-951.68 659,4 -4,4"/>
<text text-anchor="middle" x="327.5" y="-932.48" font-family="Times,serif" font-size="14.00">Blast Job Submission</text>
<!-- Start -->
<g id="node1" class="node">
<title>Start</title>
<ellipse fill="none" stroke="black" cx="217" cy="-906.68" rx="54" ry="18"/>
<text text-anchor="middle" x="217" y="-902.98" font-family="Times,serif" font-size="14.00">Start</text>
</g>
<!-- CalcDigest -->
<g id="node2" class="node">
<title>CalcDigest</title>
<polygon fill="none" stroke="black" points="271,-826.68 163,-826.68 163,-790.68 271,-790.68 271,-826.68"/>
<text text-anchor="middle" x="217" y="-812.48" font-family="Times,serif" font-size="14.00">Calculage</text>
<text text-anchor="middle" x="217" y="-797.48" font-family="Times,serif" font-size="14.00">job digest</text>
</g>
<!-- Start&#45;&gt;CalcDigest -->
<g id="edge1" class="edge">
<title>Start&#45;&gt;CalcDigest</title>
<path fill="none" stroke="darkblue" d="M217,-888.24C217,-888.24 217,-836.7 217,-836.7"/>
<polygon fill="darkblue" stroke="darkblue" points="220.5,-836.7 217,-826.7 213.5,-836.7 220.5,-836.7"/>
</g>
<!-- LookupUserJob -->
<g id="node3" class="node">
<title>LookupUserJob</title>
<polygon fill="none" stroke="black" points="451,-826.68 343,-826.68 343,-790.68 451,-790.68 451,-826.68"/>
<text text-anchor="middle" x="397" y="-812.48" font-family="Times,serif" font-size="14.00">Lookup</text>
<text text-anchor="middle" x="397" y="-797.48" font-family="Times,serif" font-size="14.00">user job</text>
</g>
<!-- CalcDigest&#45;&gt;LookupUserJob -->
<g id="edge2" class="edge">
<title>CalcDigest&#45;&gt;LookupUserJob</title>
<path fill="none" stroke="darkblue" d="M271.01,-808C271.01,-808 332.72,-808 332.72,-808"/>
<polygon fill="darkblue" stroke="darkblue" points="332.72,-811.5 342.72,-808 332.72,-804.5 332.72,-811.5"/>
</g>
<!-- UserJobFound -->
<g id="node4" class="node">
<title>UserJobFound</title>
<polygon fill="none" stroke="black" points="589,-838.68 523,-808.68 589,-778.68 655,-808.68 589,-838.68"/>
<text text-anchor="middle" x="589" y="-812.48" font-family="Times,serif" font-size="14.00">Found</text>
<text text-anchor="middle" x="589" y="-797.48" font-family="Times,serif" font-size="14.00">user job?</text>
</g>
<!-- LookupUserJob&#45;&gt;UserJobFound -->
<g id="edge3" class="edge">
<title>LookupUserJob&#45;&gt;UserJobFound</title>
<path fill="none" stroke="darkblue" d="M451.25,-808C451.25,-808 514.33,-808 514.33,-808"/>
<polygon fill="darkblue" stroke="darkblue" points="514.33,-811.5 524.33,-808 514.33,-804.5 514.33,-811.5"/>
</g>
<!-- DB -->
<g id="node18" class="node">
<title>DB</title>
<path fill="none" stroke="purple" d="M468,-615.4C468,-617.21 443.8,-618.68 414,-618.68 384.2,-618.68 360,-617.21 360,-615.4 360,-615.4 360,-585.95 360,-585.95 360,-584.14 384.2,-582.68 414,-582.68 443.8,-582.68 468,-584.14 468,-585.95 468,-585.95 468,-615.4 468,-615.4"/>
<path fill="none" stroke="purple" d="M468,-615.4C468,-613.6 443.8,-612.13 414,-612.13 384.2,-612.13 360,-613.6 360,-615.4"/>
<text text-anchor="middle" x="414" y="-596.98" font-family="Times,serif" font-size="14.00">MBlast DB</text>
</g>
<!-- LookupUserJob&#45;&gt;DB -->
<g id="edge4" class="edge">
<title>LookupUserJob&#45;&gt;DB</title>
<path fill="none" stroke="#444444" stroke-dasharray="1,5" d="M420.67,-780.58C420.67,-780.58 420.67,-618.88 420.67,-618.88"/>
<polygon fill="#444444" stroke="#444444" points="417.17,-780.58 420.67,-790.58 424.17,-780.58 417.17,-780.58"/>
</g>
<!-- LookupJob -->
<g id="node5" class="node">
<title>LookupJob</title>
<polygon fill="none" stroke="black" points="614,-716.68 506,-716.68 506,-680.68 614,-680.68 614,-716.68"/>
<text text-anchor="middle" x="560" y="-694.98" font-family="Times,serif" font-size="14.00">Lookup job</text>
</g>
<!-- UserJobFound&#45;&gt;LookupJob -->
<g id="edge6" class="edge">
<title>UserJobFound&#45;&gt;LookupJob</title>
<path fill="none" stroke="darkred" d="M568.5,-787.99C568.5,-787.99 568.5,-726.72 568.5,-726.72"/>
<polygon fill="darkred" stroke="darkred" points="572,-726.72 568.5,-716.72 565,-726.72 572,-726.72"/>
<text text-anchor="middle" x="558" y="-776.79" font-family="Times,serif" font-size="14.00">No</text>
</g>
<!-- RefreshJobStatus -->
<g id="node10" class="node">
<title>RefreshJobStatus</title>
<polygon fill="none" stroke="black" points="468,-532.68 360,-532.68 360,-496.68 468,-496.68 468,-532.68"/>
<text text-anchor="middle" x="414" y="-518.48" font-family="Times,serif" font-size="14.00">Refresh job</text>
<text text-anchor="middle" x="414" y="-503.48" font-family="Times,serif" font-size="14.00">status</text>
</g>
<!-- UserJobFound&#45;&gt;RefreshJobStatus -->
<g id="edge5" class="edge">
<title>UserJobFound&#45;&gt;RefreshJobStatus</title>
<path fill="none" stroke="darkgreen" d="M618,-791.48C618,-729.34 618,-520 618,-520 618,-520 478.13,-520 478.13,-520"/>
<polygon fill="darkgreen" stroke="darkgreen" points="478.13,-516.5 468.13,-520 478.13,-523.5 478.13,-516.5"/>
<text text-anchor="middle" x="605.5" y="-780.28" font-family="Times,serif" font-size="14.00">Yes</text>
</g>
<!-- LookupJob&#45;&gt;DB -->
<g id="edge8" class="edge">
<title>LookupJob&#45;&gt;DB</title>
<path fill="none" stroke="#444444" stroke-dasharray="1,5" d="M495.93,-692C495.93,-692 459.5,-692 459.5,-692 459.5,-692 459.5,-644.31 459.5,-617.85"/>
<polygon fill="#444444" stroke="#444444" points="495.93,-695.5 505.93,-692 495.93,-688.5 495.93,-695.5"/>
</g>
<!-- JobFound -->
<g id="node6" class="node">
<title>JobFound</title>
<polygon fill="none" stroke="black" points="234,-728.68 180,-698.68 234,-668.68 288,-698.68 234,-728.68"/>
<text text-anchor="middle" x="234" y="-702.48" font-family="Times,serif" font-size="14.00">Found</text>
<text text-anchor="middle" x="234" y="-687.48" font-family="Times,serif" font-size="14.00">job?</text>
</g>
<!-- JobFound&#45;&gt;LookupJob -->
<g id="edge7" class="edge">
<title>JobFound&#45;&gt;LookupJob</title>
<path fill="none" stroke="darkblue" d="M288.65,-704C288.65,-704 505.87,-704 505.87,-704"/>
<polygon fill="darkblue" stroke="darkblue" points="288.65,-700.5 278.65,-704 288.65,-707.5 288.65,-700.5"/>
</g>
<!-- LinkUserToJob -->
<g id="node13" class="node">
<title>LinkUserToJob</title>
<polygon fill="none" stroke="black" points="288,-618.68 180,-618.68 180,-582.68 288,-582.68 288,-618.68"/>
<text text-anchor="middle" x="234" y="-604.48" font-family="Times,serif" font-size="14.00">Link user</text>
<text text-anchor="middle" x="234" y="-589.48" font-family="Times,serif" font-size="14.00">to job</text>
</g>
<!-- JobFound&#45;&gt;LinkUserToJob -->
<g id="edge9" class="edge">
<title>JobFound&#45;&gt;LinkUserToJob</title>
<path fill="none" stroke="darkgreen" d="M234,-668.47C234,-668.47 234,-628.95 234,-628.95"/>
<polygon fill="darkgreen" stroke="darkgreen" points="237.5,-628.95 234,-618.95 230.5,-628.95 237.5,-628.95"/>
<text text-anchor="middle" x="221.5" y="-657.27" font-family="Times,serif" font-size="14.00">Yes</text>
</g>
<!-- CreateWorkspace -->
<g id="node7" class="node">
<title>CreateWorkspace</title>
<polygon fill="none" stroke="black" points="108,-532.68 0,-532.68 0,-496.68 108,-496.68 108,-532.68"/>
<text text-anchor="middle" x="54" y="-518.48" font-family="Times,serif" font-size="14.00">Create job</text>
<text text-anchor="middle" x="54" y="-503.48" font-family="Times,serif" font-size="14.00">workspace</text>
</g>
<!-- CreateQueryFile -->
<g id="node8" class="node">
<title>CreateQueryFile</title>
<polygon fill="none" stroke="black" points="125,-419.68 17,-419.68 17,-383.68 125,-383.68 125,-419.68"/>
<text text-anchor="middle" x="71" y="-405.48" font-family="Times,serif" font-size="14.00">Create</text>
<text text-anchor="middle" x="71" y="-390.48" font-family="Times,serif" font-size="14.00">query file</text>
</g>
<!-- CreateWorkspace&#45;&gt;CreateQueryFile -->
<g id="edge24" class="edge">
<title>CreateWorkspace&#45;&gt;CreateQueryFile</title>
<path fill="none" stroke="darkblue" d="M62.5,-496.52C62.5,-496.52 62.5,-429.79 62.5,-429.79"/>
<polygon fill="darkblue" stroke="darkblue" points="66,-429.79 62.5,-419.79 59,-429.79 66,-429.79"/>
</g>
<!-- FS -->
<g id="node19" class="node">
<title>FS</title>
<path fill="none" stroke="purple" d="M276,-217.03C276,-219.11 251.8,-220.8 222,-220.8 192.2,-220.8 168,-219.11 168,-217.03 168,-217.03 168,-183.07 168,-183.07 168,-180.99 192.2,-179.3 222,-179.3 251.8,-179.3 276,-180.99 276,-183.07 276,-183.07 276,-217.03 276,-217.03"/>
<path fill="none" stroke="purple" d="M276,-217.03C276,-214.95 251.8,-213.26 222,-213.26 192.2,-213.26 168,-214.95 168,-217.03"/>
<text text-anchor="middle" x="222" y="-203.85" font-family="Times,serif" font-size="14.00">MBlast</text>
<text text-anchor="middle" x="222" y="-188.85" font-family="Times,serif" font-size="14.00">workspaces</text>
</g>
<!-- CreateWorkspace&#45;&gt;FS -->
<g id="edge25" class="edge">
<title>CreateWorkspace&#45;&gt;FS</title>
<path fill="none" stroke="#444444" stroke-dasharray="1,5" d="M8.5,-496.46C8.5,-428.41 8.5,-193 8.5,-193 8.5,-193 157.85,-193 157.85,-193"/>
<polygon fill="#444444" stroke="#444444" points="157.85,-196.5 167.85,-193 157.85,-189.5 157.85,-196.5"/>
</g>
<!-- SubmitJobToQueue -->
<g id="node14" class="node">
<title>SubmitJobToQueue</title>
<polygon fill="none" stroke="black" points="280,-306.68 172,-306.68 172,-270.68 280,-270.68 280,-306.68"/>
<text text-anchor="middle" x="226" y="-292.48" font-family="Times,serif" font-size="14.00">Submit job</text>
<text text-anchor="middle" x="226" y="-277.48" font-family="Times,serif" font-size="14.00">to queue</text>
</g>
<!-- CreateQueryFile&#45;&gt;SubmitJobToQueue -->
<g id="edge26" class="edge">
<title>CreateQueryFile&#45;&gt;SubmitJobToQueue</title>
<path fill="none" stroke="darkblue" d="M125.04,-401C150.77,-401 176,-401 176,-401 176,-401 176,-316.72 176,-316.72"/>
<polygon fill="darkblue" stroke="darkblue" points="179.5,-316.72 176,-306.72 172.5,-316.72 179.5,-316.72"/>
</g>
<!-- CreateQueryFile&#45;&gt;FS -->
<g id="edge27" class="edge">
<title>CreateQueryFile&#45;&gt;FS</title>
<path fill="none" stroke="#444444" stroke-dasharray="1,5" d="M71,-383.62C71,-335.18 71,-206 71,-206 71,-206 157.91,-206 157.91,-206"/>
<polygon fill="#444444" stroke="#444444" points="157.91,-209.5 167.91,-206 157.91,-202.5 157.91,-209.5"/>
</g>
<!-- InsertJobInDB -->
<g id="node9" class="node">
<title>InsertJobInDB</title>
<polygon fill="none" stroke="black" points="108,-716.68 0,-716.68 0,-680.68 108,-680.68 108,-716.68"/>
<text text-anchor="middle" x="54" y="-702.48" font-family="Times,serif" font-size="14.00">Insert job</text>
<text text-anchor="middle" x="54" y="-687.48" font-family="Times,serif" font-size="14.00">into DB</text>
</g>
<!-- InsertJobInDB&#45;&gt;JobFound -->
<g id="edge10" class="edge">
<title>InsertJobInDB&#45;&gt;JobFound</title>
<path fill="none" stroke="darkred" d="M118.01,-698C118.01,-698 180.96,-698 180.96,-698"/>
<polygon fill="darkred" stroke="darkred" points="118.01,-694.5 108.01,-698 118.01,-701.5 118.01,-694.5"/>
<text text-anchor="middle" x="170.46" y="-701.8" font-family="Times,serif" font-size="14.00">No</text>
</g>
<!-- InsertJobInDB&#45;&gt;CreateWorkspace -->
<g id="edge11" class="edge">
<title>InsertJobInDB&#45;&gt;CreateWorkspace</title>
<path fill="none" stroke="darkblue" d="M36,-680.36C36,-680.36 36,-542.92 36,-542.92"/>
<polygon fill="darkblue" stroke="darkblue" points="39.5,-542.92 36,-532.92 32.5,-542.92 39.5,-542.92"/>
</g>
<!-- InsertJobInDB&#45;&gt;DB -->
<g id="edge12" class="edge">
<title>InsertJobInDB&#45;&gt;DB</title>
<path fill="none" stroke="#444444" stroke-dasharray="1,5" d="M72,-680.45C72,-664.21 72,-643 72,-643 72,-643 390.33,-643 390.33,-643 390.33,-643 390.33,-628.87 390.33,-628.87"/>
<polygon fill="#444444" stroke="#444444" points="393.83,-628.87 390.33,-618.87 386.83,-628.87 393.83,-628.87"/>
</g>
<!-- JobStatusFailed -->
<g id="node11" class="node">
<title>JobStatusFailed</title>
<polygon fill="none" stroke="black" points="560,-446.68 498,-401.68 560,-356.68 622,-401.68 560,-446.68"/>
<text text-anchor="middle" x="560" y="-412.98" font-family="Times,serif" font-size="14.00">Job</text>
<text text-anchor="middle" x="560" y="-397.98" font-family="Times,serif" font-size="14.00">status is</text>
<text text-anchor="middle" x="560" y="-382.98" font-family="Times,serif" font-size="14.00">expired?</text>
</g>
<!-- RefreshJobStatus&#45;&gt;JobStatusFailed -->
<g id="edge16" class="edge">
<title>RefreshJobStatus&#45;&gt;JobStatusFailed</title>
<path fill="none" stroke="darkblue" d="M468.23,-508C486.34,-508 502,-508 502,-508 502,-508 502,-414.74 502,-414.74"/>
<polygon fill="darkblue" stroke="darkblue" points="505.5,-414.74 502,-404.74 498.5,-414.74 505.5,-414.74"/>
</g>
<!-- RefreshJobStatus&#45;&gt;DB -->
<g id="edge17" class="edge">
<title>RefreshJobStatus&#45;&gt;DB</title>
<path fill="none" stroke="#444444" stroke-dasharray="1,5" d="M414,-542.91C414,-542.91 414,-572.46 414,-572.46"/>
<polygon fill="#444444" stroke="#444444" points="410.5,-572.46 414,-582.46 417.5,-572.46 410.5,-572.46"/>
<polygon fill="#444444" stroke="#444444" points="417.5,-542.91 414,-532.91 410.5,-542.91 417.5,-542.91"/>
</g>
<!-- RefreshJobStatus&#45;&gt;FS -->
<g id="edge19" class="edge">
<title>RefreshJobStatus&#45;&gt;FS</title>
<path fill="none" stroke="#444444" stroke-dasharray="1,5" d="M414,-486.47C414,-486.47 414,-209 414,-209 414,-209 333.03,-209 276.25,-209"/>
<polygon fill="#444444" stroke="#444444" points="410.5,-486.47 414,-496.47 417.5,-486.47 410.5,-486.47"/>
</g>
<!-- UpdateJobLastUsed -->
<g id="node12" class="node">
<title>UpdateJobLastUsed</title>
<polygon fill="none" stroke="black" points="610,-306.68 502,-306.68 502,-270.68 610,-270.68 610,-306.68"/>
<text text-anchor="middle" x="556" y="-292.48" font-family="Times,serif" font-size="14.00">Update job</text>
<text text-anchor="middle" x="556" y="-277.48" font-family="Times,serif" font-size="14.00">last used</text>
</g>
<!-- JobStatusFailed&#45;&gt;UpdateJobLastUsed -->
<g id="edge20" class="edge">
<title>JobStatusFailed&#45;&gt;UpdateJobLastUsed</title>
<path fill="none" stroke="darkred" d="M556,-359.28C556,-359.28 556,-316.74 556,-316.74"/>
<polygon fill="darkred" stroke="darkred" points="559.5,-316.74 556,-306.74 552.5,-316.74 559.5,-316.74"/>
<text text-anchor="middle" x="545.5" y="-348.08" font-family="Times,serif" font-size="14.00">No</text>
</g>
<!-- GetSubJobList -->
<g id="node15" class="node">
<title>GetSubJobList</title>
<polygon fill="none" stroke="black" points="610,-218.05 502,-218.05 502,-182.05 610,-182.05 610,-218.05"/>
<text text-anchor="middle" x="556" y="-203.85" font-family="Times,serif" font-size="14.00">Get sub</text>
<text text-anchor="middle" x="556" y="-188.85" font-family="Times,serif" font-size="14.00">job list</text>
</g>
<!-- UpdateJobLastUsed&#45;&gt;GetSubJobList -->
<g id="edge22" class="edge">
<title>UpdateJobLastUsed&#45;&gt;GetSubJobList</title>
<path fill="none" stroke="darkblue" d="M556,-270.31C556,-270.31 556,-228.09 556,-228.09"/>
<polygon fill="darkblue" stroke="darkblue" points="559.5,-228.09 556,-218.09 552.5,-228.09 559.5,-228.09"/>
</g>
<!-- UpdateJobLastUsed&#45;&gt;FS -->
<g id="edge23" class="edge">
<title>UpdateJobLastUsed&#45;&gt;FS</title>
<path fill="none" stroke="#444444" stroke-dasharray="1,5" d="M501.55,-294C497.24,-294 494.5,-294 494.5,-294 494.5,-294 494.5,-200 494.5,-200 494.5,-200 286.16,-200 286.16,-200"/>
<polygon fill="#444444" stroke="#444444" points="286.16,-196.5 276.16,-200 286.16,-203.5 286.16,-196.5"/>
</g>
<!-- LinkUserToJob&#45;&gt;RefreshJobStatus -->
<g id="edge13" class="edge">
<title>LinkUserToJob&#45;&gt;RefreshJobStatus</title>
<path fill="none" stroke="darkblue" d="M288.05,-606C307.47,-606 324.67,-606 324.67,-606 324.67,-606 324.67,-520 324.67,-520 324.67,-520 349.97,-520 349.97,-520"/>
<polygon fill="darkblue" stroke="darkblue" points="349.97,-523.5 359.97,-520 349.97,-516.5 349.97,-523.5"/>
</g>
<!-- LinkUserToJob&#45;&gt;DB -->
<g id="edge14" class="edge">
<title>LinkUserToJob&#45;&gt;DB</title>
<path fill="none" stroke="#444444" stroke-dasharray="1,5" d="M288.01,-594C288.01,-594 349.72,-594 349.72,-594"/>
<polygon fill="#444444" stroke="#444444" points="349.72,-597.5 359.72,-594 349.72,-590.5 349.72,-597.5"/>
</g>
<!-- SubmitJobToQueue&#45;&gt;JobStatusFailed -->
<g id="edge21" class="edge">
<title>SubmitJobToQueue&#45;&gt;JobStatusFailed</title>
<path fill="none" stroke="darkgreen" d="M246.67,-316.72C246.67,-316.72 246.67,-370 246.67,-370 246.67,-370 473.88,-370 541.34,-370"/>
<polygon fill="darkgreen" stroke="darkgreen" points="250.17,-316.72 246.67,-306.72 243.17,-316.72 250.17,-316.72"/>
<text text-anchor="middle" x="528.84" y="-373.8" font-family="Times,serif" font-size="14.00">Yes</text>
</g>
<!-- SubmitJobToQueue&#45;&gt;GetSubJobList -->
<g id="edge28" class="edge">
<title>SubmitJobToQueue&#45;&gt;GetSubJobList</title>
<path fill="none" stroke="darkblue" d="M280.03,-282C294.56,-282 306.33,-282 306.33,-282 306.33,-282 306.33,-191 306.33,-191 306.33,-191 491.83,-191 491.83,-191"/>
<polygon fill="darkblue" stroke="darkblue" points="491.83,-194.5 501.83,-191 491.83,-187.5 491.83,-194.5"/>
</g>
<!-- Queue -->
<g id="node20" class="node">
<title>Queue</title>
<polygon fill="none" stroke="purple" points="288,-532.68 180,-532.68 180,-528.68 176,-528.68 176,-524.68 180,-524.68 180,-504.68 176,-504.68 176,-500.68 180,-500.68 180,-496.68 288,-496.68 288,-532.68"/>
<polyline fill="none" stroke="purple" points="180,-528.68 184,-528.68 184,-524.68 180,-524.68 "/>
<polyline fill="none" stroke="purple" points="180,-504.68 184,-504.68 184,-500.68 180,-500.68 "/>
<text text-anchor="middle" x="234" y="-510.98" font-family="Times,serif" font-size="14.00">Job queue</text>
</g>
<!-- SubmitJobToQueue&#45;&gt;Queue -->
<g id="edge29" class="edge">
<title>SubmitJobToQueue&#45;&gt;Queue</title>
<path fill="none" stroke="#444444" stroke-dasharray="1,5" d="M213.33,-306.79C213.33,-306.79 213.33,-486.48 213.33,-486.48"/>
<polygon fill="#444444" stroke="#444444" points="209.83,-486.48 213.33,-496.48 216.83,-486.48 209.83,-486.48"/>
</g>
<!-- HandleSubJobList -->
<g id="node16" class="node">
<title>HandleSubJobList</title>
<polygon fill="none" stroke="black" points="491,-92.93 491,-128.93 621,-128.93 621,-92.93 491,-92.93"/>
<text text-anchor="middle" x="493.5" y="-107.23" font-family="Times,serif" font-size="14.00"> </text>
<polyline fill="none" stroke="black" points="496,-92.93 496,-128.93 "/>
<text text-anchor="middle" x="556" y="-107.23" font-family="Times,serif" font-size="14.00">Process sub&#45;jobs</text>
<polyline fill="none" stroke="black" points="616,-92.93 616,-128.93 "/>
<text text-anchor="middle" x="618.5" y="-107.23" font-family="Times,serif" font-size="14.00"> </text>
</g>
<!-- GetSubJobList&#45;&gt;HandleSubJobList -->
<g id="edge15" class="edge">
<title>GetSubJobList&#45;&gt;HandleSubJobList</title>
<path fill="none" stroke="darkblue" d="M556,-182.02C556,-182.02 556,-138.94 556,-138.94"/>
<polygon fill="darkblue" stroke="darkblue" points="559.5,-138.94 556,-128.94 552.5,-138.94 559.5,-138.94"/>
</g>
<!-- 200 -->
<g id="node17" class="node">
<title>200</title>
<ellipse fill="none" stroke="green" cx="556" cy="-21.21" rx="68.68" ry="21.43"/>
<text text-anchor="middle" x="556" y="-25.01" font-family="Times,serif" font-size="14.00">200</text>
<text text-anchor="middle" x="556" y="-10.01" font-family="Times,serif" font-size="14.00">Return job ID</text>
</g>
<!-- HandleSubJobList&#45;&gt;200 -->
<g id="edge30" class="edge">
<title>HandleSubJobList&#45;&gt;200</title>
<path fill="none" stroke="darkblue" d="M556,-92.77C556,-92.77 556,-52.5 556,-52.5"/>
<polygon fill="darkblue" stroke="darkblue" points="559.5,-52.5 556,-42.5 552.5,-52.5 559.5,-52.5"/>
</g>
<!-- Queue&#45;&gt;RefreshJobStatus -->
<g id="edge18" class="edge">
<title>Queue&#45;&gt;RefreshJobStatus</title>
<path fill="none" stroke="#444444" stroke-dasharray="1,5" d="M288.01,-508C288.01,-508 349.72,-508 349.72,-508"/>
<polygon fill="#444444" stroke="#444444" points="349.72,-511.5 359.72,-508 349.72,-504.5 349.72,-511.5"/>
</g>
</g>
</svg>
