<?xml version="1.0" encoding="UTF-8" standalone="no"?>
<!DOCTYPE svg PUBLIC "-//W3C//DTD SVG 1.1//EN"
 "http://www.w3.org/Graphics/SVG/1.1/DTD/svg11.dtd">
<!-- Generated by graphviz version 2.43.0 (0)
 -->
<!-- Title: %3 Pages: 1 -->
<svg width="475pt" height="719pt"
 viewBox="0.00 0.00 474.55 719.10" xmlns="http://www.w3.org/2000/svg" xmlns:xlink="http://www.w3.org/1999/xlink">
<g id="graph0" class="graph" transform="scale(1 1) rotate(0) translate(4 715.1)">
<title>%3</title>
<polygon fill="white" stroke="transparent" points="-4,4 -4,-715.1 470.55,-715.1 470.55,4 -4,4"/>
<!-- Start -->
<g id="node1" class="node">
<title>Start</title>
<ellipse fill="none" stroke="green" cx="389" cy="-693.1" rx="77.61" ry="18"/>
<text text-anchor="middle" x="389" y="-689.4" font-family="Times,serif" font-size="14.00">POST /jobs/{job&#45;id}</text>
</g>
<!-- IsUserTokenProvided -->
<g id="node2" class="node">
<title>IsUserTokenProvided</title>
<polygon fill="none" stroke="black" points="389,-639.1 317,-594.1 389,-549.1 461,-594.1 389,-639.1"/>
<text text-anchor="middle" x="389" y="-605.4" font-family="Times,serif" font-size="14.00">Is User</text>
<text text-anchor="middle" x="389" y="-590.4" font-family="Times,serif" font-size="14.00">Token</text>
<text text-anchor="middle" x="389" y="-575.4" font-family="Times,serif" font-size="14.00">Provided?</text>
</g>
<!-- Start&#45;&gt;IsUserTokenProvided -->
<g id="edge1" class="edge">
<title>Start&#45;&gt;IsUserTokenProvided</title>
<path fill="none" stroke="darkblue" d="M389,-674.94C389,-674.94 389,-649.32 389,-649.32"/>
<polygon fill="darkblue" stroke="darkblue" points="392.5,-649.32 389,-639.32 385.5,-649.32 392.5,-649.32"/>
</g>
<!-- ValidateJobID -->
<g id="node3" class="node">
<title>ValidateJobID</title>
<polygon fill="none" stroke="black" points="340.5,-473.89 340.5,-509.89 435.5,-509.89 435.5,-473.89 340.5,-473.89"/>
<text text-anchor="middle" x="343" y="-488.19" font-family="Times,serif" font-size="14.00"> </text>
<polyline fill="none" stroke="black" points="345.5,-473.89 345.5,-509.89 "/>
<text text-anchor="middle" x="388" y="-495.69" font-family="Times,serif" font-size="14.00">Job ID Hash</text>
<text text-anchor="middle" x="388" y="-480.69" font-family="Times,serif" font-size="14.00">Validation</text>
<polyline fill="none" stroke="black" points="430.5,-473.89 430.5,-509.89 "/>
<text text-anchor="middle" x="433" y="-488.19" font-family="Times,serif" font-size="14.00"> </text>
</g>
<!-- IsUserTokenProvided&#45;&gt;ValidateJobID -->
<g id="edge3" class="edge">
<title>IsUserTokenProvided&#45;&gt;ValidateJobID</title>
<path fill="none" stroke="darkgreen" d="M388,-549.57C388,-549.57 388,-520.14 388,-520.14"/>
<polygon fill="darkgreen" stroke="darkgreen" points="391.5,-520.14 388,-510.14 384.5,-520.14 391.5,-520.14"/>
<text text-anchor="middle" x="375.5" y="-538.37" font-family="Times,serif" font-size="14.00">Yes</text>
</g>
<!-- 404 -->
<g id="node5" class="node">
<title>404</title>
<ellipse fill="none" stroke="orange" cx="192" cy="-491.89" rx="53.98" ry="21.43"/>
<text text-anchor="middle" x="192" y="-495.69" font-family="Times,serif" font-size="14.00">404</text>
<text text-anchor="middle" x="192" y="-480.69" font-family="Times,serif" font-size="14.00">Not Found</text>
</g>
<!-- ValidateJobID&#45;&gt;404 -->
<g id="edge4" class="edge">
<title>ValidateJobID&#45;&gt;404</title>
<path fill="none" stroke="darkred" d="M340.3,-491C340.3,-491 255.8,-491 255.8,-491"/>
<polygon fill="darkred" stroke="darkred" points="255.8,-487.5 245.8,-491 255.8,-494.5 255.8,-487.5"/>
<text text-anchor="middle" x="304.3" y="-509.8" font-family="Times,serif" font-size="14.00">Validation</text>
<text text-anchor="middle" x="304.3" y="-494.8" font-family="Times,serif" font-size="14.00">error</text>
</g>
<!-- GetAndLinkUserJob -->
<g id="node7" class="node">
<title>GetAndLinkUserJob</title>
<polygon fill="none" stroke="black" points="337,-398.18 337,-434.18 439,-434.18 439,-398.18 337,-398.18"/>
<text text-anchor="middle" x="339.5" y="-412.48" font-family="Times,serif" font-size="14.00"> </text>
<polyline fill="none" stroke="black" points="342,-398.18 342,-434.18 "/>
<text text-anchor="middle" x="388" y="-419.98" font-family="Times,serif" font-size="14.00">Get and Link</text>
<text text-anchor="middle" x="388" y="-404.98" font-family="Times,serif" font-size="14.00">User Job</text>
<polyline fill="none" stroke="black" points="434,-398.18 434,-434.18 "/>
<text text-anchor="middle" x="436.5" y="-412.48" font-family="Times,serif" font-size="14.00"> </text>
</g>
<!-- ValidateJobID&#45;&gt;GetAndLinkUserJob -->
<g id="edge5" class="edge">
<title>ValidateJobID&#45;&gt;GetAndLinkUserJob</title>
<path fill="none" stroke="darkblue" d="M388,-473.56C388,-473.56 388,-444.34 388,-444.34"/>
<polygon fill="darkblue" stroke="darkblue" points="391.5,-444.34 388,-434.34 384.5,-444.34 391.5,-444.34"/>
</g>
<!-- 401 -->
<g id="node4" class="node">
<title>401</title>
<ellipse fill="none" stroke="orange" cx="176" cy="-594.1" rx="69.09" ry="21.43"/>
<text text-anchor="middle" x="176" y="-597.9" font-family="Times,serif" font-size="14.00">401</text>
<text text-anchor="middle" x="176" y="-582.9" font-family="Times,serif" font-size="14.00">Unauthorized</text>
</g>
<!-- 401&#45;&gt;IsUserTokenProvided -->
<g id="edge2" class="edge">
<title>401&#45;&gt;IsUserTokenProvided</title>
<path fill="none" stroke="darkred" d="M255.45,-594C255.45,-594 317.09,-594 317.09,-594"/>
<polygon fill="darkred" stroke="darkred" points="255.45,-590.5 245.45,-594 255.45,-597.5 255.45,-590.5"/>
<text text-anchor="middle" x="306.59" y="-597.8" font-family="Times,serif" font-size="14.00">No</text>
</g>
<!-- 401&#45;&gt;404 -->
<!-- CreateWorkspace -->
<g id="node11" class="node">
<title>CreateWorkspace</title>
<polygon fill="none" stroke="black" points="251,-276.68 157,-276.68 157,-240.68 251,-240.68 251,-276.68"/>
<text text-anchor="middle" x="204" y="-262.48" font-family="Times,serif" font-size="14.00">Create job</text>
<text text-anchor="middle" x="204" y="-247.48" font-family="Times,serif" font-size="14.00">workspace</text>
</g>
<!-- 404&#45;&gt;CreateWorkspace -->
<!-- 204 -->
<g id="node6" class="node">
<title>204</title>
<ellipse fill="none" stroke="green" cx="385" cy="-21.21" rx="57.97" ry="21.43"/>
<text text-anchor="middle" x="385" y="-25.01" font-family="Times,serif" font-size="14.00">204</text>
<text text-anchor="middle" x="385" y="-10.01" font-family="Times,serif" font-size="14.00">No Content</text>
</g>
<!-- GetAndLinkUserJob&#45;&gt;404 -->
<g id="edge6" class="edge">
<title>GetAndLinkUserJob&#45;&gt;404</title>
<path fill="none" stroke="darkred" d="M336.91,-416C286.25,-416 216.16,-416 216.16,-416 216.16,-416 216.16,-462.74 216.16,-462.74"/>
<polygon fill="darkred" stroke="darkred" points="212.66,-462.74 216.16,-472.74 219.66,-462.74 212.66,-462.74"/>
<text text-anchor="middle" x="300.91" y="-419.8" font-family="Times,serif" font-size="14.00">Not found</text>
</g>
<!-- RefreshJobStatus -->
<g id="node9" class="node">
<title>RefreshJobStatus</title>
<polygon fill="none" stroke="black" points="339,-325.18 339,-361.18 433,-361.18 433,-325.18 339,-325.18"/>
<text text-anchor="middle" x="343" y="-339.48" font-family="Times,serif" font-size="14.00"> </text>
<polyline fill="none" stroke="black" points="347,-325.18 347,-361.18 "/>
<text text-anchor="middle" x="385.5" y="-346.98" font-family="Times,serif" font-size="14.00">Refresh</text>
<text text-anchor="middle" x="385.5" y="-331.98" font-family="Times,serif" font-size="14.00">Job Status</text>
<polyline fill="none" stroke="black" points="424,-325.18 424,-361.18 "/>
<text text-anchor="middle" x="428.5" y="-339.48" font-family="Times,serif" font-size="14.00"> </text>
</g>
<!-- GetAndLinkUserJob&#45;&gt;RefreshJobStatus -->
<g id="edge7" class="edge">
<title>GetAndLinkUserJob&#45;&gt;RefreshJobStatus</title>
<path fill="none" stroke="darkblue" d="M386,-398.13C386,-398.13 386,-371.27 386,-371.27"/>
<polygon fill="darkblue" stroke="darkblue" points="389.5,-371.27 386,-361.27 382.5,-371.27 389.5,-371.27"/>
</g>
<!-- BlastWorkspaces -->
<g id="node8" class="node">
<title>BlastWorkspaces</title>
<path fill="none" stroke="purple" d="M94,-189.03C94,-191.11 72.93,-192.8 47,-192.8 21.07,-192.8 0,-191.11 0,-189.03 0,-189.03 0,-155.07 0,-155.07 0,-152.99 21.07,-151.3 47,-151.3 72.93,-151.3 94,-152.99 94,-155.07 94,-155.07 94,-189.03 94,-189.03"/>
<path fill="none" stroke="purple" d="M94,-189.03C94,-186.95 72.93,-185.26 47,-185.26 21.07,-185.26 0,-186.95 0,-189.03"/>
<text text-anchor="middle" x="47" y="-175.85" font-family="Times,serif" font-size="14.00">MBlast</text>
<text text-anchor="middle" x="47" y="-160.85" font-family="Times,serif" font-size="14.00">workspaces</text>
</g>
<!-- BlastWorkspaces&#45;&gt;CreateWorkspace -->
<g id="edge11" class="edge">
<title>BlastWorkspaces&#45;&gt;CreateWorkspace</title>
<path fill="none" stroke="#333333" stroke-dasharray="1,5" d="M104.11,-178C104.11,-178 162,-178 162,-178 162,-178 162,-216.57 162,-240.37"/>
<polygon fill="#333333" stroke="#333333" points="104.11,-174.5 94.11,-178 104.11,-181.5 104.11,-174.5"/>
</g>
<!-- CreateQuery -->
<g id="node12" class="node">
<title>CreateQuery</title>
<polygon fill="none" stroke="black" points="260,-190.05 166,-190.05 166,-154.05 260,-154.05 260,-190.05"/>
<text text-anchor="middle" x="213" y="-175.85" font-family="Times,serif" font-size="14.00">Create</text>
<text text-anchor="middle" x="213" y="-160.85" font-family="Times,serif" font-size="14.00">query file</text>
</g>
<!-- BlastWorkspaces&#45;&gt;CreateQuery -->
<g id="edge12" class="edge">
<title>BlastWorkspaces&#45;&gt;CreateQuery</title>
<path fill="none" stroke="#333333" stroke-dasharray="1,5" d="M104.12,-166C104.12,-166 165.76,-166 165.76,-166"/>
<polygon fill="#333333" stroke="#333333" points="104.12,-162.5 94.12,-166 104.12,-169.5 104.12,-162.5"/>
</g>
<!-- IsExpired -->
<g id="node10" class="node">
<title>IsExpired</title>
<polygon fill="none" stroke="black" points="385,-288.68 323,-258.68 385,-228.68 447,-258.68 385,-288.68"/>
<text text-anchor="middle" x="385" y="-262.48" font-family="Times,serif" font-size="14.00">Is job</text>
<text text-anchor="middle" x="385" y="-247.48" font-family="Times,serif" font-size="14.00">expired?</text>
</g>
<!-- RefreshJobStatus&#45;&gt;IsExpired -->
<g id="edge8" class="edge">
<title>RefreshJobStatus&#45;&gt;IsExpired</title>
<path fill="none" stroke="darkblue" d="M386,-324.84C386,-324.84 386,-298.27 386,-298.27"/>
<polygon fill="darkblue" stroke="darkblue" points="389.5,-298.27 386,-288.27 382.5,-298.27 389.5,-298.27"/>
</g>
<!-- IsExpired&#45;&gt;204 -->
<g id="edge15" class="edge">
<title>IsExpired&#45;&gt;204</title>
<path fill="none" stroke="darkred" d="M404.33,-238.02C404.33,-238.02 404.33,-51.32 404.33,-51.32"/>
<polygon fill="darkred" stroke="darkred" points="407.83,-51.32 404.33,-41.32 400.83,-51.32 407.83,-51.32"/>
<text text-anchor="middle" x="393.83" y="-226.82" font-family="Times,serif" font-size="14.00">No</text>
</g>
<!-- IsExpired&#45;&gt;BlastWorkspaces -->
<!-- CreateWorkspace&#45;&gt;IsExpired -->
<g id="edge9" class="edge">
<title>CreateWorkspace&#45;&gt;IsExpired</title>
<path fill="none" stroke="darkgreen" d="M261.08,-258C261.08,-258 324.16,-258 324.16,-258"/>
<polygon fill="darkgreen" stroke="darkgreen" points="261.08,-254.5 251.08,-258 261.08,-261.5 261.08,-254.5"/>
<text text-anchor="middle" x="311.66" y="-261.8" font-family="Times,serif" font-size="14.00">Yes</text>
</g>
<!-- CreateWorkspace&#45;&gt;CreateQuery -->
<g id="edge10" class="edge">
<title>CreateWorkspace&#45;&gt;CreateQuery</title>
<path fill="none" stroke="darkblue" d="M208.5,-240.31C208.5,-240.31 208.5,-200.1 208.5,-200.1"/>
<polygon fill="darkblue" stroke="darkblue" points="212,-200.1 208.5,-190.1 205,-200.1 212,-200.1"/>
</g>
<!-- ResubmitSubJobs -->
<g id="node13" class="node">
<title>ResubmitSubJobs</title>
<polygon fill="none" stroke="black" points="158,-78.93 158,-114.93 268,-114.93 268,-78.93 158,-78.93"/>
<text text-anchor="middle" x="160.5" y="-93.23" font-family="Times,serif" font-size="14.00"> </text>
<polyline fill="none" stroke="black" points="163,-78.93 163,-114.93 "/>
<text text-anchor="middle" x="213" y="-100.73" font-family="Times,serif" font-size="14.00">Sub&#45;Job</text>
<text text-anchor="middle" x="213" y="-85.73" font-family="Times,serif" font-size="14.00">Resubmission</text>
<polyline fill="none" stroke="black" points="263,-78.93 263,-114.93 "/>
<text text-anchor="middle" x="265.5" y="-93.23" font-family="Times,serif" font-size="14.00"> </text>
</g>
<!-- CreateQuery&#45;&gt;ResubmitSubJobs -->
<g id="edge13" class="edge">
<title>CreateQuery&#45;&gt;ResubmitSubJobs</title>
<path fill="none" stroke="darkblue" d="M213,-153.87C213,-153.87 213,-124.94 213,-124.94"/>
<polygon fill="darkblue" stroke="darkblue" points="216.5,-124.94 213,-114.94 209.5,-124.94 216.5,-124.94"/>
</g>
<!-- ResubmitSubJobs&#45;&gt;204 -->
<g id="edge14" class="edge">
<title>ResubmitSubJobs&#45;&gt;204</title>
<path fill="none" stroke="darkblue" d="M268.12,-96C311.85,-96 365.67,-96 365.67,-96 365.67,-96 365.67,-51.25 365.67,-51.25"/>
<polygon fill="darkblue" stroke="darkblue" points="369.17,-51.25 365.67,-41.25 362.17,-51.25 369.17,-51.25"/>
</g>
</g>
</svg>
