<?xml version="1.0" encoding="UTF-8" standalone="no"?>
<!DOCTYPE svg PUBLIC "-//W3C//DTD SVG 1.1//EN"
 "http://www.w3.org/Graphics/SVG/1.1/DTD/svg11.dtd">
<!-- Generated by graphviz version 2.43.0 (0)
 -->
<!-- Title: %3 Pages: 1 -->
<svg width="606pt" height="703pt"
 viewBox="0.00 0.00 606.00 703.25" xmlns="http://www.w3.org/2000/svg" xmlns:xlink="http://www.w3.org/1999/xlink">
<g id="graph0" class="graph" transform="scale(1 1) rotate(0) translate(4 699.25)">
<title>%3</title>
<polygon fill="white" stroke="transparent" points="-4,4 -4,-699.25 602,-699.25 602,4 -4,4"/>
<!-- Start -->
<g id="node1" class="node">
<title>Start</title>
<ellipse fill="none" stroke="black" cx="286" cy="-677.25" rx="47" ry="18"/>
<text text-anchor="middle" x="286" y="-673.55" font-family="Times,serif" font-size="14.00">Start</text>
</g>
<!-- More -->
<g id="node5" class="node">
<title>More</title>
<polygon fill="none" stroke="black" points="286,-623.25 205,-578.25 286,-533.25 367,-578.25 286,-623.25"/>
<text text-anchor="middle" x="286" y="-589.55" font-family="Times,serif" font-size="14.00">More</text>
<text text-anchor="middle" x="286" y="-574.55" font-family="Times,serif" font-size="14.00">sub&#45;jobs</text>
<text text-anchor="middle" x="286" y="-559.55" font-family="Times,serif" font-size="14.00">remaining?</text>
</g>
<!-- Start&#45;&gt;More -->
<g id="edge1" class="edge">
<title>Start&#45;&gt;More</title>
<path fill="none" stroke="darkblue" d="M286,-658.91C286,-651.62 286,-642.72 286,-633.53"/>
<polygon fill="darkblue" stroke="darkblue" points="289.5,-633.51 286,-623.51 282.5,-633.51 289.5,-633.51"/>
</g>
<!-- DB -->
<g id="node2" class="node">
<title>DB</title>
<path fill="none" stroke="purple" d="M489,-337.98C489,-339.78 467.93,-341.25 442,-341.25 416.07,-341.25 395,-339.78 395,-337.98 395,-337.98 395,-308.52 395,-308.52 395,-306.72 416.07,-305.25 442,-305.25 467.93,-305.25 489,-306.72 489,-308.52 489,-308.52 489,-337.98 489,-337.98"/>
<path fill="none" stroke="purple" d="M489,-337.98C489,-336.17 467.93,-334.7 442,-334.7 416.07,-334.7 395,-336.17 395,-337.98"/>
<text text-anchor="middle" x="442" y="-319.55" font-family="Times,serif" font-size="14.00">MBlast DB</text>
</g>
<!-- Refresh -->
<g id="node3" class="node">
<title>Refresh</title>
<polygon fill="none" stroke="black" points="496.5,-425.25 395.5,-425.25 395.5,-389.25 496.5,-389.25 496.5,-425.25"/>
<text text-anchor="middle" x="446" y="-411.05" font-family="Times,serif" font-size="14.00">Refresh</text>
<text text-anchor="middle" x="446" y="-396.05" font-family="Times,serif" font-size="14.00">sub&#45;job status</text>
</g>
<!-- Refresh&#45;&gt;DB -->
<g id="edge6" class="edge">
<title>Refresh&#45;&gt;DB</title>
<path fill="none" stroke="#333333" stroke-dasharray="1,5" d="M444.65,-378.61C444.22,-369.83 443.75,-360.14 443.32,-351.4"/>
<polygon fill="#333333" stroke="#333333" points="441.17,-379.04 445.15,-388.86 448.16,-378.7 441.17,-379.04"/>
<polygon fill="#333333" stroke="#333333" points="446.82,-351.15 442.83,-341.33 439.82,-351.49 446.82,-351.15"/>
</g>
<!-- IsExpired -->
<g id="node4" class="node">
<title>IsExpired</title>
<polygon fill="none" stroke="black" points="106,-353.25 35,-323.25 106,-293.25 177,-323.25 106,-353.25"/>
<text text-anchor="middle" x="106" y="-327.05" font-family="Times,serif" font-size="14.00">Sub&#45;job is</text>
<text text-anchor="middle" x="106" y="-312.05" font-family="Times,serif" font-size="14.00">expired?</text>
</g>
<!-- Refresh&#45;&gt;IsExpired -->
<g id="edge5" class="edge">
<title>Refresh&#45;&gt;IsExpired</title>
<path fill="none" stroke="darkblue" d="M395.47,-394.06C332.25,-378.82 224.48,-352.82 159.78,-337.22"/>
<polygon fill="darkblue" stroke="darkblue" points="160.32,-333.75 149.78,-334.81 158.68,-340.56 160.32,-333.75"/>
</g>
<!-- Queue -->
<g id="node8" class="node">
<title>Queue</title>
<polygon fill="none" stroke="black" points="489,-36 395,-36 395,-32 391,-32 391,-28 395,-28 395,-8 391,-8 391,-4 395,-4 395,0 489,0 489,-36"/>
<polyline fill="none" stroke="black" points="395,-32 399,-32 399,-28 395,-28 "/>
<polyline fill="none" stroke="black" points="395,-8 399,-8 399,-4 395,-4 "/>
<text text-anchor="middle" x="442" y="-14.3" font-family="Times,serif" font-size="14.00">Job queue</text>
</g>
<!-- Refresh&#45;&gt;Queue -->
<g id="edge7" class="edge">
<title>Refresh&#45;&gt;Queue</title>
<path fill="none" stroke="#333333" stroke-dasharray="1,5" d="M487.69,-384.07C532.69,-356.76 598,-305.82 598,-240.25 598,-240.25 598,-240.25 598,-166.25 598,-106.84 537.43,-64.3 491.78,-40.67"/>
<polygon fill="#333333" stroke="#333333" points="485.81,-381.11 478.98,-389.21 489.37,-387.14 485.81,-381.11"/>
<polygon fill="#333333" stroke="#333333" points="493.09,-37.41 482.58,-36.05 489.95,-43.67 493.09,-37.41"/>
</g>
<!-- IsExpired&#45;&gt;More -->
<g id="edge9" class="edge">
<title>IsExpired&#45;&gt;More</title>
<path fill="none" stroke="darkred" d="M122.03,-346.78C152.52,-389.63 219.22,-483.39 257.5,-537.19"/>
<polygon fill="darkred" stroke="darkred" points="254.74,-539.34 263.39,-545.46 260.44,-535.29 254.74,-539.34"/>
<text text-anchor="middle" x="111.53" y="-350.58" font-family="Times,serif" font-size="14.00">No</text>
</g>
<!-- NewWorkspace -->
<g id="node10" class="node">
<title>NewWorkspace</title>
<polygon fill="none" stroke="black" points="153,-257.25 59,-257.25 59,-221.25 153,-221.25 153,-257.25"/>
<text text-anchor="middle" x="106" y="-243.05" font-family="Times,serif" font-size="14.00">Create</text>
<text text-anchor="middle" x="106" y="-228.05" font-family="Times,serif" font-size="14.00">workspace</text>
</g>
<!-- IsExpired&#45;&gt;NewWorkspace -->
<g id="edge8" class="edge">
<title>IsExpired&#45;&gt;NewWorkspace</title>
<path fill="none" stroke="darkgreen" d="M106,-293.11C106,-284.79 106,-275.75 106,-267.54"/>
<polygon fill="darkgreen" stroke="darkgreen" points="109.5,-267.36 106,-257.36 102.5,-267.36 109.5,-267.36"/>
<text text-anchor="middle" x="93.5" y="-281.91" font-family="Times,serif" font-size="14.00">Yes</text>
</g>
<!-- Next -->
<g id="node6" class="node">
<title>Next</title>
<polygon fill="none" stroke="black" points="491,-497.25 397,-497.25 397,-461.25 491,-461.25 491,-497.25"/>
<text text-anchor="middle" x="444" y="-483.05" font-family="Times,serif" font-size="14.00">Next</text>
<text text-anchor="middle" x="444" y="-468.05" font-family="Times,serif" font-size="14.00">sub&#45;job</text>
</g>
<!-- More&#45;&gt;Next -->
<g id="edge2" class="edge">
<title>More&#45;&gt;Next</title>
<path fill="none" stroke="darkgreen" d="M323.84,-554.02C349.05,-538.54 382.01,-518.31 407.03,-502.94"/>
<polygon fill="darkgreen" stroke="darkgreen" points="409.17,-505.74 415.87,-497.52 405.51,-499.77 409.17,-505.74"/>
<text text-anchor="middle" x="360.84" y="-526.82" font-family="Times,serif" font-size="14.00"> &#160;&#160;&#160;&#160;&#160;&#160;&#160;&#160;&#160;&#160;Yes</text>
</g>
<!-- Next&#45;&gt;Refresh -->
<g id="edge4" class="edge">
<title>Next&#45;&gt;Refresh</title>
<path fill="none" stroke="darkblue" d="M444.49,-460.95C444.71,-453.23 444.98,-443.96 445.23,-435.36"/>
<polygon fill="darkblue" stroke="darkblue" points="448.72,-435.45 445.51,-425.35 441.73,-435.25 448.72,-435.45"/>
</g>
<!-- End -->
<g id="node7" class="node">
<title>End</title>
<ellipse fill="none" stroke="black" cx="86" cy="-578.25" rx="47" ry="18"/>
<text text-anchor="middle" x="86" y="-574.55" font-family="Times,serif" font-size="14.00">End</text>
</g>
<!-- End&#45;&gt;More -->
<g id="edge3" class="edge">
<title>End&#45;&gt;More</title>
<path fill="none" stroke="darkred" d="M143.33,-578.25C163.84,-578.25 184.35,-578.25 204.86,-578.25"/>
<polygon fill="darkred" stroke="darkred" points="143.27,-574.75 133.27,-578.25 143.27,-581.75 143.27,-574.75"/>
<text text-anchor="middle" x="194.36" y="-582.05" font-family="Times,serif" font-size="14.00">No</text>
</g>
<!-- Workspace -->
<g id="node9" class="node">
<title>Workspace</title>
<path fill="none" stroke="purple" d="M94,-109.6C94,-111.68 72.93,-113.38 47,-113.38 21.07,-113.38 0,-111.68 0,-109.6 0,-109.6 0,-75.65 0,-75.65 0,-73.57 21.07,-71.87 47,-71.87 72.93,-71.87 94,-73.57 94,-75.65 94,-75.65 94,-109.6 94,-109.6"/>
<path fill="none" stroke="purple" d="M94,-109.6C94,-107.52 72.93,-105.83 47,-105.83 21.07,-105.83 0,-107.52 0,-109.6"/>
<text text-anchor="middle" x="47" y="-96.42" font-family="Times,serif" font-size="14.00">MBlast</text>
<text text-anchor="middle" x="47" y="-81.42" font-family="Times,serif" font-size="14.00">Workspaces</text>
</g>
<!-- NewWorkspace&#45;&gt;Workspace -->
<g id="edge11" class="edge">
<title>NewWorkspace&#45;&gt;Workspace</title>
<path fill="none" stroke="#333333" stroke-dasharray="1,5" d="M78.2,-221.12C66.23,-212.09 53.5,-199.84 47,-185.25 38.4,-165.97 38.72,-142.06 41.02,-123.5"/>
<polygon fill="#333333" stroke="#333333" points="44.49,-123.94 42.5,-113.53 37.57,-122.91 44.49,-123.94"/>
</g>
<!-- NewQuery -->
<g id="node11" class="node">
<title>NewQuery</title>
<polygon fill="none" stroke="black" points="177,-185.25 83,-185.25 83,-149.25 177,-149.25 177,-185.25"/>
<text text-anchor="middle" x="130" y="-171.05" font-family="Times,serif" font-size="14.00">Create</text>
<text text-anchor="middle" x="130" y="-156.05" font-family="Times,serif" font-size="14.00">query file</text>
</g>
<!-- NewWorkspace&#45;&gt;NewQuery -->
<g id="edge10" class="edge">
<title>NewWorkspace&#45;&gt;NewQuery</title>
<path fill="none" stroke="darkblue" d="M111.93,-220.95C114.61,-213.15 117.83,-203.76 120.8,-195.08"/>
<polygon fill="darkblue" stroke="darkblue" points="124.2,-195.95 124.14,-185.35 117.58,-193.68 124.2,-195.95"/>
</g>
<!-- NewQuery&#45;&gt;Workspace -->
<g id="edge13" class="edge">
<title>NewQuery&#45;&gt;Workspace</title>
<path fill="none" stroke="#333333" stroke-dasharray="1,5" d="M110.33,-149.04C100.45,-140.4 88.27,-129.74 77.24,-120.09"/>
<polygon fill="#333333" stroke="#333333" points="79.29,-117.23 69.46,-113.28 74.68,-122.5 79.29,-117.23"/>
</g>
<!-- Submit -->
<g id="node12" class="node">
<title>Submit</title>
<polygon fill="none" stroke="black" points="333,-110.62 239,-110.62 239,-74.62 333,-74.62 333,-110.62"/>
<text text-anchor="middle" x="286" y="-96.42" font-family="Times,serif" font-size="14.00">Submit to</text>
<text text-anchor="middle" x="286" y="-81.42" font-family="Times,serif" font-size="14.00">queue</text>
</g>
<!-- NewQuery&#45;&gt;Submit -->
<g id="edge12" class="edge">
<title>NewQuery&#45;&gt;Submit</title>
<path fill="none" stroke="darkblue" d="M166.58,-149.22C188.6,-138.97 216.83,-125.83 240.31,-114.9"/>
<polygon fill="darkblue" stroke="darkblue" points="241.8,-118.06 249.38,-110.67 238.84,-111.72 241.8,-118.06"/>
</g>
<!-- Submit&#45;&gt;More -->
<g id="edge14" class="edge">
<title>Submit&#45;&gt;More</title>
<path fill="none" stroke="darkblue" d="M286,-110.99C286,-138.14 286,-192.3 286,-238.25 286,-408.25 286,-408.25 286,-408.25 286,-446.51 286,-489.63 286,-522.75"/>
<polygon fill="darkblue" stroke="darkblue" points="282.5,-523.13 286,-533.13 289.5,-523.13 282.5,-523.13"/>
</g>
<!-- Submit&#45;&gt;Queue -->
<g id="edge15" class="edge">
<title>Submit&#45;&gt;Queue</title>
<path fill="none" stroke="#333333" stroke-dasharray="1,5" d="M322.58,-74.6C344.6,-64.35 372.83,-51.2 396.31,-40.27"/>
<polygon fill="#333333" stroke="#333333" points="397.8,-43.44 405.38,-36.05 394.84,-37.09 397.8,-43.44"/>
</g>
</g>
</svg>
