<?xml version="1.0" encoding="UTF-8" standalone="no"?>
<!DOCTYPE svg PUBLIC "-//W3C//DTD SVG 1.1//EN"
 "http://www.w3.org/Graphics/SVG/1.1/DTD/svg11.dtd">
<!-- Generated by graphviz version 2.43.0 (0)
 -->
<!-- Title: %3 Pages: 1 -->
<svg width="434pt" height="242pt"
 viewBox="0.00 0.00 434.00 242.00" xmlns="http://www.w3.org/2000/svg" xmlns:xlink="http://www.w3.org/1999/xlink">
<g id="graph0" class="graph" transform="scale(1 1) rotate(0) translate(4 238)">
<title>%3</title>
<polygon fill="white" stroke="transparent" points="-4,4 -4,-238 430,-238 430,4 -4,4"/>
<!-- Start -->
<g id="node1" class="node">
<title>Start</title>
<ellipse fill="none" stroke="blue" cx="296" cy="-216" rx="47" ry="18"/>
<text text-anchor="middle" x="296" y="-212.3" font-family="Times,serif" font-size="14.00">Start</text>
</g>
<!-- More -->
<g id="node3" class="node">
<title>More</title>
<polygon fill="none" stroke="black" points="296,-162 215,-117 296,-72 377,-117 296,-162"/>
<text text-anchor="middle" x="296" y="-128.3" font-family="Times,serif" font-size="14.00">More</text>
<text text-anchor="middle" x="296" y="-113.3" font-family="Times,serif" font-size="14.00">sub&#45;jobs</text>
<text text-anchor="middle" x="296" y="-98.3" font-family="Times,serif" font-size="14.00">remaining?</text>
</g>
<!-- Start&#45;&gt;More -->
<g id="edge1" class="edge">
<title>Start&#45;&gt;More</title>
<path fill="none" stroke="darkblue" d="M296,-197.66C296,-190.37 296,-181.47 296,-172.28"/>
<polygon fill="darkblue" stroke="darkblue" points="299.5,-172.26 296,-162.26 292.5,-172.26 299.5,-172.26"/>
</g>
<!-- End -->
<g id="node2" class="node">
<title>End</title>
<ellipse fill="none" stroke="blue" cx="96" cy="-117" rx="47" ry="18"/>
<text text-anchor="middle" x="96" y="-113.3" font-family="Times,serif" font-size="14.00">End</text>
</g>
<!-- End&#45;&gt;More -->
<g id="edge6" class="edge">
<title>End&#45;&gt;More</title>
<path fill="none" stroke="darkred" d="M153.33,-117C173.84,-117 194.35,-117 214.86,-117"/>
<polygon fill="darkred" stroke="darkred" points="153.27,-113.5 143.27,-117 153.27,-120.5 153.27,-113.5"/>
<text text-anchor="middle" x="204.36" y="-120.8" font-family="Times,serif" font-size="14.00">No</text>
</g>
<!-- Next -->
<g id="node4" class="node">
<title>Next</title>
<polygon fill="none" stroke="black" points="426,-36 332,-36 332,0 426,0 426,-36"/>
<text text-anchor="middle" x="379" y="-14.3" font-family="Times,serif" font-size="14.00">Next sub&#45;job</text>
</g>
<!-- More&#45;&gt;Next -->
<g id="edge2" class="edge">
<title>More&#45;&gt;Next</title>
<path fill="none" stroke="darkgreen" d="M321.58,-86.11C333.07,-72.68 346.47,-57.01 357.44,-44.2"/>
<polygon fill="darkgreen" stroke="darkgreen" points="360.41,-46.11 364.25,-36.24 355.09,-41.56 360.41,-46.11"/>
<text text-anchor="middle" x="352.08" y="-58.91" font-family="Times,serif" font-size="14.00"> &#160;&#160;&#160;&#160;&#160;&#160;&#160;Yes</text>
</g>
<!-- Link -->
<g id="node5" class="node">
<title>Link</title>
<polygon fill="none" stroke="black" points="260,-36 166,-36 166,0 260,0 260,-36"/>
<text text-anchor="middle" x="213" y="-14.3" font-family="Times,serif" font-size="14.00">Link sub&#45;job</text>
</g>
<!-- Link&#45;&gt;More -->
<g id="edge5" class="edge">
<title>Link&#45;&gt;More</title>
<path fill="none" stroke="darkblue" d="M227.75,-36.24C237.72,-47.89 251.27,-63.73 263.68,-78.23"/>
<polygon fill="darkblue" stroke="darkblue" points="261.26,-80.78 270.42,-86.11 266.58,-76.23 261.26,-80.78"/>
</g>
<!-- Link&#45;&gt;Next -->
<g id="edge3" class="edge">
<title>Link&#45;&gt;Next</title>
<path fill="none" stroke="darkblue" d="M270.08,-18C290.58,-18 311.09,-18 331.59,-18"/>
<polygon fill="darkblue" stroke="darkblue" points="270.01,-14.5 260.01,-18 270.01,-21.5 270.01,-14.5"/>
</g>
<!-- DB -->
<g id="node6" class="node">
<title>DB</title>
<path fill="none" stroke="purple" d="M94,-32.73C94,-34.53 72.93,-36 47,-36 21.07,-36 0,-34.53 0,-32.73 0,-32.73 0,-3.27 0,-3.27 0,-1.47 21.07,0 47,0 72.93,0 94,-1.47 94,-3.27 94,-3.27 94,-32.73 94,-32.73"/>
<path fill="none" stroke="purple" d="M94,-32.73C94,-30.92 72.93,-29.45 47,-29.45 21.07,-29.45 0,-30.92 0,-32.73"/>
<text text-anchor="middle" x="47" y="-14.3" font-family="Times,serif" font-size="14.00">MBlast DB</text>
</g>
<!-- DB&#45;&gt;Link -->
<g id="edge4" class="edge">
<title>DB&#45;&gt;Link</title>
<path fill="none" stroke="darkblue" stroke-dasharray="1,5" d="M104.08,-18C121.22,-18 138.36,-18 155.5,-18"/>
<polygon fill="darkblue" stroke="darkblue" points="104.01,-14.5 94.01,-18 104.01,-21.5 104.01,-14.5"/>
<polygon fill="darkblue" stroke="darkblue" points="155.59,-21.5 165.59,-18 155.59,-14.5 155.59,-21.5"/>
</g>
</g>
</svg>
