<?xml version="1.0" encoding="UTF-8" standalone="no"?>
<!DOCTYPE svg PUBLIC "-//W3C//DTD SVG 1.1//EN"
 "http://www.w3.org/Graphics/SVG/1.1/DTD/svg11.dtd">
<!-- Generated by graphviz version 2.43.0 (0)
 -->
<!-- Title: %3 Pages: 1 -->
<svg width="663pt" height="950pt"
 viewBox="0.00 0.00 663.00 950.25" xmlns="http://www.w3.org/2000/svg" xmlns:xlink="http://www.w3.org/1999/xlink">
<g id="graph0" class="graph" transform="scale(1 1) rotate(0) translate(4 946.25)">
<title>%3</title>
<polygon fill="white" stroke="transparent" points="-4,4 -4,-946.25 659,-946.25 659,4 -4,4"/>
<text text-anchor="middle" x="327.5" y="-927.05" font-family="Times,serif" font-size="14.00">Blast Job Submission</text>
<!-- Start -->
<g id="node1" class="node">
<title>Start</title>
<ellipse fill="none" stroke="black" cx="217" cy="-901.25" rx="54" ry="18"/>
<text text-anchor="middle" x="217" y="-897.55" font-family="Times,serif" font-size="14.00">Start</text>
</g>
<!-- CalcDigest -->
<g id="node2" class="node">
<title>CalcDigest</title>
<polygon fill="none" stroke="black" points="271,-821.25 163,-821.25 163,-785.25 271,-785.25 271,-821.25"/>
<text text-anchor="middle" x="217" y="-807.05" font-family="Times,serif" font-size="14.00">Calculate</text>
<text text-anchor="middle" x="217" y="-792.05" font-family="Times,serif" font-size="14.00">job digest</text>
</g>
<!-- Start&#45;&gt;CalcDigest -->
<g id="edge1" class="edge">
<title>Start&#45;&gt;CalcDigest</title>
<path fill="none" stroke="darkblue" d="M217,-882.82C217,-882.82 217,-831.27 217,-831.27"/>
<polygon fill="darkblue" stroke="darkblue" points="220.5,-831.27 217,-821.27 213.5,-831.27 220.5,-831.27"/>
</g>
<!-- LookupUserJob -->
<g id="node3" class="node">
<title>LookupUserJob</title>
<polygon fill="none" stroke="black" points="451,-821.25 343,-821.25 343,-785.25 451,-785.25 451,-821.25"/>
<text text-anchor="middle" x="397" y="-807.05" font-family="Times,serif" font-size="14.00">Lookup</text>
<text text-anchor="middle" x="397" y="-792.05" font-family="Times,serif" font-size="14.00">user job</text>
</g>
<!-- CalcDigest&#45;&gt;LookupUserJob -->
<g id="edge2" class="edge">
<title>CalcDigest&#45;&gt;LookupUserJob</title>
<path fill="none" stroke="darkblue" d="M271.01,-803C271.01,-803 332.72,-803 332.72,-803"/>
<polygon fill="darkblue" stroke="darkblue" points="332.72,-806.5 342.72,-803 332.72,-799.5 332.72,-806.5"/>
</g>
<!-- UserJobFound -->
<g id="node4" class="node">
<title>UserJobFound</title>
<polygon fill="none" stroke="black" points="589,-833.25 523,-803.25 589,-773.25 655,-803.25 589,-833.25"/>
<text text-anchor="middle" x="589" y="-807.05" font-family="Times,serif" font-size="14.00">Found</text>
<text text-anchor="middle" x="589" y="-792.05" font-family="Times,serif" font-size="14.00">user job?</text>
</g>
<!-- LookupUserJob&#45;&gt;UserJobFound -->
<g id="edge3" class="edge">
<title>LookupUserJob&#45;&gt;UserJobFound</title>
<path fill="none" stroke="darkblue" d="M451.25,-803C451.25,-803 513.29,-803 513.29,-803"/>
<polygon fill="darkblue" stroke="darkblue" points="513.29,-806.5 523.29,-803 513.29,-799.5 513.29,-806.5"/>
</g>
<!-- DB -->
<g id="node18" class="node">
<title>DB</title>
<path fill="none" stroke="purple" d="M468,-609.98C468,-611.78 443.8,-613.25 414,-613.25 384.2,-613.25 360,-611.78 360,-609.98 360,-609.98 360,-580.52 360,-580.52 360,-578.72 384.2,-577.25 414,-577.25 443.8,-577.25 468,-578.72 468,-580.52 468,-580.52 468,-609.98 468,-609.98"/>
<path fill="none" stroke="purple" d="M468,-609.98C468,-608.17 443.8,-606.7 414,-606.7 384.2,-606.7 360,-608.17 360,-609.98"/>
<text text-anchor="middle" x="414" y="-591.55" font-family="Times,serif" font-size="14.00">MBlast DB</text>
</g>
<!-- LookupUserJob&#45;&gt;DB -->
<g id="edge4" class="edge">
<title>LookupUserJob&#45;&gt;DB</title>
<path fill="none" stroke="#444444" stroke-dasharray="1,5" d="M420.67,-775.16C420.67,-775.16 420.67,-613.45 420.67,-613.45"/>
<polygon fill="#444444" stroke="#444444" points="417.17,-775.16 420.67,-785.16 424.17,-775.16 417.17,-775.16"/>
</g>
<!-- LookupJob -->
<g id="node5" class="node">
<title>LookupJob</title>
<polygon fill="none" stroke="black" points="614,-711.25 506,-711.25 506,-675.25 614,-675.25 614,-711.25"/>
<text text-anchor="middle" x="560" y="-689.55" font-family="Times,serif" font-size="14.00">Lookup job</text>
</g>
<!-- UserJobFound&#45;&gt;LookupJob -->
<g id="edge6" class="edge">
<title>UserJobFound&#45;&gt;LookupJob</title>
<path fill="none" stroke="darkred" d="M568.5,-782.56C568.5,-782.56 568.5,-721.3 568.5,-721.3"/>
<polygon fill="darkred" stroke="darkred" points="572,-721.3 568.5,-711.3 565,-721.3 572,-721.3"/>
<text text-anchor="middle" x="558" y="-771.36" font-family="Times,serif" font-size="14.00">No</text>
</g>
<!-- RefreshJobStatus -->
<g id="node10" class="node">
<title>RefreshJobStatus</title>
<polygon fill="none" stroke="black" points="360,-490.75 360,-526.75 468,-526.75 468,-490.75 360,-490.75"/>
<text text-anchor="middle" x="365" y="-505.05" font-family="Times,serif" font-size="14.00"> </text>
<polyline fill="none" stroke="black" points="370,-490.75 370,-526.75 "/>
<text text-anchor="middle" x="413.5" y="-512.55" font-family="Times,serif" font-size="14.00">Refresh job</text>
<text text-anchor="middle" x="413.5" y="-497.55" font-family="Times,serif" font-size="14.00">status</text>
<polyline fill="none" stroke="black" points="457,-490.75 457,-526.75 "/>
<text text-anchor="middle" x="462.5" y="-505.05" font-family="Times,serif" font-size="14.00"> </text>
</g>
<!-- UserJobFound&#45;&gt;RefreshJobStatus -->
<g id="edge5" class="edge">
<title>UserJobFound&#45;&gt;RefreshJobStatus</title>
<path fill="none" stroke="darkgreen" d="M618,-786.02C618,-723.75 618,-514 618,-514 618,-514 478.13,-514 478.13,-514"/>
<polygon fill="darkgreen" stroke="darkgreen" points="478.13,-510.5 468.13,-514 478.13,-517.5 478.13,-510.5"/>
<text text-anchor="middle" x="605.5" y="-774.82" font-family="Times,serif" font-size="14.00">Yes</text>
</g>
<!-- LookupJob&#45;&gt;DB -->
<g id="edge8" class="edge">
<title>LookupJob&#45;&gt;DB</title>
<path fill="none" stroke="#444444" stroke-dasharray="1,5" d="M495.93,-687C495.93,-687 459.5,-687 459.5,-687 459.5,-687 459.5,-639.09 459.5,-612.51"/>
<polygon fill="#444444" stroke="#444444" points="495.93,-690.5 505.93,-687 495.93,-683.5 495.93,-690.5"/>
</g>
<!-- JobFound -->
<g id="node6" class="node">
<title>JobFound</title>
<polygon fill="none" stroke="black" points="234,-723.25 180,-693.25 234,-663.25 288,-693.25 234,-723.25"/>
<text text-anchor="middle" x="234" y="-697.05" font-family="Times,serif" font-size="14.00">Found</text>
<text text-anchor="middle" x="234" y="-682.05" font-family="Times,serif" font-size="14.00">job?</text>
</g>
<!-- JobFound&#45;&gt;LookupJob -->
<g id="edge7" class="edge">
<title>JobFound&#45;&gt;LookupJob</title>
<path fill="none" stroke="darkblue" d="M287.97,-699C287.97,-699 505.9,-699 505.9,-699"/>
<polygon fill="darkblue" stroke="darkblue" points="287.97,-695.5 277.97,-699 287.97,-702.5 287.97,-695.5"/>
</g>
<!-- LinkUserToJob -->
<g id="node13" class="node">
<title>LinkUserToJob</title>
<polygon fill="none" stroke="black" points="288,-613.25 180,-613.25 180,-577.25 288,-577.25 288,-613.25"/>
<text text-anchor="middle" x="234" y="-599.05" font-family="Times,serif" font-size="14.00">Link user</text>
<text text-anchor="middle" x="234" y="-584.05" font-family="Times,serif" font-size="14.00">to job</text>
</g>
<!-- JobFound&#45;&gt;LinkUserToJob -->
<g id="edge9" class="edge">
<title>JobFound&#45;&gt;LinkUserToJob</title>
<path fill="none" stroke="darkgreen" d="M234,-663.05C234,-663.05 234,-623.53 234,-623.53"/>
<polygon fill="darkgreen" stroke="darkgreen" points="237.5,-623.53 234,-613.53 230.5,-623.53 237.5,-623.53"/>
<text text-anchor="middle" x="221.5" y="-651.85" font-family="Times,serif" font-size="14.00">Yes</text>
</g>
<!-- CreateWorkspace -->
<g id="node7" class="node">
<title>CreateWorkspace</title>
<polygon fill="none" stroke="black" points="108,-526.75 0,-526.75 0,-490.75 108,-490.75 108,-526.75"/>
<text text-anchor="middle" x="54" y="-512.55" font-family="Times,serif" font-size="14.00">Create job</text>
<text text-anchor="middle" x="54" y="-497.55" font-family="Times,serif" font-size="14.00">workspace</text>
</g>
<!-- CreateQueryFile -->
<g id="node8" class="node">
<title>CreateQueryFile</title>
<polygon fill="none" stroke="black" points="125,-413.25 17,-413.25 17,-377.25 125,-377.25 125,-413.25"/>
<text text-anchor="middle" x="71" y="-399.05" font-family="Times,serif" font-size="14.00">Create</text>
<text text-anchor="middle" x="71" y="-384.05" font-family="Times,serif" font-size="14.00">query file</text>
</g>
<!-- CreateWorkspace&#45;&gt;CreateQueryFile -->
<g id="edge24" class="edge">
<title>CreateWorkspace&#45;&gt;CreateQueryFile</title>
<path fill="none" stroke="darkblue" d="M62.5,-490.51C62.5,-490.51 62.5,-423.44 62.5,-423.44"/>
<polygon fill="darkblue" stroke="darkblue" points="66,-423.44 62.5,-413.44 59,-423.44 66,-423.44"/>
</g>
<!-- FS -->
<g id="node19" class="node">
<title>FS</title>
<path fill="none" stroke="purple" d="M276,-210.6C276,-212.68 251.8,-214.38 222,-214.38 192.2,-214.38 168,-212.68 168,-210.6 168,-210.6 168,-176.65 168,-176.65 168,-174.57 192.2,-172.87 222,-172.87 251.8,-172.87 276,-174.57 276,-176.65 276,-176.65 276,-210.6 276,-210.6"/>
<path fill="none" stroke="purple" d="M276,-210.6C276,-208.52 251.8,-206.83 222,-206.83 192.2,-206.83 168,-208.52 168,-210.6"/>
<text text-anchor="middle" x="222" y="-197.43" font-family="Times,serif" font-size="14.00">MBlast</text>
<text text-anchor="middle" x="222" y="-182.43" font-family="Times,serif" font-size="14.00">workspaces</text>
</g>
<!-- CreateWorkspace&#45;&gt;FS -->
<g id="edge25" class="edge">
<title>CreateWorkspace&#45;&gt;FS</title>
<path fill="none" stroke="#444444" stroke-dasharray="1,5" d="M8.5,-490.47C8.5,-422.2 8.5,-186 8.5,-186 8.5,-186 157.85,-186 157.85,-186"/>
<polygon fill="#444444" stroke="#444444" points="157.85,-189.5 167.85,-186 157.85,-182.5 157.85,-189.5"/>
</g>
<!-- SubmitJobToQueue -->
<g id="node14" class="node">
<title>SubmitJobToQueue</title>
<polygon fill="none" stroke="black" points="280,-300.25 172,-300.25 172,-264.25 280,-264.25 280,-300.25"/>
<text text-anchor="middle" x="226" y="-286.05" font-family="Times,serif" font-size="14.00">Submit job</text>
<text text-anchor="middle" x="226" y="-271.05" font-family="Times,serif" font-size="14.00">to queue</text>
</g>
<!-- CreateQueryFile&#45;&gt;SubmitJobToQueue -->
<g id="edge26" class="edge">
<title>CreateQueryFile&#45;&gt;SubmitJobToQueue</title>
<path fill="none" stroke="darkblue" d="M125.04,-395C150.77,-395 176,-395 176,-395 176,-395 176,-310.37 176,-310.37"/>
<polygon fill="darkblue" stroke="darkblue" points="179.5,-310.37 176,-300.37 172.5,-310.37 179.5,-310.37"/>
</g>
<!-- CreateQueryFile&#45;&gt;FS -->
<g id="edge27" class="edge">
<title>CreateQueryFile&#45;&gt;FS</title>
<path fill="none" stroke="#444444" stroke-dasharray="1,5" d="M71,-377.23C71,-328.9 71,-200 71,-200 71,-200 157.91,-200 157.91,-200"/>
<polygon fill="#444444" stroke="#444444" points="157.91,-203.5 167.91,-200 157.91,-196.5 157.91,-203.5"/>
</g>
<!-- InsertJobInDB -->
<g id="node9" class="node">
<title>InsertJobInDB</title>
<polygon fill="none" stroke="black" points="108,-711.25 0,-711.25 0,-675.25 108,-675.25 108,-711.25"/>
<text text-anchor="middle" x="54" y="-697.05" font-family="Times,serif" font-size="14.00">Insert job</text>
<text text-anchor="middle" x="54" y="-682.05" font-family="Times,serif" font-size="14.00">into DB</text>
</g>
<!-- InsertJobInDB&#45;&gt;JobFound -->
<g id="edge10" class="edge">
<title>InsertJobInDB&#45;&gt;JobFound</title>
<path fill="none" stroke="darkred" d="M118.01,-693C118.01,-693 180.34,-693 180.34,-693"/>
<polygon fill="darkred" stroke="darkred" points="118.01,-689.5 108.01,-693 118.01,-696.5 118.01,-689.5"/>
<text text-anchor="middle" x="169.84" y="-696.8" font-family="Times,serif" font-size="14.00">No</text>
</g>
<!-- InsertJobInDB&#45;&gt;CreateWorkspace -->
<g id="edge11" class="edge">
<title>InsertJobInDB&#45;&gt;CreateWorkspace</title>
<path fill="none" stroke="darkblue" d="M36,-675.22C36,-675.22 36,-536.85 36,-536.85"/>
<polygon fill="darkblue" stroke="darkblue" points="39.5,-536.85 36,-526.85 32.5,-536.85 39.5,-536.85"/>
</g>
<!-- InsertJobInDB&#45;&gt;DB -->
<g id="edge12" class="edge">
<title>InsertJobInDB&#45;&gt;DB</title>
<path fill="none" stroke="#444444" stroke-dasharray="1,5" d="M72,-675.16C72,-659.05 72,-638 72,-638 72,-638 390.33,-638 390.33,-638 390.33,-638 390.33,-623.63 390.33,-623.63"/>
<polygon fill="#444444" stroke="#444444" points="393.83,-623.63 390.33,-613.63 386.83,-623.63 393.83,-623.63"/>
</g>
<!-- JobStatusFailed -->
<g id="node11" class="node">
<title>JobStatusFailed</title>
<polygon fill="none" stroke="black" points="560,-440.25 498,-395.25 560,-350.25 622,-395.25 560,-440.25"/>
<text text-anchor="middle" x="560" y="-406.55" font-family="Times,serif" font-size="14.00">Job</text>
<text text-anchor="middle" x="560" y="-391.55" font-family="Times,serif" font-size="14.00">status is</text>
<text text-anchor="middle" x="560" y="-376.55" font-family="Times,serif" font-size="14.00">expired?</text>
</g>
<!-- RefreshJobStatus&#45;&gt;JobStatusFailed -->
<g id="edge16" class="edge">
<title>RefreshJobStatus&#45;&gt;JobStatusFailed</title>
<path fill="none" stroke="darkblue" d="M468.23,-502C486.34,-502 502,-502 502,-502 502,-502 502,-408.33 502,-408.33"/>
<polygon fill="darkblue" stroke="darkblue" points="505.5,-408.33 502,-398.33 498.5,-408.33 505.5,-408.33"/>
</g>
<!-- RefreshJobStatus&#45;&gt;DB -->
<g id="edge17" class="edge">
<title>RefreshJobStatus&#45;&gt;DB</title>
<path fill="none" stroke="#444444" stroke-dasharray="1,5" d="M414,-537.09C414,-537.09 414,-567.23 414,-567.23"/>
<polygon fill="#444444" stroke="#444444" points="410.5,-567.23 414,-577.23 417.5,-567.23 410.5,-567.23"/>
<polygon fill="#444444" stroke="#444444" points="417.5,-537.09 414,-527.09 410.5,-537.09 417.5,-537.09"/>
</g>
<!-- RefreshJobStatus&#45;&gt;FS -->
<g id="edge19" class="edge">
<title>RefreshJobStatus&#45;&gt;FS</title>
<path fill="none" stroke="#444444" stroke-dasharray="1,5" d="M414,-480.41C414,-480.41 414,-193 414,-193 414,-193 333.03,-193 276.25,-193"/>
<polygon fill="#444444" stroke="#444444" points="410.5,-480.41 414,-490.41 417.5,-480.41 410.5,-480.41"/>
</g>
<!-- UpdateJobLastUsed -->
<g id="node12" class="node">
<title>UpdateJobLastUsed</title>
<polygon fill="none" stroke="black" points="610,-300.25 502,-300.25 502,-264.25 610,-264.25 610,-300.25"/>
<text text-anchor="middle" x="556" y="-286.05" font-family="Times,serif" font-size="14.00">Update job</text>
<text text-anchor="middle" x="556" y="-271.05" font-family="Times,serif" font-size="14.00">last used</text>
</g>
<!-- JobStatusFailed&#45;&gt;UpdateJobLastUsed -->
<g id="edge20" class="edge">
<title>JobStatusFailed&#45;&gt;UpdateJobLastUsed</title>
<path fill="none" stroke="darkred" d="M556,-352.85C556,-352.85 556,-310.32 556,-310.32"/>
<polygon fill="darkred" stroke="darkred" points="559.5,-310.32 556,-300.32 552.5,-310.32 559.5,-310.32"/>
<text text-anchor="middle" x="545.5" y="-341.65" font-family="Times,serif" font-size="14.00">No</text>
</g>
<!-- GetSubJobList -->
<g id="node15" class="node">
<title>GetSubJobList</title>
<polygon fill="none" stroke="black" points="610,-211.62 502,-211.62 502,-175.62 610,-175.62 610,-211.62"/>
<text text-anchor="middle" x="556" y="-197.43" font-family="Times,serif" font-size="14.00">Get sub</text>
<text text-anchor="middle" x="556" y="-182.43" font-family="Times,serif" font-size="14.00">job list</text>
</g>
<!-- UpdateJobLastUsed&#45;&gt;GetSubJobList -->
<g id="edge22" class="edge">
<title>UpdateJobLastUsed&#45;&gt;GetSubJobList</title>
<path fill="none" stroke="darkblue" d="M556,-263.89C556,-263.89 556,-221.66 556,-221.66"/>
<polygon fill="darkblue" stroke="darkblue" points="559.5,-221.66 556,-211.66 552.5,-221.66 559.5,-221.66"/>
</g>
<!-- UpdateJobLastUsed&#45;&gt;FS -->
<g id="edge23" class="edge">
<title>UpdateJobLastUsed&#45;&gt;FS</title>
<path fill="none" stroke="#444444" stroke-dasharray="1,5" d="M501.73,-288C441.15,-288 351.5,-288 351.5,-288 351.5,-288 351.5,-202 351.5,-202 351.5,-202 286.17,-202 286.17,-202"/>
<polygon fill="#444444" stroke="#444444" points="286.17,-198.5 276.17,-202 286.17,-205.5 286.17,-198.5"/>
</g>
<!-- LinkUserToJob&#45;&gt;RefreshJobStatus -->
<g id="edge13" class="edge">
<title>LinkUserToJob&#45;&gt;RefreshJobStatus</title>
<path fill="none" stroke="darkblue" d="M288.05,-601C307.47,-601 324.67,-601 324.67,-601 324.67,-601 324.67,-514 324.67,-514 324.67,-514 349.97,-514 349.97,-514"/>
<polygon fill="darkblue" stroke="darkblue" points="349.97,-517.5 359.97,-514 349.97,-510.5 349.97,-517.5"/>
</g>
<!-- LinkUserToJob&#45;&gt;DB -->
<g id="edge14" class="edge">
<title>LinkUserToJob&#45;&gt;DB</title>
<path fill="none" stroke="#444444" stroke-dasharray="1,5" d="M288.01,-589C288.01,-589 349.72,-589 349.72,-589"/>
<polygon fill="#444444" stroke="#444444" points="349.72,-592.5 359.72,-589 349.72,-585.5 349.72,-592.5"/>
</g>
<!-- SubmitJobToQueue&#45;&gt;JobStatusFailed -->
<g id="edge21" class="edge">
<title>SubmitJobToQueue&#45;&gt;JobStatusFailed</title>
<path fill="none" stroke="darkgreen" d="M246.67,-310.57C246.67,-310.57 246.67,-363 246.67,-363 246.67,-363 475.97,-363 542.26,-363"/>
<polygon fill="darkgreen" stroke="darkgreen" points="250.17,-310.57 246.67,-300.57 243.17,-310.57 250.17,-310.57"/>
<text text-anchor="middle" x="529.76" y="-366.8" font-family="Times,serif" font-size="14.00">Yes</text>
</g>
<!-- SubmitJobToQueue&#45;&gt;GetSubJobList -->
<g id="edge28" class="edge">
<title>SubmitJobToQueue&#45;&gt;GetSubJobList</title>
<path fill="none" stroke="darkblue" d="M280.03,-276C294.56,-276 306.33,-276 306.33,-276 306.33,-276 306.33,-184 306.33,-184 306.33,-184 491.83,-184 491.83,-184"/>
<polygon fill="darkblue" stroke="darkblue" points="491.83,-187.5 501.83,-184 491.83,-180.5 491.83,-187.5"/>
</g>
<!-- Queue -->
<g id="node20" class="node">
<title>Queue</title>
<polygon fill="none" stroke="purple" points="288,-526.75 180,-526.75 180,-522.75 176,-522.75 176,-518.75 180,-518.75 180,-498.75 176,-498.75 176,-494.75 180,-494.75 180,-490.75 288,-490.75 288,-526.75"/>
<polyline fill="none" stroke="purple" points="180,-522.75 184,-522.75 184,-518.75 180,-518.75 "/>
<polyline fill="none" stroke="purple" points="180,-498.75 184,-498.75 184,-494.75 180,-494.75 "/>
<text text-anchor="middle" x="234" y="-505.05" font-family="Times,serif" font-size="14.00">Job queue</text>
</g>
<!-- SubmitJobToQueue&#45;&gt;Queue -->
<g id="edge29" class="edge">
<title>SubmitJobToQueue&#45;&gt;Queue</title>
<path fill="none" stroke="#444444" stroke-dasharray="1,5" d="M213.33,-300.4C213.33,-300.4 213.33,-480.51 213.33,-480.51"/>
<polygon fill="#444444" stroke="#444444" points="209.83,-480.51 213.33,-490.51 216.83,-480.51 209.83,-480.51"/>
</g>
<!-- HandleSubJobList -->
<g id="node16" class="node">
<title>HandleSubJobList</title>
<polygon fill="none" stroke="black" points="502,-86.5 502,-122.5 610,-122.5 610,-86.5 502,-86.5"/>
<text text-anchor="middle" x="510.5" y="-100.8" font-family="Times,serif" font-size="14.00"> </text>
<polyline fill="none" stroke="black" points="519,-86.5 519,-122.5 "/>
<text text-anchor="middle" x="555.5" y="-108.3" font-family="Times,serif" font-size="14.00">Process</text>
<text text-anchor="middle" x="555.5" y="-93.3" font-family="Times,serif" font-size="14.00">sub&#45;jobs</text>
<polyline fill="none" stroke="black" points="592,-86.5 592,-122.5 "/>
<text text-anchor="middle" x="601" y="-100.8" font-family="Times,serif" font-size="14.00"> </text>
</g>
<!-- GetSubJobList&#45;&gt;HandleSubJobList -->
<g id="edge15" class="edge">
<title>GetSubJobList&#45;&gt;HandleSubJobList</title>
<path fill="none" stroke="darkblue" d="M556,-175.59C556,-175.59 556,-132.51 556,-132.51"/>
<polygon fill="darkblue" stroke="darkblue" points="559.5,-132.51 556,-122.51 552.5,-132.51 559.5,-132.51"/>
</g>
<!-- 200 -->
<g id="node17" class="node">
<title>200</title>
<ellipse fill="none" stroke="black" cx="556" cy="-18" rx="54" ry="18"/>
<text text-anchor="middle" x="556" y="-14.3" font-family="Times,serif" font-size="14.00">End</text>
</g>
<!-- HandleSubJobList&#45;&gt;200 -->
<g id="edge30" class="edge">
<title>HandleSubJobList&#45;&gt;200</title>
<path fill="none" stroke="darkblue" d="M556,-86.16C556,-86.16 556,-46.02 556,-46.02"/>
<polygon fill="darkblue" stroke="darkblue" points="559.5,-46.02 556,-36.02 552.5,-46.02 559.5,-46.02"/>
</g>
<!-- Queue&#45;&gt;RefreshJobStatus -->
<g id="edge18" class="edge">
<title>Queue&#45;&gt;RefreshJobStatus</title>
<path fill="none" stroke="#444444" stroke-dasharray="1,5" d="M288.01,-502C288.01,-502 349.72,-502 349.72,-502"/>
<polygon fill="#444444" stroke="#444444" points="349.72,-505.5 359.72,-502 349.72,-498.5 349.72,-505.5"/>
</g>
</g>
</svg>
