<?xml version="1.0" encoding="UTF-8" standalone="no"?>
<!DOCTYPE svg PUBLIC "-//W3C//DTD SVG 1.1//EN"
 "http://www.w3.org/Graphics/SVG/1.1/DTD/svg11.dtd">
<!-- Generated by graphviz version 2.43.0 (0)
 -->
<!-- Title: %3 Pages: 1 -->
<svg width="663pt" height="957pt"
 viewBox="0.00 0.00 663.00 956.68" xmlns="http://www.w3.org/2000/svg" xmlns:xlink="http://www.w3.org/1999/xlink">
<g id="graph0" class="graph" transform="scale(1 1) rotate(0) translate(4 952.68)">
<title>%3</title>
<polygon fill="white" stroke="transparent" points="-4,4 -4,-952.68 659,-952.68 659,4 -4,4"/>
<text text-anchor="middle" x="327.5" y="-933.48" font-family="Times,serif" font-size="14.00">Blast Job Submission</text>
<!-- Start -->
<g id="node1" class="node">
<title>Start</title>
<ellipse fill="none" stroke="black" cx="217" cy="-907.68" rx="54" ry="18"/>
<text text-anchor="middle" x="217" y="-903.98" font-family="Times,serif" font-size="14.00">Start</text>
</g>
<!-- CalcDigest -->
<g id="node2" class="node">
<title>CalcDigest</title>
<polygon fill="none" stroke="black" points="271,-827.68 163,-827.68 163,-791.68 271,-791.68 271,-827.68"/>
<text text-anchor="middle" x="217" y="-813.48" font-family="Times,serif" font-size="14.00">Calculate</text>
<text text-anchor="middle" x="217" y="-798.48" font-family="Times,serif" font-size="14.00">job digest</text>
</g>
<!-- Start&#45;&gt;CalcDigest -->
<g id="edge1" class="edge">
<title>Start&#45;&gt;CalcDigest</title>
<path fill="none" stroke="darkblue" d="M217,-889.24C217,-889.24 217,-837.7 217,-837.7"/>
<polygon fill="darkblue" stroke="darkblue" points="220.5,-837.7 217,-827.7 213.5,-837.7 220.5,-837.7"/>
</g>
<!-- LookupUserJob -->
<g id="node3" class="node">
<title>LookupUserJob</title>
<polygon fill="none" stroke="black" points="451,-827.68 343,-827.68 343,-791.68 451,-791.68 451,-827.68"/>
<text text-anchor="middle" x="397" y="-813.48" font-family="Times,serif" font-size="14.00">Lookup</text>
<text text-anchor="middle" x="397" y="-798.48" font-family="Times,serif" font-size="14.00">user job</text>
</g>
<!-- CalcDigest&#45;&gt;LookupUserJob -->
<g id="edge2" class="edge">
<title>CalcDigest&#45;&gt;LookupUserJob</title>
<path fill="none" stroke="darkblue" d="M271.01,-809C271.01,-809 332.72,-809 332.72,-809"/>
<polygon fill="darkblue" stroke="darkblue" points="332.72,-812.5 342.72,-809 332.72,-805.5 332.72,-812.5"/>
</g>
<!-- UserJobFound -->
<g id="node4" class="node">
<title>UserJobFound</title>
<polygon fill="none" stroke="black" points="589,-839.68 523,-809.68 589,-779.68 655,-809.68 589,-839.68"/>
<text text-anchor="middle" x="589" y="-813.48" font-family="Times,serif" font-size="14.00">Found</text>
<text text-anchor="middle" x="589" y="-798.48" font-family="Times,serif" font-size="14.00">user job?</text>
</g>
<!-- LookupUserJob&#45;&gt;UserJobFound -->
<g id="edge3" class="edge">
<title>LookupUserJob&#45;&gt;UserJobFound</title>
<path fill="none" stroke="darkblue" d="M451.25,-809C451.25,-809 514.33,-809 514.33,-809"/>
<polygon fill="darkblue" stroke="darkblue" points="514.33,-812.5 524.33,-809 514.33,-805.5 514.33,-812.5"/>
</g>
<!-- DB -->
<g id="node18" class="node">
<title>DB</title>
<path fill="none" stroke="purple" d="M468,-616.4C468,-618.21 443.8,-619.68 414,-619.68 384.2,-619.68 360,-618.21 360,-616.4 360,-616.4 360,-586.95 360,-586.95 360,-585.14 384.2,-583.68 414,-583.68 443.8,-583.68 468,-585.14 468,-586.95 468,-586.95 468,-616.4 468,-616.4"/>
<path fill="none" stroke="purple" d="M468,-616.4C468,-614.6 443.8,-613.13 414,-613.13 384.2,-613.13 360,-614.6 360,-616.4"/>
<text text-anchor="middle" x="414" y="-597.98" font-family="Times,serif" font-size="14.00">MBlast DB</text>
</g>
<!-- LookupUserJob&#45;&gt;DB -->
<g id="edge4" class="edge">
<title>LookupUserJob&#45;&gt;DB</title>
<path fill="none" stroke="#444444" stroke-dasharray="1,5" d="M420.67,-781.58C420.67,-781.58 420.67,-619.88 420.67,-619.88"/>
<polygon fill="#444444" stroke="#444444" points="417.17,-781.58 420.67,-791.58 424.17,-781.58 417.17,-781.58"/>
</g>
<!-- LookupJob -->
<g id="node5" class="node">
<title>LookupJob</title>
<polygon fill="none" stroke="black" points="614,-717.68 506,-717.68 506,-681.68 614,-681.68 614,-717.68"/>
<text text-anchor="middle" x="560" y="-695.98" font-family="Times,serif" font-size="14.00">Lookup job</text>
</g>
<!-- UserJobFound&#45;&gt;LookupJob -->
<g id="edge6" class="edge">
<title>UserJobFound&#45;&gt;LookupJob</title>
<path fill="none" stroke="darkred" d="M568.5,-788.99C568.5,-788.99 568.5,-727.72 568.5,-727.72"/>
<polygon fill="darkred" stroke="darkred" points="572,-727.72 568.5,-717.72 565,-727.72 572,-727.72"/>
<text text-anchor="middle" x="558" y="-777.79" font-family="Times,serif" font-size="14.00">No</text>
</g>
<!-- RefreshJobStatus -->
<g id="node10" class="node">
<title>RefreshJobStatus</title>
<polygon fill="none" stroke="black" points="360,-497.18 360,-533.18 468,-533.18 468,-497.18 360,-497.18"/>
<text text-anchor="middle" x="365" y="-511.48" font-family="Times,serif" font-size="14.00"> </text>
<polyline fill="none" stroke="black" points="370,-497.18 370,-533.18 "/>
<text text-anchor="middle" x="413.5" y="-518.98" font-family="Times,serif" font-size="14.00">Refresh job</text>
<text text-anchor="middle" x="413.5" y="-503.98" font-family="Times,serif" font-size="14.00">status</text>
<polyline fill="none" stroke="black" points="457,-497.18 457,-533.18 "/>
<text text-anchor="middle" x="462.5" y="-511.48" font-family="Times,serif" font-size="14.00"> </text>
</g>
<!-- UserJobFound&#45;&gt;RefreshJobStatus -->
<g id="edge5" class="edge">
<title>UserJobFound&#45;&gt;RefreshJobStatus</title>
<path fill="none" stroke="darkgreen" d="M618,-792.48C618,-730.34 618,-521 618,-521 618,-521 478.13,-521 478.13,-521"/>
<polygon fill="darkgreen" stroke="darkgreen" points="478.13,-517.5 468.13,-521 478.13,-524.5 478.13,-517.5"/>
<text text-anchor="middle" x="605.5" y="-781.28" font-family="Times,serif" font-size="14.00">Yes</text>
</g>
<!-- LookupJob&#45;&gt;DB -->
<g id="edge8" class="edge">
<title>LookupJob&#45;&gt;DB</title>
<path fill="none" stroke="#444444" stroke-dasharray="1,5" d="M495.93,-693C495.93,-693 459.5,-693 459.5,-693 459.5,-693 459.5,-645.31 459.5,-618.85"/>
<polygon fill="#444444" stroke="#444444" points="495.93,-696.5 505.93,-693 495.93,-689.5 495.93,-696.5"/>
</g>
<!-- JobFound -->
<g id="node6" class="node">
<title>JobFound</title>
<polygon fill="none" stroke="black" points="234,-729.68 180,-699.68 234,-669.68 288,-699.68 234,-729.68"/>
<text text-anchor="middle" x="234" y="-703.48" font-family="Times,serif" font-size="14.00">Found</text>
<text text-anchor="middle" x="234" y="-688.48" font-family="Times,serif" font-size="14.00">job?</text>
</g>
<!-- JobFound&#45;&gt;LookupJob -->
<g id="edge7" class="edge">
<title>JobFound&#45;&gt;LookupJob</title>
<path fill="none" stroke="darkblue" d="M288.65,-705C288.65,-705 505.87,-705 505.87,-705"/>
<polygon fill="darkblue" stroke="darkblue" points="288.65,-701.5 278.65,-705 288.65,-708.5 288.65,-701.5"/>
</g>
<!-- LinkUserToJob -->
<g id="node13" class="node">
<title>LinkUserToJob</title>
<polygon fill="none" stroke="black" points="288,-619.68 180,-619.68 180,-583.68 288,-583.68 288,-619.68"/>
<text text-anchor="middle" x="234" y="-605.48" font-family="Times,serif" font-size="14.00">Link user</text>
<text text-anchor="middle" x="234" y="-590.48" font-family="Times,serif" font-size="14.00">to job</text>
</g>
<!-- JobFound&#45;&gt;LinkUserToJob -->
<g id="edge9" class="edge">
<title>JobFound&#45;&gt;LinkUserToJob</title>
<path fill="none" stroke="darkgreen" d="M234,-669.47C234,-669.47 234,-629.95 234,-629.95"/>
<polygon fill="darkgreen" stroke="darkgreen" points="237.5,-629.95 234,-619.95 230.5,-629.95 237.5,-629.95"/>
<text text-anchor="middle" x="221.5" y="-658.27" font-family="Times,serif" font-size="14.00">Yes</text>
</g>
<!-- CreateWorkspace -->
<g id="node7" class="node">
<title>CreateWorkspace</title>
<polygon fill="none" stroke="black" points="108,-533.18 0,-533.18 0,-497.18 108,-497.18 108,-533.18"/>
<text text-anchor="middle" x="54" y="-518.98" font-family="Times,serif" font-size="14.00">Create job</text>
<text text-anchor="middle" x="54" y="-503.98" font-family="Times,serif" font-size="14.00">workspace</text>
</g>
<!-- CreateQueryFile -->
<g id="node8" class="node">
<title>CreateQueryFile</title>
<polygon fill="none" stroke="black" points="125,-419.68 17,-419.68 17,-383.68 125,-383.68 125,-419.68"/>
<text text-anchor="middle" x="71" y="-405.48" font-family="Times,serif" font-size="14.00">Create</text>
<text text-anchor="middle" x="71" y="-390.48" font-family="Times,serif" font-size="14.00">query file</text>
</g>
<!-- CreateWorkspace&#45;&gt;CreateQueryFile -->
<g id="edge24" class="edge">
<title>CreateWorkspace&#45;&gt;CreateQueryFile</title>
<path fill="none" stroke="darkblue" d="M62.5,-496.94C62.5,-496.94 62.5,-429.87 62.5,-429.87"/>
<polygon fill="darkblue" stroke="darkblue" points="66,-429.87 62.5,-419.87 59,-429.87 66,-429.87"/>
</g>
<!-- FS -->
<g id="node19" class="node">
<title>FS</title>
<path fill="none" stroke="purple" d="M276,-217.03C276,-219.11 251.8,-220.8 222,-220.8 192.2,-220.8 168,-219.11 168,-217.03 168,-217.03 168,-183.07 168,-183.07 168,-180.99 192.2,-179.3 222,-179.3 251.8,-179.3 276,-180.99 276,-183.07 276,-183.07 276,-217.03 276,-217.03"/>
<path fill="none" stroke="purple" d="M276,-217.03C276,-214.95 251.8,-213.26 222,-213.26 192.2,-213.26 168,-214.95 168,-217.03"/>
<text text-anchor="middle" x="222" y="-203.85" font-family="Times,serif" font-size="14.00">MBlast</text>
<text text-anchor="middle" x="222" y="-188.85" font-family="Times,serif" font-size="14.00">workspaces</text>
</g>
<!-- CreateWorkspace&#45;&gt;FS -->
<g id="edge25" class="edge">
<title>CreateWorkspace&#45;&gt;FS</title>
<path fill="none" stroke="#444444" stroke-dasharray="1,5" d="M8.5,-496.93C8.5,-428.78 8.5,-193 8.5,-193 8.5,-193 157.85,-193 157.85,-193"/>
<polygon fill="#444444" stroke="#444444" points="157.85,-196.5 167.85,-193 157.85,-189.5 157.85,-196.5"/>
</g>
<!-- SubmitJobToQueue -->
<g id="node14" class="node">
<title>SubmitJobToQueue</title>
<polygon fill="none" stroke="black" points="280,-306.68 172,-306.68 172,-270.68 280,-270.68 280,-306.68"/>
<text text-anchor="middle" x="226" y="-292.48" font-family="Times,serif" font-size="14.00">Submit job</text>
<text text-anchor="middle" x="226" y="-277.48" font-family="Times,serif" font-size="14.00">to queue</text>
</g>
<!-- CreateQueryFile&#45;&gt;SubmitJobToQueue -->
<g id="edge26" class="edge">
<title>CreateQueryFile&#45;&gt;SubmitJobToQueue</title>
<path fill="none" stroke="darkblue" d="M125.04,-401C150.77,-401 176,-401 176,-401 176,-401 176,-316.72 176,-316.72"/>
<polygon fill="darkblue" stroke="darkblue" points="179.5,-316.72 176,-306.72 172.5,-316.72 179.5,-316.72"/>
</g>
<!-- CreateQueryFile&#45;&gt;FS -->
<g id="edge27" class="edge">
<title>CreateQueryFile&#45;&gt;FS</title>
<path fill="none" stroke="#444444" stroke-dasharray="1,5" d="M71,-383.62C71,-335.18 71,-206 71,-206 71,-206 157.91,-206 157.91,-206"/>
<polygon fill="#444444" stroke="#444444" points="157.91,-209.5 167.91,-206 157.91,-202.5 157.91,-209.5"/>
</g>
<!-- InsertJobInDB -->
<g id="node9" class="node">
<title>InsertJobInDB</title>
<polygon fill="none" stroke="black" points="108,-717.68 0,-717.68 0,-681.68 108,-681.68 108,-717.68"/>
<text text-anchor="middle" x="54" y="-703.48" font-family="Times,serif" font-size="14.00">Insert job</text>
<text text-anchor="middle" x="54" y="-688.48" font-family="Times,serif" font-size="14.00">into DB</text>
</g>
<!-- InsertJobInDB&#45;&gt;JobFound -->
<g id="edge10" class="edge">
<title>InsertJobInDB&#45;&gt;JobFound</title>
<path fill="none" stroke="darkred" d="M118.01,-699C118.01,-699 180.96,-699 180.96,-699"/>
<polygon fill="darkred" stroke="darkred" points="118.01,-695.5 108.01,-699 118.01,-702.5 118.01,-695.5"/>
<text text-anchor="middle" x="170.46" y="-702.8" font-family="Times,serif" font-size="14.00">No</text>
</g>
<!-- InsertJobInDB&#45;&gt;CreateWorkspace -->
<g id="edge11" class="edge">
<title>InsertJobInDB&#45;&gt;CreateWorkspace</title>
<path fill="none" stroke="darkblue" d="M36,-681.65C36,-681.65 36,-543.28 36,-543.28"/>
<polygon fill="darkblue" stroke="darkblue" points="39.5,-543.28 36,-533.28 32.5,-543.28 39.5,-543.28"/>
</g>
<!-- InsertJobInDB&#45;&gt;DB -->
<g id="edge12" class="edge">
<title>InsertJobInDB&#45;&gt;DB</title>
<path fill="none" stroke="#444444" stroke-dasharray="1,5" d="M72,-681.45C72,-665.21 72,-644 72,-644 72,-644 390.33,-644 390.33,-644 390.33,-644 390.33,-629.87 390.33,-629.87"/>
<polygon fill="#444444" stroke="#444444" points="393.83,-629.87 390.33,-619.87 386.83,-629.87 393.83,-629.87"/>
</g>
<!-- JobStatusFailed -->
<g id="node11" class="node">
<title>JobStatusFailed</title>
<polygon fill="none" stroke="black" points="560,-446.68 498,-401.68 560,-356.68 622,-401.68 560,-446.68"/>
<text text-anchor="middle" x="560" y="-412.98" font-family="Times,serif" font-size="14.00">Job</text>
<text text-anchor="middle" x="560" y="-397.98" font-family="Times,serif" font-size="14.00">status is</text>
<text text-anchor="middle" x="560" y="-382.98" font-family="Times,serif" font-size="14.00">expired?</text>
</g>
<!-- RefreshJobStatus&#45;&gt;JobStatusFailed -->
<g id="edge16" class="edge">
<title>RefreshJobStatus&#45;&gt;JobStatusFailed</title>
<path fill="none" stroke="darkblue" d="M468.23,-509C486.34,-509 502,-509 502,-509 502,-509 502,-414.77 502,-414.77"/>
<polygon fill="darkblue" stroke="darkblue" points="505.5,-414.77 502,-404.77 498.5,-414.77 505.5,-414.77"/>
</g>
<!-- RefreshJobStatus&#45;&gt;DB -->
<g id="edge17" class="edge">
<title>RefreshJobStatus&#45;&gt;DB</title>
<path fill="none" stroke="#444444" stroke-dasharray="1,5" d="M414,-543.52C414,-543.52 414,-573.66 414,-573.66"/>
<polygon fill="#444444" stroke="#444444" points="410.5,-573.66 414,-583.66 417.5,-573.66 410.5,-573.66"/>
<polygon fill="#444444" stroke="#444444" points="417.5,-543.52 414,-533.52 410.5,-543.52 417.5,-543.52"/>
</g>
<!-- RefreshJobStatus&#45;&gt;FS -->
<g id="edge19" class="edge">
<title>RefreshJobStatus&#45;&gt;FS</title>
<path fill="none" stroke="#444444" stroke-dasharray="1,5" d="M414,-486.94C414,-486.94 414,-209 414,-209 414,-209 333.03,-209 276.25,-209"/>
<polygon fill="#444444" stroke="#444444" points="410.5,-486.94 414,-496.94 417.5,-486.94 410.5,-486.94"/>
</g>
<!-- UpdateJobLastUsed -->
<g id="node12" class="node">
<title>UpdateJobLastUsed</title>
<polygon fill="none" stroke="black" points="610,-306.68 502,-306.68 502,-270.68 610,-270.68 610,-306.68"/>
<text text-anchor="middle" x="556" y="-292.48" font-family="Times,serif" font-size="14.00">Update job</text>
<text text-anchor="middle" x="556" y="-277.48" font-family="Times,serif" font-size="14.00">last used</text>
</g>
<!-- JobStatusFailed&#45;&gt;UpdateJobLastUsed -->
<g id="edge20" class="edge">
<title>JobStatusFailed&#45;&gt;UpdateJobLastUsed</title>
<path fill="none" stroke="darkred" d="M556,-359.28C556,-359.28 556,-316.74 556,-316.74"/>
<polygon fill="darkred" stroke="darkred" points="559.5,-316.74 556,-306.74 552.5,-316.74 559.5,-316.74"/>
<text text-anchor="middle" x="545.5" y="-348.08" font-family="Times,serif" font-size="14.00">No</text>
</g>
<!-- GetSubJobList -->
<g id="node15" class="node">
<title>GetSubJobList</title>
<polygon fill="none" stroke="black" points="610,-218.05 502,-218.05 502,-182.05 610,-182.05 610,-218.05"/>
<text text-anchor="middle" x="556" y="-203.85" font-family="Times,serif" font-size="14.00">Get sub</text>
<text text-anchor="middle" x="556" y="-188.85" font-family="Times,serif" font-size="14.00">job list</text>
</g>
<!-- UpdateJobLastUsed&#45;&gt;GetSubJobList -->
<g id="edge22" class="edge">
<title>UpdateJobLastUsed&#45;&gt;GetSubJobList</title>
<path fill="none" stroke="darkblue" d="M556,-270.31C556,-270.31 556,-228.09 556,-228.09"/>
<polygon fill="darkblue" stroke="darkblue" points="559.5,-228.09 556,-218.09 552.5,-228.09 559.5,-228.09"/>
</g>
<!-- UpdateJobLastUsed&#45;&gt;FS -->
<g id="edge23" class="edge">
<title>UpdateJobLastUsed&#45;&gt;FS</title>
<path fill="none" stroke="#444444" stroke-dasharray="1,5" d="M501.55,-294C497.24,-294 494.5,-294 494.5,-294 494.5,-294 494.5,-200 494.5,-200 494.5,-200 286.16,-200 286.16,-200"/>
<polygon fill="#444444" stroke="#444444" points="286.16,-196.5 276.16,-200 286.16,-203.5 286.16,-196.5"/>
</g>
<!-- LinkUserToJob&#45;&gt;RefreshJobStatus -->
<g id="edge13" class="edge">
<title>LinkUserToJob&#45;&gt;RefreshJobStatus</title>
<path fill="none" stroke="darkblue" d="M288.05,-607C307.47,-607 324.67,-607 324.67,-607 324.67,-607 324.67,-521 324.67,-521 324.67,-521 349.97,-521 349.97,-521"/>
<polygon fill="darkblue" stroke="darkblue" points="349.97,-524.5 359.97,-521 349.97,-517.5 349.97,-524.5"/>
</g>
<!-- LinkUserToJob&#45;&gt;DB -->
<g id="edge14" class="edge">
<title>LinkUserToJob&#45;&gt;DB</title>
<path fill="none" stroke="#444444" stroke-dasharray="1,5" d="M288.01,-595C288.01,-595 349.72,-595 349.72,-595"/>
<polygon fill="#444444" stroke="#444444" points="349.72,-598.5 359.72,-595 349.72,-591.5 349.72,-598.5"/>
</g>
<!-- SubmitJobToQueue&#45;&gt;JobStatusFailed -->
<g id="edge21" class="edge">
<title>SubmitJobToQueue&#45;&gt;JobStatusFailed</title>
<path fill="none" stroke="darkgreen" d="M246.67,-316.72C246.67,-316.72 246.67,-370 246.67,-370 246.67,-370 473.88,-370 541.34,-370"/>
<polygon fill="darkgreen" stroke="darkgreen" points="250.17,-316.72 246.67,-306.72 243.17,-316.72 250.17,-316.72"/>
<text text-anchor="middle" x="528.84" y="-373.8" font-family="Times,serif" font-size="14.00">Yes</text>
</g>
<!-- SubmitJobToQueue&#45;&gt;GetSubJobList -->
<g id="edge28" class="edge">
<title>SubmitJobToQueue&#45;&gt;GetSubJobList</title>
<path fill="none" stroke="darkblue" d="M280.03,-282C294.56,-282 306.33,-282 306.33,-282 306.33,-282 306.33,-191 306.33,-191 306.33,-191 491.83,-191 491.83,-191"/>
<polygon fill="darkblue" stroke="darkblue" points="491.83,-194.5 501.83,-191 491.83,-187.5 491.83,-194.5"/>
</g>
<!-- Queue -->
<g id="node20" class="node">
<title>Queue</title>
<polygon fill="none" stroke="purple" points="288,-533.18 180,-533.18 180,-529.18 176,-529.18 176,-525.18 180,-525.18 180,-505.18 176,-505.18 176,-501.18 180,-501.18 180,-497.18 288,-497.18 288,-533.18"/>
<polyline fill="none" stroke="purple" points="180,-529.18 184,-529.18 184,-525.18 180,-525.18 "/>
<polyline fill="none" stroke="purple" points="180,-505.18 184,-505.18 184,-501.18 180,-501.18 "/>
<text text-anchor="middle" x="234" y="-511.48" font-family="Times,serif" font-size="14.00">Job queue</text>
</g>
<!-- SubmitJobToQueue&#45;&gt;Queue -->
<g id="edge29" class="edge">
<title>SubmitJobToQueue&#45;&gt;Queue</title>
<path fill="none" stroke="#444444" stroke-dasharray="1,5" d="M213.33,-306.83C213.33,-306.83 213.33,-486.94 213.33,-486.94"/>
<polygon fill="#444444" stroke="#444444" points="209.83,-486.94 213.33,-496.94 216.83,-486.94 209.83,-486.94"/>
</g>
<!-- HandleSubJobList -->
<g id="node16" class="node">
<title>HandleSubJobList</title>
<polygon fill="none" stroke="black" points="491,-92.93 491,-128.93 621,-128.93 621,-92.93 491,-92.93"/>
<text text-anchor="middle" x="493.5" y="-107.23" font-family="Times,serif" font-size="14.00"> </text>
<polyline fill="none" stroke="black" points="496,-92.93 496,-128.93 "/>
<text text-anchor="middle" x="556" y="-107.23" font-family="Times,serif" font-size="14.00">Process sub&#45;jobs</text>
<polyline fill="none" stroke="black" points="616,-92.93 616,-128.93 "/>
<text text-anchor="middle" x="618.5" y="-107.23" font-family="Times,serif" font-size="14.00"> </text>
</g>
<!-- GetSubJobList&#45;&gt;HandleSubJobList -->
<g id="edge15" class="edge">
<title>GetSubJobList&#45;&gt;HandleSubJobList</title>
<path fill="none" stroke="darkblue" d="M556,-182.02C556,-182.02 556,-138.94 556,-138.94"/>
<polygon fill="darkblue" stroke="darkblue" points="559.5,-138.94 556,-128.94 552.5,-138.94 559.5,-138.94"/>
</g>
<!-- 200 -->
<g id="node17" class="node">
<title>200</title>
<ellipse fill="none" stroke="green" cx="556" cy="-21.21" rx="68.68" ry="21.43"/>
<text text-anchor="middle" x="556" y="-25.01" font-family="Times,serif" font-size="14.00">200</text>
<text text-anchor="middle" x="556" y="-10.01" font-family="Times,serif" font-size="14.00">Return job ID</text>
</g>
<!-- HandleSubJobList&#45;&gt;200 -->
<g id="edge30" class="edge">
<title>HandleSubJobList&#45;&gt;200</title>
<path fill="none" stroke="darkblue" d="M556,-92.77C556,-92.77 556,-52.5 556,-52.5"/>
<polygon fill="darkblue" stroke="darkblue" points="559.5,-52.5 556,-42.5 552.5,-52.5 559.5,-52.5"/>
</g>
<!-- Queue&#45;&gt;RefreshJobStatus -->
<g id="edge18" class="edge">
<title>Queue&#45;&gt;RefreshJobStatus</title>
<path fill="none" stroke="#444444" stroke-dasharray="1,5" d="M288.01,-509C288.01,-509 349.72,-509 349.72,-509"/>
<polygon fill="#444444" stroke="#444444" points="349.72,-512.5 359.72,-509 349.72,-505.5 349.72,-512.5"/>
</g>
</g>
</svg>
