<?xml version="1.0" encoding="UTF-8" standalone="no"?>
<!DOCTYPE svg PUBLIC "-//W3C//DTD SVG 1.1//EN"
 "http://www.w3.org/Graphics/SVG/1.1/DTD/svg11.dtd">
<!-- Generated by graphviz version 2.43.0 (0)
 -->
<!-- Title: %3 Pages: 1 -->
<svg width="520pt" height="835pt"
 viewBox="0.00 0.00 520.00 835.00" xmlns="http://www.w3.org/2000/svg" xmlns:xlink="http://www.w3.org/1999/xlink">
<g id="graph0" class="graph" transform="scale(1 1) rotate(0) translate(4 831)">
<title>%3</title>
<polygon fill="white" stroke="transparent" points="-4,4 -4,-831 516,-831 516,4 -4,4"/>
<!-- Start -->
<g id="node1" class="node">
<title>Start</title>
<ellipse fill="none" stroke="darkgreen" cx="270" cy="-809" rx="54" ry="18"/>
<text text-anchor="middle" x="270" y="-805.3" font-family="Times,serif" font-size="14.00">Start</text>
</g>
<!-- LookupUserJob -->
<g id="node2" class="node">
<title>LookupUserJob</title>
<polygon fill="none" stroke="black" points="324,-741 216,-741 216,-705 324,-705 324,-741"/>
<text text-anchor="middle" x="270" y="-726.8" font-family="Times,serif" font-size="14.00">Lookup</text>
<text text-anchor="middle" x="270" y="-711.8" font-family="Times,serif" font-size="14.00">user job</text>
</g>
<!-- Start&#45;&gt;LookupUserJob -->
<g id="edge1" class="edge">
<title>Start&#45;&gt;LookupUserJob</title>
<path fill="none" stroke="darkblue" d="M270,-790.6C270,-779.26 270,-764.23 270,-751.32"/>
<polygon fill="darkblue" stroke="darkblue" points="273.5,-751.1 270,-741.1 266.5,-751.1 273.5,-751.1"/>
</g>
<!-- LookupJob -->
<g id="node3" class="node">
<title>LookupJob</title>
<polygon fill="none" stroke="black" points="324,-643 216,-643 216,-607 324,-607 324,-643"/>
<text text-anchor="middle" x="270" y="-621.3" font-family="Times,serif" font-size="14.00">Lookup job</text>
</g>
<!-- LookupUserJob&#45;&gt;LookupJob -->
<!-- DB -->
<g id="node4" class="node">
<title>DB</title>
<path fill="none" stroke="black" d="M504,-639.73C504,-641.53 479.8,-643 450,-643 420.2,-643 396,-641.53 396,-639.73 396,-639.73 396,-610.27 396,-610.27 396,-608.47 420.2,-607 450,-607 479.8,-607 504,-608.47 504,-610.27 504,-610.27 504,-639.73 504,-639.73"/>
<path fill="none" stroke="black" d="M504,-639.73C504,-637.92 479.8,-636.45 450,-636.45 420.2,-636.45 396,-637.92 396,-639.73"/>
<text text-anchor="middle" x="450" y="-621.3" font-family="Times,serif" font-size="14.00">MBlast DB</text>
</g>
<!-- LookupUserJob&#45;&gt;DB -->
<g id="edge3" class="edge">
<title>LookupUserJob&#45;&gt;DB</title>
<path fill="none" stroke="darkblue" stroke-dasharray="1,5" d="M311.41,-699.91C340.7,-684.29 379.79,-663.44 408.99,-647.87"/>
<polygon fill="darkblue" stroke="darkblue" points="309.36,-697.04 302.18,-704.84 312.65,-703.22 309.36,-697.04"/>
<polygon fill="darkblue" stroke="darkblue" points="410.92,-650.81 418.1,-643.01 407.63,-644.63 410.92,-650.81"/>
</g>
<!-- DoesJobExist1 -->
<g id="node5" class="node">
<title>DoesJobExist1</title>
<polygon fill="none" stroke="black" points="72,-655 0,-625 72,-595 144,-625 72,-655"/>
<text text-anchor="middle" x="72" y="-628.8" font-family="Times,serif" font-size="14.00">Does user</text>
<text text-anchor="middle" x="72" y="-613.8" font-family="Times,serif" font-size="14.00">job exist?</text>
</g>
<!-- LookupUserJob&#45;&gt;DoesJobExist1 -->
<g id="edge2" class="edge">
<title>LookupUserJob&#45;&gt;DoesJobExist1</title>
<path fill="none" stroke="darkblue" d="M234.6,-704.84C200.7,-688.4 149.55,-663.6 113.69,-646.21"/>
<polygon fill="darkblue" stroke="darkblue" points="114.99,-642.96 104.47,-641.74 111.94,-649.25 114.99,-642.96"/>
</g>
<!-- LookupJob&#45;&gt;DB -->
<g id="edge6" class="edge">
<title>LookupJob&#45;&gt;DB</title>
<path fill="none" stroke="darkblue" stroke-dasharray="1,5" d="M334.23,-625C351.42,-625 368.61,-625 385.8,-625"/>
<polygon fill="darkblue" stroke="darkblue" points="334.14,-621.5 324.14,-625 334.14,-628.5 334.14,-621.5"/>
<polygon fill="darkblue" stroke="darkblue" points="385.92,-628.5 395.92,-625 385.92,-621.5 385.92,-628.5"/>
</g>
<!-- DoesJobExist2 -->
<g id="node6" class="node">
<title>DoesJobExist2</title>
<polygon fill="none" stroke="black" points="450,-545 388,-515 450,-485 512,-515 450,-545"/>
<text text-anchor="middle" x="450" y="-518.8" font-family="Times,serif" font-size="14.00">Does job</text>
<text text-anchor="middle" x="450" y="-503.8" font-family="Times,serif" font-size="14.00">exist?</text>
</g>
<!-- LookupJob&#45;&gt;DoesJobExist2 -->
<g id="edge7" class="edge">
<title>LookupJob&#45;&gt;DoesJobExist2</title>
<path fill="none" stroke="darkblue" d="M298.52,-606.89C329.92,-588.05 380.43,-557.74 414.4,-537.36"/>
<polygon fill="darkblue" stroke="darkblue" points="416.31,-540.3 423.08,-532.15 412.71,-534.29 416.31,-540.3"/>
</g>
<!-- LinkUserToJob -->
<g id="node8" class="node">
<title>LinkUserToJob</title>
<polygon fill="none" stroke="black" points="316,-533 208,-533 208,-497 316,-497 316,-533"/>
<text text-anchor="middle" x="262" y="-518.8" font-family="Times,serif" font-size="14.00">Link user</text>
<text text-anchor="middle" x="262" y="-503.8" font-family="Times,serif" font-size="14.00">to job</text>
</g>
<!-- LookupJob&#45;&gt;LinkUserToJob -->
<!-- DB&#45;&gt;DoesJobExist2 -->
<!-- DoesJobExist1&#45;&gt;LookupJob -->
<g id="edge5" class="edge">
<title>DoesJobExist1&#45;&gt;LookupJob</title>
<path fill="none" stroke="darkred" d="M144.32,-625C164.85,-625 185.38,-625 205.92,-625"/>
<polygon fill="darkred" stroke="darkred" points="206,-628.5 216,-625 206,-621.5 206,-628.5"/>
<text text-anchor="middle" x="154.82" y="-628.8" font-family="Times,serif" font-size="14.00">No</text>
</g>
<!-- RefreshJobStatus -->
<g id="node7" class="node">
<title>RefreshJobStatus</title>
<polygon fill="none" stroke="black" points="247,-348 139,-348 139,-312 247,-312 247,-348"/>
<text text-anchor="middle" x="193" y="-333.8" font-family="Times,serif" font-size="14.00">Refresh job</text>
<text text-anchor="middle" x="193" y="-318.8" font-family="Times,serif" font-size="14.00">status</text>
</g>
<!-- DoesJobExist1&#45;&gt;RefreshJobStatus -->
<g id="edge4" class="edge">
<title>DoesJobExist1&#45;&gt;RefreshJobStatus</title>
<path fill="none" stroke="darkgreen" d="M82.32,-599.02C104.96,-544.19 158.84,-413.72 182.05,-357.51"/>
<polygon fill="darkgreen" stroke="darkgreen" points="185.31,-358.8 185.89,-348.22 178.84,-356.13 185.31,-358.8"/>
<text text-anchor="middle" x="94.82" y="-587.82" font-family="Times,serif" font-size="14.00">Yes</text>
</g>
<!-- LinkUserToSubJobs -->
<g id="node9" class="node">
<title>LinkUserToSubJobs</title>
<polygon fill="none" stroke="black" points="208,-398.5 208,-434.5 316,-434.5 316,-398.5 208,-398.5"/>
<text text-anchor="middle" x="213.5" y="-412.8" font-family="Times,serif" font-size="14.00"> </text>
<polyline fill="none" stroke="black" points="219,-398.5 219,-434.5 "/>
<text text-anchor="middle" x="261.5" y="-420.3" font-family="Times,serif" font-size="14.00">Link user</text>
<text text-anchor="middle" x="261.5" y="-405.3" font-family="Times,serif" font-size="14.00">to sub jobs</text>
<polyline fill="none" stroke="black" points="304,-398.5 304,-434.5 "/>
<text text-anchor="middle" x="310" y="-412.8" font-family="Times,serif" font-size="14.00"> </text>
</g>
<!-- DoesJobExist2&#45;&gt;LinkUserToSubJobs -->
<!-- End -->
<g id="node12" class="node">
<title>End</title>
<ellipse fill="none" stroke="darkred" cx="287" cy="-18" rx="54" ry="18"/>
<text text-anchor="middle" x="287" y="-14.3" font-family="Times,serif" font-size="14.00">End</text>
</g>
<!-- DoesJobExist2&#45;&gt;End -->
<g id="edge9" class="edge">
<title>DoesJobExist2&#45;&gt;End</title>
<path fill="none" stroke="darkred" d="M450,-484.84C450,-448.73 450,-385.33 450,-331 450,-331 450,-331 450,-216 450,-135.97 369.17,-70.96 321.35,-39.51"/>
<polygon fill="darkred" stroke="darkred" points="323.13,-36.49 312.83,-34.03 319.34,-42.38 323.13,-36.49"/>
<text text-anchor="middle" x="439.5" y="-473.64" font-family="Times,serif" font-size="14.00">No</text>
</g>
<!-- IsJobStillCached -->
<g id="node10" class="node">
<title>IsJobStillCached</title>
<polygon fill="none" stroke="black" points="193,-262 135,-217 193,-172 251,-217 193,-262"/>
<text text-anchor="middle" x="193" y="-228.3" font-family="Times,serif" font-size="14.00">Is job</text>
<text text-anchor="middle" x="193" y="-213.3" font-family="Times,serif" font-size="14.00">still</text>
<text text-anchor="middle" x="193" y="-198.3" font-family="Times,serif" font-size="14.00">cached?</text>
</g>
<!-- RefreshJobStatus&#45;&gt;IsJobStillCached -->
<g id="edge12" class="edge">
<title>RefreshJobStatus&#45;&gt;IsJobStillCached</title>
<path fill="none" stroke="darkblue" d="M193,-311.66C193,-300.96 193,-286.6 193,-272.34"/>
<polygon fill="darkblue" stroke="darkblue" points="196.5,-272.03 193,-262.03 189.5,-272.03 196.5,-272.03"/>
</g>
<!-- LinkUserToJob&#45;&gt;DoesJobExist2 -->
<g id="edge8" class="edge">
<title>LinkUserToJob&#45;&gt;DoesJobExist2</title>
<path fill="none" stroke="darkgreen" d="M326.4,-515C346.89,-515 367.38,-515 387.87,-515"/>
<polygon fill="darkgreen" stroke="darkgreen" points="326.34,-511.5 316.34,-515 326.34,-518.5 326.34,-511.5"/>
<text text-anchor="middle" x="375.37" y="-518.8" font-family="Times,serif" font-size="14.00">Yes</text>
</g>
<!-- LinkUserToJob&#45;&gt;LinkUserToSubJobs -->
<g id="edge10" class="edge">
<title>LinkUserToJob&#45;&gt;LinkUserToSubJobs</title>
<path fill="none" stroke="darkblue" d="M262,-496.75C262,-482.34 262,-461.53 262,-444.86"/>
<polygon fill="darkblue" stroke="darkblue" points="265.5,-444.6 262,-434.6 258.5,-444.6 265.5,-444.6"/>
</g>
<!-- LinkUserToSubJobs&#45;&gt;RefreshJobStatus -->
<g id="edge11" class="edge">
<title>LinkUserToSubJobs&#45;&gt;RefreshJobStatus</title>
<path fill="none" stroke="darkblue" d="M248.04,-398.4C238.12,-386.26 224.65,-369.76 213.52,-356.13"/>
<polygon fill="darkblue" stroke="darkblue" points="215.98,-353.61 206.94,-348.07 210.56,-358.03 215.98,-353.61"/>
</g>
<!-- UpdateLastUsed -->
<g id="node11" class="node">
<title>UpdateLastUsed</title>
<polygon fill="none" stroke="black" points="341,-122 233,-122 233,-86 341,-86 341,-122"/>
<text text-anchor="middle" x="287" y="-107.8" font-family="Times,serif" font-size="14.00">Update</text>
<text text-anchor="middle" x="287" y="-92.8" font-family="Times,serif" font-size="14.00">last used</text>
</g>
<!-- IsJobStillCached&#45;&gt;UpdateLastUsed -->
<g id="edge13" class="edge">
<title>IsJobStillCached&#45;&gt;UpdateLastUsed</title>
<path fill="none" stroke="darkgreen" d="M215.52,-189.41C230.87,-171.28 251.06,-147.44 266.07,-129.72"/>
<polygon fill="darkgreen" stroke="darkgreen" points="268.77,-131.94 272.56,-122.05 263.43,-127.42 268.77,-131.94"/>
<text text-anchor="middle" x="241.52" y="-162.21" font-family="Times,serif" font-size="14.00"> &#160;&#160;&#160;&#160;&#160;Yes</text>
</g>
<!-- IsJobStillCached&#45;&gt;End -->
<g id="edge14" class="edge">
<title>IsJobStillCached&#45;&gt;End</title>
<path fill="none" stroke="darkred" d="M185.71,-177.38C182.55,-150.28 182.38,-114.03 197,-86 207.89,-65.13 228.56,-49.03 247.34,-37.85"/>
<polygon fill="darkred" stroke="darkred" points="249.1,-40.88 256.08,-32.91 245.65,-34.78 249.1,-40.88"/>
<text text-anchor="middle" x="175.21" y="-166.18" font-family="Times,serif" font-size="14.00">No</text>
</g>
<!-- UpdateLastUsed&#45;&gt;End -->
<g id="edge15" class="edge">
<title>UpdateLastUsed&#45;&gt;End</title>
<path fill="none" stroke="darkblue" d="M287,-85.6C287,-74.26 287,-59.23 287,-46.32"/>
<polygon fill="darkblue" stroke="darkblue" points="290.5,-46.1 287,-36.1 283.5,-46.1 290.5,-46.1"/>
</g>
</g>
</svg>
