<?xml version="1.0" encoding="UTF-8" standalone="no"?>
<!DOCTYPE svg PUBLIC "-//W3C//DTD SVG 1.1//EN"
 "http://www.w3.org/Graphics/SVG/1.1/DTD/svg11.dtd">
<!-- Generated by graphviz version 2.43.0 (0)
 -->
<!-- Title: %3 Pages: 1 -->
<svg width="561pt" height="1348pt"
 viewBox="0.00 0.00 561.00 1348.43" xmlns="http://www.w3.org/2000/svg" xmlns:xlink="http://www.w3.org/1999/xlink">
<g id="graph0" class="graph" transform="scale(1 1) rotate(0) translate(4 1344.43)">
<title>%3</title>
<polygon fill="white" stroke="transparent" points="-4,4 -4,-1344.43 557,-1344.43 557,4 -4,4"/>
<!-- 401 -->
<g id="node1" class="node">
<title>401</title>
<ellipse fill="none" stroke="orange" cx="54" cy="-1201.43" rx="54" ry="18"/>
<text text-anchor="middle" x="54" y="-1197.73" font-family="Times,serif" font-size="14.00">401</text>
</g>
<!-- 404 -->
<g id="node2" class="node">
<title>404</title>
<ellipse fill="none" stroke="orange" cx="54" cy="-984.93" rx="54" ry="18"/>
<text text-anchor="middle" x="54" y="-981.23" font-family="Times,serif" font-size="14.00">404</text>
</g>
<!-- 401&#45;&gt;404 -->
<!-- IsUserTokenProvided -->
<g id="node6" class="node">
<title>IsUserTokenProvided</title>
<polygon fill="none" stroke="black" points="251,-1246.43 180,-1201.43 251,-1156.43 322,-1201.43 251,-1246.43"/>
<text text-anchor="middle" x="251" y="-1212.73" font-family="Times,serif" font-size="14.00">Is user</text>
<text text-anchor="middle" x="251" y="-1197.73" font-family="Times,serif" font-size="14.00">token</text>
<text text-anchor="middle" x="251" y="-1182.73" font-family="Times,serif" font-size="14.00">provided?</text>
</g>
<!-- 401&#45;&gt;IsUserTokenProvided -->
<g id="edge3" class="edge">
<title>401&#45;&gt;IsUserTokenProvided</title>
<path fill="none" stroke="darkred" d="M118.33,-1201.43C138.85,-1201.43 159.38,-1201.43 179.9,-1201.43"/>
<polygon fill="darkred" stroke="darkred" points="118.25,-1197.93 108.25,-1201.43 118.25,-1204.93 118.25,-1197.93"/>
<text text-anchor="middle" x="169.4" y="-1205.23" font-family="Times,serif" font-size="14.00">No</text>
</g>
<!-- DoesJobExist1 -->
<g id="node10" class="node">
<title>DoesJobExist1</title>
<polygon fill="none" stroke="black" points="213,-908.43 141,-878.43 213,-848.43 285,-878.43 213,-908.43"/>
<text text-anchor="middle" x="213" y="-882.23" font-family="Times,serif" font-size="14.00">Does user</text>
<text text-anchor="middle" x="213" y="-867.23" font-family="Times,serif" font-size="14.00">job exist?</text>
</g>
<!-- 404&#45;&gt;DoesJobExist1 -->
<!-- DoesJobExist2 -->
<g id="node11" class="node">
<title>DoesJobExist2</title>
<polygon fill="none" stroke="black" points="311,-696.43 249,-666.43 311,-636.43 373,-666.43 311,-696.43"/>
<text text-anchor="middle" x="311" y="-670.23" font-family="Times,serif" font-size="14.00">Does job</text>
<text text-anchor="middle" x="311" y="-655.23" font-family="Times,serif" font-size="14.00">exist?</text>
</g>
<!-- 404&#45;&gt;DoesJobExist2 -->
<g id="edge13" class="edge">
<title>404&#45;&gt;DoesJobExist2:w</title>
<path fill="none" stroke="darkred" d="M57.45,-956.51C68.83,-879.44 112.55,-666.43 248,-666.43"/>
<polygon fill="darkred" stroke="darkred" points="53.92,-956.47 56,-966.86 60.86,-957.44 53.92,-956.47"/>
<text text-anchor="middle" x="237.5" y="-670.23" font-family="Times,serif" font-size="14.00">No</text>
</g>
<!-- 200 -->
<g id="node3" class="node">
<title>200</title>
<ellipse fill="none" stroke="darkgreen" cx="284" cy="-21.21" rx="54" ry="21.43"/>
<text text-anchor="middle" x="284" y="-25.01" font-family="Times,serif" font-size="14.00">200</text>
<text text-anchor="middle" x="284" y="-10.01" font-family="Times,serif" font-size="14.00">Job details</text>
</g>
<!-- DB -->
<g id="node4" class="node">
<title>DB</title>
<path fill="none" stroke="purple" d="M553,-681.15C553,-682.96 528.8,-684.43 499,-684.43 469.2,-684.43 445,-682.96 445,-681.15 445,-681.15 445,-651.7 445,-651.7 445,-649.89 469.2,-648.43 499,-648.43 528.8,-648.43 553,-649.89 553,-651.7 553,-651.7 553,-681.15 553,-681.15"/>
<path fill="none" stroke="purple" d="M553,-681.15C553,-679.35 528.8,-677.88 499,-677.88 469.2,-677.88 445,-679.35 445,-681.15"/>
<text text-anchor="middle" x="499" y="-662.73" font-family="Times,serif" font-size="14.00">MBlast DB</text>
</g>
<!-- UpdateLastUsed -->
<g id="node17" class="node">
<title>UpdateLastUsed</title>
<polygon fill="none" stroke="black" points="432,-163.43 324,-163.43 324,-127.43 432,-127.43 432,-163.43"/>
<text text-anchor="middle" x="378" y="-149.23" font-family="Times,serif" font-size="14.00">Update</text>
<text text-anchor="middle" x="378" y="-134.23" font-family="Times,serif" font-size="14.00">last used</text>
</g>
<!-- DB&#45;&gt;UpdateLastUsed -->
<!-- Start -->
<g id="node5" class="node">
<title>Start</title>
<ellipse fill="none" stroke="darkgreen" cx="251" cy="-1322.43" rx="72.71" ry="18"/>
<text text-anchor="middle" x="251" y="-1318.73" font-family="Times,serif" font-size="14.00">GET /jobs/{job&#45;id}</text>
</g>
<!-- Start&#45;&gt;IsUserTokenProvided -->
<g id="edge1" class="edge">
<title>Start&#45;&gt;IsUserTokenProvided</title>
<path fill="none" stroke="darkblue" d="M251,-1304.38C251,-1291.81 251,-1273.96 251,-1256.7"/>
<polygon fill="darkblue" stroke="darkblue" points="254.5,-1256.66 251,-1246.66 247.5,-1256.66 254.5,-1256.66"/>
</g>
<!-- ValidateJobID -->
<g id="node7" class="node">
<title>ValidateJobID</title>
<polygon fill="none" stroke="black" points="197,-1061.93 197,-1097.93 305,-1097.93 305,-1061.93 197,-1061.93"/>
<text text-anchor="middle" x="202" y="-1076.23" font-family="Times,serif" font-size="14.00"> </text>
<polyline fill="none" stroke="black" points="207,-1061.93 207,-1097.93 "/>
<text text-anchor="middle" x="250.5" y="-1083.73" font-family="Times,serif" font-size="14.00">Job ID hash</text>
<text text-anchor="middle" x="250.5" y="-1068.73" font-family="Times,serif" font-size="14.00">validation</text>
<polyline fill="none" stroke="black" points="294,-1061.93 294,-1097.93 "/>
<text text-anchor="middle" x="299.5" y="-1076.23" font-family="Times,serif" font-size="14.00"> </text>
</g>
<!-- IsUserTokenProvided&#45;&gt;ValidateJobID -->
<g id="edge2" class="edge">
<title>IsUserTokenProvided&#45;&gt;ValidateJobID</title>
<path fill="none" stroke="darkgreen" d="M251,-1156.27C251,-1140.16 251,-1122.43 251,-1108.22"/>
<polygon fill="darkgreen" stroke="darkgreen" points="254.5,-1108.12 251,-1098.12 247.5,-1108.12 254.5,-1108.12"/>
<text text-anchor="middle" x="238.5" y="-1145.07" font-family="Times,serif" font-size="14.00">Yes</text>
</g>
<!-- ValidateJobID&#45;&gt;404 -->
<g id="edge5" class="edge">
<title>ValidateJobID&#45;&gt;404</title>
<path fill="none" stroke="darkred" d="M214.87,-1061.87C180.3,-1045.55 128.33,-1021.01 92.87,-1004.28"/>
<polygon fill="darkred" stroke="darkred" points="94.33,-1001.09 83.79,-999.99 91.34,-1007.42 94.33,-1001.09"/>
<text text-anchor="middle" x="190.37" y="-1050.67" font-family="Times,serif" font-size="14.00">Invalid</text>
<text text-anchor="middle" x="190.37" y="-1035.67" font-family="Times,serif" font-size="14.00">hash</text>
</g>
<!-- LookupUserJob -->
<g id="node8" class="node">
<title>LookupUserJob</title>
<polygon fill="none" stroke="black" points="197,-966.93 197,-1002.93 305,-1002.93 305,-966.93 197,-966.93"/>
<text text-anchor="middle" x="206" y="-981.23" font-family="Times,serif" font-size="14.00"> </text>
<polyline fill="none" stroke="black" points="215,-966.93 215,-1002.93 "/>
<text text-anchor="middle" x="250.5" y="-988.73" font-family="Times,serif" font-size="14.00">Lookup</text>
<text text-anchor="middle" x="250.5" y="-973.73" font-family="Times,serif" font-size="14.00">user job</text>
<polyline fill="none" stroke="black" points="286,-966.93 286,-1002.93 "/>
<text text-anchor="middle" x="295.5" y="-981.23" font-family="Times,serif" font-size="14.00"> </text>
</g>
<!-- ValidateJobID&#45;&gt;LookupUserJob -->
<g id="edge4" class="edge">
<title>ValidateJobID&#45;&gt;LookupUserJob</title>
<path fill="none" stroke="darkblue" d="M251,-1061.87C251,-1048.32 251,-1029.11 251,-1013.4"/>
<polygon fill="darkblue" stroke="darkblue" points="254.5,-1013.19 251,-1003.19 247.5,-1013.19 254.5,-1013.19"/>
</g>
<!-- LookupUserJob&#45;&gt;DB -->
<g id="edge7" class="edge">
<title>LookupUserJob&#45;&gt;DB</title>
<path fill="none" stroke="#333333" stroke-dasharray="1,5" d="M275.25,-959.19C289.07,-944.74 306.47,-925.96 321,-908.43 387.87,-827.72 459.75,-724.75 487.32,-684.57"/>
<polygon fill="#333333" stroke="#333333" points="272.4,-957.1 267.98,-966.73 277.44,-961.96 272.4,-957.1"/>
</g>
<!-- LookupUserJob&#45;&gt;DoesJobExist1 -->
<g id="edge6" class="edge">
<title>LookupUserJob&#45;&gt;DoesJobExist1</title>
<path fill="none" stroke="darkblue" d="M244.73,-966.67C239.57,-952.49 232.09,-931.93 225.7,-914.34"/>
<polygon fill="darkblue" stroke="darkblue" points="228.98,-913.13 222.27,-904.93 222.4,-915.52 228.98,-913.13"/>
</g>
<!-- LookupJob -->
<g id="node9" class="node">
<title>LookupJob</title>
<polygon fill="none" stroke="black" points="365,-790.43 257,-790.43 257,-754.43 365,-754.43 365,-790.43"/>
<text text-anchor="middle" x="311" y="-768.73" font-family="Times,serif" font-size="14.00">Lookup job</text>
</g>
<!-- LookupJob&#45;&gt;DB -->
<g id="edge11" class="edge">
<title>LookupJob&#45;&gt;DB</title>
<path fill="none" stroke="#333333" stroke-dasharray="1,5" d="M351.05,-749.27C386.09,-729.89 436.25,-702.14 468.22,-684.45"/>
<polygon fill="#333333" stroke="#333333" points="349.1,-746.35 342.04,-754.25 352.49,-752.47 349.1,-746.35"/>
</g>
<!-- LookupJob&#45;&gt;DoesJobExist2 -->
<g id="edge10" class="edge">
<title>LookupJob&#45;&gt;DoesJobExist2</title>
<path fill="none" stroke="darkblue" d="M311,-754.25C311,-741.38 311,-723.24 311,-706.86"/>
<polygon fill="darkblue" stroke="darkblue" points="314.5,-706.43 311,-696.43 307.5,-706.43 314.5,-706.43"/>
</g>
<!-- DoesJobExist1&#45;&gt;LookupJob -->
<g id="edge9" class="edge">
<title>DoesJobExist1&#45;&gt;LookupJob</title>
<path fill="none" stroke="darkred" d="M232.83,-856.38C248.64,-839.6 270.83,-816.06 287.52,-798.34"/>
<polygon fill="darkred" stroke="darkred" points="290.45,-800.33 294.77,-790.65 285.36,-795.53 290.45,-800.33"/>
<text text-anchor="middle" x="222.33" y="-845.18" font-family="Times,serif" font-size="14.00">No</text>
</g>
<!-- RefreshJobStatus -->
<g id="node12" class="node">
<title>RefreshJobStatus</title>
<polygon fill="none" stroke="black" points="196,-352.93 196,-388.93 304,-388.93 304,-352.93 196,-352.93"/>
<text text-anchor="middle" x="203" y="-367.23" font-family="Times,serif" font-size="14.00"> </text>
<polyline fill="none" stroke="black" points="210,-352.93 210,-388.93 "/>
<text text-anchor="middle" x="250" y="-374.73" font-family="Times,serif" font-size="14.00">Refresh</text>
<text text-anchor="middle" x="250" y="-359.73" font-family="Times,serif" font-size="14.00">job status</text>
<polyline fill="none" stroke="black" points="290,-352.93 290,-388.93 "/>
<text text-anchor="middle" x="297" y="-367.23" font-family="Times,serif" font-size="14.00"> </text>
</g>
<!-- DoesJobExist1&#45;&gt;RefreshJobStatus -->
<g id="edge8" class="edge">
<title>DoesJobExist1&#45;&gt;RefreshJobStatus</title>
<path fill="none" stroke="darkgreen" d="M199.1,-854.1C177.92,-816.28 140,-738.64 140,-667.43 140,-667.43 140,-667.43 140,-559.43 140,-493.39 191.39,-430.03 223.92,-396.54"/>
<polygon fill="darkgreen" stroke="darkgreen" points="226.77,-398.63 231.34,-389.08 221.81,-393.7 226.77,-398.63"/>
<text text-anchor="middle" x="186.6" y="-842.9" font-family="Times,serif" font-size="14.00">Yes</text>
</g>
<!-- LinkUserToJob -->
<g id="node14" class="node">
<title>LinkUserToJob</title>
<polygon fill="none" stroke="black" points="365,-578.43 257,-578.43 257,-542.43 365,-542.43 365,-578.43"/>
<text text-anchor="middle" x="311" y="-564.23" font-family="Times,serif" font-size="14.00">Link user</text>
<text text-anchor="middle" x="311" y="-549.23" font-family="Times,serif" font-size="14.00">to job</text>
</g>
<!-- DoesJobExist2&#45;&gt;LinkUserToJob -->
<g id="edge12" class="edge">
<title>DoesJobExist2&#45;&gt;LinkUserToJob</title>
<path fill="none" stroke="darkgreen" d="M311,-636.18C311,-621.34 311,-603.42 311,-588.84"/>
<polygon fill="darkgreen" stroke="darkgreen" points="314.5,-588.46 311,-578.46 307.5,-588.46 314.5,-588.46"/>
<text text-anchor="middle" x="298.5" y="-624.98" font-family="Times,serif" font-size="14.00">Yes</text>
</g>
<!-- RefreshSubJobStatus -->
<g id="node13" class="node">
<title>RefreshSubJobStatus</title>
<polygon fill="none" stroke="black" points="136,-248.93 136,-293.93 244,-293.93 244,-248.93 136,-248.93"/>
<text text-anchor="middle" x="144.5" y="-267.73" font-family="Times,serif" font-size="14.00"> </text>
<polyline fill="none" stroke="black" points="153,-248.93 153,-293.93 "/>
<text text-anchor="middle" x="189.5" y="-282.73" font-family="Times,serif" font-size="14.00">Refresh</text>
<text text-anchor="middle" x="189.5" y="-267.73" font-family="Times,serif" font-size="14.00">sub&#45;job</text>
<text text-anchor="middle" x="189.5" y="-252.73" font-family="Times,serif" font-size="14.00">statuses</text>
<polyline fill="none" stroke="black" points="226,-248.93 226,-293.93 "/>
<text text-anchor="middle" x="235" y="-267.73" font-family="Times,serif" font-size="14.00"> </text>
</g>
<!-- RefreshJobStatus&#45;&gt;RefreshSubJobStatus -->
<g id="edge17" class="edge">
<title>RefreshJobStatus&#45;&gt;RefreshSubJobStatus</title>
<path fill="none" stroke="darkblue" d="M239.27,-352.5C230.8,-338.72 218.76,-319.17 208.71,-302.83"/>
<polygon fill="darkblue" stroke="darkblue" points="211.59,-300.82 203.36,-294.14 205.62,-304.49 211.59,-300.82"/>
</g>
<!-- RefreshJobStatus&#45;&gt;UpdateLastUsed -->
<!-- IsJobStillCached -->
<g id="node16" class="node">
<title>IsJobStillCached</title>
<polygon fill="none" stroke="black" points="190,-190.43 128,-145.43 190,-100.43 252,-145.43 190,-190.43"/>
<text text-anchor="middle" x="190" y="-156.73" font-family="Times,serif" font-size="14.00">Is job</text>
<text text-anchor="middle" x="190" y="-141.73" font-family="Times,serif" font-size="14.00">status</text>
<text text-anchor="middle" x="190" y="-126.73" font-family="Times,serif" font-size="14.00">expired?</text>
</g>
<!-- RefreshSubJobStatus&#45;&gt;IsJobStillCached -->
<g id="edge18" class="edge">
<title>RefreshSubJobStatus&#45;&gt;IsJobStillCached</title>
<path fill="none" stroke="darkblue" d="M190,-248.83C190,-235.55 190,-217.9 190,-201"/>
<polygon fill="darkblue" stroke="darkblue" points="193.5,-200.62 190,-190.62 186.5,-200.62 193.5,-200.62"/>
</g>
<!-- LinkUserToJob&#45;&gt;DB -->
<g id="edge15" class="edge">
<title>LinkUserToJob&#45;&gt;DB</title>
<path fill="none" stroke="#333333" stroke-dasharray="1,5" d="M341.78,-578.45C373.75,-596.14 423.91,-623.89 458.95,-643.27"/>
<polygon fill="#333333" stroke="#333333" points="457.51,-646.47 467.96,-648.25 460.9,-640.35 457.51,-646.47"/>
</g>
<!-- LinkUserToSubJobs -->
<g id="node15" class="node">
<title>LinkUserToSubJobs</title>
<polygon fill="none" stroke="black" points="253,-447.93 253,-483.93 361,-483.93 361,-447.93 253,-447.93"/>
<text text-anchor="middle" x="258.5" y="-462.23" font-family="Times,serif" font-size="14.00"> </text>
<polyline fill="none" stroke="black" points="264,-447.93 264,-483.93 "/>
<text text-anchor="middle" x="306.5" y="-469.73" font-family="Times,serif" font-size="14.00">Link user</text>
<text text-anchor="middle" x="306.5" y="-454.73" font-family="Times,serif" font-size="14.00">to sub jobs</text>
<polyline fill="none" stroke="black" points="349,-447.93 349,-483.93 "/>
<text text-anchor="middle" x="355" y="-462.23" font-family="Times,serif" font-size="14.00"> </text>
</g>
<!-- LinkUserToJob&#45;&gt;LinkUserToSubJobs -->
<g id="edge14" class="edge">
<title>LinkUserToJob&#45;&gt;LinkUserToSubJobs</title>
<path fill="none" stroke="darkblue" d="M310.25,-542.03C309.66,-528.51 308.84,-509.51 308.17,-494"/>
<polygon fill="darkblue" stroke="darkblue" points="311.66,-493.77 307.74,-483.93 304.67,-494.08 311.66,-493.77"/>
</g>
<!-- LinkUserToSubJobs&#45;&gt;RefreshJobStatus -->
<g id="edge16" class="edge">
<title>LinkUserToSubJobs&#45;&gt;RefreshJobStatus</title>
<path fill="none" stroke="darkblue" d="M296.55,-447.87C288,-433.93 275.78,-413.99 266.01,-398.04"/>
<polygon fill="darkblue" stroke="darkblue" points="268.79,-395.89 260.58,-389.19 262.82,-399.55 268.79,-395.89"/>
</g>
<!-- IsJobStillCached&#45;&gt;200 -->
<g id="edge20" class="edge">
<title>IsJobStillCached:s&#45;&gt;200</title>
<path fill="none" stroke="darkgreen" d="M190,-100.43C190,-73.22 213.55,-53.66 237.07,-40.9"/>
<polygon fill="darkgreen" stroke="darkgreen" points="238.71,-43.99 246.04,-36.34 235.54,-37.75 238.71,-43.99"/>
<text text-anchor="middle" x="177.5" y="-89.23" font-family="Times,serif" font-size="14.00">Yes</text>
</g>
<!-- IsJobStillCached&#45;&gt;UpdateLastUsed -->
<g id="edge19" class="edge">
<title>IsJobStillCached:e&#45;&gt;UpdateLastUsed:w</title>
<path fill="none" stroke="darkred" d="M252,-145.43C280.38,-145.43 289.88,-145.43 313.98,-145.43"/>
<polygon fill="darkred" stroke="darkred" points="314,-148.93 324,-145.43 314,-141.93 314,-148.93"/>
<text text-anchor="middle" x="262.5" y="-149.23" font-family="Times,serif" font-size="14.00">No</text>
</g>
<!-- UpdateLastUsed&#45;&gt;200 -->
<g id="edge21" class="edge">
<title>UpdateLastUsed&#45;&gt;200</title>
<path fill="none" stroke="darkblue" d="M364.73,-127.18C349.25,-107.05 323.45,-73.5 305.18,-49.75"/>
<polygon fill="darkblue" stroke="darkblue" points="307.94,-47.59 299.07,-41.8 302.39,-51.86 307.94,-47.59"/>
</g>
</g>
</svg>
