<?xml version="1.0" encoding="UTF-8" standalone="no"?>
<!DOCTYPE svg PUBLIC "-//W3C//DTD SVG 1.1//EN"
 "http://www.w3.org/Graphics/SVG/1.1/DTD/svg11.dtd">
<!-- Generated by graphviz version 2.43.0 (0)
 -->
<!-- Title: %3 Pages: 1 -->
<svg width="655pt" height="639pt"
 viewBox="0.00 0.00 655.00 639.43" xmlns="http://www.w3.org/2000/svg" xmlns:xlink="http://www.w3.org/1999/xlink">
<g id="graph0" class="graph" transform="scale(1 1) rotate(0) translate(4 635.43)">
<title>%3</title>
<polygon fill="white" stroke="transparent" points="-4,4 -4,-635.43 651,-635.43 651,4 -4,4"/>
<!-- Start -->
<g id="node1" class="node">
<title>Start</title>
<ellipse fill="none" stroke="black" cx="252" cy="-613.43" rx="54" ry="18"/>
<text text-anchor="middle" x="252" y="-609.73" font-family="Times,serif" font-size="14.00">Start</text>
</g>
<!-- LookupUserJob -->
<g id="node4" class="node">
<title>LookupUserJob</title>
<polygon fill="none" stroke="black" points="0,-497.43 0,-533.43 108,-533.43 108,-497.43 0,-497.43"/>
<text text-anchor="middle" x="9" y="-511.73" font-family="Times,serif" font-size="14.00"> </text>
<polyline fill="none" stroke="black" points="18,-497.43 18,-533.43 "/>
<text text-anchor="middle" x="53.5" y="-519.23" font-family="Times,serif" font-size="14.00">Lookup</text>
<text text-anchor="middle" x="53.5" y="-504.23" font-family="Times,serif" font-size="14.00">user job</text>
<polyline fill="none" stroke="black" points="89,-497.43 89,-533.43 "/>
<text text-anchor="middle" x="98.5" y="-511.73" font-family="Times,serif" font-size="14.00"> </text>
</g>
<!-- Start&#45;&gt;LookupUserJob -->
<g id="edge1" class="edge">
<title>Start&#45;&gt;LookupUserJob</title>
<path fill="none" stroke="darkblue" d="M197.9,-613C139.27,-613 54,-613 54,-613 54,-613 54,-543.78 54,-543.78"/>
<polygon fill="darkblue" stroke="darkblue" points="57.5,-543.78 54,-533.78 50.5,-543.78 57.5,-543.78"/>
</g>
<!-- LookupJob -->
<g id="node5" class="node">
<title>LookupJob</title>
<polygon fill="none" stroke="black" points="504,-533.43 396,-533.43 396,-497.43 504,-497.43 504,-533.43"/>
<text text-anchor="middle" x="450" y="-511.73" font-family="Times,serif" font-size="14.00">Lookup job</text>
</g>
<!-- Start&#45;&gt;LookupJob -->
<!-- End -->
<g id="node2" class="node">
<title>End</title>
<ellipse fill="none" stroke="black" cx="210" cy="-21.21" rx="54" ry="18"/>
<text text-anchor="middle" x="210" y="-17.51" font-family="Times,serif" font-size="14.00">End</text>
</g>
<!-- NotFound -->
<g id="node3" class="node">
<title>NotFound</title>
<ellipse fill="none" stroke="darkred" cx="585" cy="-21.21" rx="54" ry="21.43"/>
<text text-anchor="middle" x="585" y="-25.01" font-family="Times,serif" font-size="14.00">Not</text>
<text text-anchor="middle" x="585" y="-10.01" font-family="Times,serif" font-size="14.00">found</text>
</g>
<!-- DB -->
<g id="node6" class="node">
<title>DB</title>
<path fill="none" stroke="purple" d="M108,-420.15C108,-421.96 83.8,-423.43 54,-423.43 24.2,-423.43 0,-421.96 0,-420.15 0,-420.15 0,-390.7 0,-390.7 0,-388.89 24.2,-387.43 54,-387.43 83.8,-387.43 108,-388.89 108,-390.7 108,-390.7 108,-420.15 108,-420.15"/>
<path fill="none" stroke="purple" d="M108,-420.15C108,-418.35 83.8,-416.88 54,-416.88 24.2,-416.88 0,-418.35 0,-420.15"/>
<text text-anchor="middle" x="54" y="-401.73" font-family="Times,serif" font-size="14.00">MBlast DB</text>
</g>
<!-- LookupUserJob&#45;&gt;DB -->
<g id="edge3" class="edge">
<title>LookupUserJob&#45;&gt;DB</title>
<path fill="none" stroke="#333333" stroke-dasharray="1,5" d="M54,-487.26C54,-487.26 54,-423.62 54,-423.62"/>
<polygon fill="#333333" stroke="#333333" points="50.5,-487.26 54,-497.26 57.5,-487.26 50.5,-487.26"/>
</g>
<!-- DoesJobExist1 -->
<g id="node7" class="node">
<title>DoesJobExist1</title>
<polygon fill="none" stroke="black" points="252,-545.43 180,-515.43 252,-485.43 324,-515.43 252,-545.43"/>
<text text-anchor="middle" x="252" y="-519.23" font-family="Times,serif" font-size="14.00">Does user</text>
<text text-anchor="middle" x="252" y="-504.23" font-family="Times,serif" font-size="14.00">job exist?</text>
</g>
<!-- LookupUserJob&#45;&gt;DoesJobExist1 -->
<g id="edge2" class="edge">
<title>LookupUserJob&#45;&gt;DoesJobExist1</title>
<path fill="none" stroke="darkblue" d="M108.1,-515C108.1,-515 170.87,-515 170.87,-515"/>
<polygon fill="darkblue" stroke="darkblue" points="170.87,-518.5 180.87,-515 170.87,-511.5 170.87,-518.5"/>
</g>
<!-- LookupJob&#45;&gt;DB -->
<g id="edge6" class="edge">
<title>LookupJob&#45;&gt;DB</title>
<path fill="none" stroke="#333333" stroke-dasharray="1,5" d="M385.84,-509C385.84,-509 333.5,-509 333.5,-509 333.5,-509 333.5,-411 333.5,-411 333.5,-411 189.5,-411 108.22,-411"/>
<polygon fill="#333333" stroke="#333333" points="385.84,-512.5 395.84,-509 385.84,-505.5 385.84,-512.5"/>
</g>
<!-- DoesJobExist2 -->
<g id="node8" class="node">
<title>DoesJobExist2</title>
<polygon fill="none" stroke="black" points="585,-435.43 523,-405.43 585,-375.43 647,-405.43 585,-435.43"/>
<text text-anchor="middle" x="585" y="-409.23" font-family="Times,serif" font-size="14.00">Does job</text>
<text text-anchor="middle" x="585" y="-394.23" font-family="Times,serif" font-size="14.00">exist?</text>
</g>
<!-- LookupJob&#45;&gt;DoesJobExist2 -->
<g id="edge7" class="edge">
<title>LookupJob&#45;&gt;DoesJobExist2</title>
<path fill="none" stroke="darkblue" d="M477.5,-497.1C477.5,-471.73 477.5,-429 477.5,-429 477.5,-429 561.39,-429 561.39,-429"/>
<polygon fill="darkblue" stroke="darkblue" points="561.39,-432.5 571.39,-429 561.39,-425.5 561.39,-432.5"/>
</g>
<!-- LinkUserToJob -->
<g id="node10" class="node">
<title>LinkUserToJob</title>
<polygon fill="none" stroke="black" points="451,-423.43 343,-423.43 343,-387.43 451,-387.43 451,-423.43"/>
<text text-anchor="middle" x="397" y="-409.23" font-family="Times,serif" font-size="14.00">Link user</text>
<text text-anchor="middle" x="397" y="-394.23" font-family="Times,serif" font-size="14.00">to job</text>
</g>
<!-- LookupJob&#45;&gt;LinkUserToJob -->
<!-- DoesJobExist1&#45;&gt;LookupJob -->
<g id="edge5" class="edge">
<title>DoesJobExist1&#45;&gt;LookupJob</title>
<path fill="none" stroke="darkred" d="M310.87,-521C310.87,-521 385.75,-521 385.75,-521"/>
<polygon fill="darkred" stroke="darkred" points="385.75,-524.5 395.75,-521 385.75,-517.5 385.75,-524.5"/>
<text text-anchor="middle" x="321.37" y="-524.8" font-family="Times,serif" font-size="14.00">No</text>
</g>
<!-- RefreshJobStatus -->
<g id="node9" class="node">
<title>RefreshJobStatus</title>
<polygon fill="none" stroke="black" points="451,-226.43 343,-226.43 343,-190.43 451,-190.43 451,-226.43"/>
<text text-anchor="middle" x="397" y="-212.23" font-family="Times,serif" font-size="14.00">Refresh job</text>
<text text-anchor="middle" x="397" y="-197.23" font-family="Times,serif" font-size="14.00">status</text>
</g>
<!-- DoesJobExist1&#45;&gt;RefreshJobStatus -->
<g id="edge4" class="edge">
<title>DoesJobExist1&#45;&gt;RefreshJobStatus</title>
<path fill="none" stroke="darkgreen" d="M297.5,-504.34C297.5,-449.96 297.5,-214 297.5,-214 297.5,-214 332.88,-214 332.88,-214"/>
<polygon fill="darkgreen" stroke="darkgreen" points="332.88,-217.5 342.88,-214 332.88,-210.5 332.88,-217.5"/>
<text text-anchor="middle" x="285" y="-477.14" font-family="Times,serif" font-size="14.00">Yes</text>
</g>
<!-- DoesJobExist1&#45;&gt;LinkUserToJob -->
<!-- DoesJobExist2&#45;&gt;NotFound -->
<g id="edge9" class="edge">
<title>DoesJobExist2&#45;&gt;NotFound</title>
<path fill="none" stroke="darkred" d="M585,-375.28C585,-375.28 585,-52.81 585,-52.81"/>
<polygon fill="darkred" stroke="darkred" points="588.5,-52.81 585,-42.81 581.5,-52.81 588.5,-52.81"/>
<text text-anchor="middle" x="574.5" y="-364.08" font-family="Times,serif" font-size="14.00">No</text>
</g>
<!-- LinkUserToJob&#45;&gt;DB -->
<g id="edge11" class="edge">
<title>LinkUserToJob&#45;&gt;DB</title>
<path fill="none" stroke="#333333" stroke-dasharray="1,5" d="M342.65,-399C342.65,-399 118.1,-399 118.1,-399"/>
<polygon fill="#333333" stroke="#333333" points="118.1,-395.5 108.1,-399 118.1,-402.5 118.1,-395.5"/>
</g>
<!-- LinkUserToJob&#45;&gt;DoesJobExist2 -->
<g id="edge8" class="edge">
<title>LinkUserToJob&#45;&gt;DoesJobExist2</title>
<path fill="none" stroke="darkgreen" d="M461.13,-405C461.13,-405 523.66,-405 523.66,-405"/>
<polygon fill="darkgreen" stroke="darkgreen" points="461.13,-401.5 451.13,-405 461.13,-408.5 461.13,-401.5"/>
<text text-anchor="middle" x="511.16" y="-408.8" font-family="Times,serif" font-size="14.00">Yes</text>
</g>
<!-- LinkUserToSubJobs -->
<g id="node11" class="node">
<title>LinkUserToSubJobs</title>
<polygon fill="none" stroke="black" points="343,-288.93 343,-324.93 451,-324.93 451,-288.93 343,-288.93"/>
<text text-anchor="middle" x="348.5" y="-303.23" font-family="Times,serif" font-size="14.00"> </text>
<polyline fill="none" stroke="black" points="354,-288.93 354,-324.93 "/>
<text text-anchor="middle" x="396.5" y="-310.73" font-family="Times,serif" font-size="14.00">Link user</text>
<text text-anchor="middle" x="396.5" y="-295.73" font-family="Times,serif" font-size="14.00">to sub jobs</text>
<polyline fill="none" stroke="black" points="439,-288.93 439,-324.93 "/>
<text text-anchor="middle" x="445" y="-303.23" font-family="Times,serif" font-size="14.00"> </text>
</g>
<!-- LinkUserToJob&#45;&gt;LinkUserToSubJobs -->
<g id="edge10" class="edge">
<title>LinkUserToJob&#45;&gt;LinkUserToSubJobs</title>
<path fill="none" stroke="darkblue" d="M397,-387.36C397,-387.36 397,-335.21 397,-335.21"/>
<polygon fill="darkblue" stroke="darkblue" points="400.5,-335.21 397,-325.21 393.5,-335.21 400.5,-335.21"/>
</g>
<!-- LinkUserToSubJobs&#45;&gt;RefreshJobStatus -->
<g id="edge12" class="edge">
<title>LinkUserToSubJobs&#45;&gt;RefreshJobStatus</title>
<path fill="none" stroke="darkblue" d="M415,-288.86C415,-288.86 415,-236.71 415,-236.71"/>
<polygon fill="darkblue" stroke="darkblue" points="418.5,-236.71 415,-226.71 411.5,-236.71 418.5,-236.71"/>
</g>
<!-- IsJobStillCached -->
<g id="node12" class="node">
<title>IsJobStillCached</title>
<polygon fill="none" stroke="black" points="209,-238.43 147,-208.43 209,-178.43 271,-208.43 209,-238.43"/>
<text text-anchor="middle" x="209" y="-212.23" font-family="Times,serif" font-size="14.00">Is job</text>
<text text-anchor="middle" x="209" y="-197.23" font-family="Times,serif" font-size="14.00">expired?</text>
</g>
<!-- LinkUserToSubJobs&#45;&gt;IsJobStillCached -->
<!-- IsJobStillCached&#45;&gt;End -->
<g id="edge15" class="edge">
<title>IsJobStillCached&#45;&gt;End</title>
<path fill="none" stroke="darkgreen" d="M223,-185.09C223,-185.09 223,-48.7 223,-48.7"/>
<polygon fill="darkgreen" stroke="darkgreen" points="226.5,-48.7 223,-38.7 219.5,-48.7 226.5,-48.7"/>
<text text-anchor="middle" x="210.5" y="-157.89" font-family="Times,serif" font-size="14.00">Yes</text>
</g>
<!-- IsJobStillCached&#45;&gt;RefreshJobStatus -->
<g id="edge13" class="edge">
<title>IsJobStillCached&#45;&gt;RefreshJobStatus</title>
<path fill="none" stroke="darkblue" d="M267.9,-202C267.9,-202 342.71,-202 342.71,-202"/>
<polygon fill="darkblue" stroke="darkblue" points="267.9,-198.5 257.9,-202 267.9,-205.5 267.9,-198.5"/>
</g>
<!-- UpdateLastUsed -->
<g id="node13" class="node">
<title>UpdateLastUsed</title>
<polygon fill="none" stroke="black" points="182,-128.43 74,-128.43 74,-92.43 182,-92.43 182,-128.43"/>
<text text-anchor="middle" x="128" y="-114.23" font-family="Times,serif" font-size="14.00">Update</text>
<text text-anchor="middle" x="128" y="-99.23" font-family="Times,serif" font-size="14.00">last used</text>
</g>
<!-- IsJobStillCached&#45;&gt;UpdateLastUsed -->
<g id="edge14" class="edge">
<title>IsJobStillCached&#45;&gt;UpdateLastUsed</title>
<path fill="none" stroke="darkred" d="M164.5,-199.73C164.5,-199.73 164.5,-138.5 164.5,-138.5"/>
<polygon fill="darkred" stroke="darkred" points="168,-138.5 164.5,-128.5 161,-138.5 168,-138.5"/>
<text text-anchor="middle" x="154" y="-172.53" font-family="Times,serif" font-size="14.00">No</text>
</g>
<!-- UpdateLastUsed&#45;&gt;End -->
<g id="edge16" class="edge">
<title>UpdateLastUsed&#45;&gt;End</title>
<path fill="none" stroke="darkblue" d="M169,-92.37C169,-92.37 169,-42.99 169,-42.99"/>
<polygon fill="darkblue" stroke="darkblue" points="172.5,-42.99 169,-32.99 165.5,-42.99 172.5,-42.99"/>
</g>
</g>
</svg>
