<?xml version="1.0" encoding="UTF-8" standalone="no"?>
<!DOCTYPE svg PUBLIC "-//W3C//DTD SVG 1.1//EN"
 "http://www.w3.org/Graphics/SVG/1.1/DTD/svg11.dtd">
<!-- Generated by graphviz version 2.43.0 (0)
 -->
<!-- Title: %3 Pages: 1 -->
<svg width="663pt" height="487pt"
 viewBox="0.00 0.00 663.00 487.25" xmlns="http://www.w3.org/2000/svg" xmlns:xlink="http://www.w3.org/1999/xlink">
<g id="graph0" class="graph" transform="scale(1 1) rotate(0) translate(4 483.25)">
<title>%3</title>
<polygon fill="white" stroke="transparent" points="-4,4 -4,-483.25 659,-483.25 659,4 -4,4"/>
<!-- Start -->
<g id="node1" class="node">
<title>Start</title>
<ellipse fill="none" stroke="black" cx="247" cy="-461.25" rx="47" ry="18"/>
<text text-anchor="middle" x="247" y="-457.55" font-family="Times,serif" font-size="14.00">Start</text>
</g>
<!-- More -->
<g id="node5" class="node">
<title>More</title>
<polygon fill="none" stroke="black" points="247,-407.25 166,-362.25 247,-317.25 328,-362.25 247,-407.25"/>
<text text-anchor="middle" x="247" y="-373.55" font-family="Times,serif" font-size="14.00">More</text>
<text text-anchor="middle" x="247" y="-358.55" font-family="Times,serif" font-size="14.00">sub&#45;jobs</text>
<text text-anchor="middle" x="247" y="-343.55" font-family="Times,serif" font-size="14.00">remaining?</text>
</g>
<!-- Start&#45;&gt;More -->
<g id="edge1" class="edge">
<title>Start&#45;&gt;More</title>
<path fill="none" stroke="darkblue" d="M247,-443.09C247,-443.09 247,-417.47 247,-417.47"/>
<polygon fill="darkblue" stroke="darkblue" points="250.5,-417.47 247,-407.47 243.5,-417.47 250.5,-417.47"/>
</g>
<!-- DB -->
<g id="node2" class="node">
<title>DB</title>
<path fill="none" stroke="purple" d="M655,-265.98C655,-267.78 633.93,-269.25 608,-269.25 582.07,-269.25 561,-267.78 561,-265.98 561,-265.98 561,-236.52 561,-236.52 561,-234.72 582.07,-233.25 608,-233.25 633.93,-233.25 655,-234.72 655,-236.52 655,-236.52 655,-265.98 655,-265.98"/>
<path fill="none" stroke="purple" d="M655,-265.98C655,-264.17 633.93,-262.7 608,-262.7 582.07,-262.7 561,-264.17 561,-265.98"/>
<text text-anchor="middle" x="608" y="-247.55" font-family="Times,serif" font-size="14.00">MBlast DB</text>
</g>
<!-- Workspace -->
<g id="node9" class="node">
<title>Workspace</title>
<path fill="none" stroke="purple" d="M644,-181.6C644,-183.68 622.93,-185.38 597,-185.38 571.07,-185.38 550,-183.68 550,-181.6 550,-181.6 550,-147.65 550,-147.65 550,-145.57 571.07,-143.87 597,-143.87 622.93,-143.87 644,-145.57 644,-147.65 644,-147.65 644,-181.6 644,-181.6"/>
<path fill="none" stroke="purple" d="M644,-181.6C644,-179.52 622.93,-177.83 597,-177.83 571.07,-177.83 550,-179.52 550,-181.6"/>
<text text-anchor="middle" x="597" y="-168.43" font-family="Times,serif" font-size="14.00">MBlast</text>
<text text-anchor="middle" x="597" y="-153.43" font-family="Times,serif" font-size="14.00">Workspaces</text>
</g>
<!-- DB&#45;&gt;Workspace -->
<!-- Refresh -->
<g id="node3" class="node">
<title>Refresh</title>
<polygon fill="none" stroke="black" points="395,-233.25 395,-269.25 489,-269.25 489,-233.25 395,-233.25"/>
<text text-anchor="middle" x="399" y="-247.55" font-family="Times,serif" font-size="14.00"> </text>
<polyline fill="none" stroke="black" points="403,-233.25 403,-269.25 "/>
<text text-anchor="middle" x="441.5" y="-255.05" font-family="Times,serif" font-size="14.00">Refresh</text>
<text text-anchor="middle" x="441.5" y="-240.05" font-family="Times,serif" font-size="14.00">Job Status</text>
<polyline fill="none" stroke="black" points="480,-233.25 480,-269.25 "/>
<text text-anchor="middle" x="484.5" y="-247.55" font-family="Times,serif" font-size="14.00"> </text>
</g>
<!-- Refresh&#45;&gt;DB -->
<g id="edge6" class="edge">
<title>Refresh&#45;&gt;DB</title>
<path fill="none" stroke="#333333" stroke-dasharray="1,5" d="M499.12,-257C499.12,-257 550.76,-257 550.76,-257"/>
<polygon fill="#333333" stroke="#333333" points="550.76,-260.5 560.76,-257 550.76,-253.5 550.76,-260.5"/>
<polygon fill="#333333" stroke="#333333" points="499.12,-253.5 489.12,-257 499.12,-260.5 499.12,-253.5"/>
</g>
<!-- Queue -->
<g id="node8" class="node">
<title>Queue</title>
<polygon fill="none" stroke="purple" points="644,-108 550,-108 550,-104 546,-104 546,-100 550,-100 550,-80 546,-80 546,-76 550,-76 550,-72 644,-72 644,-108"/>
<polyline fill="none" stroke="purple" points="550,-104 554,-104 554,-100 550,-100 "/>
<polyline fill="none" stroke="purple" points="550,-80 554,-80 554,-76 550,-76 "/>
<text text-anchor="middle" x="597" y="-86.3" font-family="Times,serif" font-size="14.00">Job queue</text>
</g>
<!-- Refresh&#45;&gt;Queue -->
<g id="edge7" class="edge">
<title>Refresh&#45;&gt;Queue</title>
<path fill="none" stroke="#333333" stroke-dasharray="1,5" d="M457.67,-223.03C457.67,-223.03 457.67,-84 457.67,-84 457.67,-84 539.83,-84 539.83,-84"/>
<polygon fill="#333333" stroke="#333333" points="454.17,-223.03 457.67,-233.03 461.17,-223.03 454.17,-223.03"/>
<polygon fill="#333333" stroke="#333333" points="539.83,-87.5 549.83,-84 539.83,-80.5 539.83,-87.5"/>
</g>
<!-- Refresh&#45;&gt;Workspace -->
<!-- NewWorkspace -->
<g id="node10" class="node">
<title>NewWorkspace</title>
<polygon fill="none" stroke="black" points="321,-182.62 227,-182.62 227,-146.62 321,-146.62 321,-182.62"/>
<text text-anchor="middle" x="274" y="-168.43" font-family="Times,serif" font-size="14.00">Create</text>
<text text-anchor="middle" x="274" y="-153.43" font-family="Times,serif" font-size="14.00">workspace</text>
</g>
<!-- Refresh&#45;&gt;NewWorkspace -->
<!-- IsExpired -->
<g id="node4" class="node">
<title>IsExpired</title>
<polygon fill="none" stroke="black" points="252,-281.25 181,-251.25 252,-221.25 323,-251.25 252,-281.25"/>
<text text-anchor="middle" x="252" y="-255.05" font-family="Times,serif" font-size="14.00">Sub&#45;job is</text>
<text text-anchor="middle" x="252" y="-240.05" font-family="Times,serif" font-size="14.00">expired?</text>
</g>
<!-- IsExpired&#45;&gt;Refresh -->
<g id="edge5" class="edge">
<title>IsExpired&#45;&gt;Refresh</title>
<path fill="none" stroke="darkblue" d="M332.48,-251C332.48,-251 394.99,-251 394.99,-251"/>
<polygon fill="darkblue" stroke="darkblue" points="332.48,-247.5 322.48,-251 332.48,-254.5 332.48,-247.5"/>
</g>
<!-- IsExpired&#45;&gt;More -->
<g id="edge9" class="edge">
<title>IsExpired&#45;&gt;More</title>
<path fill="none" stroke="darkred" d="M252,-281.29C252,-281.29 252,-309.69 252,-309.69"/>
<polygon fill="darkred" stroke="darkred" points="248.5,-309.69 252,-319.69 255.5,-309.69 248.5,-309.69"/>
<text text-anchor="middle" x="241.5" y="-285.09" font-family="Times,serif" font-size="14.00">No</text>
</g>
<!-- IsExpired&#45;&gt;NewWorkspace -->
<g id="edge8" class="edge">
<title>IsExpired&#45;&gt;NewWorkspace</title>
<path fill="none" stroke="darkgreen" d="M274,-230.28C274,-230.28 274,-192.76 274,-192.76"/>
<polygon fill="darkgreen" stroke="darkgreen" points="277.5,-192.76 274,-182.76 270.5,-192.76 277.5,-192.76"/>
<text text-anchor="middle" x="261.5" y="-203.08" font-family="Times,serif" font-size="14.00">Yes</text>
</g>
<!-- Next -->
<g id="node6" class="node">
<title>Next</title>
<polygon fill="none" stroke="black" points="494,-380.25 400,-380.25 400,-344.25 494,-344.25 494,-380.25"/>
<text text-anchor="middle" x="447" y="-366.05" font-family="Times,serif" font-size="14.00">Next</text>
<text text-anchor="middle" x="447" y="-351.05" font-family="Times,serif" font-size="14.00">sub&#45;job</text>
</g>
<!-- More&#45;&gt;Next -->
<g id="edge2" class="edge">
<title>More&#45;&gt;Next</title>
<path fill="none" stroke="darkgreen" d="M327.77,-362C327.77,-362 389.89,-362 389.89,-362"/>
<polygon fill="darkgreen" stroke="darkgreen" points="389.89,-365.5 399.89,-362 389.89,-358.5 389.89,-365.5"/>
<text text-anchor="middle" x="340.27" y="-365.8" font-family="Times,serif" font-size="14.00">Yes</text>
</g>
<!-- Next&#45;&gt;Refresh -->
<g id="edge4" class="edge">
<title>Next&#45;&gt;Refresh</title>
<path fill="none" stroke="darkblue" d="M459.33,-343.92C459.33,-343.92 459.33,-279.61 459.33,-279.61"/>
<polygon fill="darkblue" stroke="darkblue" points="462.83,-279.61 459.33,-269.61 455.83,-279.61 462.83,-279.61"/>
</g>
<!-- Next&#45;&gt;IsExpired -->
<!-- N1 -->
<g id="node13" class="node">
<title>N1</title>
</g>
<!-- Next&#45;&gt;N1 -->
<!-- End -->
<g id="node7" class="node">
<title>End</title>
<ellipse fill="none" stroke="black" cx="47" cy="-362.25" rx="47" ry="18"/>
<text text-anchor="middle" x="47" y="-358.55" font-family="Times,serif" font-size="14.00">End</text>
</g>
<!-- End&#45;&gt;More -->
<g id="edge3" class="edge">
<title>End&#45;&gt;More</title>
<path fill="none" stroke="darkred" d="M104.14,-362C104.14,-362 166.13,-362 166.13,-362"/>
<polygon fill="darkred" stroke="darkred" points="104.14,-358.5 94.14,-362 104.14,-365.5 104.14,-358.5"/>
<text text-anchor="middle" x="155.63" y="-365.8" font-family="Times,serif" font-size="14.00">No</text>
</g>
<!-- Workspace&#45;&gt;Queue -->
<!-- NewWorkspace&#45;&gt;Workspace -->
<g id="edge11" class="edge">
<title>NewWorkspace&#45;&gt;Workspace</title>
<path fill="none" stroke="#333333" stroke-dasharray="5,2" d="M321.31,-164C321.31,-164 539.82,-164 539.82,-164"/>
<polygon fill="#333333" stroke="#333333" points="539.82,-167.5 549.82,-164 539.82,-160.5 539.82,-167.5"/>
</g>
<!-- NewQuery -->
<g id="node11" class="node">
<title>NewQuery</title>
<polygon fill="none" stroke="black" points="321,-108 227,-108 227,-72 321,-72 321,-108"/>
<text text-anchor="middle" x="274" y="-93.8" font-family="Times,serif" font-size="14.00">Create</text>
<text text-anchor="middle" x="274" y="-78.8" font-family="Times,serif" font-size="14.00">query file</text>
</g>
<!-- NewWorkspace&#45;&gt;NewQuery -->
<g id="edge10" class="edge">
<title>NewWorkspace&#45;&gt;NewQuery</title>
<path fill="none" stroke="darkblue" d="M274,-146.56C274,-146.56 274,-118.16 274,-118.16"/>
<polygon fill="darkblue" stroke="darkblue" points="277.5,-118.16 274,-108.16 270.5,-118.16 277.5,-118.16"/>
</g>
<!-- NewQuery&#45;&gt;Workspace -->
<g id="edge13" class="edge">
<title>NewQuery&#45;&gt;Workspace</title>
<path fill="none" stroke="#333333" stroke-dasharray="5,2" d="M321.08,-96C341.79,-96 361.5,-96 361.5,-96 361.5,-96 361.5,-155 361.5,-155 361.5,-155 539.91,-155 539.91,-155"/>
<polygon fill="#333333" stroke="#333333" points="539.91,-158.5 549.91,-155 539.91,-151.5 539.91,-158.5"/>
</g>
<!-- Submit -->
<g id="node12" class="node">
<title>Submit</title>
<polygon fill="none" stroke="black" points="321,-36 227,-36 227,0 321,0 321,-36"/>
<text text-anchor="middle" x="274" y="-21.8" font-family="Times,serif" font-size="14.00">Submit to</text>
<text text-anchor="middle" x="274" y="-6.8" font-family="Times,serif" font-size="14.00">queue</text>
</g>
<!-- NewQuery&#45;&gt;Submit -->
<g id="edge12" class="edge">
<title>NewQuery&#45;&gt;Submit</title>
<path fill="none" stroke="darkblue" d="M274,-71.83C274,-71.83 274,-46.41 274,-46.41"/>
<polygon fill="darkblue" stroke="darkblue" points="277.5,-46.41 274,-36.41 270.5,-46.41 277.5,-46.41"/>
</g>
<!-- Submit&#45;&gt;More -->
<g id="edge14" class="edge">
<title>Submit&#45;&gt;More</title>
<path fill="none" stroke="darkblue" d="M226.99,-18C200.83,-18 173.5,-18 173.5,-18 173.5,-18 173.5,-347.9 173.5,-347.9"/>
<polygon fill="darkblue" stroke="darkblue" points="170,-347.9 173.5,-357.9 177,-347.9 170,-347.9"/>
</g>
<!-- Submit&#45;&gt;Queue -->
<g id="edge15" class="edge">
<title>Submit&#45;&gt;Queue</title>
<path fill="none" stroke="#333333" stroke-dasharray="1,5" d="M321.31,-18C411.03,-18 597,-18 597,-18 597,-18 597,-61.83 597,-61.83"/>
<polygon fill="#333333" stroke="#333333" points="593.5,-61.83 597,-71.83 600.5,-61.83 593.5,-61.83"/>
</g>
<!-- N1&#45;&gt;DB -->
</g>
</svg>
