<?xml version="1.0" encoding="UTF-8" standalone="no"?>
<!DOCTYPE svg PUBLIC "-//W3C//DTD SVG 1.1//EN"
 "http://www.w3.org/Graphics/SVG/1.1/DTD/svg11.dtd">
<!-- Generated by graphviz version 2.43.0 (0)
 -->
<!-- Title: %3 Pages: 1 -->
<svg width="495pt" height="1342pt"
 viewBox="0.00 0.00 495.00 1341.68" xmlns="http://www.w3.org/2000/svg" xmlns:xlink="http://www.w3.org/1999/xlink">
<g id="graph0" class="graph" transform="scale(1 1) rotate(0) translate(4 1337.68)">
<title>%3</title>
<polygon fill="white" stroke="transparent" points="-4,4 -4,-1337.68 491,-1337.68 491,4 -4,4"/>
<!-- 401 -->
<g id="node1" class="node">
<title>401</title>
<ellipse fill="none" stroke="orange" cx="54" cy="-1194.68" rx="54" ry="18"/>
<text text-anchor="middle" x="54" y="-1190.98" font-family="Times,serif" font-size="14.00">401</text>
</g>
<!-- 404 -->
<g id="node2" class="node">
<title>404</title>
<ellipse fill="none" stroke="orange" cx="54" cy="-978.18" rx="54" ry="18"/>
<text text-anchor="middle" x="54" y="-974.48" font-family="Times,serif" font-size="14.00">404</text>
</g>
<!-- 401&#45;&gt;404 -->
<!-- IsUserTokenProvided -->
<g id="node8" class="node">
<title>IsUserTokenProvided</title>
<polygon fill="none" stroke="black" points="251,-1239.68 180,-1194.68 251,-1149.68 322,-1194.68 251,-1239.68"/>
<text text-anchor="middle" x="251" y="-1205.98" font-family="Times,serif" font-size="14.00">Is user</text>
<text text-anchor="middle" x="251" y="-1190.98" font-family="Times,serif" font-size="14.00">token</text>
<text text-anchor="middle" x="251" y="-1175.98" font-family="Times,serif" font-size="14.00">provided?</text>
</g>
<!-- 401&#45;&gt;IsUserTokenProvided -->
<g id="edge3" class="edge">
<title>401&#45;&gt;IsUserTokenProvided</title>
<path fill="none" stroke="darkred" d="M118.33,-1194.68C138.85,-1194.68 159.38,-1194.68 179.9,-1194.68"/>
<polygon fill="darkred" stroke="darkred" points="118.25,-1191.18 108.25,-1194.68 118.25,-1198.18 118.25,-1191.18"/>
<text text-anchor="middle" x="169.4" y="-1198.48" font-family="Times,serif" font-size="14.00">No</text>
</g>
<!-- DoesJobExist2 -->
<g id="node13" class="node">
<title>DoesJobExist2</title>
<polygon fill="none" stroke="black" points="245,-689.68 183,-659.68 245,-629.68 307,-659.68 245,-689.68"/>
<text text-anchor="middle" x="245" y="-663.48" font-family="Times,serif" font-size="14.00">Does job</text>
<text text-anchor="middle" x="245" y="-648.48" font-family="Times,serif" font-size="14.00">exist?</text>
</g>
<!-- 404&#45;&gt;DoesJobExist2 -->
<g id="edge13" class="edge">
<title>404&#45;&gt;DoesJobExist2:w</title>
<path fill="none" stroke="darkred" d="M52.82,-949.76C51.03,-872.69 57.38,-659.68 182,-659.68"/>
<polygon fill="darkred" stroke="darkred" points="49.33,-950.22 53.12,-960.11 56.32,-950.01 49.33,-950.22"/>
<text text-anchor="middle" x="171.5" y="-663.48" font-family="Times,serif" font-size="14.00">No</text>
</g>
<!-- 200 -->
<g id="node3" class="node">
<title>200</title>
<ellipse fill="none" stroke="darkgreen" cx="259" cy="-21.21" rx="54" ry="21.43"/>
<text text-anchor="middle" x="259" y="-25.01" font-family="Times,serif" font-size="14.00">200</text>
<text text-anchor="middle" x="259" y="-10.01" font-family="Times,serif" font-size="14.00">Job details</text>
</g>
<!-- DB -->
<g id="node4" class="node">
<title>DB</title>
<path fill="none" stroke="black" d="M487,-674.4C487,-676.21 462.8,-677.68 433,-677.68 403.2,-677.68 379,-676.21 379,-674.4 379,-674.4 379,-644.95 379,-644.95 379,-643.14 403.2,-641.68 433,-641.68 462.8,-641.68 487,-643.14 487,-644.95 487,-644.95 487,-674.4 487,-674.4"/>
<path fill="none" stroke="black" d="M487,-674.4C487,-672.6 462.8,-671.13 433,-671.13 403.2,-671.13 379,-672.6 379,-674.4"/>
<text text-anchor="middle" x="433" y="-655.98" font-family="Times,serif" font-size="14.00">MBlast DB</text>
</g>
<!-- FS -->
<g id="node5" class="node">
<title>FS</title>
<path fill="none" stroke="black" d="M483,-474.03C483,-476.11 458.8,-477.8 429,-477.8 399.2,-477.8 375,-476.11 375,-474.03 375,-474.03 375,-440.07 375,-440.07 375,-437.99 399.2,-436.3 429,-436.3 458.8,-436.3 483,-437.99 483,-440.07 483,-440.07 483,-474.03 483,-474.03"/>
<path fill="none" stroke="black" d="M483,-474.03C483,-471.95 458.8,-470.26 429,-470.26 399.2,-470.26 375,-471.95 375,-474.03"/>
<text text-anchor="middle" x="429" y="-460.85" font-family="Times,serif" font-size="14.00">MBlast</text>
<text text-anchor="middle" x="429" y="-445.85" font-family="Times,serif" font-size="14.00">workspaces</text>
</g>
<!-- DB&#45;&gt;FS -->
<!-- Queue -->
<g id="node6" class="node">
<title>Queue</title>
<polygon fill="none" stroke="black" points="478,-257.43 370,-257.43 370,-253.43 366,-253.43 366,-249.43 370,-249.43 370,-229.43 366,-229.43 366,-225.43 370,-225.43 370,-221.43 478,-221.43 478,-257.43"/>
<polyline fill="none" stroke="black" points="370,-253.43 374,-253.43 374,-249.43 370,-249.43 "/>
<polyline fill="none" stroke="black" points="370,-229.43 374,-229.43 374,-225.43 370,-225.43 "/>
<text text-anchor="middle" x="424" y="-235.73" font-family="Times,serif" font-size="14.00">Job queue</text>
</g>
<!-- FS&#45;&gt;Queue -->
<!-- Queue&#45;&gt;200 -->
<!-- Start -->
<g id="node7" class="node">
<title>Start</title>
<ellipse fill="none" stroke="darkgreen" cx="251" cy="-1315.68" rx="72.71" ry="18"/>
<text text-anchor="middle" x="251" y="-1311.98" font-family="Times,serif" font-size="14.00">GET /jobs/{job&#45;id}</text>
</g>
<!-- Start&#45;&gt;IsUserTokenProvided -->
<g id="edge1" class="edge">
<title>Start&#45;&gt;IsUserTokenProvided</title>
<path fill="none" stroke="darkblue" d="M251,-1297.63C251,-1285.06 251,-1267.21 251,-1249.95"/>
<polygon fill="darkblue" stroke="darkblue" points="254.5,-1249.91 251,-1239.91 247.5,-1249.91 254.5,-1249.91"/>
</g>
<!-- ValidateJobID -->
<g id="node9" class="node">
<title>ValidateJobID</title>
<polygon fill="none" stroke="black" points="197,-1055.18 197,-1091.18 305,-1091.18 305,-1055.18 197,-1055.18"/>
<text text-anchor="middle" x="202" y="-1069.48" font-family="Times,serif" font-size="14.00"> </text>
<polyline fill="none" stroke="black" points="207,-1055.18 207,-1091.18 "/>
<text text-anchor="middle" x="250.5" y="-1076.98" font-family="Times,serif" font-size="14.00">Job ID hash</text>
<text text-anchor="middle" x="250.5" y="-1061.98" font-family="Times,serif" font-size="14.00">validation</text>
<polyline fill="none" stroke="black" points="294,-1055.18 294,-1091.18 "/>
<text text-anchor="middle" x="299.5" y="-1069.48" font-family="Times,serif" font-size="14.00"> </text>
</g>
<!-- IsUserTokenProvided&#45;&gt;ValidateJobID -->
<g id="edge2" class="edge">
<title>IsUserTokenProvided&#45;&gt;ValidateJobID</title>
<path fill="none" stroke="darkgreen" d="M251,-1149.52C251,-1133.41 251,-1115.68 251,-1101.47"/>
<polygon fill="darkgreen" stroke="darkgreen" points="254.5,-1101.37 251,-1091.37 247.5,-1101.37 254.5,-1101.37"/>
<text text-anchor="middle" x="238.5" y="-1138.32" font-family="Times,serif" font-size="14.00">Yes</text>
</g>
<!-- ValidateJobID&#45;&gt;404 -->
<g id="edge5" class="edge">
<title>ValidateJobID&#45;&gt;404</title>
<path fill="none" stroke="darkred" d="M214.87,-1055.12C180.3,-1038.8 128.33,-1014.26 92.87,-997.53"/>
<polygon fill="darkred" stroke="darkred" points="94.33,-994.34 83.79,-993.24 91.34,-1000.67 94.33,-994.34"/>
<text text-anchor="middle" x="190.37" y="-1043.92" font-family="Times,serif" font-size="14.00">Invalid</text>
<text text-anchor="middle" x="190.37" y="-1028.92" font-family="Times,serif" font-size="14.00">hash</text>
</g>
<!-- LookupUserJob -->
<g id="node10" class="node">
<title>LookupUserJob</title>
<polygon fill="none" stroke="black" points="197,-960.18 197,-996.18 305,-996.18 305,-960.18 197,-960.18"/>
<text text-anchor="middle" x="206" y="-974.48" font-family="Times,serif" font-size="14.00"> </text>
<polyline fill="none" stroke="black" points="215,-960.18 215,-996.18 "/>
<text text-anchor="middle" x="250.5" y="-981.98" font-family="Times,serif" font-size="14.00">Lookup</text>
<text text-anchor="middle" x="250.5" y="-966.98" font-family="Times,serif" font-size="14.00">user job</text>
<polyline fill="none" stroke="black" points="286,-960.18 286,-996.18 "/>
<text text-anchor="middle" x="295.5" y="-974.48" font-family="Times,serif" font-size="14.00"> </text>
</g>
<!-- ValidateJobID&#45;&gt;LookupUserJob -->
<g id="edge4" class="edge">
<title>ValidateJobID&#45;&gt;LookupUserJob</title>
<path fill="none" stroke="darkblue" d="M251,-1055.12C251,-1041.57 251,-1022.36 251,-1006.65"/>
<polygon fill="darkblue" stroke="darkblue" points="254.5,-1006.44 251,-996.44 247.5,-1006.44 254.5,-1006.44"/>
</g>
<!-- LookupUserJob&#45;&gt;DB -->
<g id="edge7" class="edge">
<title>LookupUserJob&#45;&gt;DB</title>
<path fill="none" stroke="#333333" stroke-dasharray="1,5" d="M293.7,-954.76C314.79,-941.77 339.06,-923.64 355,-901.68 407.58,-829.25 425.85,-719.68 431.14,-677.79"/>
<polygon fill="#333333" stroke="#333333" points="291.7,-951.88 284.9,-960.01 295.28,-957.9 291.7,-951.88"/>
</g>
<!-- DoesJobExist1 -->
<g id="node12" class="node">
<title>DoesJobExist1</title>
<polygon fill="none" stroke="black" points="247,-901.68 175,-871.68 247,-841.68 319,-871.68 247,-901.68"/>
<text text-anchor="middle" x="247" y="-875.48" font-family="Times,serif" font-size="14.00">Does user</text>
<text text-anchor="middle" x="247" y="-860.48" font-family="Times,serif" font-size="14.00">job exist?</text>
</g>
<!-- LookupUserJob&#45;&gt;DoesJobExist1 -->
<g id="edge6" class="edge">
<title>LookupUserJob&#45;&gt;DoesJobExist1</title>
<path fill="none" stroke="darkblue" d="M250.34,-959.92C249.84,-946.77 249.12,-928.14 248.48,-911.47"/>
<polygon fill="darkblue" stroke="darkblue" points="251.98,-911.27 248.1,-901.41 244.98,-911.54 251.98,-911.27"/>
</g>
<!-- LookupJob -->
<g id="node11" class="node">
<title>LookupJob</title>
<polygon fill="none" stroke="black" points="301,-783.68 193,-783.68 193,-747.68 301,-747.68 301,-783.68"/>
<text text-anchor="middle" x="247" y="-761.98" font-family="Times,serif" font-size="14.00">Lookup job</text>
</g>
<!-- LookupJob&#45;&gt;DB -->
<g id="edge11" class="edge">
<title>LookupJob&#45;&gt;DB</title>
<path fill="none" stroke="#333333" stroke-dasharray="1,5" d="M286.63,-742.52C321.29,-723.14 370.92,-695.39 402.55,-677.7"/>
<polygon fill="#333333" stroke="#333333" points="284.73,-739.57 277.71,-747.5 288.15,-745.68 284.73,-739.57"/>
</g>
<!-- LookupJob&#45;&gt;DoesJobExist2 -->
<g id="edge10" class="edge">
<title>LookupJob&#45;&gt;DoesJobExist2</title>
<path fill="none" stroke="darkblue" d="M246.67,-747.5C246.42,-734.63 246.07,-716.49 245.76,-700.11"/>
<polygon fill="darkblue" stroke="darkblue" points="249.25,-699.61 245.56,-689.68 242.25,-699.75 249.25,-699.61"/>
</g>
<!-- DoesJobExist1&#45;&gt;LookupJob -->
<g id="edge9" class="edge">
<title>DoesJobExist1&#45;&gt;LookupJob</title>
<path fill="none" stroke="darkred" d="M247,-841.43C247,-826.59 247,-808.67 247,-794.09"/>
<polygon fill="darkred" stroke="darkred" points="250.5,-793.71 247,-783.71 243.5,-793.71 250.5,-793.71"/>
<text text-anchor="middle" x="236.5" y="-830.23" font-family="Times,serif" font-size="14.00">No</text>
</g>
<!-- RefreshJobStatus -->
<g id="node14" class="node">
<title>RefreshJobStatus</title>
<polygon fill="none" stroke="black" points="311,-378.43 203,-378.43 203,-342.43 311,-342.43 311,-378.43"/>
<text text-anchor="middle" x="257" y="-364.23" font-family="Times,serif" font-size="14.00">Refresh job</text>
<text text-anchor="middle" x="257" y="-349.23" font-family="Times,serif" font-size="14.00">status</text>
</g>
<!-- DoesJobExist1&#45;&gt;RefreshJobStatus -->
<g id="edge8" class="edge">
<title>DoesJobExist1&#45;&gt;RefreshJobStatus</title>
<path fill="none" stroke="darkgreen" d="M218.04,-853.65C168.79,-822.25 74,-750.19 74,-660.68 74,-660.68 74,-660.68 74,-552.68 74,-472.96 158.02,-413.47 212.2,-383.39"/>
<polygon fill="darkgreen" stroke="darkgreen" points="214.16,-386.31 221.28,-378.47 210.82,-380.15 214.16,-386.31"/>
<text text-anchor="middle" x="205.54" y="-842.45" font-family="Times,serif" font-size="14.00">Yes</text>
</g>
<!-- LinkUserToJob -->
<g id="node15" class="node">
<title>LinkUserToJob</title>
<polygon fill="none" stroke="black" points="303,-571.68 195,-571.68 195,-535.68 303,-535.68 303,-571.68"/>
<text text-anchor="middle" x="249" y="-557.48" font-family="Times,serif" font-size="14.00">Link user</text>
<text text-anchor="middle" x="249" y="-542.48" font-family="Times,serif" font-size="14.00">to job</text>
</g>
<!-- DoesJobExist2&#45;&gt;LinkUserToJob -->
<g id="edge12" class="edge">
<title>DoesJobExist2&#45;&gt;LinkUserToJob</title>
<path fill="none" stroke="darkgreen" d="M246.1,-629.98C246.68,-614.98 247.38,-596.73 247.95,-581.94"/>
<polygon fill="darkgreen" stroke="darkgreen" points="251.45,-582.02 248.34,-571.89 244.46,-581.75 251.45,-582.02"/>
<text text-anchor="middle" x="233.6" y="-618.78" font-family="Times,serif" font-size="14.00">Yes</text>
</g>
<!-- RefreshJobStatus&#45;&gt;FS -->
<g id="edge19" class="edge">
<title>RefreshJobStatus&#45;&gt;FS</title>
<path fill="none" stroke="#333333" stroke-dasharray="1,5" d="M297.26,-383.57C326.52,-399.67 365.75,-421.26 393.78,-436.67"/>
<polygon fill="#333333" stroke="#333333" points="298.58,-380.31 288.13,-378.55 295.21,-386.44 298.58,-380.31"/>
</g>
<!-- RefreshJobStatus&#45;&gt;Queue -->
<g id="edge18" class="edge">
<title>RefreshJobStatus&#45;&gt;Queue</title>
<path fill="none" stroke="#333333" stroke-dasharray="1,5" d="M280.93,-342.38C310.07,-321.61 359.41,-286.45 391.85,-263.33"/>
<polygon fill="#333333" stroke="#333333" points="394,-266.1 400.12,-257.44 389.94,-260.4 394,-266.1"/>
</g>
<!-- IsJobStillCached -->
<g id="node17" class="node">
<title>IsJobStillCached</title>
<polygon fill="none" stroke="black" points="90,-284.43 28,-239.43 90,-194.43 152,-239.43 90,-284.43"/>
<text text-anchor="middle" x="90" y="-250.73" font-family="Times,serif" font-size="14.00">Is job</text>
<text text-anchor="middle" x="90" y="-235.73" font-family="Times,serif" font-size="14.00">status</text>
<text text-anchor="middle" x="90" y="-220.73" font-family="Times,serif" font-size="14.00">expired?</text>
</g>
<!-- RefreshJobStatus&#45;&gt;IsJobStillCached -->
<g id="edge17" class="edge">
<title>RefreshJobStatus&#45;&gt;IsJobStillCached</title>
<path fill="none" stroke="darkblue" d="M233.07,-342.38C205.92,-323.03 161.22,-291.18 129.01,-268.22"/>
<polygon fill="darkblue" stroke="darkblue" points="130.87,-265.25 120.69,-262.3 126.8,-270.95 130.87,-265.25"/>
</g>
<!-- UpdateLastUsed -->
<g id="node18" class="node">
<title>UpdateLastUsed</title>
<polygon fill="none" stroke="black" points="313,-136.43 205,-136.43 205,-100.43 313,-100.43 313,-136.43"/>
<text text-anchor="middle" x="259" y="-122.23" font-family="Times,serif" font-size="14.00">Update</text>
<text text-anchor="middle" x="259" y="-107.23" font-family="Times,serif" font-size="14.00">last used</text>
</g>
<!-- RefreshJobStatus&#45;&gt;UpdateLastUsed -->
<!-- LinkUserToJob&#45;&gt;DB -->
<g id="edge15" class="edge">
<title>LinkUserToJob&#45;&gt;DB</title>
<path fill="none" stroke="#333333" stroke-dasharray="1,5" d="M279.12,-571.7C310.41,-589.39 359.51,-617.14 393.8,-636.52"/>
<polygon fill="#333333" stroke="#333333" points="392.19,-639.63 402.62,-641.5 395.63,-633.54 392.19,-639.63"/>
</g>
<!-- LinkUserToSubJobs -->
<g id="node16" class="node">
<title>LinkUserToSubJobs</title>
<polygon fill="none" stroke="black" points="195,-439.05 195,-475.05 303,-475.05 303,-439.05 195,-439.05"/>
<text text-anchor="middle" x="200.5" y="-453.35" font-family="Times,serif" font-size="14.00"> </text>
<polyline fill="none" stroke="black" points="206,-439.05 206,-475.05 "/>
<text text-anchor="middle" x="248.5" y="-460.85" font-family="Times,serif" font-size="14.00">Link user</text>
<text text-anchor="middle" x="248.5" y="-445.85" font-family="Times,serif" font-size="14.00">to sub jobs</text>
<polyline fill="none" stroke="black" points="291,-439.05 291,-475.05 "/>
<text text-anchor="middle" x="297" y="-453.35" font-family="Times,serif" font-size="14.00"> </text>
</g>
<!-- LinkUserToJob&#45;&gt;LinkUserToSubJobs -->
<g id="edge14" class="edge">
<title>LinkUserToJob&#45;&gt;LinkUserToSubJobs</title>
<path fill="none" stroke="darkblue" d="M249,-535.32C249,-521.45 249,-501.74 249,-485.7"/>
<polygon fill="darkblue" stroke="darkblue" points="252.5,-485.3 249,-475.3 245.5,-485.3 252.5,-485.3"/>
</g>
<!-- LinkUserToSubJobs&#45;&gt;RefreshJobStatus -->
<g id="edge16" class="edge">
<title>LinkUserToSubJobs&#45;&gt;RefreshJobStatus</title>
<path fill="none" stroke="darkblue" d="M250.47,-438.7C251.64,-424.82 253.31,-405.11 254.66,-389.07"/>
<polygon fill="darkblue" stroke="darkblue" points="258.19,-388.93 255.54,-378.67 251.21,-388.34 258.19,-388.93"/>
</g>
<!-- IsJobStillCached&#45;&gt;200 -->
<g id="edge21" class="edge">
<title>IsJobStillCached:s&#45;&gt;200</title>
<path fill="none" stroke="darkgreen" d="M90,-194.43C90,-122.65 165.7,-69.81 215.77,-42.71"/>
<polygon fill="darkgreen" stroke="darkgreen" points="217.59,-45.71 224.8,-37.95 214.32,-39.52 217.59,-45.71"/>
<text text-anchor="middle" x="77.5" y="-183.23" font-family="Times,serif" font-size="14.00">Yes</text>
</g>
<!-- IsJobStillCached&#45;&gt;UpdateLastUsed -->
<g id="edge20" class="edge">
<title>IsJobStillCached:e&#45;&gt;UpdateLastUsed</title>
<path fill="none" stroke="darkred" d="M153,-239.43C165.49,-239.43 212.71,-180.25 239.72,-145.01"/>
<polygon fill="darkred" stroke="darkred" points="242.84,-146.69 246.12,-136.62 237.27,-142.45 242.84,-146.69"/>
<text text-anchor="middle" x="163.5" y="-243.23" font-family="Times,serif" font-size="14.00">No</text>
</g>
<!-- UpdateLastUsed&#45;&gt;200 -->
<g id="edge22" class="edge">
<title>UpdateLastUsed&#45;&gt;200</title>
<path fill="none" stroke="darkblue" d="M259,-100.4C259,-87.28 259,-68.78 259,-53.06"/>
<polygon fill="darkblue" stroke="darkblue" points="262.5,-52.73 259,-42.73 255.5,-52.73 262.5,-52.73"/>
</g>
</g>
</svg>
