<?xml version="1.0" encoding="UTF-8" standalone="no"?>
<!DOCTYPE svg PUBLIC "-//W3C//DTD SVG 1.1//EN"
 "http://www.w3.org/Graphics/SVG/1.1/DTD/svg11.dtd">
<!-- Generated by graphviz version 2.43.0 (0)
 -->
<!-- Title: %3 Pages: 1 -->
<svg width="332pt" height="829pt"
 viewBox="0.00 0.00 331.60 829.43" xmlns="http://www.w3.org/2000/svg" xmlns:xlink="http://www.w3.org/1999/xlink">
<g id="graph0" class="graph" transform="scale(1 1) rotate(0) translate(4 825.43)">
<title>%3</title>
<polygon fill="white" stroke="transparent" points="-4,4 -4,-825.43 327.6,-825.43 327.6,4 -4,4"/>
<!-- 401 -->
<g id="node1" class="node">
<title>401</title>
<ellipse fill="none" stroke="orange" cx="54" cy="-682.43" rx="54" ry="18"/>
<text text-anchor="middle" x="54" y="-678.73" font-family="Times,serif" font-size="14.00">401</text>
</g>
<!-- 404 -->
<g id="node2" class="node">
<title>404</title>
<ellipse fill="none" stroke="orange" cx="54" cy="-560.93" rx="54" ry="18"/>
<text text-anchor="middle" x="54" y="-557.23" font-family="Times,serif" font-size="14.00">404</text>
</g>
<!-- 401&#45;&gt;404 -->
<!-- IsUserTokenProvided -->
<g id="node5" class="node">
<title>IsUserTokenProvided</title>
<polygon fill="none" stroke="black" points="251,-727.43 180,-682.43 251,-637.43 322,-682.43 251,-727.43"/>
<text text-anchor="middle" x="251" y="-693.73" font-family="Times,serif" font-size="14.00">Is user</text>
<text text-anchor="middle" x="251" y="-678.73" font-family="Times,serif" font-size="14.00">token</text>
<text text-anchor="middle" x="251" y="-663.73" font-family="Times,serif" font-size="14.00">provided?</text>
</g>
<!-- 401&#45;&gt;IsUserTokenProvided -->
<g id="edge3" class="edge">
<title>401&#45;&gt;IsUserTokenProvided</title>
<path fill="none" stroke="darkred" d="M118.09,-682C118.09,-682 180.4,-682 180.4,-682"/>
<polygon fill="darkred" stroke="darkred" points="118.09,-678.5 108.09,-682 118.09,-685.5 118.09,-678.5"/>
<text text-anchor="middle" x="169.9" y="-685.8" font-family="Times,serif" font-size="14.00">No</text>
</g>
<!-- 200 -->
<g id="node3" class="node">
<title>200</title>
<ellipse fill="none" stroke="darkgreen" cx="251" cy="-21.21" rx="54" ry="21.43"/>
<text text-anchor="middle" x="251" y="-25.01" font-family="Times,serif" font-size="14.00">200</text>
<text text-anchor="middle" x="251" y="-10.01" font-family="Times,serif" font-size="14.00">Job details</text>
</g>
<!-- Start -->
<g id="node4" class="node">
<title>Start</title>
<ellipse fill="none" stroke="darkgreen" cx="251" cy="-803.43" rx="72.71" ry="18"/>
<text text-anchor="middle" x="251" y="-799.73" font-family="Times,serif" font-size="14.00">GET /jobs/{job&#45;id}</text>
</g>
<!-- Start&#45;&gt;IsUserTokenProvided -->
<g id="edge1" class="edge">
<title>Start&#45;&gt;IsUserTokenProvided</title>
<path fill="none" stroke="darkblue" d="M251,-785.31C251,-785.31 251,-737.62 251,-737.62"/>
<polygon fill="darkblue" stroke="darkblue" points="254.5,-737.62 251,-727.62 247.5,-737.62 254.5,-737.62"/>
</g>
<!-- ValidateJobID -->
<g id="node6" class="node">
<title>ValidateJobID</title>
<polygon fill="none" stroke="black" points="197,-542.93 197,-578.93 305,-578.93 305,-542.93 197,-542.93"/>
<text text-anchor="middle" x="202" y="-557.23" font-family="Times,serif" font-size="14.00"> </text>
<polyline fill="none" stroke="black" points="207,-542.93 207,-578.93 "/>
<text text-anchor="middle" x="250.5" y="-564.73" font-family="Times,serif" font-size="14.00">Job ID hash</text>
<text text-anchor="middle" x="250.5" y="-549.73" font-family="Times,serif" font-size="14.00">validation</text>
<polyline fill="none" stroke="black" points="294,-542.93 294,-578.93 "/>
<text text-anchor="middle" x="299.5" y="-557.23" font-family="Times,serif" font-size="14.00"> </text>
</g>
<!-- IsUserTokenProvided&#45;&gt;ValidateJobID -->
<g id="edge2" class="edge">
<title>IsUserTokenProvided&#45;&gt;ValidateJobID</title>
<path fill="none" stroke="darkgreen" d="M251,-637.18C251,-637.18 251,-589.22 251,-589.22"/>
<polygon fill="darkgreen" stroke="darkgreen" points="254.5,-589.22 251,-579.22 247.5,-589.22 254.5,-589.22"/>
<text text-anchor="middle" x="238.5" y="-625.98" font-family="Times,serif" font-size="14.00">Yes</text>
</g>
<!-- ValidateJobID&#45;&gt;404 -->
<g id="edge5" class="edge">
<title>ValidateJobID&#45;&gt;404</title>
<path fill="none" stroke="darkred" d="M196.91,-560C196.91,-560 117.97,-560 117.97,-560"/>
<polygon fill="darkred" stroke="darkred" points="117.97,-556.5 107.97,-560 117.97,-563.5 117.97,-556.5"/>
<text text-anchor="middle" x="172.41" y="-578.8" font-family="Times,serif" font-size="14.00">Invalid</text>
<text text-anchor="middle" x="172.41" y="-563.8" font-family="Times,serif" font-size="14.00">hash</text>
</g>
<!-- GetAndLinkUserJob -->
<g id="node7" class="node">
<title>GetAndLinkUserJob</title>
<polygon fill="none" stroke="black" points="197,-447.93 197,-483.93 305,-483.93 305,-447.93 197,-447.93"/>
<text text-anchor="middle" x="200.5" y="-462.23" font-family="Times,serif" font-size="14.00"> </text>
<polyline fill="none" stroke="black" points="204,-447.93 204,-483.93 "/>
<text text-anchor="middle" x="251" y="-469.73" font-family="Times,serif" font-size="14.00">Get and Link</text>
<text text-anchor="middle" x="251" y="-454.73" font-family="Times,serif" font-size="14.00">User Job</text>
<polyline fill="none" stroke="black" points="298,-447.93 298,-483.93 "/>
<text text-anchor="middle" x="301.5" y="-462.23" font-family="Times,serif" font-size="14.00"> </text>
</g>
<!-- ValidateJobID&#45;&gt;GetAndLinkUserJob -->
<g id="edge4" class="edge">
<title>ValidateJobID&#45;&gt;GetAndLinkUserJob</title>
<path fill="none" stroke="darkblue" d="M251,-542.61C251,-542.61 251,-494.19 251,-494.19"/>
<polygon fill="darkblue" stroke="darkblue" points="254.5,-494.19 251,-484.19 247.5,-494.19 254.5,-494.19"/>
</g>
<!-- GetAndLinkUserJob&#45;&gt;404 -->
<g id="edge7" class="edge">
<title>GetAndLinkUserJob&#45;&gt;404</title>
<path fill="none" stroke="darkred" d="M196.87,-465C139.93,-465 58.5,-465 58.5,-465 58.5,-465 58.5,-532.88 58.5,-532.88"/>
<polygon fill="darkred" stroke="darkred" points="55,-532.88 58.5,-542.88 62,-532.88 55,-532.88"/>
<text text-anchor="middle" x="148.87" y="-468.8" font-family="Times,serif" font-size="14.00">Job not found</text>
</g>
<!-- RefreshJobStatus -->
<g id="node8" class="node">
<title>RefreshJobStatus</title>
<polygon fill="none" stroke="black" points="197,-352.93 197,-388.93 305,-388.93 305,-352.93 197,-352.93"/>
<text text-anchor="middle" x="204" y="-367.23" font-family="Times,serif" font-size="14.00"> </text>
<polyline fill="none" stroke="black" points="211,-352.93 211,-388.93 "/>
<text text-anchor="middle" x="251" y="-374.73" font-family="Times,serif" font-size="14.00">Refresh</text>
<text text-anchor="middle" x="251" y="-359.73" font-family="Times,serif" font-size="14.00">job status</text>
<polyline fill="none" stroke="black" points="291,-352.93 291,-388.93 "/>
<text text-anchor="middle" x="298" y="-367.23" font-family="Times,serif" font-size="14.00"> </text>
</g>
<!-- GetAndLinkUserJob&#45;&gt;RefreshJobStatus -->
<g id="edge6" class="edge">
<title>GetAndLinkUserJob&#45;&gt;RefreshJobStatus</title>
<path fill="none" stroke="darkblue" d="M251,-447.61C251,-447.61 251,-399.19 251,-399.19"/>
<polygon fill="darkblue" stroke="darkblue" points="254.5,-399.19 251,-389.19 247.5,-399.19 254.5,-399.19"/>
</g>
<!-- RefreshSubJobStatus -->
<g id="node9" class="node">
<title>RefreshSubJobStatus</title>
<polygon fill="none" stroke="black" points="197,-248.93 197,-293.93 305,-293.93 305,-248.93 197,-248.93"/>
<text text-anchor="middle" x="205.5" y="-267.73" font-family="Times,serif" font-size="14.00"> </text>
<polyline fill="none" stroke="black" points="214,-248.93 214,-293.93 "/>
<text text-anchor="middle" x="250.5" y="-282.73" font-family="Times,serif" font-size="14.00">Refresh</text>
<text text-anchor="middle" x="250.5" y="-267.73" font-family="Times,serif" font-size="14.00">sub&#45;job</text>
<text text-anchor="middle" x="250.5" y="-252.73" font-family="Times,serif" font-size="14.00">statuses</text>
<polyline fill="none" stroke="black" points="287,-248.93 287,-293.93 "/>
<text text-anchor="middle" x="296" y="-267.73" font-family="Times,serif" font-size="14.00"> </text>
</g>
<!-- RefreshJobStatus&#45;&gt;RefreshSubJobStatus -->
<g id="edge8" class="edge">
<title>RefreshJobStatus&#45;&gt;RefreshSubJobStatus</title>
<path fill="none" stroke="darkblue" d="M251,-352.68C251,-352.68 251,-304.1 251,-304.1"/>
<polygon fill="darkblue" stroke="darkblue" points="254.5,-304.1 251,-294.1 247.5,-304.1 254.5,-304.1"/>
</g>
<!-- IsJobStillCached -->
<g id="node10" class="node">
<title>IsJobStillCached</title>
<polygon fill="none" stroke="black" points="251,-190.43 189,-145.43 251,-100.43 313,-145.43 251,-190.43"/>
<text text-anchor="middle" x="251" y="-156.73" font-family="Times,serif" font-size="14.00">Is job</text>
<text text-anchor="middle" x="251" y="-141.73" font-family="Times,serif" font-size="14.00">status</text>
<text text-anchor="middle" x="251" y="-126.73" font-family="Times,serif" font-size="14.00">expired?</text>
</g>
<!-- RefreshSubJobStatus&#45;&gt;IsJobStillCached -->
<g id="edge9" class="edge">
<title>RefreshSubJobStatus&#45;&gt;IsJobStillCached</title>
<path fill="none" stroke="darkblue" d="M251,-248.9C251,-248.9 251,-200.46 251,-200.46"/>
<polygon fill="darkblue" stroke="darkblue" points="254.5,-200.46 251,-190.46 247.5,-200.46 254.5,-200.46"/>
</g>
<!-- IsJobStillCached&#45;&gt;200 -->
<g id="edge11" class="edge">
<title>IsJobStillCached&#45;&gt;200</title>
<path fill="none" stroke="darkgreen" d="M251,-100.23C251,-100.23 251,-52.55 251,-52.55"/>
<polygon fill="darkgreen" stroke="darkgreen" points="254.5,-52.55 251,-42.55 247.5,-52.55 254.5,-52.55"/>
<text text-anchor="middle" x="238.5" y="-89.03" font-family="Times,serif" font-size="14.00">Yes</text>
</g>
<!-- UpdateLastUsed -->
<g id="node11" class="node">
<title>UpdateLastUsed</title>
<polygon fill="none" stroke="black" points="117,-163.43 9,-163.43 9,-127.43 117,-127.43 117,-163.43"/>
<text text-anchor="middle" x="63" y="-149.23" font-family="Times,serif" font-size="14.00">Update</text>
<text text-anchor="middle" x="63" y="-134.23" font-family="Times,serif" font-size="14.00">last used</text>
</g>
<!-- UpdateLastUsed&#45;&gt;200 -->
<g id="edge12" class="edge">
<title>UpdateLastUsed&#45;&gt;200</title>
<path fill="none" stroke="darkblue" d="M63,-127.33C63,-92.82 63,-21 63,-21 63,-21 186.87,-21 186.87,-21"/>
<polygon fill="darkblue" stroke="darkblue" points="186.87,-24.5 196.87,-21 186.87,-17.5 186.87,-24.5"/>
</g>
<!-- UpdateLastUsed&#45;&gt;IsJobStillCached -->
<g id="edge10" class="edge">
<title>UpdateLastUsed&#45;&gt;IsJobStillCached</title>
<path fill="none" stroke="darkred" d="M127.13,-145C127.13,-145 189.32,-145 189.32,-145"/>
<polygon fill="darkred" stroke="darkred" points="127.13,-141.5 117.13,-145 127.13,-148.5 127.13,-141.5"/>
<text text-anchor="middle" x="178.82" y="-148.8" font-family="Times,serif" font-size="14.00">No</text>
</g>
</g>
</svg>
