<?xml version="1.0" encoding="UTF-8" standalone="no"?>
<!DOCTYPE svg PUBLIC "-//W3C//DTD SVG 1.1//EN"
 "http://www.w3.org/Graphics/SVG/1.1/DTD/svg11.dtd">
<!-- Generated by graphviz version 2.43.0 (0)
 -->
<!-- Title: %3 Pages: 1 -->
<svg width="524pt" height="717pt"
 viewBox="0.00 0.00 524.00 717.43" xmlns="http://www.w3.org/2000/svg" xmlns:xlink="http://www.w3.org/1999/xlink">
<g id="graph0" class="graph" transform="scale(1 1) rotate(0) translate(4 713.43)">
<title>%3</title>
<polygon fill="white" stroke="transparent" points="-4,4 -4,-713.43 520,-713.43 520,4 -4,4"/>
<!-- 401 -->
<g id="node1" class="node">
<title>401</title>
<ellipse fill="none" stroke="orange" cx="61" cy="-592.43" rx="54" ry="18"/>
<text text-anchor="middle" x="61" y="-588.73" font-family="Times,serif" font-size="14.00">401</text>
</g>
<!-- IsUserTokenProvided -->
<g id="node5" class="node">
<title>IsUserTokenProvided</title>
<polygon fill="none" stroke="black" points="258,-637.43 187,-592.43 258,-547.43 329,-592.43 258,-637.43"/>
<text text-anchor="middle" x="258" y="-603.73" font-family="Times,serif" font-size="14.00">Is user</text>
<text text-anchor="middle" x="258" y="-588.73" font-family="Times,serif" font-size="14.00">token</text>
<text text-anchor="middle" x="258" y="-573.73" font-family="Times,serif" font-size="14.00">provided?</text>
</g>
<!-- 401&#45;&gt;IsUserTokenProvided -->
<g id="edge3" class="edge">
<title>401&#45;&gt;IsUserTokenProvided</title>
<path fill="none" stroke="darkred" d="M125.33,-592.43C145.85,-592.43 166.38,-592.43 186.9,-592.43"/>
<polygon fill="darkred" stroke="darkred" points="125.25,-588.93 115.25,-592.43 125.25,-595.93 125.25,-588.93"/>
<text text-anchor="middle" x="176.4" y="-596.23" font-family="Times,serif" font-size="14.00">No</text>
</g>
<!-- 404 -->
<g id="node2" class="node">
<title>404</title>
<ellipse fill="none" stroke="orange" cx="316" cy="-367.43" rx="54" ry="18"/>
<text text-anchor="middle" x="316" y="-363.73" font-family="Times,serif" font-size="14.00">404</text>
</g>
<!-- LinkUserToJob -->
<g id="node11" class="node">
<title>LinkUserToJob</title>
<polygon fill="none" stroke="black" points="224,-313.43 116,-313.43 116,-277.43 224,-277.43 224,-313.43"/>
<text text-anchor="middle" x="170" y="-299.23" font-family="Times,serif" font-size="14.00">Link user</text>
<text text-anchor="middle" x="170" y="-284.23" font-family="Times,serif" font-size="14.00">to job</text>
</g>
<!-- 404&#45;&gt;LinkUserToJob -->
<!-- 200 -->
<g id="node3" class="node">
<title>200</title>
<ellipse fill="none" stroke="darkgreen" cx="364" cy="-21.21" rx="54" ry="21.43"/>
<text text-anchor="middle" x="364" y="-25.01" font-family="Times,serif" font-size="14.00">200</text>
<text text-anchor="middle" x="364" y="-10.01" font-family="Times,serif" font-size="14.00">Job details</text>
</g>
<!-- Start -->
<g id="node4" class="node">
<title>Start</title>
<ellipse fill="none" stroke="darkgreen" cx="258" cy="-691.43" rx="72.71" ry="18"/>
<text text-anchor="middle" x="258" y="-687.73" font-family="Times,serif" font-size="14.00">GET /jobs/{job&#45;id}</text>
</g>
<!-- Start&#45;&gt;IsUserTokenProvided -->
<g id="edge1" class="edge">
<title>Start&#45;&gt;IsUserTokenProvided</title>
<path fill="none" stroke="darkblue" d="M258,-673.08C258,-665.8 258,-656.89 258,-647.7"/>
<polygon fill="darkblue" stroke="darkblue" points="261.5,-647.68 258,-637.68 254.5,-647.68 261.5,-647.68"/>
</g>
<!-- ValidateJobID -->
<g id="node6" class="node">
<title>ValidateJobID</title>
<polygon fill="none" stroke="black" points="509,-610.43 401,-610.43 401,-574.43 509,-574.43 509,-610.43"/>
<text text-anchor="middle" x="455" y="-588.73" font-family="Times,serif" font-size="14.00">Validate job ID</text>
</g>
<!-- IsUserTokenProvided&#45;&gt;ValidateJobID -->
<g id="edge2" class="edge">
<title>IsUserTokenProvided&#45;&gt;ValidateJobID</title>
<path fill="none" stroke="darkgreen" d="M329.18,-592.43C349.74,-592.43 370.29,-592.43 390.85,-592.43"/>
<polygon fill="darkgreen" stroke="darkgreen" points="390.94,-595.93 400.94,-592.43 390.94,-588.93 390.94,-595.93"/>
<text text-anchor="middle" x="341.68" y="-596.23" font-family="Times,serif" font-size="14.00">Yes</text>
</g>
<!-- IsJobIDValid -->
<g id="node7" class="node">
<title>IsJobIDValid</title>
<polygon fill="none" stroke="black" points="455,-496.43 394,-466.43 455,-436.43 516,-466.43 455,-496.43"/>
<text text-anchor="middle" x="455" y="-470.23" font-family="Times,serif" font-size="14.00">Is job ID</text>
<text text-anchor="middle" x="455" y="-455.23" font-family="Times,serif" font-size="14.00">valid?</text>
</g>
<!-- ValidateJobID&#45;&gt;IsJobIDValid -->
<g id="edge4" class="edge">
<title>ValidateJobID&#45;&gt;IsJobIDValid</title>
<path fill="none" stroke="darkblue" d="M455,-574.18C455,-556.76 455,-529.23 455,-506.49"/>
<polygon fill="darkblue" stroke="darkblue" points="458.5,-506.43 455,-496.43 451.5,-506.43 458.5,-506.43"/>
</g>
<!-- IsJobIDValid&#45;&gt;404 -->
<g id="edge6" class="edge">
<title>IsJobIDValid&#45;&gt;404</title>
<path fill="none" stroke="darkred" d="M430.47,-448.31C407.18,-432.06 372.1,-407.57 346.91,-390"/>
<polygon fill="darkred" stroke="darkred" points="348.65,-386.94 338.45,-384.09 344.65,-392.68 348.65,-386.94"/>
<text text-anchor="middle" x="419.97" y="-437.11" font-family="Times,serif" font-size="14.00">No</text>
</g>
<!-- DoesJobExist -->
<g id="node8" class="node">
<title>DoesJobExist</title>
<polygon fill="none" stroke="black" points="260,-496.43 198,-466.43 260,-436.43 322,-466.43 260,-496.43"/>
<text text-anchor="middle" x="260" y="-470.23" font-family="Times,serif" font-size="14.00">Does job</text>
<text text-anchor="middle" x="260" y="-455.23" font-family="Times,serif" font-size="14.00">exist?</text>
</g>
<!-- DoesJobExist&#45;&gt;404 -->
<g id="edge8" class="edge">
<title>DoesJobExist&#45;&gt;404</title>
<path fill="none" stroke="darkred" d="M273.27,-442.44C281.68,-427.87 292.57,-409.01 301.25,-393.97"/>
<polygon fill="darkred" stroke="darkred" points="304.36,-395.59 306.33,-385.18 298.3,-392.09 304.36,-395.59"/>
<text text-anchor="middle" x="262.77" y="-431.24" font-family="Times,serif" font-size="14.00">No</text>
</g>
<!-- DoesJobExist&#45;&gt;IsJobIDValid -->
<g id="edge5" class="edge">
<title>DoesJobExist&#45;&gt;IsJobIDValid</title>
<path fill="none" stroke="darkgreen" d="M332.19,-466.43C352.79,-466.43 373.39,-466.43 393.99,-466.43"/>
<polygon fill="darkgreen" stroke="darkgreen" points="332.08,-462.93 322.08,-466.43 332.08,-469.93 332.08,-462.93"/>
<text text-anchor="middle" x="381.49" y="-470.23" font-family="Times,serif" font-size="14.00">Yes</text>
</g>
<!-- IsUserLinkedToJob -->
<g id="node9" class="node">
<title>IsUserLinkedToJob</title>
<polygon fill="none" stroke="black" points="63,-511.43 0,-466.43 63,-421.43 126,-466.43 63,-511.43"/>
<text text-anchor="middle" x="63" y="-477.73" font-family="Times,serif" font-size="14.00">Is user</text>
<text text-anchor="middle" x="63" y="-462.73" font-family="Times,serif" font-size="14.00">linked to</text>
<text text-anchor="middle" x="63" y="-447.73" font-family="Times,serif" font-size="14.00">job?</text>
</g>
<!-- IsUserLinkedToJob&#45;&gt;DoesJobExist -->
<g id="edge7" class="edge">
<title>IsUserLinkedToJob&#45;&gt;DoesJobExist</title>
<path fill="none" stroke="darkgreen" d="M136.18,-466.43C156.7,-466.43 177.23,-466.43 197.76,-466.43"/>
<polygon fill="darkgreen" stroke="darkgreen" points="136.1,-462.93 126.1,-466.43 136.1,-469.93 136.1,-462.93"/>
<text text-anchor="middle" x="185.26" y="-470.23" font-family="Times,serif" font-size="14.00">Yes</text>
</g>
<!-- RefreshJobStatus -->
<g id="node10" class="node">
<title>RefreshJobStatus</title>
<polygon fill="none" stroke="black" points="142,-141.43 34,-141.43 34,-105.43 142,-105.43 142,-141.43"/>
<text text-anchor="middle" x="88" y="-127.23" font-family="Times,serif" font-size="14.00">Refresh job</text>
<text text-anchor="middle" x="88" y="-112.23" font-family="Times,serif" font-size="14.00">status</text>
</g>
<!-- IsUserLinkedToJob&#45;&gt;RefreshJobStatus -->
<g id="edge9" class="edge">
<title>IsUserLinkedToJob&#45;&gt;RefreshJobStatus</title>
<path fill="none" stroke="darkgreen" d="M65.32,-422.9C68.24,-371.21 73.65,-281.36 80,-204.43 81.46,-186.79 83.43,-167.01 85.05,-151.53"/>
<polygon fill="darkgreen" stroke="darkgreen" points="88.54,-151.89 86.11,-141.58 81.57,-151.15 88.54,-151.89"/>
<text text-anchor="middle" x="52.82" y="-411.7" font-family="Times,serif" font-size="14.00">Yes</text>
</g>
<!-- IsUserLinkedToJob&#45;&gt;LinkUserToJob -->
<g id="edge10" class="edge">
<title>IsUserLinkedToJob&#45;&gt;LinkUserToJob</title>
<path fill="none" stroke="darkred" d="M82.38,-434.82C102.68,-402.75 134.24,-352.91 153.42,-322.61"/>
<polygon fill="darkred" stroke="darkred" points="156.56,-324.19 158.95,-313.87 150.65,-320.45 156.56,-324.19"/>
<text text-anchor="middle" x="92.88" y="-423.62" font-family="Times,serif" font-size="14.00">No</text>
</g>
<!-- IsJobStillCached -->
<g id="node13" class="node">
<title>IsJobStillCached</title>
<polygon fill="none" stroke="black" points="272,-168.43 214,-123.43 272,-78.43 330,-123.43 272,-168.43"/>
<text text-anchor="middle" x="272" y="-134.73" font-family="Times,serif" font-size="14.00">Is job</text>
<text text-anchor="middle" x="272" y="-119.73" font-family="Times,serif" font-size="14.00">still</text>
<text text-anchor="middle" x="272" y="-104.73" font-family="Times,serif" font-size="14.00">cached?</text>
</g>
<!-- RefreshJobStatus&#45;&gt;IsJobStillCached -->
<g id="edge13" class="edge">
<title>RefreshJobStatus&#45;&gt;IsJobStillCached</title>
<path fill="none" stroke="darkblue" d="M142.27,-123.43C162.81,-123.43 183.35,-123.43 203.89,-123.43"/>
<polygon fill="darkblue" stroke="darkblue" points="203.97,-126.93 213.97,-123.43 203.97,-119.93 203.97,-126.93"/>
</g>
<!-- LinkUserToSubJobs -->
<g id="node12" class="node">
<title>LinkUserToSubJobs</title>
<polygon fill="none" stroke="black" points="116,-204.93 116,-240.93 224,-240.93 224,-204.93 116,-204.93"/>
<text text-anchor="middle" x="121.5" y="-219.23" font-family="Times,serif" font-size="14.00"> </text>
<polyline fill="none" stroke="black" points="127,-204.93 127,-240.93 "/>
<text text-anchor="middle" x="169.5" y="-226.73" font-family="Times,serif" font-size="14.00">Link user</text>
<text text-anchor="middle" x="169.5" y="-211.73" font-family="Times,serif" font-size="14.00">to sub jobs</text>
<polyline fill="none" stroke="black" points="212,-204.93 212,-240.93 "/>
<text text-anchor="middle" x="218" y="-219.23" font-family="Times,serif" font-size="14.00"> </text>
</g>
<!-- LinkUserToJob&#45;&gt;LinkUserToSubJobs -->
<g id="edge11" class="edge">
<title>LinkUserToJob&#45;&gt;LinkUserToSubJobs</title>
<path fill="none" stroke="darkblue" d="M170,-277.36C170,-269.6 170,-260.21 170,-251.49"/>
<polygon fill="darkblue" stroke="darkblue" points="173.5,-251.33 170,-241.33 166.5,-251.33 173.5,-251.33"/>
</g>
<!-- LinkUserToSubJobs&#45;&gt;RefreshJobStatus -->
<g id="edge12" class="edge">
<title>LinkUserToSubJobs&#45;&gt;RefreshJobStatus</title>
<path fill="none" stroke="darkblue" d="M155.34,-204.5C142.51,-189.24 123.72,-166.9 109.25,-149.69"/>
<polygon fill="darkblue" stroke="darkblue" points="111.65,-147.11 102.53,-141.71 106.29,-151.61 111.65,-147.11"/>
</g>
<!-- IsJobStillCached&#45;&gt;200 -->
<g id="edge15" class="edge">
<title>IsJobStillCached&#45;&gt;200</title>
<path fill="none" stroke="darkred" d="M295.69,-96.62C309.2,-81.9 326.1,-63.5 339.71,-48.67"/>
<polygon fill="darkred" stroke="darkred" points="342.31,-51.02 346.49,-41.29 337.15,-46.29 342.31,-51.02"/>
<text text-anchor="middle" x="285.19" y="-69.42" font-family="Times,serif" font-size="14.00">No</text>
</g>
<!-- UpdateLastUsed -->
<g id="node14" class="node">
<title>UpdateLastUsed</title>
<polygon fill="none" stroke="black" points="510,-141.43 402,-141.43 402,-105.43 510,-105.43 510,-141.43"/>
<text text-anchor="middle" x="456" y="-127.23" font-family="Times,serif" font-size="14.00">Update</text>
<text text-anchor="middle" x="456" y="-112.23" font-family="Times,serif" font-size="14.00">last used</text>
</g>
<!-- IsJobStillCached&#45;&gt;UpdateLastUsed -->
<g id="edge14" class="edge">
<title>IsJobStillCached&#45;&gt;UpdateLastUsed</title>
<path fill="none" stroke="darkgreen" d="M330.22,-123.43C350.77,-123.43 371.32,-123.43 391.87,-123.43"/>
<polygon fill="darkgreen" stroke="darkgreen" points="391.95,-126.93 401.95,-123.43 391.95,-119.93 391.95,-126.93"/>
<text text-anchor="middle" x="342.72" y="-127.23" font-family="Times,serif" font-size="14.00">Yes</text>
</g>
<!-- UpdateLastUsed&#45;&gt;200 -->
<g id="edge16" class="edge">
<title>UpdateLastUsed&#45;&gt;200</title>
<path fill="none" stroke="darkblue" d="M439.97,-104.97C425.87,-89.6 405.1,-66.98 388.84,-49.27"/>
<polygon fill="darkblue" stroke="darkblue" points="391.07,-46.52 381.72,-41.52 385.91,-51.25 391.07,-46.52"/>
</g>
</g>
</svg>
