<?xml version="1.0" encoding="UTF-8" standalone="no"?>
<!DOCTYPE svg PUBLIC "-//W3C//DTD SVG 1.1//EN"
 "http://www.w3.org/Graphics/SVG/1.1/DTD/svg11.dtd">
<!-- Generated by graphviz version 2.43.0 (0)
 -->
<!-- Title: %3 Pages: 1 -->
<svg width="528pt" height="664pt"
 viewBox="0.00 0.00 528.30 663.68" xmlns="http://www.w3.org/2000/svg" xmlns:xlink="http://www.w3.org/1999/xlink">
<g id="graph0" class="graph" transform="scale(1 1) rotate(0) translate(4 659.68)">
<title>%3</title>
<polygon fill="white" stroke="transparent" points="-4,4 -4,-659.68 524.3,-659.68 524.3,4 -4,4"/>
<!-- Start -->
<g id="node1" class="node">
<title>Start</title>
<ellipse fill="none" stroke="green" cx="282.3" cy="-637.68" rx="77.61" ry="18"/>
<text text-anchor="middle" x="282.3" y="-633.98" font-family="Times,serif" font-size="14.00">POST /jobs/{job&#45;id}</text>
</g>
<!-- IsUserTokenProvided -->
<g id="node2" class="node">
<title>IsUserTokenProvided</title>
<polygon fill="none" stroke="black" points="282.3,-583.68 210.3,-538.68 282.3,-493.68 354.3,-538.68 282.3,-583.68"/>
<text text-anchor="middle" x="282.3" y="-549.98" font-family="Times,serif" font-size="14.00">Is User</text>
<text text-anchor="middle" x="282.3" y="-534.98" font-family="Times,serif" font-size="14.00">Token</text>
<text text-anchor="middle" x="282.3" y="-519.98" font-family="Times,serif" font-size="14.00">Provided?</text>
</g>
<!-- Start&#45;&gt;IsUserTokenProvided -->
<g id="edge1" class="edge">
<title>Start&#45;&gt;IsUserTokenProvided</title>
<path fill="none" stroke="darkblue" d="M282.3,-619.33C282.3,-612.05 282.3,-603.14 282.3,-593.95"/>
<polygon fill="darkblue" stroke="darkblue" points="285.8,-593.93 282.3,-583.93 278.8,-593.93 285.8,-593.93"/>
</g>
<!-- ValidateJobID -->
<g id="node3" class="node">
<title>ValidateJobID</title>
<polygon fill="none" stroke="black" points="520.3,-556.68 426.3,-556.68 426.3,-520.68 520.3,-520.68 520.3,-556.68"/>
<text text-anchor="middle" x="473.3" y="-542.48" font-family="Times,serif" font-size="14.00">Validate</text>
<text text-anchor="middle" x="473.3" y="-527.48" font-family="Times,serif" font-size="14.00">job id</text>
</g>
<!-- IsUserTokenProvided&#45;&gt;ValidateJobID -->
<g id="edge3" class="edge">
<title>IsUserTokenProvided&#45;&gt;ValidateJobID</title>
<path fill="none" stroke="darkgreen" d="M354.67,-538.68C375.11,-538.68 395.55,-538.68 415.99,-538.68"/>
<polygon fill="darkgreen" stroke="darkgreen" points="416.03,-542.18 426.03,-538.68 416.03,-535.18 416.03,-542.18"/>
<text text-anchor="middle" x="367.17" y="-542.48" font-family="Times,serif" font-size="14.00">Yes</text>
</g>
<!-- IsJobIDValid -->
<g id="node4" class="node">
<title>IsJobIDValid</title>
<polygon fill="none" stroke="black" points="282.3,-457.68 224.3,-427.68 282.3,-397.68 340.3,-427.68 282.3,-457.68"/>
<text text-anchor="middle" x="282.3" y="-431.48" font-family="Times,serif" font-size="14.00">Is job id</text>
<text text-anchor="middle" x="282.3" y="-416.48" font-family="Times,serif" font-size="14.00"> valid?</text>
</g>
<!-- IsUserTokenProvided&#45;&gt;IsJobIDValid -->
<!-- ValidateJobID&#45;&gt;IsJobIDValid -->
<g id="edge4" class="edge">
<title>ValidateJobID&#45;&gt;IsJobIDValid</title>
<path fill="none" stroke="darkblue" d="M443.45,-520.65C409.5,-501.27 354.1,-469.65 317.92,-449"/>
<polygon fill="darkblue" stroke="darkblue" points="319.58,-445.92 309.16,-444 316.11,-452 319.58,-445.92"/>
</g>
<!-- JobLookup -->
<g id="node8" class="node">
<title>JobLookup</title>
<polygon fill="none" stroke="black" points="235.3,-325.18 235.3,-361.18 329.3,-361.18 329.3,-325.18 235.3,-325.18"/>
<text text-anchor="middle" x="239.3" y="-339.48" font-family="Times,serif" font-size="14.00"> </text>
<polyline fill="none" stroke="black" points="243.3,-325.18 243.3,-361.18 "/>
<text text-anchor="middle" x="282.3" y="-346.98" font-family="Times,serif" font-size="14.00">Job lookup</text>
<text text-anchor="middle" x="282.3" y="-331.98" font-family="Times,serif" font-size="14.00">process</text>
<polyline fill="none" stroke="black" points="321.3,-325.18 321.3,-361.18 "/>
<text text-anchor="middle" x="325.3" y="-339.48" font-family="Times,serif" font-size="14.00"> </text>
</g>
<!-- IsJobIDValid&#45;&gt;JobLookup -->
<g id="edge6" class="edge">
<title>IsJobIDValid&#45;&gt;JobLookup</title>
<path fill="none" stroke="darkgreen" d="M282.3,-397.36C282.3,-388.98 282.3,-379.89 282.3,-371.64"/>
<polygon fill="darkgreen" stroke="darkgreen" points="285.8,-371.39 282.3,-361.39 278.8,-371.39 285.8,-371.39"/>
<text text-anchor="middle" x="269.8" y="-386.16" font-family="Times,serif" font-size="14.00">Yes</text>
</g>
<!-- 401 -->
<g id="node5" class="node">
<title>401</title>
<ellipse fill="none" stroke="red" cx="69.3" cy="-538.68" rx="69.09" ry="21.43"/>
<text text-anchor="middle" x="69.3" y="-542.48" font-family="Times,serif" font-size="14.00">401</text>
<text text-anchor="middle" x="69.3" y="-527.48" font-family="Times,serif" font-size="14.00">Unauthorized</text>
</g>
<!-- 401&#45;&gt;IsUserTokenProvided -->
<g id="edge2" class="edge">
<title>401&#45;&gt;IsUserTokenProvided</title>
<path fill="none" stroke="darkred" d="M148.82,-538.68C169.3,-538.68 189.78,-538.68 210.25,-538.68"/>
<polygon fill="darkred" stroke="darkred" points="148.77,-535.18 138.77,-538.68 148.77,-542.18 148.77,-535.18"/>
<text text-anchor="middle" x="199.75" y="-542.48" font-family="Times,serif" font-size="14.00">No</text>
</g>
<!-- 404 -->
<g id="node6" class="node">
<title>404</title>
<ellipse fill="none" stroke="red" cx="98.3" cy="-427.68" rx="53.98" ry="21.43"/>
<text text-anchor="middle" x="98.3" y="-431.48" font-family="Times,serif" font-size="14.00">404</text>
<text text-anchor="middle" x="98.3" y="-416.48" font-family="Times,serif" font-size="14.00">Not Found</text>
</g>
<!-- 404&#45;&gt;IsJobIDValid -->
<g id="edge5" class="edge">
<title>404&#45;&gt;IsJobIDValid</title>
<path fill="none" stroke="darkred" d="M162.31,-427.68C182.91,-427.68 203.51,-427.68 224.11,-427.68"/>
<polygon fill="darkred" stroke="darkred" points="162.2,-424.18 152.2,-427.68 162.2,-431.18 162.2,-424.18"/>
<text text-anchor="middle" x="213.61" y="-431.48" font-family="Times,serif" font-size="14.00">No</text>
</g>
<!-- 204 -->
<g id="node7" class="node">
<title>204</title>
<ellipse fill="none" stroke="green" cx="371.3" cy="-21.21" rx="57.97" ry="21.43"/>
<text text-anchor="middle" x="371.3" y="-25.01" font-family="Times,serif" font-size="14.00">204</text>
<text text-anchor="middle" x="371.3" y="-10.01" font-family="Times,serif" font-size="14.00">No Content</text>
</g>
<!-- JobLookup&#45;&gt;404 -->
<g id="edge7" class="edge">
<title>JobLookup&#45;&gt;404</title>
<path fill="none" stroke="darkred" d="M244.35,-361.19C214.66,-374.5 173.33,-393.03 142.21,-406.99"/>
<polygon fill="darkred" stroke="darkred" points="140.6,-403.87 132.91,-411.16 143.46,-410.26 140.6,-403.87"/>
<text text-anchor="middle" x="208.35" y="-364.99" font-family="Times,serif" font-size="14.00">Not found</text>
</g>
<!-- IsExpired -->
<g id="node10" class="node">
<title>IsExpired</title>
<polygon fill="none" stroke="black" points="373.3,-288.68 311.3,-258.68 373.3,-228.68 435.3,-258.68 373.3,-288.68"/>
<text text-anchor="middle" x="373.3" y="-262.48" font-family="Times,serif" font-size="14.00">Is job</text>
<text text-anchor="middle" x="373.3" y="-247.48" font-family="Times,serif" font-size="14.00">expired?</text>
</g>
<!-- JobLookup&#45;&gt;IsExpired -->
<g id="edge8" class="edge">
<title>JobLookup&#45;&gt;IsExpired</title>
<path fill="none" stroke="darkblue" d="M301.15,-325.08C313.71,-313.69 330.46,-298.51 344.66,-285.64"/>
<polygon fill="darkblue" stroke="darkblue" points="347.18,-288.08 352.24,-278.77 342.48,-282.89 347.18,-288.08"/>
</g>
<!-- CreateWorkspace -->
<g id="node11" class="node">
<title>CreateWorkspace</title>
<polygon fill="none" stroke="black" points="239.3,-276.68 145.3,-276.68 145.3,-240.68 239.3,-240.68 239.3,-276.68"/>
<text text-anchor="middle" x="192.3" y="-262.48" font-family="Times,serif" font-size="14.00">Create job</text>
<text text-anchor="middle" x="192.3" y="-247.48" font-family="Times,serif" font-size="14.00">workspace</text>
</g>
<!-- JobLookup&#45;&gt;CreateWorkspace -->
<!-- BlastWorkspaces -->
<g id="node9" class="node">
<title>BlastWorkspaces</title>
<path fill="none" stroke="black" d="M335.3,-189.03C335.3,-191.11 314.23,-192.8 288.3,-192.8 262.36,-192.8 241.3,-191.11 241.3,-189.03 241.3,-189.03 241.3,-155.07 241.3,-155.07 241.3,-152.99 262.36,-151.3 288.3,-151.3 314.23,-151.3 335.3,-152.99 335.3,-155.07 335.3,-155.07 335.3,-189.03 335.3,-189.03"/>
<path fill="none" stroke="black" d="M335.3,-189.03C335.3,-186.95 314.23,-185.26 288.3,-185.26 262.36,-185.26 241.3,-186.95 241.3,-189.03"/>
<text text-anchor="middle" x="288.3" y="-175.85" font-family="Times,serif" font-size="14.00">MBlast</text>
<text text-anchor="middle" x="288.3" y="-160.85" font-family="Times,serif" font-size="14.00">workspaces</text>
</g>
<!-- BlastWorkspaces&#45;&gt;204 -->
<!-- BlastWorkspaces&#45;&gt;CreateWorkspace -->
<g id="edge11" class="edge">
<title>BlastWorkspaces&#45;&gt;CreateWorkspace</title>
<path fill="none" stroke="darkblue" stroke-dasharray="1,5" d="M258.22,-199.56C243.04,-212.94 225.07,-228.79 211.72,-240.55"/>
<polygon fill="darkblue" stroke="darkblue" points="260.68,-202.06 265.87,-192.82 256.05,-196.81 260.68,-202.06"/>
</g>
<!-- CreateQuery -->
<g id="node12" class="node">
<title>CreateQuery</title>
<polygon fill="none" stroke="black" points="169.3,-190.05 75.3,-190.05 75.3,-154.05 169.3,-154.05 169.3,-190.05"/>
<text text-anchor="middle" x="122.3" y="-175.85" font-family="Times,serif" font-size="14.00">Create</text>
<text text-anchor="middle" x="122.3" y="-160.85" font-family="Times,serif" font-size="14.00">query file</text>
</g>
<!-- BlastWorkspaces&#45;&gt;CreateQuery -->
<g id="edge12" class="edge">
<title>BlastWorkspaces&#45;&gt;CreateQuery</title>
<path fill="none" stroke="darkblue" stroke-dasharray="1,5" d="M230.82,-172.05C210.32,-172.05 189.81,-172.05 169.31,-172.05"/>
<polygon fill="darkblue" stroke="darkblue" points="230.89,-175.55 240.89,-172.05 230.89,-168.55 230.89,-175.55"/>
</g>
<!-- IsExpired&#45;&gt;204 -->
<g id="edge15" class="edge">
<title>IsExpired&#45;&gt;204</title>
<path fill="none" stroke="darkred" d="M373.04,-228.6C372.66,-183.54 371.95,-98.9 371.56,-52.91"/>
<polygon fill="darkred" stroke="darkred" points="375.06,-52.61 371.48,-42.64 368.06,-52.67 375.06,-52.61"/>
<text text-anchor="middle" x="362.54" y="-217.4" font-family="Times,serif" font-size="14.00">No</text>
</g>
<!-- CreateWorkspace&#45;&gt;IsExpired -->
<g id="edge9" class="edge">
<title>CreateWorkspace&#45;&gt;IsExpired</title>
<path fill="none" stroke="darkgreen" d="M249.43,-258.68C270.05,-258.68 290.66,-258.68 311.28,-258.68"/>
<polygon fill="darkgreen" stroke="darkgreen" points="249.31,-255.18 239.31,-258.68 249.31,-262.18 249.31,-255.18"/>
<text text-anchor="middle" x="298.78" y="-262.48" font-family="Times,serif" font-size="14.00">Yes</text>
</g>
<!-- CreateWorkspace&#45;&gt;CreateQuery -->
<g id="edge10" class="edge">
<title>CreateWorkspace&#45;&gt;CreateQuery</title>
<path fill="none" stroke="darkblue" d="M178.13,-240.55C168.07,-228.39 154.41,-211.87 143.11,-198.22"/>
<polygon fill="darkblue" stroke="darkblue" points="145.51,-195.63 136.44,-190.15 140.12,-200.09 145.51,-195.63"/>
</g>
<!-- ResubmitSubJobs -->
<g id="node13" class="node">
<title>ResubmitSubJobs</title>
<polygon fill="none" stroke="black" points="75.3,-78.93 75.3,-114.93 169.3,-114.93 169.3,-78.93 75.3,-78.93"/>
<text text-anchor="middle" x="80.3" y="-93.23" font-family="Times,serif" font-size="14.00"> </text>
<polyline fill="none" stroke="black" points="85.3,-78.93 85.3,-114.93 "/>
<text text-anchor="middle" x="122.3" y="-100.73" font-family="Times,serif" font-size="14.00">Resubmit</text>
<text text-anchor="middle" x="122.3" y="-85.73" font-family="Times,serif" font-size="14.00">sub jobs</text>
<polyline fill="none" stroke="black" points="159.3,-78.93 159.3,-114.93 "/>
<text text-anchor="middle" x="164.3" y="-93.23" font-family="Times,serif" font-size="14.00"> </text>
</g>
<!-- CreateQuery&#45;&gt;ResubmitSubJobs -->
<g id="edge13" class="edge">
<title>CreateQuery&#45;&gt;ResubmitSubJobs</title>
<path fill="none" stroke="darkblue" d="M122.3,-153.72C122.3,-145.25 122.3,-134.86 122.3,-125.35"/>
<polygon fill="darkblue" stroke="darkblue" points="125.8,-125.13 122.3,-115.13 118.8,-125.13 125.8,-125.13"/>
</g>
<!-- ResubmitSubJobs&#45;&gt;204 -->
<g id="edge14" class="edge">
<title>ResubmitSubJobs&#45;&gt;204</title>
<path fill="none" stroke="darkblue" d="M169.42,-81.97C211.63,-69.48 273.49,-51.17 317.6,-38.11"/>
<polygon fill="darkblue" stroke="darkblue" points="318.69,-41.44 327.29,-35.24 316.7,-34.72 318.69,-41.44"/>
</g>
</g>
</svg>
