<?xml version="1.0" encoding="UTF-8" standalone="no"?>
<!DOCTYPE svg PUBLIC "-//W3C//DTD SVG 1.1//EN"
 "http://www.w3.org/Graphics/SVG/1.1/DTD/svg11.dtd">
<!-- Generated by graphviz version 2.43.0 (0)
 -->
<!-- Title: %3 Pages: 1 -->
<svg width="492pt" height="758pt"
 viewBox="0.00 0.00 492.00 758.43" xmlns="http://www.w3.org/2000/svg" xmlns:xlink="http://www.w3.org/1999/xlink">
<g id="graph0" class="graph" transform="scale(1 1) rotate(0) translate(4 754.43)">
<title>%3</title>
<polygon fill="white" stroke="transparent" points="-4,4 -4,-754.43 488,-754.43 488,4 -4,4"/>
<text text-anchor="middle" x="242" y="-735.23" font-family="Times,serif" font-size="14.00">Blast Job Submission</text>
<!-- Start -->
<g id="node1" class="node">
<title>Start</title>
<ellipse fill="none" stroke="blue" cx="235" cy="-709.43" rx="54" ry="18"/>
<text text-anchor="middle" x="235" y="-705.73" font-family="Times,serif" font-size="14.00">Start</text>
</g>
<!-- CalcDigest -->
<g id="node2" class="node">
<title>CalcDigest</title>
<polygon fill="none" stroke="black" points="289,-655.43 181,-655.43 181,-619.43 289,-619.43 289,-655.43"/>
<text text-anchor="middle" x="235" y="-641.23" font-family="Times,serif" font-size="14.00">Calculage</text>
<text text-anchor="middle" x="235" y="-626.23" font-family="Times,serif" font-size="14.00">job digest</text>
</g>
<!-- Start&#45;&gt;CalcDigest -->
<g id="edge1" class="edge">
<title>Start&#45;&gt;CalcDigest</title>
<path fill="none" stroke="darkblue" d="M235,-691.12C235,-683.41 235,-674.14 235,-665.54"/>
<polygon fill="darkblue" stroke="darkblue" points="238.5,-665.53 235,-655.53 231.5,-665.53 238.5,-665.53"/>
</g>
<!-- DigestInDB -->
<g id="node3" class="node">
<title>DigestInDB</title>
<polygon fill="none" stroke="black" points="55,-583.43 1,-538.43 55,-493.43 109,-538.43 55,-583.43"/>
<text text-anchor="middle" x="55" y="-549.73" font-family="Times,serif" font-size="14.00">Digest</text>
<text text-anchor="middle" x="55" y="-534.73" font-family="Times,serif" font-size="14.00">already</text>
<text text-anchor="middle" x="55" y="-519.73" font-family="Times,serif" font-size="14.00">in DB</text>
</g>
<!-- CalcDigest&#45;&gt;DigestInDB -->
<g id="edge2" class="edge">
<title>CalcDigest&#45;&gt;DigestInDB</title>
<path fill="none" stroke="darkblue" d="M203.23,-619.31C173.44,-603.25 128.71,-579.15 96.19,-561.62"/>
<polygon fill="darkblue" stroke="darkblue" points="97.82,-558.53 87.36,-556.86 94.5,-564.69 97.82,-558.53"/>
</g>
<!-- LinkUserToJob -->
<g id="node12" class="node">
<title>LinkUserToJob</title>
<polygon fill="none" stroke="black" points="469,-556.43 361,-556.43 361,-520.43 469,-520.43 469,-556.43"/>
<text text-anchor="middle" x="415" y="-542.23" font-family="Times,serif" font-size="14.00">Link user</text>
<text text-anchor="middle" x="415" y="-527.23" font-family="Times,serif" font-size="14.00">to job</text>
</g>
<!-- CalcDigest&#45;&gt;LinkUserToJob -->
<!-- IsUserLinkedToJob -->
<g id="node4" class="node">
<title>IsUserLinkedToJob</title>
<polygon fill="none" stroke="black" points="235,-583.43 181,-538.43 235,-493.43 289,-538.43 235,-583.43"/>
<text text-anchor="middle" x="235" y="-549.73" font-family="Times,serif" font-size="14.00">User is</text>
<text text-anchor="middle" x="235" y="-534.73" font-family="Times,serif" font-size="14.00">linked</text>
<text text-anchor="middle" x="235" y="-519.73" font-family="Times,serif" font-size="14.00">to job</text>
</g>
<!-- DigestInDB&#45;&gt;IsUserLinkedToJob -->
<g id="edge3" class="edge">
<title>DigestInDB&#45;&gt;IsUserLinkedToJob</title>
<path fill="none" stroke="darkgreen" d="M109.14,-538.43C129.7,-538.43 150.26,-538.43 170.83,-538.43"/>
<polygon fill="darkgreen" stroke="darkgreen" points="170.92,-541.93 180.92,-538.43 170.92,-534.93 170.92,-541.93"/>
<text text-anchor="middle" x="121.64" y="-542.23" font-family="Times,serif" font-size="14.00">Yes</text>
</g>
<!-- InsertJobInDB -->
<g id="node7" class="node">
<title>InsertJobInDB</title>
<polygon fill="none" stroke="black" points="108,-457.43 0,-457.43 0,-421.43 108,-421.43 108,-457.43"/>
<text text-anchor="middle" x="54" y="-443.23" font-family="Times,serif" font-size="14.00">Insert job</text>
<text text-anchor="middle" x="54" y="-428.23" font-family="Times,serif" font-size="14.00">into DB</text>
</g>
<!-- DigestInDB&#45;&gt;InsertJobInDB -->
<g id="edge4" class="edge">
<title>DigestInDB&#45;&gt;InsertJobInDB</title>
<path fill="none" stroke="darkred" d="M54.55,-493.75C54.46,-484.8 54.36,-475.63 54.28,-467.47"/>
<polygon fill="darkred" stroke="darkred" points="57.78,-467.4 54.18,-457.43 50.78,-467.47 57.78,-467.4"/>
<text text-anchor="middle" x="44.05" y="-482.55" font-family="Times,serif" font-size="14.00">No</text>
</g>
<!-- RefreshJobStatus -->
<g id="node8" class="node">
<title>RefreshJobStatus</title>
<polygon fill="none" stroke="black" points="469,-457.43 361,-457.43 361,-421.43 469,-421.43 469,-457.43"/>
<text text-anchor="middle" x="415" y="-443.23" font-family="Times,serif" font-size="14.00">Refresh job</text>
<text text-anchor="middle" x="415" y="-428.23" font-family="Times,serif" font-size="14.00">status</text>
</g>
<!-- IsUserLinkedToJob&#45;&gt;RefreshJobStatus -->
<g id="edge8" class="edge">
<title>IsUserLinkedToJob&#45;&gt;RefreshJobStatus</title>
<path fill="none" stroke="darkgreen" d="M267.18,-520.08C297.09,-503.97 341.78,-479.88 374.19,-462.42"/>
<polygon fill="darkgreen" stroke="darkgreen" points="376.26,-465.28 383.4,-457.46 372.94,-459.12 376.26,-465.28"/>
<text text-anchor="middle" x="279.68" y="-523.88" font-family="Times,serif" font-size="14.00">Yes</text>
</g>
<!-- JobStillCached -->
<g id="node10" class="node">
<title>JobStillCached</title>
<polygon fill="none" stroke="black" points="235,-370.43 180,-340.43 235,-310.43 290,-340.43 235,-370.43"/>
<text text-anchor="middle" x="235" y="-344.23" font-family="Times,serif" font-size="14.00">Job still</text>
<text text-anchor="middle" x="235" y="-329.23" font-family="Times,serif" font-size="14.00">cached</text>
</g>
<!-- IsUserLinkedToJob&#45;&gt;JobStillCached -->
<!-- IsUserLinkedToJob&#45;&gt;LinkUserToJob -->
<g id="edge9" class="edge">
<title>IsUserLinkedToJob&#45;&gt;LinkUserToJob</title>
<path fill="none" stroke="darkred" d="M289.14,-538.43C309.7,-538.43 330.26,-538.43 350.83,-538.43"/>
<polygon fill="darkred" stroke="darkred" points="350.92,-541.93 360.92,-538.43 350.92,-534.93 350.92,-541.93"/>
<text text-anchor="middle" x="299.64" y="-542.23" font-family="Times,serif" font-size="14.00">No</text>
</g>
<!-- CreateWorkspace -->
<g id="node5" class="node">
<title>CreateWorkspace</title>
<polygon fill="none" stroke="black" points="108,-358.43 0,-358.43 0,-322.43 108,-322.43 108,-358.43"/>
<text text-anchor="middle" x="54" y="-344.23" font-family="Times,serif" font-size="14.00">Create job</text>
<text text-anchor="middle" x="54" y="-329.23" font-family="Times,serif" font-size="14.00">workspace</text>
</g>
<!-- CreateQueryFile -->
<g id="node6" class="node">
<title>CreateQueryFile</title>
<polygon fill="none" stroke="black" points="109,-259.43 1,-259.43 1,-223.43 109,-223.43 109,-259.43"/>
<text text-anchor="middle" x="55" y="-245.23" font-family="Times,serif" font-size="14.00">Create</text>
<text text-anchor="middle" x="55" y="-230.23" font-family="Times,serif" font-size="14.00">query file</text>
</g>
<!-- CreateWorkspace&#45;&gt;CreateQueryFile -->
<g id="edge14" class="edge">
<title>CreateWorkspace&#45;&gt;CreateQueryFile</title>
<path fill="none" stroke="darkblue" d="M54.18,-322.08C54.33,-307.6 54.54,-286.69 54.72,-269.93"/>
<polygon fill="darkblue" stroke="darkblue" points="58.22,-269.65 54.82,-259.62 51.22,-269.58 58.22,-269.65"/>
</g>
<!-- SubmitJobToQueue -->
<g id="node13" class="node">
<title>SubmitJobToQueue</title>
<polygon fill="none" stroke="black" points="109,-187.43 1,-187.43 1,-151.43 109,-151.43 109,-187.43"/>
<text text-anchor="middle" x="55" y="-173.23" font-family="Times,serif" font-size="14.00">Submit job</text>
<text text-anchor="middle" x="55" y="-158.23" font-family="Times,serif" font-size="14.00">to queue</text>
</g>
<!-- CreateQueryFile&#45;&gt;SubmitJobToQueue -->
<g id="edge15" class="edge">
<title>CreateQueryFile&#45;&gt;SubmitJobToQueue</title>
<path fill="none" stroke="darkblue" d="M55,-223.12C55,-215.41 55,-206.14 55,-197.54"/>
<polygon fill="darkblue" stroke="darkblue" points="58.5,-197.53 55,-187.53 51.5,-197.53 58.5,-197.53"/>
</g>
<!-- InsertJobInDB&#45;&gt;CreateWorkspace -->
<g id="edge5" class="edge">
<title>InsertJobInDB&#45;&gt;CreateWorkspace</title>
<path fill="none" stroke="darkblue" d="M54,-421.08C54,-406.6 54,-385.69 54,-368.93"/>
<polygon fill="darkblue" stroke="darkblue" points="57.5,-368.62 54,-358.62 50.5,-368.62 57.5,-368.62"/>
</g>
<!-- JobStatusFailed -->
<g id="node9" class="node">
<title>JobStatusFailed</title>
<polygon fill="none" stroke="black" points="423,-385.43 362,-340.43 423,-295.43 484,-340.43 423,-385.43"/>
<text text-anchor="middle" x="423" y="-351.73" font-family="Times,serif" font-size="14.00">Job</text>
<text text-anchor="middle" x="423" y="-336.73" font-family="Times,serif" font-size="14.00">status is</text>
<text text-anchor="middle" x="423" y="-321.73" font-family="Times,serif" font-size="14.00">failed</text>
</g>
<!-- RefreshJobStatus&#45;&gt;JobStatusFailed -->
<g id="edge10" class="edge">
<title>RefreshJobStatus&#45;&gt;JobStatusFailed</title>
<path fill="none" stroke="darkblue" d="M416.43,-421.08C417.08,-413.16 417.9,-403.3 418.73,-393.25"/>
<polygon fill="darkblue" stroke="darkblue" points="422.22,-393.46 419.55,-383.21 415.24,-392.89 422.22,-393.46"/>
</g>
<!-- 200 -->
<g id="node16" class="node">
<title>200</title>
<ellipse fill="none" stroke="green" cx="328" cy="-21.21" rx="68.68" ry="21.43"/>
<text text-anchor="middle" x="328" y="-25.01" font-family="Times,serif" font-size="14.00">200</text>
<text text-anchor="middle" x="328" y="-10.01" font-family="Times,serif" font-size="14.00">Return job ID</text>
</g>
<!-- JobStatusFailed&#45;&gt;200 -->
<g id="edge17" class="edge">
<title>JobStatusFailed&#45;&gt;200</title>
<path fill="none" stroke="darkgreen" d="M412.19,-303.35C393.29,-240.23 354.57,-110.94 337.01,-52.31"/>
<polygon fill="darkgreen" stroke="darkgreen" points="340.31,-51.12 334.09,-42.54 333.6,-53.12 340.31,-51.12"/>
<text text-anchor="middle" x="399.69" y="-292.15" font-family="Times,serif" font-size="14.00">Yes</text>
</g>
<!-- JobStillCached&#45;&gt;JobStatusFailed -->
<g id="edge11" class="edge">
<title>JobStillCached&#45;&gt;JobStatusFailed</title>
<path fill="none" stroke="darkred" d="M300.19,-340.43C320.79,-340.43 341.39,-340.43 361.99,-340.43"/>
<polygon fill="darkred" stroke="darkred" points="300.08,-336.93 290.08,-340.43 300.08,-343.93 300.08,-336.93"/>
<text text-anchor="middle" x="351.49" y="-344.23" font-family="Times,serif" font-size="14.00">No</text>
</g>
<!-- UpdateJobLastUsed -->
<g id="node11" class="node">
<title>UpdateJobLastUsed</title>
<polygon fill="none" stroke="black" points="289,-259.43 181,-259.43 181,-223.43 289,-223.43 289,-259.43"/>
<text text-anchor="middle" x="235" y="-245.23" font-family="Times,serif" font-size="14.00">Update job</text>
<text text-anchor="middle" x="235" y="-230.23" font-family="Times,serif" font-size="14.00">last used</text>
</g>
<!-- JobStillCached&#45;&gt;UpdateJobLastUsed -->
<g id="edge12" class="edge">
<title>JobStillCached&#45;&gt;UpdateJobLastUsed</title>
<path fill="none" stroke="darkgreen" d="M235,-310.32C235,-297.55 235,-282.62 235,-270.02"/>
<polygon fill="darkgreen" stroke="darkgreen" points="238.5,-269.66 235,-259.66 231.5,-269.66 238.5,-269.66"/>
<text text-anchor="middle" x="222.5" y="-299.12" font-family="Times,serif" font-size="14.00">Yes</text>
</g>
<!-- GetSubJobList -->
<g id="node14" class="node">
<title>GetSubJobList</title>
<polygon fill="none" stroke="black" points="289,-187.43 181,-187.43 181,-151.43 289,-151.43 289,-187.43"/>
<text text-anchor="middle" x="235" y="-173.23" font-family="Times,serif" font-size="14.00">Get sub</text>
<text text-anchor="middle" x="235" y="-158.23" font-family="Times,serif" font-size="14.00">job list</text>
</g>
<!-- UpdateJobLastUsed&#45;&gt;GetSubJobList -->
<g id="edge13" class="edge">
<title>UpdateJobLastUsed&#45;&gt;GetSubJobList</title>
<path fill="none" stroke="darkblue" d="M235,-223.12C235,-215.41 235,-206.14 235,-197.54"/>
<polygon fill="darkblue" stroke="darkblue" points="238.5,-197.53 235,-187.53 231.5,-197.53 238.5,-197.53"/>
</g>
<!-- LinkUserToJob&#45;&gt;RefreshJobStatus -->
<g id="edge6" class="edge">
<title>LinkUserToJob&#45;&gt;RefreshJobStatus</title>
<path fill="none" stroke="darkblue" d="M415,-520.08C415,-505.6 415,-484.69 415,-467.93"/>
<polygon fill="darkblue" stroke="darkblue" points="418.5,-467.62 415,-457.62 411.5,-467.62 418.5,-467.62"/>
</g>
<!-- SubmitJobToQueue&#45;&gt;GetSubJobList -->
<g id="edge16" class="edge">
<title>SubmitJobToQueue&#45;&gt;GetSubJobList</title>
<path fill="none" stroke="darkblue" d="M109.14,-169.43C129.7,-169.43 150.26,-169.43 170.83,-169.43"/>
<polygon fill="darkblue" stroke="darkblue" points="170.92,-172.93 180.92,-169.43 170.92,-165.93 170.92,-172.93"/>
</g>
<!-- HandleSubJobList -->
<g id="node15" class="node">
<title>HandleSubJobList</title>
<polygon fill="none" stroke="black" points="173,-78.93 173,-114.93 303,-114.93 303,-78.93 173,-78.93"/>
<text text-anchor="middle" x="175.5" y="-93.23" font-family="Times,serif" font-size="14.00"> </text>
<polyline fill="none" stroke="black" points="178,-78.93 178,-114.93 "/>
<text text-anchor="middle" x="238" y="-93.23" font-family="Times,serif" font-size="14.00">Process sub&#45;jobs</text>
<polyline fill="none" stroke="black" points="298,-78.93 298,-114.93 "/>
<text text-anchor="middle" x="300.5" y="-93.23" font-family="Times,serif" font-size="14.00"> </text>
</g>
<!-- GetSubJobList&#45;&gt;HandleSubJobList -->
<g id="edge7" class="edge">
<title>GetSubJobList&#45;&gt;HandleSubJobList</title>
<path fill="none" stroke="darkblue" d="M235.73,-151.36C236.06,-143.6 236.46,-134.21 236.83,-125.49"/>
<polygon fill="darkblue" stroke="darkblue" points="240.33,-125.46 237.26,-115.33 233.34,-125.17 240.33,-125.46"/>
</g>
<!-- HandleSubJobList&#45;&gt;200 -->
<g id="edge18" class="edge">
<title>HandleSubJobList&#45;&gt;200</title>
<path fill="none" stroke="darkblue" d="M258.87,-78.83C270.12,-69.62 284.22,-58.07 296.75,-47.81"/>
<polygon fill="darkblue" stroke="darkblue" points="299.19,-50.34 304.71,-41.29 294.75,-44.92 299.19,-50.34"/>
</g>
</g>
</svg>
