<?xml version="1.0" encoding="UTF-8" standalone="no"?>
<!DOCTYPE svg PUBLIC "-//W3C//DTD SVG 1.1//EN"
 "http://www.w3.org/Graphics/SVG/1.1/DTD/svg11.dtd">
<!-- Generated by graphviz version 2.43.0 (0)
 -->
<!-- Title: %3 Pages: 1 -->
<svg width="630pt" height="749pt"
 viewBox="0.00 0.00 630.00 749.00" xmlns="http://www.w3.org/2000/svg" xmlns:xlink="http://www.w3.org/1999/xlink">
<g id="graph0" class="graph" transform="scale(1 1) rotate(0) translate(4 745)">
<title>%3</title>
<polygon fill="white" stroke="transparent" points="-4,4 -4,-745 626,-745 626,4 -4,4"/>
<!-- Start -->
<g id="node1" class="node">
<title>Start</title>
<ellipse fill="none" stroke="darkgreen" cx="371" cy="-723" rx="54" ry="18"/>
<text text-anchor="middle" x="371" y="-719.3" font-family="Times,serif" font-size="14.00">Start</text>
</g>
<!-- LookupUserJob -->
<g id="node2" class="node">
<title>LookupUserJob</title>
<polygon fill="none" stroke="black" points="425,-655 317,-655 317,-619 425,-619 425,-655"/>
<text text-anchor="middle" x="371" y="-640.8" font-family="Times,serif" font-size="14.00">Lookup</text>
<text text-anchor="middle" x="371" y="-625.8" font-family="Times,serif" font-size="14.00">user job</text>
</g>
<!-- Start&#45;&gt;LookupUserJob -->
<g id="edge1" class="edge">
<title>Start&#45;&gt;LookupUserJob</title>
<path fill="none" stroke="darkblue" d="M371,-704.6C371,-693.26 371,-678.23 371,-665.32"/>
<polygon fill="darkblue" stroke="darkblue" points="374.5,-665.1 371,-655.1 367.5,-665.1 374.5,-665.1"/>
</g>
<!-- DB -->
<g id="node4" class="node">
<title>DB</title>
<path fill="none" stroke="black" d="M614,-553.73C614,-555.53 589.8,-557 560,-557 530.2,-557 506,-555.53 506,-553.73 506,-553.73 506,-524.27 506,-524.27 506,-522.47 530.2,-521 560,-521 589.8,-521 614,-522.47 614,-524.27 614,-524.27 614,-553.73 614,-553.73"/>
<path fill="none" stroke="black" d="M614,-553.73C614,-551.92 589.8,-550.45 560,-550.45 530.2,-550.45 506,-551.92 506,-553.73"/>
<text text-anchor="middle" x="560" y="-535.3" font-family="Times,serif" font-size="14.00">MBlast DB</text>
</g>
<!-- LookupUserJob&#45;&gt;DB -->
<g id="edge3" class="edge">
<title>LookupUserJob&#45;&gt;DB</title>
<path fill="none" stroke="darkblue" stroke-dasharray="1,5" d="M414.08,-614.12C445.1,-598.36 486.75,-577.21 517.61,-561.53"/>
<polygon fill="darkblue" stroke="darkblue" points="412.12,-611.19 404.79,-618.84 415.29,-617.43 412.12,-611.19"/>
<polygon fill="darkblue" stroke="darkblue" points="519.49,-564.5 526.82,-556.85 516.32,-558.26 519.49,-564.5"/>
</g>
<!-- DoesJobExist1 -->
<g id="node5" class="node">
<title>DoesJobExist1</title>
<polygon fill="none" stroke="black" points="182,-569 110,-539 182,-509 254,-539 182,-569"/>
<text text-anchor="middle" x="182" y="-542.8" font-family="Times,serif" font-size="14.00">Does user</text>
<text text-anchor="middle" x="182" y="-527.8" font-family="Times,serif" font-size="14.00">job exist?</text>
</g>
<!-- LookupUserJob&#45;&gt;DoesJobExist1 -->
<g id="edge2" class="edge">
<title>LookupUserJob&#45;&gt;DoesJobExist1</title>
<path fill="none" stroke="darkblue" d="M337.21,-618.84C305.18,-602.57 257.02,-578.11 222.85,-560.75"/>
<polygon fill="darkblue" stroke="darkblue" points="224.11,-557.46 213.61,-556.06 220.94,-563.71 224.11,-557.46"/>
</g>
<!-- LookupJob -->
<g id="node3" class="node">
<title>LookupJob</title>
<polygon fill="none" stroke="black" points="434,-557 326,-557 326,-521 434,-521 434,-557"/>
<text text-anchor="middle" x="380" y="-535.3" font-family="Times,serif" font-size="14.00">Lookup job</text>
</g>
<!-- LookupJob&#45;&gt;DB -->
<g id="edge6" class="edge">
<title>LookupJob&#45;&gt;DB</title>
<path fill="none" stroke="darkblue" stroke-dasharray="1,5" d="M444.23,-539C461.42,-539 478.61,-539 495.8,-539"/>
<polygon fill="darkblue" stroke="darkblue" points="444.14,-535.5 434.14,-539 444.14,-542.5 444.14,-535.5"/>
<polygon fill="darkblue" stroke="darkblue" points="495.92,-542.5 505.92,-539 495.92,-535.5 495.92,-542.5"/>
</g>
<!-- DoesJobExist2 -->
<g id="node6" class="node">
<title>DoesJobExist2</title>
<polygon fill="none" stroke="black" points="380,-459 318,-429 380,-399 442,-429 380,-459"/>
<text text-anchor="middle" x="380" y="-432.8" font-family="Times,serif" font-size="14.00">Does job</text>
<text text-anchor="middle" x="380" y="-417.8" font-family="Times,serif" font-size="14.00">exist?</text>
</g>
<!-- LookupJob&#45;&gt;DoesJobExist2 -->
<g id="edge7" class="edge">
<title>LookupJob&#45;&gt;DoesJobExist2</title>
<path fill="none" stroke="darkblue" d="M380,-520.65C380,-506.79 380,-486.84 380,-469.18"/>
<polygon fill="darkblue" stroke="darkblue" points="383.5,-469.11 380,-459.11 376.5,-469.11 383.5,-469.11"/>
</g>
<!-- DoesJobExist1&#45;&gt;LookupJob -->
<g id="edge5" class="edge">
<title>DoesJobExist1&#45;&gt;LookupJob</title>
<path fill="none" stroke="darkred" d="M254.32,-539C274.85,-539 295.38,-539 315.92,-539"/>
<polygon fill="darkred" stroke="darkred" points="316,-542.5 326,-539 316,-535.5 316,-542.5"/>
<text text-anchor="middle" x="264.82" y="-542.8" font-family="Times,serif" font-size="14.00">No</text>
</g>
<!-- RefreshJobStatus -->
<g id="node7" class="node">
<title>RefreshJobStatus</title>
<polygon fill="none" stroke="black" points="108,-235 0,-235 0,-199 108,-199 108,-235"/>
<text text-anchor="middle" x="54" y="-220.8" font-family="Times,serif" font-size="14.00">Refresh job</text>
<text text-anchor="middle" x="54" y="-205.8" font-family="Times,serif" font-size="14.00">status</text>
</g>
<!-- DoesJobExist1&#45;&gt;RefreshJobStatus -->
<g id="edge4" class="edge">
<title>DoesJobExist1&#45;&gt;RefreshJobStatus</title>
<path fill="none" stroke="darkgreen" d="M171.96,-512.89C148.23,-453.57 88.89,-305.22 64.61,-244.52"/>
<polygon fill="darkgreen" stroke="darkgreen" points="67.85,-243.21 60.89,-235.23 61.35,-245.81 67.85,-243.21"/>
<text text-anchor="middle" x="159.46" y="-501.69" font-family="Times,serif" font-size="14.00">Yes</text>
</g>
<!-- LinkUserToJob -->
<g id="node8" class="node">
<title>LinkUserToJob</title>
<polygon fill="none" stroke="black" points="622,-447 514,-447 514,-411 622,-411 622,-447"/>
<text text-anchor="middle" x="568" y="-432.8" font-family="Times,serif" font-size="14.00">Link user</text>
<text text-anchor="middle" x="568" y="-417.8" font-family="Times,serif" font-size="14.00">to job</text>
</g>
<!-- DoesJobExist2&#45;&gt;LinkUserToJob -->
<g id="edge8" class="edge">
<title>DoesJobExist2&#45;&gt;LinkUserToJob</title>
<path fill="none" stroke="darkgreen" d="M442.05,-429C462.63,-429 483.21,-429 503.78,-429"/>
<polygon fill="darkgreen" stroke="darkgreen" points="503.88,-432.5 513.88,-429 503.88,-425.5 503.88,-432.5"/>
<text text-anchor="middle" x="454.55" y="-432.8" font-family="Times,serif" font-size="14.00">Yes</text>
</g>
<!-- End -->
<g id="node12" class="node">
<title>End</title>
<ellipse fill="none" stroke="darkred" cx="249" cy="-18" rx="54" ry="18"/>
<text text-anchor="middle" x="249" y="-14.3" font-family="Times,serif" font-size="14.00">End</text>
</g>
<!-- DoesJobExist2&#45;&gt;End -->
<g id="edge9" class="edge">
<title>DoesJobExist2&#45;&gt;End</title>
<path fill="none" stroke="darkred" d="M378.39,-399.58C373.88,-338.53 357.32,-191.81 299,-86 290.75,-71.02 279.5,-55.64 269.76,-43.4"/>
<polygon fill="darkred" stroke="darkred" points="272.34,-41.02 263.32,-35.47 266.91,-45.44 272.34,-41.02"/>
<text text-anchor="middle" x="367.89" y="-388.38" font-family="Times,serif" font-size="14.00">No</text>
</g>
<!-- UpdateLastUsed -->
<g id="node11" class="node">
<title>UpdateLastUsed</title>
<polygon fill="none" stroke="black" points="140,-122 32,-122 32,-86 140,-86 140,-122"/>
<text text-anchor="middle" x="86" y="-107.8" font-family="Times,serif" font-size="14.00">Update</text>
<text text-anchor="middle" x="86" y="-92.8" font-family="Times,serif" font-size="14.00">last used</text>
</g>
<!-- RefreshJobStatus&#45;&gt;UpdateLastUsed -->
<!-- LinkUserToJob&#45;&gt;DB -->
<g id="edge11" class="edge">
<title>LinkUserToJob&#45;&gt;DB</title>
<path fill="none" stroke="darkblue" stroke-dasharray="1,5" d="M566.72,-447.31C565.45,-464.38 563.5,-490.72 562.03,-510.63"/>
<polygon fill="darkblue" stroke="darkblue" points="558.53,-510.42 561.29,-520.65 565.51,-510.93 558.53,-510.42"/>
</g>
<!-- LinkUserToSubJobs -->
<g id="node9" class="node">
<title>LinkUserToSubJobs</title>
<polygon fill="none" stroke="black" points="514,-312.5 514,-348.5 622,-348.5 622,-312.5 514,-312.5"/>
<text text-anchor="middle" x="519.5" y="-326.8" font-family="Times,serif" font-size="14.00"> </text>
<polyline fill="none" stroke="black" points="525,-312.5 525,-348.5 "/>
<text text-anchor="middle" x="567.5" y="-334.3" font-family="Times,serif" font-size="14.00">Link user</text>
<text text-anchor="middle" x="567.5" y="-319.3" font-family="Times,serif" font-size="14.00">to sub jobs</text>
<polyline fill="none" stroke="black" points="610,-312.5 610,-348.5 "/>
<text text-anchor="middle" x="616" y="-326.8" font-family="Times,serif" font-size="14.00"> </text>
</g>
<!-- LinkUserToJob&#45;&gt;LinkUserToSubJobs -->
<g id="edge10" class="edge">
<title>LinkUserToJob&#45;&gt;LinkUserToSubJobs</title>
<path fill="none" stroke="darkblue" d="M568,-410.75C568,-396.34 568,-375.53 568,-358.86"/>
<polygon fill="darkblue" stroke="darkblue" points="571.5,-358.6 568,-348.6 564.5,-358.6 571.5,-358.6"/>
</g>
<!-- LinkUserToSubJobs&#45;&gt;RefreshJobStatus -->
<g id="edge12" class="edge">
<title>LinkUserToSubJobs&#45;&gt;RefreshJobStatus</title>
<path fill="none" stroke="darkblue" d="M513.95,-326.04C432.2,-319.67 272.99,-302.79 144,-262 126.56,-256.48 108.26,-248.07 92.75,-240.08"/>
<polygon fill="darkblue" stroke="darkblue" points="93.96,-236.76 83.48,-235.18 90.69,-242.95 93.96,-236.76"/>
</g>
<!-- IsJobStillCached -->
<g id="node10" class="node">
<title>IsJobStillCached</title>
<polygon fill="none" stroke="black" points="238,-262 180,-217 238,-172 296,-217 238,-262"/>
<text text-anchor="middle" x="238" y="-228.3" font-family="Times,serif" font-size="14.00">Is job</text>
<text text-anchor="middle" x="238" y="-213.3" font-family="Times,serif" font-size="14.00">still</text>
<text text-anchor="middle" x="238" y="-198.3" font-family="Times,serif" font-size="14.00">cached?</text>
</g>
<!-- IsJobStillCached&#45;&gt;RefreshJobStatus -->
<g id="edge13" class="edge">
<title>IsJobStillCached&#45;&gt;RefreshJobStatus</title>
<path fill="none" stroke="darkblue" d="M179.97,-217C159.43,-217 138.89,-217 118.35,-217"/>
<polygon fill="darkblue" stroke="darkblue" points="118.27,-213.5 108.27,-217 118.27,-220.5 118.27,-213.5"/>
</g>
<!-- IsJobStillCached&#45;&gt;UpdateLastUsed -->
<g id="edge14" class="edge">
<title>IsJobStillCached&#45;&gt;UpdateLastUsed</title>
<path fill="none" stroke="darkgreen" d="M208.69,-194.6C182.69,-175.61 144.79,-147.93 118.01,-128.37"/>
<polygon fill="darkgreen" stroke="darkgreen" points="119.87,-125.4 109.73,-122.33 115.74,-131.05 119.87,-125.4"/>
<text text-anchor="middle" x="182.69" y="-167.4" font-family="Times,serif" font-size="14.00"> &#160;&#160;&#160;&#160;&#160;Yes</text>
</g>
<!-- IsJobStillCached&#45;&gt;End -->
<g id="edge15" class="edge">
<title>IsJobStillCached&#45;&gt;End</title>
<path fill="none" stroke="darkred" d="M240.36,-173.74C242.5,-135.34 245.6,-79.8 247.45,-46.76"/>
<polygon fill="darkred" stroke="darkred" points="250.96,-46.65 248.02,-36.47 243.97,-46.26 250.96,-46.65"/>
<text text-anchor="middle" x="229.86" y="-162.54" font-family="Times,serif" font-size="14.00">No</text>
</g>
<!-- UpdateLastUsed&#45;&gt;End -->
<g id="edge16" class="edge">
<title>UpdateLastUsed&#45;&gt;End</title>
<path fill="none" stroke="darkblue" d="M119.38,-85.8C146.24,-71.96 183.97,-52.51 211.8,-38.17"/>
<polygon fill="darkblue" stroke="darkblue" points="213.54,-41.21 220.82,-33.52 210.33,-34.99 213.54,-41.21"/>
</g>
</g>
</svg>
