<?xml version="1.0" encoding="UTF-8" standalone="no"?>
<!DOCTYPE svg PUBLIC "-//W3C//DTD SVG 1.1//EN"
 "http://www.w3.org/Graphics/SVG/1.1/DTD/svg11.dtd">
<!-- Generated by graphviz version 2.43.0 (0)
 -->
<!-- Title: %3 Pages: 1 -->
<svg width="640pt" height="698pt"
 viewBox="0.00 0.00 639.50 698.00" xmlns="http://www.w3.org/2000/svg" xmlns:xlink="http://www.w3.org/1999/xlink">
<g id="graph0" class="graph" transform="scale(1 1) rotate(0) translate(4 694)">
<title>%3</title>
<polygon fill="white" stroke="transparent" points="-4,4 -4,-694 635.5,-694 635.5,4 -4,4"/>
<!-- Start -->
<g id="node1" class="node">
<title>Start</title>
<ellipse fill="none" stroke="green" cx="319.5" cy="-672" rx="47" ry="18"/>
<text text-anchor="middle" x="319.5" y="-668.3" font-family="Times,serif" font-size="14.00">Start</text>
</g>
<!-- More -->
<g id="node5" class="node">
<title>More</title>
<polygon fill="none" stroke="black" points="319.5,-618 238.5,-573 319.5,-528 400.5,-573 319.5,-618"/>
<text text-anchor="middle" x="319.5" y="-584.3" font-family="Times,serif" font-size="14.00">More</text>
<text text-anchor="middle" x="319.5" y="-569.3" font-family="Times,serif" font-size="14.00">sub&#45;jobs</text>
<text text-anchor="middle" x="319.5" y="-554.3" font-family="Times,serif" font-size="14.00">remaining?</text>
</g>
<!-- Start&#45;&gt;More -->
<g id="edge1" class="edge">
<title>Start&#45;&gt;More</title>
<path fill="none" stroke="darkblue" d="M319.5,-653.66C319.5,-646.37 319.5,-637.47 319.5,-628.28"/>
<polygon fill="darkblue" stroke="darkblue" points="323,-628.26 319.5,-618.26 316,-628.26 323,-628.26"/>
</g>
<!-- DB -->
<g id="node2" class="node">
<title>DB</title>
<path fill="none" stroke="purple" d="M522.5,-332.73C522.5,-334.53 501.43,-336 475.5,-336 449.57,-336 428.5,-334.53 428.5,-332.73 428.5,-332.73 428.5,-303.27 428.5,-303.27 428.5,-301.47 449.57,-300 475.5,-300 501.43,-300 522.5,-301.47 522.5,-303.27 522.5,-303.27 522.5,-332.73 522.5,-332.73"/>
<path fill="none" stroke="purple" d="M522.5,-332.73C522.5,-330.92 501.43,-329.45 475.5,-329.45 449.57,-329.45 428.5,-330.92 428.5,-332.73"/>
<text text-anchor="middle" x="475.5" y="-314.3" font-family="Times,serif" font-size="14.00">MBlast DB</text>
</g>
<!-- Refresh -->
<g id="node3" class="node">
<title>Refresh</title>
<polygon fill="none" stroke="black" points="530,-420 429,-420 429,-384 530,-384 530,-420"/>
<text text-anchor="middle" x="479.5" y="-405.8" font-family="Times,serif" font-size="14.00">Refresh</text>
<text text-anchor="middle" x="479.5" y="-390.8" font-family="Times,serif" font-size="14.00">sub&#45;job status</text>
</g>
<!-- Refresh&#45;&gt;DB -->
<g id="edge6" class="edge">
<title>Refresh&#45;&gt;DB</title>
<path fill="none" stroke="darkblue" stroke-dasharray="1,5" d="M478.15,-373.36C477.72,-364.58 477.25,-354.89 476.82,-346.15"/>
<polygon fill="darkblue" stroke="darkblue" points="474.67,-373.79 478.65,-383.61 481.66,-373.45 474.67,-373.79"/>
<polygon fill="darkblue" stroke="darkblue" points="480.32,-345.9 476.33,-336.08 473.32,-346.24 480.32,-345.9"/>
</g>
<!-- IsExpired -->
<g id="node4" class="node">
<title>IsExpired</title>
<polygon fill="none" stroke="black" points="139.5,-348 68.5,-318 139.5,-288 210.5,-318 139.5,-348"/>
<text text-anchor="middle" x="139.5" y="-321.8" font-family="Times,serif" font-size="14.00">Sub&#45;job is</text>
<text text-anchor="middle" x="139.5" y="-306.8" font-family="Times,serif" font-size="14.00">expired?</text>
</g>
<!-- Refresh&#45;&gt;IsExpired -->
<g id="edge5" class="edge">
<title>Refresh&#45;&gt;IsExpired</title>
<path fill="none" stroke="darkblue" d="M428.97,-388.81C365.75,-373.57 257.98,-347.57 193.28,-331.97"/>
<polygon fill="darkblue" stroke="darkblue" points="193.82,-328.5 183.28,-329.56 192.18,-335.31 193.82,-328.5"/>
</g>
<!-- Queue -->
<g id="node8" class="node">
<title>Queue</title>
<polygon fill="none" stroke="black" points="522.5,-36 428.5,-36 428.5,-32 424.5,-32 424.5,-28 428.5,-28 428.5,-8 424.5,-8 424.5,-4 428.5,-4 428.5,0 522.5,0 522.5,-36"/>
<polyline fill="none" stroke="black" points="428.5,-32 432.5,-32 432.5,-28 428.5,-28 "/>
<polyline fill="none" stroke="black" points="428.5,-8 432.5,-8 432.5,-4 428.5,-4 "/>
<text text-anchor="middle" x="475.5" y="-14.3" font-family="Times,serif" font-size="14.00">Job queue</text>
</g>
<!-- Refresh&#45;&gt;Queue -->
<g id="edge7" class="edge">
<title>Refresh&#45;&gt;Queue</title>
<path fill="none" stroke="darkblue" stroke-dasharray="1,5" d="M521.19,-378.82C566.19,-351.51 631.5,-300.57 631.5,-235 631.5,-235 631.5,-235 631.5,-161 631.5,-103.61 573.05,-63.27 527.7,-40.62"/>
<polygon fill="darkblue" stroke="darkblue" points="519.31,-375.86 512.48,-383.96 522.87,-381.89 519.31,-375.86"/>
<polygon fill="darkblue" stroke="darkblue" points="529.07,-37.39 518.54,-36.18 526.02,-43.69 529.07,-37.39"/>
</g>
<!-- IsExpired&#45;&gt;More -->
<g id="edge9" class="edge">
<title>IsExpired&#45;&gt;More</title>
<path fill="none" stroke="darkred" d="M155.53,-341.53C186.02,-384.38 252.72,-478.14 291,-531.94"/>
<polygon fill="darkred" stroke="darkred" points="288.24,-534.09 296.89,-540.21 293.94,-530.04 288.24,-534.09"/>
<text text-anchor="middle" x="145.03" y="-345.33" font-family="Times,serif" font-size="14.00">No</text>
</g>
<!-- NewWorkspace -->
<g id="node10" class="node">
<title>NewWorkspace</title>
<polygon fill="none" stroke="black" points="186.5,-252 92.5,-252 92.5,-216 186.5,-216 186.5,-252"/>
<text text-anchor="middle" x="139.5" y="-237.8" font-family="Times,serif" font-size="14.00">Create</text>
<text text-anchor="middle" x="139.5" y="-222.8" font-family="Times,serif" font-size="14.00">workspace</text>
</g>
<!-- IsExpired&#45;&gt;NewWorkspace -->
<g id="edge8" class="edge">
<title>IsExpired&#45;&gt;NewWorkspace</title>
<path fill="none" stroke="darkgreen" d="M139.5,-287.86C139.5,-279.54 139.5,-270.5 139.5,-262.29"/>
<polygon fill="darkgreen" stroke="darkgreen" points="143,-262.11 139.5,-252.11 136,-262.11 143,-262.11"/>
<text text-anchor="middle" x="127" y="-276.66" font-family="Times,serif" font-size="14.00">Yes</text>
</g>
<!-- Next -->
<g id="node6" class="node">
<title>Next</title>
<polygon fill="none" stroke="black" points="524.5,-492 430.5,-492 430.5,-456 524.5,-456 524.5,-492"/>
<text text-anchor="middle" x="477.5" y="-477.8" font-family="Times,serif" font-size="14.00">Next</text>
<text text-anchor="middle" x="477.5" y="-462.8" font-family="Times,serif" font-size="14.00">sub&#45;job</text>
</g>
<!-- More&#45;&gt;Next -->
<g id="edge2" class="edge">
<title>More&#45;&gt;Next</title>
<path fill="none" stroke="darkgreen" d="M357.34,-548.77C382.55,-533.29 415.51,-513.06 440.53,-497.69"/>
<polygon fill="darkgreen" stroke="darkgreen" points="442.67,-500.49 449.37,-492.27 439.01,-494.52 442.67,-500.49"/>
<text text-anchor="middle" x="344.84" y="-552.57" font-family="Times,serif" font-size="14.00">Yes</text>
</g>
<!-- Next&#45;&gt;Refresh -->
<g id="edge4" class="edge">
<title>Next&#45;&gt;Refresh</title>
<path fill="none" stroke="darkblue" d="M477.99,-455.7C478.21,-447.98 478.48,-438.71 478.73,-430.11"/>
<polygon fill="darkblue" stroke="darkblue" points="482.22,-430.2 479.01,-420.1 475.23,-430 482.22,-430.2"/>
</g>
<!-- End -->
<g id="node7" class="node">
<title>End</title>
<ellipse fill="none" stroke="darkred" cx="119.5" cy="-573" rx="47" ry="18"/>
<text text-anchor="middle" x="119.5" y="-569.3" font-family="Times,serif" font-size="14.00">End</text>
</g>
<!-- End&#45;&gt;More -->
<g id="edge3" class="edge">
<title>End&#45;&gt;More</title>
<path fill="none" stroke="darkred" d="M176.83,-573C197.34,-573 217.85,-573 238.36,-573"/>
<polygon fill="darkred" stroke="darkred" points="176.77,-569.5 166.77,-573 176.77,-576.5 176.77,-569.5"/>
<text text-anchor="middle" x="227.86" y="-576.8" font-family="Times,serif" font-size="14.00">No</text>
</g>
<!-- Workspace -->
<g id="node9" class="node">
<title>Workspace</title>
<path fill="none" stroke="black" d="M139,-104.73C139,-106.53 107.85,-108 69.5,-108 31.15,-108 0,-106.53 0,-104.73 0,-104.73 0,-75.27 0,-75.27 0,-73.47 31.15,-72 69.5,-72 107.85,-72 139,-73.47 139,-75.27 139,-75.27 139,-104.73 139,-104.73"/>
<path fill="none" stroke="black" d="M139,-104.73C139,-102.92 107.85,-101.45 69.5,-101.45 31.15,-101.45 0,-102.92 0,-104.73"/>
<text text-anchor="middle" x="69.5" y="-86.3" font-family="Times,serif" font-size="14.00">MBlast workspaces</text>
</g>
<!-- NewWorkspace&#45;&gt;Workspace -->
<g id="edge11" class="edge">
<title>NewWorkspace&#45;&gt;Workspace</title>
<path fill="none" stroke="darkblue" stroke-dasharray="1,5" d="M113.1,-215.96C101.14,-206.79 88.02,-194.4 80.5,-180 70.57,-160.96 68.14,-136.6 68.02,-118.18"/>
<polygon fill="darkblue" stroke="darkblue" points="71.52,-118.16 68.18,-108.11 64.52,-118.05 71.52,-118.16"/>
</g>
<!-- NewQuery -->
<g id="node11" class="node">
<title>NewQuery</title>
<polygon fill="none" stroke="black" points="210.5,-180 116.5,-180 116.5,-144 210.5,-144 210.5,-180"/>
<text text-anchor="middle" x="163.5" y="-165.8" font-family="Times,serif" font-size="14.00">Create</text>
<text text-anchor="middle" x="163.5" y="-150.8" font-family="Times,serif" font-size="14.00">query file</text>
</g>
<!-- NewWorkspace&#45;&gt;NewQuery -->
<g id="edge10" class="edge">
<title>NewWorkspace&#45;&gt;NewQuery</title>
<path fill="none" stroke="darkblue" d="M145.43,-215.7C148.11,-207.9 151.33,-198.51 154.3,-189.83"/>
<polygon fill="darkblue" stroke="darkblue" points="157.7,-190.7 157.64,-180.1 151.08,-188.43 157.7,-190.7"/>
</g>
<!-- NewQuery&#45;&gt;Workspace -->
<g id="edge13" class="edge">
<title>NewQuery&#45;&gt;Workspace</title>
<path fill="none" stroke="darkblue" stroke-dasharray="1,5" d="M140.26,-143.7C128.31,-134.8 113.58,-123.82 100.65,-114.2"/>
<polygon fill="darkblue" stroke="darkblue" points="102.58,-111.27 92.47,-108.1 98.4,-116.88 102.58,-111.27"/>
</g>
<!-- Submit -->
<g id="node12" class="node">
<title>Submit</title>
<polygon fill="none" stroke="black" points="366.5,-108 272.5,-108 272.5,-72 366.5,-72 366.5,-108"/>
<text text-anchor="middle" x="319.5" y="-93.8" font-family="Times,serif" font-size="14.00">Submit to</text>
<text text-anchor="middle" x="319.5" y="-78.8" font-family="Times,serif" font-size="14.00">queue</text>
</g>
<!-- NewQuery&#45;&gt;Submit -->
<g id="edge12" class="edge">
<title>NewQuery&#45;&gt;Submit</title>
<path fill="none" stroke="darkblue" d="M201.66,-143.88C222.89,-134.35 249.51,-122.41 272.07,-112.28"/>
<polygon fill="darkblue" stroke="darkblue" points="273.77,-115.36 281.46,-108.07 270.91,-108.97 273.77,-115.36"/>
</g>
<!-- Submit&#45;&gt;More -->
<g id="edge14" class="edge">
<title>Submit&#45;&gt;More</title>
<path fill="none" stroke="darkblue" d="M319.5,-108.05C319.5,-134.71 319.5,-187.89 319.5,-233 319.5,-403 319.5,-403 319.5,-403 319.5,-441.26 319.5,-484.38 319.5,-517.5"/>
<polygon fill="darkblue" stroke="darkblue" points="316,-517.88 319.5,-527.88 323,-517.88 316,-517.88"/>
</g>
<!-- Submit&#45;&gt;Queue -->
<g id="edge15" class="edge">
<title>Submit&#45;&gt;Queue</title>
<path fill="none" stroke="darkblue" stroke-dasharray="1,5" d="M357.66,-71.88C378.89,-62.35 405.51,-50.41 428.07,-40.28"/>
<polygon fill="darkblue" stroke="darkblue" points="429.77,-43.36 437.46,-36.07 426.91,-36.97 429.77,-43.36"/>
</g>
</g>
</svg>
