<?xml version="1.0" encoding="UTF-8" standalone="no"?>
<!DOCTYPE svg PUBLIC "-//W3C//DTD SVG 1.1//EN"
 "http://www.w3.org/Graphics/SVG/1.1/DTD/svg11.dtd">
<!-- Generated by graphviz version 2.43.0 (0)
 -->
<!-- Title: %3 Pages: 1 -->
<svg width="492pt" height="752pt"
 viewBox="0.00 0.00 492.00 752.00" xmlns="http://www.w3.org/2000/svg" xmlns:xlink="http://www.w3.org/1999/xlink">
<g id="graph0" class="graph" transform="scale(1 1) rotate(0) translate(4 748)">
<title>%3</title>
<polygon fill="white" stroke="transparent" points="-4,4 -4,-748 488,-748 488,4 -4,4"/>
<text text-anchor="middle" x="242" y="-728.8" font-family="Times,serif" font-size="14.00">Blast Job Submission</text>
<!-- Start -->
<g id="node1" class="node">
<title>Start</title>
<ellipse fill="none" stroke="blue" cx="235" cy="-703" rx="54" ry="18"/>
<text text-anchor="middle" x="235" y="-699.3" font-family="Times,serif" font-size="14.00">Start</text>
</g>
<!-- CalcDigest -->
<g id="node2" class="node">
<title>CalcDigest</title>
<polygon fill="none" stroke="black" points="289,-649 181,-649 181,-613 289,-613 289,-649"/>
<text text-anchor="middle" x="235" y="-634.8" font-family="Times,serif" font-size="14.00">Calculage</text>
<text text-anchor="middle" x="235" y="-619.8" font-family="Times,serif" font-size="14.00">job digest</text>
</g>
<!-- Start&#45;&gt;CalcDigest -->
<g id="edge1" class="edge">
<title>Start&#45;&gt;CalcDigest</title>
<path fill="none" stroke="darkblue" d="M235,-684.7C235,-676.98 235,-667.71 235,-659.11"/>
<polygon fill="darkblue" stroke="darkblue" points="238.5,-659.1 235,-649.1 231.5,-659.1 238.5,-659.1"/>
</g>
<!-- DigestInDB -->
<g id="node3" class="node">
<title>DigestInDB</title>
<polygon fill="none" stroke="black" points="55,-577 1,-532 55,-487 109,-532 55,-577"/>
<text text-anchor="middle" x="55" y="-543.3" font-family="Times,serif" font-size="14.00">Digest</text>
<text text-anchor="middle" x="55" y="-528.3" font-family="Times,serif" font-size="14.00">already</text>
<text text-anchor="middle" x="55" y="-513.3" font-family="Times,serif" font-size="14.00">in DB</text>
</g>
<!-- CalcDigest&#45;&gt;DigestInDB -->
<g id="edge2" class="edge">
<title>CalcDigest&#45;&gt;DigestInDB</title>
<path fill="none" stroke="darkblue" d="M203.23,-612.88C173.44,-596.82 128.71,-572.72 96.19,-555.19"/>
<polygon fill="darkblue" stroke="darkblue" points="97.82,-552.1 87.36,-550.44 94.5,-558.26 97.82,-552.1"/>
</g>
<!-- LinkUserToJob -->
<g id="node12" class="node">
<title>LinkUserToJob</title>
<polygon fill="none" stroke="black" points="469,-550 361,-550 361,-514 469,-514 469,-550"/>
<text text-anchor="middle" x="415" y="-535.8" font-family="Times,serif" font-size="14.00">Link user</text>
<text text-anchor="middle" x="415" y="-520.8" font-family="Times,serif" font-size="14.00">to job</text>
</g>
<!-- CalcDigest&#45;&gt;LinkUserToJob -->
<!-- IsUserLinkedToJob -->
<g id="node4" class="node">
<title>IsUserLinkedToJob</title>
<polygon fill="none" stroke="black" points="235,-577 181,-532 235,-487 289,-532 235,-577"/>
<text text-anchor="middle" x="235" y="-543.3" font-family="Times,serif" font-size="14.00">User is</text>
<text text-anchor="middle" x="235" y="-528.3" font-family="Times,serif" font-size="14.00">linked</text>
<text text-anchor="middle" x="235" y="-513.3" font-family="Times,serif" font-size="14.00">to job</text>
</g>
<!-- DigestInDB&#45;&gt;IsUserLinkedToJob -->
<g id="edge3" class="edge">
<title>DigestInDB&#45;&gt;IsUserLinkedToJob</title>
<path fill="none" stroke="darkgreen" d="M109.14,-532C129.7,-532 150.26,-532 170.83,-532"/>
<polygon fill="darkgreen" stroke="darkgreen" points="170.92,-535.5 180.92,-532 170.92,-528.5 170.92,-535.5"/>
<text text-anchor="middle" x="121.64" y="-535.8" font-family="Times,serif" font-size="14.00">Yes</text>
</g>
<!-- InsertJobInDB -->
<g id="node7" class="node">
<title>InsertJobInDB</title>
<polygon fill="none" stroke="black" points="108,-451 0,-451 0,-415 108,-415 108,-451"/>
<text text-anchor="middle" x="54" y="-436.8" font-family="Times,serif" font-size="14.00">Insert job</text>
<text text-anchor="middle" x="54" y="-421.8" font-family="Times,serif" font-size="14.00">into DB</text>
</g>
<!-- DigestInDB&#45;&gt;InsertJobInDB -->
<g id="edge4" class="edge">
<title>DigestInDB&#45;&gt;InsertJobInDB</title>
<path fill="none" stroke="darkred" d="M54.55,-487.32C54.46,-478.37 54.36,-469.2 54.28,-461.04"/>
<polygon fill="darkred" stroke="darkred" points="57.78,-460.97 54.18,-451.01 50.78,-461.04 57.78,-460.97"/>
<text text-anchor="middle" x="44.05" y="-476.12" font-family="Times,serif" font-size="14.00">No</text>
</g>
<!-- RefreshJobStatus -->
<g id="node8" class="node">
<title>RefreshJobStatus</title>
<polygon fill="none" stroke="black" points="469,-451 361,-451 361,-415 469,-415 469,-451"/>
<text text-anchor="middle" x="415" y="-436.8" font-family="Times,serif" font-size="14.00">Refresh job</text>
<text text-anchor="middle" x="415" y="-421.8" font-family="Times,serif" font-size="14.00">status</text>
</g>
<!-- IsUserLinkedToJob&#45;&gt;RefreshJobStatus -->
<g id="edge8" class="edge">
<title>IsUserLinkedToJob&#45;&gt;RefreshJobStatus</title>
<path fill="none" stroke="darkgreen" d="M267.18,-513.66C297.09,-497.54 341.78,-473.46 374.19,-455.99"/>
<polygon fill="darkgreen" stroke="darkgreen" points="376.26,-458.85 383.4,-451.03 372.94,-452.69 376.26,-458.85"/>
<text text-anchor="middle" x="279.68" y="-517.46" font-family="Times,serif" font-size="14.00">Yes</text>
</g>
<!-- JobStillCached -->
<g id="node10" class="node">
<title>JobStillCached</title>
<polygon fill="none" stroke="black" points="235,-364 180,-334 235,-304 290,-334 235,-364"/>
<text text-anchor="middle" x="235" y="-337.8" font-family="Times,serif" font-size="14.00">Job still</text>
<text text-anchor="middle" x="235" y="-322.8" font-family="Times,serif" font-size="14.00">cached</text>
</g>
<!-- IsUserLinkedToJob&#45;&gt;JobStillCached -->
<!-- IsUserLinkedToJob&#45;&gt;LinkUserToJob -->
<g id="edge9" class="edge">
<title>IsUserLinkedToJob&#45;&gt;LinkUserToJob</title>
<path fill="none" stroke="darkred" d="M289.14,-532C309.7,-532 330.26,-532 350.83,-532"/>
<polygon fill="darkred" stroke="darkred" points="350.92,-535.5 360.92,-532 350.92,-528.5 350.92,-535.5"/>
<text text-anchor="middle" x="299.64" y="-535.8" font-family="Times,serif" font-size="14.00">No</text>
</g>
<!-- CreateWorkspace -->
<g id="node5" class="node">
<title>CreateWorkspace</title>
<polygon fill="none" stroke="black" points="108,-352 0,-352 0,-316 108,-316 108,-352"/>
<text text-anchor="middle" x="54" y="-337.8" font-family="Times,serif" font-size="14.00">Create job</text>
<text text-anchor="middle" x="54" y="-322.8" font-family="Times,serif" font-size="14.00">workspace</text>
</g>
<!-- CreateQueryFile -->
<g id="node6" class="node">
<title>CreateQueryFile</title>
<polygon fill="none" stroke="black" points="109,-253 1,-253 1,-217 109,-217 109,-253"/>
<text text-anchor="middle" x="55" y="-238.8" font-family="Times,serif" font-size="14.00">Create</text>
<text text-anchor="middle" x="55" y="-223.8" font-family="Times,serif" font-size="14.00">query file</text>
</g>
<!-- CreateWorkspace&#45;&gt;CreateQueryFile -->
<g id="edge14" class="edge">
<title>CreateWorkspace&#45;&gt;CreateQueryFile</title>
<path fill="none" stroke="darkblue" d="M54.18,-315.66C54.33,-301.18 54.54,-280.26 54.72,-263.5"/>
<polygon fill="darkblue" stroke="darkblue" points="58.22,-263.23 54.82,-253.19 51.22,-263.15 58.22,-263.23"/>
</g>
<!-- SubmitJobToQueue -->
<g id="node13" class="node">
<title>SubmitJobToQueue</title>
<polygon fill="none" stroke="black" points="109,-181 1,-181 1,-145 109,-145 109,-181"/>
<text text-anchor="middle" x="55" y="-166.8" font-family="Times,serif" font-size="14.00">Submit job</text>
<text text-anchor="middle" x="55" y="-151.8" font-family="Times,serif" font-size="14.00">to queue</text>
</g>
<!-- CreateQueryFile&#45;&gt;SubmitJobToQueue -->
<g id="edge15" class="edge">
<title>CreateQueryFile&#45;&gt;SubmitJobToQueue</title>
<path fill="none" stroke="darkblue" d="M55,-216.7C55,-208.98 55,-199.71 55,-191.11"/>
<polygon fill="darkblue" stroke="darkblue" points="58.5,-191.1 55,-181.1 51.5,-191.1 58.5,-191.1"/>
</g>
<!-- InsertJobInDB&#45;&gt;CreateWorkspace -->
<g id="edge5" class="edge">
<title>InsertJobInDB&#45;&gt;CreateWorkspace</title>
<path fill="none" stroke="darkblue" d="M54,-414.66C54,-400.18 54,-379.26 54,-362.5"/>
<polygon fill="darkblue" stroke="darkblue" points="57.5,-362.19 54,-352.19 50.5,-362.19 57.5,-362.19"/>
</g>
<!-- JobStatusFailed -->
<g id="node9" class="node">
<title>JobStatusFailed</title>
<polygon fill="none" stroke="black" points="423,-379 362,-334 423,-289 484,-334 423,-379"/>
<text text-anchor="middle" x="423" y="-345.3" font-family="Times,serif" font-size="14.00">Job</text>
<text text-anchor="middle" x="423" y="-330.3" font-family="Times,serif" font-size="14.00">status is</text>
<text text-anchor="middle" x="423" y="-315.3" font-family="Times,serif" font-size="14.00">failed</text>
</g>
<!-- RefreshJobStatus&#45;&gt;JobStatusFailed -->
<g id="edge10" class="edge">
<title>RefreshJobStatus&#45;&gt;JobStatusFailed</title>
<path fill="none" stroke="darkblue" d="M416.43,-414.66C417.08,-406.73 417.9,-396.87 418.73,-386.83"/>
<polygon fill="darkblue" stroke="darkblue" points="422.22,-387.03 419.55,-376.78 415.24,-386.46 422.22,-387.03"/>
</g>
<!-- 200 -->
<g id="node16" class="node">
<title>200</title>
<polygon fill="none" stroke="green" points="382,-36 274,-36 274,0 382,0 382,-36"/>
<text text-anchor="middle" x="328" y="-21.8" font-family="Times,serif" font-size="14.00">200</text>
<text text-anchor="middle" x="328" y="-6.8" font-family="Times,serif" font-size="14.00">Return job ID</text>
</g>
<!-- JobStatusFailed&#45;&gt;200 -->
<g id="edge17" class="edge">
<title>JobStatusFailed&#45;&gt;200</title>
<path fill="none" stroke="darkgreen" d="M412.1,-296.98C392.83,-233.29 353.17,-102.19 336.1,-45.78"/>
<polygon fill="darkgreen" stroke="darkgreen" points="339.43,-44.7 333.19,-36.15 332.73,-46.73 339.43,-44.7"/>
<text text-anchor="middle" x="399.6" y="-285.78" font-family="Times,serif" font-size="14.00">Yes</text>
</g>
<!-- JobStillCached&#45;&gt;JobStatusFailed -->
<g id="edge11" class="edge">
<title>JobStillCached&#45;&gt;JobStatusFailed</title>
<path fill="none" stroke="darkred" d="M300.19,-334C320.79,-334 341.39,-334 361.99,-334"/>
<polygon fill="darkred" stroke="darkred" points="300.08,-330.5 290.08,-334 300.08,-337.5 300.08,-330.5"/>
<text text-anchor="middle" x="351.49" y="-337.8" font-family="Times,serif" font-size="14.00">No</text>
</g>
<!-- UpdateJobLastUsed -->
<g id="node11" class="node">
<title>UpdateJobLastUsed</title>
<polygon fill="none" stroke="black" points="289,-253 181,-253 181,-217 289,-217 289,-253"/>
<text text-anchor="middle" x="235" y="-238.8" font-family="Times,serif" font-size="14.00">Update job</text>
<text text-anchor="middle" x="235" y="-223.8" font-family="Times,serif" font-size="14.00">last used</text>
</g>
<!-- JobStillCached&#45;&gt;UpdateJobLastUsed -->
<g id="edge12" class="edge">
<title>JobStillCached&#45;&gt;UpdateJobLastUsed</title>
<path fill="none" stroke="darkgreen" d="M235,-303.9C235,-291.12 235,-276.2 235,-263.6"/>
<polygon fill="darkgreen" stroke="darkgreen" points="238.5,-263.24 235,-253.24 231.5,-263.24 238.5,-263.24"/>
<text text-anchor="middle" x="222.5" y="-292.7" font-family="Times,serif" font-size="14.00">Yes</text>
</g>
<!-- GetSubJobList -->
<g id="node14" class="node">
<title>GetSubJobList</title>
<polygon fill="none" stroke="black" points="289,-181 181,-181 181,-145 289,-145 289,-181"/>
<text text-anchor="middle" x="235" y="-166.8" font-family="Times,serif" font-size="14.00">Get sub</text>
<text text-anchor="middle" x="235" y="-151.8" font-family="Times,serif" font-size="14.00">job list</text>
</g>
<!-- UpdateJobLastUsed&#45;&gt;GetSubJobList -->
<g id="edge13" class="edge">
<title>UpdateJobLastUsed&#45;&gt;GetSubJobList</title>
<path fill="none" stroke="darkblue" d="M235,-216.7C235,-208.98 235,-199.71 235,-191.11"/>
<polygon fill="darkblue" stroke="darkblue" points="238.5,-191.1 235,-181.1 231.5,-191.1 238.5,-191.1"/>
</g>
<!-- LinkUserToJob&#45;&gt;RefreshJobStatus -->
<g id="edge6" class="edge">
<title>LinkUserToJob&#45;&gt;RefreshJobStatus</title>
<path fill="none" stroke="darkblue" d="M415,-513.66C415,-499.18 415,-478.26 415,-461.5"/>
<polygon fill="darkblue" stroke="darkblue" points="418.5,-461.19 415,-451.19 411.5,-461.19 418.5,-461.19"/>
</g>
<!-- SubmitJobToQueue&#45;&gt;GetSubJobList -->
<g id="edge16" class="edge">
<title>SubmitJobToQueue&#45;&gt;GetSubJobList</title>
<path fill="none" stroke="darkblue" d="M109.14,-163C129.7,-163 150.26,-163 170.83,-163"/>
<polygon fill="darkblue" stroke="darkblue" points="170.92,-166.5 180.92,-163 170.92,-159.5 170.92,-166.5"/>
</g>
<!-- HandleSubJobList -->
<g id="node15" class="node">
<title>HandleSubJobList</title>
<polygon fill="none" stroke="black" points="173,-72.5 173,-108.5 303,-108.5 303,-72.5 173,-72.5"/>
<text text-anchor="middle" x="175.5" y="-86.8" font-family="Times,serif" font-size="14.00"> </text>
<polyline fill="none" stroke="black" points="178,-72.5 178,-108.5 "/>
<text text-anchor="middle" x="238" y="-86.8" font-family="Times,serif" font-size="14.00">Process sub&#45;jobs</text>
<polyline fill="none" stroke="black" points="298,-72.5 298,-108.5 "/>
<text text-anchor="middle" x="300.5" y="-86.8" font-family="Times,serif" font-size="14.00"> </text>
</g>
<!-- GetSubJobList&#45;&gt;HandleSubJobList -->
<g id="edge7" class="edge">
<title>GetSubJobList&#45;&gt;HandleSubJobList</title>
<path fill="none" stroke="darkblue" d="M235.73,-144.93C236.06,-137.17 236.46,-127.78 236.83,-119.06"/>
<polygon fill="darkblue" stroke="darkblue" points="240.33,-119.04 237.26,-108.9 233.34,-118.74 240.33,-119.04"/>
</g>
<!-- HandleSubJobList&#45;&gt;200 -->
<g id="edge18" class="edge">
<title>HandleSubJobList&#45;&gt;200</title>
<path fill="none" stroke="darkblue" d="M259.79,-72.43C271.31,-63.41 285.63,-52.19 298.17,-42.37"/>
<polygon fill="darkblue" stroke="darkblue" points="300.39,-45.08 306.1,-36.15 296.07,-39.56 300.39,-45.08"/>
</g>
</g>
</svg>
