<?xml version="1.0" encoding="UTF-8" standalone="no"?>
<!DOCTYPE svg PUBLIC "-//W3C//DTD SVG 1.1//EN"
 "http://www.w3.org/Graphics/SVG/1.1/DTD/svg11.dtd">
<!-- Generated by graphviz version 2.43.0 (0)
 -->
<!-- Title: %3 Pages: 1 -->
<svg width="497pt" height="1013pt"
 viewBox="0.00 0.00 497.00 1013.25" xmlns="http://www.w3.org/2000/svg" xmlns:xlink="http://www.w3.org/1999/xlink">
<g id="graph0" class="graph" transform="scale(1 1) rotate(0) translate(4 1009.25)">
<title>%3</title>
<polygon fill="white" stroke="transparent" points="-4,4 -4,-1009.25 493,-1009.25 493,4 -4,4"/>
<text text-anchor="middle" x="244.5" y="-990.05" font-family="Times,serif" font-size="14.00">Blast Job Submission</text>
<!-- Start -->
<g id="node1" class="node">
<title>Start</title>
<ellipse fill="none" stroke="black" cx="251" cy="-964.25" rx="54" ry="18"/>
<text text-anchor="middle" x="251" y="-960.55" font-family="Times,serif" font-size="14.00">Start</text>
</g>
<!-- CalcDigest -->
<g id="node2" class="node">
<title>CalcDigest</title>
<polygon fill="none" stroke="black" points="305,-896.25 197,-896.25 197,-860.25 305,-860.25 305,-896.25"/>
<text text-anchor="middle" x="251" y="-882.05" font-family="Times,serif" font-size="14.00">Calculate</text>
<text text-anchor="middle" x="251" y="-867.05" font-family="Times,serif" font-size="14.00">job digest</text>
</g>
<!-- Start&#45;&gt;CalcDigest -->
<g id="edge1" class="edge">
<title>Start&#45;&gt;CalcDigest</title>
<path fill="none" stroke="darkblue" d="M251,-946.01C251,-946.01 251,-906.46 251,-906.46"/>
<polygon fill="darkblue" stroke="darkblue" points="254.5,-906.46 251,-896.46 247.5,-906.46 254.5,-906.46"/>
</g>
<!-- R1 -->
<g id="node20" class="node">
<title>R1</title>
</g>
<!-- Start&#45;&gt;R1 -->
<!-- GetAndLinkUserJob -->
<g id="node3" class="node">
<title>GetAndLinkUserJob</title>
<polygon fill="none" stroke="black" points="197,-773.75 197,-809.75 305,-809.75 305,-773.75 197,-773.75"/>
<text text-anchor="middle" x="200.5" y="-788.05" font-family="Times,serif" font-size="14.00"> </text>
<polyline fill="none" stroke="black" points="204,-773.75 204,-809.75 "/>
<text text-anchor="middle" x="251" y="-795.55" font-family="Times,serif" font-size="14.00">Get and Link</text>
<text text-anchor="middle" x="251" y="-780.55" font-family="Times,serif" font-size="14.00">User Job</text>
<polyline fill="none" stroke="black" points="298,-773.75 298,-809.75 "/>
<text text-anchor="middle" x="301.5" y="-788.05" font-family="Times,serif" font-size="14.00"> </text>
</g>
<!-- CalcDigest&#45;&gt;GetAndLinkUserJob -->
<g id="edge2" class="edge">
<title>CalcDigest&#45;&gt;GetAndLinkUserJob</title>
<path fill="none" stroke="darkblue" d="M251,-859.91C251,-859.91 251,-819.77 251,-819.77"/>
<polygon fill="darkblue" stroke="darkblue" points="254.5,-819.77 251,-809.77 247.5,-819.77 254.5,-819.77"/>
</g>
<!-- JobFound -->
<g id="node4" class="node">
<title>JobFound</title>
<polygon fill="none" stroke="black" points="251,-723.25 197,-693.25 251,-663.25 305,-693.25 251,-723.25"/>
<text text-anchor="middle" x="251" y="-697.05" font-family="Times,serif" font-size="14.00">Found</text>
<text text-anchor="middle" x="251" y="-682.05" font-family="Times,serif" font-size="14.00">job?</text>
</g>
<!-- GetAndLinkUserJob&#45;&gt;JobFound -->
<g id="edge3" class="edge">
<title>GetAndLinkUserJob&#45;&gt;JobFound</title>
<path fill="none" stroke="darkblue" d="M251,-773.68C251,-773.68 251,-733.58 251,-733.58"/>
<polygon fill="darkblue" stroke="darkblue" points="254.5,-733.58 251,-723.58 247.5,-733.58 254.5,-733.58"/>
</g>
<!-- LinkUserToJob -->
<g id="node11" class="node">
<title>LinkUserToJob</title>
<polygon fill="none" stroke="black" points="485,-711.25 377,-711.25 377,-675.25 485,-675.25 485,-711.25"/>
<text text-anchor="middle" x="431" y="-697.05" font-family="Times,serif" font-size="14.00">Link user</text>
<text text-anchor="middle" x="431" y="-682.05" font-family="Times,serif" font-size="14.00">to job</text>
</g>
<!-- JobFound&#45;&gt;LinkUserToJob -->
<g id="edge4" class="edge">
<title>JobFound&#45;&gt;LinkUserToJob</title>
<path fill="none" stroke="darkgreen" d="M294.11,-687C294.11,-687 366.95,-687 366.95,-687"/>
<polygon fill="darkgreen" stroke="darkgreen" points="366.95,-690.5 376.95,-687 366.95,-683.5 366.95,-690.5"/>
<text text-anchor="middle" x="306.61" y="-690.8" font-family="Times,serif" font-size="14.00">Yes</text>
</g>
<!-- DB -->
<g id="node16" class="node">
<title>DB</title>
<path fill="none" stroke="purple" d="M301,-609.48C301,-611.28 276.8,-612.75 247,-612.75 217.2,-612.75 193,-611.28 193,-609.48 193,-609.48 193,-580.02 193,-580.02 193,-578.22 217.2,-576.75 247,-576.75 276.8,-576.75 301,-578.22 301,-580.02 301,-580.02 301,-609.48 301,-609.48"/>
<path fill="none" stroke="purple" d="M301,-609.48C301,-607.67 276.8,-606.2 247,-606.2 217.2,-606.2 193,-607.67 193,-609.48"/>
<text text-anchor="middle" x="247" y="-591.05" font-family="Times,serif" font-size="14.00">MBlast DB</text>
</g>
<!-- JobFound&#45;&gt;DB -->
<!-- CreateWorkspace -->
<g id="node5" class="node">
<title>CreateWorkspace</title>
<polygon fill="none" stroke="black" points="125,-413.25 17,-413.25 17,-377.25 125,-377.25 125,-413.25"/>
<text text-anchor="middle" x="71" y="-399.05" font-family="Times,serif" font-size="14.00">Create job</text>
<text text-anchor="middle" x="71" y="-384.05" font-family="Times,serif" font-size="14.00">workspace</text>
</g>
<!-- CreateQueryFile -->
<g id="node6" class="node">
<title>CreateQueryFile</title>
<polygon fill="none" stroke="black" points="108,-297.62 0,-297.62 0,-261.62 108,-261.62 108,-297.62"/>
<text text-anchor="middle" x="54" y="-283.43" font-family="Times,serif" font-size="14.00">Create</text>
<text text-anchor="middle" x="54" y="-268.43" font-family="Times,serif" font-size="14.00">query file</text>
</g>
<!-- CreateWorkspace&#45;&gt;CreateQueryFile -->
<g id="edge19" class="edge">
<title>CreateWorkspace&#45;&gt;CreateQueryFile</title>
<path fill="none" stroke="darkblue" d="M62.5,-377.18C62.5,-377.18 62.5,-307.95 62.5,-307.95"/>
<polygon fill="darkblue" stroke="darkblue" points="66,-307.95 62.5,-297.95 59,-307.95 66,-307.95"/>
</g>
<!-- JobStatusFailed -->
<g id="node9" class="node">
<title>JobStatusFailed</title>
<polygon fill="none" stroke="black" points="410,-440.25 348,-395.25 410,-350.25 472,-395.25 410,-440.25"/>
<text text-anchor="middle" x="410" y="-406.55" font-family="Times,serif" font-size="14.00">Job</text>
<text text-anchor="middle" x="410" y="-391.55" font-family="Times,serif" font-size="14.00">status is</text>
<text text-anchor="middle" x="410" y="-376.55" font-family="Times,serif" font-size="14.00">expired?</text>
</g>
<!-- CreateWorkspace&#45;&gt;JobStatusFailed -->
<g id="edge16" class="edge">
<title>CreateWorkspace&#45;&gt;JobStatusFailed</title>
<path fill="none" stroke="darkgreen" d="M135.09,-395C135.09,-395 348.06,-395 348.06,-395"/>
<polygon fill="darkgreen" stroke="darkgreen" points="135.09,-391.5 125.09,-395 135.09,-398.5 135.09,-391.5"/>
<text text-anchor="middle" x="335.56" y="-398.8" font-family="Times,serif" font-size="14.00">Yes</text>
</g>
<!-- FS -->
<g id="node17" class="node">
<title>FS</title>
<path fill="none" stroke="purple" d="M288,-296.6C288,-298.68 263.8,-300.38 234,-300.38 204.2,-300.38 180,-298.68 180,-296.6 180,-296.6 180,-262.65 180,-262.65 180,-260.57 204.2,-258.87 234,-258.87 263.8,-258.87 288,-260.57 288,-262.65 288,-262.65 288,-296.6 288,-296.6"/>
<path fill="none" stroke="purple" d="M288,-296.6C288,-294.52 263.8,-292.83 234,-292.83 204.2,-292.83 180,-294.52 180,-296.6"/>
<text text-anchor="middle" x="234" y="-283.43" font-family="Times,serif" font-size="14.00">MBlast</text>
<text text-anchor="middle" x="234" y="-268.43" font-family="Times,serif" font-size="14.00">workspaces</text>
</g>
<!-- CreateWorkspace&#45;&gt;FS -->
<g id="edge20" class="edge">
<title>CreateWorkspace&#45;&gt;FS</title>
<path fill="none" stroke="#333333" stroke-dasharray="1,5" d="M116.5,-377.04C116.5,-345.73 116.5,-285 116.5,-285 116.5,-285 169.72,-285 169.72,-285"/>
<polygon fill="#333333" stroke="#333333" points="169.72,-288.5 179.72,-285 169.72,-281.5 169.72,-288.5"/>
</g>
<!-- SubmitJobToQueue -->
<g id="node12" class="node">
<title>SubmitJobToQueue</title>
<polygon fill="none" stroke="black" points="108,-209 0,-209 0,-173 108,-173 108,-209"/>
<text text-anchor="middle" x="54" y="-194.8" font-family="Times,serif" font-size="14.00">Submit job</text>
<text text-anchor="middle" x="54" y="-179.8" font-family="Times,serif" font-size="14.00">to queue</text>
</g>
<!-- CreateQueryFile&#45;&gt;SubmitJobToQueue -->
<g id="edge21" class="edge">
<title>CreateQueryFile&#45;&gt;SubmitJobToQueue</title>
<path fill="none" stroke="darkblue" d="M54,-261.26C54,-261.26 54,-219.04 54,-219.04"/>
<polygon fill="darkblue" stroke="darkblue" points="57.5,-219.04 54,-209.04 50.5,-219.04 57.5,-219.04"/>
</g>
<!-- CreateQueryFile&#45;&gt;FS -->
<g id="edge22" class="edge">
<title>CreateQueryFile&#45;&gt;FS</title>
<path fill="none" stroke="#333333" stroke-dasharray="1,5" d="M108.01,-273C108.01,-273 169.72,-273 169.72,-273"/>
<polygon fill="#333333" stroke="#333333" points="169.72,-276.5 179.72,-273 169.72,-269.5 169.72,-276.5"/>
</g>
<!-- InsertJobInDB -->
<g id="node7" class="node">
<title>InsertJobInDB</title>
<polygon fill="none" stroke="black" points="125,-711.25 17,-711.25 17,-675.25 125,-675.25 125,-711.25"/>
<text text-anchor="middle" x="71" y="-697.05" font-family="Times,serif" font-size="14.00">Insert job</text>
<text text-anchor="middle" x="71" y="-682.05" font-family="Times,serif" font-size="14.00">into DB</text>
</g>
<!-- InsertJobInDB&#45;&gt;JobFound -->
<g id="edge5" class="edge">
<title>InsertJobInDB&#45;&gt;JobFound</title>
<path fill="none" stroke="darkred" d="M135.01,-693C135.01,-693 197.34,-693 197.34,-693"/>
<polygon fill="darkred" stroke="darkred" points="135.01,-689.5 125.01,-693 135.01,-696.5 135.01,-689.5"/>
<text text-anchor="middle" x="186.84" y="-696.8" font-family="Times,serif" font-size="14.00">No</text>
</g>
<!-- InsertJobInDB&#45;&gt;CreateWorkspace -->
<g id="edge6" class="edge">
<title>InsertJobInDB&#45;&gt;CreateWorkspace</title>
<path fill="none" stroke="darkblue" d="M44,-675.06C44,-675.06 44,-423.58 44,-423.58"/>
<polygon fill="darkblue" stroke="darkblue" points="47.5,-423.58 44,-413.58 40.5,-423.58 47.5,-423.58"/>
</g>
<!-- InsertJobInDB&#45;&gt;DB -->
<g id="edge7" class="edge">
<title>InsertJobInDB&#45;&gt;DB</title>
<path fill="none" stroke="#333333" stroke-dasharray="1,5" d="M71,-675.05C71,-646.39 71,-594 71,-594 71,-594 182.76,-594 182.76,-594"/>
<polygon fill="#333333" stroke="#333333" points="182.76,-597.5 192.76,-594 182.76,-590.5 182.76,-597.5"/>
</g>
<!-- RefreshJobStatus -->
<g id="node8" class="node">
<title>RefreshJobStatus</title>
<polygon fill="none" stroke="black" points="381,-576.75 381,-612.75 489,-612.75 489,-576.75 381,-576.75"/>
<text text-anchor="middle" x="386" y="-591.05" font-family="Times,serif" font-size="14.00"> </text>
<polyline fill="none" stroke="black" points="391,-576.75 391,-612.75 "/>
<text text-anchor="middle" x="434.5" y="-598.55" font-family="Times,serif" font-size="14.00">Refresh job</text>
<text text-anchor="middle" x="434.5" y="-583.55" font-family="Times,serif" font-size="14.00">status</text>
<polyline fill="none" stroke="black" points="478,-576.75 478,-612.75 "/>
<text text-anchor="middle" x="483.5" y="-591.05" font-family="Times,serif" font-size="14.00"> </text>
</g>
<!-- RefreshJobStatus&#45;&gt;JobStatusFailed -->
<g id="edge11" class="edge">
<title>RefreshJobStatus&#45;&gt;JobStatusFailed</title>
<path fill="none" stroke="darkblue" d="M441.67,-576.69C441.67,-576.69 441.67,-427.32 441.67,-427.32"/>
<polygon fill="darkblue" stroke="darkblue" points="445.17,-427.32 441.67,-417.32 438.17,-427.32 445.17,-427.32"/>
</g>
<!-- RefreshJobStatus&#45;&gt;DB -->
<g id="edge12" class="edge">
<title>RefreshJobStatus&#45;&gt;DB</title>
<path fill="none" stroke="#333333" stroke-dasharray="1,5" d="M370.87,-594C370.87,-594 311.07,-594 311.07,-594"/>
<polygon fill="#333333" stroke="#333333" points="311.07,-590.5 301.07,-594 311.07,-597.5 311.07,-590.5"/>
<polygon fill="#333333" stroke="#333333" points="370.87,-597.5 380.87,-594 370.87,-590.5 370.87,-597.5"/>
</g>
<!-- RefreshJobStatus&#45;&gt;FS -->
<g id="edge14" class="edge">
<title>RefreshJobStatus&#45;&gt;FS</title>
<path fill="none" stroke="#333333" stroke-dasharray="1,5" d="M370.75,-585C370.75,-585 326.5,-585 326.5,-585 326.5,-585 326.5,-285 326.5,-285 326.5,-285 308.32,-285 288.08,-285"/>
<polygon fill="#333333" stroke="#333333" points="370.75,-588.5 380.75,-585 370.75,-581.5 370.75,-588.5"/>
</g>
<!-- UpdateJobLastUsed -->
<g id="node10" class="node">
<title>UpdateJobLastUsed</title>
<polygon fill="none" stroke="black" points="468,-297.62 360,-297.62 360,-261.62 468,-261.62 468,-297.62"/>
<text text-anchor="middle" x="414" y="-283.43" font-family="Times,serif" font-size="14.00">Update job</text>
<text text-anchor="middle" x="414" y="-268.43" font-family="Times,serif" font-size="14.00">last used</text>
</g>
<!-- JobStatusFailed&#45;&gt;UpdateJobLastUsed -->
<g id="edge15" class="edge">
<title>JobStatusFailed&#45;&gt;UpdateJobLastUsed</title>
<path fill="none" stroke="darkred" d="M414,-352.85C414,-352.85 414,-307.84 414,-307.84"/>
<polygon fill="darkred" stroke="darkred" points="417.5,-307.84 414,-297.84 410.5,-307.84 417.5,-307.84"/>
<text text-anchor="middle" x="403.5" y="-341.65" font-family="Times,serif" font-size="14.00">No</text>
</g>
<!-- GetSubJobList -->
<g id="node13" class="node">
<title>GetSubJobList</title>
<polygon fill="none" stroke="black" points="468,-209 360,-209 360,-173 468,-173 468,-209"/>
<text text-anchor="middle" x="414" y="-194.8" font-family="Times,serif" font-size="14.00">Get sub</text>
<text text-anchor="middle" x="414" y="-179.8" font-family="Times,serif" font-size="14.00">job list</text>
</g>
<!-- UpdateJobLastUsed&#45;&gt;GetSubJobList -->
<g id="edge17" class="edge">
<title>UpdateJobLastUsed&#45;&gt;GetSubJobList</title>
<path fill="none" stroke="darkblue" d="M414,-261.26C414,-261.26 414,-219.04 414,-219.04"/>
<polygon fill="darkblue" stroke="darkblue" points="417.5,-219.04 414,-209.04 410.5,-219.04 417.5,-219.04"/>
</g>
<!-- UpdateJobLastUsed&#45;&gt;FS -->
<g id="edge18" class="edge">
<title>UpdateJobLastUsed&#45;&gt;FS</title>
<path fill="none" stroke="#333333" stroke-dasharray="1,5" d="M359.99,-273C359.99,-273 298.28,-273 298.28,-273"/>
<polygon fill="#333333" stroke="#333333" points="298.28,-269.5 288.28,-273 298.28,-276.5 298.28,-269.5"/>
</g>
<!-- LinkUserToJob&#45;&gt;RefreshJobStatus -->
<g id="edge8" class="edge">
<title>LinkUserToJob&#45;&gt;RefreshJobStatus</title>
<path fill="none" stroke="darkblue" d="M433,-675.18C433,-675.18 433,-623.04 433,-623.04"/>
<polygon fill="darkblue" stroke="darkblue" points="436.5,-623.04 433,-613.04 429.5,-623.04 436.5,-623.04"/>
</g>
<!-- LinkUserToJob&#45;&gt;DB -->
<g id="edge9" class="edge">
<title>LinkUserToJob&#45;&gt;DB</title>
<path fill="none" stroke="#333333" stroke-dasharray="1,5" d="M376.73,-699C371.07,-699 367.33,-699 367.33,-699 367.33,-699 367.33,-603 367.33,-603 367.33,-603 311.18,-603 311.18,-603"/>
<polygon fill="#333333" stroke="#333333" points="311.18,-599.5 301.18,-603 311.18,-606.5 311.18,-599.5"/>
</g>
<!-- SubmitJobToQueue&#45;&gt;GetSubJobList -->
<g id="edge23" class="edge">
<title>SubmitJobToQueue&#45;&gt;GetSubJobList</title>
<path fill="none" stroke="darkblue" d="M108.29,-185C108.29,-185 349.86,-185 349.86,-185"/>
<polygon fill="darkblue" stroke="darkblue" points="349.86,-188.5 359.86,-185 349.86,-181.5 349.86,-188.5"/>
</g>
<!-- Queue -->
<g id="node18" class="node">
<title>Queue</title>
<polygon fill="none" stroke="purple" points="288,-526.25 180,-526.25 180,-522.25 176,-522.25 176,-518.25 180,-518.25 180,-498.25 176,-498.25 176,-494.25 180,-494.25 180,-490.25 288,-490.25 288,-526.25"/>
<polyline fill="none" stroke="purple" points="180,-522.25 184,-522.25 184,-518.25 180,-518.25 "/>
<polyline fill="none" stroke="purple" points="180,-498.25 184,-498.25 184,-494.25 180,-494.25 "/>
<text text-anchor="middle" x="234" y="-504.55" font-family="Times,serif" font-size="14.00">Job queue</text>
</g>
<!-- SubmitJobToQueue&#45;&gt;Queue -->
<g id="edge24" class="edge">
<title>SubmitJobToQueue&#45;&gt;Queue</title>
<path fill="none" stroke="#333333" stroke-dasharray="5,2" d="M108.15,-197C131.04,-197 152.5,-197 152.5,-197 152.5,-197 152.5,-514 152.5,-514 152.5,-514 169.64,-514 169.64,-514"/>
<polygon fill="#333333" stroke="#333333" points="169.64,-517.5 179.64,-514 169.64,-510.5 169.64,-517.5"/>
</g>
<!-- HandleSubJobList -->
<g id="node14" class="node">
<title>HandleSubJobList</title>
<polygon fill="none" stroke="black" points="360,-86.5 360,-122.5 468,-122.5 468,-86.5 360,-86.5"/>
<text text-anchor="middle" x="368.5" y="-100.8" font-family="Times,serif" font-size="14.00"> </text>
<polyline fill="none" stroke="black" points="377,-86.5 377,-122.5 "/>
<text text-anchor="middle" x="413.5" y="-108.3" font-family="Times,serif" font-size="14.00">Process</text>
<text text-anchor="middle" x="413.5" y="-93.3" font-family="Times,serif" font-size="14.00">sub&#45;jobs</text>
<polyline fill="none" stroke="black" points="450,-86.5 450,-122.5 "/>
<text text-anchor="middle" x="459" y="-100.8" font-family="Times,serif" font-size="14.00"> </text>
</g>
<!-- GetSubJobList&#45;&gt;HandleSubJobList -->
<g id="edge10" class="edge">
<title>GetSubJobList&#45;&gt;HandleSubJobList</title>
<path fill="none" stroke="darkblue" d="M414,-172.66C414,-172.66 414,-132.52 414,-132.52"/>
<polygon fill="darkblue" stroke="darkblue" points="417.5,-132.52 414,-122.52 410.5,-132.52 417.5,-132.52"/>
</g>
<!-- 200 -->
<g id="node15" class="node">
<title>200</title>
<ellipse fill="none" stroke="black" cx="414" cy="-18" rx="54" ry="18"/>
<text text-anchor="middle" x="414" y="-14.3" font-family="Times,serif" font-size="14.00">End</text>
</g>
<!-- HandleSubJobList&#45;&gt;200 -->
<g id="edge25" class="edge">
<title>HandleSubJobList&#45;&gt;200</title>
<path fill="none" stroke="darkblue" d="M414,-86.16C414,-86.16 414,-46.02 414,-46.02"/>
<polygon fill="darkblue" stroke="darkblue" points="417.5,-46.02 414,-36.02 410.5,-46.02 417.5,-46.02"/>
</g>
<!-- DB&#45;&gt;Queue -->
<!-- Queue&#45;&gt;CreateWorkspace -->
<!-- Queue&#45;&gt;RefreshJobStatus -->
<g id="edge13" class="edge">
<title>Queue&#45;&gt;RefreshJobStatus</title>
<path fill="none" stroke="#333333" stroke-dasharray="5,2" d="M288.17,-514C340.32,-514 411.33,-514 411.33,-514 411.33,-514 411.33,-566.43 411.33,-566.43"/>
<polygon fill="#333333" stroke="#333333" points="407.83,-566.43 411.33,-576.43 414.83,-566.43 407.83,-566.43"/>
</g>
<!-- Queue&#45;&gt;JobStatusFailed -->
<!-- Queue&#45;&gt;FS -->
<!-- L1 -->
<g id="node19" class="node">
<title>L1</title>
</g>
<!-- L1&#45;&gt;Start -->
<!-- L1&#45;&gt;InsertJobInDB -->
<!-- R1&#45;&gt;LinkUserToJob -->
</g>
</svg>
