<?xml version="1.0" encoding="UTF-8" standalone="no"?>
<!DOCTYPE svg PUBLIC "-//W3C//DTD SVG 1.1//EN"
 "http://www.w3.org/Graphics/SVG/1.1/DTD/svg11.dtd">
<!-- Generated by graphviz version 2.43.0 (0)
 -->
<!-- Title: %3 Pages: 1 -->
<svg width="495pt" height="1343pt"
 viewBox="0.00 0.00 495.00 1342.68" xmlns="http://www.w3.org/2000/svg" xmlns:xlink="http://www.w3.org/1999/xlink">
<g id="graph0" class="graph" transform="scale(1 1) rotate(0) translate(4 1338.68)">
<title>%3</title>
<polygon fill="white" stroke="transparent" points="-4,4 -4,-1338.68 491,-1338.68 491,4 -4,4"/>
<!-- 401 -->
<g id="node1" class="node">
<title>401</title>
<ellipse fill="none" stroke="orange" cx="54" cy="-1195.68" rx="54" ry="18"/>
<text text-anchor="middle" x="54" y="-1191.98" font-family="Times,serif" font-size="14.00">401</text>
</g>
<!-- 404 -->
<g id="node2" class="node">
<title>404</title>
<ellipse fill="none" stroke="orange" cx="54" cy="-979.18" rx="54" ry="18"/>
<text text-anchor="middle" x="54" y="-975.48" font-family="Times,serif" font-size="14.00">404</text>
</g>
<!-- 401&#45;&gt;404 -->
<!-- IsUserTokenProvided -->
<g id="node8" class="node">
<title>IsUserTokenProvided</title>
<polygon fill="none" stroke="black" points="251,-1240.68 180,-1195.68 251,-1150.68 322,-1195.68 251,-1240.68"/>
<text text-anchor="middle" x="251" y="-1206.98" font-family="Times,serif" font-size="14.00">Is user</text>
<text text-anchor="middle" x="251" y="-1191.98" font-family="Times,serif" font-size="14.00">token</text>
<text text-anchor="middle" x="251" y="-1176.98" font-family="Times,serif" font-size="14.00">provided?</text>
</g>
<!-- 401&#45;&gt;IsUserTokenProvided -->
<g id="edge3" class="edge">
<title>401&#45;&gt;IsUserTokenProvided</title>
<path fill="none" stroke="darkred" d="M118.33,-1195.68C138.85,-1195.68 159.38,-1195.68 179.9,-1195.68"/>
<polygon fill="darkred" stroke="darkred" points="118.25,-1192.18 108.25,-1195.68 118.25,-1199.18 118.25,-1192.18"/>
<text text-anchor="middle" x="169.4" y="-1199.48" font-family="Times,serif" font-size="14.00">No</text>
</g>
<!-- DoesJobExist2 -->
<g id="node13" class="node">
<title>DoesJobExist2</title>
<polygon fill="none" stroke="black" points="245,-690.68 183,-660.68 245,-630.68 307,-660.68 245,-690.68"/>
<text text-anchor="middle" x="245" y="-664.48" font-family="Times,serif" font-size="14.00">Does job</text>
<text text-anchor="middle" x="245" y="-649.48" font-family="Times,serif" font-size="14.00">exist?</text>
</g>
<!-- 404&#45;&gt;DoesJobExist2 -->
<g id="edge13" class="edge">
<title>404&#45;&gt;DoesJobExist2:w</title>
<path fill="none" stroke="darkred" d="M52.82,-950.76C51.03,-873.69 57.38,-660.68 182,-660.68"/>
<polygon fill="darkred" stroke="darkred" points="49.33,-951.22 53.12,-961.11 56.32,-951.01 49.33,-951.22"/>
<text text-anchor="middle" x="171.5" y="-664.48" font-family="Times,serif" font-size="14.00">No</text>
</g>
<!-- 200 -->
<g id="node3" class="node">
<title>200</title>
<ellipse fill="none" stroke="darkgreen" cx="259" cy="-21.21" rx="54" ry="21.43"/>
<text text-anchor="middle" x="259" y="-25.01" font-family="Times,serif" font-size="14.00">200</text>
<text text-anchor="middle" x="259" y="-10.01" font-family="Times,serif" font-size="14.00">Job details</text>
</g>
<!-- DB -->
<g id="node4" class="node">
<title>DB</title>
<path fill="none" stroke="purple" d="M487,-675.4C487,-677.21 462.8,-678.68 433,-678.68 403.2,-678.68 379,-677.21 379,-675.4 379,-675.4 379,-645.95 379,-645.95 379,-644.14 403.2,-642.68 433,-642.68 462.8,-642.68 487,-644.14 487,-645.95 487,-645.95 487,-675.4 487,-675.4"/>
<path fill="none" stroke="purple" d="M487,-675.4C487,-673.6 462.8,-672.13 433,-672.13 403.2,-672.13 379,-673.6 379,-675.4"/>
<text text-anchor="middle" x="433" y="-656.98" font-family="Times,serif" font-size="14.00">MBlast DB</text>
</g>
<!-- FS -->
<g id="node5" class="node">
<title>FS</title>
<path fill="none" stroke="purple" d="M483,-475.03C483,-477.11 458.8,-478.8 429,-478.8 399.2,-478.8 375,-477.11 375,-475.03 375,-475.03 375,-441.07 375,-441.07 375,-438.99 399.2,-437.3 429,-437.3 458.8,-437.3 483,-438.99 483,-441.07 483,-441.07 483,-475.03 483,-475.03"/>
<path fill="none" stroke="purple" d="M483,-475.03C483,-472.95 458.8,-471.26 429,-471.26 399.2,-471.26 375,-472.95 375,-475.03"/>
<text text-anchor="middle" x="429" y="-461.85" font-family="Times,serif" font-size="14.00">MBlast</text>
<text text-anchor="middle" x="429" y="-446.85" font-family="Times,serif" font-size="14.00">workspaces</text>
</g>
<!-- DB&#45;&gt;FS -->
<!-- Queue -->
<g id="node6" class="node">
<title>Queue</title>
<polygon fill="none" stroke="purple" points="478,-257.43 370,-257.43 370,-253.43 366,-253.43 366,-249.43 370,-249.43 370,-229.43 366,-229.43 366,-225.43 370,-225.43 370,-221.43 478,-221.43 478,-257.43"/>
<polyline fill="none" stroke="purple" points="370,-253.43 374,-253.43 374,-249.43 370,-249.43 "/>
<polyline fill="none" stroke="purple" points="370,-229.43 374,-229.43 374,-225.43 370,-225.43 "/>
<text text-anchor="middle" x="424" y="-235.73" font-family="Times,serif" font-size="14.00">Job queue</text>
</g>
<!-- FS&#45;&gt;Queue -->
<!-- Queue&#45;&gt;200 -->
<!-- Start -->
<g id="node7" class="node">
<title>Start</title>
<ellipse fill="none" stroke="darkgreen" cx="251" cy="-1316.68" rx="72.71" ry="18"/>
<text text-anchor="middle" x="251" y="-1312.98" font-family="Times,serif" font-size="14.00">GET /jobs/{job&#45;id}</text>
</g>
<!-- Start&#45;&gt;IsUserTokenProvided -->
<g id="edge1" class="edge">
<title>Start&#45;&gt;IsUserTokenProvided</title>
<path fill="none" stroke="darkblue" d="M251,-1298.63C251,-1286.06 251,-1268.21 251,-1250.95"/>
<polygon fill="darkblue" stroke="darkblue" points="254.5,-1250.91 251,-1240.91 247.5,-1250.91 254.5,-1250.91"/>
</g>
<!-- ValidateJobID -->
<g id="node9" class="node">
<title>ValidateJobID</title>
<polygon fill="none" stroke="black" points="197,-1056.18 197,-1092.18 305,-1092.18 305,-1056.18 197,-1056.18"/>
<text text-anchor="middle" x="202" y="-1070.48" font-family="Times,serif" font-size="14.00"> </text>
<polyline fill="none" stroke="black" points="207,-1056.18 207,-1092.18 "/>
<text text-anchor="middle" x="250.5" y="-1077.98" font-family="Times,serif" font-size="14.00">Job ID hash</text>
<text text-anchor="middle" x="250.5" y="-1062.98" font-family="Times,serif" font-size="14.00">validation</text>
<polyline fill="none" stroke="black" points="294,-1056.18 294,-1092.18 "/>
<text text-anchor="middle" x="299.5" y="-1070.48" font-family="Times,serif" font-size="14.00"> </text>
</g>
<!-- IsUserTokenProvided&#45;&gt;ValidateJobID -->
<g id="edge2" class="edge">
<title>IsUserTokenProvided&#45;&gt;ValidateJobID</title>
<path fill="none" stroke="darkgreen" d="M251,-1150.52C251,-1134.41 251,-1116.68 251,-1102.47"/>
<polygon fill="darkgreen" stroke="darkgreen" points="254.5,-1102.37 251,-1092.37 247.5,-1102.37 254.5,-1102.37"/>
<text text-anchor="middle" x="238.5" y="-1139.32" font-family="Times,serif" font-size="14.00">Yes</text>
</g>
<!-- ValidateJobID&#45;&gt;404 -->
<g id="edge5" class="edge">
<title>ValidateJobID&#45;&gt;404</title>
<path fill="none" stroke="darkred" d="M214.87,-1056.12C180.3,-1039.8 128.33,-1015.26 92.87,-998.53"/>
<polygon fill="darkred" stroke="darkred" points="94.33,-995.34 83.79,-994.24 91.34,-1001.67 94.33,-995.34"/>
<text text-anchor="middle" x="190.37" y="-1044.92" font-family="Times,serif" font-size="14.00">Invalid</text>
<text text-anchor="middle" x="190.37" y="-1029.92" font-family="Times,serif" font-size="14.00">hash</text>
</g>
<!-- LookupUserJob -->
<g id="node10" class="node">
<title>LookupUserJob</title>
<polygon fill="none" stroke="black" points="197,-961.18 197,-997.18 305,-997.18 305,-961.18 197,-961.18"/>
<text text-anchor="middle" x="206" y="-975.48" font-family="Times,serif" font-size="14.00"> </text>
<polyline fill="none" stroke="black" points="215,-961.18 215,-997.18 "/>
<text text-anchor="middle" x="250.5" y="-982.98" font-family="Times,serif" font-size="14.00">Lookup</text>
<text text-anchor="middle" x="250.5" y="-967.98" font-family="Times,serif" font-size="14.00">user job</text>
<polyline fill="none" stroke="black" points="286,-961.18 286,-997.18 "/>
<text text-anchor="middle" x="295.5" y="-975.48" font-family="Times,serif" font-size="14.00"> </text>
</g>
<!-- ValidateJobID&#45;&gt;LookupUserJob -->
<g id="edge4" class="edge">
<title>ValidateJobID&#45;&gt;LookupUserJob</title>
<path fill="none" stroke="darkblue" d="M251,-1056.12C251,-1042.57 251,-1023.36 251,-1007.65"/>
<polygon fill="darkblue" stroke="darkblue" points="254.5,-1007.44 251,-997.44 247.5,-1007.44 254.5,-1007.44"/>
</g>
<!-- LookupUserJob&#45;&gt;DB -->
<g id="edge7" class="edge">
<title>LookupUserJob&#45;&gt;DB</title>
<path fill="none" stroke="#333333" stroke-dasharray="1,5" d="M293.7,-955.76C314.79,-942.77 339.06,-924.64 355,-902.68 407.58,-830.25 425.85,-720.68 431.14,-678.79"/>
<polygon fill="#333333" stroke="#333333" points="291.7,-952.88 284.9,-961.01 295.28,-958.9 291.7,-952.88"/>
</g>
<!-- DoesJobExist1 -->
<g id="node12" class="node">
<title>DoesJobExist1</title>
<polygon fill="none" stroke="black" points="247,-902.68 175,-872.68 247,-842.68 319,-872.68 247,-902.68"/>
<text text-anchor="middle" x="247" y="-876.48" font-family="Times,serif" font-size="14.00">Does user</text>
<text text-anchor="middle" x="247" y="-861.48" font-family="Times,serif" font-size="14.00">job exist?</text>
</g>
<!-- LookupUserJob&#45;&gt;DoesJobExist1 -->
<g id="edge6" class="edge">
<title>LookupUserJob&#45;&gt;DoesJobExist1</title>
<path fill="none" stroke="darkblue" d="M250.34,-960.92C249.84,-947.77 249.12,-929.14 248.48,-912.47"/>
<polygon fill="darkblue" stroke="darkblue" points="251.98,-912.27 248.1,-902.41 244.98,-912.54 251.98,-912.27"/>
</g>
<!-- LookupJob -->
<g id="node11" class="node">
<title>LookupJob</title>
<polygon fill="none" stroke="black" points="301,-784.68 193,-784.68 193,-748.68 301,-748.68 301,-784.68"/>
<text text-anchor="middle" x="247" y="-762.98" font-family="Times,serif" font-size="14.00">Lookup job</text>
</g>
<!-- LookupJob&#45;&gt;DB -->
<g id="edge11" class="edge">
<title>LookupJob&#45;&gt;DB</title>
<path fill="none" stroke="#333333" stroke-dasharray="1,5" d="M286.63,-743.52C321.29,-724.14 370.92,-696.39 402.55,-678.7"/>
<polygon fill="#333333" stroke="#333333" points="284.73,-740.57 277.71,-748.5 288.15,-746.68 284.73,-740.57"/>
</g>
<!-- LookupJob&#45;&gt;DoesJobExist2 -->
<g id="edge10" class="edge">
<title>LookupJob&#45;&gt;DoesJobExist2</title>
<path fill="none" stroke="darkblue" d="M246.67,-748.5C246.42,-735.63 246.07,-717.49 245.76,-701.11"/>
<polygon fill="darkblue" stroke="darkblue" points="249.25,-700.61 245.56,-690.68 242.25,-700.75 249.25,-700.61"/>
</g>
<!-- DoesJobExist1&#45;&gt;LookupJob -->
<g id="edge9" class="edge">
<title>DoesJobExist1&#45;&gt;LookupJob</title>
<path fill="none" stroke="darkred" d="M247,-842.43C247,-827.59 247,-809.67 247,-795.09"/>
<polygon fill="darkred" stroke="darkred" points="250.5,-794.71 247,-784.71 243.5,-794.71 250.5,-794.71"/>
<text text-anchor="middle" x="236.5" y="-831.23" font-family="Times,serif" font-size="14.00">No</text>
</g>
<!-- RefreshJobStatus -->
<g id="node14" class="node">
<title>RefreshJobStatus</title>
<polygon fill="none" stroke="black" points="203,-342.93 203,-378.93 311,-378.93 311,-342.93 203,-342.93"/>
<text text-anchor="middle" x="210" y="-357.23" font-family="Times,serif" font-size="14.00"> </text>
<polyline fill="none" stroke="black" points="217,-342.93 217,-378.93 "/>
<text text-anchor="middle" x="257" y="-364.73" font-family="Times,serif" font-size="14.00">Refresh</text>
<text text-anchor="middle" x="257" y="-349.73" font-family="Times,serif" font-size="14.00">job status</text>
<polyline fill="none" stroke="black" points="297,-342.93 297,-378.93 "/>
<text text-anchor="middle" x="304" y="-357.23" font-family="Times,serif" font-size="14.00"> </text>
</g>
<!-- DoesJobExist1&#45;&gt;RefreshJobStatus -->
<g id="edge8" class="edge">
<title>DoesJobExist1&#45;&gt;RefreshJobStatus</title>
<path fill="none" stroke="darkgreen" d="M218.04,-854.65C168.79,-823.25 74,-751.19 74,-661.68 74,-661.68 74,-661.68 74,-553.68 74,-473.85 158.02,-414.17 212.2,-383.98"/>
<polygon fill="darkgreen" stroke="darkgreen" points="214.17,-386.89 221.28,-379.04 210.82,-380.74 214.17,-386.89"/>
<text text-anchor="middle" x="205.54" y="-843.45" font-family="Times,serif" font-size="14.00">Yes</text>
</g>
<!-- LinkUserToJob -->
<g id="node15" class="node">
<title>LinkUserToJob</title>
<polygon fill="none" stroke="black" points="303,-572.68 195,-572.68 195,-536.68 303,-536.68 303,-572.68"/>
<text text-anchor="middle" x="249" y="-558.48" font-family="Times,serif" font-size="14.00">Link user</text>
<text text-anchor="middle" x="249" y="-543.48" font-family="Times,serif" font-size="14.00">to job</text>
</g>
<!-- DoesJobExist2&#45;&gt;LinkUserToJob -->
<g id="edge12" class="edge">
<title>DoesJobExist2&#45;&gt;LinkUserToJob</title>
<path fill="none" stroke="darkgreen" d="M246.1,-630.98C246.68,-615.98 247.38,-597.73 247.95,-582.94"/>
<polygon fill="darkgreen" stroke="darkgreen" points="251.45,-583.02 248.34,-572.89 244.46,-582.75 251.45,-583.02"/>
<text text-anchor="middle" x="233.6" y="-619.78" font-family="Times,serif" font-size="14.00">Yes</text>
</g>
<!-- RefreshJobStatus&#45;&gt;FS -->
<g id="edge19" class="edge">
<title>RefreshJobStatus&#45;&gt;FS</title>
<path fill="none" stroke="#333333" stroke-dasharray="1,5" d="M296.98,-384.04C326.27,-400.24 365.67,-422.02 393.78,-437.57"/>
<polygon fill="#333333" stroke="#333333" points="298.29,-380.77 287.85,-378.99 294.91,-386.89 298.29,-380.77"/>
</g>
<!-- RefreshJobStatus&#45;&gt;Queue -->
<g id="edge18" class="edge">
<title>RefreshJobStatus&#45;&gt;Queue</title>
<path fill="none" stroke="#333333" stroke-dasharray="1,5" d="M280.93,-342.8C310.07,-321.95 359.41,-286.64 391.85,-263.43"/>
<polygon fill="#333333" stroke="#333333" points="394.02,-266.18 400.12,-257.52 389.95,-260.49 394.02,-266.18"/>
</g>
<!-- IsJobStillCached -->
<g id="node17" class="node">
<title>IsJobStillCached</title>
<polygon fill="none" stroke="black" points="90,-284.43 28,-239.43 90,-194.43 152,-239.43 90,-284.43"/>
<text text-anchor="middle" x="90" y="-250.73" font-family="Times,serif" font-size="14.00">Is job</text>
<text text-anchor="middle" x="90" y="-235.73" font-family="Times,serif" font-size="14.00">status</text>
<text text-anchor="middle" x="90" y="-220.73" font-family="Times,serif" font-size="14.00">expired?</text>
</g>
<!-- RefreshJobStatus&#45;&gt;IsJobStillCached -->
<g id="edge17" class="edge">
<title>RefreshJobStatus&#45;&gt;IsJobStillCached</title>
<path fill="none" stroke="darkblue" d="M233.07,-342.8C205.92,-323.37 161.22,-291.39 129.01,-268.34"/>
<polygon fill="darkblue" stroke="darkblue" points="130.86,-265.36 120.69,-262.39 126.79,-271.05 130.86,-265.36"/>
</g>
<!-- UpdateLastUsed -->
<g id="node18" class="node">
<title>UpdateLastUsed</title>
<polygon fill="none" stroke="black" points="313,-136.43 205,-136.43 205,-100.43 313,-100.43 313,-136.43"/>
<text text-anchor="middle" x="259" y="-122.23" font-family="Times,serif" font-size="14.00">Update</text>
<text text-anchor="middle" x="259" y="-107.23" font-family="Times,serif" font-size="14.00">last used</text>
</g>
<!-- RefreshJobStatus&#45;&gt;UpdateLastUsed -->
<!-- LinkUserToJob&#45;&gt;DB -->
<g id="edge15" class="edge">
<title>LinkUserToJob&#45;&gt;DB</title>
<path fill="none" stroke="#333333" stroke-dasharray="1,5" d="M279.12,-572.7C310.41,-590.39 359.51,-618.14 393.8,-637.52"/>
<polygon fill="#333333" stroke="#333333" points="392.19,-640.63 402.62,-642.5 395.63,-634.54 392.19,-640.63"/>
</g>
<!-- LinkUserToSubJobs -->
<g id="node16" class="node">
<title>LinkUserToSubJobs</title>
<polygon fill="none" stroke="black" points="195,-440.05 195,-476.05 303,-476.05 303,-440.05 195,-440.05"/>
<text text-anchor="middle" x="200.5" y="-454.35" font-family="Times,serif" font-size="14.00"> </text>
<polyline fill="none" stroke="black" points="206,-440.05 206,-476.05 "/>
<text text-anchor="middle" x="248.5" y="-461.85" font-family="Times,serif" font-size="14.00">Link user</text>
<text text-anchor="middle" x="248.5" y="-446.85" font-family="Times,serif" font-size="14.00">to sub jobs</text>
<polyline fill="none" stroke="black" points="291,-440.05 291,-476.05 "/>
<text text-anchor="middle" x="297" y="-454.35" font-family="Times,serif" font-size="14.00"> </text>
</g>
<!-- LinkUserToJob&#45;&gt;LinkUserToSubJobs -->
<g id="edge14" class="edge">
<title>LinkUserToJob&#45;&gt;LinkUserToSubJobs</title>
<path fill="none" stroke="darkblue" d="M249,-536.32C249,-522.45 249,-502.74 249,-486.7"/>
<polygon fill="darkblue" stroke="darkblue" points="252.5,-486.3 249,-476.3 245.5,-486.3 252.5,-486.3"/>
</g>
<!-- LinkUserToSubJobs&#45;&gt;RefreshJobStatus -->
<g id="edge16" class="edge">
<title>LinkUserToSubJobs&#45;&gt;RefreshJobStatus</title>
<path fill="none" stroke="darkblue" d="M250.43,-440.04C251.62,-425.93 253.33,-405.59 254.71,-389.2"/>
<polygon fill="darkblue" stroke="darkblue" points="258.2,-389.36 255.56,-379.11 251.23,-388.78 258.2,-389.36"/>
</g>
<!-- IsJobStillCached&#45;&gt;200 -->
<g id="edge21" class="edge">
<title>IsJobStillCached:s&#45;&gt;200</title>
<path fill="none" stroke="darkgreen" d="M90,-194.43C90,-122.65 165.7,-69.81 215.77,-42.71"/>
<polygon fill="darkgreen" stroke="darkgreen" points="217.59,-45.71 224.8,-37.95 214.32,-39.52 217.59,-45.71"/>
<text text-anchor="middle" x="77.5" y="-183.23" font-family="Times,serif" font-size="14.00">Yes</text>
</g>
<!-- IsJobStillCached&#45;&gt;UpdateLastUsed -->
<g id="edge20" class="edge">
<title>IsJobStillCached:e&#45;&gt;UpdateLastUsed</title>
<path fill="none" stroke="darkred" d="M153,-239.43C165.49,-239.43 212.71,-180.25 239.72,-145.01"/>
<polygon fill="darkred" stroke="darkred" points="242.84,-146.69 246.12,-136.62 237.27,-142.45 242.84,-146.69"/>
<text text-anchor="middle" x="163.5" y="-243.23" font-family="Times,serif" font-size="14.00">No</text>
</g>
<!-- UpdateLastUsed&#45;&gt;200 -->
<g id="edge22" class="edge">
<title>UpdateLastUsed&#45;&gt;200</title>
<path fill="none" stroke="darkblue" d="M259,-100.4C259,-87.28 259,-68.78 259,-53.06"/>
<polygon fill="darkblue" stroke="darkblue" points="262.5,-52.73 259,-42.73 255.5,-52.73 262.5,-52.73"/>
</g>
</g>
</svg>
