<?xml version="1.0" encoding="UTF-8" standalone="no"?>
<!DOCTYPE svg PUBLIC "-//W3C//DTD SVG 1.1//EN"
 "http://www.w3.org/Graphics/SVG/1.1/DTD/svg11.dtd">
<!-- Generated by graphviz version 2.43.0 (0)
 -->
<!-- Title: %3 Pages: 1 -->
<svg width="545pt" height="742pt"
 viewBox="0.00 0.00 545.00 742.00" xmlns="http://www.w3.org/2000/svg" xmlns:xlink="http://www.w3.org/1999/xlink">
<g id="graph0" class="graph" transform="scale(1 1) rotate(0) translate(4 738)">
<title>%3</title>
<polygon fill="white" stroke="transparent" points="-4,4 -4,-738 541,-738 541,4 -4,4"/>
<!-- Start -->
<g id="node1" class="node">
<title>Start</title>
<ellipse fill="none" stroke="black" cx="79" cy="-716" rx="47" ry="18"/>
<text text-anchor="middle" x="79" y="-712.3" font-family="Times,serif" font-size="14.00">Start</text>
</g>
<!-- LookupUserJob -->
<g id="node5" class="node">
<title>LookupUserJob</title>
<polygon fill="none" stroke="black" points="32,-589.5 32,-625.5 126,-625.5 126,-589.5 32,-589.5"/>
<text text-anchor="middle" x="38" y="-603.8" font-family="Times,serif" font-size="14.00"> </text>
<polyline fill="none" stroke="black" points="44,-589.5 44,-625.5 "/>
<text text-anchor="middle" x="78.5" y="-611.3" font-family="Times,serif" font-size="14.00">Lookup</text>
<text text-anchor="middle" x="78.5" y="-596.3" font-family="Times,serif" font-size="14.00">User Job</text>
<polyline fill="none" stroke="black" points="113,-589.5 113,-625.5 "/>
<text text-anchor="middle" x="119.5" y="-603.8" font-family="Times,serif" font-size="14.00"> </text>
</g>
<!-- Start&#45;&gt;LookupUserJob -->
<g id="edge1" class="edge">
<title>Start&#45;&gt;LookupUserJob</title>
<path fill="none" stroke="darkblue" d="M79,-697.89C79,-681.12 79,-655.3 79,-635.71"/>
<polygon fill="darkblue" stroke="darkblue" points="82.5,-635.57 79,-625.57 75.5,-635.57 82.5,-635.57"/>
</g>
<!-- End -->
<g id="node2" class="node">
<title>End</title>
<ellipse fill="none" stroke="black" cx="490" cy="-18" rx="47" ry="18"/>
<text text-anchor="middle" x="490" y="-14.3" font-family="Times,serif" font-size="14.00">End</text>
</g>
<!-- Error -->
<g id="node3" class="node">
<title>Error</title>
<ellipse fill="none" stroke="red" cx="442" cy="-235" rx="47" ry="18"/>
<text text-anchor="middle" x="442" y="-231.3" font-family="Times,serif" font-size="14.00">Not Found</text>
</g>
<!-- DB -->
<g id="node4" class="node">
<title>DB</title>
<path fill="none" stroke="purple" d="M94,-141.23C94,-143.03 72.93,-144.5 47,-144.5 21.07,-144.5 0,-143.03 0,-141.23 0,-141.23 0,-111.77 0,-111.77 0,-109.97 21.07,-108.5 47,-108.5 72.93,-108.5 94,-109.97 94,-111.77 94,-111.77 94,-141.23 94,-141.23"/>
<path fill="none" stroke="purple" d="M94,-141.23C94,-139.42 72.93,-137.95 47,-137.95 21.07,-137.95 0,-139.42 0,-141.23"/>
<text text-anchor="middle" x="47" y="-122.8" font-family="Times,serif" font-size="14.00">MBlast DB</text>
</g>
<!-- LookupUserJob&#45;&gt;DB -->
<g id="edge3" class="edge">
<title>LookupUserJob&#45;&gt;DB</title>
<path fill="none" stroke="#333333" stroke-dasharray="1,5" d="M68.09,-579.85C51.91,-538.81 22.13,-457.32 10,-385 0.29,-327.11 6.89,-311.69 6,-253 5.76,-237 2.59,-232.63 6,-217 11.83,-190.28 26.39,-162 36.49,-144.55"/>
<polygon fill="#333333" stroke="#333333" points="64.94,-581.39 71.9,-589.38 71.44,-578.79 64.94,-581.39"/>
</g>
<!-- UserJobWasFound -->
<g id="node6" class="node">
<title>UserJobWasFound</title>
<polygon fill="none" stroke="black" points="433,-517 352,-487 433,-457 514,-487 433,-517"/>
<text text-anchor="middle" x="433" y="-490.8" font-family="Times,serif" font-size="14.00">User job</text>
<text text-anchor="middle" x="433" y="-475.8" font-family="Times,serif" font-size="14.00">was found?</text>
</g>
<!-- LookupUserJob&#45;&gt;UserJobWasFound -->
<g id="edge2" class="edge">
<title>LookupUserJob&#45;&gt;UserJobWasFound</title>
<path fill="none" stroke="darkblue" d="M126.01,-590.76C192.51,-568.5 313.59,-527.97 382.13,-505.03"/>
<polygon fill="darkblue" stroke="darkblue" points="383.48,-508.27 391.85,-501.77 381.26,-501.63 383.48,-508.27"/>
</g>
<!-- UserJobWasFound&#45;&gt;End -->
<g id="edge4" class="edge">
<title>UserJobWasFound&#45;&gt;End</title>
<path fill="none" stroke="darkgreen" d="M449.06,-462.9C462.23,-443.04 480.51,-413.21 492,-385 514.81,-329 517.61,-313.02 525,-253 534.27,-177.67 511.93,-89.19 498.78,-45.77"/>
<polygon fill="darkgreen" stroke="darkgreen" points="502.04,-44.5 495.73,-35.99 495.36,-46.58 502.04,-44.5"/>
<text text-anchor="middle" x="436.56" y="-451.7" font-family="Times,serif" font-size="14.00">Yes</text>
</g>
<!-- UserJobWasFound&#45;&gt;Error -->
<!-- LookupJob -->
<g id="node7" class="node">
<title>LookupJob</title>
<polygon fill="none" stroke="black" points="246,-505 152,-505 152,-469 246,-469 246,-505"/>
<text text-anchor="middle" x="199" y="-483.3" font-family="Times,serif" font-size="14.00">Lookup Job</text>
</g>
<!-- LookupJob&#45;&gt;DB -->
<g id="edge6" class="edge">
<title>LookupJob&#45;&gt;DB</title>
<path fill="none" stroke="#333333" stroke-dasharray="1,5" d="M142.29,-464.67C107.99,-448.48 67.12,-422.52 47,-385 3.8,-304.43 29.62,-188.27 41.76,-144.79"/>
<polygon fill="#333333" stroke="#333333" points="141.22,-468.03 151.77,-468.99 144.11,-461.66 141.22,-468.03"/>
</g>
<!-- LookupJob&#45;&gt;UserJobWasFound -->
<g id="edge5" class="edge">
<title>LookupJob&#45;&gt;UserJobWasFound</title>
<path fill="none" stroke="darkred" d="M256.41,-487C288.26,-487 320.1,-487 351.95,-487"/>
<polygon fill="darkred" stroke="darkred" points="256.07,-483.5 246.07,-487 256.07,-490.5 256.07,-483.5"/>
<text text-anchor="middle" x="341.45" y="-490.8" font-family="Times,serif" font-size="14.00">No</text>
</g>
<!-- JobWasFound -->
<g id="node8" class="node">
<title>JobWasFound</title>
<polygon fill="none" stroke="black" points="304,-385 249,-355 304,-325 359,-355 304,-385"/>
<text text-anchor="middle" x="304" y="-358.8" font-family="Times,serif" font-size="14.00">Job was</text>
<text text-anchor="middle" x="304" y="-343.8" font-family="Times,serif" font-size="14.00">found?</text>
</g>
<!-- LookupJob&#45;&gt;JobWasFound -->
<g id="edge7" class="edge">
<title>LookupJob&#45;&gt;JobWasFound</title>
<path fill="none" stroke="darkblue" d="M212.94,-468.74C230.36,-447.17 260.39,-409.99 281.18,-384.25"/>
<polygon fill="darkblue" stroke="darkblue" points="284.02,-386.31 287.58,-376.33 278.57,-381.91 284.02,-386.31"/>
</g>
<!-- LinkUserToJob -->
<g id="node10" class="node">
<title>LinkUserToJob</title>
<polygon fill="none" stroke="black" points="177,-373 83,-373 83,-337 177,-337 177,-373"/>
<text text-anchor="middle" x="130" y="-358.8" font-family="Times,serif" font-size="14.00">Link user</text>
<text text-anchor="middle" x="130" y="-343.8" font-family="Times,serif" font-size="14.00">to job</text>
</g>
<!-- LookupJob&#45;&gt;LinkUserToJob -->
<!-- JobWasFound&#45;&gt;Error -->
<g id="edge9" class="edge">
<title>JobWasFound&#45;&gt;Error</title>
<path fill="none" stroke="darkred" d="M324.96,-336.08C349.29,-315.28 389.43,-280.95 415.79,-258.41"/>
<polygon fill="darkred" stroke="darkred" points="418.17,-260.98 423.5,-251.82 413.63,-255.66 418.17,-260.98"/>
<text text-anchor="middle" x="344.46" y="-324.88" font-family="Times,serif" font-size="14.00"> &#160;&#160;&#160;No</text>
</g>
<!-- LookupSubJobs -->
<g id="node9" class="node">
<title>LookupSubJobs</title>
<polygon fill="none" stroke="black" points="323,-253 229,-253 229,-217 323,-217 323,-253"/>
<text text-anchor="middle" x="276" y="-238.8" font-family="Times,serif" font-size="14.00">Lookup</text>
<text text-anchor="middle" x="276" y="-223.8" font-family="Times,serif" font-size="14.00">sub jobs</text>
</g>
<!-- JobWasFound&#45;&gt;LookupSubJobs -->
<!-- LookupSubJobs&#45;&gt;DB -->
<g id="edge12" class="edge">
<title>LookupSubJobs&#45;&gt;DB</title>
<path fill="none" stroke="#333333" stroke-dasharray="1,5" d="M229.97,-212.59C186.36,-192.31 121.83,-162.3 82.2,-143.87"/>
<polygon fill="#333333" stroke="#333333" points="228.66,-215.85 239.21,-216.89 231.62,-209.5 228.66,-215.85"/>
</g>
<!-- SubJobLinking -->
<g id="node11" class="node">
<title>SubJobLinking</title>
<polygon fill="none" stroke="black" points="320,-108.5 320,-144.5 414,-144.5 414,-108.5 320,-108.5"/>
<text text-anchor="middle" x="327" y="-122.8" font-family="Times,serif" font-size="14.00"> </text>
<polyline fill="none" stroke="black" points="334,-108.5 334,-144.5 "/>
<text text-anchor="middle" x="366.5" y="-130.3" font-family="Times,serif" font-size="14.00">Sub&#45;Job</text>
<text text-anchor="middle" x="366.5" y="-115.3" font-family="Times,serif" font-size="14.00">Linking</text>
<polyline fill="none" stroke="black" points="399,-108.5 399,-144.5 "/>
<text text-anchor="middle" x="406.5" y="-122.8" font-family="Times,serif" font-size="14.00"> </text>
</g>
<!-- LookupSubJobs&#45;&gt;SubJobLinking -->
<g id="edge13" class="edge">
<title>LookupSubJobs&#45;&gt;SubJobLinking</title>
<path fill="none" stroke="darkblue" d="M290.62,-216.89C305.55,-199.42 328.86,-172.13 345.81,-152.3"/>
<polygon fill="darkblue" stroke="darkblue" points="348.58,-154.44 352.42,-144.57 343.26,-149.9 348.58,-154.44"/>
</g>
<!-- LinkUserToJob&#45;&gt;Error -->
<!-- LinkUserToJob&#45;&gt;DB -->
<g id="edge10" class="edge">
<title>LinkUserToJob&#45;&gt;DB</title>
<path fill="none" stroke="#333333" stroke-dasharray="1,5" d="M123.76,-336.98C109.43,-297.87 74.07,-201.37 56.8,-154.25"/>
<polygon fill="#333333" stroke="#333333" points="60.04,-152.91 53.31,-144.72 53.47,-155.32 60.04,-152.91"/>
</g>
<!-- LinkUserToJob&#45;&gt;JobWasFound -->
<g id="edge8" class="edge">
<title>LinkUserToJob&#45;&gt;JobWasFound</title>
<path fill="none" stroke="darkgreen" d="M187.27,-355C207.69,-355 228.12,-355 248.54,-355"/>
<polygon fill="darkgreen" stroke="darkgreen" points="187.24,-351.5 177.24,-355 187.24,-358.5 187.24,-351.5"/>
<text text-anchor="middle" x="236.04" y="-358.8" font-family="Times,serif" font-size="14.00">Yes</text>
</g>
<!-- LinkUserToJob&#45;&gt;LookupSubJobs -->
<g id="edge11" class="edge">
<title>LinkUserToJob&#45;&gt;LookupSubJobs</title>
<path fill="none" stroke="darkblue" d="M151.23,-336.84C176.42,-316.48 218.57,-282.42 246.82,-259.59"/>
<polygon fill="darkblue" stroke="darkblue" points="249.17,-262.19 254.74,-253.18 244.77,-256.74 249.17,-262.19"/>
</g>
<!-- SubJobLinking&#45;&gt;End -->
<g id="edge14" class="edge">
<title>SubJobLinking&#45;&gt;End</title>
<path fill="none" stroke="darkblue" d="M386.76,-108.39C407.78,-90.19 441.11,-61.33 464.19,-41.35"/>
<polygon fill="darkblue" stroke="darkblue" points="466.62,-43.87 471.89,-34.68 462.04,-38.58 466.62,-43.87"/>
</g>
</g>
</svg>
