<?xml version="1.0" encoding="UTF-8" standalone="no"?>
<!DOCTYPE svg PUBLIC "-//W3C//DTD SVG 1.1//EN"
 "http://www.w3.org/Graphics/SVG/1.1/DTD/svg11.dtd">
<!-- Generated by graphviz version 2.43.0 (0)
 -->
<!-- Title: %3 Pages: 1 -->
<svg width="528pt" height="742pt"
 viewBox="0.00 0.00 528.00 742.00" xmlns="http://www.w3.org/2000/svg" xmlns:xlink="http://www.w3.org/1999/xlink">
<g id="graph0" class="graph" transform="scale(1 1) rotate(0) translate(4 738)">
<title>%3</title>
<polygon fill="white" stroke="transparent" points="-4,4 -4,-738 524,-738 524,4 -4,4"/>
<!-- Start -->
<g id="node1" class="node">
<title>Start</title>
<ellipse fill="none" stroke="black" cx="199" cy="-716" rx="47" ry="18"/>
<text text-anchor="middle" x="199" y="-712.3" font-family="Times,serif" font-size="14.00">Start</text>
</g>
<!-- LookupUserJob -->
<g id="node5" class="node">
<title>LookupUserJob</title>
<polygon fill="none" stroke="black" points="152,-589.5 152,-625.5 246,-625.5 246,-589.5 152,-589.5"/>
<text text-anchor="middle" x="158" y="-603.8" font-family="Times,serif" font-size="14.00"> </text>
<polyline fill="none" stroke="black" points="164,-589.5 164,-625.5 "/>
<text text-anchor="middle" x="198.5" y="-611.3" font-family="Times,serif" font-size="14.00">Lookup</text>
<text text-anchor="middle" x="198.5" y="-596.3" font-family="Times,serif" font-size="14.00">User Job</text>
<polyline fill="none" stroke="black" points="233,-589.5 233,-625.5 "/>
<text text-anchor="middle" x="239.5" y="-603.8" font-family="Times,serif" font-size="14.00"> </text>
</g>
<!-- Start&#45;&gt;LookupUserJob -->
<g id="edge1" class="edge">
<title>Start&#45;&gt;LookupUserJob</title>
<path fill="none" stroke="darkblue" d="M199,-697.89C199,-681.12 199,-655.3 199,-635.71"/>
<polygon fill="darkblue" stroke="darkblue" points="202.5,-635.57 199,-625.57 195.5,-635.57 202.5,-635.57"/>
</g>
<!-- End -->
<g id="node2" class="node">
<title>End</title>
<ellipse fill="none" stroke="black" cx="47" cy="-18" rx="47" ry="18"/>
<text text-anchor="middle" x="47" y="-14.3" font-family="Times,serif" font-size="14.00">End</text>
</g>
<!-- Error -->
<g id="node3" class="node">
<title>Error</title>
<ellipse fill="none" stroke="red" cx="473" cy="-355" rx="47" ry="18"/>
<text text-anchor="middle" x="473" y="-351.3" font-family="Times,serif" font-size="14.00">Not Found</text>
</g>
<!-- LinkUserToJob -->
<g id="node10" class="node">
<title>LinkUserToJob</title>
<polygon fill="none" stroke="black" points="346,-253 252,-253 252,-217 346,-217 346,-253"/>
<text text-anchor="middle" x="299" y="-238.8" font-family="Times,serif" font-size="14.00">Link user</text>
<text text-anchor="middle" x="299" y="-223.8" font-family="Times,serif" font-size="14.00">to job</text>
</g>
<!-- Error&#45;&gt;LinkUserToJob -->
<!-- DB -->
<g id="node4" class="node">
<title>DB</title>
<path fill="none" stroke="purple" d="M172,-369.73C172,-371.53 150.93,-373 125,-373 99.07,-373 78,-371.53 78,-369.73 78,-369.73 78,-340.27 78,-340.27 78,-338.47 99.07,-337 125,-337 150.93,-337 172,-338.47 172,-340.27 172,-340.27 172,-369.73 172,-369.73"/>
<path fill="none" stroke="purple" d="M172,-369.73C172,-367.92 150.93,-366.45 125,-366.45 99.07,-366.45 78,-367.92 78,-369.73"/>
<text text-anchor="middle" x="125" y="-351.3" font-family="Times,serif" font-size="14.00">MBlast DB</text>
</g>
<!-- UserJobWasFound -->
<g id="node6" class="node">
<title>UserJobWasFound</title>
<polygon fill="none" stroke="black" points="99,-517 18,-487 99,-457 180,-487 99,-517"/>
<text text-anchor="middle" x="99" y="-490.8" font-family="Times,serif" font-size="14.00">User job</text>
<text text-anchor="middle" x="99" y="-475.8" font-family="Times,serif" font-size="14.00">was found?</text>
</g>
<!-- LookupUserJob&#45;&gt;UserJobWasFound -->
<g id="edge2" class="edge">
<title>LookupUserJob&#45;&gt;UserJobWasFound</title>
<path fill="none" stroke="darkblue" d="M184.46,-589.27C168.73,-570.63 143.36,-540.57 124.34,-518.03"/>
<polygon fill="darkblue" stroke="darkblue" points="126.77,-515.48 117.65,-510.1 121.42,-520 126.77,-515.48"/>
</g>
<!-- LookupJob -->
<g id="node7" class="node">
<title>LookupJob</title>
<polygon fill="none" stroke="black" points="346,-505 252,-505 252,-469 346,-469 346,-505"/>
<text text-anchor="middle" x="299" y="-483.3" font-family="Times,serif" font-size="14.00">Lookup Job</text>
</g>
<!-- LookupUserJob&#45;&gt;LookupJob -->
<!-- UserJobWasFound&#45;&gt;End -->
<g id="edge3" class="edge">
<title>UserJobWasFound&#45;&gt;End</title>
<path fill="none" stroke="darkgreen" d="M81.45,-463.02C67.68,-443.47 49.62,-414.02 42,-385 9.71,-262.08 30.92,-107.84 41.75,-46.24"/>
<polygon fill="darkgreen" stroke="darkgreen" points="45.24,-46.64 43.57,-36.17 38.35,-45.39 45.24,-46.64"/>
<text text-anchor="middle" x="68.95" y="-451.82" font-family="Times,serif" font-size="14.00">Yes</text>
</g>
<!-- UserJobWasFound&#45;&gt;DB -->
<!-- UserJobWasFound&#45;&gt;LookupJob -->
<g id="edge4" class="edge">
<title>UserJobWasFound&#45;&gt;LookupJob</title>
<path fill="none" stroke="darkred" d="M180.25,-487C200.71,-487 221.18,-487 241.64,-487"/>
<polygon fill="darkred" stroke="darkred" points="241.69,-490.5 251.69,-487 241.69,-483.5 241.69,-490.5"/>
<text text-anchor="middle" x="190.75" y="-490.8" font-family="Times,serif" font-size="14.00">No</text>
</g>
<!-- LookupJob&#45;&gt;Error -->
<!-- LookupJob&#45;&gt;DB -->
<g id="edge5" class="edge">
<title>LookupJob&#45;&gt;DB</title>
<path fill="none" stroke="#333333" stroke-dasharray="1,5" d="M267.59,-462.53C233.11,-436.77 178.6,-396.04 147.92,-373.13"/>
<polygon fill="#333333" stroke="#333333" points="265.79,-465.56 275.89,-468.74 269.98,-459.95 265.79,-465.56"/>
</g>
<!-- JobWasFound -->
<g id="node8" class="node">
<title>JobWasFound</title>
<polygon fill="none" stroke="black" points="299,-385 244,-355 299,-325 354,-355 299,-385"/>
<text text-anchor="middle" x="299" y="-358.8" font-family="Times,serif" font-size="14.00">Job was</text>
<text text-anchor="middle" x="299" y="-343.8" font-family="Times,serif" font-size="14.00">found?</text>
</g>
<!-- LookupJob&#45;&gt;JobWasFound -->
<g id="edge6" class="edge">
<title>LookupJob&#45;&gt;JobWasFound</title>
<path fill="none" stroke="darkblue" d="M299,-468.74C299,-450.12 299,-419.87 299,-395.39"/>
<polygon fill="darkblue" stroke="darkblue" points="302.5,-395.3 299,-385.3 295.5,-395.3 302.5,-395.3"/>
</g>
<!-- JobWasFound&#45;&gt;Error -->
<g id="edge8" class="edge">
<title>JobWasFound&#45;&gt;Error</title>
<path fill="none" stroke="darkred" d="M354.05,-355C374.55,-355 395.05,-355 415.55,-355"/>
<polygon fill="darkred" stroke="darkred" points="415.61,-358.5 425.61,-355 415.61,-351.5 415.61,-358.5"/>
<text text-anchor="middle" x="373.55" y="-358.8" font-family="Times,serif" font-size="14.00"> &#160;&#160;&#160;No</text>
</g>
<!-- JobWasFound&#45;&gt;LinkUserToJob -->
<g id="edge7" class="edge">
<title>JobWasFound&#45;&gt;LinkUserToJob</title>
<path fill="none" stroke="darkgreen" d="M299,-324.83C299,-306 299,-281.68 299,-263.24"/>
<polygon fill="darkgreen" stroke="darkgreen" points="302.5,-263.16 299,-253.16 295.5,-263.16 302.5,-263.16"/>
<text text-anchor="middle" x="286.5" y="-313.63" font-family="Times,serif" font-size="14.00">Yes</text>
</g>
<!-- LookupSubJobs -->
<g id="node9" class="node">
<title>LookupSubJobs</title>
<polygon fill="none" stroke="black" points="172,-253 78,-253 78,-217 172,-217 172,-253"/>
<text text-anchor="middle" x="125" y="-238.8" font-family="Times,serif" font-size="14.00">Lookup</text>
<text text-anchor="middle" x="125" y="-223.8" font-family="Times,serif" font-size="14.00">sub jobs</text>
</g>
<!-- LookupSubJobs&#45;&gt;DB -->
<g id="edge11" class="edge">
<title>LookupSubJobs&#45;&gt;DB</title>
<path fill="none" stroke="#333333" stroke-dasharray="1,5" d="M125,-263.2C125,-285.89 125,-317.53 125,-336.84"/>
<polygon fill="#333333" stroke="#333333" points="128.5,-263.18 125,-253.18 121.5,-263.18 128.5,-263.18"/>
</g>
<!-- LookupSubJobs&#45;&gt;LinkUserToJob -->
<g id="edge10" class="edge">
<title>LookupSubJobs&#45;&gt;LinkUserToJob</title>
<path fill="none" stroke="darkblue" d="M172.24,-235C195.39,-235 218.53,-235 241.68,-235"/>
<polygon fill="darkblue" stroke="darkblue" points="241.96,-238.5 251.96,-235 241.96,-231.5 241.96,-238.5"/>
</g>
<!-- SubJobLinking -->
<g id="node11" class="node">
<title>SubJobLinking</title>
<polygon fill="none" stroke="black" points="78,-108.5 78,-144.5 172,-144.5 172,-108.5 78,-108.5"/>
<text text-anchor="middle" x="85" y="-122.8" font-family="Times,serif" font-size="14.00"> </text>
<polyline fill="none" stroke="black" points="92,-108.5 92,-144.5 "/>
<text text-anchor="middle" x="124.5" y="-130.3" font-family="Times,serif" font-size="14.00">Sub&#45;Job</text>
<text text-anchor="middle" x="124.5" y="-115.3" font-family="Times,serif" font-size="14.00">Linking</text>
<polyline fill="none" stroke="black" points="157,-108.5 157,-144.5 "/>
<text text-anchor="middle" x="164.5" y="-122.8" font-family="Times,serif" font-size="14.00"> </text>
</g>
<!-- LookupSubJobs&#45;&gt;SubJobLinking -->
<g id="edge12" class="edge">
<title>LookupSubJobs&#45;&gt;SubJobLinking</title>
<path fill="none" stroke="darkblue" d="M125,-216.89C125,-200.12 125,-174.3 125,-154.71"/>
<polygon fill="darkblue" stroke="darkblue" points="128.5,-154.57 125,-144.57 121.5,-154.57 128.5,-154.57"/>
</g>
<!-- LinkUserToJob&#45;&gt;DB -->
<g id="edge9" class="edge">
<title>LinkUserToJob&#45;&gt;DB</title>
<path fill="none" stroke="#333333" stroke-dasharray="1,5" d="M273.67,-253.18C243.37,-273.73 192.54,-308.2 158.88,-331.02"/>
<polygon fill="#333333" stroke="#333333" points="156.61,-328.33 150.3,-336.84 160.54,-334.13 156.61,-328.33"/>
</g>
<!-- SubJobLinking&#45;&gt;End -->
<g id="edge13" class="edge">
<title>SubJobLinking&#45;&gt;End</title>
<path fill="none" stroke="darkblue" d="M112.47,-108.39C99.71,-90.97 79.81,-63.8 65.29,-43.98"/>
<polygon fill="darkblue" stroke="darkblue" points="67.98,-41.72 59.24,-35.72 62.33,-45.85 67.98,-41.72"/>
</g>
</g>
</svg>
