<?xml version="1.0" encoding="UTF-8" standalone="no"?>
<!DOCTYPE svg PUBLIC "-//W3C//DTD SVG 1.1//EN"
 "http://www.w3.org/Graphics/SVG/1.1/DTD/svg11.dtd">
<!-- Generated by graphviz version 2.43.0 (0)
 -->
<!-- Title: %3 Pages: 1 -->
<svg width="656pt" height="742pt"
 viewBox="0.00 0.00 656.00 742.00" xmlns="http://www.w3.org/2000/svg" xmlns:xlink="http://www.w3.org/1999/xlink">
<g id="graph0" class="graph" transform="scale(1 1) rotate(0) translate(4 738)">
<title>%3</title>
<polygon fill="white" stroke="transparent" points="-4,4 -4,-738 652,-738 652,4 -4,4"/>
<!-- Start -->
<g id="node1" class="node">
<title>Start</title>
<ellipse fill="none" stroke="black" cx="271" cy="-716" rx="47" ry="18"/>
<text text-anchor="middle" x="271" y="-712.3" font-family="Times,serif" font-size="14.00">Start</text>
</g>
<!-- LookupUserJob -->
<g id="node5" class="node">
<title>LookupUserJob</title>
<polygon fill="none" stroke="black" points="224,-589.5 224,-625.5 318,-625.5 318,-589.5 224,-589.5"/>
<text text-anchor="middle" x="230" y="-603.8" font-family="Times,serif" font-size="14.00"> </text>
<polyline fill="none" stroke="black" points="236,-589.5 236,-625.5 "/>
<text text-anchor="middle" x="270.5" y="-611.3" font-family="Times,serif" font-size="14.00">Lookup</text>
<text text-anchor="middle" x="270.5" y="-596.3" font-family="Times,serif" font-size="14.00">User Job</text>
<polyline fill="none" stroke="black" points="305,-589.5 305,-625.5 "/>
<text text-anchor="middle" x="311.5" y="-603.8" font-family="Times,serif" font-size="14.00"> </text>
</g>
<!-- Start&#45;&gt;LookupUserJob -->
<g id="edge1" class="edge">
<title>Start&#45;&gt;LookupUserJob</title>
<path fill="none" stroke="darkblue" d="M271,-697.89C271,-681.12 271,-655.3 271,-635.71"/>
<polygon fill="darkblue" stroke="darkblue" points="274.5,-635.57 271,-625.57 267.5,-635.57 274.5,-635.57"/>
</g>
<!-- End -->
<g id="node2" class="node">
<title>End</title>
<ellipse fill="none" stroke="black" cx="163" cy="-18" rx="47" ry="18"/>
<text text-anchor="middle" x="163" y="-14.3" font-family="Times,serif" font-size="14.00">End</text>
</g>
<!-- Error -->
<g id="node3" class="node">
<title>Error</title>
<ellipse fill="none" stroke="red" cx="601" cy="-355" rx="47" ry="18"/>
<text text-anchor="middle" x="601" y="-351.3" font-family="Times,serif" font-size="14.00">Not Found</text>
</g>
<!-- LinkUserToJob -->
<g id="node10" class="node">
<title>LinkUserToJob</title>
<polygon fill="none" stroke="black" points="474,-253 380,-253 380,-217 474,-217 474,-253"/>
<text text-anchor="middle" x="427" y="-238.8" font-family="Times,serif" font-size="14.00">Link user</text>
<text text-anchor="middle" x="427" y="-223.8" font-family="Times,serif" font-size="14.00">to job</text>
</g>
<!-- Error&#45;&gt;LinkUserToJob -->
<!-- DB -->
<g id="node4" class="node">
<title>DB</title>
<path fill="none" stroke="purple" d="M300,-369.73C300,-371.53 278.93,-373 253,-373 227.07,-373 206,-371.53 206,-369.73 206,-369.73 206,-340.27 206,-340.27 206,-338.47 227.07,-337 253,-337 278.93,-337 300,-338.47 300,-340.27 300,-340.27 300,-369.73 300,-369.73"/>
<path fill="none" stroke="purple" d="M300,-369.73C300,-367.92 278.93,-366.45 253,-366.45 227.07,-366.45 206,-367.92 206,-369.73"/>
<text text-anchor="middle" x="253" y="-351.3" font-family="Times,serif" font-size="14.00">MBlast DB</text>
</g>
<!-- LookupUserJob&#45;&gt;DB -->
<g id="edge3" class="edge">
<title>LookupUserJob&#45;&gt;DB</title>
<path fill="none" stroke="#333333" stroke-dasharray="1,5" d="M269.03,-579.15C265.3,-527.19 257.28,-415.61 254.22,-373.01"/>
<polygon fill="#333333" stroke="#333333" points="265.55,-579.56 269.76,-589.28 272.54,-579.06 265.55,-579.56"/>
</g>
<!-- UserJobWasFound -->
<g id="node6" class="node">
<title>UserJobWasFound</title>
<polygon fill="none" stroke="black" points="81,-517 0,-487 81,-457 162,-487 81,-517"/>
<text text-anchor="middle" x="81" y="-490.8" font-family="Times,serif" font-size="14.00">User job</text>
<text text-anchor="middle" x="81" y="-475.8" font-family="Times,serif" font-size="14.00">was found?</text>
</g>
<!-- LookupUserJob&#45;&gt;UserJobWasFound -->
<g id="edge2" class="edge">
<title>LookupUserJob&#45;&gt;UserJobWasFound</title>
<path fill="none" stroke="darkblue" d="M243.37,-589.27C210.64,-568.85 155.92,-534.72 119.16,-511.8"/>
<polygon fill="darkblue" stroke="darkblue" points="120.56,-508.55 110.22,-506.23 116.85,-514.49 120.56,-508.55"/>
</g>
<!-- LookupJob -->
<g id="node7" class="node">
<title>LookupJob</title>
<polygon fill="none" stroke="black" points="474,-505 380,-505 380,-469 474,-469 474,-505"/>
<text text-anchor="middle" x="427" y="-483.3" font-family="Times,serif" font-size="14.00">Lookup Job</text>
</g>
<!-- LookupUserJob&#45;&gt;LookupJob -->
<!-- UserJobWasFound&#45;&gt;End -->
<g id="edge4" class="edge">
<title>UserJobWasFound&#45;&gt;End</title>
<path fill="none" stroke="darkgreen" d="M85.82,-458.53C100.38,-375.64 143.75,-128.65 158.23,-46.16"/>
<polygon fill="darkgreen" stroke="darkgreen" points="161.72,-46.53 160,-36.08 154.82,-45.32 161.72,-46.53"/>
<text text-anchor="middle" x="98.32" y="-447.33" font-family="Times,serif" font-size="14.00">Yes</text>
</g>
<!-- UserJobWasFound&#45;&gt;DB -->
<!-- UserJobWasFound&#45;&gt;LookupJob -->
<g id="edge5" class="edge">
<title>UserJobWasFound&#45;&gt;LookupJob</title>
<path fill="none" stroke="darkred" d="M162.09,-487C231.3,-487 300.5,-487 369.71,-487"/>
<polygon fill="darkred" stroke="darkred" points="369.92,-490.5 379.92,-487 369.92,-483.5 369.92,-490.5"/>
<text text-anchor="middle" x="172.59" y="-490.8" font-family="Times,serif" font-size="14.00">No</text>
</g>
<!-- LookupJob&#45;&gt;DB -->
<g id="edge6" class="edge">
<title>LookupJob&#45;&gt;DB</title>
<path fill="none" stroke="#333333" stroke-dasharray="1,5" d="M395.59,-462.53C361.11,-436.77 306.6,-396.04 275.92,-373.13"/>
<polygon fill="#333333" stroke="#333333" points="393.79,-465.56 403.89,-468.74 397.98,-459.95 393.79,-465.56"/>
</g>
<!-- JobWasFound -->
<g id="node8" class="node">
<title>JobWasFound</title>
<polygon fill="none" stroke="black" points="427,-385 372,-355 427,-325 482,-355 427,-385"/>
<text text-anchor="middle" x="427" y="-358.8" font-family="Times,serif" font-size="14.00">Job was</text>
<text text-anchor="middle" x="427" y="-343.8" font-family="Times,serif" font-size="14.00">found?</text>
</g>
<!-- LookupJob&#45;&gt;JobWasFound -->
<g id="edge7" class="edge">
<title>LookupJob&#45;&gt;JobWasFound</title>
<path fill="none" stroke="darkblue" d="M427,-468.74C427,-450.12 427,-419.87 427,-395.39"/>
<polygon fill="darkblue" stroke="darkblue" points="430.5,-395.3 427,-385.3 423.5,-395.3 430.5,-395.3"/>
</g>
<!-- JobWasFound&#45;&gt;Error -->
<g id="edge9" class="edge">
<title>JobWasFound&#45;&gt;Error</title>
<path fill="none" stroke="darkred" d="M482.05,-355C502.55,-355 523.05,-355 543.55,-355"/>
<polygon fill="darkred" stroke="darkred" points="543.61,-358.5 553.61,-355 543.61,-351.5 543.61,-358.5"/>
<text text-anchor="middle" x="501.55" y="-358.8" font-family="Times,serif" font-size="14.00"> &#160;&#160;&#160;No</text>
</g>
<!-- JobWasFound&#45;&gt;LinkUserToJob -->
<g id="edge8" class="edge">
<title>JobWasFound&#45;&gt;LinkUserToJob</title>
<path fill="none" stroke="darkgreen" d="M427,-324.83C427,-306 427,-281.68 427,-263.24"/>
<polygon fill="darkgreen" stroke="darkgreen" points="430.5,-263.16 427,-253.16 423.5,-263.16 430.5,-263.16"/>
<text text-anchor="middle" x="414.5" y="-313.63" font-family="Times,serif" font-size="14.00">Yes</text>
</g>
<!-- LookupSubJobs -->
<g id="node9" class="node">
<title>LookupSubJobs</title>
<polygon fill="none" stroke="black" points="300,-253 206,-253 206,-217 300,-217 300,-253"/>
<text text-anchor="middle" x="253" y="-238.8" font-family="Times,serif" font-size="14.00">Lookup</text>
<text text-anchor="middle" x="253" y="-223.8" font-family="Times,serif" font-size="14.00">sub jobs</text>
</g>
<!-- LookupSubJobs&#45;&gt;DB -->
<g id="edge12" class="edge">
<title>LookupSubJobs&#45;&gt;DB</title>
<path fill="none" stroke="#333333" stroke-dasharray="1,5" d="M253,-263.2C253,-285.89 253,-317.53 253,-336.84"/>
<polygon fill="#333333" stroke="#333333" points="256.5,-263.18 253,-253.18 249.5,-263.18 256.5,-263.18"/>
</g>
<!-- LookupSubJobs&#45;&gt;LinkUserToJob -->
<g id="edge11" class="edge">
<title>LookupSubJobs&#45;&gt;LinkUserToJob</title>
<path fill="none" stroke="darkblue" d="M300.24,-235C323.39,-235 346.53,-235 369.68,-235"/>
<polygon fill="darkblue" stroke="darkblue" points="369.96,-238.5 379.96,-235 369.96,-231.5 369.96,-238.5"/>
</g>
<!-- SubJobLinking -->
<g id="node11" class="node">
<title>SubJobLinking</title>
<polygon fill="none" stroke="black" points="202,-108.5 202,-144.5 296,-144.5 296,-108.5 202,-108.5"/>
<text text-anchor="middle" x="209" y="-122.8" font-family="Times,serif" font-size="14.00"> </text>
<polyline fill="none" stroke="black" points="216,-108.5 216,-144.5 "/>
<text text-anchor="middle" x="248.5" y="-130.3" font-family="Times,serif" font-size="14.00">Sub&#45;Job</text>
<text text-anchor="middle" x="248.5" y="-115.3" font-family="Times,serif" font-size="14.00">Linking</text>
<polyline fill="none" stroke="black" points="281,-108.5 281,-144.5 "/>
<text text-anchor="middle" x="288.5" y="-122.8" font-family="Times,serif" font-size="14.00"> </text>
</g>
<!-- LookupSubJobs&#45;&gt;SubJobLinking -->
<g id="edge13" class="edge">
<title>LookupSubJobs&#45;&gt;SubJobLinking</title>
<path fill="none" stroke="darkblue" d="M252.36,-216.89C251.73,-200.12 250.76,-174.3 250.02,-154.71"/>
<polygon fill="darkblue" stroke="darkblue" points="253.51,-154.43 249.64,-144.57 246.52,-154.69 253.51,-154.43"/>
</g>
<!-- LinkUserToJob&#45;&gt;DB -->
<g id="edge10" class="edge">
<title>LinkUserToJob&#45;&gt;DB</title>
<path fill="none" stroke="#333333" stroke-dasharray="1,5" d="M401.67,-253.18C371.37,-273.73 320.54,-308.2 286.88,-331.02"/>
<polygon fill="#333333" stroke="#333333" points="284.61,-328.33 278.3,-336.84 288.54,-334.13 284.61,-328.33"/>
</g>
<!-- SubJobLinking&#45;&gt;End -->
<g id="edge14" class="edge">
<title>SubJobLinking&#45;&gt;End</title>
<path fill="none" stroke="darkblue" d="M235.18,-108.39C220.97,-90.79 198.72,-63.23 182.67,-43.36"/>
<polygon fill="darkblue" stroke="darkblue" points="185.22,-40.95 176.22,-35.37 179.78,-45.35 185.22,-40.95"/>
</g>
</g>
</svg>
