<?xml version="1.0" encoding="UTF-8" standalone="no"?>
<!DOCTYPE svg PUBLIC "-//W3C//DTD SVG 1.1//EN"
 "http://www.w3.org/Graphics/SVG/1.1/DTD/svg11.dtd">
<!-- Generated by graphviz version 2.43.0 (0)
 -->
<!-- Title: %3 Pages: 1 -->
<svg width="348pt" height="405pt"
 viewBox="0.00 0.00 347.50 405.00" xmlns="http://www.w3.org/2000/svg" xmlns:xlink="http://www.w3.org/1999/xlink">
<g id="graph0" class="graph" transform="scale(1 1) rotate(0) translate(4 401)">
<title>%3</title>
<polygon fill="white" stroke="transparent" points="-4,4 -4,-401 343.5,-401 343.5,4 -4,4"/>
<!-- Choice -->
<g id="node1" class="node">
<title>Choice</title>
<polygon fill="none" stroke="black" points="54,-325 0,-307 54,-289 108,-307 54,-325"/>
<text text-anchor="middle" x="54" y="-303.3" font-family="Times,serif" font-size="14.00">Choice</text>
</g>
<!-- PreDef -->
<g id="node3" class="node">
<title>PreDef</title>
<polygon fill="none" stroke="black" points="0,-216.5 0,-252.5 108,-252.5 108,-216.5 0,-216.5"/>
<text text-anchor="middle" x="5.5" y="-230.8" font-family="Times,serif" font-size="14.00"> </text>
<polyline fill="none" stroke="black" points="11,-216.5 11,-252.5 "/>
<text text-anchor="middle" x="53.5" y="-238.3" font-family="Times,serif" font-size="14.00">Predefined</text>
<text text-anchor="middle" x="53.5" y="-223.3" font-family="Times,serif" font-size="14.00">process</text>
<polyline fill="none" stroke="black" points="96,-216.5 96,-252.5 "/>
<text text-anchor="middle" x="102" y="-230.8" font-family="Times,serif" font-size="14.00"> </text>
</g>
<!-- Choice&#45;&gt;PreDef -->
<!-- NChoice -->
<g id="node2" class="node">
<title>NChoice</title>
<text text-anchor="middle" x="231" y="-310.8" font-family="Times,serif" font-size="14.00">A decision between 2</text>
<text text-anchor="middle" x="231" y="-295.8" font-family="Times,serif" font-size="14.00">or more possible branches</text>
</g>
<!-- NPreDef -->
<g id="node4" class="node">
<title>NPreDef</title>
<text text-anchor="middle" x="231" y="-238.3" font-family="Times,serif" font-size="14.00">A process that is defined in</text>
<text text-anchor="middle" x="231" y="-223.3" font-family="Times,serif" font-size="14.00">a separate graph or document</text>
</g>
<!-- NChoice&#45;&gt;NPreDef -->
<!-- Process -->
<g id="node5" class="node">
<title>Process</title>
<polygon fill="none" stroke="black" points="108,-180 0,-180 0,-144 108,-144 108,-180"/>
<text text-anchor="middle" x="54" y="-158.3" font-family="Times,serif" font-size="14.00">Process</text>
</g>
<!-- PreDef&#45;&gt;Process -->
<!-- NProcess -->
<g id="node6" class="node">
<title>NProcess</title>
<text text-anchor="middle" x="231" y="-158.3" font-family="Times,serif" font-size="14.00">Internal process</text>
</g>
<!-- NPreDef&#45;&gt;NProcess -->
<!-- DB -->
<g id="node9" class="node">
<title>DB</title>
<path fill="none" stroke="black" d="M108,-104.73C108,-106.53 83.8,-108 54,-108 24.2,-108 0,-106.53 0,-104.73 0,-104.73 0,-75.27 0,-75.27 0,-73.47 24.2,-72 54,-72 83.8,-72 108,-73.47 108,-75.27 108,-75.27 108,-104.73 108,-104.73"/>
<path fill="none" stroke="black" d="M108,-104.73C108,-102.92 83.8,-101.45 54,-101.45 24.2,-101.45 0,-102.92 0,-104.73"/>
<text text-anchor="middle" x="54" y="-86.3" font-family="Times,serif" font-size="14.00">Data Store</text>
</g>
<!-- Process&#45;&gt;DB -->
<!-- NDB -->
<g id="node10" class="node">
<title>NDB</title>
<text text-anchor="middle" x="231" y="-93.8" font-family="Times,serif" font-size="14.00">Database/filesystem</text>
<text text-anchor="middle" x="231" y="-78.8" font-family="Times,serif" font-size="14.00">data store</text>
</g>
<!-- NProcess&#45;&gt;NDB -->
<!-- End -->
<g id="node7" class="node">
<title>End</title>
<ellipse fill="none" stroke="black" cx="54" cy="-379" rx="54" ry="18"/>
<text text-anchor="middle" x="54" y="-375.3" font-family="Times,serif" font-size="14.00">Start/End</text>
</g>
<!-- End&#45;&gt;Choice -->
<!-- NEnd -->
<g id="node8" class="node">
<title>NEnd</title>
<text text-anchor="middle" x="231" y="-375.3" font-family="Times,serif" font-size="14.00">Process start/end</text>
</g>
<!-- NEnd&#45;&gt;NChoice -->
<!-- ExtServ -->
<g id="node11" class="node">
<title>ExtServ</title>
<polygon fill="none" stroke="black" points="108,-36 0,-36 0,-32 -4,-32 -4,-28 0,-28 0,-8 -4,-8 -4,-4 0,-4 0,0 108,0 108,-36"/>
<polyline fill="none" stroke="black" points="0,-32 4,-32 4,-28 0,-28 "/>
<polyline fill="none" stroke="black" points="0,-8 4,-8 4,-4 0,-4 "/>
<text text-anchor="middle" x="54" y="-14.3" font-family="Times,serif" font-size="14.00">Service</text>
</g>
<!-- DB&#45;&gt;ExtServ -->
<!-- NExtServ -->
<g id="node12" class="node">
<title>NExtServ</title>
<text text-anchor="middle" x="231" y="-21.8" font-family="Times,serif" font-size="14.00">External network</text>
<text text-anchor="middle" x="231" y="-6.8" font-family="Times,serif" font-size="14.00">service</text>
</g>
<!-- NDB&#45;&gt;NExtServ -->
</g>
</svg>
