<?xml version="1.0" encoding="UTF-8" standalone="no"?>
<!DOCTYPE svg PUBLIC "-//W3C//DTD SVG 1.1//EN"
 "http://www.w3.org/Graphics/SVG/1.1/DTD/svg11.dtd">
<!-- Generated by graphviz version 2.43.0 (0)
 -->
<!-- Title: %3 Pages: 1 -->
<svg width="354pt" height="414pt"
 viewBox="0.00 0.00 353.50 414.00" xmlns="http://www.w3.org/2000/svg" xmlns:xlink="http://www.w3.org/1999/xlink">
<g id="graph0" class="graph" transform="scale(1 1) rotate(0) translate(4 410)">
<title>%3</title>
<polygon fill="white" stroke="transparent" points="-4,4 -4,-410 349.5,-410 349.5,4 -4,4"/>
<!-- Choice -->
<g id="node1" class="node">
<title>Choice</title>
<polygon fill="none" stroke="black" points="54,-334 0,-316 54,-298 108,-316 54,-334"/>
<text text-anchor="middle" x="54" y="-312.3" font-family="Times,serif" font-size="14.00">Choice</text>
</g>
<!-- PreDef -->
<g id="node3" class="node">
<title>PreDef</title>
<polygon fill="none" stroke="black" points="0,-225.5 0,-261.5 108,-261.5 108,-225.5 0,-225.5"/>
<text text-anchor="middle" x="5.5" y="-239.8" font-family="Times,serif" font-size="14.00"> </text>
<polyline fill="none" stroke="black" points="11,-225.5 11,-261.5 "/>
<text text-anchor="middle" x="53.5" y="-247.3" font-family="Times,serif" font-size="14.00">Predefined</text>
<text text-anchor="middle" x="53.5" y="-232.3" font-family="Times,serif" font-size="14.00">process</text>
<polyline fill="none" stroke="black" points="96,-225.5 96,-261.5 "/>
<text text-anchor="middle" x="102" y="-239.8" font-family="Times,serif" font-size="14.00"> </text>
</g>
<!-- Choice&#45;&gt;PreDef -->
<!-- NChoice -->
<g id="node2" class="node">
<title>NChoice</title>
<text text-anchor="middle" x="234" y="-319.8" font-family="Times,serif" font-size="14.00">A decision between 2</text>
<text text-anchor="middle" x="234" y="-304.8" font-family="Times,serif" font-size="14.00">or more possible branches</text>
</g>
<!-- NPreDef -->
<g id="node4" class="node">
<title>NPreDef</title>
<text text-anchor="middle" x="234" y="-247.3" font-family="Times,serif" font-size="14.00">A process that is defined in</text>
<text text-anchor="middle" x="234" y="-232.3" font-family="Times,serif" font-size="14.00">a separate graph or document</text>
</g>
<!-- NChoice&#45;&gt;NPreDef -->
<!-- Process -->
<g id="node5" class="node">
<title>Process</title>
<polygon fill="none" stroke="black" points="108,-189 0,-189 0,-153 108,-153 108,-189"/>
<text text-anchor="middle" x="54" y="-167.3" font-family="Times,serif" font-size="14.00">Process</text>
</g>
<!-- PreDef&#45;&gt;Process -->
<!-- NProcess -->
<g id="node6" class="node">
<title>NProcess</title>
<text text-anchor="middle" x="234" y="-167.3" font-family="Times,serif" font-size="14.00">Internal process</text>
</g>
<!-- NPreDef&#45;&gt;NProcess -->
<!-- DB -->
<g id="node9" class="node">
<title>DB</title>
<path fill="none" stroke="purple" d="M108,-113.73C108,-115.53 83.8,-117 54,-117 24.2,-117 0,-115.53 0,-113.73 0,-113.73 0,-84.27 0,-84.27 0,-82.47 24.2,-81 54,-81 83.8,-81 108,-82.47 108,-84.27 108,-84.27 108,-113.73 108,-113.73"/>
<path fill="none" stroke="purple" d="M108,-113.73C108,-111.92 83.8,-110.45 54,-110.45 24.2,-110.45 0,-111.92 0,-113.73"/>
<text text-anchor="middle" x="54" y="-95.3" font-family="Times,serif" font-size="14.00">Data Store</text>
</g>
<!-- Process&#45;&gt;DB -->
<!-- NDB -->
<g id="node10" class="node">
<title>NDB</title>
<text text-anchor="middle" x="234" y="-102.8" font-family="Times,serif" font-size="14.00">Database/filesystem</text>
<text text-anchor="middle" x="234" y="-87.8" font-family="Times,serif" font-size="14.00">data store</text>
</g>
<!-- NProcess&#45;&gt;NDB -->
<!-- End -->
<g id="node7" class="node">
<title>End</title>
<ellipse fill="none" stroke="black" cx="54" cy="-388" rx="54" ry="18"/>
<text text-anchor="middle" x="54" y="-384.3" font-family="Times,serif" font-size="14.00">Start/End</text>
</g>
<!-- End&#45;&gt;Choice -->
<!-- NEnd -->
<g id="node8" class="node">
<title>NEnd</title>
<text text-anchor="middle" x="234" y="-384.3" font-family="Times,serif" font-size="14.00">Process start/end</text>
</g>
<!-- NEnd&#45;&gt;NChoice -->
<!-- ExtServ -->
<g id="node11" class="node">
<title>ExtServ</title>
<polygon fill="none" stroke="purple" points="108,-40.5 0,-40.5 0,-36.5 -4,-36.5 -4,-32.5 0,-32.5 0,-12.5 -4,-12.5 -4,-8.5 0,-8.5 0,-4.5 108,-4.5 108,-40.5"/>
<polyline fill="none" stroke="purple" points="0,-36.5 4,-36.5 4,-32.5 0,-32.5 "/>
<polyline fill="none" stroke="purple" points="0,-12.5 4,-12.5 4,-8.5 0,-8.5 "/>
<text text-anchor="middle" x="54" y="-18.8" font-family="Times,serif" font-size="14.00">Service</text>
</g>
<!-- DB&#45;&gt;ExtServ -->
<!-- NExtServ -->
<g id="node12" class="node">
<title>NExtServ</title>
<text text-anchor="middle" x="234" y="-33.8" font-family="Times,serif" font-size="14.00">External network service.</text>
<text text-anchor="middle" x="234" y="-18.8" font-family="Times,serif" font-size="14.00">May or may not be in the same</text>
<text text-anchor="middle" x="234" y="-3.8" font-family="Times,serif" font-size="14.00">docker&#45;compose stack.</text>
</g>
<!-- NDB&#45;&gt;NExtServ -->
</g>
</svg>
