<svg xmlns="http://www.w3.org/2000/svg" xmlns:xlink="http://www.w3.org/1999/xlink" xmlns:lucid="lucid" width="1280" height="900"><g transform="translate(0 0)" lucid:page-tab-id="0_0"><path d="M825.2 216.13h69.2v121.3h-69.2v-121.3z" fill="#29aae1"/><path d="M851.6 300.37h35.2c1.12 0 1.12 0 1.12 1.17 0 1.04 0 1.04-1.12 1.04h-35.2c-1.12 0-1.12 0-1.12-1.04 0-1.17 0-1.17 1.12-1.17zM851.68 306.48h35.12c1.52 0 1.52 0 1.52 1.56v.4c0 1.55 0 1.55-1.52 1.55h-35.12c-1.52 0-1.52 0-1.52-1.57v-.4c0-1.55 0-1.55 1.52-1.55zM851.84 314.15h35.12c1.52 0 1.52 0 1.52 1.56v.4c0 1.56 0 1.56-1.52 1.56h-35.12c-1.52 0-1.52 0-1.52-1.56v-.4c0-1.55 0-1.55 1.52-1.55zM883.92 275.02c0 3.12-2.56 5.72-5.76 5.72-3.12 0-5.68-2.6-5.68-5.72 0-3.12 2.56-5.72 5.68-5.72 3.2 0 5.76 2.6 5.76 5.72z" fill="#fff"/><path d="M881.6 275.02c0 1.95-1.6 3.5-3.52 3.5s-3.52-1.55-3.52-3.5 1.6-3.5 3.52-3.5 3.52 1.55 3.52 3.5z" fill="#54bbe7"/><path d="M826.48 211.58h27.84v1.95h-27.84v-1.95zM858.16 211.58H886v2.08h-27.84v-2.08zM889.76 211.7h9.92v1.96h-9.92v-1.95z" fill="gray"/><path d="M897.52 213.53h2.16v12.74h-2.16v-12.74zM897.6 229.65h2.16v26h-2.16v-26zM897.6 260.07h2.24v26h-2.24v-26zM897.68 289.7h2.24v26h-2.24v-26zM897.68 320h2.24v21.58h-2.24V320z" fill="gray"/><path d="M889.76 339.63h9.92v1.95h-9.92v-1.95zM857.44 339.63h27.84v1.95h-27.84v-1.95zM821.84 339.5h30.56v2.08h-30.56v-2.08zM820.08 211.58h2.24v26.13h-2.24V211.6zM820 241.87h2.24V268H820v-26.13zM820 271.9h2.24v26H820v-26zM820 301.4h2.24v26.14H820V301.4z" fill="gray"/><path d="M820.16 331.57h2.24v10h-2.24v-10z" fill="gray"/><use xlink:href="#a" transform="matrix(1,0,0,1,789.9999999999999,341.5799999999999) translate(1.2345679012345698 19.444444444444443)"/><use xlink:href="#b" transform="matrix(1,0,0,1,789.9999999999999,341.5799999999999) translate(64.81481481481481 19.444444444444443)"/><path d="M700 110c0-16.57 13.43-30 30-30h500c16.57 0 30 13.43 30 30v340c0 16.57-13.43 30-30 30H730c-16.57 0-30-13.43-30-30z" fill-opacity="0"/><path d="M715.04 84.1l3.17-1.7 4.72-1.56 4.93-.76L730 80h15.15m15.15 0h30.3m15.16 0h30.3m15.15 0h30.32m15.15 0h30.3m15.15 0h30.3m15.16 0h30.3m15.15 0h30.3m15.15 0h30.3m15.16 0h30.3m15.15 0h30.3m15.15 0H1230l5 .42 4.82 1.22 4.54 2 .6.42m10.95 10.98l1.7 3.17 1.56 4.72.76 4.93.08 2.15v14.17m0 14.16v28.34m0 14.16v28.34m0 14.16v28.34m0 14.16v28.34m0 14.16v28.34m0 14.16v28.34m0 14.16v28.34m0 14.16V450l-.42 5-1.22 4.82-2 4.54-.42.6m-10.98 10.95l-3.17 1.7-4.72 1.56-4.93.76-2.15.08h-15.15m-15.15 0h-30.3m-15.16 0h-30.3m-15.15 0h-30.32m-15.15 0h-30.3m-15.15 0h-30.3m-15.16 0h-30.3m-15.15 0h-30.3m-15.15 0h-30.3m-15.16 0h-30.3m-15.15 0h-30.3m-15.15 0H730l-5-.42-4.82-1.22-4.54-2-.6-.42m-10.95-10.98l-1.7-3.17-1.56-4.72-.76-4.93L700 450v-14.17m0-14.16v-28.34m0-14.16v-28.34m0-14.16v-28.34m0-14.16v-28.34m0-14.16v-28.34m0-14.16v-28.34m0-14.16v-28.34m0-14.16V110l.42-5 1.22-4.82 2-4.54.42-.6" stroke="#f7981f" stroke-width="3" fill="none"/><use xlink:href="#c" transform="matrix(1,0,0,1,700,450) translate(209.10493827160494 11.11111111111111)"/><use xlink:href="#d" transform="matrix(1,0,0,1,700,450) translate(275.64814814814815 11.11111111111111)"/><path d="M20 50c0-16.57 13.43-30 30-30h580c16.57 0 30 13.43 30 30v800c0 16.57-13.43 30-30 30H50c-16.57 0-30-13.43-30-30z" stroke="#474747" stroke-width="3" fill-opacity="0"/><path d="M20 50c0-16.57 13.43-30 30-30h580c16.57 0 30 13.43 30 30v800c0 16.57-13.43 30-30 30H50c-16.57 0-30-13.43-30-30z" fill="none"/><path d="M35.04 24.1l3.17-1.7 4.72-1.56 4.93-.76L50 20h14.87m14.87 0h29.75m14.86 0h29.74m14.87 0h29.75m14.87 0h29.73m14.88 0h29.75m14.87 0h29.74m14.88 0h29.74m14.87 0h29.74m14.87 0h29.74m14.88 0h29.75m14.87 0h29.74m14.87 0h29.76m14.87 0H630l5 .42 4.82 1.22 4.54 2 .6.42m10.95 10.98l1.7 3.17 1.56 4.72.76 4.93L660 50v14.8m0 14.83v29.63m0 14.8v29.64m0 14.82v29.63m0 14.8v29.64m0 14.8v29.64m0 14.8v29.64m0 14.82v29.63m0 14.8v29.64m0 14.82v29.6m0 14.83v29.63m0 14.8v29.64m0 14.82v29.63m0 14.8v29.64m0 14.8v29.64m0 14.8v29.64m0 14.82v29.63m0 14.8v29.64m0 14.82V850l-.42 5-1.22 4.82-2 4.54-.42.6m-10.98 10.95l-3.17 1.7-4.72 1.56-4.93.76-2.15.08h-14.87m-14.87 0H570.5m-14.86 0H525.9m-14.87 0h-29.75m-14.87 0h-29.73m-14.88 0h-29.75m-14.87 0h-29.74m-14.88 0h-29.74m-14.87 0H258.2m-14.87 0H213.6m-14.88 0h-29.75m-14.87 0h-29.74m-14.87 0H79.73m-14.87 0H50l-5-.42-4.82-1.22-4.54-2-.6-.42m-10.95-10.98l-1.7-3.17-1.56-4.72-.76-4.93L20 850v-14.8m0-14.83v-29.63m0-14.8V746.3m0-14.82v-29.63m0-14.8V657.4m0-14.8v-29.64m0-14.8V568.5m0-14.82v-29.63m0-14.8v-29.64m0-14.82v-29.6m0-14.83v-29.63m0-14.8V346.3m0-14.82v-29.63m0-14.8V257.4m0-14.8v-29.64m0-14.8V168.5m0-14.82v-29.63m0-14.8V79.62m0-14.82V50l.42-5 1.22-4.82 2-4.54.42-.6" stroke="red" stroke-width="3" fill="none"/><use xlink:href="#e" transform="matrix(1,0,0,1,20,850) translate(201.08024691358025 11.11111111111111)"/><use xlink:href="#f" transform="matrix(1,0,0,1,20,850) translate(281.2037037037037 11.11111111111111)"/><use xlink:href="#g" transform="matrix(1,0,0,1,20,850) translate(357.62345679012344 11.11111111111111)"/><path d="M265.2 604.55h69.2v121.3h-69.2v-121.3z" fill="#29aae1"/><path d="M291.6 688.8h35.2c1.12 0 1.12 0 1.12 1.16 0 1.04 0 1.04-1.12 1.04h-35.2c-1.12 0-1.12 0-1.12-1.04 0-1.17 0-1.17 1.12-1.17zM291.68 694.9h35.12c1.52 0 1.52 0 1.52 1.56v.4c0 1.55 0 1.55-1.52 1.55h-35.12c-1.52 0-1.52 0-1.52-1.55v-.4c0-1.55 0-1.55 1.52-1.55zM291.84 702.57h35.12c1.52 0 1.52 0 1.52 1.56v.4c0 1.55 0 1.55-1.52 1.55h-35.12c-1.52 0-1.52 0-1.52-1.56v-.4c0-1.55 0-1.55 1.52-1.55zM323.92 663.44c0 3.12-2.56 5.72-5.76 5.72-3.12 0-5.68-2.6-5.68-5.72 0-3.12 2.56-5.72 5.68-5.72 3.2 0 5.76 2.6 5.76 5.72z" fill="#fff"/><path d="M321.6 663.44c0 1.95-1.6 3.5-3.52 3.5s-3.52-1.55-3.52-3.5 1.6-3.5 3.52-3.5 3.52 1.55 3.52 3.5z" fill="#54bbe7"/><path d="M266.48 600h27.84v1.95h-27.84V600zM298.16 600H326v2.08h-27.84V600zM329.76 600.13h9.92v1.95h-9.92v-1.95z" fill="gray"/><path d="M337.52 601.95h2.16v12.74h-2.16v-12.75zM337.6 618.07h2.16v26h-2.16v-26zM337.6 648.5h2.24v26h-2.24v-26zM337.68 678.13h2.24v26h-2.24v-26zM337.68 708.42h2.24V730h-2.24v-21.58z" fill="gray"/><path d="M329.76 728.05h9.92V730h-9.92v-1.95zM297.44 728.05h27.84V730h-27.84v-1.95zM261.84 727.92h30.56V730h-30.56v-2.08zM260.08 600h2.24v26.13h-2.24V600zM260 630.3h2.24v26.12H260V630.3zM260 660.32h2.24v26H260v-26zM260 689.83h2.24v26.13H260v-26.13z" fill="gray"/><path d="M260.16 720h2.24v10h-2.24v-10z" fill="gray"/><use xlink:href="#h" transform="matrix(1,0,0,1,230,730) translate(45.339506172839506 19.444444444444443)"/><path d="M265.2 424.55h69.2v121.3h-69.2v-121.3z" fill="#29aae1"/><path d="M291.6 508.8h35.2c1.12 0 1.12 0 1.12 1.16 0 1.04 0 1.04-1.12 1.04h-35.2c-1.12 0-1.12 0-1.12-1.04 0-1.17 0-1.17 1.12-1.17zM291.68 514.9h35.12c1.52 0 1.52 0 1.52 1.56v.4c0 1.55 0 1.55-1.52 1.55h-35.12c-1.52 0-1.52 0-1.52-1.55v-.4c0-1.55 0-1.55 1.52-1.55zM291.84 522.57h35.12c1.52 0 1.52 0 1.52 1.56v.4c0 1.55 0 1.55-1.52 1.55h-35.12c-1.52 0-1.52 0-1.52-1.56v-.4c0-1.55 0-1.55 1.52-1.55zM323.92 483.44c0 3.12-2.56 5.72-5.76 5.72-3.12 0-5.68-2.6-5.68-5.72 0-3.12 2.56-5.72 5.68-5.72 3.2 0 5.76 2.6 5.76 5.72z" fill="#fff"/><path d="M321.6 483.44c0 1.95-1.6 3.5-3.52 3.5s-3.52-1.55-3.52-3.5 1.6-3.5 3.52-3.5 3.52 1.55 3.52 3.5z" fill="#54bbe7"/><path d="M266.48 420h27.84v1.95h-27.84V420zM298.16 420H326v2.08h-27.84V420zM329.76 420.13h9.92v1.95h-9.92v-1.95z" fill="gray"/><path d="M337.52 421.95h2.16v12.74h-2.16v-12.75zM337.6 438.07h2.16v26h-2.16v-26zM337.6 468.5h2.24v26h-2.24v-26zM337.68 498.13h2.24v26h-2.24v-26zM337.68 528.42h2.24V550h-2.24v-21.58z" fill="gray"/><path d="M329.76 548.05h9.92V550h-9.92v-1.95zM297.44 548.05h27.84V550h-27.84v-1.95zM261.84 547.92h30.56V550h-30.56v-2.08zM260.08 420h2.24v26.13h-2.24V420zM260 450.3h2.24v26.12H260V450.3zM260 480.32h2.24v26H260v-26zM260 509.83h2.24v26.13H260v-26.13z" fill="gray"/><path d="M260.16 540h2.24v10h-2.24v-10z" fill="gray"/><use xlink:href="#i" transform="matrix(1,0,0,1,230,550) translate(21.97530864197531 19.444444444444443)"/><path d="M445.2 64.55h69.2v121.3h-69.2V64.54z" fill="#29aae1"/><path d="M471.6 148.8h35.2c1.12 0 1.12 0 1.12 1.16 0 1.04 0 1.04-1.12 1.04h-35.2c-1.12 0-1.12 0-1.12-1.04 0-1.17 0-1.17 1.12-1.17zM471.68 154.9h35.12c1.52 0 1.52 0 1.52 1.56v.4c0 1.55 0 1.55-1.52 1.55h-35.12c-1.52 0-1.52 0-1.52-1.55v-.4c0-1.55 0-1.55 1.52-1.55zM471.84 162.57h35.12c1.52 0 1.52 0 1.52 1.56v.4c0 1.55 0 1.55-1.52 1.55h-35.12c-1.52 0-1.52 0-1.52-1.56v-.4c0-1.55 0-1.55 1.52-1.55zM503.92 123.44c0 3.12-2.56 5.72-5.76 5.72-3.12 0-5.68-2.6-5.68-5.72 0-3.12 2.56-5.72 5.68-5.72 3.2 0 5.76 2.6 5.76 5.72z" fill="#fff"/><path d="M501.6 123.44c0 1.95-1.6 3.5-3.52 3.5s-3.52-1.55-3.52-3.5 1.6-3.5 3.52-3.5 3.52 1.55 3.52 3.5z" fill="#54bbe7"/><path d="M446.48 60h27.84v1.95h-27.84V60zM478.16 60H506v2.08h-27.84V60zM509.76 60.13h9.92v1.95h-9.92v-1.95z" fill="gray"/><path d="M517.52 61.95h2.16V74.7h-2.16V61.94zM517.6 78.07h2.16v26h-2.16v-26zM517.6 108.5h2.24v26h-2.24v-26zM517.68 138.13h2.24v26h-2.24v-26zM517.68 168.42h2.24V190h-2.24v-21.58z" fill="gray"/><path d="M509.76 188.05h9.92V190h-9.92v-1.95zM477.44 188.05h27.84V190h-27.84v-1.95zM441.84 187.92h30.56V190h-30.56v-2.08zM440.08 60h2.24v26.13h-2.24V60zM440 90.3h2.24v26.12H440V90.3zM440 120.32h2.24v26H440v-26zM440 149.83h2.24v26.13H440v-26.13z" fill="gray"/><path d="M440.16 180h2.24v10h-2.24v-10z" fill="gray"/><use xlink:href="#j" transform="matrix(1,0,0,1,410,190) translate(27.098765432098766 19.444444444444443)"/><path d="M157.47 184.9h-2.8l-10.58-1.04-8.06-1.87-5.47-2.08-3.53-1.76-2.32-1.65-1.54-1.34-1-1.14-.76-.93-.52-.94-.34-.83-.26-.72-.2-.72-.06-.72-.04-.62V81.37h37.47z" stroke="#000" stroke-opacity="0" fill="#005f87"/><path d="M195.2 168.63v.2l-.03.63-.12.72-.2.73-.3.73-.37.83-.57.93-.8 1.03-1.14 1.24-1.67 1.35-2.56 1.66-3.9 1.86-6 2.08-8.7 1.65-11.12.73h-.6V81.37h38.1z" stroke="#000" stroke-opacity="0" fill="#0f80b0"/><path d="M168.13 65.7l8.8 1.72 6.24 2.07 4.14 1.98 2.64 1.67 1.73 1.44 1.2 1.17.76 1.02.6.87.37.82.23.7.23.67.07.65.08.62v.89l-.14.65-.15.7-.22.74-.38.8-.52.87-.68.98-1.05 1.14-1.58 1.38-2.33 1.6-3.6 1.87-5.58 2.06-8.12 1.87-10.38 1-2.7.05-10.84-.7-8.72-1.73-6.24-2.06-4.06-1.96-2.64-1.67-1.73-1.4-1.12-1.2-.82-1-.53-.92-.45-.78-.22-.75-.23-.7-.07-.65-.08-.62v-.88l.15-.66.15-.68.23-.76.37-.78.53-.9.68-.97 1.06-1.15 1.58-1.37 2.33-1.6 3.6-1.87 5.57-2.07 8.13-1.85 10.38-1.02 2.7-.03z" stroke="#000" stroke-opacity="0" fill="#fff"/><path d="M169.96 70.5l8.1 1.96 4.26 1.8 2.23 1.36 1.2 1.04.78.83.42.66.3.6.18.5.12.47.06.46V80.87l-.1.48-.13.5-.3.57-.36.65-.6.76-1 .96-1.8 1.24-3.32 1.63-6.42 1.96-11.04 1.52-4.8.13-12.6-1-8.04-1.93-4.2-1.77-2.22-1.35-1.2-1.04-.72-.82-.48-.7-.3-.58-.18-.52-.12-.48-.06-.48v-.69l.12-.5.18-.53.24-.56.36-.66.66-.78.96-.96 1.8-1.22 3.24-1.6 6.36-1.94 11.04-1.5 4.92-.16z" stroke="#000" stroke-opacity="0" fill="#7fb900"/><path d="M162.36 69.66l11 1.5 6.4 1.98 3.36 1.62 1.8 1.26 1 .96.6.76.37.63.3.58.1.5.13.5v.45l-.3 1.5-1.14 1.8-2.04 1.7-2.82 1.57-8.37-2.58-15.2-1.53-4.72.13-13.16 1.86-5.82 2.1-2.2-1.15-2.22-1.67-1.38-1.85-.48-1.88v-.18l.06-.47.12-.47.18-.52.3-.6.42-.68.72-.82 1.25-1.05 2.22-1.36 4.24-1.78 7.97-1.96 12.5-.98z" stroke="#000" stroke-opacity="0" fill="#b7d332"/><path d="M156.4 114.6l1.5.38 1.8 1.3.88 2.1.18 2.22v3.15l10.73.08v10.76l.83.73.96.34h6.28v-11.84h8.03v19.5h-.05l-.42 3.07-1.02 2.7-1.6 2.1-2.1 1.3-2.04.4h-16.12v-7.54h14.32l1.14-1.6.48-1.5-1.62.95h-8.93l-2.64-.5-2.04-1.4-1.26-2.28-.3-2.27V124.9l-2.7-1.07v20.46h-7.2v-15.63l-4 10.96-1.14 2.58-1.56 1.66-2.1.54-2.1-.38-1.85-1.16-1.44-1.8-.6-1.43-3.88-11.38v16.15h-7.13v-24.03l.23-2.7 1.08-1.84 1.27-.73 1.5-.5 1.55-.16 2.1.35 1.8 1.22 1.26 1.92.3.7 5.93 13.8 4.74-13.8 1.14-2.12 1.62-1.42 2.03-.66h.66z" stroke="#000" stroke-opacity="0" fill="#fff"/><path d="M210.64 139.6l-.3 7.22 2.4 3 5.16-.43.7-.05 1.4 4.23v1.33l-4.08 4.5-.04 4.23 3.93 4.14.2.2v1.32l-1.48 4.23-5.9-.38-2.45 2.95.4 6.33.03.86-3.5 1.7h-1.08l-3.65-5-3.42-.05-3.42 4.8-.16.25h-1.05l-3.5-1.8.36-7.24-2.4-3-5.2.42-.68.1-1.74-5.24 4.43-4.85v-4.2l-3.94-4.2-.5-.56 1.78-5.2 5.9.44 2.46-3-.35-6.33-.04-.8 4.28-2.15 3.92 5.42h3.46l3.38-4.8.46-.62zm-11.1 10.32l-2.34.76-2.14 1.47-1.75 2.1-1.23 2.66-.66 2.82-.03 3.05.62 3 1.24 2.62 1.75 2.13 2.08 1.52.12.05 2.33.76h2.4l2.38-.76 2.14-1.48 1.75-2.1 1.23-2.66.67-2.76.03-3.04-.66-3-1.2-2.67-1.75-2.15-2.1-1.52-.15-.05-2.33-.76z" stroke="#000" stroke-opacity="0" fill="#a0a1a2"/><use xlink:href="#k" transform="matrix(1,0,0,1,90,194) translate(30.15 14.4)"/><use xlink:href="#l" transform="matrix(1,0,0,1,90,194) translate(104.9 14.4)"/><path d="M300 193.08V131c0-3.3-2.7-6-6-6h-80.3" stroke="#5e5e5e" stroke-width="2" fill="none"/><path d="M300 208.34l-4.64-14.26h9.28zM198.44 125l14.27-4.64v9.28z" stroke="#5e5e5e" stroke-width="2" fill="#5e5e5e"/><path d="M265.2 216.13h69.2v121.3h-69.2v-121.3z" fill="#29aae1"/><path d="M291.6 300.37h35.2c1.12 0 1.12 0 1.12 1.17 0 1.04 0 1.04-1.12 1.04h-35.2c-1.12 0-1.12 0-1.12-1.04 0-1.17 0-1.17 1.12-1.17zM291.68 306.48h35.12c1.52 0 1.52 0 1.52 1.56v.4c0 1.55 0 1.55-1.52 1.55h-35.12c-1.52 0-1.52 0-1.52-1.57v-.4c0-1.55 0-1.55 1.52-1.55zM291.84 314.15h35.12c1.52 0 1.52 0 1.52 1.56v.4c0 1.56 0 1.56-1.52 1.56h-35.12c-1.52 0-1.52 0-1.52-1.56v-.4c0-1.55 0-1.55 1.52-1.55zM323.92 275.02c0 3.12-2.56 5.72-5.76 5.72-3.12 0-5.68-2.6-5.68-5.72 0-3.12 2.56-5.72 5.68-5.72 3.2 0 5.76 2.6 5.76 5.72z" fill="#fff"/><path d="M321.6 275.02c0 1.95-1.6 3.5-3.52 3.5s-3.52-1.55-3.52-3.5 1.6-3.5 3.52-3.5 3.52 1.55 3.52 3.5z" fill="#54bbe7"/><path d="M266.48 211.58h27.84v1.95h-27.84v-1.95zM298.16 211.58H326v2.08h-27.84v-2.08zM329.76 211.7h9.92v1.96h-9.92v-1.95z" fill="gray"/><path d="M337.52 213.53h2.16v12.74h-2.16v-12.74zM337.6 229.65h2.16v26h-2.16v-26zM337.6 260.07h2.24v26h-2.24v-26zM337.68 289.7h2.24v26h-2.24v-26zM337.68 320h2.24v21.58h-2.24V320z" fill="gray"/><path d="M329.76 339.63h9.92v1.95h-9.92v-1.95zM297.44 339.63h27.84v1.95h-27.84v-1.95zM261.84 339.5h30.56v2.08h-30.56v-2.08zM260.08 211.58h2.24v26.13h-2.24V211.6zM260 241.87h2.24V268H260v-26.13zM260 271.9h2.24v26H260v-26zM260 301.4h2.24v26.14H260V301.4z" fill="gray"/><path d="M260.16 331.57h2.24v10h-2.24v-10z" fill="gray"/><use xlink:href="#m" transform="matrix(1,0,0,1,230,341.58) translate(26.944444444444443 18.111111111111114)"/><use xlink:href="#n" transform="matrix(1,0,0,1,230,341.58) translate(8.333333333333336 44.777777777777786)"/><use xlink:href="#o" transform="matrix(1,0,0,1,230,341.58) translate(57.65432098765432 44.777777777777786)"/><path d="M535.08 277.58H358.34v-2h176.74zm283.92 0H624.76v-2H819z" fill="#5e5e5e"/><path d="M823 277.58h-.76v-2h.76zm-3 0h-1.03v-2H820zM357.34 281.22l-14.26-4.64 14.26-4.64z" fill="#5e5e5e"/><path d="M358.34 282.6l-18.5-6.02 18.5-6zm-12.03-6.02l10.04 3.26v-6.52z" fill="#5e5e5e"/><use xlink:href="#p" transform="matrix(1,0,0,1,535.0804938271605,265.91333333333324) translate(0 14.222222222222223)"/><use xlink:href="#q" transform="matrix(1,0,0,1,535.0804938271605,265.91333333333324) translate(48.296296296296305 14.222222222222223)"/><path d="M515.42 321h-157v-2h157zM819 321H644.5v-2H819z" fill="#5e5e5e"/><path d="M823 321h-.76v-2h.76zm-3 0h-1.03v-2H820zM357.42 324.64L343.16 320l14.26-4.64z" fill="#5e5e5e"/><path d="M358.42 326l-18.5-6 18.5-6zm-12.03-6l10.02 3.26v-6.52z" fill="#5e5e5e"/><use xlink:href="#r" transform="matrix(1,0,0,1,515.4167901234567,309.3333333333333) translate(0 14.222222222222223)"/><use xlink:href="#q" transform="matrix(1,0,0,1,515.4167901234567,309.3333333333333) translate(87.7037037037037 14.222222222222223)"/><path d="M259 271.9h-63c-3.3 0-6 2.7-6 6v376.42c0 3.3 2.7 6 6 6h45.5" stroke="#5e5e5e" stroke-width="2" fill="none"/><path d="M263 272.9h-.76v-1H260v1h-1.03v-2H263z" fill="#5e5e5e"/><path d="M256.76 660.32l-14.26 4.64v-9.28z" stroke="#5e5e5e" stroke-width="2" fill="#5e5e5e"/><path d="M259 317.33h-33c-3.3 0-6 2.7-6 6V479c0 3.3 2.7 6 6 6h15.5" stroke="#5e5e5e" stroke-width="2" fill="none"/><path d="M260 318.33h-1.03v-2H260zm3 0h-.76v-2h.76z" fill="#5e5e5e"/><path d="M256.76 485l-14.26 4.64v-9.28z" stroke="#5e5e5e" stroke-width="2" fill="#5e5e5e"/><path d="M819.08 236.9H586c-3.3 0-6-2.67-6-6V131c0-3.3-2.7-6-6-6h-35.66" stroke="#5e5e5e" stroke-width="2" fill="none"/><path d="M823.08 237.9h-4.03v-2h1.03v1.8h2.24v-1.8h.76z" fill="#5e5e5e"/><path d="M523.08 125l14.26-4.64v9.28z" stroke="#5e5e5e" stroke-width="2" fill="#5e5e5e"/><path d="M548.53 565.84c0 2.76-2.26 5.04-5.1 5.04-2.8 0-5.04-2.28-5.04-5.04 0-2.88 2.24-5.16 5.02-5.16 2.85 0 5.1 2.28 5.1 5.16zM545.23 574.72c0 1.08-.77 1.8-1.8 1.8-.97 0-1.75-.72-1.75-1.8 0-.96.78-1.8 1.74-1.8 1.04 0 1.8.84 1.8 1.8zM536.3 565.84c0 .96-.77 1.8-1.8 1.8-.96 0-1.74-.84-1.74-1.8 0-1.08.78-1.8 1.73-1.8 1.03 0 1.8.84 1.8 1.8zM536.05 570.88c-.7.6-.7 1.8 0 2.64.26.36.87.6 1.13.6.6 0 .86-.24 1.2-.6.27-.24.62-.84.62-1.2 0-.6-.35-.84-.6-1.2-.62-.84-1.74-.84-2.35-.24zM537.26 561.4c.6 0 .87-.36 1.13-.72.34-.24.6-.84.6-1.08 0-.72-.26-.96-.6-1.2-.62-.6-1.74-.6-2.6 0-.7.6-.7 1.8 0 2.64.5.36.86.36 1.46.36zM519.67 614.92c0 2.4-2 4.44-4.5 4.44-2.43 0-4.42-2.04-4.42-4.44 0-2.4 2-4.44 4.4-4.44 2.53 0 4.52 1.92 4.52 4.44zM549.74 561.4c.6 0 .87-.36 1.13-.72.34-.24.7-.84.7-1.08 0-.72-.36-.96-.7-1.2-.6-.6-1.74-.6-2.6 0-.6.6-.6 1.8 0 2.64.52.36.86.36 1.47.36zM545.23 556.84c0 1.08-.77 1.8-1.8 1.8-.97 0-1.75-.72-1.75-1.8 0-.96.78-1.8 1.74-1.8 1.04 0 1.8.84 1.8 1.8z" stroke="#000" stroke-opacity="0" fill="#0078d7"/><path d="M547.05 600.28c-1.2 0-2.68.36-3.9.36-2.07 0-4.15-.36-6.23-.6l3.2-6.24c0-.36 0-.36.35-.6.6-.96.6-2.16.6-3.36 0-4.44-3.55-8.28-8.05-8.28-2.08 0-4.16.84-5.9 2.28l-7.2 7.2c-6.83-6.24-11.25-15.48-11.25-25.68 0-19.32 15.42-34.8 34.5-34.8 19.05 0 34.56 15.48 34.56 34.8 0 9-3.3 17.04-8.92 23.28h.27c6.58 0 13.43 1.44 17.6 4.44V523c0-1.56-1.23-3-2.96-3h-81c-1.5 0-2.6 1.2-2.6 3v104.4c0 1.56 1.1 3 2.6 3h44.35v-29.52-.6zM580.68 523c1.47 0 2.34 1.2 2.34 2.28 0 1.56-1.13 2.4-2.34 2.4-1.48 0-2.34-1.2-2.34-2.4-.1-1.44 1.12-2.28 2.34-2.28zm-77.4 2.28c0-1.44 1.14-2.28 2.35-2.28 1.22 0 2.34 1.2 2.34 2.28 0 1.56-1.12 2.4-2.34 2.4-1.12 0-2.34-.84-2.34-2.4zm20.55 94.68c-1.82 3-5.1 5.4-8.67 5.4-5.37 0-9.8-4.56-9.8-10.08 0-2.76 1.23-5.4 2.96-7.2l21.14-21.36c.87-.96 2.08-1.56 3.56-1.56 2.68 0 5.1 2.4 5.1 5.16 0 .84-.34 1.44-.6 2.28l-13.7 27.36z" stroke="#000" stroke-opacity="0" fill="#0078d7"/><path d="M548.18 570.88c-.6.6-.6 1.8 0 2.64.35.36.87.6 1.2.6.62 0 .88-.24 1.14-.6.35-.24.7-.84.7-1.2 0-.6-.35-.84-.7-1.2-.26-.84-1.4-.84-2.34-.24z" stroke="#000" stroke-opacity="0" fill="#0078d7"/><path d="M543.16 549.4c-8.93 0-16.04 7.44-16.04 16.44 0 8.88 7.1 16.32 16.04 16.32 9 0 16.37-7.44 16.37-16.32 0-9-7.45-16.44-16.37-16.44zm.34 29.52c-7.1 0-13.17-6-13.17-13.08 0-7.2 5.72-13.2 13.17-13.2 7.1 0 13.1 6 13.1 13.2 0 7.44-6 13.08-13.1 13.08z" stroke="#000" stroke-opacity="0" fill="#0078d7"/><path d="M553.9 565.84c0 .96-.78 1.8-1.82 1.8-.95 0-1.82-.84-1.82-1.8 0-1.08.87-1.8 1.82-1.8 1.04 0 1.82.84 1.82 1.8zM569.4 594.16c-9.52 0-17.23 3.24-17.23 6.84v32.16c0 3.6 7.7 6.84 17.24 6.84s17.26-3.24 17.26-6.84V601c0-3.24-7.72-6.84-17.25-6.84zm0 10.08c-6.83 0-12.2-1.8-12.2-3.84 0-2.16 5.37-3.96 12.2-3.96 6.86 0 12.23 1.8 12.23 3.96 0 2.04-5.37 3.84-12.22 3.84z" stroke="#000" stroke-opacity="0" fill="#0078d7"/><use xlink:href="#s" transform="matrix(1,0,0,1,470.00000000000006,649) translate(35.599999999999994 14.4)"/><use xlink:href="#t" transform="matrix(1,0,0,1,470.00000000000006,649) translate(24.225 36)"/><path d="M420.96 570.87l.72 2.64 1.77 1.8 2.65.7h55.48v2h-55.75l-3.4-.92-2.54-2.53-.94-3.42V524h2zm-3.45-85.95l2.54 2.53.92 3.42v11.8h-2v-11.54l-.7-2.64-1.8-1.8-2.63-.7h-73v-2h73.27z" fill="#5e5e5e"/><path d="M340.87 486h-1.03v-2h1.03zm-3.27 0h-.76v-2h.76zM496.85 577l-14.27 4.64v-9.28z" fill="#5e5e5e"/><path d="M500.1 577l-18.52 6v-12zm-16.52 3.26L493.6 577l-10.02-3.26z" fill="#5e5e5e"/><use xlink:href="#u" transform="matrix(1,0,0,1,366.4818470185186,502.6666666666667) translate(0 14.222222222222223)"/><use xlink:href="#v" transform="matrix(1,0,0,1,366.4818470185186,502.6666666666667) translate(48.93827160493827 14.222222222222223)"/><path d="M420.96 659.13l-.92 3.42-2.53 2.53-3.4.92h-73.26v-2h73l2.63-.7 1.78-1.8.7-2.63v-12.2h2zM481.58 578H426.1l-2.65.7-1.77 1.8-.72 2.63v42.2h-2v-42.46l.93-3.42 2.52-2.53 3.4-.92h55.76z" fill="#5e5e5e"/><path d="M340.87 666h-1.03v-2h1.03zm-3.27 0h-.76v-2h.76zM496.85 577l-14.27 4.64v-9.28z" fill="#5e5e5e"/><path d="M500.1 577l-18.52 6v-12zm-16.52 3.26L493.6 577l-10.02-3.26z" fill="#5e5e5e"/><use xlink:href="#u" transform="matrix(1,0,0,1,366.4818470185186,625.3333333333334) translate(0 14.222222222222223)"/><use xlink:href="#v" transform="matrix(1,0,0,1,366.4818470185186,625.3333333333334) translate(48.93827160493827 14.222222222222223)"/><path d="M543.95 514.3l.3.72-.3.7-.7.3-.72-.3-.3-.7.3-.7.7-.3zm0-3.97l.3.7-.3.7-.7.3-.72-.3-.3-.7.3-.7.7-.3zm0-3.98l.3.7-.3.7-.7.3-.72-.3-.3-.7.3-.7.7-.3zm0-4l.3.72-.3.7-.7.3-.72-.3-.3-.7.3-.7.7-.3zm0-3.97l.3.7-.3.7-.7.3-.72-.3-.3-.7.3-.7.7-.3zm0-3.98l.3.7-.3.7-.7.3-.72-.3-.3-.7.3-.7.7-.3zm0-3.98l.3.7-.3.7-.7.3-.72-.3-.3-.7.3-.7.7-.3zm0-4l.3.72-.3.7-.7.3-.72-.3-.3-.7.3-.7.7-.3zm0-3.97l.3.7-.3.72-.7.3-.72-.3-.3-.7.3-.72.7-.3zm0-3.98l.3.7-.3.7-.7.3-.72-.3-.3-.7.3-.7.7-.3zm0-3.98l.3.7-.3.7-.7.3-.72-.3-.3-.7.3-.7.7-.3zm0-4l.3.7-.3.72-.7.3-.72-.3-.3-.7.3-.72.7-.3zm0-3.98l.3.7-.3.72-.7.3-.72-.3-.3-.7.3-.72.7-.3zm0-3.98l.3.7-.3.7-.7.3-.72-.3-.3-.7.3-.7.7-.3zm0-3.98l.3.7-.3.7-.7.3-.72-.3-.3-.7.3-.7.7-.3zm0-4l.3.72-.3.7-.7.3-.72-.3-.3-.7.3-.7.7-.3zm0-3.97l.3.7-.3.7-.7.3-.72-.3-.3-.7.3-.7.7-.3zm0-4l.3.72-.3.7-.7.3-.72-.3-.3-.7.3-.7.7-.3zm0-3.97l.3.7-.3.7-.7.3-.72-.3-.3-.7.3-.7.7-.3zm0-4l.3.72-.3.7-.7.3-.72-.3-.3-.7.3-.7.7-.3zm0-3.97l.3.7-.3.72-.7.3-.72-.3-.3-.7.3-.72.7-.3zm0-23.9l.3.7-.3.72-.57.24h-.27l-.57-.24-.3-.7.3-.7.7-.3zm0-3.97l.3.7-.3.7-.7.3-.72-.3-.3-.7.3-.7.7-.3zm0-4l.3.7-.3.72-.7.3-.72-.3-.3-.7.3-.72.7-.3zm0-3.98l.3.7-.3.7-.7.3-.72-.3-.3-.7.3-.7.7-.3zm0-3.98l.3.7-.3.7-.7.3-.72-.3-.3-.7.3-.7.7-.3zm0-3.98l.3.7-.3.7-.7.3-.72-.3-.3-.7.3-.7.7-.3zm0-4l.3.72-.3.7-.7.3-.72-.3-.3-.7.3-.7.7-.3zm1.9-4.1l.3.72-.3.7-.7.3-.72-.3-.3-.7.3-.7.7-.3zm4.1-1.9l.3.72-.3.7-.7.3-.72-.3-.3-.7.3-.7.7-.3zm4.02 0l.3.72-.3.7-.7.3-.7-.3-.3-.7.3-.7.7-.3zm4.02 0l.3.72-.3.7-.7.3-.72-.3-.3-.7.3-.7.7-.3zm4.02 0l.3.72-.3.7-.7.3-.72-.3-.3-.7.3-.7.7-.3zm4.02 0l.3.72-.3.7-.7.3-.72-.3-.3-.7.3-.7.7-.3zm4.02 0l.3.72-.3.7-.7.3-.7-.3-.3-.7.3-.7.7-.3zm4.02 0l.3.72-.3.7-.7.3-.7-.3-.3-.7.3-.7.7-.3zm4.02 0l.3.72-.3.7-.7.3-.7-.3-.3-.7.3-.7.7-.3zm4.03 0l.3.72-.3.7-.7.3-.72-.3-.28-.7.3-.7.7-.3zm4.02 0l.3.72-.3.7-.7.3-.72-.3-.3-.7.3-.7.7-.3zm4.02 0l.3.72-.3.7-.7.3-.7-.3-.3-.7.3-.7.7-.3zm4.02 0l.3.72-.3.7-.7.3-.72-.3-.3-.7.3-.7.7-.3zm4.02 0l.3.72-.3.7-.7.3-.72-.3-.3-.7.3-.7.7-.3zm4.02 0l.3.72-.3.7-.7.3-.72-.3-.3-.7.3-.7.7-.3zm4.02 0l.3.72-.3.7-.7.3-.7-.3-.3-.7.3-.7.7-.3zm4.02 0l.3.72-.3.7-.7.3-.7-.3-.3-.7.3-.7.7-.3zm4.02 0l.3.72-.3.7-.7.3-.7-.3-.3-.7.3-.7.7-.3zm4.03 0l.3.72-.3.7-.7.3-.72-.3-.28-.7.3-.7.7-.3zm4.02 0l.3.72-.3.7-.7.3-.72-.3-.3-.7.3-.7.7-.3zm4.02 0l.3.72-.3.7-.7.3-.7-.3-.3-.7.3-.7.7-.3zm4.02 0l.3.72-.3.7-.7.3-.72-.3-.3-.7.3-.7.7-.3zm4.02 0l.3.72-.3.7-.7.3-.72-.3-.3-.7.3-.7.7-.3zm4.02 0l.3.72-.3.7-.7.3-.72-.3-.3-.7.3-.7.7-.3zm4.02 0l.3.72-.3.7-.7.3-.7-.3-.3-.7.3-.7.7-.3zm4.02 0l.3.72-.3.7-.7.3-.7-.3-.3-.7.3-.7.7-.3zm4.02 0l.3.72-.3.7-.7.3-.7-.3-.3-.7.3-.7.7-.3zm4.03 0l.3.72-.3.7-.7.3-.72-.3-.28-.7.3-.7.7-.3zm4.02 0l.3.72-.3.7-.7.3-.72-.3-.3-.7.3-.7.7-.3zm4.02 0l.3.72-.3.7-.7.3-.7-.3-.3-.7.3-.7.7-.3zm4.02 0l.3.72-.3.7-.7.3-.72-.3-.3-.7.3-.7.7-.3zm4.02 0l.3.72-.3.7-.7.3-.72-.3-.3-.7.3-.7.7-.3zm4.02 0l.3.72-.3.7-.7.3-.72-.3-.3-.7.3-.7.7-.3zm4.02 0l.3.72-.3.7-.7.3-.7-.3-.3-.7.3-.7.7-.3zm4.02 0l.3.72-.3.7-.7.3-.7-.3-.3-.7.3-.7.7-.3zm4.02 0l.3.72-.3.7-.7.3-.7-.3-.3-.7.3-.7.7-.3zm4.03 0l.3.72-.3.7-.7.3-.72-.3-.28-.7.3-.7.7-.3zm4.02 0l.3.72-.3.7-.7.3-.72-.3-.3-.7.3-.7.7-.3zm4.02 0l.3.72-.3.7-.7.3-.7-.3-.3-.7.3-.7.7-.3zm4.02 0l.3.72-.3.7-.7.3-.72-.3-.3-.7.3-.7.7-.3zm4.02 0l.3.72-.3.7-.7.3-.72-.3-.3-.7.3-.7.7-.3zm4.02 0l.3.72-.3.7-.7.3-.72-.3-.3-.7.3-.7.7-.3zm4.02 0l.3.72-.3.7-.7.3-.7-.3-.3-.7.3-.7.7-.3zm4.02 0l.3.72-.3.7-.7.3-.7-.3-.3-.7.3-.7.7-.3zm4.02 0l.3.72-.3.7-.7.3-.7-.3-.3-.7.3-.7.7-.3zm4.03 0l.3.72-.3.7-.7.3-.72-.3-.28-.7.3-.7.7-.3zm4.02 0l.3.72-.3.7-.7.3-.72-.3-.3-.7.3-.7.7-.3zm4.02 0l.3.72-.3.7-.7.3-.7-.3-.3-.7.3-.7.7-.3zm4.02 0l.3.72-.3.7-.7.3-.72-.3-.3-.7.3-.7.7-.3zm4.02 0l.3.72-.3.7-.7.3-.72-.3-.3-.7.3-.7.7-.3zm4.02 0l.3.72-.3.7-.7.3-.72-.3-.3-.7.3-.7.7-.3zm4.02 0l.3.72-.3.7-.7.3-.7-.3-.3-.7.3-.7.7-.3zm4.02 0l.3.72-.3.7-.7.3-.7-.3-.3-.7.3-.7.7-.3zm4.02 0l.3.72-.3.7-.7.3-.7-.3-.3-.7.3-.7.7-.3zm4.03 0l.3.72-.3.7-.7.3-.72-.3-.28-.7.3-.7.7-.3zm4.02 0l.3.72-.3.7-.7.3-.72-.3-.3-.7.3-.7.7-.3zm4.02 0l.3.72-.3.7-.7.3-.7-.3-.3-.7.3-.7.7-.3zm4.02 0l.3.72-.3.7-.7.3-.72-.3-.3-.7.3-.7.7-.3zm4.02 0l.3.72-.3.7-.7.3-.72-.3-.3-.7.3-.7.7-.3zm4.02 0l.3.72-.3.7-.7.3-.72-.3-.3-.7.3-.7.7-.3zm4.02 0l.3.72-.3.7-.7.3-.7-.3-.3-.7.3-.7.7-.3zm4.02 0l.3.72-.3.7-.7.3-.7-.3-.3-.7.3-.7.7-.3zm4.02 0l.3.72-.3.7-.7.3-.7-.3-.3-.7.3-.7.7-.3zm4.03 0l.3.72-.3.7-.7.3-.72-.3-.28-.7.3-.7.7-.3zm4.02 0l.3.72-.3.7-.7.3-.72-.3-.3-.7.3-.7.7-.3zm4.02 0l.3.72-.3.7-.7.3-.7-.3-.3-.7.3-.7.7-.3zm4.02 0l.3.72-.3.7-.7.3-.72-.3-.3-.7.3-.7.7-.3zm4.02 0l.3.72-.3.7-.7.3-.72-.3-.3-.7.3-.7.7-.3zm4.02 0l.3.72-.3.7-.7.3-.72-.3-.3-.7.3-.7.7-.3zm4.02 0l.3.72-.3.7-.7.3-.7-.3-.3-.7.3-.7.7-.3zm4.02 0l.3.72-.3.7-.7.3-.7-.3-.3-.7.3-.7.7-.3zm4.02 0l.3.72-.3.7-.7.3-.7-.3-.3-.7.3-.7.7-.3zm4.03 0l.3.72-.3.7-.7.3-.72-.3-.28-.7.3-.7.7-.3zm4.02 0l.3.72-.3.7-.7.3-.72-.3-.3-.7.3-.7.7-.3zm4.02 0l.3.72-.3.7-.7.3-.7-.3-.3-.7.3-.7.7-.3zm4.02 0l.3.72-.3.7-.7.3-.72-.3-.3-.7.3-.7.7-.3zm4.1-1.88l.3.7-.3.7-.7.3-.72-.3-.3-.7.3-.7.7-.3zm1.9-4.1l.3.7-.3.7-.7.3-.72-.3-.3-.7.3-.7.7-.3zm0-3.94l.3.7-.3.72-.7.3-.72-.3-.3-.7.3-.72.7-.3zm0-3.93l.3.72-.3.7-.7.3-.72-.3-.3-.7.3-.7.7-.3zm0-3.92l.3.7-.3.7-.7.3-.72-.3-.3-.7.3-.7.7-.3zm0-3.93l.3.7-.3.7-.7.3-.72-.3-.3-.7.3-.7.7-.3zm0-3.94l.3.72-.3.7-.7.3-.72-.3-.3-.7.3-.7.7-.3z" fill="#5e5e5e"/><path d="M857.52 354.92h-9.27l4.64-14.26z" fill="#5e5e5e"/><path d="M858.9 355.92h-12.03l6.02-18.5zm-9.27-2h6.52l-3.26-10.03zM544.24 520h-2v-1.03h2z" fill="#5e5e5e"/><use xlink:href="#w" transform="matrix(1,0,0,1,471.85910478091586,412.41849665881364) translate(0 14.222222222222223)"/><use xlink:href="#x" transform="matrix(1,0,0,1,471.85910478091586,412.41849665881364) translate(48.296296296296305 14.222222222222223)"/><use xlink:href="#y" transform="matrix(1,0,0,1,471.85910478091586,412.41849665881364) translate(84.74074074074076 14.222222222222223)"/><path d="M1113.9 309.42h11.06v8.2h-11.06v-8.2zM1156.04 217.08H1200v107.34h-43.96V217.08z" fill="#29aae1"/><path d="M1060.7 235.17h116.34v74.37H1060.7v-74.37z" fill="#29aae1"/><path d="M1066.02 239.7h106.12v66.5h-106.12v-66.5z" fill="#fff" fill-opacity=".98"/><path d="M1065.32 318.23h105.98l-5.18 17.73H1060l5.32-17.73z" fill="#29aae1"/><path d="M1064.62 317.63h108.5l9.1 18.45h-108.5l-9.1-18.44z" fill="#29aae1"/><path d="M1101.44 331.32h38.64v3.7h-38.64v-3.7zM1080.16 320.5h2.94v2.37h-2.94v-2.38zM1085.2 320.6h2.94v2.4h-2.94v-2.4zM1091.78 324.9h2.8v2.37h-2.8v-2.38zM1090.66 320.37h2.94v2.38h-2.94v-2.38zM1095.56 320.5h2.94v2.37h-2.94v-2.38zM1100.46 320.37h2.8v2.38h-2.8v-2.38zM1130.28 320.73h2.94v2.38h-2.94v-2.37zM1134.76 320.73h2.8v2.38h-2.8v-2.37zM1138.82 320.73h2.94v2.38h-2.94v-2.37zM1143.72 320.73h2.94v2.38h-2.94v-2.37zM1148.34 320.73h2.8v2.38h-2.8v-2.37zM1142.88 324.66h2.94v2.38h-2.94v-2.38zM1153.52 320.73h2.94v2.38h-2.94v-2.37zM1097.1 324.77h2.94v2.38h-2.94v-2.38zM1102.7 324.77h2.8v2.38h-2.8v-2.38zM1138.4 324.54h2.52v2.38h-2.52v-2.38zM1133.5 324.54h2.8v2.38h-2.8v-2.38zM1105.78 320.5h2.8v2.37h-2.8v-2.38zM1111.1 320.6h2.94v2.4h-2.94v-2.4zM1116.14 320.5h2.94v2.37h-2.94v-2.38zM1121.74 320.5h2.8v2.37h-2.8v-2.38zM1126.22 320.6h2.94v2.4h-2.94v-2.4zM1107.6 324.66h2.8v2.38h-2.8v-2.38zM1112.92 324.66h2.94v2.38h-2.94v-2.38zM1118.1 324.77h2.8v2.38h-2.8v-2.38zM1123 324.77h2.94v2.38H1123v-2.38zM1128.18 324.54h2.8v2.38h-2.8v-2.38z" fill="#fff"/><path d="M1060.14 335.96l122.08-.36-8.68-17.97-108.08.12-5.32 18.2z" fill="none"/><path d="M1187.12 222.67h7.84c.84 0 .84 0 .84.84s0 .84-.84.84h-7.84c-.84 0-.84 0-.84-.83s0-.83.84-.83zM1187.12 226.6h7.98c.7 0 .7 0 .7.7 0 .73 0 .73-.7.73h-7.98c-.84 0-.84 0-.84-.72 0-.7 0-.7.84-.7zM1156.18 233.98h21.14v.95h-21.14v-.95z" fill="#fff"/><path d="M1177.32 233.98h.98v75.8h-.98v-75.8z" fill="#fff"/><path d="M1156.04 309.66h22.12v1.07h-22.12v-1.07zM1156.18 315.73h16.94c.84 0 .84 0 .84.83 0 .96 0 .96-.84.96h-16.94c-.84 0-.84 0-.84-.96 0-.83 0-.83.84-.83z" fill="#fff"/><path d="M1173.82 315.97l4.76 8.2-1.4.84-4.62-8.32 1.26-.7zM1113.34 309.42h11.9v1.2h-11.9v-1.2zM1113.76 316.33h11.34v1.3h-11.34v-1.3z" fill="#fff"/><g><use xlink:href="#z" transform="matrix(1,0,0,1,1030,336.08) translate(71.69753086419753 19.444444444444443)"/></g><path d="M1042.2 276.58H918.34" stroke="#5e5e5e" stroke-width="2" fill="none"/><path d="M1057.46 276.58l-14.26 4.64v-9.28zM903.08 276.58l14.26-4.64v9.28z" stroke="#5e5e5e" stroke-width="2" fill="#5e5e5e"/><defs><path fill="#333" d="M197 0v-115H63V0H30v-248h33v105h134v-105h34V0h-34" id="A"/><path fill="#333" d="M127-220V0H93v-220H8v-28h204v28h-85" id="B"/><path fill="#333" d="M30-248c87 1 191-15 191 75 0 78-77 80-158 76V0H30v-248zm33 125c57 0 124 11 124-50 0-59-68-47-124-48v98" id="C"/><g id="a"><use transform="matrix(0.06172839506172839,0,0,0.06172839506172839,0,0)" xlink:href="#A"/><use transform="matrix(0.06172839506172839,0,0,0.06172839506172839,15.987654320987653,0)" xlink:href="#B"/><use transform="matrix(0.06172839506172839,0,0,0.06172839506172839,29.50617283950617,0)" xlink:href="#B"/><use transform="matrix(0.06172839506172839,0,0,0.06172839506172839,43.02469135802469,0)" xlink:href="#C"/></g><path fill="#333" d="M185-189c-5-48-123-54-124 2 14 75 158 14 163 119 3 78-121 87-175 55-17-10-28-26-33-46l33-7c5 56 141 63 141-1 0-78-155-14-162-118-5-82 145-84 179-34 5 7 8 16 11 25" id="D"/><path fill="#333" d="M100-194c63 0 86 42 84 106H49c0 40 14 67 53 68 26 1 43-12 49-29l28 8c-11 28-37 45-77 45C44 4 14-33 15-96c1-61 26-98 85-98zm52 81c6-60-76-77-97-28-3 7-6 17-6 28h103" id="E"/><path fill="#333" d="M114-163C36-179 61-72 57 0H25l-1-190h30c1 12-1 29 2 39 6-27 23-49 58-41v29" id="F"/><path fill="#333" d="M108 0H70L1-190h34L89-25l56-165h34" id="G"/><path fill="#333" d="M24-231v-30h32v30H24zM24 0v-190h32V0H24" id="H"/><path fill="#333" d="M96-169c-40 0-48 33-48 73s9 75 48 75c24 0 41-14 43-38l32 2c-6 37-31 61-74 61-59 0-76-41-82-99-10-93 101-131 147-64 4 7 5 14 7 22l-32 3c-4-21-16-35-41-35" id="I"/><g id="b"><use transform="matrix(0.06172839506172839,0,0,0.06172839506172839,0,0)" xlink:href="#D"/><use transform="matrix(0.06172839506172839,0,0,0.06172839506172839,14.814814814814813,0)" xlink:href="#E"/><use transform="matrix(0.06172839506172839,0,0,0.06172839506172839,27.160493827160494,0)" xlink:href="#F"/><use transform="matrix(0.06172839506172839,0,0,0.06172839506172839,34.50617283950617,0)" xlink:href="#G"/><use transform="matrix(0.06172839506172839,0,0,0.06172839506172839,45.61728395061728,0)" xlink:href="#H"/><use transform="matrix(0.06172839506172839,0,0,0.06172839506172839,50.49382716049382,0)" xlink:href="#I"/><use transform="matrix(0.06172839506172839,0,0,0.06172839506172839,61.60493827160494,0)" xlink:href="#E"/></g><path fill="#333" d="M84 4C-5 8 30-112 23-190h32v120c0 31 7 50 39 49 72-2 45-101 50-169h31l1 190h-30c-1-10 1-25-2-33-11 22-28 36-60 37" id="J"/><path fill="#333" d="M115-194c53 0 69 39 70 98 0 66-23 100-70 100C84 3 66-7 56-30L54 0H23l1-261h32v101c10-23 28-34 59-34zm-8 174c40 0 45-34 45-75 0-40-5-75-45-74-42 0-51 32-51 76 0 43 10 73 51 73" id="K"/><path fill="#333" d="M24 0v-261h32V0H24" id="L"/><g id="c"><use transform="matrix(0.06172839506172839,0,0,0.06172839506172839,0,0)" xlink:href="#C"/><use transform="matrix(0.06172839506172839,0,0,0.06172839506172839,14.814814814814813,0)" xlink:href="#J"/><use transform="matrix(0.06172839506172839,0,0,0.06172839506172839,27.160493827160494,0)" xlink:href="#K"/><use transform="matrix(0.06172839506172839,0,0,0.06172839506172839,39.50617283950617,0)" xlink:href="#L"/><use transform="matrix(0.06172839506172839,0,0,0.06172839506172839,44.382716049382715,0)" xlink:href="#H"/><use transform="matrix(0.06172839506172839,0,0,0.06172839506172839,49.25925925925926,0)" xlink:href="#I"/></g><path fill="#333" d="M33 0v-248h34V0H33" id="M"/><path fill="#333" d="M117-194c89-4 53 116 60 194h-32v-121c0-31-8-49-39-48C34-167 62-67 57 0H25l-1-190h30c1 10-1 24 2 32 11-22 29-35 61-36" id="N"/><path fill="#333" d="M59-47c-2 24 18 29 38 22v24C64 9 27 4 27-40v-127H5v-23h24l9-43h21v43h35v23H59v120" id="O"/><g id="d"><use transform="matrix(0.06172839506172839,0,0,0.06172839506172839,0,0)" xlink:href="#M"/><use transform="matrix(0.06172839506172839,0,0,0.06172839506172839,6.172839506172839,0)" xlink:href="#N"/><use transform="matrix(0.06172839506172839,0,0,0.06172839506172839,18.51851851851852,0)" xlink:href="#O"/><use transform="matrix(0.06172839506172839,0,0,0.06172839506172839,24.691358024691358,0)" xlink:href="#E"/><use transform="matrix(0.06172839506172839,0,0,0.06172839506172839,37.03703703703704,0)" xlink:href="#F"/><use transform="matrix(0.06172839506172839,0,0,0.06172839506172839,44.382716049382715,0)" xlink:href="#N"/><use transform="matrix(0.06172839506172839,0,0,0.06172839506172839,56.72839506172839,0)" xlink:href="#E"/><use transform="matrix(0.06172839506172839,0,0,0.06172839506172839,69.07407407407408,0)" xlink:href="#O"/></g><path fill="#333" d="M141-36C126-15 110 5 73 4 37 3 15-17 15-53c-1-64 63-63 125-63 3-35-9-54-41-54-24 1-41 7-42 31l-33-3c5-37 33-52 76-52 45 0 72 20 72 64v82c-1 20 7 32 28 27v20c-31 9-61-2-59-35zM48-53c0 20 12 33 32 33 41-3 63-29 60-74-43 2-92-5-92 41" id="P"/><g id="e"><use transform="matrix(0.06172839506172839,0,0,0.06172839506172839,0,0)" xlink:href="#M"/><use transform="matrix(0.06172839506172839,0,0,0.06172839506172839,6.172839506172839,0)" xlink:href="#N"/><use transform="matrix(0.06172839506172839,0,0,0.06172839506172839,18.51851851851852,0)" xlink:href="#O"/><use transform="matrix(0.06172839506172839,0,0,0.06172839506172839,24.691358024691358,0)" xlink:href="#E"/><use transform="matrix(0.06172839506172839,0,0,0.06172839506172839,37.03703703703704,0)" xlink:href="#F"/><use transform="matrix(0.06172839506172839,0,0,0.06172839506172839,44.382716049382715,0)" xlink:href="#N"/><use transform="matrix(0.06172839506172839,0,0,0.06172839506172839,56.72839506172839,0)" xlink:href="#P"/><use transform="matrix(0.06172839506172839,0,0,0.06172839506172839,69.07407407407408,0)" xlink:href="#L"/></g><path fill="#333" d="M30-248c118-7 216 8 213 122C240-48 200 0 122 0H30v-248zM63-27c89 8 146-16 146-99s-60-101-146-95v194" id="Q"/><path fill="#333" d="M100-194c62-1 85 37 85 99 1 63-27 99-86 99S16-35 15-95c0-66 28-99 85-99zM99-20c44 1 53-31 53-75 0-43-8-75-51-75s-53 32-53 75 10 74 51 75" id="R"/><path fill="#333" d="M143 0L79-87 56-68V0H24v-261h32v163l83-92h37l-77 82L181 0h-38" id="S"/><g id="f"><use transform="matrix(0.06172839506172839,0,0,0.06172839506172839,0,0)" xlink:href="#Q"/><use transform="matrix(0.06172839506172839,0,0,0.06172839506172839,15.987654320987653,0)" xlink:href="#R"/><use transform="matrix(0.06172839506172839,0,0,0.06172839506172839,28.333333333333332,0)" xlink:href="#I"/><use transform="matrix(0.06172839506172839,0,0,0.06172839506172839,39.44444444444444,0)" xlink:href="#S"/><use transform="matrix(0.06172839506172839,0,0,0.06172839506172839,50.55555555555556,0)" xlink:href="#E"/><use transform="matrix(0.06172839506172839,0,0,0.06172839506172839,62.901234567901234,0)" xlink:href="#F"/></g><path fill="#333" d="M190 0L58-211 59 0H30v-248h39L202-35l-2-213h31V0h-41" id="T"/><path fill="#333" d="M206 0h-36l-40-164L89 0H53L-1-190h32L70-26l43-164h34l41 164 42-164h31" id="U"/><g id="g"><use transform="matrix(0.06172839506172839,0,0,0.06172839506172839,0,0)" xlink:href="#T"/><use transform="matrix(0.06172839506172839,0,0,0.06172839506172839,15.987654320987653,0)" xlink:href="#E"/><use transform="matrix(0.06172839506172839,0,0,0.06172839506172839,28.333333333333332,0)" xlink:href="#O"/><use transform="matrix(0.06172839506172839,0,0,0.06172839506172839,34.50617283950617,0)" xlink:href="#U"/><use transform="matrix(0.06172839506172839,0,0,0.06172839506172839,50.49382716049382,0)" xlink:href="#R"/><use transform="matrix(0.06172839506172839,0,0,0.06172839506172839,62.8395061728395,0)" xlink:href="#F"/><use transform="matrix(0.06172839506172839,0,0,0.06172839506172839,70.18518518518518,0)" xlink:href="#S"/></g><path fill="#333" d="M160-131c35 5 61 23 61 61C221 17 115-2 30 0v-248c76 3 177-17 177 60 0 33-19 50-47 57zm-97-11c50-1 110 9 110-42 0-47-63-36-110-37v79zm0 115c55-2 124 14 124-45 0-56-70-42-124-44v89" id="V"/><path fill="#333" d="M135-143c-3-34-86-38-87 0 15 53 115 12 119 90S17 21 10-45l28-5c4 36 97 45 98 0-10-56-113-15-118-90-4-57 82-63 122-42 12 7 21 19 24 35" id="W"/><g id="h"><use transform="matrix(0.06172839506172839,0,0,0.06172839506172839,0,0)" xlink:href="#V"/><use transform="matrix(0.06172839506172839,0,0,0.06172839506172839,14.814814814814813,0)" xlink:href="#L"/><use transform="matrix(0.06172839506172839,0,0,0.06172839506172839,19.691358024691354,0)" xlink:href="#P"/><use transform="matrix(0.06172839506172839,0,0,0.06172839506172839,32.03703703703703,0)" xlink:href="#W"/><use transform="matrix(0.06172839506172839,0,0,0.06172839506172839,43.14814814814814,0)" xlink:href="#O"/></g><path fill="#333" d="M63-220v92h138v28H63V0H30v-248h175v28H63" id="X"/><path fill="#333" d="M210-169c-67 3-38 105-44 169h-31v-121c0-29-5-50-35-48C34-165 62-65 56 0H25l-1-190h30c1 10-1 24 2 32 10-44 99-50 107 0 11-21 27-35 58-36 85-2 47 119 55 194h-31v-121c0-29-5-49-35-48" id="Y"/><g id="i"><use transform="matrix(0.06172839506172839,0,0,0.06172839506172839,0,0)" xlink:href="#X"/><use transform="matrix(0.06172839506172839,0,0,0.06172839506172839,13.518518518518517,0)" xlink:href="#R"/><use transform="matrix(0.06172839506172839,0,0,0.06172839506172839,25.864197530864196,0)" xlink:href="#F"/><use transform="matrix(0.06172839506172839,0,0,0.06172839506172839,33.20987654320987,0)" xlink:href="#Y"/><use transform="matrix(0.06172839506172839,0,0,0.06172839506172839,51.66666666666666,0)" xlink:href="#P"/><use transform="matrix(0.06172839506172839,0,0,0.06172839506172839,64.01234567901234,0)" xlink:href="#O"/><use transform="matrix(0.06172839506172839,0,0,0.06172839506172839,70.18518518518518,0)" xlink:href="#O"/><use transform="matrix(0.06172839506172839,0,0,0.06172839506172839,76.35802469135801,0)" xlink:href="#E"/><use transform="matrix(0.06172839506172839,0,0,0.06172839506172839,88.7037037037037,0)" xlink:href="#F"/></g><path fill="#333" d="M137 0h-34L2-248h35l83 218 83-218h36" id="Z"/><path fill="#333" d="M85-194c31 0 48 13 60 33l-1-100h32l1 261h-30c-2-10 0-23-3-31C134-8 116 4 85 4 32 4 16-35 15-94c0-66 23-100 70-100zm9 24c-40 0-46 34-46 75 0 40 6 74 45 74 42 0 51-32 51-76 0-42-9-74-50-73" id="aa"/><g id="j"><use transform="matrix(0.06172839506172839,0,0,0.06172839506172839,0,0)" xlink:href="#Z"/><use transform="matrix(0.06172839506172839,0,0,0.06172839506172839,13.148148148148147,0)" xlink:href="#P"/><use transform="matrix(0.06172839506172839,0,0,0.06172839506172839,25.493827160493826,0)" xlink:href="#L"/><use transform="matrix(0.06172839506172839,0,0,0.06172839506172839,30.370370370370367,0)" xlink:href="#H"/><use transform="matrix(0.06172839506172839,0,0,0.06172839506172839,35.24691358024691,0)" xlink:href="#aa"/><use transform="matrix(0.06172839506172839,0,0,0.06172839506172839,47.59259259259259,0)" xlink:href="#P"/><use transform="matrix(0.06172839506172839,0,0,0.06172839506172839,59.938271604938265,0)" xlink:href="#O"/><use transform="matrix(0.06172839506172839,0,0,0.06172839506172839,66.1111111111111,0)" xlink:href="#R"/><use transform="matrix(0.06172839506172839,0,0,0.06172839506172839,78.45679012345678,0)" xlink:href="#F"/></g><path d="M63-220v92h138v28H63V0H30v-248h175v28H63" id="ab"/><path d="M24-231v-30h32v30H24zM24 0v-190h32V0H24" id="ac"/><path d="M114-163C36-179 61-72 57 0H25l-1-190h30c1 12-1 29 2 39 6-27 23-49 58-41v29" id="ad"/><path d="M100-194c63 0 86 42 84 106H49c0 40 14 67 53 68 26 1 43-12 49-29l28 8c-11 28-37 45-77 45C44 4 14-33 15-96c1-61 26-98 85-98zm52 81c6-60-76-77-97-28-3 7-6 17-6 28h103" id="ae"/><path d="M206 0h-36l-40-164L89 0H53L-1-190h32L70-26l43-164h34l41 164 42-164h31" id="af"/><path d="M100-194c62-1 85 37 85 99 1 63-27 99-86 99S16-35 15-95c0-66 28-99 85-99zM99-20c44 1 53-31 53-75 0-43-8-75-51-75s-53 32-53 75 10 74 51 75" id="ag"/><path d="M145-31C134-9 116 4 85 4 32 4 16-35 15-94c0-59 17-99 70-100 32-1 48 14 60 33 0-11-1-24 2-32h30l-1 268h-32zM93-21c41 0 51-33 51-76s-8-73-50-73c-40 0-46 35-46 75s5 74 45 74" id="ah"/><g id="k"><use transform="matrix(0.05,0,0,0.05,0,0)" xlink:href="#ab"/><use transform="matrix(0.05,0,0,0.05,10.950000000000001,0)" xlink:href="#ac"/><use transform="matrix(0.05,0,0,0.05,14.9,0)" xlink:href="#ad"/><use transform="matrix(0.05,0,0,0.05,20.85,0)" xlink:href="#ae"/><use transform="matrix(0.05,0,0,0.05,30.85,0)" xlink:href="#af"/><use transform="matrix(0.05,0,0,0.05,43.800000000000004,0)" xlink:href="#ag"/><use transform="matrix(0.05,0,0,0.05,53.800000000000004,0)" xlink:href="#ad"/><use transform="matrix(0.05,0,0,0.05,59.75,0)" xlink:href="#ah"/></g><path d="M30-248c118-7 216 8 213 122C240-48 200 0 122 0H30v-248zM63-27c89 8 146-16 146-99s-60-101-146-95v194" id="ai"/><path d="M160-131c35 5 61 23 61 61C221 17 115-2 30 0v-248c76 3 177-17 177 60 0 33-19 50-47 57zm-97-11c50-1 110 9 110-42 0-47-63-36-110-37v79zm0 115c55-2 124 14 124-45 0-56-70-42-124-44v89" id="aj"/><g id="l"><use transform="matrix(0.05,0,0,0.05,0,0)" xlink:href="#ai"/><use transform="matrix(0.05,0,0,0.05,12.950000000000001,0)" xlink:href="#aj"/></g><path fill="#333" d="M145-31C134-9 116 4 85 4 32 4 16-35 15-94c0-59 17-99 70-100 32-1 48 14 60 33 0-11-1-24 2-32h30l-1 268h-32zM93-21c41 0 51-33 51-76s-8-73-50-73c-40 0-46 35-46 75s5 74 45 74" id="ak"/><g id="m"><use transform="matrix(0.06172839506172839,0,0,0.06172839506172839,0,0)" xlink:href="#X"/><use transform="matrix(0.06172839506172839,0,0,0.06172839506172839,13.518518518518517,0)" xlink:href="#H"/><use transform="matrix(0.06172839506172839,0,0,0.06172839506172839,18.39506172839506,0)" xlink:href="#F"/><use transform="matrix(0.06172839506172839,0,0,0.06172839506172839,25.74074074074074,0)" xlink:href="#E"/><use transform="matrix(0.06172839506172839,0,0,0.06172839506172839,38.08641975308642,0)" xlink:href="#U"/><use transform="matrix(0.06172839506172839,0,0,0.06172839506172839,54.07407407407407,0)" xlink:href="#R"/><use transform="matrix(0.06172839506172839,0,0,0.06172839506172839,66.41975308641975,0)" xlink:href="#F"/><use transform="matrix(0.06172839506172839,0,0,0.06172839506172839,73.76543209876543,0)" xlink:href="#ak"/></g><path fill="#333" d="M87 75C49 33 22-17 22-94c0-76 28-126 65-167h31c-38 41-64 92-64 168S80 34 118 75H87" id="al"/><path fill="#333" d="M153-248C145-148 188 4 80 4 36 3 13-21 6-62l32-5c4 25 16 42 43 43 27 0 39-20 39-49v-147H72v-28h81" id="am"/><g id="n"><use transform="matrix(0.06172839506172839,0,0,0.06172839506172839,0,0)" xlink:href="#al"/><use transform="matrix(0.06172839506172839,0,0,0.06172839506172839,7.345679012345679,0)" xlink:href="#am"/><use transform="matrix(0.06172839506172839,0,0,0.06172839506172839,18.45679012345679,0)" xlink:href="#R"/><use transform="matrix(0.06172839506172839,0,0,0.06172839506172839,30.80246913580247,0)" xlink:href="#K"/></g><path fill="#333" d="M140-251c81 0 123 46 123 126C263-53 228-8 163 1c7 30 30 48 69 40v23c-55 16-95-15-103-61C56-3 17-48 17-125c0-80 42-126 123-126zm0 227c63 0 89-41 89-101s-29-99-89-99c-61 0-89 39-89 99S79-25 140-24" id="an"/><path fill="#333" d="M33-261c38 41 65 92 65 168S71 34 33 75H2C39 34 66-17 66-93S39-220 2-261h31" id="ao"/><g id="o"><use transform="matrix(0.06172839506172839,0,0,0.06172839506172839,0,0)" xlink:href="#an"/><use transform="matrix(0.06172839506172839,0,0,0.06172839506172839,17.28395061728395,0)" xlink:href="#J"/><use transform="matrix(0.06172839506172839,0,0,0.06172839506172839,29.629629629629626,0)" xlink:href="#E"/><use transform="matrix(0.06172839506172839,0,0,0.06172839506172839,41.9753086419753,0)" xlink:href="#J"/><use transform="matrix(0.06172839506172839,0,0,0.06172839506172839,54.32098765432098,0)" xlink:href="#E"/><use transform="matrix(0.06172839506172839,0,0,0.06172839506172839,66.66666666666666,0)" xlink:href="#ao"/></g><path fill="#333" d="M182-130c37 4 62 22 62 59C244 23 116-4 24 0v-248c84 5 203-23 205 63 0 31-19 50-47 55zM76-148c40-3 101 13 101-30 0-44-60-28-101-31v61zm0 110c48-3 116 14 116-37 0-48-69-32-116-35v72" id="ap"/><path fill="#333" d="M25 0v-261h50V0H25" id="aq"/><path fill="#333" d="M133-34C117-15 103 5 69 4 32 3 11-16 11-54c-1-60 55-63 116-61 1-26-3-47-28-47-18 1-26 9-28 27l-52-2c7-38 36-58 82-57s74 22 75 68l1 82c-1 14 12 18 25 15v27c-30 8-71 5-69-32zm-48 3c29 0 43-24 42-57-32 0-66-3-65 30 0 17 8 27 23 27" id="ar"/><path fill="#333" d="M137-138c1-29-70-34-71-4 15 46 118 7 119 86 1 83-164 76-172 9l43-7c4 19 20 25 44 25 33 8 57-30 24-41C81-84 22-81 20-136c-2-80 154-74 161-7" id="as"/><path fill="#333" d="M115-3C79 11 28 4 28-45v-112H4v-33h27l15-45h31v45h36v33H77v99c-1 23 16 31 38 25v30" id="at"/><g id="p"><use transform="matrix(0.04938271604938272,0,0,0.04938271604938272,0,0)" xlink:href="#ap"/><use transform="matrix(0.04938271604938272,0,0,0.04938271604938272,12.790123456790125,0)" xlink:href="#aq"/><use transform="matrix(0.04938271604938272,0,0,0.04938271604938272,17.7283950617284,0)" xlink:href="#ar"/><use transform="matrix(0.04938271604938272,0,0,0.04938271604938272,27.604938271604947,0)" xlink:href="#as"/><use transform="matrix(0.04938271604938272,0,0,0.04938271604938272,37.48148148148149,0)" xlink:href="#at"/></g><path fill="#333" d="M176-78C186 10 51 31 16-35c-5-9-9-19-11-32l52-8c4 21 12 37 35 38 23 0 32-16 32-40v-130H75v-41h101v170" id="au"/><path fill="#333" d="M110-194c64 0 96 36 96 99 0 64-35 99-97 99-61 0-95-36-95-99 0-62 34-99 96-99zm-1 164c35 0 45-28 45-65 0-40-10-65-43-65-34 0-45 26-45 65 0 36 10 65 43 65" id="av"/><path fill="#333" d="M135-194c52 0 70 43 70 98 0 56-19 99-73 100-30 1-46-15-58-35L72 0H24l1-261h50v104c11-23 29-37 60-37zM114-30c31 0 40-27 40-66 0-37-7-63-39-63s-41 28-41 65c0 36 8 64 40 64" id="aw"/><g id="q"><use transform="matrix(0.04938271604938272,0,0,0.04938271604938272,0,0)" xlink:href="#au"/><use transform="matrix(0.04938271604938272,0,0,0.04938271604938272,9.876543209876544,0)" xlink:href="#av"/><use transform="matrix(0.04938271604938272,0,0,0.04938271604938272,20.69135802469136,0)" xlink:href="#aw"/><use transform="matrix(0.04938271604938272,0,0,0.04938271604938272,31.506172839506174,0)" xlink:href="#as"/></g><path fill="#333" d="M76-208v77h127v40H76V0H24v-248h183v40H76" id="ax"/><path fill="#333" d="M135-150c-39-12-60 13-60 57V0H25l-1-190h47c2 13-1 29 3 40 6-28 27-53 61-41v41" id="ay"/><path fill="#333" d="M220-157c-53 9-28 100-34 157h-49v-107c1-27-5-49-29-50C55-147 81-57 75 0H25l-1-190h47c2 12-1 28 3 38 10-53 101-56 108 0 13-22 24-43 59-42 82 1 51 116 57 194h-49v-107c-1-25-5-48-29-50" id="az"/><path fill="#333" d="M185-48c-13 30-37 53-82 52C43 2 14-33 14-96s30-98 90-98c62 0 83 45 84 108H66c0 31 8 55 39 56 18 0 30-7 34-22zm-45-69c5-46-57-63-70-21-2 6-4 13-4 21h74" id="aA"/><g id="r"><use transform="matrix(0.04938271604938272,0,0,0.04938271604938272,0,0)" xlink:href="#ax"/><use transform="matrix(0.04938271604938272,0,0,0.04938271604938272,10.814814814814815,0)" xlink:href="#av"/><use transform="matrix(0.04938271604938272,0,0,0.04938271604938272,21.62962962962963,0)" xlink:href="#ay"/><use transform="matrix(0.04938271604938272,0,0,0.04938271604938272,28.543209876543205,0)" xlink:href="#az"/><use transform="matrix(0.04938271604938272,0,0,0.04938271604938272,44.34567901234568,0)" xlink:href="#ar"/><use transform="matrix(0.04938271604938272,0,0,0.04938271604938272,54.22222222222223,0)" xlink:href="#at"/><use transform="matrix(0.04938271604938272,0,0,0.04938271604938272,60.09876543209877,0)" xlink:href="#at"/><use transform="matrix(0.04938271604938272,0,0,0.04938271604938272,65.9753086419753,0)" xlink:href="#aA"/><use transform="matrix(0.04938271604938272,0,0,0.04938271604938272,75.85185185185185,0)" xlink:href="#ay"/></g><path d="M240 0l2-218c-23 76-54 145-80 218h-23L58-218 59 0H30v-248h44l77 211c21-75 51-140 76-211h43V0h-30" id="aB"/><path d="M84 4C-5 8 30-112 23-190h32v120c0 31 7 50 39 49 72-2 45-101 50-169h31l1 190h-30c-1-10 1-25-2-33-11 22-28 36-60 37" id="aC"/><path d="M24 0v-261h32V0H24" id="aD"/><path d="M59-47c-2 24 18 29 38 22v24C64 9 27 4 27-40v-127H5v-23h24l9-43h21v43h35v23H59v120" id="aE"/><path d="M115-194c53 0 69 39 70 98 0 66-23 100-70 100C84 3 66-7 56-30L54 0H23l1-261h32v101c10-23 28-34 59-34zm-8 174c40 0 45-34 45-75 0-40-5-75-45-74-42 0-51 32-51 76 0 43 10 73 51 73" id="aF"/><path d="M141-36C126-15 110 5 73 4 37 3 15-17 15-53c-1-64 63-63 125-63 3-35-9-54-41-54-24 1-41 7-42 31l-33-3c5-37 33-52 76-52 45 0 72 20 72 64v82c-1 20 7 32 28 27v20c-31 9-61-2-59-35zM48-53c0 20 12 33 32 33 41-3 63-29 60-74-43 2-92-5-92 41" id="aG"/><path d="M135-143c-3-34-86-38-87 0 15 53 115 12 119 90S17 21 10-45l28-5c4 36 97 45 98 0-10-56-113-15-118-90-4-57 82-63 122-42 12 7 21 19 24 35" id="aH"/><g id="s"><use transform="matrix(0.05,0,0,0.05,0,0)" xlink:href="#aB"/><use transform="matrix(0.05,0,0,0.05,14.950000000000001,0)" xlink:href="#aC"/><use transform="matrix(0.05,0,0,0.05,24.950000000000003,0)" xlink:href="#aD"/><use transform="matrix(0.05,0,0,0.05,28.900000000000002,0)" xlink:href="#aE"/><use transform="matrix(0.05,0,0,0.05,33.900000000000006,0)" xlink:href="#ac"/><use transform="matrix(0.05,0,0,0.05,37.85000000000001,0)" xlink:href="#aF"/><use transform="matrix(0.05,0,0,0.05,47.85000000000001,0)" xlink:href="#aD"/><use transform="matrix(0.05,0,0,0.05,51.80000000000001,0)" xlink:href="#aG"/><use transform="matrix(0.05,0,0,0.05,61.80000000000001,0)" xlink:href="#aH"/><use transform="matrix(0.05,0,0,0.05,70.80000000000001,0)" xlink:href="#aE"/></g><path d="M266 0h-40l-56-210L115 0H75L2-248h35L96-30l15-64 43-154h32l59 218 59-218h35" id="aI"/><path d="M143 0L79-87 56-68V0H24v-261h32v163l83-92h37l-77 82L181 0h-38" id="aJ"/><path d="M115-194c55 1 70 41 70 98S169 2 115 4C84 4 66-9 55-30l1 105H24l-1-265h31l2 30c10-21 28-34 59-34zm-8 174c40 0 45-34 45-75s-6-73-45-74c-42 0-51 32-51 76 0 43 10 73 51 73" id="aK"/><path d="M96-169c-40 0-48 33-48 73s9 75 48 75c24 0 41-14 43-38l32 2c-6 37-31 61-74 61-59 0-76-41-82-99-10-93 101-131 147-64 4 7 5 14 7 22l-32 3c-4-21-16-35-41-35" id="aL"/><g id="t"><use transform="matrix(0.05,0,0,0.05,0,0)" xlink:href="#aI"/><use transform="matrix(0.05,0,0,0.05,16.599999999999998,0)" xlink:href="#ag"/><use transform="matrix(0.05,0,0,0.05,26.599999999999994,0)" xlink:href="#ad"/><use transform="matrix(0.05,0,0,0.05,32.55,0)" xlink:href="#aJ"/><use transform="matrix(0.05,0,0,0.05,41.55,0)" xlink:href="#aH"/><use transform="matrix(0.05,0,0,0.05,50.55,0)" xlink:href="#aK"/><use transform="matrix(0.05,0,0,0.05,60.54999999999999,0)" xlink:href="#aG"/><use transform="matrix(0.05,0,0,0.05,70.55,0)" xlink:href="#aL"/><use transform="matrix(0.05,0,0,0.05,79.55,0)" xlink:href="#ae"/><use transform="matrix(0.05,0,0,0.05,89.55,0)" xlink:href="#aH"/></g><path fill="#333" d="M275 0h-61l-44-196L126 0H64L0-248h53L97-49l45-199h58l43 199 44-199h52" id="aM"/><path fill="#333" d="M25-224v-37h50v37H25zM25 0v-190h50V0H25" id="aN"/><g id="u"><use transform="matrix(0.04938271604938272,0,0,0.04938271604938272,0,0)" xlink:href="#aM"/><use transform="matrix(0.04938271604938272,0,0,0.04938271604938272,16.39506172839506,0)" xlink:href="#ay"/><use transform="matrix(0.04938271604938272,0,0,0.04938271604938272,23.30864197530864,0)" xlink:href="#aN"/><use transform="matrix(0.04938271604938272,0,0,0.04938271604938272,28.24691358024691,0)" xlink:href="#at"/><use transform="matrix(0.04938271604938272,0,0,0.04938271604938272,34.123456790123456,0)" xlink:href="#aA"/></g><path fill="#333" d="M140-251c80 0 125 45 125 126S219 4 139 4C58 4 15-44 15-125s44-126 125-126zm-1 214c52 0 73-35 73-88 0-50-21-86-72-86-52 0-73 35-73 86s22 88 72 88" id="aO"/><path fill="#333" d="M85 4C-2 5 27-109 22-190h50c7 57-23 150 33 157 60-5 35-97 40-157h50l1 190h-47c-2-12 1-28-3-38-12 25-28 42-61 42" id="aP"/><path fill="#333" d="M135-194c53 0 70 44 70 98 0 56-19 98-73 100-31 1-45-17-59-34 3 33 2 69 2 105H25l-1-265h48c2 10 0 23 3 31 11-24 29-35 60-35zM114-30c33 0 39-31 40-66 0-38-9-64-40-64-56 0-55 130 0 130" id="aQ"/><g id="v"><use transform="matrix(0.04938271604938272,0,0,0.04938271604938272,0,0)" xlink:href="#aO"/><use transform="matrix(0.04938271604938272,0,0,0.04938271604938272,13.827160493827162,0)" xlink:href="#aP"/><use transform="matrix(0.04938271604938272,0,0,0.04938271604938272,24.641975308641975,0)" xlink:href="#at"/><use transform="matrix(0.04938271604938272,0,0,0.04938271604938272,30.518518518518523,0)" xlink:href="#aQ"/><use transform="matrix(0.04938271604938272,0,0,0.04938271604938272,41.333333333333336,0)" xlink:href="#aP"/><use transform="matrix(0.04938271604938272,0,0,0.04938271604938272,52.14814814814815,0)" xlink:href="#at"/></g><path fill="#333" d="M240-174c0 40-23 61-54 70L253 0h-59l-57-94H76V0H24v-248c93 4 217-23 216 74zM76-134c48-2 112 12 112-38 0-48-66-32-112-35v73" id="aR"/><path fill="#333" d="M88-194c31-1 46 15 58 34l-1-101h50l1 261h-48c-2-10 0-23-3-31C134-8 116 4 84 4 32 4 16-41 15-95c0-56 19-97 73-99zm17 164c33 0 40-30 41-66 1-37-9-64-41-64s-38 30-39 65c0 43 13 65 39 65" id="aS"/><g id="w"><use transform="matrix(0.04938271604938272,0,0,0.04938271604938272,0,0)" xlink:href="#aR"/><use transform="matrix(0.04938271604938272,0,0,0.04938271604938272,12.790123456790125,0)" xlink:href="#aA"/><use transform="matrix(0.04938271604938272,0,0,0.04938271604938272,22.66666666666667,0)" xlink:href="#ar"/><use transform="matrix(0.04938271604938272,0,0,0.04938271604938272,32.543209876543216,0)" xlink:href="#aS"/></g><g id="x"><use transform="matrix(0.04938271604938272,0,0,0.04938271604938272,0,0)" xlink:href="#au"/><use transform="matrix(0.04938271604938272,0,0,0.04938271604938272,9.876543209876544,0)" xlink:href="#av"/><use transform="matrix(0.04938271604938272,0,0,0.04938271604938272,20.69135802469136,0)" xlink:href="#aw"/></g><g id="y"><use transform="matrix(0.04938271604938272,0,0,0.04938271604938272,0,0)" xlink:href="#aO"/><use transform="matrix(0.04938271604938272,0,0,0.04938271604938272,13.827160493827162,0)" xlink:href="#aP"/><use transform="matrix(0.04938271604938272,0,0,0.04938271604938272,24.641975308641975,0)" xlink:href="#at"/><use transform="matrix(0.04938271604938272,0,0,0.04938271604938272,30.518518518518523,0)" xlink:href="#aQ"/><use transform="matrix(0.04938271604938272,0,0,0.04938271604938272,41.333333333333336,0)" xlink:href="#aP"/><use transform="matrix(0.04938271604938272,0,0,0.04938271604938272,52.14814814814815,0)" xlink:href="#at"/></g><path fill="#333" d="M212-179c-10-28-35-45-73-45-59 0-87 40-87 99 0 60 29 101 89 101 43 0 62-24 78-52l27 14C228-24 195 4 139 4 59 4 22-46 18-125c-6-104 99-153 187-111 19 9 31 26 39 46" id="aT"/><g id="z"><use transform="matrix(0.06172839506172839,0,0,0.06172839506172839,0,0)" xlink:href="#aT"/><use transform="matrix(0.06172839506172839,0,0,0.06172839506172839,15.987654320987653,0)" xlink:href="#L"/><use transform="matrix(0.06172839506172839,0,0,0.06172839506172839,20.864197530864196,0)" xlink:href="#H"/><use transform="matrix(0.06172839506172839,0,0,0.06172839506172839,25.74074074074074,0)" xlink:href="#E"/><use transform="matrix(0.06172839506172839,0,0,0.06172839506172839,38.08641975308642,0)" xlink:href="#N"/><use transform="matrix(0.06172839506172839,0,0,0.06172839506172839,50.432098765432094,0)" xlink:href="#O"/></g></defs></g></svg>