<?xml version="1.0" encoding="UTF-8" standalone="no"?>
<!DOCTYPE svg PUBLIC "-//W3C//DTD SVG 1.1//EN"
 "http://www.w3.org/Graphics/SVG/1.1/DTD/svg11.dtd">
<!-- Generated by graphviz version 2.43.0 (0)
 -->
<!-- Title: %3 Pages: 1 -->
<svg width="488pt" height="287pt"
 viewBox="0.00 0.00 488.00 287.00" xmlns="http://www.w3.org/2000/svg" xmlns:xlink="http://www.w3.org/1999/xlink">
<g id="graph0" class="graph" transform="scale(1 1) rotate(0) translate(4 283)">
<title>%3</title>
<polygon fill="white" stroke="transparent" points="-4,4 -4,-283 484,-283 484,4 -4,4"/>
<!-- Start -->
<g id="node1" class="node">
<title>Start</title>
<ellipse fill="none" stroke="black" cx="240" cy="-261" rx="54" ry="18"/>
<text text-anchor="middle" x="240" y="-257.3" font-family="Times,serif" font-size="14.00">Start</text>
</g>
<!-- MoreJobs -->
<g id="node3" class="node">
<title>MoreJobs</title>
<polygon fill="none" stroke="black" points="240,-185 180,-140 240,-95 300,-140 240,-185"/>
<text text-anchor="middle" x="240" y="-151.3" font-family="Times,serif" font-size="14.00">More</text>
<text text-anchor="middle" x="240" y="-136.3" font-family="Times,serif" font-size="14.00">sub&#45;jobs</text>
<text text-anchor="middle" x="240" y="-121.3" font-family="Times,serif" font-size="14.00">remain?</text>
</g>
<!-- Start&#45;&gt;MoreJobs -->
<g id="edge1" class="edge">
<title>Start&#45;&gt;MoreJobs</title>
<path fill="none" stroke="darkblue" d="M240,-242.95C240,-230.38 240,-212.53 240,-195.28"/>
<polygon fill="darkblue" stroke="darkblue" points="243.5,-195.23 240,-185.23 236.5,-195.23 243.5,-195.23"/>
</g>
<!-- End -->
<g id="node2" class="node">
<title>End</title>
<ellipse fill="none" stroke="black" cx="54" cy="-140" rx="54" ry="18"/>
<text text-anchor="middle" x="54" y="-136.3" font-family="Times,serif" font-size="14.00">End</text>
</g>
<!-- End&#45;&gt;MoreJobs -->
<g id="edge3" class="edge">
<title>End&#45;&gt;MoreJobs</title>
<path fill="none" stroke="darkred" d="M118.23,-140C138.82,-140 159.4,-140 179.99,-140"/>
<polygon fill="darkred" stroke="darkred" points="118.13,-136.5 108.13,-140 118.13,-143.5 118.13,-136.5"/>
<text text-anchor="middle" x="169.49" y="-143.8" font-family="Times,serif" font-size="14.00">No</text>
</g>
<!-- NextJob -->
<g id="node4" class="node">
<title>NextJob</title>
<polygon fill="none" stroke="black" points="480,-158 372,-158 372,-122 480,-122 480,-158"/>
<text text-anchor="middle" x="426" y="-136.3" font-family="Times,serif" font-size="14.00">Next job</text>
</g>
<!-- MoreJobs&#45;&gt;NextJob -->
<g id="edge2" class="edge">
<title>MoreJobs&#45;&gt;NextJob</title>
<path fill="none" stroke="darkgreen" d="M300.3,-140C320.84,-140 341.37,-140 361.91,-140"/>
<polygon fill="darkgreen" stroke="darkgreen" points="361.99,-143.5 371.99,-140 361.99,-136.5 361.99,-143.5"/>
<text text-anchor="middle" x="312.8" y="-143.8" font-family="Times,serif" font-size="14.00">Yes</text>
</g>
<!-- RefreshJobStatus -->
<g id="node5" class="node">
<title>RefreshJobStatus</title>
<polygon fill="none" stroke="black" points="279,-0.5 279,-36.5 387,-36.5 387,-0.5 279,-0.5"/>
<text text-anchor="middle" x="286" y="-14.8" font-family="Times,serif" font-size="14.00"> </text>
<polyline fill="none" stroke="black" points="293,-0.5 293,-36.5 "/>
<text text-anchor="middle" x="333" y="-22.3" font-family="Times,serif" font-size="14.00">Refresh</text>
<text text-anchor="middle" x="333" y="-7.3" font-family="Times,serif" font-size="14.00">job status</text>
<polyline fill="none" stroke="black" points="373,-0.5 373,-36.5 "/>
<text text-anchor="middle" x="380" y="-14.8" font-family="Times,serif" font-size="14.00"> </text>
</g>
<!-- NextJob&#45;&gt;RefreshJobStatus -->
<g id="edge4" class="edge">
<title>NextJob&#45;&gt;RefreshJobStatus</title>
<path fill="none" stroke="darkblue" d="M412.68,-121.88C396.93,-101.65 370.59,-67.81 352.54,-44.61"/>
<polygon fill="darkblue" stroke="darkblue" points="355.2,-42.33 346.3,-36.59 349.68,-46.63 355.2,-42.33"/>
</g>
<!-- RefreshJobStatus&#45;&gt;MoreJobs -->
<g id="edge5" class="edge">
<title>RefreshJobStatus&#45;&gt;MoreJobs</title>
<path fill="none" stroke="darkblue" d="M319.67,-36.63C306.28,-53.83 285.24,-80.87 268.14,-102.84"/>
<polygon fill="darkblue" stroke="darkblue" points="265.18,-100.94 261.8,-110.98 270.71,-105.24 265.18,-100.94"/>
</g>
</g>
</svg>
