<?xml version="1.0" encoding="UTF-8" standalone="no"?>
<!DOCTYPE svg PUBLIC "-//W3C//DTD SVG 1.1//EN"
 "http://www.w3.org/Graphics/SVG/1.1/DTD/svg11.dtd">
<!-- Generated by graphviz version 2.43.0 (0)
 -->
<!-- Title: %3 Pages: 1 -->
<svg width="799pt" height="789pt"
 viewBox="0.00 0.00 799.00 789.43" xmlns="http://www.w3.org/2000/svg" xmlns:xlink="http://www.w3.org/1999/xlink">
<g id="graph0" class="graph" transform="scale(1 1) rotate(0) translate(4 785.43)">
<title>%3</title>
<polygon fill="white" stroke="transparent" points="-4,4 -4,-785.43 795,-785.43 795,4 -4,4"/>
<!-- DB -->
<g id="node1" class="node">
<title>DB</title>
<path fill="none" stroke="purple" d="M292,-126.73C292,-128.53 272.73,-130 249,-130 225.27,-130 206,-128.53 206,-126.73 206,-126.73 206,-97.27 206,-97.27 206,-95.47 225.27,-94 249,-94 272.73,-94 292,-95.47 292,-97.27 292,-97.27 292,-126.73 292,-126.73"/>
<path fill="none" stroke="purple" d="M292,-126.73C292,-124.92 272.73,-123.45 249,-123.45 225.27,-123.45 206,-124.92 206,-126.73"/>
<text text-anchor="middle" x="249" y="-108.3" font-family="Times,serif" font-size="14.00">MBlast DB</text>
</g>
<!-- FS -->
<g id="node2" class="node">
<title>FS</title>
<path fill="none" stroke="purple" d="M530,-446.98C530,-449.06 510.73,-450.75 487,-450.75 463.27,-450.75 444,-449.06 444,-446.98 444,-446.98 444,-413.02 444,-413.02 444,-410.94 463.27,-409.25 487,-409.25 510.73,-409.25 530,-410.94 530,-413.02 530,-413.02 530,-446.98 530,-446.98"/>
<path fill="none" stroke="purple" d="M530,-446.98C530,-444.9 510.73,-443.21 487,-443.21 463.27,-443.21 444,-444.9 444,-446.98"/>
<text text-anchor="middle" x="487" y="-433.8" font-family="Times,serif" font-size="14.00">MBlast</text>
<text text-anchor="middle" x="487" y="-418.8" font-family="Times,serif" font-size="14.00">Workspaces</text>
</g>
<!-- Queue -->
<g id="node3" class="node">
<title>Queue</title>
<polygon fill="none" stroke="purple" points="211,-558.5 125,-558.5 125,-554.5 121,-554.5 121,-550.5 125,-550.5 125,-530.5 121,-530.5 121,-526.5 125,-526.5 125,-522.5 211,-522.5 211,-558.5"/>
<polyline fill="none" stroke="purple" points="125,-554.5 129,-554.5 129,-550.5 125,-550.5 "/>
<polyline fill="none" stroke="purple" points="125,-530.5 129,-530.5 129,-526.5 125,-526.5 "/>
<text text-anchor="middle" x="168" y="-536.8" font-family="Times,serif" font-size="14.00">Job Queue</text>
</g>
<!-- SwitchQueueStatus -->
<g id="node7" class="node">
<title>SwitchQueueStatus</title>
<polygon fill="none" stroke="black" points="265,-460 163,-430 265,-400 367,-430 265,-460"/>
<text text-anchor="middle" x="265" y="-433.8" font-family="Times,serif" font-size="14.00">Switch:</text>
<text text-anchor="middle" x="265" y="-418.8" font-family="Times,serif" font-size="14.00">$queue.status</text>
</g>
<!-- Queue&#45;&gt;SwitchQueueStatus -->
<!-- LookupQueueStatus -->
<g id="node9" class="node">
<title>LookupQueueStatus</title>
<polygon fill="none" stroke="black" points="366.5,-563 269.5,-563 269.5,-518 366.5,-518 366.5,-563"/>
<text text-anchor="middle" x="318" y="-551.8" font-family="Times,serif" font-size="14.00">Lookup</text>
<text text-anchor="middle" x="318" y="-536.8" font-family="Times,serif" font-size="14.00">queue status:</text>
<text text-anchor="middle" x="318" y="-521.8" font-family="Times,serif" font-size="14.00">$queue</text>
</g>
<!-- Queue&#45;&gt;LookupQueueStatus -->
<g id="edge15" class="edge">
<title>Queue&#45;&gt;LookupQueueStatus</title>
<path fill="none" stroke="#333333" stroke-dasharray="1,5" d="M211.07,-540.5C226.94,-540.5 242.82,-540.5 258.7,-540.5"/>
<polygon fill="#333333" stroke="#333333" points="259.13,-544 269.13,-540.5 259.13,-537 259.13,-544"/>
</g>
<!-- Start -->
<g id="node4" class="node">
<title>Start</title>
<ellipse fill="none" stroke="black" cx="318" cy="-760.21" rx="55.31" ry="21.43"/>
<text text-anchor="middle" x="318" y="-764.01" font-family="Times,serif" font-size="14.00">Start</text>
<text text-anchor="middle" x="318" y="-749.01" font-family="Times,serif" font-size="14.00">input: $job</text>
</g>
<!-- SwitchInStatus -->
<g id="node6" class="node">
<title>SwitchInStatus</title>
<polygon fill="none" stroke="black" points="318,-681 238,-651 318,-621 398,-651 318,-681"/>
<text text-anchor="middle" x="318" y="-654.8" font-family="Times,serif" font-size="14.00">Switch:</text>
<text text-anchor="middle" x="318" y="-639.8" font-family="Times,serif" font-size="14.00">$job.status</text>
</g>
<!-- Start&#45;&gt;SwitchInStatus -->
<g id="edge1" class="edge">
<title>Start&#45;&gt;SwitchInStatus</title>
<path fill="none" stroke="darkblue" d="M318,-738.79C318,-725.44 318,-707.55 318,-691.48"/>
<polygon fill="darkblue" stroke="darkblue" points="321.5,-691.25 318,-681.25 314.5,-691.25 321.5,-691.25"/>
</g>
<!-- End -->
<g id="node5" class="node">
<title>End</title>
<ellipse fill="none" stroke="black" cx="249" cy="-18" rx="43" ry="18"/>
<text text-anchor="middle" x="249" y="-14.3" font-family="Times,serif" font-size="14.00">End</text>
</g>
<!-- SwitchInStatus&#45;&gt;End -->
<g id="edge4" class="edge">
<title>SwitchInStatus&#45;&gt;End</title>
<path fill="none" stroke="darkblue" d="M267.61,-639.75C177.94,-618.23 0,-559.37 0,-431 0,-431 0,-431 0,-205 0,-104.77 131.11,-52.06 203.05,-30.69"/>
<polygon fill="darkblue" stroke="darkblue" points="204.16,-34.01 212.79,-27.88 202.21,-27.28 204.16,-34.01"/>
<text text-anchor="start" x="191.61" y="-628.55" font-family="Times,serif" font-size="14.00">ERRORED</text>
<text text-anchor="start" x="191.61" y="-613.55" font-family="Times,serif" font-size="14.00">EXPIRED</text>
</g>
<!-- SwitchInStatus&#45;&gt;LookupQueueStatus -->
<g id="edge2" class="edge">
<title>SwitchInStatus&#45;&gt;LookupQueueStatus</title>
<path fill="none" stroke="darkblue" d="M318,-620.92C318,-606.28 318,-588.48 318,-573.45"/>
<polygon fill="darkblue" stroke="darkblue" points="321.5,-573.08 318,-563.08 314.5,-573.08 321.5,-573.08"/>
<text text-anchor="start" x="318" y="-609.72" font-family="Times,serif" font-size="14.00">QUEUED</text>
<text text-anchor="start" x="318" y="-594.72" font-family="Times,serif" font-size="14.00">IN_PROGRESS</text>
</g>
<!-- CheckJobExists -->
<g id="node10" class="node">
<title>CheckJobExists</title>
<polygon fill="none" stroke="black" points="531,-563 443,-563 443,-518 531,-518 531,-563"/>
<text text-anchor="middle" x="487" y="-551.8" font-family="Times,serif" font-size="14.00">Verify</text>
<text text-anchor="middle" x="487" y="-536.8" font-family="Times,serif" font-size="14.00">job exists in</text>
<text text-anchor="middle" x="487" y="-521.8" font-family="Times,serif" font-size="14.00"> workspaces</text>
</g>
<!-- SwitchInStatus&#45;&gt;CheckJobExists -->
<g id="edge3" class="edge">
<title>SwitchInStatus&#45;&gt;CheckJobExists</title>
<path fill="none" stroke="darkblue" d="M346.67,-631.59C373.5,-614.37 413.91,-588.42 444.49,-568.79"/>
<polygon fill="darkblue" stroke="darkblue" points="446.72,-571.52 453.24,-563.17 442.93,-565.63 446.72,-571.52"/>
<text text-anchor="middle" x="395.17" y="-635.39" font-family="Times,serif" font-size="14.00">COMPLETED</text>
</g>
<!-- SwitchQueueStatus&#45;&gt;End -->
<g id="edge8" class="edge">
<title>SwitchQueueStatus&#45;&gt;End</title>
<path fill="none" stroke="darkblue" d="M234.31,-408.7C213.82,-393.17 188.59,-369.75 177,-342 134.53,-240.29 135.86,-196.26 177,-94 185.66,-72.47 203.79,-53.64 219.68,-40.24"/>
<polygon fill="darkblue" stroke="darkblue" points="222.15,-42.75 227.73,-33.74 217.75,-37.3 222.15,-42.75"/>
<text text-anchor="start" x="117.31" y="-397.5" font-family="Times,serif" font-size="14.00">QUEUED</text>
<text text-anchor="start" x="117.31" y="-382.5" font-family="Times,serif" font-size="14.00">IN_PROGRESS &#160;</text>
</g>
<!-- SwitchQueueStatus&#45;&gt;CheckJobExists -->
<g id="edge7" class="edge">
<title>SwitchQueueStatus&#45;&gt;CheckJobExists</title>
<path fill="none" stroke="darkblue" d="M302.05,-449.11C338.01,-466.68 392.97,-493.55 433.65,-513.42"/>
<polygon fill="darkblue" stroke="darkblue" points="432.35,-516.69 442.87,-517.93 435.43,-510.4 432.35,-516.69"/>
<text text-anchor="middle" x="350.55" y="-452.91" font-family="Times,serif" font-size="14.00">COMPLETED</text>
</g>
<!-- SetErrored -->
<g id="node12" class="node">
<title>SetErrored</title>
<polygon fill="none" stroke="black" points="361.5,-330 206.5,-330 206.5,-294 361.5,-294 361.5,-330"/>
<text text-anchor="middle" x="284" y="-308.3" font-family="Times,serif" font-size="14.00">$job.status = errored</text>
</g>
<!-- SwitchQueueStatus&#45;&gt;SetErrored -->
<g id="edge6" class="edge">
<title>SwitchQueueStatus&#45;&gt;SetErrored</title>
<path fill="none" stroke="darkblue" d="M269.55,-401.22C272.58,-382.73 276.54,-358.55 279.55,-340.19"/>
<polygon fill="darkblue" stroke="darkblue" points="283.03,-340.57 281.19,-330.13 276.12,-339.43 283.03,-340.57"/>
<text text-anchor="middle" x="312.05" y="-390.02" font-family="Times,serif" font-size="14.00"> &#160;ERRORED</text>
</g>
<!-- JobExistsInWS -->
<g id="node8" class="node">
<title>JobExistsInWS</title>
<polygon fill="none" stroke="black" points="712,-342 633,-312 712,-282 791,-312 712,-342"/>
<text text-anchor="middle" x="712" y="-315.8" font-family="Times,serif" font-size="14.00">Workspace</text>
<text text-anchor="middle" x="712" y="-300.8" font-family="Times,serif" font-size="14.00">exists?</text>
</g>
<!-- JobExistsInWS&#45;&gt;End -->
<g id="edge10" class="edge">
<title>JobExistsInWS&#45;&gt;End</title>
<path fill="none" stroke="darkgreen" d="M683.35,-292.56C624.84,-254.94 487.31,-166.75 371,-94 340.59,-74.98 305.7,-53.57 281.05,-38.51"/>
<polygon fill="darkgreen" stroke="darkgreen" points="282.81,-35.49 272.45,-33.27 279.17,-41.47 282.81,-35.49"/>
<text text-anchor="middle" x="670.85" y="-281.36" font-family="Times,serif" font-size="14.00">Yes</text>
</g>
<!-- LookupQueueStatus&#45;&gt;SwitchQueueStatus -->
<g id="edge5" class="edge">
<title>LookupQueueStatus&#45;&gt;SwitchQueueStatus</title>
<path fill="none" stroke="darkblue" d="M307.4,-517.8C300.11,-502.88 290.28,-482.74 281.91,-465.62"/>
<polygon fill="darkblue" stroke="darkblue" points="284.98,-463.92 277.44,-456.47 278.69,-466.99 284.98,-463.92"/>
</g>
<!-- CheckJobExists&#45;&gt;FS -->
<g id="edge17" class="edge">
<title>CheckJobExists&#45;&gt;FS</title>
<path fill="none" stroke="#333333" stroke-dasharray="1,5" d="M487,-507.8C487,-489.38 487,-466.74 487,-450.83"/>
<polygon fill="#333333" stroke="#333333" points="483.5,-507.8 487,-517.8 490.5,-507.8 483.5,-507.8"/>
</g>
<!-- CheckJobExists&#45;&gt;JobExistsInWS -->
<g id="edge9" class="edge">
<title>CheckJobExists&#45;&gt;JobExistsInWS</title>
<path fill="none" stroke="darkblue" d="M508.57,-517.78C549.42,-476.67 638.02,-387.48 683.62,-341.57"/>
<polygon fill="darkblue" stroke="darkblue" points="686.26,-343.88 690.82,-334.32 681.29,-338.95 686.26,-343.88"/>
</g>
<!-- SetExpired -->
<g id="node11" class="node">
<title>SetExpired</title>
<polygon fill="none" stroke="black" points="574.5,-330 419.5,-330 419.5,-294 574.5,-294 574.5,-330"/>
<text text-anchor="middle" x="497" y="-308.3" font-family="Times,serif" font-size="14.00">$job.status = expired</text>
</g>
<!-- SetExpired&#45;&gt;JobExistsInWS -->
<g id="edge11" class="edge">
<title>SetExpired&#45;&gt;JobExistsInWS</title>
<path fill="none" stroke="darkred" d="M584.69,-312C600.75,-312 616.82,-312 632.88,-312"/>
<polygon fill="darkred" stroke="darkred" points="584.69,-308.5 574.69,-312 584.69,-315.5 584.69,-308.5"/>
<text text-anchor="middle" x="622.38" y="-315.8" font-family="Times,serif" font-size="14.00">No</text>
</g>
<!-- UpdateDBStatus -->
<g id="node13" class="node">
<title>UpdateDBStatus</title>
<polygon fill="none" stroke="black" points="383,-224 281,-224 281,-188 383,-188 383,-224"/>
<text text-anchor="middle" x="332" y="-209.8" font-family="Times,serif" font-size="14.00">Update status</text>
<text text-anchor="middle" x="332" y="-194.8" font-family="Times,serif" font-size="14.00">in DB</text>
</g>
<!-- SetExpired&#45;&gt;UpdateDBStatus -->
<g id="edge13" class="edge">
<title>SetExpired&#45;&gt;UpdateDBStatus</title>
<path fill="none" stroke="darkblue" d="M469.75,-293.83C441.85,-276.24 398.32,-248.8 367.68,-229.49"/>
<polygon fill="darkblue" stroke="darkblue" points="369.34,-226.4 359.01,-224.03 365.61,-232.32 369.34,-226.4"/>
</g>
<!-- SetErrored&#45;&gt;SetExpired -->
<!-- SetErrored&#45;&gt;UpdateDBStatus -->
<g id="edge12" class="edge">
<title>SetErrored&#45;&gt;UpdateDBStatus</title>
<path fill="none" stroke="darkblue" d="M291.93,-293.83C299.5,-277.42 311.03,-252.45 319.78,-233.49"/>
<polygon fill="darkblue" stroke="darkblue" points="323.05,-234.75 324.06,-224.2 316.69,-231.81 323.05,-234.75"/>
</g>
<!-- UpdateDBStatus&#45;&gt;DB -->
<g id="edge16" class="edge">
<title>UpdateDBStatus&#45;&gt;DB</title>
<path fill="none" stroke="#333333" stroke-dasharray="1,5" d="M316.39,-187.7C303.75,-173.69 285.78,-153.77 271.58,-138.03"/>
<polygon fill="#333333" stroke="#333333" points="273.84,-135.31 264.54,-130.23 268.64,-140 273.84,-135.31"/>
</g>
<!-- UpdateDBStatus&#45;&gt;End -->
<g id="edge14" class="edge">
<title>UpdateDBStatus&#45;&gt;End</title>
<path fill="none" stroke="darkblue" d="M333.65,-187.94C335.12,-165.35 335.19,-124.78 321,-94 311.28,-72.92 293.16,-54.1 277.53,-40.58"/>
<polygon fill="darkblue" stroke="darkblue" points="279.57,-37.72 269.64,-34.01 275.09,-43.1 279.57,-37.72"/>
</g>
</g>
</svg>
