<?xml version="1.0" encoding="UTF-8" standalone="no"?>
<!DOCTYPE svg PUBLIC "-//W3C//DTD SVG 1.1//EN"
 "http://www.w3.org/Graphics/SVG/1.1/DTD/svg11.dtd">
<!-- Generated by graphviz version 2.43.0 (0)
 -->
<!-- Title: %3 Pages: 1 -->
<svg width="677pt" height="789pt"
 viewBox="0.00 0.00 677.31 789.43" xmlns="http://www.w3.org/2000/svg" xmlns:xlink="http://www.w3.org/1999/xlink">
<g id="graph0" class="graph" transform="scale(1 1) rotate(0) translate(4 785.43)">
<title>%3</title>
<polygon fill="white" stroke="transparent" points="-4,4 -4,-785.43 673.31,-785.43 673.31,4 -4,4"/>
<!-- DB -->
<g id="node1" class="node">
<title>DB</title>
<path fill="none" stroke="purple" d="M349.31,-32.73C349.31,-34.53 330.04,-36 306.31,-36 282.58,-36 263.31,-34.53 263.31,-32.73 263.31,-32.73 263.31,-3.27 263.31,-3.27 263.31,-1.47 282.58,0 306.31,0 330.04,0 349.31,-1.47 349.31,-3.27 349.31,-3.27 349.31,-32.73 349.31,-32.73"/>
<path fill="none" stroke="purple" d="M349.31,-32.73C349.31,-30.92 330.04,-29.45 306.31,-29.45 282.58,-29.45 263.31,-30.92 263.31,-32.73"/>
<text text-anchor="middle" x="306.31" y="-14.3" font-family="Times,serif" font-size="14.00">MBlast DB</text>
</g>
<!-- FS -->
<g id="node2" class="node">
<title>FS</title>
<path fill="none" stroke="purple" d="M640.31,-446.98C640.31,-449.06 621.04,-450.75 597.31,-450.75 573.58,-450.75 554.31,-449.06 554.31,-446.98 554.31,-446.98 554.31,-413.02 554.31,-413.02 554.31,-410.94 573.58,-409.25 597.31,-409.25 621.04,-409.25 640.31,-410.94 640.31,-413.02 640.31,-413.02 640.31,-446.98 640.31,-446.98"/>
<path fill="none" stroke="purple" d="M640.31,-446.98C640.31,-444.9 621.04,-443.21 597.31,-443.21 573.58,-443.21 554.31,-444.9 554.31,-446.98"/>
<text text-anchor="middle" x="597.31" y="-433.8" font-family="Times,serif" font-size="14.00">MBlast</text>
<text text-anchor="middle" x="597.31" y="-418.8" font-family="Times,serif" font-size="14.00">Workspaces</text>
</g>
<!-- Queue -->
<g id="node3" class="node">
<title>Queue</title>
<polygon fill="none" stroke="purple" points="369.31,-558.5 283.31,-558.5 283.31,-554.5 279.31,-554.5 279.31,-550.5 283.31,-550.5 283.31,-530.5 279.31,-530.5 279.31,-526.5 283.31,-526.5 283.31,-522.5 369.31,-522.5 369.31,-558.5"/>
<polyline fill="none" stroke="purple" points="283.31,-554.5 287.31,-554.5 287.31,-550.5 283.31,-550.5 "/>
<polyline fill="none" stroke="purple" points="283.31,-530.5 287.31,-530.5 287.31,-526.5 283.31,-526.5 "/>
<text text-anchor="middle" x="326.31" y="-536.8" font-family="Times,serif" font-size="14.00">Job Queue</text>
</g>
<!-- Start -->
<g id="node4" class="node">
<title>Start</title>
<ellipse fill="none" stroke="black" cx="184.31" cy="-760.21" rx="55.31" ry="21.43"/>
<text text-anchor="middle" x="184.31" y="-764.01" font-family="Times,serif" font-size="14.00">Start</text>
<text text-anchor="middle" x="184.31" y="-749.01" font-family="Times,serif" font-size="14.00">input: $job</text>
</g>
<!-- SwitchInStatus -->
<g id="node6" class="node">
<title>SwitchInStatus</title>
<polygon fill="none" stroke="black" points="184.31,-681 104.31,-651 184.31,-621 264.31,-651 184.31,-681"/>
<text text-anchor="middle" x="184.31" y="-654.8" font-family="Times,serif" font-size="14.00">Switch:</text>
<text text-anchor="middle" x="184.31" y="-639.8" font-family="Times,serif" font-size="14.00">$job.status</text>
</g>
<!-- Start&#45;&gt;SwitchInStatus -->
<g id="edge1" class="edge">
<title>Start&#45;&gt;SwitchInStatus</title>
<path fill="none" stroke="darkblue" d="M184.31,-738.79C184.31,-725.44 184.31,-707.55 184.31,-691.48"/>
<polygon fill="darkblue" stroke="darkblue" points="187.81,-691.25 184.31,-681.25 180.81,-691.25 187.81,-691.25"/>
</g>
<!-- End -->
<g id="node5" class="node">
<title>End</title>
<ellipse fill="none" stroke="black" cx="102.31" cy="-18" rx="43" ry="18"/>
<text text-anchor="middle" x="102.31" y="-14.3" font-family="Times,serif" font-size="14.00">End</text>
</g>
<!-- SwitchInStatus&#45;&gt;End -->
<g id="edge4" class="edge">
<title>SwitchInStatus:w&#45;&gt;End</title>
<path fill="none" stroke="darkblue" d="M103.31,-651C-4.65,-651 0.31,-538.96 0.31,-431 0.31,-431 0.31,-431 0.31,-205 0.31,-139.54 49.48,-75.31 79.55,-42.16"/>
<polygon fill="darkblue" stroke="darkblue" points="82.14,-44.52 86.37,-34.8 77.01,-39.75 82.14,-44.52"/>
<text text-anchor="start" x="27.31" y="-669.8" font-family="Times,serif" font-size="14.00">ERRORED</text>
<text text-anchor="start" x="27.31" y="-654.8" font-family="Times,serif" font-size="14.00">EXPIRED</text>
</g>
<!-- LookupQueueStatus -->
<g id="node9" class="node">
<title>LookupQueueStatus</title>
<polygon fill="none" stroke="black" points="232.81,-563 135.81,-563 135.81,-518 232.81,-518 232.81,-563"/>
<text text-anchor="middle" x="184.31" y="-551.8" font-family="Times,serif" font-size="14.00">Lookup</text>
<text text-anchor="middle" x="184.31" y="-536.8" font-family="Times,serif" font-size="14.00">queue status:</text>
<text text-anchor="middle" x="184.31" y="-521.8" font-family="Times,serif" font-size="14.00">$queue</text>
</g>
<!-- SwitchInStatus&#45;&gt;LookupQueueStatus -->
<g id="edge2" class="edge">
<title>SwitchInStatus&#45;&gt;LookupQueueStatus</title>
<path fill="none" stroke="darkblue" d="M184.31,-620.92C184.31,-606.28 184.31,-588.48 184.31,-573.45"/>
<polygon fill="darkblue" stroke="darkblue" points="187.81,-573.08 184.31,-563.08 180.81,-573.08 187.81,-573.08"/>
<text text-anchor="start" x="76.31" y="-609.72" font-family="Times,serif" font-size="14.00">QUEUED</text>
<text text-anchor="start" x="76.31" y="-594.72" font-family="Times,serif" font-size="14.00">IN_PROGRESS</text>
</g>
<!-- CheckJobExists -->
<g id="node10" class="node">
<title>CheckJobExists</title>
<polygon fill="none" stroke="black" points="504.31,-452.5 416.31,-452.5 416.31,-407.5 504.31,-407.5 504.31,-452.5"/>
<text text-anchor="middle" x="460.31" y="-441.3" font-family="Times,serif" font-size="14.00">Verify</text>
<text text-anchor="middle" x="460.31" y="-426.3" font-family="Times,serif" font-size="14.00">job exists in</text>
<text text-anchor="middle" x="460.31" y="-411.3" font-family="Times,serif" font-size="14.00"> workspaces</text>
</g>
<!-- SwitchInStatus&#45;&gt;CheckJobExists -->
<g id="edge3" class="edge">
<title>SwitchInStatus:e&#45;&gt;CheckJobExists</title>
<path fill="none" stroke="darkblue" d="M265.31,-651C364.9,-651 425.97,-523.17 449.37,-462.39"/>
<polygon fill="darkblue" stroke="darkblue" points="452.7,-463.49 452.93,-452.9 446.14,-461.03 452.7,-463.49"/>
<text text-anchor="middle" x="313.81" y="-654.8" font-family="Times,serif" font-size="14.00">COMPLETED</text>
</g>
<!-- SwitchQueueStatus -->
<g id="node7" class="node">
<title>SwitchQueueStatus</title>
<polygon fill="none" stroke="black" points="184.31,-460 82.31,-430 184.31,-400 286.31,-430 184.31,-460"/>
<text text-anchor="middle" x="184.31" y="-433.8" font-family="Times,serif" font-size="14.00">Switch:</text>
<text text-anchor="middle" x="184.31" y="-418.8" font-family="Times,serif" font-size="14.00">$queue.status</text>
</g>
<!-- SwitchQueueStatus&#45;&gt;End -->
<g id="edge8" class="edge">
<title>SwitchQueueStatus:sw&#45;&gt;End</title>
<path fill="none" stroke="darkblue" d="M161.31,-406C62.32,-307.01 84.43,-116.77 96.85,-46.21"/>
<polygon fill="darkblue" stroke="darkblue" points="100.37,-46.42 98.74,-35.95 93.49,-45.15 100.37,-46.42"/>
<text text-anchor="start" x="44.31" y="-394.8" font-family="Times,serif" font-size="14.00">QUEUED</text>
<text text-anchor="start" x="44.31" y="-379.8" font-family="Times,serif" font-size="14.00">IN_PROGRESS &#160;</text>
</g>
<!-- SwitchQueueStatus&#45;&gt;CheckJobExists -->
<g id="edge7" class="edge">
<title>SwitchQueueStatus&#45;&gt;CheckJobExists</title>
<path fill="none" stroke="darkblue" d="M286.46,-430C326.32,-430 366.18,-430 406.04,-430"/>
<polygon fill="darkblue" stroke="darkblue" points="406.17,-433.5 416.17,-430 406.17,-426.5 406.17,-433.5"/>
<text text-anchor="middle" x="334.96" y="-433.8" font-family="Times,serif" font-size="14.00">COMPLETED</text>
</g>
<!-- SetErrored -->
<g id="node12" class="node">
<title>SetErrored</title>
<polygon fill="none" stroke="black" points="333.81,-330 178.81,-330 178.81,-294 333.81,-294 333.81,-330"/>
<text text-anchor="middle" x="256.31" y="-308.3" font-family="Times,serif" font-size="14.00">$job.status = errored</text>
</g>
<!-- SwitchQueueStatus&#45;&gt;SetErrored -->
<g id="edge6" class="edge">
<title>SwitchQueueStatus:se&#45;&gt;SetErrored</title>
<path fill="none" stroke="darkblue" d="M207.31,-406C226.08,-387.23 239.34,-359.78 247.29,-339.56"/>
<polygon fill="darkblue" stroke="darkblue" points="250.63,-340.6 250.86,-330.01 244.08,-338.14 250.63,-340.6"/>
<text text-anchor="middle" x="249.81" y="-394.8" font-family="Times,serif" font-size="14.00"> &#160;ERRORED</text>
</g>
<!-- JobExistsInWS -->
<g id="node8" class="node">
<title>JobExistsInWS</title>
<polygon fill="none" stroke="black" points="463.31,-342 384.31,-312 463.31,-282 542.31,-312 463.31,-342"/>
<text text-anchor="middle" x="463.31" y="-315.8" font-family="Times,serif" font-size="14.00">Workspace</text>
<text text-anchor="middle" x="463.31" y="-300.8" font-family="Times,serif" font-size="14.00">exists?</text>
</g>
<!-- SetExpired -->
<g id="node11" class="node">
<title>SetExpired</title>
<polygon fill="none" stroke="black" points="452.81,-224 297.81,-224 297.81,-188 452.81,-188 452.81,-224"/>
<text text-anchor="middle" x="375.31" y="-202.3" font-family="Times,serif" font-size="14.00">$job.status = expired</text>
</g>
<!-- JobExistsInWS&#45;&gt;SetExpired -->
<g id="edge11" class="edge">
<title>JobExistsInWS&#45;&gt;SetExpired</title>
<path fill="none" stroke="darkred" d="M444.65,-288.94C430.6,-272.34 411.32,-249.56 396.66,-232.23"/>
<polygon fill="darkred" stroke="darkred" points="399.01,-229.59 389.88,-224.22 393.67,-234.11 399.01,-229.59"/>
<text text-anchor="middle" x="434.15" y="-277.74" font-family="Times,serif" font-size="14.00">No</text>
</g>
<!-- SetCompleted -->
<g id="node13" class="node">
<title>SetCompleted</title>
<polygon fill="none" stroke="black" points="669.31,-224 503.31,-224 503.31,-188 669.31,-188 669.31,-224"/>
<text text-anchor="middle" x="586.31" y="-202.3" font-family="Times,serif" font-size="14.00">$job.status = complete</text>
</g>
<!-- JobExistsInWS&#45;&gt;SetCompleted -->
<g id="edge10" class="edge">
<title>JobExistsInWS&#45;&gt;SetCompleted</title>
<path fill="none" stroke="darkgreen" d="M487.03,-290.95C507.33,-273.78 536.6,-249.03 558.11,-230.85"/>
<polygon fill="darkgreen" stroke="darkgreen" points="560.55,-233.36 565.93,-224.23 556.03,-228.02 560.55,-233.36"/>
<text text-anchor="middle" x="474.53" y="-279.75" font-family="Times,serif" font-size="14.00">Yes</text>
</g>
<!-- LookupQueueStatus&#45;&gt;Queue -->
<g id="edge16" class="edge">
<title>LookupQueueStatus&#45;&gt;Queue</title>
<path fill="none" stroke="#333333" stroke-dasharray="1,5" d="M243.08,-540.5C256.46,-540.5 269.85,-540.5 283.23,-540.5"/>
<polygon fill="#333333" stroke="#333333" points="242.85,-537 232.85,-540.5 242.85,-544 242.85,-537"/>
</g>
<!-- LookupQueueStatus&#45;&gt;SwitchQueueStatus -->
<g id="edge5" class="edge">
<title>LookupQueueStatus&#45;&gt;SwitchQueueStatus</title>
<path fill="none" stroke="darkblue" d="M184.31,-517.8C184.31,-504.21 184.31,-486.28 184.31,-470.26"/>
<polygon fill="darkblue" stroke="darkblue" points="187.81,-470.06 184.31,-460.06 180.81,-470.06 187.81,-470.06"/>
</g>
<!-- CheckJobExists&#45;&gt;FS -->
<g id="edge18" class="edge">
<title>CheckJobExists&#45;&gt;FS</title>
<path fill="none" stroke="#333333" stroke-dasharray="1,5" d="M514.55,-430C527.75,-430 540.95,-430 554.15,-430"/>
<polygon fill="#333333" stroke="#333333" points="514.46,-426.5 504.46,-430 514.46,-433.5 514.46,-426.5"/>
</g>
<!-- CheckJobExists&#45;&gt;JobExistsInWS -->
<g id="edge9" class="edge">
<title>CheckJobExists&#45;&gt;JobExistsInWS</title>
<path fill="none" stroke="darkblue" d="M460.87,-407.45C461.27,-391.94 461.82,-370.56 462.3,-352.07"/>
<polygon fill="darkblue" stroke="darkblue" points="465.8,-351.96 462.56,-341.87 458.81,-351.78 465.8,-351.96"/>
</g>
<!-- UpdateDBStatus -->
<g id="node14" class="node">
<title>UpdateDBStatus</title>
<polygon fill="none" stroke="black" points="357.31,-130 255.31,-130 255.31,-94 357.31,-94 357.31,-130"/>
<text text-anchor="middle" x="306.31" y="-115.8" font-family="Times,serif" font-size="14.00">Update status</text>
<text text-anchor="middle" x="306.31" y="-100.8" font-family="Times,serif" font-size="14.00">in DB</text>
</g>
<!-- SetExpired&#45;&gt;UpdateDBStatus -->
<g id="edge13" class="edge">
<title>SetExpired&#45;&gt;UpdateDBStatus</title>
<path fill="none" stroke="darkblue" d="M362.33,-187.7C351.92,-173.82 337.16,-154.14 325.41,-138.46"/>
<polygon fill="darkblue" stroke="darkblue" points="328.03,-136.13 319.23,-130.23 322.43,-140.33 328.03,-136.13"/>
</g>
<!-- SetErrored&#45;&gt;UpdateDBStatus -->
<g id="edge12" class="edge">
<title>SetErrored&#45;&gt;UpdateDBStatus</title>
<path fill="none" stroke="darkblue" d="M256.94,-293.97C258.18,-269.93 261.81,-224.86 272.31,-188 277.12,-171.13 285.12,-153.21 292.16,-139.11"/>
<polygon fill="darkblue" stroke="darkblue" points="295.37,-140.52 296.83,-130.02 289.15,-137.32 295.37,-140.52"/>
</g>
<!-- SetCompleted&#45;&gt;UpdateDBStatus -->
<g id="edge14" class="edge">
<title>SetCompleted&#45;&gt;UpdateDBStatus:e</title>
<path fill="none" stroke="darkblue" d="M562.33,-187.94C523.88,-162.25 444.99,-116.18 368.58,-112.27"/>
<polygon fill="darkblue" stroke="darkblue" points="368.4,-108.76 358.31,-112 368.22,-115.76 368.4,-108.76"/>
</g>
<!-- UpdateDBStatus&#45;&gt;DB -->
<g id="edge17" class="edge">
<title>UpdateDBStatus&#45;&gt;DB</title>
<path fill="none" stroke="#333333" stroke-dasharray="1,5" d="M306.31,-93.7C306.31,-80.46 306.31,-61.95 306.31,-46.66"/>
<polygon fill="#333333" stroke="#333333" points="309.81,-46.23 306.31,-36.23 302.81,-46.23 309.81,-46.23"/>
</g>
<!-- UpdateDBStatus&#45;&gt;End -->
<g id="edge15" class="edge">
<title>UpdateDBStatus&#45;&gt;End</title>
<path fill="none" stroke="darkblue" d="M268.42,-93.91C231.71,-77.36 176.39,-52.41 139.82,-35.91"/>
<polygon fill="darkblue" stroke="darkblue" points="141.04,-32.63 130.49,-31.71 138.16,-39.01 141.04,-32.63"/>
</g>
</g>
</svg>
