<?xml version="1.0" encoding="UTF-8" standalone="no"?>
<!DOCTYPE svg PUBLIC "-//W3C//DTD SVG 1.1//EN"
 "http://www.w3.org/Graphics/SVG/1.1/DTD/svg11.dtd">
<!-- Generated by graphviz version 2.43.0 (0)
 -->
<!-- Title: %3 Pages: 1 -->
<svg width="608pt" height="713pt"
 viewBox="0.00 0.00 608.00 713.43" xmlns="http://www.w3.org/2000/svg" xmlns:xlink="http://www.w3.org/1999/xlink">
<g id="graph0" class="graph" transform="scale(1 1) rotate(0) translate(4 709.43)">
<title>%3</title>
<polygon fill="white" stroke="transparent" points="-4,4 -4,-709.43 604,-709.43 604,4 -4,4"/>
<!-- Start -->
<g id="node1" class="node">
<title>Start</title>
<ellipse fill="none" stroke="black" cx="343" cy="-684.21" rx="47" ry="21.43"/>
<text text-anchor="middle" x="343" y="-688.01" font-family="Times,serif" font-size="14.00">POST</text>
<text text-anchor="middle" x="343" y="-673.01" font-family="Times,serif" font-size="14.00">/reports</text>
</g>
<!-- ValidateRequest -->
<g id="node2" class="node">
<title>ValidateRequest</title>
<polygon fill="none" stroke="black" points="296,-589.5 296,-625.5 390,-625.5 390,-589.5 296,-589.5"/>
<text text-anchor="middle" x="300.5" y="-603.8" font-family="Times,serif" font-size="14.00"> </text>
<polyline fill="none" stroke="black" points="305,-589.5 305,-625.5 "/>
<text text-anchor="middle" x="343" y="-611.3" font-family="Times,serif" font-size="14.00">Request</text>
<text text-anchor="middle" x="343" y="-596.3" font-family="Times,serif" font-size="14.00">Validation</text>
<polyline fill="none" stroke="black" points="381,-589.5 381,-625.5 "/>
<text text-anchor="middle" x="385.5" y="-603.8" font-family="Times,serif" font-size="14.00"> </text>
</g>
<!-- Start&#45;&gt;ValidateRequest -->
<g id="edge1" class="edge">
<title>Start&#45;&gt;ValidateRequest</title>
<path fill="none" stroke="darkblue" d="M343,-662.8C343,-654.57 343,-644.94 343,-636.1"/>
<polygon fill="darkblue" stroke="darkblue" points="346.5,-635.85 343,-625.85 339.5,-635.85 346.5,-635.85"/>
</g>
<!-- LookupUserJob -->
<g id="node3" class="node">
<title>LookupUserJob</title>
<polygon fill="none" stroke="black" points="296,-501.5 296,-537.5 390,-537.5 390,-501.5 296,-501.5"/>
<text text-anchor="middle" x="302" y="-515.8" font-family="Times,serif" font-size="14.00"> </text>
<polyline fill="none" stroke="black" points="308,-501.5 308,-537.5 "/>
<text text-anchor="middle" x="342.5" y="-523.3" font-family="Times,serif" font-size="14.00">Lookup</text>
<text text-anchor="middle" x="342.5" y="-508.3" font-family="Times,serif" font-size="14.00">User Job</text>
<polyline fill="none" stroke="black" points="377,-501.5 377,-537.5 "/>
<text text-anchor="middle" x="383.5" y="-515.8" font-family="Times,serif" font-size="14.00"> </text>
</g>
<!-- ValidateRequest&#45;&gt;LookupUserJob -->
<g id="edge2" class="edge">
<title>ValidateRequest&#45;&gt;LookupUserJob</title>
<path fill="none" stroke="darkblue" d="M343,-589.1C343,-577.25 343,-561.32 343,-547.79"/>
<polygon fill="darkblue" stroke="darkblue" points="346.5,-547.58 343,-537.58 339.5,-547.58 346.5,-547.58"/>
</g>
<!-- 400 -->
<g id="node12" class="node">
<title>400</title>
<ellipse fill="none" stroke="red" cx="47" cy="-420" rx="47" ry="18"/>
<text text-anchor="middle" x="47" y="-416.3" font-family="Times,serif" font-size="14.00">400</text>
</g>
<!-- ValidateRequest&#45;&gt;400 -->
<g id="edge3" class="edge">
<title>ValidateRequest&#45;&gt;400</title>
<path fill="none" stroke="red" d="M308.94,-589.32C253.53,-559.75 150,-504.5 150,-504.5 150,-504.5 105.65,-468.11 75.15,-443.1"/>
<polygon fill="red" stroke="red" points="77.3,-440.33 67.35,-436.69 72.86,-445.74 77.3,-440.33"/>
<text text-anchor="middle" x="114" y="-523.3" font-family="Times,serif" font-size="14.00">Validation</text>
<text text-anchor="middle" x="114" y="-508.3" font-family="Times,serif" font-size="14.00">Error</text>
</g>
<!-- 401 -->
<g id="node13" class="node">
<title>401</title>
<ellipse fill="none" stroke="red" cx="542" cy="-519.5" rx="47" ry="18"/>
<text text-anchor="middle" x="542" y="-515.8" font-family="Times,serif" font-size="14.00">401</text>
</g>
<!-- ValidateRequest&#45;&gt;401 -->
<g id="edge4" class="edge">
<title>ValidateRequest&#45;&gt;401</title>
<path fill="none" stroke="red" d="M382.79,-589.3C417.63,-574.25 467.96,-552.5 502.66,-537.5"/>
<polygon fill="red" stroke="red" points="504.21,-540.64 512.01,-533.46 501.44,-534.22 504.21,-540.64"/>
<text text-anchor="middle" x="494" y="-559.8" font-family="Times,serif" font-size="14.00">Auth Error</text>
</g>
<!-- IsJobCompleted -->
<g id="node4" class="node">
<title>IsJobCompleted</title>
<polygon fill="none" stroke="black" points="331,-450 238,-420 331,-390 424,-420 331,-450"/>
<text text-anchor="middle" x="331" y="-423.8" font-family="Times,serif" font-size="14.00">Is job status</text>
<text text-anchor="middle" x="331" y="-408.8" font-family="Times,serif" font-size="14.00">COMPLETE?</text>
</g>
<!-- LookupUserJob&#45;&gt;IsJobCompleted -->
<g id="edge5" class="edge">
<title>LookupUserJob&#45;&gt;IsJobCompleted</title>
<path fill="none" stroke="darkblue" d="M340.85,-501.07C339.42,-489.43 337.48,-473.67 335.7,-459.2"/>
<polygon fill="darkblue" stroke="darkblue" points="339.14,-458.48 334.44,-448.98 332.19,-459.33 339.14,-458.48"/>
</g>
<!-- 404 -->
<g id="node14" class="node">
<title>404</title>
<ellipse fill="none" stroke="red" cx="553" cy="-420" rx="47" ry="18"/>
<text text-anchor="middle" x="553" y="-416.3" font-family="Times,serif" font-size="14.00">404</text>
</g>
<!-- LookupUserJob&#45;&gt;404 -->
<g id="edge6" class="edge">
<title>LookupUserJob&#45;&gt;404</title>
<path fill="none" stroke="red" d="M380.06,-501.29C417.94,-483.7 476.51,-456.52 514.8,-438.74"/>
<polygon fill="red" stroke="red" points="516.48,-441.82 524.07,-434.43 513.53,-435.47 516.48,-441.82"/>
<text text-anchor="middle" x="486" y="-471.8" font-family="Times,serif" font-size="14.00">Not Found</text>
</g>
<!-- HashConfig -->
<g id="node5" class="node">
<title>HashConfig</title>
<polygon fill="none" stroke="black" points="376,-353 282,-353 282,-317 376,-317 376,-353"/>
<text text-anchor="middle" x="329" y="-331.3" font-family="Times,serif" font-size="14.00">Hash config</text>
</g>
<!-- IsJobCompleted&#45;&gt;HashConfig -->
<g id="edge7" class="edge">
<title>IsJobCompleted&#45;&gt;HashConfig</title>
<path fill="none" stroke="darkgreen" d="M330.3,-389.97C330.09,-381.29 329.86,-371.81 329.66,-363.25"/>
<polygon fill="darkgreen" stroke="darkgreen" points="333.15,-362.95 329.41,-353.03 326.15,-363.12 333.15,-362.95"/>
<text text-anchor="middle" x="317.8" y="-378.77" font-family="Times,serif" font-size="14.00">Yes</text>
</g>
<!-- CheckForCollision -->
<g id="node6" class="node">
<title>CheckForCollision</title>
<polygon fill="none" stroke="black" points="377.5,-280 272.5,-280 272.5,-244 377.5,-244 377.5,-280"/>
<text text-anchor="middle" x="325" y="-265.8" font-family="Times,serif" font-size="14.00">Check for</text>
<text text-anchor="middle" x="325" y="-250.8" font-family="Times,serif" font-size="14.00">hash collisions</text>
</g>
<!-- HashConfig&#45;&gt;CheckForCollision -->
<g id="edge9" class="edge">
<title>HashConfig&#45;&gt;CheckForCollision</title>
<path fill="none" stroke="darkblue" d="M328.03,-316.81C327.58,-308.79 327.03,-299.05 326.53,-290.07"/>
<polygon fill="darkblue" stroke="darkblue" points="330.02,-289.82 325.96,-280.03 323.03,-290.21 330.02,-289.82"/>
</g>
<!-- CollisionExists -->
<g id="node7" class="node">
<title>CollisionExists</title>
<polygon fill="none" stroke="black" points="325,-207 263,-177 325,-147 387,-177 325,-207"/>
<text text-anchor="middle" x="325" y="-180.8" font-family="Times,serif" font-size="14.00">Collision</text>
<text text-anchor="middle" x="325" y="-165.8" font-family="Times,serif" font-size="14.00">exists?</text>
</g>
<!-- CheckForCollision&#45;&gt;CollisionExists -->
<g id="edge11" class="edge">
<title>CheckForCollision&#45;&gt;CollisionExists</title>
<path fill="none" stroke="darkblue" d="M325,-243.8C325,-236.14 325,-226.78 325,-217.55"/>
<polygon fill="darkblue" stroke="darkblue" points="328.5,-217.27 325,-207.27 321.5,-217.27 328.5,-217.27"/>
</g>
<!-- HandleJobCollision -->
<g id="node8" class="node">
<title>HandleJobCollision</title>
<polygon fill="none" stroke="black" points="191.5,-73.5 191.5,-109.5 290.5,-109.5 290.5,-73.5 191.5,-73.5"/>
<text text-anchor="middle" x="194" y="-87.8" font-family="Times,serif" font-size="14.00"> </text>
<polyline fill="none" stroke="black" points="196.5,-73.5 196.5,-109.5 "/>
<text text-anchor="middle" x="241" y="-95.3" font-family="Times,serif" font-size="14.00">Job Collision</text>
<text text-anchor="middle" x="241" y="-80.3" font-family="Times,serif" font-size="14.00">Handling</text>
<polyline fill="none" stroke="black" points="285.5,-73.5 285.5,-109.5 "/>
<text text-anchor="middle" x="288" y="-87.8" font-family="Times,serif" font-size="14.00"> </text>
</g>
<!-- CollisionExists&#45;&gt;HandleJobCollision -->
<g id="edge12" class="edge">
<title>CollisionExists&#45;&gt;HandleJobCollision</title>
<path fill="none" stroke="darkgreen" d="M305.09,-156.21C293.28,-144.47 278.21,-129.49 265.65,-117"/>
<polygon fill="darkgreen" stroke="darkgreen" points="267.77,-114.17 258.21,-109.6 262.83,-119.14 267.77,-114.17"/>
<text text-anchor="middle" x="292.59" y="-145.01" font-family="Times,serif" font-size="14.00">Yes</text>
</g>
<!-- HandleNewJobCreation -->
<g id="node9" class="node">
<title>HandleNewJobCreation</title>
<polygon fill="none" stroke="black" points="363,-73.5 363,-109.5 457,-109.5 457,-73.5 363,-73.5"/>
<text text-anchor="middle" x="369" y="-87.8" font-family="Times,serif" font-size="14.00"> </text>
<polyline fill="none" stroke="black" points="375,-73.5 375,-109.5 "/>
<text text-anchor="middle" x="409.5" y="-95.3" font-family="Times,serif" font-size="14.00">New Job</text>
<text text-anchor="middle" x="409.5" y="-80.3" font-family="Times,serif" font-size="14.00">Creation</text>
<polyline fill="none" stroke="black" points="444,-73.5 444,-109.5 "/>
<text text-anchor="middle" x="450.5" y="-87.8" font-family="Times,serif" font-size="14.00"> </text>
</g>
<!-- CollisionExists&#45;&gt;HandleNewJobCreation -->
<g id="edge13" class="edge">
<title>CollisionExists&#45;&gt;HandleNewJobCreation</title>
<path fill="none" stroke="darkred" d="M345.14,-156.21C357.21,-144.36 372.64,-129.21 385.42,-116.65"/>
<polygon fill="darkred" stroke="darkred" points="387.91,-119.11 392.59,-109.6 383,-114.11 387.91,-119.11"/>
<text text-anchor="middle" x="334.64" y="-145.01" font-family="Times,serif" font-size="14.00">No</text>
</g>
<!-- 200 -->
<g id="node11" class="node">
<title>200</title>
<ellipse fill="none" stroke="green" cx="325" cy="-18" rx="47" ry="18"/>
<text text-anchor="middle" x="325" y="-14.3" font-family="Times,serif" font-size="14.00">200</text>
</g>
<!-- HandleJobCollision&#45;&gt;200 -->
<g id="edge14" class="edge">
<title>HandleJobCollision&#45;&gt;200</title>
<path fill="none" stroke="darkblue" d="M261.33,-73.19C272.54,-63.66 286.57,-51.71 298.62,-41.46"/>
<polygon fill="darkblue" stroke="darkblue" points="301.23,-43.83 306.57,-34.69 296.69,-38.5 301.23,-43.83"/>
</g>
<!-- HandleNewJobCreation&#45;&gt;200 -->
<g id="edge15" class="edge">
<title>HandleNewJobCreation&#45;&gt;200</title>
<path fill="none" stroke="darkblue" d="M389.42,-73.19C377.98,-63.56 363.61,-51.48 351.35,-41.16"/>
<polygon fill="darkblue" stroke="darkblue" points="353.55,-38.44 343.65,-34.69 349.05,-43.8 353.55,-38.44"/>
</g>
<!-- DB -->
<g id="node10" class="node">
<title>DB</title>
<path fill="none" stroke="purple" d="M124,-276.73C124,-278.53 102.93,-280 77,-280 51.07,-280 30,-278.53 30,-276.73 30,-276.73 30,-247.27 30,-247.27 30,-245.47 51.07,-244 77,-244 102.93,-244 124,-245.47 124,-247.27 124,-247.27 124,-276.73 124,-276.73"/>
<path fill="none" stroke="purple" d="M124,-276.73C124,-274.92 102.93,-273.45 77,-273.45 51.07,-273.45 30,-274.92 30,-276.73"/>
<text text-anchor="middle" x="77" y="-258.3" font-family="Times,serif" font-size="14.00">MBlast DB</text>
</g>
<!-- DB&#45;&gt;CheckForCollision -->
<g id="edge10" class="edge">
<title>DB&#45;&gt;CheckForCollision</title>
<path fill="none" stroke="#333333" stroke-dasharray="1,5" d="M124.47,-262C170.32,-262 216.18,-262 262.03,-262"/>
<polygon fill="#333333" stroke="#333333" points="262.13,-265.5 272.13,-262 262.13,-258.5 262.13,-265.5"/>
</g>
<!-- 400&#45;&gt;IsJobCompleted -->
<g id="edge8" class="edge">
<title>400&#45;&gt;IsJobCompleted</title>
<path fill="none" stroke="darkred" d="M104.23,-420C148.67,-420 193.11,-420 237.55,-420"/>
<polygon fill="darkred" stroke="darkred" points="104.15,-416.5 94.15,-420 104.15,-423.5 104.15,-416.5"/>
<text text-anchor="middle" x="227.05" y="-423.8" font-family="Times,serif" font-size="14.00">No</text>
</g>
<!-- 400&#45;&gt;DB -->
<!-- 401&#45;&gt;404 -->
</g>
</svg>
