<?xml version="1.0" encoding="UTF-8" standalone="no"?>
<!DOCTYPE svg PUBLIC "-//W3C//DTD SVG 1.1//EN"
 "http://www.w3.org/Graphics/SVG/1.1/DTD/svg11.dtd">
<!-- Generated by graphviz version 2.43.0 (0)
 -->
<!-- Title: %3 Pages: 1 -->
<svg width="495pt" height="703pt"
 viewBox="0.00 0.00 495.00 703.00" xmlns="http://www.w3.org/2000/svg" xmlns:xlink="http://www.w3.org/1999/xlink">
<g id="graph0" class="graph" transform="scale(1 1) rotate(0) translate(4 699)">
<title>%3</title>
<polygon fill="white" stroke="transparent" points="-4,4 -4,-699 491,-699 491,4 -4,4"/>
<!-- Start -->
<g id="node1" class="node">
<title>Start</title>
<ellipse fill="none" stroke="black" cx="259" cy="-677" rx="47" ry="18"/>
<text text-anchor="middle" x="259" y="-673.3" font-family="Times,serif" font-size="14.00">Start</text>
</g>
<!-- RefreshJobStatus -->
<g id="node5" class="node">
<title>RefreshJobStatus</title>
<polygon fill="none" stroke="black" points="199.5,-586.5 199.5,-622.5 318.5,-622.5 318.5,-586.5 199.5,-586.5"/>
<text text-anchor="middle" x="202" y="-600.8" font-family="Times,serif" font-size="14.00"> </text>
<polyline fill="none" stroke="black" points="204.5,-586.5 204.5,-622.5 "/>
<text text-anchor="middle" x="259" y="-608.3" font-family="Times,serif" font-size="14.00">Refresh Report</text>
<text text-anchor="middle" x="259" y="-593.3" font-family="Times,serif" font-size="14.00">Job Status</text>
<polyline fill="none" stroke="black" points="313.5,-586.5 313.5,-622.5 "/>
<text text-anchor="middle" x="316" y="-600.8" font-family="Times,serif" font-size="14.00"> </text>
</g>
<!-- Start&#45;&gt;RefreshJobStatus -->
<g id="edge1" class="edge">
<title>Start&#45;&gt;RefreshJobStatus</title>
<path fill="none" stroke="darkblue" d="M259,-658.93C259,-651.17 259,-641.78 259,-633.06"/>
<polygon fill="darkblue" stroke="darkblue" points="262.5,-632.9 259,-622.9 255.5,-632.9 262.5,-632.9"/>
</g>
<!-- End -->
<g id="node2" class="node">
<title>End</title>
<ellipse fill="none" stroke="black" cx="275" cy="-18" rx="47" ry="18"/>
<text text-anchor="middle" x="275" y="-14.3" font-family="Times,serif" font-size="14.00">End</text>
</g>
<!-- DB -->
<g id="node3" class="node">
<title>DB</title>
<path fill="none" stroke="purple" d="M478,-284.73C478,-286.53 456.93,-288 431,-288 405.07,-288 384,-286.53 384,-284.73 384,-284.73 384,-255.27 384,-255.27 384,-253.47 405.07,-252 431,-252 456.93,-252 478,-253.47 478,-255.27 478,-255.27 478,-284.73 478,-284.73"/>
<path fill="none" stroke="purple" d="M478,-284.73C478,-282.92 456.93,-281.45 431,-281.45 405.07,-281.45 384,-282.92 384,-284.73"/>
<text text-anchor="middle" x="431" y="-266.3" font-family="Times,serif" font-size="14.00">MBlast DB</text>
</g>
<!-- Queue -->
<g id="node4" class="node">
<title>Queue</title>
<polygon fill="none" stroke="purple" points="487,-538 393,-538 393,-534 389,-534 389,-530 393,-530 393,-510 389,-510 389,-506 393,-506 393,-502 487,-502 487,-538"/>
<polyline fill="none" stroke="purple" points="393,-534 397,-534 397,-530 393,-530 "/>
<polyline fill="none" stroke="purple" points="393,-510 397,-510 397,-506 393,-506 "/>
<text text-anchor="middle" x="440" y="-516.3" font-family="Times,serif" font-size="14.00">Job Queue</text>
</g>
<!-- RefreshJobStatus&#45;&gt;Queue -->
<!-- StatusIsExpired -->
<g id="node6" class="node">
<title>StatusIsExpired</title>
<polygon fill="none" stroke="black" points="79,-550 3,-520 79,-490 155,-520 79,-550"/>
<text text-anchor="middle" x="79" y="-523.8" font-family="Times,serif" font-size="14.00">Status is</text>
<text text-anchor="middle" x="79" y="-508.8" font-family="Times,serif" font-size="14.00">EXPIRED?</text>
</g>
<!-- RefreshJobStatus&#45;&gt;StatusIsExpired -->
<g id="edge2" class="edge">
<title>RefreshJobStatus&#45;&gt;StatusIsExpired</title>
<path fill="none" stroke="darkblue" d="M221.7,-586.41C192.9,-573.2 152.97,-554.9 122.68,-541.02"/>
<polygon fill="darkblue" stroke="darkblue" points="123.75,-537.66 113.2,-536.68 120.84,-544.03 123.75,-537.66"/>
</g>
<!-- SubmitToQueue -->
<g id="node7" class="node">
<title>SubmitToQueue</title>
<polygon fill="none" stroke="black" points="321,-538 227,-538 227,-502 321,-502 321,-538"/>
<text text-anchor="middle" x="274" y="-523.8" font-family="Times,serif" font-size="14.00">Submit to</text>
<text text-anchor="middle" x="274" y="-508.8" font-family="Times,serif" font-size="14.00">job queue</text>
</g>
<!-- StatusIsExpired&#45;&gt;SubmitToQueue -->
<g id="edge3" class="edge">
<title>StatusIsExpired&#45;&gt;SubmitToQueue</title>
<path fill="none" stroke="darkgreen" d="M155.17,-520C175.65,-520 196.13,-520 216.6,-520"/>
<polygon fill="darkgreen" stroke="darkgreen" points="216.65,-523.5 226.65,-520 216.65,-516.5 216.65,-523.5"/>
<text text-anchor="middle" x="167.67" y="-523.8" font-family="Times,serif" font-size="14.00">Yes</text>
</g>
<!-- GetUserJob -->
<g id="node9" class="node">
<title>GetUserJob</title>
<polygon fill="none" stroke="black" points="37,-336.5 37,-372.5 131,-372.5 131,-336.5 37,-336.5"/>
<text text-anchor="middle" x="40.5" y="-350.8" font-family="Times,serif" font-size="14.00"> </text>
<polyline fill="none" stroke="black" points="44,-336.5 44,-372.5 "/>
<text text-anchor="middle" x="83.5" y="-358.3" font-family="Times,serif" font-size="14.00">Get User</text>
<text text-anchor="middle" x="83.5" y="-343.3" font-family="Times,serif" font-size="14.00">Report Job</text>
<polyline fill="none" stroke="black" points="123,-336.5 123,-372.5 "/>
<text text-anchor="middle" x="127" y="-350.8" font-family="Times,serif" font-size="14.00"> </text>
</g>
<!-- StatusIsExpired&#45;&gt;GetUserJob -->
<g id="edge4" class="edge">
<title>StatusIsExpired&#45;&gt;GetUserJob</title>
<path fill="none" stroke="darkred" d="M79.88,-490.15C80.81,-459.77 82.26,-412.33 83.17,-382.62"/>
<polygon fill="darkred" stroke="darkred" points="86.67,-382.65 83.48,-372.55 79.67,-382.43 86.67,-382.65"/>
<text text-anchor="middle" x="69.38" y="-478.95" font-family="Times,serif" font-size="14.00">No</text>
</g>
<!-- SubmitToQueue&#45;&gt;Queue -->
<g id="edge5" class="edge">
<title>SubmitToQueue&#45;&gt;Queue</title>
<path fill="none" stroke="#333333" stroke-dasharray="1,5" d="M321.01,-520C341.52,-520 362.02,-520 382.52,-520"/>
<polygon fill="#333333" stroke="#333333" points="382.59,-523.5 392.59,-520 382.59,-516.5 382.59,-523.5"/>
</g>
<!-- UpdateStatus -->
<g id="node8" class="node">
<title>UpdateStatus</title>
<polygon fill="none" stroke="black" points="320,-454 226,-454 226,-409 320,-409 320,-454"/>
<text text-anchor="middle" x="273" y="-442.8" font-family="Times,serif" font-size="14.00">Update job</text>
<text text-anchor="middle" x="273" y="-427.8" font-family="Times,serif" font-size="14.00">status to</text>
<text text-anchor="middle" x="273" y="-412.8" font-family="Times,serif" font-size="14.00">QUEUED</text>
</g>
<!-- SubmitToQueue&#45;&gt;UpdateStatus -->
<g id="edge6" class="edge">
<title>SubmitToQueue&#45;&gt;UpdateStatus</title>
<path fill="none" stroke="darkblue" d="M273.8,-501.91C273.68,-491.22 273.52,-477.11 273.37,-464.4"/>
<polygon fill="darkblue" stroke="darkblue" points="276.87,-464.12 273.25,-454.17 269.87,-464.21 276.87,-464.12"/>
</g>
<!-- UpdateStatus&#45;&gt;DB -->
<g id="edge7" class="edge">
<title>UpdateStatus&#45;&gt;DB</title>
<path fill="none" stroke="#333333" stroke-dasharray="1,5" d="M294.31,-408.99C323.51,-379.51 375.82,-326.7 406.57,-295.66"/>
<polygon fill="#333333" stroke="#333333" points="409.34,-297.84 413.89,-288.27 404.37,-292.91 409.34,-297.84"/>
</g>
<!-- UpdateStatus&#45;&gt;GetUserJob -->
<g id="edge8" class="edge">
<title>UpdateStatus&#45;&gt;GetUserJob</title>
<path fill="none" stroke="darkblue" d="M225.79,-411.77C198.7,-401.02 164.62,-387.49 136.66,-376.4"/>
<polygon fill="darkblue" stroke="darkblue" points="137.64,-373.02 127.05,-372.58 135.06,-379.53 137.64,-373.02"/>
</g>
<!-- LinkUserToJob -->
<g id="node12" class="node">
<title>LinkUserToJob</title>
<polygon fill="none" stroke="black" points="312,-288 218,-288 218,-252 312,-252 312,-288"/>
<text text-anchor="middle" x="265" y="-273.8" font-family="Times,serif" font-size="14.00">Link user to</text>
<text text-anchor="middle" x="265" y="-258.8" font-family="Times,serif" font-size="14.00">report job</text>
</g>
<!-- UpdateStatus&#45;&gt;LinkUserToJob -->
<!-- UserJobExists -->
<g id="node10" class="node">
<title>UserJobExists</title>
<polygon fill="none" stroke="black" points="84,-300 23,-270 84,-240 145,-270 84,-300"/>
<text text-anchor="middle" x="84" y="-273.8" font-family="Times,serif" font-size="14.00">User job</text>
<text text-anchor="middle" x="84" y="-258.8" font-family="Times,serif" font-size="14.00">exists?</text>
</g>
<!-- GetUserJob&#45;&gt;UserJobExists -->
<g id="edge9" class="edge">
<title>GetUserJob&#45;&gt;UserJobExists</title>
<path fill="none" stroke="darkblue" d="M84,-336.41C84,-328.79 84,-319.49 84,-310.31"/>
<polygon fill="darkblue" stroke="darkblue" points="87.5,-310.1 84,-300.1 80.5,-310.1 87.5,-310.1"/>
</g>
<!-- DescriptionChange -->
<g id="node11" class="node">
<title>DescriptionChange</title>
<polygon fill="none" stroke="black" points="83,-204 0,-174 83,-144 166,-174 83,-204"/>
<text text-anchor="middle" x="83" y="-177.8" font-family="Times,serif" font-size="14.00">Description</text>
<text text-anchor="middle" x="83" y="-162.8" font-family="Times,serif" font-size="14.00">changed?</text>
</g>
<!-- UserJobExists&#45;&gt;DescriptionChange -->
<g id="edge10" class="edge">
<title>UserJobExists&#45;&gt;DescriptionChange</title>
<path fill="none" stroke="darkgreen" d="M83.69,-240.03C83.61,-231.9 83.51,-222.92 83.42,-214.3"/>
<polygon fill="darkgreen" stroke="darkgreen" points="86.92,-214 83.31,-204.04 79.92,-214.07 86.92,-214"/>
<text text-anchor="middle" x="71.19" y="-228.83" font-family="Times,serif" font-size="14.00">Yes</text>
</g>
<!-- UserJobExists&#45;&gt;LinkUserToJob -->
<g id="edge11" class="edge">
<title>UserJobExists&#45;&gt;LinkUserToJob</title>
<path fill="none" stroke="darkred" d="M145.16,-270C165.94,-270 186.73,-270 207.51,-270"/>
<polygon fill="darkred" stroke="darkred" points="207.72,-273.5 217.72,-270 207.72,-266.5 207.72,-273.5"/>
<text text-anchor="middle" x="155.66" y="-273.8" font-family="Times,serif" font-size="14.00">No</text>
</g>
<!-- DescriptionChange&#45;&gt;End -->
<g id="edge15" class="edge">
<title>DescriptionChange&#45;&gt;End</title>
<path fill="none" stroke="darkred" d="M108.1,-152.87C144.2,-123.91 210.52,-70.72 247.77,-40.84"/>
<polygon fill="darkred" stroke="darkred" points="250.08,-43.47 255.69,-34.48 245.7,-38.01 250.08,-43.47"/>
<text text-anchor="end" x="142.1" y="-141.67" font-family="Times,serif" font-size="14.00"> &#160;&#160;No</text>
</g>
<!-- UpdateDescription -->
<g id="node13" class="node">
<title>UpdateDescription</title>
<polygon fill="none" stroke="black" points="478,-108 384,-108 384,-72 478,-72 478,-108"/>
<text text-anchor="middle" x="431" y="-93.8" font-family="Times,serif" font-size="14.00">Update</text>
<text text-anchor="middle" x="431" y="-78.8" font-family="Times,serif" font-size="14.00">description</text>
</g>
<!-- DescriptionChange&#45;&gt;UpdateDescription -->
<g id="edge14" class="edge">
<title>DescriptionChange&#45;&gt;UpdateDescription</title>
<path fill="none" stroke="darkgreen" d="M131.75,-161.51C195.36,-146.52 306.48,-120.34 373.94,-104.45"/>
<polygon fill="darkgreen" stroke="darkgreen" points="375.04,-107.78 383.97,-102.08 373.43,-100.97 375.04,-107.78"/>
<text text-anchor="middle" x="164.25" y="-165.31" font-family="Times,serif" font-size="14.00"> &#160;&#160;&#160;&#160;&#160;&#160;&#160;&#160;Yes</text>
</g>
<!-- LinkUserToJob&#45;&gt;End -->
<g id="edge13" class="edge">
<title>LinkUserToJob&#45;&gt;End</title>
<path fill="none" stroke="darkblue" d="M265.69,-251.82C267.39,-209.18 271.83,-98.24 273.9,-46.42"/>
<polygon fill="darkblue" stroke="darkblue" points="277.41,-46.44 274.31,-36.3 270.41,-46.16 277.41,-46.44"/>
</g>
<!-- LinkUserToJob&#45;&gt;DB -->
<g id="edge12" class="edge">
<title>LinkUserToJob&#45;&gt;DB</title>
<path fill="none" stroke="#333333" stroke-dasharray="1,5" d="M312.01,-270C332.52,-270 353.02,-270 373.52,-270"/>
<polygon fill="#333333" stroke="#333333" points="373.59,-273.5 383.59,-270 373.59,-266.5 373.59,-273.5"/>
</g>
<!-- UpdateDescription&#45;&gt;End -->
<g id="edge17" class="edge">
<title>UpdateDescription&#45;&gt;End</title>
<path fill="none" stroke="darkblue" d="M392.84,-71.88C368.79,-61.08 337.83,-47.19 313.69,-36.36"/>
<polygon fill="darkblue" stroke="darkblue" points="315.02,-33.12 304.46,-32.22 312.15,-39.51 315.02,-33.12"/>
</g>
<!-- UpdateDescription&#45;&gt;DB -->
<g id="edge16" class="edge">
<title>UpdateDescription&#45;&gt;DB</title>
<path fill="none" stroke="#333333" stroke-dasharray="1,5" d="M431,-108.02C431,-138.94 431,-204.61 431,-241.81"/>
<polygon fill="#333333" stroke="#333333" points="427.5,-241.93 431,-251.93 434.5,-241.93 427.5,-241.93"/>
</g>
</g>
</svg>
