<?xml version="1.0" encoding="UTF-8" standalone="no"?>
<!DOCTYPE svg PUBLIC "-//W3C//DTD SVG 1.1//EN"
 "http://www.w3.org/Graphics/SVG/1.1/DTD/svg11.dtd">
<!-- Generated by graphviz version 2.43.0 (0)
 -->
<!-- Title: %3 Pages: 1 -->
<svg width="526pt" height="677pt"
 viewBox="0.00 0.00 526.00 677.43" xmlns="http://www.w3.org/2000/svg" xmlns:xlink="http://www.w3.org/1999/xlink">
<g id="graph0" class="graph" transform="scale(1 1) rotate(0) translate(4 673.43)">
<title>%3</title>
<polygon fill="white" stroke="transparent" points="-4,4 -4,-673.43 522,-673.43 522,4 -4,4"/>
<!-- Start -->
<g id="node1" class="node">
<title>Start</title>
<ellipse fill="none" stroke="black" cx="270" cy="-648.21" rx="47" ry="21.43"/>
<text text-anchor="middle" x="270" y="-652.01" font-family="Times,serif" font-size="14.00">POST</text>
<text text-anchor="middle" x="270" y="-637.01" font-family="Times,serif" font-size="14.00">/reports</text>
</g>
<!-- ValidateRequest -->
<g id="node2" class="node">
<title>ValidateRequest</title>
<polygon fill="none" stroke="black" points="223,-554.5 223,-590.5 317,-590.5 317,-554.5 223,-554.5"/>
<text text-anchor="middle" x="229.5" y="-568.8" font-family="Times,serif" font-size="14.00"> </text>
<polyline fill="none" stroke="black" points="236,-554.5 236,-590.5 "/>
<text text-anchor="middle" x="269.5" y="-576.3" font-family="Times,serif" font-size="14.00">Validate</text>
<text text-anchor="middle" x="269.5" y="-561.3" font-family="Times,serif" font-size="14.00">Request</text>
<polyline fill="none" stroke="black" points="303,-554.5 303,-590.5 "/>
<text text-anchor="middle" x="310" y="-568.8" font-family="Times,serif" font-size="14.00"> </text>
</g>
<!-- Start&#45;&gt;ValidateRequest -->
<g id="edge1" class="edge">
<title>Start&#45;&gt;ValidateRequest</title>
<path fill="none" stroke="darkblue" d="M270,-626.68C270,-618.77 270,-609.61 270,-601.14"/>
<polygon fill="darkblue" stroke="darkblue" points="273.5,-600.93 270,-590.93 266.5,-600.93 273.5,-600.93"/>
</g>
<!-- LookupUserJob -->
<g id="node3" class="node">
<title>LookupUserJob</title>
<polygon fill="none" stroke="black" points="223,-481.5 223,-517.5 317,-517.5 317,-481.5 223,-481.5"/>
<text text-anchor="middle" x="229" y="-495.8" font-family="Times,serif" font-size="14.00"> </text>
<polyline fill="none" stroke="black" points="235,-481.5 235,-517.5 "/>
<text text-anchor="middle" x="269.5" y="-503.3" font-family="Times,serif" font-size="14.00">Lookup</text>
<text text-anchor="middle" x="269.5" y="-488.3" font-family="Times,serif" font-size="14.00">User Job</text>
<polyline fill="none" stroke="black" points="304,-481.5 304,-517.5 "/>
<text text-anchor="middle" x="310.5" y="-495.8" font-family="Times,serif" font-size="14.00"> </text>
</g>
<!-- ValidateRequest&#45;&gt;LookupUserJob -->
<g id="edge2" class="edge">
<title>ValidateRequest&#45;&gt;LookupUserJob</title>
<path fill="none" stroke="darkblue" d="M270,-554.31C270,-546.29 270,-536.55 270,-527.57"/>
<polygon fill="darkblue" stroke="darkblue" points="273.5,-527.53 270,-517.53 266.5,-527.53 273.5,-527.53"/>
</g>
<!-- 400 -->
<g id="node12" class="node">
<title>400</title>
<ellipse fill="none" stroke="red" cx="47" cy="-415" rx="47" ry="18"/>
<text text-anchor="middle" x="47" y="-411.3" font-family="Times,serif" font-size="14.00">400</text>
</g>
<!-- ValidateRequest&#45;&gt;400 -->
<g id="edge3" class="edge">
<title>ValidateRequest&#45;&gt;400</title>
<path fill="none" stroke="red" d="M242.45,-554.3C226.17,-543.99 205.24,-530.51 187,-518 147.89,-491.18 103.84,-458.7 75.78,-437.71"/>
<polygon fill="red" stroke="red" points="77.71,-434.78 67.61,-431.58 73.51,-440.38 77.71,-434.78"/>
<text text-anchor="middle" x="199.95" y="-543.1" font-family="Times,serif" font-size="14.00">Validation &#160;&#160;</text>
<text text-anchor="middle" x="199.95" y="-528.1" font-family="Times,serif" font-size="14.00">Error &#160;&#160;&#160;&#160;&#160;&#160;</text>
</g>
<!-- 401 -->
<g id="node13" class="node">
<title>401</title>
<ellipse fill="none" stroke="red" cx="459" cy="-499.5" rx="47" ry="18"/>
<text text-anchor="middle" x="459" y="-495.8" font-family="Times,serif" font-size="14.00">401</text>
</g>
<!-- ValidateRequest&#45;&gt;401 -->
<g id="edge4" class="edge">
<title>ValidateRequest&#45;&gt;401</title>
<path fill="none" stroke="red" d="M315.27,-554.49C346.21,-542.87 386.92,-527.58 417.12,-516.23"/>
<polygon fill="red" stroke="red" points="418.39,-519.49 426.52,-512.7 415.93,-512.94 418.39,-519.49"/>
<text text-anchor="middle" x="368.77" y="-543.29" font-family="Times,serif" font-size="14.00">Auth</text>
<text text-anchor="middle" x="368.77" y="-528.29" font-family="Times,serif" font-size="14.00"> &#160;&#160;&#160;&#160;&#160;&#160;&#160;&#160;&#160;&#160;&#160;&#160;&#160;&#160;Error</text>
</g>
<!-- IsJobCompleted -->
<g id="node4" class="node">
<title>IsJobCompleted</title>
<polygon fill="none" stroke="black" points="259,-445 166,-415 259,-385 352,-415 259,-445"/>
<text text-anchor="middle" x="259" y="-418.8" font-family="Times,serif" font-size="14.00">Is job status</text>
<text text-anchor="middle" x="259" y="-403.8" font-family="Times,serif" font-size="14.00">COMPLETE?</text>
</g>
<!-- LookupUserJob&#45;&gt;IsJobCompleted -->
<g id="edge5" class="edge">
<title>LookupUserJob&#45;&gt;IsJobCompleted</title>
<path fill="none" stroke="darkblue" d="M267.72,-481.41C266.67,-473.5 265.37,-463.77 264.1,-454.26"/>
<polygon fill="darkblue" stroke="darkblue" points="267.54,-453.56 262.75,-444.11 260.6,-454.49 267.54,-453.56"/>
</g>
<!-- 404 -->
<g id="node14" class="node">
<title>404</title>
<ellipse fill="none" stroke="red" cx="471" cy="-415" rx="47" ry="18"/>
<text text-anchor="middle" x="471" y="-411.3" font-family="Times,serif" font-size="14.00">404</text>
</g>
<!-- LookupUserJob&#45;&gt;404 -->
<g id="edge6" class="edge">
<title>LookupUserJob&#45;&gt;404</title>
<path fill="none" stroke="red" d="M311.65,-481.41C346.65,-467.04 396.35,-446.64 430.91,-432.46"/>
<polygon fill="red" stroke="red" points="432.31,-435.67 440.23,-428.63 429.65,-429.19 432.31,-435.67"/>
<text text-anchor="middle" x="273.65" y="-470.21" font-family="Times,serif" font-size="14.00">Not Found</text>
</g>
<!-- HashConfig -->
<g id="node5" class="node">
<title>HashConfig</title>
<polygon fill="none" stroke="black" points="303,-349 209,-349 209,-313 303,-313 303,-349"/>
<text text-anchor="middle" x="256" y="-327.3" font-family="Times,serif" font-size="14.00">Hash config</text>
</g>
<!-- IsJobCompleted&#45;&gt;HashConfig -->
<g id="edge7" class="edge">
<title>IsJobCompleted&#45;&gt;HashConfig</title>
<path fill="none" stroke="darkgreen" d="M257.95,-385.32C257.64,-376.88 257.3,-367.67 257,-359.31"/>
<polygon fill="darkgreen" stroke="darkgreen" points="260.5,-359.17 256.63,-349.31 253.5,-359.43 260.5,-359.17"/>
<text text-anchor="middle" x="245.45" y="-374.12" font-family="Times,serif" font-size="14.00">Yes</text>
</g>
<!-- CheckForCollision -->
<g id="node6" class="node">
<title>CheckForCollision</title>
<polygon fill="none" stroke="black" points="306.5,-277 201.5,-277 201.5,-241 306.5,-241 306.5,-277"/>
<text text-anchor="middle" x="254" y="-262.8" font-family="Times,serif" font-size="14.00">Check for</text>
<text text-anchor="middle" x="254" y="-247.8" font-family="Times,serif" font-size="14.00">hash collisions</text>
</g>
<!-- HashConfig&#45;&gt;CheckForCollision -->
<g id="edge9" class="edge">
<title>HashConfig&#45;&gt;CheckForCollision</title>
<path fill="none" stroke="darkblue" d="M255.51,-312.7C255.29,-304.98 255.02,-295.71 254.77,-287.11"/>
<polygon fill="darkblue" stroke="darkblue" points="258.27,-287 254.49,-277.1 251.28,-287.2 258.27,-287"/>
</g>
<!-- CollisionExists -->
<g id="node7" class="node">
<title>CollisionExists</title>
<polygon fill="none" stroke="black" points="254,-205 192,-175 254,-145 316,-175 254,-205"/>
<text text-anchor="middle" x="254" y="-178.8" font-family="Times,serif" font-size="14.00">Collision</text>
<text text-anchor="middle" x="254" y="-163.8" font-family="Times,serif" font-size="14.00">exists?</text>
</g>
<!-- CheckForCollision&#45;&gt;CollisionExists -->
<g id="edge11" class="edge">
<title>CheckForCollision&#45;&gt;CollisionExists</title>
<path fill="none" stroke="darkblue" d="M254,-240.61C254,-233.24 254,-224.33 254,-215.52"/>
<polygon fill="darkblue" stroke="darkblue" points="257.5,-215.31 254,-205.31 250.5,-215.31 257.5,-215.31"/>
</g>
<!-- HandleJobCollision -->
<g id="node8" class="node">
<title>HandleJobCollision</title>
<polygon fill="none" stroke="black" points="120.5,-72.5 120.5,-108.5 219.5,-108.5 219.5,-72.5 120.5,-72.5"/>
<text text-anchor="middle" x="123" y="-86.8" font-family="Times,serif" font-size="14.00"> </text>
<polyline fill="none" stroke="black" points="125.5,-72.5 125.5,-108.5 "/>
<text text-anchor="middle" x="170" y="-94.3" font-family="Times,serif" font-size="14.00">Job Collision</text>
<text text-anchor="middle" x="170" y="-79.3" font-family="Times,serif" font-size="14.00">Handling</text>
<polyline fill="none" stroke="black" points="214.5,-72.5 214.5,-108.5 "/>
<text text-anchor="middle" x="217" y="-86.8" font-family="Times,serif" font-size="14.00"> </text>
</g>
<!-- CollisionExists&#45;&gt;HandleJobCollision -->
<g id="edge12" class="edge">
<title>CollisionExists&#45;&gt;HandleJobCollision</title>
<path fill="none" stroke="darkgreen" d="M234.09,-154.45C222.36,-142.93 207.41,-128.25 194.91,-115.96"/>
<polygon fill="darkgreen" stroke="darkgreen" points="197.07,-113.18 187.48,-108.67 192.17,-118.18 197.07,-113.18"/>
<text text-anchor="middle" x="221.59" y="-143.25" font-family="Times,serif" font-size="14.00">Yes</text>
</g>
<!-- HandleNewJobCreation -->
<g id="node9" class="node">
<title>HandleNewJobCreation</title>
<polygon fill="none" stroke="black" points="292,-72.5 292,-108.5 386,-108.5 386,-72.5 292,-72.5"/>
<text text-anchor="middle" x="298" y="-86.8" font-family="Times,serif" font-size="14.00"> </text>
<polyline fill="none" stroke="black" points="304,-72.5 304,-108.5 "/>
<text text-anchor="middle" x="338.5" y="-94.3" font-family="Times,serif" font-size="14.00">New Job</text>
<text text-anchor="middle" x="338.5" y="-79.3" font-family="Times,serif" font-size="14.00">Creation</text>
<polyline fill="none" stroke="black" points="373,-72.5 373,-108.5 "/>
<text text-anchor="middle" x="379.5" y="-86.8" font-family="Times,serif" font-size="14.00"> </text>
</g>
<!-- CollisionExists&#45;&gt;HandleNewJobCreation -->
<g id="edge13" class="edge">
<title>CollisionExists&#45;&gt;HandleNewJobCreation</title>
<path fill="none" stroke="darkred" d="M274.14,-154.45C286.02,-142.93 301.14,-128.25 313.8,-115.96"/>
<polygon fill="darkred" stroke="darkred" points="316.57,-118.15 321.31,-108.67 311.69,-113.13 316.57,-118.15"/>
<text text-anchor="middle" x="263.64" y="-143.25" font-family="Times,serif" font-size="14.00">No</text>
</g>
<!-- 200 -->
<g id="node11" class="node">
<title>200</title>
<ellipse fill="none" stroke="green" cx="254" cy="-18" rx="47" ry="18"/>
<text text-anchor="middle" x="254" y="-14.3" font-family="Times,serif" font-size="14.00">200</text>
</g>
<!-- HandleJobCollision&#45;&gt;200 -->
<g id="edge14" class="edge">
<title>HandleJobCollision&#45;&gt;200</title>
<path fill="none" stroke="darkblue" d="M190.33,-72.43C201.46,-63.1 215.38,-51.42 227.36,-41.36"/>
<polygon fill="darkblue" stroke="darkblue" points="229.88,-43.81 235.29,-34.7 225.38,-38.45 229.88,-43.81"/>
</g>
<!-- HandleNewJobCreation&#45;&gt;200 -->
<g id="edge15" class="edge">
<title>HandleNewJobCreation&#45;&gt;200</title>
<path fill="none" stroke="darkblue" d="M318.42,-72.43C307.17,-63.1 293.08,-51.42 280.96,-41.36"/>
<polygon fill="darkblue" stroke="darkblue" points="282.87,-38.39 272.93,-34.7 278.4,-43.78 282.87,-38.39"/>
</g>
<!-- DB -->
<g id="node10" class="node">
<title>DB</title>
<path fill="none" stroke="purple" d="M124,-273.73C124,-275.53 102.93,-277 77,-277 51.07,-277 30,-275.53 30,-273.73 30,-273.73 30,-244.27 30,-244.27 30,-242.47 51.07,-241 77,-241 102.93,-241 124,-242.47 124,-244.27 124,-244.27 124,-273.73 124,-273.73"/>
<path fill="none" stroke="purple" d="M124,-273.73C124,-271.92 102.93,-270.45 77,-270.45 51.07,-270.45 30,-271.92 30,-273.73"/>
<text text-anchor="middle" x="77" y="-255.3" font-family="Times,serif" font-size="14.00">MBlast DB</text>
</g>
<!-- DB&#45;&gt;CheckForCollision -->
<g id="edge10" class="edge">
<title>DB&#45;&gt;CheckForCollision</title>
<path fill="none" stroke="#333333" stroke-dasharray="1,5" d="M124.02,-259C146.4,-259 168.78,-259 191.16,-259"/>
<polygon fill="#333333" stroke="#333333" points="191.45,-262.5 201.45,-259 191.45,-255.5 191.45,-262.5"/>
</g>
<!-- 400&#45;&gt;IsJobCompleted -->
<g id="edge8" class="edge">
<title>400&#45;&gt;IsJobCompleted</title>
<path fill="none" stroke="darkred" d="M104.3,-415C124.86,-415 145.42,-415 165.98,-415"/>
<polygon fill="darkred" stroke="darkred" points="104.2,-411.5 94.2,-415 104.2,-418.5 104.2,-411.5"/>
<text text-anchor="middle" x="155.48" y="-418.8" font-family="Times,serif" font-size="14.00">No</text>
</g>
<!-- 400&#45;&gt;DB -->
<!-- 401&#45;&gt;404 -->
<!-- Has -->
<g id="node15" class="node">
<title>Has</title>
<polygon fill="none" stroke="black" points="473,-277 379,-277 379,-241 473,-241 473,-277"/>
<text text-anchor="middle" x="426" y="-255.3" font-family="Times,serif" font-size="14.00">Has</text>
</g>
</g>
</svg>
