<?xml version="1.0" encoding="UTF-8" standalone="no"?>
<!DOCTYPE svg PUBLIC "-//W3C//DTD SVG 1.1//EN"
 "http://www.w3.org/Graphics/SVG/1.1/DTD/svg11.dtd">
<!-- Generated by graphviz version 2.43.0 (0)
 -->
<!-- Title: %3 Pages: 1 -->
<svg width="434pt" height="44pt"
 viewBox="0.00 0.00 434.00 44.00" xmlns="http://www.w3.org/2000/svg" xmlns:xlink="http://www.w3.org/1999/xlink">
<g id="graph0" class="graph" transform="scale(1 1) rotate(0) translate(4 40)">
<title>%3</title>
<polygon fill="white" stroke="transparent" points="-4,4 -4,-40 430,-40 430,4 -4,4"/>
<!-- Start -->
<g id="node1" class="node">
<title>Start</title>
<ellipse fill="none" stroke="black" cx="47" cy="-18" rx="47" ry="18"/>
<text text-anchor="middle" x="47" y="-14.3" font-family="Times,serif" font-size="14.00">Start</text>
</g>
<!-- End -->
<g id="node2" class="node">
<title>End</title>
<ellipse fill="none" stroke="black" cx="213" cy="-18" rx="47" ry="18"/>
<text text-anchor="middle" x="213" y="-14.3" font-family="Times,serif" font-size="14.00">End</text>
</g>
<!-- DB -->
<g id="node3" class="node">
<title>DB</title>
<path fill="none" stroke="purple" d="M426,-32.73C426,-34.53 404.93,-36 379,-36 353.07,-36 332,-34.53 332,-32.73 332,-32.73 332,-3.27 332,-3.27 332,-1.47 353.07,0 379,0 404.93,0 426,-1.47 426,-3.27 426,-3.27 426,-32.73 426,-32.73"/>
<path fill="none" stroke="purple" d="M426,-32.73C426,-30.92 404.93,-29.45 379,-29.45 353.07,-29.45 332,-30.92 332,-32.73"/>
<text text-anchor="middle" x="379" y="-14.3" font-family="Times,serif" font-size="14.00">MBlast DB</text>
</g>
</g>
</svg>
