<?xml version="1.0" encoding="UTF-8" standalone="no"?>
<!DOCTYPE svg PUBLIC "-//W3C//DTD SVG 1.1//EN"
 "http://www.w3.org/Graphics/SVG/1.1/DTD/svg11.dtd">
<!-- Generated by graphviz version 2.43.0 (0)
 -->
<!-- Title: %3 Pages: 1 -->
<svg width="472pt" height="677pt"
 viewBox="0.00 0.00 472.00 677.43" xmlns="http://www.w3.org/2000/svg" xmlns:xlink="http://www.w3.org/1999/xlink">
<g id="graph0" class="graph" transform="scale(1 1) rotate(0) translate(4 673.43)">
<title>%3</title>
<polygon fill="white" stroke="transparent" points="-4,4 -4,-673.43 468,-673.43 468,4 -4,4"/>
<!-- Start -->
<g id="node1" class="node">
<title>Start</title>
<ellipse fill="none" stroke="green" cx="235" cy="-648.21" rx="47" ry="21.43"/>
<text text-anchor="middle" x="235" y="-652.01" font-family="Times,serif" font-size="14.00">POST</text>
<text text-anchor="middle" x="235" y="-637.01" font-family="Times,serif" font-size="14.00">/reports</text>
</g>
<!-- ValidateRequest -->
<g id="node2" class="node">
<title>ValidateRequest</title>
<polygon fill="none" stroke="black" points="188,-554.5 188,-590.5 282,-590.5 282,-554.5 188,-554.5"/>
<text text-anchor="middle" x="192.5" y="-568.8" font-family="Times,serif" font-size="14.00"> </text>
<polyline fill="none" stroke="black" points="197,-554.5 197,-590.5 "/>
<text text-anchor="middle" x="235" y="-576.3" font-family="Times,serif" font-size="14.00">Request</text>
<text text-anchor="middle" x="235" y="-561.3" font-family="Times,serif" font-size="14.00">Validation</text>
<polyline fill="none" stroke="black" points="273,-554.5 273,-590.5 "/>
<text text-anchor="middle" x="277.5" y="-568.8" font-family="Times,serif" font-size="14.00"> </text>
</g>
<!-- Start&#45;&gt;ValidateRequest -->
<g id="edge1" class="edge">
<title>Start&#45;&gt;ValidateRequest</title>
<path fill="none" stroke="darkblue" d="M235,-626.72C235,-626.72 235,-600.71 235,-600.71"/>
<polygon fill="darkblue" stroke="darkblue" points="238.5,-600.71 235,-590.71 231.5,-600.71 238.5,-600.71"/>
</g>
<!-- R1 -->
<g id="node16" class="node">
<title>R1</title>
</g>
<!-- Start&#45;&gt;R1 -->
<!-- LookupUserJob -->
<g id="node3" class="node">
<title>LookupUserJob</title>
<polygon fill="none" stroke="black" points="182,-481.5 182,-517.5 284,-517.5 284,-481.5 182,-481.5"/>
<text text-anchor="middle" x="184.5" y="-495.8" font-family="Times,serif" font-size="14.00"> </text>
<polyline fill="none" stroke="black" points="187,-481.5 187,-517.5 "/>
<text text-anchor="middle" x="233" y="-503.3" font-family="Times,serif" font-size="14.00">Get and Link</text>
<text text-anchor="middle" x="233" y="-488.3" font-family="Times,serif" font-size="14.00">User Job</text>
<polyline fill="none" stroke="black" points="279,-481.5 279,-517.5 "/>
<text text-anchor="middle" x="281.5" y="-495.8" font-family="Times,serif" font-size="14.00"> </text>
</g>
<!-- ValidateRequest&#45;&gt;LookupUserJob -->
<g id="edge2" class="edge">
<title>ValidateRequest&#45;&gt;LookupUserJob</title>
<path fill="none" stroke="darkblue" d="M235,-554.46C235,-554.46 235,-527.59 235,-527.59"/>
<polygon fill="darkblue" stroke="darkblue" points="238.5,-527.59 235,-517.59 231.5,-527.59 238.5,-527.59"/>
</g>
<!-- 400 -->
<g id="node12" class="node">
<title>400</title>
<ellipse fill="none" stroke="red" cx="55" cy="-572.5" rx="47" ry="18"/>
<text text-anchor="middle" x="55" y="-568.8" font-family="Times,serif" font-size="14.00">400</text>
</g>
<!-- ValidateRequest&#45;&gt;400 -->
<g id="edge3" class="edge">
<title>ValidateRequest&#45;&gt;400</title>
<path fill="none" stroke="red" d="M187.71,-572C187.71,-572 112.29,-572 112.29,-572"/>
<polygon fill="red" stroke="red" points="112.29,-568.5 102.29,-572 112.29,-575.5 112.29,-568.5"/>
<text text-anchor="middle" x="130.21" y="-575.8" font-family="Times,serif" font-size="14.00">Validation Error</text>
</g>
<!-- 401 -->
<g id="node13" class="node">
<title>401</title>
<ellipse fill="none" stroke="red" cx="415" cy="-572.5" rx="47" ry="18"/>
<text text-anchor="middle" x="415" y="-568.8" font-family="Times,serif" font-size="14.00">401</text>
</g>
<!-- ValidateRequest&#45;&gt;401 -->
<g id="edge4" class="edge">
<title>ValidateRequest&#45;&gt;401</title>
<path fill="none" stroke="red" d="M282.29,-572C282.29,-572 357.71,-572 357.71,-572"/>
<polygon fill="red" stroke="red" points="357.71,-575.5 367.71,-572 357.71,-568.5 357.71,-575.5"/>
<text text-anchor="middle" x="321.29" y="-575.8" font-family="Times,serif" font-size="14.00">Auth Error</text>
</g>
<!-- IsJobCompleted -->
<g id="node4" class="node">
<title>IsJobCompleted</title>
<polygon fill="none" stroke="black" points="233,-445 140,-415 233,-385 326,-415 233,-445"/>
<text text-anchor="middle" x="233" y="-418.8" font-family="Times,serif" font-size="14.00">Is job status</text>
<text text-anchor="middle" x="233" y="-403.8" font-family="Times,serif" font-size="14.00">COMPLETE?</text>
</g>
<!-- LookupUserJob&#45;&gt;IsJobCompleted -->
<g id="edge5" class="edge">
<title>LookupUserJob&#45;&gt;IsJobCompleted</title>
<path fill="none" stroke="darkblue" d="M233,-481.16C233,-481.16 233,-455.26 233,-455.26"/>
<polygon fill="darkblue" stroke="darkblue" points="236.5,-455.26 233,-445.26 229.5,-455.26 236.5,-455.26"/>
</g>
<!-- 404 -->
<g id="node14" class="node">
<title>404</title>
<ellipse fill="none" stroke="red" cx="417" cy="-499.5" rx="47" ry="18"/>
<text text-anchor="middle" x="417" y="-495.8" font-family="Times,serif" font-size="14.00">404</text>
</g>
<!-- LookupUserJob&#45;&gt;404 -->
<g id="edge6" class="edge">
<title>LookupUserJob&#45;&gt;404</title>
<path fill="none" stroke="red" d="M284.25,-499C284.25,-499 359.8,-499 359.8,-499"/>
<polygon fill="red" stroke="red" points="359.8,-502.5 369.8,-499 359.8,-495.5 359.8,-502.5"/>
<text text-anchor="middle" x="322.25" y="-502.8" font-family="Times,serif" font-size="14.00">Not Found</text>
</g>
<!-- HashConfig -->
<g id="node5" class="node">
<title>HashConfig</title>
<polygon fill="none" stroke="black" points="280,-349 186,-349 186,-313 280,-313 280,-349"/>
<text text-anchor="middle" x="233" y="-327.3" font-family="Times,serif" font-size="14.00">Hash config</text>
</g>
<!-- IsJobCompleted&#45;&gt;HashConfig -->
<g id="edge7" class="edge">
<title>IsJobCompleted&#45;&gt;HashConfig</title>
<path fill="none" stroke="darkgreen" d="M233,-384.67C233,-384.67 233,-359.3 233,-359.3"/>
<polygon fill="darkgreen" stroke="darkgreen" points="236.5,-359.3 233,-349.3 229.5,-359.3 236.5,-359.3"/>
<text text-anchor="middle" x="220.5" y="-373.47" font-family="Times,serif" font-size="14.00">Yes</text>
</g>
<!-- IsJobCompleted&#45;&gt;400 -->
<g id="edge8" class="edge">
<title>IsJobCompleted&#45;&gt;400</title>
<path fill="none" stroke="darkred" d="M139.97,-415C116.59,-415 98,-415 98,-415 98,-415 98,-554.9 98,-554.9"/>
<polygon fill="darkred" stroke="darkred" points="94.5,-554.9 98,-564.9 101.5,-554.9 94.5,-554.9"/>
<text text-anchor="middle" x="129.47" y="-418.8" font-family="Times,serif" font-size="14.00">No</text>
</g>
<!-- CheckForCollision -->
<g id="node6" class="node">
<title>CheckForCollision</title>
<polygon fill="none" stroke="black" points="285.5,-277 180.5,-277 180.5,-241 285.5,-241 285.5,-277"/>
<text text-anchor="middle" x="233" y="-262.8" font-family="Times,serif" font-size="14.00">Check for</text>
<text text-anchor="middle" x="233" y="-247.8" font-family="Times,serif" font-size="14.00">hash collisions</text>
</g>
<!-- HashConfig&#45;&gt;CheckForCollision -->
<g id="edge9" class="edge">
<title>HashConfig&#45;&gt;CheckForCollision</title>
<path fill="none" stroke="darkblue" d="M233,-312.83C233,-312.83 233,-287.41 233,-287.41"/>
<polygon fill="darkblue" stroke="darkblue" points="236.5,-287.41 233,-277.41 229.5,-287.41 236.5,-287.41"/>
</g>
<!-- CollisionExists -->
<g id="node7" class="node">
<title>CollisionExists</title>
<polygon fill="none" stroke="black" points="233,-205 171,-175 233,-145 295,-175 233,-205"/>
<text text-anchor="middle" x="233" y="-178.8" font-family="Times,serif" font-size="14.00">Collision</text>
<text text-anchor="middle" x="233" y="-163.8" font-family="Times,serif" font-size="14.00">exists?</text>
</g>
<!-- CheckForCollision&#45;&gt;CollisionExists -->
<g id="edge11" class="edge">
<title>CheckForCollision&#45;&gt;CollisionExists</title>
<path fill="none" stroke="darkblue" d="M233,-240.77C233,-240.77 233,-215.08 233,-215.08"/>
<polygon fill="darkblue" stroke="darkblue" points="236.5,-215.08 233,-205.08 229.5,-215.08 236.5,-215.08"/>
</g>
<!-- HandleJobCollision -->
<g id="node8" class="node">
<title>HandleJobCollision</title>
<polygon fill="none" stroke="black" points="92.5,-72.5 92.5,-108.5 191.5,-108.5 191.5,-72.5 92.5,-72.5"/>
<text text-anchor="middle" x="95" y="-86.8" font-family="Times,serif" font-size="14.00"> </text>
<polyline fill="none" stroke="black" points="97.5,-72.5 97.5,-108.5 "/>
<text text-anchor="middle" x="142" y="-94.3" font-family="Times,serif" font-size="14.00">Job Collision</text>
<text text-anchor="middle" x="142" y="-79.3" font-family="Times,serif" font-size="14.00">Handling</text>
<polyline fill="none" stroke="black" points="186.5,-72.5 186.5,-108.5 "/>
<text text-anchor="middle" x="189" y="-86.8" font-family="Times,serif" font-size="14.00"> </text>
</g>
<!-- CollisionExists&#45;&gt;HandleJobCollision -->
<g id="edge12" class="edge">
<title>CollisionExists&#45;&gt;HandleJobCollision</title>
<path fill="none" stroke="darkgreen" d="M181.25,-169.97C181.25,-169.97 181.25,-118.69 181.25,-118.69"/>
<polygon fill="darkgreen" stroke="darkgreen" points="184.75,-118.69 181.25,-108.69 177.75,-118.69 184.75,-118.69"/>
<text text-anchor="middle" x="168.75" y="-173.77" font-family="Times,serif" font-size="14.00">Yes</text>
</g>
<!-- HandleNewJobCreation -->
<g id="node9" class="node">
<title>HandleNewJobCreation</title>
<polygon fill="none" stroke="black" points="278,-72.5 278,-108.5 372,-108.5 372,-72.5 278,-72.5"/>
<text text-anchor="middle" x="284" y="-86.8" font-family="Times,serif" font-size="14.00"> </text>
<polyline fill="none" stroke="black" points="290,-72.5 290,-108.5 "/>
<text text-anchor="middle" x="324.5" y="-94.3" font-family="Times,serif" font-size="14.00">New Job</text>
<text text-anchor="middle" x="324.5" y="-79.3" font-family="Times,serif" font-size="14.00">Creation</text>
<polyline fill="none" stroke="black" points="359,-72.5 359,-108.5 "/>
<text text-anchor="middle" x="365.5" y="-86.8" font-family="Times,serif" font-size="14.00"> </text>
</g>
<!-- CollisionExists&#45;&gt;HandleNewJobCreation -->
<g id="edge13" class="edge">
<title>CollisionExists&#45;&gt;HandleNewJobCreation</title>
<path fill="none" stroke="darkred" d="M286.5,-170.46C286.5,-170.46 286.5,-118.62 286.5,-118.62"/>
<polygon fill="darkred" stroke="darkred" points="290,-118.62 286.5,-108.62 283,-118.62 290,-118.62"/>
<text text-anchor="middle" x="297" y="-174.26" font-family="Times,serif" font-size="14.00">No</text>
</g>
<!-- 200 -->
<g id="node11" class="node">
<title>200</title>
<ellipse fill="none" stroke="green" cx="233" cy="-18" rx="47" ry="18"/>
<text text-anchor="middle" x="233" y="-14.3" font-family="Times,serif" font-size="14.00">200</text>
</g>
<!-- HandleJobCollision&#45;&gt;200 -->
<g id="edge14" class="edge">
<title>HandleJobCollision&#45;&gt;200</title>
<path fill="none" stroke="darkblue" d="M191.61,-84C207.16,-84 220.33,-84 220.33,-84 220.33,-84 220.33,-45.34 220.33,-45.34"/>
<polygon fill="darkblue" stroke="darkblue" points="223.83,-45.34 220.33,-35.34 216.83,-45.34 223.83,-45.34"/>
</g>
<!-- HandleNewJobCreation&#45;&gt;200 -->
<g id="edge15" class="edge">
<title>HandleNewJobCreation&#45;&gt;200</title>
<path fill="none" stroke="darkblue" d="M277.84,-96C262.41,-96 249.17,-96 249.17,-96 249.17,-96 249.17,-44.92 249.17,-44.92"/>
<polygon fill="darkblue" stroke="darkblue" points="252.67,-44.92 249.17,-34.92 245.67,-44.92 252.67,-44.92"/>
</g>
<!-- DB -->
<g id="node10" class="node">
<title>DB</title>
<path fill="none" stroke="purple" d="M94,-273.73C94,-275.53 72.93,-277 47,-277 21.07,-277 0,-275.53 0,-273.73 0,-273.73 0,-244.27 0,-244.27 0,-242.47 21.07,-241 47,-241 72.93,-241 94,-242.47 94,-244.27 94,-244.27 94,-273.73 94,-273.73"/>
<path fill="none" stroke="purple" d="M94,-273.73C94,-271.92 72.93,-270.45 47,-270.45 21.07,-270.45 0,-271.92 0,-273.73"/>
<text text-anchor="middle" x="47" y="-255.3" font-family="Times,serif" font-size="14.00">MBlast DB</text>
</g>
<!-- DB&#45;&gt;CheckForCollision -->
<g id="edge10" class="edge">
<title>DB&#45;&gt;CheckForCollision</title>
<path fill="none" stroke="#333333" stroke-dasharray="1,5" d="M94.42,-259C94.42,-259 170.43,-259 170.43,-259"/>
<polygon fill="#333333" stroke="#333333" points="170.43,-262.5 180.43,-259 170.43,-255.5 170.43,-262.5"/>
</g>
<!-- 401&#45;&gt;404 -->
<!-- L1 -->
<g id="node15" class="node">
<title>L1</title>
</g>
<!-- L1&#45;&gt;Start -->
<!-- L1&#45;&gt;400 -->
<!-- R1&#45;&gt;401 -->
</g>
</svg>
