<?xml version="1.0" encoding="UTF-8" standalone="no"?>
<!DOCTYPE svg PUBLIC "-//W3C//DTD SVG 1.1//EN"
 "http://www.w3.org/Graphics/SVG/1.1/DTD/svg11.dtd">
<!-- Generated by graphviz version 2.43.0 (0)
 -->
<!-- Title: %3 Pages: 1 -->
<svg width="268pt" height="332pt"
 viewBox="0.00 0.00 268.00 332.00" xmlns="http://www.w3.org/2000/svg" xmlns:xlink="http://www.w3.org/1999/xlink">
<g id="graph0" class="graph" transform="scale(1 1) rotate(0) translate(4 328)">
<title>%3</title>
<polygon fill="white" stroke="transparent" points="-4,4 -4,-328 264,-328 264,4 -4,4"/>
<!-- Start -->
<g id="node1" class="node">
<title>Start</title>
<ellipse fill="none" stroke="black" cx="47" cy="-306" rx="47" ry="18"/>
<text text-anchor="middle" x="47" y="-302.3" font-family="Times,serif" font-size="14.00">Start</text>
</g>
<!-- SubmitJob -->
<g id="node5" class="node">
<title>SubmitJob</title>
<polygon fill="none" stroke="black" points="94,-252 0,-252 0,-216 94,-216 94,-252"/>
<text text-anchor="middle" x="47" y="-237.8" font-family="Times,serif" font-size="14.00">Submit job</text>
<text text-anchor="middle" x="47" y="-222.8" font-family="Times,serif" font-size="14.00">to queue</text>
</g>
<!-- Start&#45;&gt;SubmitJob -->
<g id="edge1" class="edge">
<title>Start&#45;&gt;SubmitJob</title>
<path fill="none" stroke="darkblue" d="M47,-287.7C47,-279.98 47,-270.71 47,-262.11"/>
<polygon fill="darkblue" stroke="darkblue" points="50.5,-262.1 47,-252.1 43.5,-262.1 50.5,-262.1"/>
</g>
<!-- End -->
<g id="node2" class="node">
<title>End</title>
<ellipse fill="none" stroke="black" cx="47" cy="-18" rx="47" ry="18"/>
<text text-anchor="middle" x="47" y="-14.3" font-family="Times,serif" font-size="14.00">End</text>
</g>
<!-- DB -->
<g id="node3" class="node">
<title>DB</title>
<path fill="none" stroke="purple" d="M260,-104.73C260,-106.53 238.93,-108 213,-108 187.07,-108 166,-106.53 166,-104.73 166,-104.73 166,-75.27 166,-75.27 166,-73.47 187.07,-72 213,-72 238.93,-72 260,-73.47 260,-75.27 260,-75.27 260,-104.73 260,-104.73"/>
<path fill="none" stroke="purple" d="M260,-104.73C260,-102.92 238.93,-101.45 213,-101.45 187.07,-101.45 166,-102.92 166,-104.73"/>
<text text-anchor="middle" x="213" y="-86.3" font-family="Times,serif" font-size="14.00">MBlast DB</text>
</g>
<!-- Queue -->
<g id="node4" class="node">
<title>Queue</title>
<polygon fill="none" stroke="purple" points="260,-252 166,-252 166,-248 162,-248 162,-244 166,-244 166,-224 162,-224 162,-220 166,-220 166,-216 260,-216 260,-252"/>
<polyline fill="none" stroke="purple" points="166,-248 170,-248 170,-244 166,-244 "/>
<polyline fill="none" stroke="purple" points="166,-224 170,-224 170,-220 166,-220 "/>
<text text-anchor="middle" x="213" y="-230.3" font-family="Times,serif" font-size="14.00">Job Queue</text>
</g>
<!-- SubmitJob&#45;&gt;Queue -->
<g id="edge2" class="edge">
<title>SubmitJob&#45;&gt;Queue</title>
<path fill="none" stroke="#333333" stroke-dasharray="1,5" d="M94.01,-234C114.52,-234 135.02,-234 155.52,-234"/>
<polygon fill="#333333" stroke="#333333" points="155.59,-237.5 165.59,-234 155.59,-230.5 155.59,-237.5"/>
</g>
<!-- InsertJob -->
<g id="node6" class="node">
<title>InsertJob</title>
<polygon fill="none" stroke="black" points="94,-180 0,-180 0,-144 94,-144 94,-180"/>
<text text-anchor="middle" x="47" y="-165.8" font-family="Times,serif" font-size="14.00">Insert new</text>
<text text-anchor="middle" x="47" y="-150.8" font-family="Times,serif" font-size="14.00">job row</text>
</g>
<!-- SubmitJob&#45;&gt;InsertJob -->
<g id="edge3" class="edge">
<title>SubmitJob&#45;&gt;InsertJob</title>
<path fill="none" stroke="darkblue" d="M47,-215.7C47,-207.98 47,-198.71 47,-190.11"/>
<polygon fill="darkblue" stroke="darkblue" points="50.5,-190.1 47,-180.1 43.5,-190.1 50.5,-190.1"/>
</g>
<!-- InsertJob&#45;&gt;DB -->
<g id="edge4" class="edge">
<title>InsertJob&#45;&gt;DB</title>
<path fill="none" stroke="#333333" stroke-dasharray="1,5" d="M87.61,-143.88C111,-134.01 140.52,-121.56 165.05,-111.22"/>
<polygon fill="#333333" stroke="#333333" points="166.67,-114.34 174.52,-107.23 163.95,-107.89 166.67,-114.34"/>
</g>
<!-- LinkUser -->
<g id="node7" class="node">
<title>LinkUser</title>
<polygon fill="none" stroke="black" points="94,-108 0,-108 0,-72 94,-72 94,-108"/>
<text text-anchor="middle" x="47" y="-93.8" font-family="Times,serif" font-size="14.00">Link user</text>
<text text-anchor="middle" x="47" y="-78.8" font-family="Times,serif" font-size="14.00">to job</text>
</g>
<!-- InsertJob&#45;&gt;LinkUser -->
<g id="edge5" class="edge">
<title>InsertJob&#45;&gt;LinkUser</title>
<path fill="none" stroke="darkblue" d="M47,-143.7C47,-135.98 47,-126.71 47,-118.11"/>
<polygon fill="darkblue" stroke="darkblue" points="50.5,-118.1 47,-108.1 43.5,-118.1 50.5,-118.1"/>
</g>
<!-- LinkUser&#45;&gt;End -->
<g id="edge7" class="edge">
<title>LinkUser&#45;&gt;End</title>
<path fill="none" stroke="darkblue" d="M47,-71.7C47,-63.98 47,-54.71 47,-46.11"/>
<polygon fill="darkblue" stroke="darkblue" points="50.5,-46.1 47,-36.1 43.5,-46.1 50.5,-46.1"/>
</g>
<!-- LinkUser&#45;&gt;DB -->
<g id="edge6" class="edge">
<title>LinkUser&#45;&gt;DB</title>
<path fill="none" stroke="#333333" stroke-dasharray="1,5" d="M94.01,-90C114.52,-90 135.02,-90 155.52,-90"/>
<polygon fill="#333333" stroke="#333333" points="155.59,-93.5 165.59,-90 155.59,-86.5 155.59,-93.5"/>
</g>
</g>
</svg>
