<?xml version="1.0" encoding="UTF-8" standalone="no"?>
<!DOCTYPE svg PUBLIC "-//W3C//DTD SVG 1.1//EN"
 "http://www.w3.org/Graphics/SVG/1.1/DTD/svg11.dtd">
<!-- Generated by graphviz version 2.43.0 (0)
 -->
<!-- Title: %3 Pages: 1 -->
<svg width="856pt" height="1063pt"
 viewBox="0.00 0.00 856.00 1063.25" xmlns="http://www.w3.org/2000/svg" xmlns:xlink="http://www.w3.org/1999/xlink">
<g id="graph0" class="graph" transform="scale(1 1) rotate(0) translate(4 1059.25)">
<title>%3</title>
<polygon fill="white" stroke="transparent" points="-4,4 -4,-1059.25 852,-1059.25 852,4 -4,4"/>
<text text-anchor="middle" x="424" y="-1040.05" font-family="Times,serif" font-size="14.00">For Each Sub&#45;Job</text>
<!-- Start -->
<g id="node1" class="node">
<title>Start</title>
<ellipse fill="none" stroke="black" cx="568" cy="-1014.25" rx="43" ry="18"/>
<text text-anchor="middle" x="568" y="-1010.55" font-family="Times,serif" font-size="14.00">Start</text>
</g>
<!-- Remaining -->
<g id="node6" class="node">
<title>Remaining</title>
<polygon fill="none" stroke="black" points="636,-960.25 576,-915.25 636,-870.25 696,-915.25 636,-960.25"/>
<text text-anchor="middle" x="636" y="-926.55" font-family="Times,serif" font-size="14.00">More</text>
<text text-anchor="middle" x="636" y="-911.55" font-family="Times,serif" font-size="14.00">sub&#45;jobs</text>
<text text-anchor="middle" x="636" y="-896.55" font-family="Times,serif" font-size="14.00">remain</text>
</g>
<!-- Start&#45;&gt;Remaining -->
<g id="edge8" class="edge">
<title>Start&#45;&gt;Remaining</title>
<path fill="none" stroke="darkblue" d="M579.54,-996.8C587.77,-985.05 599.19,-968.76 609.6,-953.9"/>
<polygon fill="darkblue" stroke="darkblue" points="612.71,-955.56 615.59,-945.37 606.98,-951.54 612.71,-955.56"/>
</g>
<!-- End -->
<g id="node2" class="node">
<title>End</title>
<ellipse fill="none" stroke="black" cx="704" cy="-1014.25" rx="43" ry="18"/>
<text text-anchor="middle" x="704" y="-1010.55" font-family="Times,serif" font-size="14.00">End</text>
</g>
<!-- End&#45;&gt;Remaining -->
<g id="edge10" class="edge">
<title>End&#45;&gt;Remaining</title>
<path fill="none" stroke="darkred" d="M686.49,-988.27C677.3,-975.17 665.99,-959.04 656.41,-945.37"/>
<polygon fill="darkred" stroke="darkred" points="683.86,-990.62 692.46,-996.8 689.59,-986.6 683.86,-990.62"/>
<text text-anchor="middle" x="645.91" y="-949.17" font-family="Times,serif" font-size="14.00">No</text>
</g>
<!-- DB -->
<g id="node3" class="node">
<title>DB</title>
<path fill="none" stroke="purple" d="M187,-277.98C187,-279.78 167.73,-281.25 144,-281.25 120.27,-281.25 101,-279.78 101,-277.98 101,-277.98 101,-248.52 101,-248.52 101,-246.72 120.27,-245.25 144,-245.25 167.73,-245.25 187,-246.72 187,-248.52 187,-248.52 187,-277.98 187,-277.98"/>
<path fill="none" stroke="purple" d="M187,-277.98C187,-276.17 167.73,-274.7 144,-274.7 120.27,-274.7 101,-276.17 101,-277.98"/>
<text text-anchor="middle" x="144" y="-259.55" font-family="Times,serif" font-size="14.00">MBlast DB</text>
</g>
<!-- FS -->
<g id="node4" class="node">
<title>FS</title>
<path fill="none" stroke="purple" d="M379,-109.6C379,-111.68 359.73,-113.38 336,-113.38 312.27,-113.38 293,-111.68 293,-109.6 293,-109.6 293,-75.65 293,-75.65 293,-73.57 312.27,-71.87 336,-71.87 359.73,-71.87 379,-73.57 379,-75.65 379,-75.65 379,-109.6 379,-109.6"/>
<path fill="none" stroke="purple" d="M379,-109.6C379,-107.52 359.73,-105.83 336,-105.83 312.27,-105.83 293,-107.52 293,-109.6"/>
<text text-anchor="middle" x="336" y="-96.42" font-family="Times,serif" font-size="14.00">MBlast</text>
<text text-anchor="middle" x="336" y="-81.42" font-family="Times,serif" font-size="14.00">Workspaces</text>
</g>
<!-- Queue -->
<g id="node5" class="node">
<title>Queue</title>
<polygon fill="none" stroke="purple" points="542,-36 456,-36 456,-32 452,-32 452,-28 456,-28 456,-8 452,-8 452,-4 456,-4 456,0 542,0 542,-36"/>
<polyline fill="none" stroke="purple" points="456,-32 460,-32 460,-28 456,-28 "/>
<polyline fill="none" stroke="purple" points="456,-8 460,-8 460,-4 456,-4 "/>
<text text-anchor="middle" x="499" y="-14.3" font-family="Times,serif" font-size="14.00">Job Queue</text>
</g>
<!-- NextJob -->
<g id="node7" class="node">
<title>NextJob</title>
<polygon fill="none" stroke="black" points="423,-834.25 337,-834.25 337,-798.25 423,-798.25 423,-834.25"/>
<text text-anchor="middle" x="380" y="-820.05" font-family="Times,serif" font-size="14.00">Next</text>
<text text-anchor="middle" x="380" y="-805.05" font-family="Times,serif" font-size="14.00">sub&#45;job</text>
</g>
<!-- Remaining&#45;&gt;NextJob -->
<g id="edge9" class="edge">
<title>Remaining&#45;&gt;NextJob</title>
<path fill="none" stroke="darkgreen" d="M596.84,-899.41C552.85,-882.74 481.24,-855.61 432.44,-837.12"/>
<polygon fill="darkgreen" stroke="darkgreen" points="433.6,-833.81 423,-833.54 431.11,-840.36 433.6,-833.81"/>
<text text-anchor="middle" x="584.34" y="-903.21" font-family="Times,serif" font-size="14.00">Yes</text>
</g>
<!-- HashJob -->
<g id="node8" class="node">
<title>HashJob</title>
<polygon fill="none" stroke="black" points="412,-762.25 326,-762.25 326,-726.25 412,-726.25 412,-762.25"/>
<text text-anchor="middle" x="369" y="-748.05" font-family="Times,serif" font-size="14.00">Calculate</text>
<text text-anchor="middle" x="369" y="-733.05" font-family="Times,serif" font-size="14.00">job digest</text>
</g>
<!-- NextJob&#45;&gt;HashJob -->
<g id="edge11" class="edge">
<title>NextJob&#45;&gt;HashJob</title>
<path fill="none" stroke="darkblue" d="M377.28,-797.95C376.07,-790.23 374.61,-780.96 373.26,-772.36"/>
<polygon fill="darkblue" stroke="darkblue" points="376.7,-771.69 371.69,-762.35 369.78,-772.78 376.7,-771.69"/>
</g>
<!-- LookupUserJob -->
<g id="node9" class="node">
<title>LookupUserJob</title>
<polygon fill="none" stroke="black" points="320,-653.75 320,-689.75 406,-689.75 406,-653.75 320,-653.75"/>
<text text-anchor="middle" x="325.5" y="-668.05" font-family="Times,serif" font-size="14.00"> </text>
<polyline fill="none" stroke="black" points="331,-653.75 331,-689.75 "/>
<text text-anchor="middle" x="363" y="-675.55" font-family="Times,serif" font-size="14.00">Lookup</text>
<text text-anchor="middle" x="363" y="-660.55" font-family="Times,serif" font-size="14.00">user job</text>
<polyline fill="none" stroke="black" points="395,-653.75 395,-689.75 "/>
<text text-anchor="middle" x="400.5" y="-668.05" font-family="Times,serif" font-size="14.00"> </text>
</g>
<!-- HashJob&#45;&gt;LookupUserJob -->
<g id="edge12" class="edge">
<title>HashJob&#45;&gt;LookupUserJob</title>
<path fill="none" stroke="darkblue" d="M367.55,-726.18C366.89,-718.42 366.09,-709.03 365.35,-700.31"/>
<polygon fill="darkblue" stroke="darkblue" points="368.82,-699.82 364.48,-690.15 361.84,-700.41 368.82,-699.82"/>
</g>
<!-- LookupUserJob&#45;&gt;DB -->
<g id="edge1" class="edge">
<title>LookupUserJob&#45;&gt;DB</title>
<path fill="none" stroke="#333333" stroke-dasharray="1,5" d="M309.64,-669.86C208.74,-665.05 0,-638.85 0,-504.25 0,-504.25 0,-504.25 0,-418.25 0,-353.46 68.84,-304.64 111.32,-280.69"/>
<polygon fill="#333333" stroke="#333333" points="309.8,-673.37 319.93,-670.29 310.09,-666.38 309.8,-673.37"/>
</g>
<!-- FoundUserJob -->
<g id="node10" class="node">
<title>FoundUserJob</title>
<polygon fill="none" stroke="black" points="363,-617.25 297,-587.25 363,-557.25 429,-587.25 363,-617.25"/>
<text text-anchor="middle" x="363" y="-591.05" font-family="Times,serif" font-size="14.00">Found</text>
<text text-anchor="middle" x="363" y="-576.05" font-family="Times,serif" font-size="14.00">user job?</text>
</g>
<!-- LookupUserJob&#45;&gt;FoundUserJob -->
<g id="edge13" class="edge">
<title>LookupUserJob&#45;&gt;FoundUserJob</title>
<path fill="none" stroke="darkblue" d="M363,-653.66C363,-646.04 363,-636.74 363,-627.56"/>
<polygon fill="darkblue" stroke="darkblue" points="366.5,-627.35 363,-617.35 359.5,-627.35 366.5,-627.35"/>
</g>
<!-- LookupJob -->
<g id="node11" class="node">
<title>LookupJob</title>
<polygon fill="none" stroke="black" points="332,-521.25 246,-521.25 246,-485.25 332,-485.25 332,-521.25"/>
<text text-anchor="middle" x="289" y="-499.55" font-family="Times,serif" font-size="14.00">Lookup job</text>
</g>
<!-- FoundUserJob&#45;&gt;LookupJob -->
<g id="edge15" class="edge">
<title>FoundUserJob&#45;&gt;LookupJob</title>
<path fill="none" stroke="darkred" d="M344.33,-565.56C334.31,-554.46 321.89,-540.7 311.36,-529.03"/>
<polygon fill="darkred" stroke="darkred" points="313.72,-526.42 304.42,-521.34 308.52,-531.11 313.72,-526.42"/>
<text text-anchor="middle" x="333.83" y="-554.36" font-family="Times,serif" font-size="14.00">No</text>
</g>
<!-- RefreshStatus -->
<g id="node18" class="node">
<title>RefreshStatus</title>
<polygon fill="none" stroke="black" points="502,-281.25 416,-281.25 416,-245.25 502,-245.25 502,-281.25"/>
<text text-anchor="middle" x="459" y="-267.05" font-family="Times,serif" font-size="14.00">Refresh job</text>
<text text-anchor="middle" x="459" y="-252.05" font-family="Times,serif" font-size="14.00">status</text>
</g>
<!-- FoundUserJob&#45;&gt;RefreshStatus -->
<g id="edge14" class="edge">
<title>FoundUserJob&#45;&gt;RefreshStatus</title>
<path fill="none" stroke="darkgreen" d="M370.69,-560.44C388.57,-500.49 432.76,-352.25 450.97,-291.19"/>
<polygon fill="darkgreen" stroke="darkgreen" points="454.35,-292.09 453.86,-281.51 447.64,-290.09 454.35,-292.09"/>
<text text-anchor="middle" x="358.19" y="-549.24" font-family="Times,serif" font-size="14.00">Yes</text>
</g>
<!-- LookupJob&#45;&gt;DB -->
<g id="edge2" class="edge">
<title>LookupJob&#45;&gt;DB</title>
<path fill="none" stroke="#333333" stroke-dasharray="1,5" d="M254.06,-479.2C242.25,-470.56 229.42,-460.16 219,-449.25 183.24,-411.81 170.83,-401.86 153,-353.25 144.28,-329.48 143.02,-299.9 143.25,-281.54"/>
<polygon fill="#333333" stroke="#333333" points="252.26,-482.22 262.44,-485.18 256.33,-476.52 252.26,-482.22"/>
</g>
<!-- FoundJob -->
<g id="node12" class="node">
<title>FoundJob</title>
<polygon fill="none" stroke="black" points="289,-449.25 244,-419.25 289,-389.25 334,-419.25 289,-449.25"/>
<text text-anchor="middle" x="289" y="-423.05" font-family="Times,serif" font-size="14.00">Found</text>
<text text-anchor="middle" x="289" y="-408.05" font-family="Times,serif" font-size="14.00">job?</text>
</g>
<!-- LookupJob&#45;&gt;FoundJob -->
<g id="edge16" class="edge">
<title>LookupJob&#45;&gt;FoundJob</title>
<path fill="none" stroke="darkblue" d="M289,-484.86C289,-477.49 289,-468.58 289,-459.77"/>
<polygon fill="darkblue" stroke="darkblue" points="292.5,-459.56 289,-449.56 285.5,-459.56 292.5,-459.56"/>
</g>
<!-- InsertJobIntoDB -->
<g id="node13" class="node">
<title>InsertJobIntoDB</title>
<polygon fill="none" stroke="black" points="264,-353.25 178,-353.25 178,-317.25 264,-317.25 264,-353.25"/>
<text text-anchor="middle" x="221" y="-339.05" font-family="Times,serif" font-size="14.00">Insert job</text>
<text text-anchor="middle" x="221" y="-324.05" font-family="Times,serif" font-size="14.00">into DB</text>
</g>
<!-- FoundJob&#45;&gt;InsertJobIntoDB -->
<g id="edge18" class="edge">
<title>FoundJob&#45;&gt;InsertJobIntoDB</title>
<path fill="none" stroke="darkred" d="M273.23,-399.23C263.92,-388.01 252.02,-373.66 241.94,-361.5"/>
<polygon fill="darkred" stroke="darkred" points="244.37,-358.95 235.3,-353.49 238.99,-363.42 244.37,-358.95"/>
<text text-anchor="middle" x="262.73" y="-388.03" font-family="Times,serif" font-size="14.00">No</text>
</g>
<!-- LinkUser1 -->
<g id="node20" class="node">
<title>LinkUser1</title>
<polygon fill="none" stroke="black" points="400,-353.25 314,-353.25 314,-317.25 400,-317.25 400,-353.25"/>
<text text-anchor="middle" x="357" y="-339.05" font-family="Times,serif" font-size="14.00">Link user</text>
<text text-anchor="middle" x="357" y="-324.05" font-family="Times,serif" font-size="14.00">to job</text>
</g>
<!-- FoundJob&#45;&gt;LinkUser1 -->
<g id="edge17" class="edge">
<title>FoundJob&#45;&gt;LinkUser1</title>
<path fill="none" stroke="darkgreen" d="M304.77,-399.23C314.08,-388.01 325.98,-373.66 336.06,-361.5"/>
<polygon fill="darkgreen" stroke="darkgreen" points="339.01,-363.42 342.7,-353.49 333.63,-358.95 339.01,-363.42"/>
<text text-anchor="middle" x="292.27" y="-388.03" font-family="Times,serif" font-size="14.00">Yes</text>
</g>
<!-- InsertJobIntoDB&#45;&gt;DB -->
<g id="edge3" class="edge">
<title>InsertJobIntoDB&#45;&gt;DB</title>
<path fill="none" stroke="#333333" stroke-dasharray="1,5" d="M201.97,-316.95C192.46,-308.3 180.79,-297.7 170.43,-288.28"/>
<polygon fill="#333333" stroke="#333333" points="172.57,-285.49 162.81,-281.35 167.86,-290.67 172.57,-285.49"/>
</g>
<!-- CreateWorkspace -->
<g id="node14" class="node">
<title>CreateWorkspace</title>
<polygon fill="none" stroke="black" points="351,-281.25 265,-281.25 265,-245.25 351,-245.25 351,-281.25"/>
<text text-anchor="middle" x="308" y="-267.05" font-family="Times,serif" font-size="14.00">Create job</text>
<text text-anchor="middle" x="308" y="-252.05" font-family="Times,serif" font-size="14.00">workspace</text>
</g>
<!-- InsertJobIntoDB&#45;&gt;CreateWorkspace -->
<g id="edge19" class="edge">
<title>InsertJobIntoDB&#45;&gt;CreateWorkspace</title>
<path fill="none" stroke="darkblue" d="M242.51,-316.95C253.46,-308.13 266.95,-297.28 278.82,-287.72"/>
<polygon fill="darkblue" stroke="darkblue" points="281.14,-290.35 286.74,-281.35 276.76,-284.9 281.14,-290.35"/>
</g>
<!-- CreateWorkspace&#45;&gt;FS -->
<g id="edge5" class="edge">
<title>CreateWorkspace&#45;&gt;FS</title>
<path fill="none" stroke="#333333" stroke-dasharray="1,5" d="M310.84,-245.15C315.58,-216.62 325.15,-158.95 331.03,-123.57"/>
<polygon fill="#333333" stroke="#333333" points="334.54,-123.79 332.72,-113.36 327.63,-122.65 334.54,-123.79"/>
</g>
<!-- CreateQueryFile -->
<g id="node15" class="node">
<title>CreateQueryFile</title>
<polygon fill="none" stroke="black" points="470,-197.25 384,-197.25 384,-161.25 470,-161.25 470,-197.25"/>
<text text-anchor="middle" x="427" y="-183.05" font-family="Times,serif" font-size="14.00">Create</text>
<text text-anchor="middle" x="427" y="-168.05" font-family="Times,serif" font-size="14.00">query file</text>
</g>
<!-- CreateWorkspace&#45;&gt;CreateQueryFile -->
<g id="edge25" class="edge">
<title>CreateWorkspace&#45;&gt;CreateQueryFile</title>
<path fill="none" stroke="darkblue" d="M332.95,-245.06C350.56,-232.92 374.35,-216.53 393.6,-203.26"/>
<polygon fill="darkblue" stroke="darkblue" points="395.84,-205.97 402.09,-197.42 391.87,-200.21 395.84,-205.97"/>
</g>
<!-- CreateQueryFile&#45;&gt;FS -->
<g id="edge6" class="edge">
<title>CreateQueryFile&#45;&gt;FS</title>
<path fill="none" stroke="#333333" stroke-dasharray="1,5" d="M408.58,-161.12C396.05,-149.47 379.21,-133.81 364.9,-120.5"/>
<polygon fill="#333333" stroke="#333333" points="366.97,-117.64 357.26,-113.4 362.2,-122.77 366.97,-117.64"/>
</g>
<!-- SubmitToQueue -->
<g id="node16" class="node">
<title>SubmitToQueue</title>
<polygon fill="none" stroke="black" points="542,-110.62 456,-110.62 456,-74.62 542,-74.62 542,-110.62"/>
<text text-anchor="middle" x="499" y="-96.42" font-family="Times,serif" font-size="14.00">Submit job</text>
<text text-anchor="middle" x="499" y="-81.42" font-family="Times,serif" font-size="14.00">to queue</text>
</g>
<!-- CreateQueryFile&#45;&gt;SubmitToQueue -->
<g id="edge26" class="edge">
<title>CreateQueryFile&#45;&gt;SubmitToQueue</title>
<path fill="none" stroke="darkblue" d="M441.57,-161.12C452.01,-148.85 466.24,-132.13 477.92,-118.41"/>
<polygon fill="darkblue" stroke="darkblue" points="480.64,-120.61 484.45,-110.72 475.31,-116.07 480.64,-120.61"/>
</g>
<!-- SubmitToQueue&#45;&gt;Queue -->
<g id="edge7" class="edge">
<title>SubmitToQueue&#45;&gt;Queue</title>
<path fill="none" stroke="#333333" stroke-dasharray="1,5" d="M499,-74.41C499,-66 499,-55.68 499,-46.23"/>
<polygon fill="#333333" stroke="#333333" points="502.5,-46.09 499,-36.09 495.5,-46.09 502.5,-46.09"/>
</g>
<!-- SubmitToQueue&#45;&gt;Remaining -->
<g id="edge27" class="edge">
<title>SubmitToQueue&#45;&gt;Remaining</title>
<path fill="none" stroke="darkblue" d="M508.85,-110.8C530.02,-149.4 578,-246.53 578,-334.25 578,-745.25 578,-745.25 578,-745.25 578,-791.33 597.53,-840.83 613.92,-874.27"/>
<polygon fill="darkblue" stroke="darkblue" points="610.82,-875.9 618.44,-883.26 617.07,-872.75 610.82,-875.9"/>
</g>
<!-- UpdateLastUsed -->
<g id="node17" class="node">
<title>UpdateLastUsed</title>
<polygon fill="none" stroke="black" points="817,-110.62 731,-110.62 731,-74.62 817,-74.62 817,-110.62"/>
<text text-anchor="middle" x="774" y="-96.42" font-family="Times,serif" font-size="14.00">Update job</text>
<text text-anchor="middle" x="774" y="-81.42" font-family="Times,serif" font-size="14.00">last used</text>
</g>
<!-- UpdateLastUsed&#45;&gt;Remaining -->
<g id="edge28" class="edge">
<title>UpdateLastUsed&#45;&gt;Remaining</title>
<path fill="none" stroke="darkblue" d="M787.23,-110.74C808.51,-140.05 848,-202.47 848,-262.25 848,-745.25 848,-745.25 848,-745.25 848,-826.9 750.66,-875.49 687.89,-898.34"/>
<polygon fill="darkblue" stroke="darkblue" points="686.4,-895.16 678.14,-901.79 688.73,-901.76 686.4,-895.16"/>
</g>
<!-- StatusSwitch -->
<g id="node19" class="node">
<title>StatusSwitch</title>
<polygon fill="none" stroke="black" points="701,-209.25 630,-179.25 701,-149.25 772,-179.25 701,-209.25"/>
<text text-anchor="middle" x="701" y="-183.05" font-family="Times,serif" font-size="14.00">Switch:</text>
<text text-anchor="middle" x="701" y="-168.05" font-family="Times,serif" font-size="14.00">job status</text>
</g>
<!-- RefreshStatus&#45;&gt;StatusSwitch -->
<g id="edge21" class="edge">
<title>RefreshStatus&#45;&gt;StatusSwitch</title>
<path fill="none" stroke="darkblue" d="M502.26,-247.59C544.73,-233.2 609.36,-211.3 653.29,-196.42"/>
<polygon fill="darkblue" stroke="darkblue" points="654.54,-199.69 662.89,-193.16 652.29,-193.06 654.54,-199.69"/>
</g>
<!-- StatusSwitch&#45;&gt;Remaining -->
<g id="edge22" class="edge">
<title>StatusSwitch&#45;&gt;Remaining</title>
<path fill="none" stroke="darkblue" d="M698.94,-208.62C696.87,-239.5 694,-290.36 694,-334.25 694,-745.25 694,-745.25 694,-745.25 694,-791.33 674.47,-840.83 658.08,-874.27"/>
<polygon fill="darkblue" stroke="darkblue" points="654.93,-872.75 653.56,-883.26 661.18,-875.9 654.93,-872.75"/>
<text text-anchor="middle" x="657.44" y="-227.42" font-family="Times,serif" font-size="14.00">Errored /</text>
<text text-anchor="middle" x="657.44" y="-212.42" font-family="Times,serif" font-size="14.00">In Progress</text>
</g>
<!-- StatusSwitch&#45;&gt;CreateWorkspace -->
<g id="edge24" class="edge">
<title>StatusSwitch&#45;&gt;CreateWorkspace</title>
<path fill="none" stroke="darkblue" d="M655.02,-189.84C581.74,-205.13 438.83,-234.95 361.23,-251.14"/>
<polygon fill="darkblue" stroke="darkblue" points="360.26,-247.77 351.18,-253.24 361.69,-254.62 360.26,-247.77"/>
<text text-anchor="middle" x="626.52" y="-193.64" font-family="Times,serif" font-size="14.00">Expired</text>
</g>
<!-- StatusSwitch&#45;&gt;UpdateLastUsed -->
<g id="edge23" class="edge">
<title>StatusSwitch&#45;&gt;UpdateLastUsed</title>
<path fill="none" stroke="darkblue" d="M719.42,-156.9C729.54,-145.17 742.13,-130.56 752.68,-118.34"/>
<polygon fill="darkblue" stroke="darkblue" points="755.38,-120.57 759.26,-110.71 750.08,-116 755.38,-120.57"/>
<text text-anchor="middle" x="753.92" y="-145.7" font-family="Times,serif" font-size="14.00">Complete</text>
</g>
<!-- LinkUser1&#45;&gt;DB -->
<g id="edge4" class="edge">
<title>LinkUser1&#45;&gt;DB</title>
<path fill="none" stroke="#333333" stroke-dasharray="1,5" d="M313.9,-320.08C280.12,-308.98 232.96,-293.49 196.9,-281.63"/>
<polygon fill="#333333" stroke="#333333" points="197.63,-278.19 187.04,-278.39 195.45,-284.84 197.63,-278.19"/>
</g>
<!-- LinkUser1&#45;&gt;RefreshStatus -->
<g id="edge20" class="edge">
<title>LinkUser1&#45;&gt;RefreshStatus</title>
<path fill="none" stroke="darkblue" d="M381.95,-317.13C395.04,-308.14 411.26,-297.01 425.44,-287.28"/>
<polygon fill="darkblue" stroke="darkblue" points="427.69,-289.98 433.95,-281.44 423.73,-284.21 427.69,-289.98"/>
</g>
</g>
</svg>
