<?xml version="1.0" encoding="UTF-8" standalone="no"?>
<!DOCTYPE svg PUBLIC "-//W3C//DTD SVG 1.1//EN"
 "http://www.w3.org/Graphics/SVG/1.1/DTD/svg11.dtd">
<!-- Generated by graphviz version 2.43.0 (0)
 -->
<!-- Title: %3 Pages: 1 -->
<svg width="951pt" height="703pt"
 viewBox="0.00 0.00 950.99 703.25" xmlns="http://www.w3.org/2000/svg" xmlns:xlink="http://www.w3.org/1999/xlink">
<g id="graph0" class="graph" transform="scale(1 1) rotate(0) translate(4 699.25)">
<title>%3</title>
<polygon fill="white" stroke="transparent" points="-4,4 -4,-699.25 946.99,-699.25 946.99,4 -4,4"/>
<text text-anchor="middle" x="471.5" y="-680.05" font-family="Times,serif" font-size="14.00">For Each Sub&#45;Job</text>
<!-- Start -->
<g id="node1" class="node">
<title>Start</title>
<ellipse fill="none" stroke="black" cx="274" cy="-654.25" rx="43" ry="18"/>
<text text-anchor="middle" x="274" y="-650.55" font-family="Times,serif" font-size="14.00">Start</text>
</g>
<!-- Remaining -->
<g id="node6" class="node">
<title>Remaining</title>
<polygon fill="none" stroke="black" points="274,-600.25 214,-555.25 274,-510.25 334,-555.25 274,-600.25"/>
<text text-anchor="middle" x="274" y="-566.55" font-family="Times,serif" font-size="14.00">More</text>
<text text-anchor="middle" x="274" y="-551.55" font-family="Times,serif" font-size="14.00">sub&#45;jobs</text>
<text text-anchor="middle" x="274" y="-536.55" font-family="Times,serif" font-size="14.00">remain</text>
</g>
<!-- Start&#45;&gt;Remaining -->
<g id="edge8" class="edge">
<title>Start&#45;&gt;Remaining</title>
<path fill="none" stroke="darkblue" d="M274,-635.91C274,-628.62 274,-619.72 274,-610.53"/>
<polygon fill="darkblue" stroke="darkblue" points="277.5,-610.51 274,-600.51 270.5,-610.51 277.5,-610.51"/>
</g>
<!-- End -->
<g id="node2" class="node">
<title>End</title>
<ellipse fill="none" stroke="black" cx="43" cy="-555.25" rx="43" ry="18"/>
<text text-anchor="middle" x="43" y="-551.55" font-family="Times,serif" font-size="14.00">End</text>
</g>
<!-- End&#45;&gt;Remaining -->
<g id="edge10" class="edge">
<title>End&#45;&gt;Remaining</title>
<path fill="none" stroke="darkred" d="M96.78,-555.25C135.81,-555.25 174.85,-555.25 213.88,-555.25"/>
<polygon fill="darkred" stroke="darkred" points="96.31,-551.75 86.31,-555.25 96.31,-558.75 96.31,-551.75"/>
<text text-anchor="middle" x="203.38" y="-559.05" font-family="Times,serif" font-size="14.00">No</text>
</g>
<!-- SubmitToQueue -->
<g id="node16" class="node">
<title>SubmitToQueue</title>
<polygon fill="none" stroke="black" points="122,-197.25 36,-197.25 36,-161.25 122,-161.25 122,-197.25"/>
<text text-anchor="middle" x="79" y="-183.05" font-family="Times,serif" font-size="14.00">Submit job</text>
<text text-anchor="middle" x="79" y="-168.05" font-family="Times,serif" font-size="14.00">to queue</text>
</g>
<!-- End&#45;&gt;SubmitToQueue -->
<!-- DB -->
<g id="node3" class="node">
<title>DB</title>
<path fill="none" stroke="purple" d="M886,-109.98C886,-111.78 866.73,-113.25 843,-113.25 819.27,-113.25 800,-111.78 800,-109.98 800,-109.98 800,-80.52 800,-80.52 800,-78.72 819.27,-77.25 843,-77.25 866.73,-77.25 886,-78.72 886,-80.52 886,-80.52 886,-109.98 886,-109.98"/>
<path fill="none" stroke="purple" d="M886,-109.98C886,-108.17 866.73,-106.7 843,-106.7 819.27,-106.7 800,-108.17 800,-109.98"/>
<text text-anchor="middle" x="843" y="-91.55" font-family="Times,serif" font-size="14.00">MBlast DB</text>
</g>
<!-- FS -->
<g id="node4" class="node">
<title>FS</title>
<path fill="none" stroke="purple" d="M512,-37.6C512,-39.68 492.73,-41.38 469,-41.38 445.27,-41.38 426,-39.68 426,-37.6 426,-37.6 426,-3.65 426,-3.65 426,-1.57 445.27,0.13 469,0.13 492.73,0.13 512,-1.57 512,-3.65 512,-3.65 512,-37.6 512,-37.6"/>
<path fill="none" stroke="purple" d="M512,-37.6C512,-35.52 492.73,-33.83 469,-33.83 445.27,-33.83 426,-35.52 426,-37.6"/>
<text text-anchor="middle" x="469" y="-24.43" font-family="Times,serif" font-size="14.00">MBlast</text>
<text text-anchor="middle" x="469" y="-9.43" font-family="Times,serif" font-size="14.00">Workspaces</text>
</g>
<!-- Queue -->
<g id="node5" class="node">
<title>Queue</title>
<polygon fill="none" stroke="purple" points="122,-113.25 36,-113.25 36,-109.25 32,-109.25 32,-105.25 36,-105.25 36,-85.25 32,-85.25 32,-81.25 36,-81.25 36,-77.25 122,-77.25 122,-113.25"/>
<polyline fill="none" stroke="purple" points="36,-109.25 40,-109.25 40,-105.25 36,-105.25 "/>
<polyline fill="none" stroke="purple" points="36,-85.25 40,-85.25 40,-81.25 36,-81.25 "/>
<text text-anchor="middle" x="79" y="-91.55" font-family="Times,serif" font-size="14.00">Job Queue</text>
</g>
<!-- NextJob -->
<g id="node7" class="node">
<title>NextJob</title>
<polygon fill="none" stroke="black" points="492,-573.25 406,-573.25 406,-537.25 492,-537.25 492,-573.25"/>
<text text-anchor="middle" x="449" y="-559.05" font-family="Times,serif" font-size="14.00">Next</text>
<text text-anchor="middle" x="449" y="-544.05" font-family="Times,serif" font-size="14.00">sub&#45;job</text>
</g>
<!-- Remaining&#45;&gt;NextJob -->
<g id="edge9" class="edge">
<title>Remaining&#45;&gt;NextJob</title>
<path fill="none" stroke="darkgreen" d="M334.16,-555.25C354.72,-555.25 375.28,-555.25 395.84,-555.25"/>
<polygon fill="darkgreen" stroke="darkgreen" points="395.93,-558.75 405.93,-555.25 395.93,-551.75 395.93,-558.75"/>
<text text-anchor="middle" x="346.66" y="-559.05" font-family="Times,serif" font-size="14.00">Yes</text>
</g>
<!-- HashJob -->
<g id="node8" class="node">
<title>HashJob</title>
<polygon fill="none" stroke="black" points="650,-573.25 564,-573.25 564,-537.25 650,-537.25 650,-573.25"/>
<text text-anchor="middle" x="607" y="-559.05" font-family="Times,serif" font-size="14.00">Calculate</text>
<text text-anchor="middle" x="607" y="-544.05" font-family="Times,serif" font-size="14.00">job digest</text>
</g>
<!-- NextJob&#45;&gt;HashJob -->
<g id="edge11" class="edge">
<title>NextJob&#45;&gt;HashJob</title>
<path fill="none" stroke="darkblue" d="M492.2,-555.25C512.76,-555.25 533.31,-555.25 553.86,-555.25"/>
<polygon fill="darkblue" stroke="darkblue" points="553.95,-558.75 563.95,-555.25 553.95,-551.75 553.95,-558.75"/>
</g>
<!-- LookupUserJob -->
<g id="node9" class="node">
<title>LookupUserJob</title>
<polygon fill="none" stroke="black" points="562,-437.75 562,-473.75 648,-473.75 648,-437.75 562,-437.75"/>
<text text-anchor="middle" x="567.5" y="-452.05" font-family="Times,serif" font-size="14.00"> </text>
<polyline fill="none" stroke="black" points="573,-437.75 573,-473.75 "/>
<text text-anchor="middle" x="605" y="-459.55" font-family="Times,serif" font-size="14.00">Lookup</text>
<text text-anchor="middle" x="605" y="-444.55" font-family="Times,serif" font-size="14.00">user job</text>
<polyline fill="none" stroke="black" points="637,-437.75 637,-473.75 "/>
<text text-anchor="middle" x="642.5" y="-452.05" font-family="Times,serif" font-size="14.00"> </text>
</g>
<!-- NextJob&#45;&gt;LookupUserJob -->
<!-- HashJob&#45;&gt;LookupUserJob -->
<g id="edge12" class="edge">
<title>HashJob&#45;&gt;LookupUserJob</title>
<path fill="none" stroke="darkblue" d="M606.64,-536.82C606.34,-522.26 605.91,-501.24 605.57,-484.39"/>
<polygon fill="darkblue" stroke="darkblue" points="609.06,-483.96 605.35,-474.03 602.06,-484.1 609.06,-483.96"/>
</g>
<!-- LookupUserJob&#45;&gt;DB -->
<g id="edge1" class="edge">
<title>LookupUserJob&#45;&gt;DB</title>
<path fill="none" stroke="#333333" stroke-dasharray="1,5" d="M658.41,-449.56C724.99,-442.12 833.85,-426.47 865,-401.25 953.54,-329.55 962.37,-251.44 912,-149.25 904.32,-133.67 889.62,-121.39 875.75,-112.59"/>
<polygon fill="#333333" stroke="#333333" points="657.67,-446.12 648.11,-450.68 658.43,-453.08 657.67,-446.12"/>
</g>
<!-- FoundUserJob -->
<g id="node10" class="node">
<title>FoundUserJob</title>
<polygon fill="none" stroke="black" points="605,-401.25 539,-371.25 605,-341.25 671,-371.25 605,-401.25"/>
<text text-anchor="middle" x="605" y="-375.05" font-family="Times,serif" font-size="14.00">Found</text>
<text text-anchor="middle" x="605" y="-360.05" font-family="Times,serif" font-size="14.00">user job?</text>
</g>
<!-- LookupUserJob&#45;&gt;FoundUserJob -->
<g id="edge13" class="edge">
<title>LookupUserJob&#45;&gt;FoundUserJob</title>
<path fill="none" stroke="darkblue" d="M605,-437.66C605,-430.04 605,-420.74 605,-411.56"/>
<polygon fill="darkblue" stroke="darkblue" points="608.5,-411.35 605,-401.35 601.5,-411.35 608.5,-411.35"/>
</g>
<!-- LookupJob -->
<g id="node11" class="node">
<title>LookupJob</title>
<polygon fill="none" stroke="black" points="829,-389.25 743,-389.25 743,-353.25 829,-353.25 829,-389.25"/>
<text text-anchor="middle" x="786" y="-367.55" font-family="Times,serif" font-size="14.00">Lookup job</text>
</g>
<!-- FoundUserJob&#45;&gt;LookupJob -->
<g id="edge15" class="edge">
<title>FoundUserJob&#45;&gt;LookupJob</title>
<path fill="none" stroke="darkred" d="M671.11,-371.25C691.68,-371.25 712.25,-371.25 732.82,-371.25"/>
<polygon fill="darkred" stroke="darkred" points="732.92,-374.75 742.92,-371.25 732.92,-367.75 732.92,-374.75"/>
<text text-anchor="middle" x="681.61" y="-375.05" font-family="Times,serif" font-size="14.00">No</text>
</g>
<!-- RefreshStatus -->
<g id="node18" class="node">
<title>RefreshStatus</title>
<polygon fill="none" stroke="black" points="562,-257.25 562,-293.25 648,-293.25 648,-257.25 562,-257.25"/>
<text text-anchor="middle" x="565" y="-271.55" font-family="Times,serif" font-size="14.00"> </text>
<polyline fill="none" stroke="black" points="568,-257.25 568,-293.25 "/>
<text text-anchor="middle" x="604.5" y="-279.05" font-family="Times,serif" font-size="14.00">Refresh</text>
<text text-anchor="middle" x="604.5" y="-264.05" font-family="Times,serif" font-size="14.00">job status</text>
<polyline fill="none" stroke="black" points="641,-257.25 641,-293.25 "/>
<text text-anchor="middle" x="644.5" y="-271.55" font-family="Times,serif" font-size="14.00"> </text>
</g>
<!-- FoundUserJob&#45;&gt;RefreshStatus -->
<g id="edge14" class="edge">
<title>FoundUserJob&#45;&gt;RefreshStatus</title>
<path fill="none" stroke="darkgreen" d="M605,-341.02C605,-329.06 605,-315.29 605,-303.53"/>
<polygon fill="darkgreen" stroke="darkgreen" points="608.5,-303.41 605,-293.41 601.5,-303.41 608.5,-303.41"/>
<text text-anchor="middle" x="592.5" y="-329.82" font-family="Times,serif" font-size="14.00">Yes</text>
</g>
<!-- LookupJob&#45;&gt;DB -->
<g id="edge2" class="edge">
<title>LookupJob&#45;&gt;DB</title>
<path fill="none" stroke="#333333" stroke-dasharray="1,5" d="M816.31,-346.27C827.92,-335.18 839.85,-320.97 846,-305.25 872.16,-238.33 856.06,-149.9 847.42,-113.27"/>
<polygon fill="#333333" stroke="#333333" points="813.84,-343.78 808.79,-353.09 818.54,-348.97 813.84,-343.78"/>
</g>
<!-- FoundJob -->
<g id="node12" class="node">
<title>FoundJob</title>
<polygon fill="none" stroke="black" points="765,-305.25 720,-275.25 765,-245.25 810,-275.25 765,-305.25"/>
<text text-anchor="middle" x="765" y="-279.05" font-family="Times,serif" font-size="14.00">Found</text>
<text text-anchor="middle" x="765" y="-264.05" font-family="Times,serif" font-size="14.00">job?</text>
</g>
<!-- LookupJob&#45;&gt;FoundJob -->
<g id="edge16" class="edge">
<title>LookupJob&#45;&gt;FoundJob</title>
<path fill="none" stroke="darkblue" d="M782.15,-353.01C779.56,-341.41 776.05,-325.7 772.88,-311.51"/>
<polygon fill="darkblue" stroke="darkblue" points="776.24,-310.53 770.65,-301.53 769.41,-312.06 776.24,-310.53"/>
</g>
<!-- InsertJobIntoDB -->
<g id="node13" class="node">
<title>InsertJobIntoDB</title>
<polygon fill="none" stroke="black" points="810,-197.25 724,-197.25 724,-161.25 810,-161.25 810,-197.25"/>
<text text-anchor="middle" x="767" y="-183.05" font-family="Times,serif" font-size="14.00">Insert job</text>
<text text-anchor="middle" x="767" y="-168.05" font-family="Times,serif" font-size="14.00">into DB</text>
</g>
<!-- FoundJob&#45;&gt;InsertJobIntoDB -->
<g id="edge18" class="edge">
<title>FoundJob&#45;&gt;InsertJobIntoDB</title>
<path fill="none" stroke="darkred" d="M765.61,-245.54C765.87,-233.47 766.17,-219.49 766.42,-207.57"/>
<polygon fill="darkred" stroke="darkred" points="769.92,-207.39 766.64,-197.32 762.92,-207.24 769.92,-207.39"/>
<text text-anchor="middle" x="755.11" y="-234.34" font-family="Times,serif" font-size="14.00">No</text>
</g>
<!-- LinkUser1 -->
<g id="node20" class="node">
<title>LinkUser1</title>
<polygon fill="none" stroke="black" points="652,-197.25 566,-197.25 566,-161.25 652,-161.25 652,-197.25"/>
<text text-anchor="middle" x="609" y="-183.05" font-family="Times,serif" font-size="14.00">Link user</text>
<text text-anchor="middle" x="609" y="-168.05" font-family="Times,serif" font-size="14.00">to job</text>
</g>
<!-- FoundJob&#45;&gt;LinkUser1 -->
<g id="edge17" class="edge">
<title>FoundJob&#45;&gt;LinkUser1</title>
<path fill="none" stroke="darkgreen" d="M741.98,-260.38C716.79,-245.2 676.03,-220.64 646.26,-202.7"/>
<polygon fill="darkgreen" stroke="darkgreen" points="647.78,-199.53 637.41,-197.37 644.17,-205.53 647.78,-199.53"/>
<text text-anchor="middle" x="729.48" y="-264.18" font-family="Times,serif" font-size="14.00">Yes</text>
</g>
<!-- InsertJobIntoDB&#45;&gt;DB -->
<g id="edge3" class="edge">
<title>InsertJobIntoDB&#45;&gt;DB</title>
<path fill="none" stroke="#333333" stroke-dasharray="1,5" d="M783.12,-160.86C793.87,-149.26 808.17,-133.83 820.1,-120.96"/>
<polygon fill="#333333" stroke="#333333" points="822.94,-123.05 827.17,-113.33 817.8,-118.29 822.94,-123.05"/>
</g>
<!-- CreateWorkspace -->
<g id="node14" class="node">
<title>CreateWorkspace</title>
<polygon fill="none" stroke="black" points="652,-113.25 566,-113.25 566,-77.25 652,-77.25 652,-113.25"/>
<text text-anchor="middle" x="609" y="-99.05" font-family="Times,serif" font-size="14.00">Create job</text>
<text text-anchor="middle" x="609" y="-84.05" font-family="Times,serif" font-size="14.00">workspace</text>
</g>
<!-- InsertJobIntoDB&#45;&gt;CreateWorkspace -->
<g id="edge19" class="edge">
<title>InsertJobIntoDB&#45;&gt;CreateWorkspace</title>
<path fill="none" stroke="darkblue" d="M733.88,-161.06C709.68,-148.5 676.68,-131.38 650.68,-117.88"/>
<polygon fill="darkblue" stroke="darkblue" points="652.3,-114.78 641.81,-113.28 649.07,-120.99 652.3,-114.78"/>
</g>
<!-- CreateWorkspace&#45;&gt;FS -->
<g id="edge5" class="edge">
<title>CreateWorkspace&#45;&gt;FS</title>
<path fill="none" stroke="#333333" stroke-dasharray="1,5" d="M576.18,-77.22C557.67,-67.62 534.29,-55.49 514.09,-45.01"/>
<polygon fill="#333333" stroke="#333333" points="515.55,-41.83 505.06,-40.33 512.32,-48.04 515.55,-41.83"/>
</g>
<!-- CreateQueryFile -->
<g id="node15" class="node">
<title>CreateQueryFile</title>
<polygon fill="none" stroke="black" points="373,-113.25 287,-113.25 287,-77.25 373,-77.25 373,-113.25"/>
<text text-anchor="middle" x="330" y="-99.05" font-family="Times,serif" font-size="14.00">Create</text>
<text text-anchor="middle" x="330" y="-84.05" font-family="Times,serif" font-size="14.00">query file</text>
</g>
<!-- CreateWorkspace&#45;&gt;CreateQueryFile -->
<g id="edge25" class="edge">
<title>CreateWorkspace&#45;&gt;CreateQueryFile</title>
<path fill="none" stroke="darkblue" d="M565.68,-95.25C504.86,-95.25 444.03,-95.25 383.21,-95.25"/>
<polygon fill="darkblue" stroke="darkblue" points="383.05,-91.75 373.05,-95.25 383.05,-98.75 383.05,-91.75"/>
</g>
<!-- CreateQueryFile&#45;&gt;FS -->
<g id="edge6" class="edge">
<title>CreateQueryFile&#45;&gt;FS</title>
<path fill="none" stroke="#333333" stroke-dasharray="1,5" d="M362.59,-77.22C380.96,-67.62 404.18,-55.49 424.23,-45.01"/>
<polygon fill="#333333" stroke="#333333" points="425.96,-48.06 433.2,-40.33 422.71,-41.86 425.96,-48.06"/>
</g>
<!-- CreateQueryFile&#45;&gt;SubmitToQueue -->
<g id="edge26" class="edge">
<title>CreateQueryFile&#45;&gt;SubmitToQueue</title>
<path fill="none" stroke="darkblue" d="M286.68,-108.91C251.78,-119.27 201.52,-134.57 158,-149.25 149.55,-152.1 140.64,-155.24 131.97,-158.37"/>
<polygon fill="darkblue" stroke="darkblue" points="130.52,-155.17 122.32,-161.88 132.91,-161.75 130.52,-155.17"/>
</g>
<!-- SubmitToQueue&#45;&gt;Queue -->
<g id="edge7" class="edge">
<title>SubmitToQueue&#45;&gt;Queue</title>
<path fill="none" stroke="#333333" stroke-dasharray="1,5" d="M79,-160.86C79,-150.02 79,-135.85 79,-123.54"/>
<polygon fill="#333333" stroke="#333333" points="82.5,-123.33 79,-113.33 75.5,-123.33 82.5,-123.33"/>
</g>
<!-- SubmitToQueue&#45;&gt;Remaining -->
<g id="edge27" class="edge">
<title>SubmitToQueue&#45;&gt;Remaining</title>
<path fill="none" stroke="darkblue" d="M88,-197.51C117.29,-253.68 210.41,-432.28 252.72,-513.43"/>
<polygon fill="darkblue" stroke="darkblue" points="249.65,-515.11 257.37,-522.36 255.85,-511.88 249.65,-515.11"/>
</g>
<!-- UpdateLastUsed -->
<g id="node17" class="node">
<title>UpdateLastUsed</title>
<polygon fill="none" stroke="black" points="280,-197.25 194,-197.25 194,-161.25 280,-161.25 280,-197.25"/>
<text text-anchor="middle" x="237" y="-183.05" font-family="Times,serif" font-size="14.00">Update job</text>
<text text-anchor="middle" x="237" y="-168.05" font-family="Times,serif" font-size="14.00">last used</text>
</g>
<!-- UpdateLastUsed&#45;&gt;Remaining -->
<g id="edge28" class="edge">
<title>UpdateLastUsed&#45;&gt;Remaining</title>
<path fill="none" stroke="darkblue" d="M238.72,-197.63C244.06,-251.62 260.51,-417.88 268.92,-502.95"/>
<polygon fill="darkblue" stroke="darkblue" points="265.47,-503.55 269.93,-513.16 272.43,-502.86 265.47,-503.55"/>
</g>
<!-- UpdateLastUsed&#45;&gt;CreateQueryFile -->
<!-- StatusSwitch -->
<g id="node19" class="node">
<title>StatusSwitch</title>
<polygon fill="none" stroke="black" points="423,-209.25 352,-179.25 423,-149.25 494,-179.25 423,-209.25"/>
<text text-anchor="middle" x="423" y="-183.05" font-family="Times,serif" font-size="14.00">Switch:</text>
<text text-anchor="middle" x="423" y="-168.05" font-family="Times,serif" font-size="14.00">job status</text>
</g>
<!-- UpdateLastUsed&#45;&gt;StatusSwitch -->
<g id="edge23" class="edge">
<title>UpdateLastUsed&#45;&gt;StatusSwitch</title>
<path fill="none" stroke="darkblue" d="M290.31,-179.25C310.84,-179.25 331.37,-179.25 351.89,-179.25"/>
<polygon fill="darkblue" stroke="darkblue" points="290.23,-175.75 280.23,-179.25 290.23,-182.75 290.23,-175.75"/>
<text text-anchor="middle" x="328.73" y="-183.05" font-family="Times,serif" font-size="14.00">COMPLETED</text>
</g>
<!-- RefreshStatus&#45;&gt;StatusSwitch -->
<g id="edge21" class="edge">
<title>RefreshStatus&#45;&gt;StatusSwitch</title>
<path fill="none" stroke="darkblue" d="M572.04,-257.23C541.46,-241.43 495.87,-217.89 463.17,-201"/>
<polygon fill="darkblue" stroke="darkblue" points="464.38,-197.69 453.89,-196.21 461.17,-203.9 464.38,-197.69"/>
</g>
<!-- RefreshStatus&#45;&gt;LinkUser1 -->
<!-- StatusSwitch&#45;&gt;Remaining -->
<g id="edge22" class="edge">
<title>StatusSwitch&#45;&gt;Remaining</title>
<path fill="none" stroke="darkblue" d="M415.41,-206.4C399.95,-258.47 362.53,-378.37 319,-474.25 312.8,-487.91 305.07,-502.34 297.78,-515.13"/>
<polygon fill="darkblue" stroke="darkblue" points="294.56,-513.71 292.58,-524.12 300.62,-517.22 294.56,-513.71"/>
<text text-anchor="middle" x="352.41" y="-240.2" font-family="Times,serif" font-size="14.00">ERRORED &#160;&#160;</text>
<text text-anchor="middle" x="352.41" y="-225.2" font-family="Times,serif" font-size="14.00">IN_PROGRESS &#160;&#160;&#160;</text>
<text text-anchor="middle" x="352.41" y="-210.2" font-family="Times,serif" font-size="14.00"> </text>
</g>
<!-- StatusSwitch&#45;&gt;CreateWorkspace -->
<g id="edge24" class="edge">
<title>StatusSwitch&#45;&gt;CreateWorkspace</title>
<path fill="none" stroke="darkblue" d="M456.68,-163.4C485.84,-150.55 528.35,-131.81 561.05,-117.39"/>
<polygon fill="darkblue" stroke="darkblue" points="562.69,-120.49 570.43,-113.26 559.86,-114.09 562.69,-120.49"/>
<text text-anchor="middle" x="490.68" y="-152.2" font-family="Times,serif" font-size="14.00">EXPIRED</text>
</g>
<!-- StatusSwitch&#45;&gt;CreateQueryFile -->
<!-- LinkUser1&#45;&gt;DB -->
<g id="edge4" class="edge">
<title>LinkUser1&#45;&gt;DB</title>
<path fill="none" stroke="#333333" stroke-dasharray="1,5" d="M652.4,-162.12C663.95,-157.88 676.43,-153.35 688,-149.25 721.84,-137.26 759.99,-124.2 789.98,-114.05"/>
<polygon fill="#333333" stroke="#333333" points="791.46,-117.25 799.82,-110.73 789.22,-110.61 791.46,-117.25"/>
</g>
<!-- LinkUser1&#45;&gt;CreateWorkspace -->
<!-- LinkUser1&#45;&gt;RefreshStatus -->
<g id="edge20" class="edge">
<title>LinkUser1&#45;&gt;RefreshStatus</title>
<path fill="none" stroke="darkblue" d="M608.27,-197.38C607.69,-211.13 606.85,-230.7 606.17,-246.66"/>
<polygon fill="darkblue" stroke="darkblue" points="602.66,-246.87 605.73,-257.01 609.66,-247.17 602.66,-246.87"/>
</g>
</g>
</svg>
