<?xml version="1.0" encoding="UTF-8" standalone="no"?>
<!DOCTYPE svg PUBLIC "-//W3C//DTD SVG 1.1//EN"
 "http://www.w3.org/Graphics/SVG/1.1/DTD/svg11.dtd">
<!-- Generated by graphviz version 2.43.0 (0)
 -->
<!-- Title: %3 Pages: 1 -->
<svg width="668pt" height="841pt"
 viewBox="0.00 0.00 668.00 841.00" xmlns="http://www.w3.org/2000/svg" xmlns:xlink="http://www.w3.org/1999/xlink">
<g id="graph0" class="graph" transform="scale(1 1) rotate(0) translate(4 837)">
<title>%3</title>
<polygon fill="white" stroke="transparent" points="-4,4 -4,-837 664,-837 664,4 -4,4"/>
<text text-anchor="middle" x="330" y="-817.8" font-family="Times,serif" font-size="14.00">For Each Sub&#45;Job</text>
<!-- Start -->
<g id="node1" class="node">
<title>Start</title>
<ellipse fill="none" stroke="blue" cx="196" cy="-792" rx="43" ry="18"/>
<text text-anchor="middle" x="196" y="-788.3" font-family="Times,serif" font-size="14.00">Start</text>
</g>
<!-- Remaining -->
<g id="node2" class="node">
<title>Remaining</title>
<polygon fill="none" stroke="black" points="196,-738 136,-693 196,-648 256,-693 196,-738"/>
<text text-anchor="middle" x="196" y="-704.3" font-family="Times,serif" font-size="14.00">More</text>
<text text-anchor="middle" x="196" y="-689.3" font-family="Times,serif" font-size="14.00">sub&#45;jobs</text>
<text text-anchor="middle" x="196" y="-674.3" font-family="Times,serif" font-size="14.00">remain</text>
</g>
<!-- Start&#45;&gt;Remaining -->
<g id="edge1" class="edge">
<title>Start&#45;&gt;Remaining</title>
<path fill="none" stroke="darkblue" d="M196,-773.66C196,-766.37 196,-757.47 196,-748.28"/>
<polygon fill="darkblue" stroke="darkblue" points="199.5,-748.26 196,-738.26 192.5,-748.26 199.5,-748.26"/>
</g>
<!-- NextJob -->
<g id="node3" class="node">
<title>NextJob</title>
<polygon fill="none" stroke="black" points="433,-711 347,-711 347,-675 433,-675 433,-711"/>
<text text-anchor="middle" x="390" y="-696.8" font-family="Times,serif" font-size="14.00">Next</text>
<text text-anchor="middle" x="390" y="-681.8" font-family="Times,serif" font-size="14.00">sub&#45;job</text>
</g>
<!-- Remaining&#45;&gt;NextJob -->
<g id="edge2" class="edge">
<title>Remaining&#45;&gt;NextJob</title>
<path fill="none" stroke="darkgreen" d="M256.25,-693C283.04,-693 309.83,-693 336.63,-693"/>
<polygon fill="darkgreen" stroke="darkgreen" points="336.9,-696.5 346.9,-693 336.9,-689.5 336.9,-696.5"/>
<text text-anchor="middle" x="268.75" y="-696.8" font-family="Times,serif" font-size="14.00">Yes</text>
</g>
<!-- HashJob -->
<g id="node4" class="node">
<title>HashJob</title>
<polygon fill="none" stroke="black" points="453,-612 367,-612 367,-576 453,-576 453,-612"/>
<text text-anchor="middle" x="410" y="-597.8" font-family="Times,serif" font-size="14.00">Calculate</text>
<text text-anchor="middle" x="410" y="-582.8" font-family="Times,serif" font-size="14.00">job digest</text>
</g>
<!-- NextJob&#45;&gt;HashJob -->
<g id="edge4" class="edge">
<title>NextJob&#45;&gt;HashJob</title>
<path fill="none" stroke="darkblue" d="M393.58,-674.66C396.59,-660.04 400.96,-638.86 404.43,-622.02"/>
<polygon fill="darkblue" stroke="darkblue" points="407.86,-622.69 406.46,-612.19 401.01,-621.28 407.86,-622.69"/>
</g>
<!-- LookupUserJob -->
<g id="node5" class="node">
<title>LookupUserJob</title>
<polygon fill="none" stroke="black" points="460,-540 374,-540 374,-504 460,-504 460,-540"/>
<text text-anchor="middle" x="417" y="-525.8" font-family="Times,serif" font-size="14.00">Lookup</text>
<text text-anchor="middle" x="417" y="-510.8" font-family="Times,serif" font-size="14.00">user job</text>
</g>
<!-- HashJob&#45;&gt;LookupUserJob -->
<g id="edge5" class="edge">
<title>HashJob&#45;&gt;LookupUserJob</title>
<path fill="none" stroke="darkblue" d="M411.73,-575.7C412.5,-567.98 413.43,-558.71 414.29,-550.11"/>
<polygon fill="darkblue" stroke="darkblue" points="417.78,-550.4 415.29,-540.1 410.81,-549.71 417.78,-550.4"/>
</g>
<!-- FoundUserJob -->
<g id="node6" class="node">
<title>FoundUserJob</title>
<polygon fill="none" stroke="black" points="425,-468 359,-438 425,-408 491,-438 425,-468"/>
<text text-anchor="middle" x="425" y="-441.8" font-family="Times,serif" font-size="14.00">Found</text>
<text text-anchor="middle" x="425" y="-426.8" font-family="Times,serif" font-size="14.00">user job?</text>
</g>
<!-- LookupUserJob&#45;&gt;FoundUserJob -->
<g id="edge6" class="edge">
<title>LookupUserJob&#45;&gt;FoundUserJob</title>
<path fill="none" stroke="darkblue" d="M418.7,-503.61C419.45,-495.89 420.37,-486.48 421.27,-477.25"/>
<polygon fill="darkblue" stroke="darkblue" points="424.78,-477.3 422.27,-467.01 417.81,-476.62 424.78,-477.3"/>
</g>
<!-- LookupJob -->
<g id="node7" class="node">
<title>LookupJob</title>
<polygon fill="none" stroke="black" points="639,-456 553,-456 553,-420 639,-420 639,-456"/>
<text text-anchor="middle" x="596" y="-434.3" font-family="Times,serif" font-size="14.00">Lookup job</text>
</g>
<!-- FoundUserJob&#45;&gt;LookupJob -->
<g id="edge8" class="edge">
<title>FoundUserJob&#45;&gt;LookupJob</title>
<path fill="none" stroke="darkred" d="M491.13,-438C508.37,-438 525.6,-438 542.84,-438"/>
<polygon fill="darkred" stroke="darkred" points="542.99,-441.5 552.99,-438 542.99,-434.5 542.99,-441.5"/>
<text text-anchor="middle" x="501.63" y="-441.8" font-family="Times,serif" font-size="14.00">No</text>
</g>
<!-- RefreshStatus -->
<g id="node14" class="node">
<title>RefreshStatus</title>
<polygon fill="none" stroke="black" points="439,-204 353,-204 353,-168 439,-168 439,-204"/>
<text text-anchor="middle" x="396" y="-189.8" font-family="Times,serif" font-size="14.00">Refresh job</text>
<text text-anchor="middle" x="396" y="-174.8" font-family="Times,serif" font-size="14.00">status</text>
</g>
<!-- FoundUserJob&#45;&gt;RefreshStatus -->
<g id="edge7" class="edge">
<title>FoundUserJob&#45;&gt;RefreshStatus</title>
<path fill="none" stroke="darkgreen" d="M421.79,-409.29C416.19,-361.05 404.73,-262.22 399.16,-214.28"/>
<polygon fill="darkgreen" stroke="darkgreen" points="402.61,-213.59 397.98,-204.06 395.65,-214.39 402.61,-213.59"/>
<text text-anchor="middle" x="409.29" y="-398.09" font-family="Times,serif" font-size="14.00">Yes</text>
</g>
<!-- LinkUser1 -->
<g id="node16" class="node">
<title>LinkUser1</title>
<polygon fill="none" stroke="black" points="541,-276 455,-276 455,-240 541,-240 541,-276"/>
<text text-anchor="middle" x="498" y="-261.8" font-family="Times,serif" font-size="14.00">Link user</text>
<text text-anchor="middle" x="498" y="-246.8" font-family="Times,serif" font-size="14.00">to job</text>
</g>
<!-- FoundUserJob&#45;&gt;LinkUser1 -->
<!-- FoundJob -->
<g id="node8" class="node">
<title>FoundJob</title>
<polygon fill="none" stroke="black" points="602,-372 557,-342 602,-312 647,-342 602,-372"/>
<text text-anchor="middle" x="602" y="-345.8" font-family="Times,serif" font-size="14.00">Found</text>
<text text-anchor="middle" x="602" y="-330.8" font-family="Times,serif" font-size="14.00">job?</text>
</g>
<!-- LookupJob&#45;&gt;FoundJob -->
<g id="edge9" class="edge">
<title>LookupJob&#45;&gt;FoundJob</title>
<path fill="none" stroke="darkblue" d="M597.1,-419.76C597.8,-408.86 598.72,-394.34 599.58,-380.86"/>
<polygon fill="darkblue" stroke="darkblue" points="603.08,-381.04 600.22,-370.83 596.09,-380.59 603.08,-381.04"/>
</g>
<!-- InsertJobIntoDB -->
<g id="node9" class="node">
<title>InsertJobIntoDB</title>
<polygon fill="none" stroke="black" points="660,-204 574,-204 574,-168 660,-168 660,-204"/>
<text text-anchor="middle" x="617" y="-189.8" font-family="Times,serif" font-size="14.00">Insert job</text>
<text text-anchor="middle" x="617" y="-174.8" font-family="Times,serif" font-size="14.00">into DB</text>
</g>
<!-- FoundJob&#45;&gt;InsertJobIntoDB -->
<g id="edge11" class="edge">
<title>FoundJob&#45;&gt;InsertJobIntoDB</title>
<path fill="none" stroke="darkred" d="M604.68,-313.47C607.4,-285.51 611.6,-242.48 614.32,-214.52"/>
<polygon fill="darkred" stroke="darkred" points="617.83,-214.55 615.32,-204.26 610.87,-213.88 617.83,-214.55"/>
<text text-anchor="middle" x="594.18" y="-302.27" font-family="Times,serif" font-size="14.00">No</text>
</g>
<!-- FoundJob&#45;&gt;LinkUser1 -->
<g id="edge10" class="edge">
<title>FoundJob&#45;&gt;LinkUser1</title>
<path fill="none" stroke="darkgreen" d="M581.95,-325.19C566.63,-313.11 545.27,-296.27 527.93,-282.6"/>
<polygon fill="darkgreen" stroke="darkgreen" points="529.81,-279.62 519.79,-276.18 525.47,-285.12 529.81,-279.62"/>
<text text-anchor="middle" x="569.45" y="-313.99" font-family="Times,serif" font-size="14.00">Yes</text>
</g>
<!-- CreateWorkspace -->
<g id="node10" class="node">
<title>CreateWorkspace</title>
<polygon fill="none" stroke="black" points="660,-120 574,-120 574,-84 660,-84 660,-120"/>
<text text-anchor="middle" x="617" y="-105.8" font-family="Times,serif" font-size="14.00">Create job</text>
<text text-anchor="middle" x="617" y="-90.8" font-family="Times,serif" font-size="14.00">workspace</text>
</g>
<!-- InsertJobIntoDB&#45;&gt;CreateWorkspace -->
<g id="edge12" class="edge">
<title>InsertJobIntoDB&#45;&gt;CreateWorkspace</title>
<path fill="none" stroke="darkblue" d="M617,-167.61C617,-156.77 617,-142.6 617,-130.29"/>
<polygon fill="darkblue" stroke="darkblue" points="620.5,-130.08 617,-120.08 613.5,-130.08 620.5,-130.08"/>
</g>
<!-- CreateQueryFile -->
<g id="node11" class="node">
<title>CreateQueryFile</title>
<polygon fill="none" stroke="black" points="660,-36 574,-36 574,0 660,0 660,-36"/>
<text text-anchor="middle" x="617" y="-21.8" font-family="Times,serif" font-size="14.00">Create</text>
<text text-anchor="middle" x="617" y="-6.8" font-family="Times,serif" font-size="14.00">query file</text>
</g>
<!-- CreateWorkspace&#45;&gt;CreateQueryFile -->
<g id="edge18" class="edge">
<title>CreateWorkspace&#45;&gt;CreateQueryFile</title>
<path fill="none" stroke="darkblue" d="M617,-83.61C617,-72.77 617,-58.6 617,-46.29"/>
<polygon fill="darkblue" stroke="darkblue" points="620.5,-46.08 617,-36.08 613.5,-46.08 620.5,-46.08"/>
</g>
<!-- SubmitToQueue -->
<g id="node12" class="node">
<title>SubmitToQueue</title>
<polygon fill="none" stroke="black" points="108,-36 22,-36 22,0 108,0 108,-36"/>
<text text-anchor="middle" x="65" y="-21.8" font-family="Times,serif" font-size="14.00">Submit job</text>
<text text-anchor="middle" x="65" y="-6.8" font-family="Times,serif" font-size="14.00">to queue</text>
</g>
<!-- SubmitToQueue&#45;&gt;Remaining -->
<g id="edge20" class="edge">
<title>SubmitToQueue&#45;&gt;Remaining</title>
<path fill="none" stroke="darkblue" d="M65,-36.45C65,-66.69 65,-130.82 65,-185 65,-523 65,-523 65,-523 65,-583.22 117.61,-634.99 156.15,-664.83"/>
<polygon fill="darkblue" stroke="darkblue" points="154.53,-667.99 164.62,-671.22 158.74,-662.4 154.53,-667.99"/>
</g>
<!-- SubmitToQueue&#45;&gt;CreateQueryFile -->
<g id="edge19" class="edge">
<title>SubmitToQueue&#45;&gt;CreateQueryFile</title>
<path fill="none" stroke="darkblue" d="M118.13,-18C270.01,-18 421.89,-18 573.77,-18"/>
<polygon fill="darkblue" stroke="darkblue" points="118.13,-14.5 108.12,-18 118.12,-21.5 118.13,-14.5"/>
</g>
<!-- UpdateLastUsed -->
<g id="node13" class="node">
<title>UpdateLastUsed</title>
<polygon fill="none" stroke="black" points="227,-120 141,-120 141,-84 227,-84 227,-120"/>
<text text-anchor="middle" x="184" y="-105.8" font-family="Times,serif" font-size="14.00">Update job</text>
<text text-anchor="middle" x="184" y="-90.8" font-family="Times,serif" font-size="14.00">last used</text>
</g>
<!-- UpdateLastUsed&#45;&gt;Remaining -->
<g id="edge21" class="edge">
<title>UpdateLastUsed&#45;&gt;Remaining</title>
<path fill="none" stroke="darkblue" d="M182.35,-120.07C179.75,-148.46 175,-207.19 175,-257 175,-523 175,-523 175,-523 175,-563.86 181.12,-609.86 186.75,-643.54"/>
<polygon fill="darkblue" stroke="darkblue" points="183.33,-644.31 188.48,-653.57 190.23,-643.13 183.33,-644.31"/>
</g>
<!-- StatusSwitch -->
<g id="node15" class="node">
<title>StatusSwitch</title>
<polygon fill="none" stroke="black" points="348,-132 277,-102 348,-72 419,-102 348,-132"/>
<text text-anchor="middle" x="348" y="-105.8" font-family="Times,serif" font-size="14.00">Switch:</text>
<text text-anchor="middle" x="348" y="-90.8" font-family="Times,serif" font-size="14.00">job status</text>
</g>
<!-- UpdateLastUsed&#45;&gt;StatusSwitch -->
<g id="edge16" class="edge">
<title>UpdateLastUsed&#45;&gt;StatusSwitch</title>
<path fill="none" stroke="darkblue" d="M237.3,-102C250.46,-102 263.62,-102 276.77,-102"/>
<polygon fill="darkblue" stroke="darkblue" points="237.24,-98.5 227.24,-102 237.24,-105.5 237.24,-98.5"/>
<text text-anchor="middle" x="261.74" y="-105.8" font-family="Times,serif" font-size="14.00">Complete</text>
</g>
<!-- RefreshStatus&#45;&gt;StatusSwitch -->
<g id="edge14" class="edge">
<title>RefreshStatus&#45;&gt;StatusSwitch</title>
<path fill="none" stroke="darkblue" d="M385.82,-167.61C380.26,-158.11 373.2,-146.05 366.69,-134.93"/>
<polygon fill="darkblue" stroke="darkblue" points="369.7,-133.14 361.63,-126.28 363.66,-136.68 369.7,-133.14"/>
</g>
<!-- StatusSwitch&#45;&gt;Remaining -->
<g id="edge15" class="edge">
<title>StatusSwitch&#45;&gt;Remaining</title>
<path fill="none" stroke="darkblue" d="M330.45,-125.01C309.42,-153.64 277,-206.07 277,-257 277,-523 277,-523 277,-523 277,-572.88 247.95,-623.62 224.65,-656.31"/>
<polygon fill="darkblue" stroke="darkblue" points="221.64,-654.49 218.56,-664.63 227.29,-658.62 221.64,-654.49"/>
<text text-anchor="middle" x="288.95" y="-143.81" font-family="Times,serif" font-size="14.00">Errored /</text>
<text text-anchor="middle" x="288.95" y="-128.81" font-family="Times,serif" font-size="14.00">In Progress</text>
</g>
<!-- StatusSwitch&#45;&gt;CreateWorkspace -->
<g id="edge17" class="edge">
<title>StatusSwitch&#45;&gt;CreateWorkspace</title>
<path fill="none" stroke="darkblue" d="M419.19,-102C467.28,-102 515.37,-102 563.47,-102"/>
<polygon fill="darkblue" stroke="darkblue" points="563.73,-105.5 573.73,-102 563.73,-98.5 563.73,-105.5"/>
<text text-anchor="middle" x="447.69" y="-105.8" font-family="Times,serif" font-size="14.00">Expired</text>
</g>
<!-- LinkUser1&#45;&gt;RefreshStatus -->
<g id="edge13" class="edge">
<title>LinkUser1&#45;&gt;RefreshStatus</title>
<path fill="none" stroke="darkblue" d="M473.05,-239.88C459.96,-230.89 443.74,-219.76 429.56,-210.03"/>
<polygon fill="darkblue" stroke="darkblue" points="431.27,-206.96 421.05,-204.19 427.31,-212.73 431.27,-206.96"/>
</g>
<!-- End -->
<g id="node17" class="node">
<title>End</title>
<ellipse fill="none" stroke="green" cx="43" cy="-693" rx="43" ry="18"/>
<text text-anchor="middle" x="43" y="-689.3" font-family="Times,serif" font-size="14.00">End</text>
</g>
<!-- End&#45;&gt;Remaining -->
<g id="edge3" class="edge">
<title>End&#45;&gt;Remaining</title>
<path fill="none" stroke="darkred" d="M96.15,-693C109.39,-693 122.62,-693 135.86,-693"/>
<polygon fill="darkred" stroke="darkred" points="96.03,-689.5 86.03,-693 96.03,-696.5 96.03,-689.5"/>
<text text-anchor="middle" x="125.36" y="-696.8" font-family="Times,serif" font-size="14.00">No</text>
</g>
</g>
</svg>
