<?xml version="1.0" encoding="UTF-8" standalone="no"?>
<!DOCTYPE svg PUBLIC "-//W3C//DTD SVG 1.1//EN"
 "http://www.w3.org/Graphics/SVG/1.1/DTD/svg11.dtd">
<!-- Generated by graphviz version 2.43.0 (0)
 -->
<!-- Title: %3 Pages: 1 -->
<svg width="451pt" height="703pt"
 viewBox="0.00 0.00 451.00 703.00" xmlns="http://www.w3.org/2000/svg" xmlns:xlink="http://www.w3.org/1999/xlink">
<g id="graph0" class="graph" transform="scale(1 1) rotate(0) translate(4 699)">
<title>%3</title>
<polygon fill="white" stroke="transparent" points="-4,4 -4,-699 447,-699 447,4 -4,4"/>
<text text-anchor="middle" x="221.5" y="-679.8" font-family="Times,serif" font-size="14.00">For each sub&#45;job</text>
<!-- Start -->
<g id="node1" class="node">
<title>Start</title>
<ellipse fill="none" stroke="blue" cx="168" cy="-654" rx="36" ry="18"/>
<text text-anchor="middle" x="168" y="-650.3" font-family="Times,serif" font-size="14.00">Start</text>
</g>
<!-- Remaining -->
<g id="node2" class="node">
<title>Remaining</title>
<polygon fill="none" stroke="black" points="168,-600 108,-555 168,-510 228,-555 168,-600"/>
<text text-anchor="middle" x="168" y="-566.3" font-family="Times,serif" font-size="14.00">More</text>
<text text-anchor="middle" x="168" y="-551.3" font-family="Times,serif" font-size="14.00">sub&#45;jobs</text>
<text text-anchor="middle" x="168" y="-536.3" font-family="Times,serif" font-size="14.00">remain</text>
</g>
<!-- Start&#45;&gt;Remaining -->
<g id="edge1" class="edge">
<title>Start&#45;&gt;Remaining</title>
<path fill="none" stroke="darkblue" d="M168,-635.84C168,-635.84 168,-610.22 168,-610.22"/>
<polygon fill="darkblue" stroke="darkblue" points="171.5,-610.22 168,-600.22 164.5,-610.22 171.5,-610.22"/>
</g>
<!-- IsUserLinked -->
<g id="node11" class="node">
<title>IsUserLinked</title>
<polygon fill="none" stroke="black" points="316,-600 267,-555 316,-510 365,-555 316,-600"/>
<text text-anchor="middle" x="316" y="-566.3" font-family="Times,serif" font-size="14.00">Is user</text>
<text text-anchor="middle" x="316" y="-551.3" font-family="Times,serif" font-size="14.00">linked</text>
<text text-anchor="middle" x="316" y="-536.3" font-family="Times,serif" font-size="14.00">to job</text>
</g>
<!-- Remaining&#45;&gt;IsUserLinked -->
<g id="edge2" class="edge">
<title>Remaining&#45;&gt;IsUserLinked</title>
<path fill="none" stroke="darkgreen" d="M228.2,-555C228.2,-555 256.72,-555 256.72,-555"/>
<polygon fill="darkgreen" stroke="darkgreen" points="256.72,-558.5 266.72,-555 256.72,-551.5 256.72,-558.5"/>
<text text-anchor="middle" x="242.7" y="-558.8" font-family="Times,serif" font-size="14.00"> Yes</text>
</g>
<!-- CreateWorkspace -->
<g id="node3" class="node">
<title>CreateWorkspace</title>
<polygon fill="none" stroke="black" points="371,-108 295,-108 295,-72 371,-72 371,-108"/>
<text text-anchor="middle" x="333" y="-93.8" font-family="Times,serif" font-size="14.00">Create job</text>
<text text-anchor="middle" x="333" y="-78.8" font-family="Times,serif" font-size="14.00">workspace</text>
</g>
<!-- CreateQueryFile -->
<g id="node4" class="node">
<title>CreateQueryFile</title>
<polygon fill="none" stroke="black" points="369,-36 297,-36 297,0 369,0 369,-36"/>
<text text-anchor="middle" x="333" y="-21.8" font-family="Times,serif" font-size="14.00">Create</text>
<text text-anchor="middle" x="333" y="-6.8" font-family="Times,serif" font-size="14.00">query file</text>
</g>
<!-- CreateWorkspace&#45;&gt;CreateQueryFile -->
<g id="edge11" class="edge">
<title>CreateWorkspace&#45;&gt;CreateQueryFile</title>
<path fill="none" stroke="darkblue" d="M333,-71.83C333,-71.83 333,-46.41 333,-46.41"/>
<polygon fill="darkblue" stroke="darkblue" points="336.5,-46.41 333,-36.41 329.5,-46.41 336.5,-46.41"/>
</g>
<!-- SubmitToQueue -->
<g id="node5" class="node">
<title>SubmitToQueue</title>
<polygon fill="none" stroke="black" points="133.5,-36 54.5,-36 54.5,0 133.5,0 133.5,-36"/>
<text text-anchor="middle" x="94" y="-21.8" font-family="Times,serif" font-size="14.00">Submit job</text>
<text text-anchor="middle" x="94" y="-6.8" font-family="Times,serif" font-size="14.00">to queue</text>
</g>
<!-- SubmitToQueue&#45;&gt;Remaining -->
<g id="edge13" class="edge">
<title>SubmitToQueue&#45;&gt;Remaining</title>
<path fill="none" stroke="darkblue" d="M120.75,-36.17C120.75,-36.17 120.75,-535.26 120.75,-535.26"/>
<polygon fill="darkblue" stroke="darkblue" points="117.25,-535.26 120.75,-545.26 124.25,-535.26 117.25,-535.26"/>
</g>
<!-- SubmitToQueue&#45;&gt;CreateQueryFile -->
<g id="edge12" class="edge">
<title>SubmitToQueue&#45;&gt;CreateQueryFile</title>
<path fill="none" stroke="darkblue" d="M143.73,-18C143.73,-18 296.7,-18 296.7,-18"/>
<polygon fill="darkblue" stroke="darkblue" points="143.73,-14.5 133.73,-18 143.73,-21.5 143.73,-14.5"/>
</g>
<!-- UpdateLastUsed -->
<g id="node6" class="node">
<title>UpdateLastUsed</title>
<polygon fill="none" stroke="black" points="237.5,-192 158.5,-192 158.5,-156 237.5,-156 237.5,-192"/>
<text text-anchor="middle" x="198" y="-177.8" font-family="Times,serif" font-size="14.00">Update job</text>
<text text-anchor="middle" x="198" y="-162.8" font-family="Times,serif" font-size="14.00">last used</text>
</g>
<!-- UpdateLastUsed&#45;&gt;Remaining -->
<g id="edge14" class="edge">
<title>UpdateLastUsed&#45;&gt;Remaining</title>
<path fill="none" stroke="darkblue" d="M181.67,-192.12C181.67,-192.12 181.67,-510.18 181.67,-510.18"/>
<polygon fill="darkblue" stroke="darkblue" points="178.17,-510.18 181.67,-520.18 185.17,-510.18 178.17,-510.18"/>
</g>
<!-- StillCached -->
<g id="node7" class="node">
<title>StillCached</title>
<polygon fill="none" stroke="black" points="333,-204 278,-174 333,-144 388,-174 333,-204"/>
<text text-anchor="middle" x="333" y="-177.8" font-family="Times,serif" font-size="14.00">Job still</text>
<text text-anchor="middle" x="333" y="-162.8" font-family="Times,serif" font-size="14.00">cached</text>
</g>
<!-- UpdateLastUsed&#45;&gt;StillCached -->
<g id="edge9" class="edge">
<title>UpdateLastUsed&#45;&gt;StillCached</title>
<path fill="none" stroke="darkgreen" d="M247.77,-174C247.77,-174 277.51,-174 277.51,-174"/>
<polygon fill="darkgreen" stroke="darkgreen" points="247.77,-170.5 237.77,-174 247.77,-177.5 247.77,-170.5"/>
<text text-anchor="middle" x="265.01" y="-177.8" font-family="Times,serif" font-size="14.00">Yes</text>
</g>
<!-- StillCached&#45;&gt;CreateWorkspace -->
<g id="edge10" class="edge">
<title>StillCached&#45;&gt;CreateWorkspace</title>
<path fill="none" stroke="darkred" d="M333,-143.67C333,-143.67 333,-118.3 333,-118.3"/>
<polygon fill="darkred" stroke="darkred" points="336.5,-118.3 333,-108.3 329.5,-118.3 336.5,-118.3"/>
<text text-anchor="middle" x="322.5" y="-132.47" font-family="Times,serif" font-size="14.00">No</text>
</g>
<!-- RefreshStatus -->
<g id="node8" class="node">
<title>RefreshStatus</title>
<polygon fill="none" stroke="black" points="379,-402 297,-402 297,-366 379,-366 379,-402"/>
<text text-anchor="middle" x="338" y="-387.8" font-family="Times,serif" font-size="14.00">Refresh job</text>
<text text-anchor="middle" x="338" y="-372.8" font-family="Times,serif" font-size="14.00">status</text>
</g>
<!-- StatusFailed -->
<g id="node9" class="node">
<title>StatusFailed</title>
<polygon fill="none" stroke="black" points="335,-330 274,-285 335,-240 396,-285 335,-330"/>
<text text-anchor="middle" x="335" y="-296.3" font-family="Times,serif" font-size="14.00">Job</text>
<text text-anchor="middle" x="335" y="-281.3" font-family="Times,serif" font-size="14.00">status is</text>
<text text-anchor="middle" x="335" y="-266.3" font-family="Times,serif" font-size="14.00">failed</text>
</g>
<!-- RefreshStatus&#45;&gt;StatusFailed -->
<g id="edge6" class="edge">
<title>RefreshStatus&#45;&gt;StatusFailed</title>
<path fill="none" stroke="darkblue" d="M338,-365.84C338,-365.84 338,-338.12 338,-338.12"/>
<polygon fill="darkblue" stroke="darkblue" points="341.5,-338.12 338,-328.12 334.5,-338.12 341.5,-338.12"/>
</g>
<!-- StatusFailed&#45;&gt;Remaining -->
<g id="edge7" class="edge">
<title>StatusFailed&#45;&gt;Remaining</title>
<path fill="none" stroke="darkgreen" d="M273.73,-285C239.97,-285 204.83,-285 204.83,-285 204.83,-285 204.83,-527.28 204.83,-527.28"/>
<polygon fill="darkgreen" stroke="darkgreen" points="201.33,-527.28 204.83,-537.28 208.33,-527.28 201.33,-527.28"/>
<text text-anchor="middle" x="261.23" y="-288.8" font-family="Times,serif" font-size="14.00">Yes</text>
</g>
<!-- StatusFailed&#45;&gt;StillCached -->
<g id="edge8" class="edge">
<title>StatusFailed&#45;&gt;StillCached</title>
<path fill="none" stroke="darkred" d="M333,-241.45C333,-241.45 333,-214.07 333,-214.07"/>
<polygon fill="darkred" stroke="darkred" points="336.5,-214.07 333,-204.07 329.5,-214.07 336.5,-214.07"/>
<text text-anchor="middle" x="322.5" y="-214.25" font-family="Times,serif" font-size="14.00">No</text>
</g>
<!-- LinkUser -->
<g id="node10" class="node">
<title>LinkUser</title>
<polygon fill="none" stroke="black" points="443,-474 371,-474 371,-438 443,-438 443,-474"/>
<text text-anchor="middle" x="407" y="-459.8" font-family="Times,serif" font-size="14.00">Link user</text>
<text text-anchor="middle" x="407" y="-444.8" font-family="Times,serif" font-size="14.00">to job</text>
</g>
<!-- LinkUser&#45;&gt;RefreshStatus -->
<g id="edge5" class="edge">
<title>LinkUser&#45;&gt;RefreshStatus</title>
<path fill="none" stroke="darkblue" d="M375,-437.83C375,-437.83 375,-412.41 375,-412.41"/>
<polygon fill="darkblue" stroke="darkblue" points="378.5,-412.41 375,-402.41 371.5,-412.41 378.5,-412.41"/>
</g>
<!-- IsUserLinked&#45;&gt;RefreshStatus -->
<g id="edge4" class="edge">
<title>IsUserLinked&#45;&gt;RefreshStatus</title>
<path fill="none" stroke="darkgreen" d="M319.67,-513.17C319.67,-513.17 319.67,-412.42 319.67,-412.42"/>
<polygon fill="darkgreen" stroke="darkgreen" points="323.17,-412.42 319.67,-402.42 316.17,-412.42 323.17,-412.42"/>
<text text-anchor="middle" x="302.67" y="-501.97" font-family="Times,serif" font-size="14.00">Yes &#160;</text>
</g>
<!-- IsUserLinked&#45;&gt;LinkUser -->
<g id="edge3" class="edge">
<title>IsUserLinked&#45;&gt;LinkUser</title>
<path fill="none" stroke="darkred" d="M342.33,-534C342.33,-504.94 342.33,-456 342.33,-456 342.33,-456 360.89,-456 360.89,-456"/>
<polygon fill="darkred" stroke="darkred" points="360.89,-459.5 370.89,-456 360.89,-452.5 360.89,-459.5"/>
<text text-anchor="middle" x="357.33" y="-506.8" font-family="Times,serif" font-size="14.00"> &#160;No</text>
</g>
<!-- End -->
<g id="node12" class="node">
<title>End</title>
<ellipse fill="none" stroke="green" cx="36" cy="-555" rx="36" ry="18"/>
<text text-anchor="middle" x="36" y="-551.3" font-family="Times,serif" font-size="14.00">End</text>
</g>
<!-- End&#45;&gt;Remaining -->
<g id="edge15" class="edge">
<title>End&#45;&gt;Remaining</title>
<path fill="none" stroke="darkred" d="M82.07,-555C82.07,-555 107.85,-555 107.85,-555"/>
<polygon fill="darkred" stroke="darkred" points="82.07,-551.5 72.07,-555 82.07,-558.5 82.07,-551.5"/>
<text text-anchor="middle" x="97.35" y="-558.8" font-family="Times,serif" font-size="14.00">No</text>
</g>
</g>
</svg>
