<?xml version="1.0" encoding="UTF-8" standalone="no"?>
<!DOCTYPE svg PUBLIC "-//W3C//DTD SVG 1.1//EN"
 "http://www.w3.org/Graphics/SVG/1.1/DTD/svg11.dtd">
<!-- Generated by graphviz version 2.43.0 (0)
 -->
<!-- Title: %3 Pages: 1 -->
<svg width="835pt" height="920pt"
 viewBox="0.00 0.00 835.00 920.25" xmlns="http://www.w3.org/2000/svg" xmlns:xlink="http://www.w3.org/1999/xlink">
<g id="graph0" class="graph" transform="scale(1 1) rotate(0) translate(4 916.25)">
<title>%3</title>
<polygon fill="white" stroke="transparent" points="-4,4 -4,-916.25 831,-916.25 831,4 -4,4"/>
<text text-anchor="middle" x="413.5" y="-897.05" font-family="Times,serif" font-size="14.00">For Each Sub&#45;Job</text>
<!-- Start -->
<g id="node1" class="node">
<title>Start</title>
<ellipse fill="none" stroke="black" cx="221" cy="-871.25" rx="43" ry="18"/>
<text text-anchor="middle" x="221" y="-867.55" font-family="Times,serif" font-size="14.00">Start</text>
</g>
<!-- Remaining -->
<g id="node6" class="node">
<title>Remaining</title>
<polygon fill="none" stroke="black" points="221,-817.25 161,-772.25 221,-727.25 281,-772.25 221,-817.25"/>
<text text-anchor="middle" x="221" y="-783.55" font-family="Times,serif" font-size="14.00">More</text>
<text text-anchor="middle" x="221" y="-768.55" font-family="Times,serif" font-size="14.00">sub&#45;jobs</text>
<text text-anchor="middle" x="221" y="-753.55" font-family="Times,serif" font-size="14.00">remain</text>
</g>
<!-- Start&#45;&gt;Remaining -->
<g id="edge8" class="edge">
<title>Start&#45;&gt;Remaining</title>
<path fill="none" stroke="darkblue" d="M221,-852.91C221,-845.62 221,-836.72 221,-827.53"/>
<polygon fill="darkblue" stroke="darkblue" points="224.5,-827.51 221,-817.51 217.5,-827.51 224.5,-827.51"/>
</g>
<!-- End -->
<g id="node2" class="node">
<title>End</title>
<ellipse fill="none" stroke="black" cx="43" cy="-772.25" rx="43" ry="18"/>
<text text-anchor="middle" x="43" y="-768.55" font-family="Times,serif" font-size="14.00">End</text>
</g>
<!-- End&#45;&gt;Remaining -->
<g id="edge10" class="edge">
<title>End&#45;&gt;Remaining</title>
<path fill="none" stroke="darkred" d="M96.34,-772.25C117.87,-772.25 139.4,-772.25 160.93,-772.25"/>
<polygon fill="darkred" stroke="darkred" points="96.11,-768.75 86.11,-772.25 96.11,-775.75 96.11,-768.75"/>
<text text-anchor="middle" x="150.43" y="-776.05" font-family="Times,serif" font-size="14.00">No</text>
</g>
<!-- SubmitToQueue -->
<g id="node16" class="node">
<title>SubmitToQueue</title>
<polygon fill="none" stroke="black" points="162,-110.62 76,-110.62 76,-74.62 162,-74.62 162,-110.62"/>
<text text-anchor="middle" x="119" y="-96.42" font-family="Times,serif" font-size="14.00">Submit job</text>
<text text-anchor="middle" x="119" y="-81.42" font-family="Times,serif" font-size="14.00">to queue</text>
</g>
<!-- End&#45;&gt;SubmitToQueue -->
<!-- DB -->
<g id="node3" class="node">
<title>DB</title>
<path fill="none" stroke="purple" d="M827,-350.48C827,-352.28 807.73,-353.75 784,-353.75 760.27,-353.75 741,-352.28 741,-350.48 741,-350.48 741,-321.02 741,-321.02 741,-319.22 760.27,-317.75 784,-317.75 807.73,-317.75 827,-319.22 827,-321.02 827,-321.02 827,-350.48 827,-350.48"/>
<path fill="none" stroke="purple" d="M827,-350.48C827,-348.67 807.73,-347.2 784,-347.2 760.27,-347.2 741,-348.67 741,-350.48"/>
<text text-anchor="middle" x="784" y="-332.05" font-family="Times,serif" font-size="14.00">MBlast DB</text>
</g>
<!-- FS -->
<g id="node4" class="node">
<title>FS</title>
<path fill="none" stroke="purple" d="M563,-109.6C563,-111.68 543.73,-113.38 520,-113.38 496.27,-113.38 477,-111.68 477,-109.6 477,-109.6 477,-75.65 477,-75.65 477,-73.57 496.27,-71.87 520,-71.87 543.73,-71.87 563,-73.57 563,-75.65 563,-75.65 563,-109.6 563,-109.6"/>
<path fill="none" stroke="purple" d="M563,-109.6C563,-107.52 543.73,-105.83 520,-105.83 496.27,-105.83 477,-107.52 477,-109.6"/>
<text text-anchor="middle" x="520" y="-96.42" font-family="Times,serif" font-size="14.00">MBlast</text>
<text text-anchor="middle" x="520" y="-81.42" font-family="Times,serif" font-size="14.00">Workspaces</text>
</g>
<!-- Queue -->
<g id="node5" class="node">
<title>Queue</title>
<polygon fill="none" stroke="purple" points="162,-36 76,-36 76,-32 72,-32 72,-28 76,-28 76,-8 72,-8 72,-4 76,-4 76,0 162,0 162,-36"/>
<polyline fill="none" stroke="purple" points="76,-32 80,-32 80,-28 76,-28 "/>
<polyline fill="none" stroke="purple" points="76,-8 80,-8 80,-4 76,-4 "/>
<text text-anchor="middle" x="119" y="-14.3" font-family="Times,serif" font-size="14.00">Job Queue</text>
</g>
<!-- NextJob -->
<g id="node7" class="node">
<title>NextJob</title>
<polygon fill="none" stroke="black" points="419,-790.25 333,-790.25 333,-754.25 419,-754.25 419,-790.25"/>
<text text-anchor="middle" x="376" y="-776.05" font-family="Times,serif" font-size="14.00">Next</text>
<text text-anchor="middle" x="376" y="-761.05" font-family="Times,serif" font-size="14.00">sub&#45;job</text>
</g>
<!-- Remaining&#45;&gt;NextJob -->
<g id="edge9" class="edge">
<title>Remaining&#45;&gt;NextJob</title>
<path fill="none" stroke="darkgreen" d="M281.24,-772.25C295.04,-772.25 308.84,-772.25 322.64,-772.25"/>
<polygon fill="darkgreen" stroke="darkgreen" points="322.69,-775.75 332.69,-772.25 322.69,-768.75 322.69,-775.75"/>
<text text-anchor="middle" x="293.74" y="-776.05" font-family="Times,serif" font-size="14.00">Yes</text>
</g>
<!-- HashJob -->
<g id="node8" class="node">
<title>HashJob</title>
<polygon fill="none" stroke="black" points="555,-790.25 469,-790.25 469,-754.25 555,-754.25 555,-790.25"/>
<text text-anchor="middle" x="512" y="-776.05" font-family="Times,serif" font-size="14.00">Calculate</text>
<text text-anchor="middle" x="512" y="-761.05" font-family="Times,serif" font-size="14.00">job digest</text>
</g>
<!-- NextJob&#45;&gt;HashJob -->
<g id="edge11" class="edge">
<title>NextJob&#45;&gt;HashJob</title>
<path fill="none" stroke="darkblue" d="M419.03,-772.25C432.25,-772.25 445.46,-772.25 458.68,-772.25"/>
<polygon fill="darkblue" stroke="darkblue" points="458.78,-775.75 468.78,-772.25 458.78,-768.75 458.78,-775.75"/>
</g>
<!-- LookupUserJob -->
<g id="node9" class="node">
<title>LookupUserJob</title>
<polygon fill="none" stroke="black" points="469,-654.75 469,-690.75 555,-690.75 555,-654.75 469,-654.75"/>
<text text-anchor="middle" x="474.5" y="-669.05" font-family="Times,serif" font-size="14.00"> </text>
<polyline fill="none" stroke="black" points="480,-654.75 480,-690.75 "/>
<text text-anchor="middle" x="512" y="-676.55" font-family="Times,serif" font-size="14.00">Lookup</text>
<text text-anchor="middle" x="512" y="-661.55" font-family="Times,serif" font-size="14.00">user job</text>
<polyline fill="none" stroke="black" points="544,-654.75 544,-690.75 "/>
<text text-anchor="middle" x="549.5" y="-669.05" font-family="Times,serif" font-size="14.00"> </text>
</g>
<!-- NextJob&#45;&gt;LookupUserJob -->
<!-- HashJob&#45;&gt;LookupUserJob -->
<g id="edge12" class="edge">
<title>HashJob&#45;&gt;LookupUserJob</title>
<path fill="none" stroke="darkblue" d="M512,-753.82C512,-739.26 512,-718.24 512,-701.39"/>
<polygon fill="darkblue" stroke="darkblue" points="515.5,-701.03 512,-691.03 508.5,-701.03 515.5,-701.03"/>
</g>
<!-- LookupUserJob&#45;&gt;DB -->
<g id="edge1" class="edge">
<title>LookupUserJob&#45;&gt;DB</title>
<path fill="none" stroke="#333333" stroke-dasharray="1,5" d="M565.08,-671.57C615.42,-668.81 690.77,-657.64 742,-618.25 814.5,-562.5 805.27,-517.07 816,-426.25 817.88,-410.36 820.26,-405.67 816,-390.25 812.37,-377.11 804.56,-363.94 797.57,-353.96"/>
<polygon fill="#333333" stroke="#333333" points="564.88,-668.08 555.05,-672.03 565.2,-675.07 564.88,-668.08"/>
</g>
<!-- FoundUserJob -->
<g id="node10" class="node">
<title>FoundUserJob</title>
<polygon fill="none" stroke="black" points="512,-618.25 446,-588.25 512,-558.25 578,-588.25 512,-618.25"/>
<text text-anchor="middle" x="512" y="-592.05" font-family="Times,serif" font-size="14.00">Found</text>
<text text-anchor="middle" x="512" y="-577.05" font-family="Times,serif" font-size="14.00">user job?</text>
</g>
<!-- LookupUserJob&#45;&gt;FoundUserJob -->
<g id="edge13" class="edge">
<title>LookupUserJob&#45;&gt;FoundUserJob</title>
<path fill="none" stroke="darkblue" d="M512,-654.66C512,-647.04 512,-637.74 512,-628.56"/>
<polygon fill="darkblue" stroke="darkblue" points="515.5,-628.35 512,-618.35 508.5,-628.35 515.5,-628.35"/>
</g>
<!-- LookupJob -->
<g id="node11" class="node">
<title>LookupJob</title>
<polygon fill="none" stroke="black" points="717,-606.25 631,-606.25 631,-570.25 717,-570.25 717,-606.25"/>
<text text-anchor="middle" x="674" y="-584.55" font-family="Times,serif" font-size="14.00">Lookup job</text>
</g>
<!-- FoundUserJob&#45;&gt;LookupJob -->
<g id="edge15" class="edge">
<title>FoundUserJob&#45;&gt;LookupJob</title>
<path fill="none" stroke="darkred" d="M578.13,-588.25C592.29,-588.25 606.46,-588.25 620.62,-588.25"/>
<polygon fill="darkred" stroke="darkred" points="620.93,-591.75 630.93,-588.25 620.93,-584.75 620.93,-591.75"/>
<text text-anchor="middle" x="588.63" y="-592.05" font-family="Times,serif" font-size="14.00">No</text>
</g>
<!-- RefreshStatus -->
<g id="node18" class="node">
<title>RefreshStatus</title>
<polygon fill="none" stroke="black" points="399,-317.75 399,-353.75 485,-353.75 485,-317.75 399,-317.75"/>
<text text-anchor="middle" x="402" y="-332.05" font-family="Times,serif" font-size="14.00"> </text>
<polyline fill="none" stroke="black" points="405,-317.75 405,-353.75 "/>
<text text-anchor="middle" x="441.5" y="-339.55" font-family="Times,serif" font-size="14.00">Refresh</text>
<text text-anchor="middle" x="441.5" y="-324.55" font-family="Times,serif" font-size="14.00">job status</text>
<polyline fill="none" stroke="black" points="478,-317.75 478,-353.75 "/>
<text text-anchor="middle" x="481.5" y="-332.05" font-family="Times,serif" font-size="14.00"> </text>
</g>
<!-- FoundUserJob&#45;&gt;RefreshStatus -->
<g id="edge14" class="edge">
<title>FoundUserJob&#45;&gt;RefreshStatus</title>
<path fill="none" stroke="darkgreen" d="M504.77,-561.39C491.43,-513.64 463.06,-412.11 449.51,-363.62"/>
<polygon fill="darkgreen" stroke="darkgreen" points="452.84,-362.53 446.78,-353.84 446.1,-364.41 452.84,-362.53"/>
<text text-anchor="middle" x="492.27" y="-550.19" font-family="Times,serif" font-size="14.00">Yes</text>
</g>
<!-- LookupJob&#45;&gt;DB -->
<g id="edge2" class="edge">
<title>LookupJob&#45;&gt;DB</title>
<path fill="none" stroke="#333333" stroke-dasharray="1,5" d="M707.18,-563.7C720.53,-552.59 734.9,-538.24 744,-522.25 775.78,-466.42 782.35,-388.01 783.68,-353.82"/>
<polygon fill="#333333" stroke="#333333" points="704.68,-561.22 699.05,-570.19 709.05,-566.69 704.68,-561.22"/>
</g>
<!-- FoundJob -->
<g id="node12" class="node">
<title>FoundJob</title>
<polygon fill="none" stroke="black" points="674,-522.25 629,-492.25 674,-462.25 719,-492.25 674,-522.25"/>
<text text-anchor="middle" x="674" y="-496.05" font-family="Times,serif" font-size="14.00">Found</text>
<text text-anchor="middle" x="674" y="-481.05" font-family="Times,serif" font-size="14.00">job?</text>
</g>
<!-- LookupJob&#45;&gt;FoundJob -->
<g id="edge16" class="edge">
<title>LookupJob&#45;&gt;FoundJob</title>
<path fill="none" stroke="darkblue" d="M674,-570.01C674,-559.55 674,-545.76 674,-532.75"/>
<polygon fill="darkblue" stroke="darkblue" points="677.5,-532.57 674,-522.57 670.5,-532.57 677.5,-532.57"/>
</g>
<!-- InsertJobIntoDB -->
<g id="node13" class="node">
<title>InsertJobIntoDB</title>
<polygon fill="none" stroke="black" points="723,-426.25 637,-426.25 637,-390.25 723,-390.25 723,-426.25"/>
<text text-anchor="middle" x="680" y="-412.05" font-family="Times,serif" font-size="14.00">Insert job</text>
<text text-anchor="middle" x="680" y="-397.05" font-family="Times,serif" font-size="14.00">into DB</text>
</g>
<!-- FoundJob&#45;&gt;InsertJobIntoDB -->
<g id="edge18" class="edge">
<title>FoundJob&#45;&gt;InsertJobIntoDB</title>
<path fill="none" stroke="darkred" d="M676.03,-463.49C676.67,-454.77 677.37,-445.15 678.01,-436.47"/>
<polygon fill="darkred" stroke="darkred" points="681.5,-436.69 678.74,-426.46 674.52,-436.18 681.5,-436.69"/>
<text text-anchor="middle" x="665.53" y="-452.29" font-family="Times,serif" font-size="14.00">No</text>
</g>
<!-- LinkUser1 -->
<g id="node20" class="node">
<title>LinkUser1</title>
<polygon fill="none" stroke="black" points="587,-426.25 501,-426.25 501,-390.25 587,-390.25 587,-426.25"/>
<text text-anchor="middle" x="544" y="-412.05" font-family="Times,serif" font-size="14.00">Link user</text>
<text text-anchor="middle" x="544" y="-397.05" font-family="Times,serif" font-size="14.00">to job</text>
</g>
<!-- FoundJob&#45;&gt;LinkUser1 -->
<g id="edge17" class="edge">
<title>FoundJob&#45;&gt;LinkUser1</title>
<path fill="none" stroke="darkgreen" d="M651.36,-476.97C631.7,-464.57 602.9,-446.4 580.08,-432.01"/>
<polygon fill="darkgreen" stroke="darkgreen" points="581.67,-428.87 571.34,-426.5 577.93,-434.79 581.67,-428.87"/>
<text text-anchor="middle" x="638.86" y="-465.77" font-family="Times,serif" font-size="14.00">Yes</text>
</g>
<!-- InsertJobIntoDB&#45;&gt;DB -->
<g id="edge3" class="edge">
<title>InsertJobIntoDB&#45;&gt;DB</title>
<path fill="none" stroke="#333333" stroke-dasharray="1,5" d="M705.18,-390.18C718.84,-380.92 735.92,-369.34 750.68,-359.34"/>
<polygon fill="#333333" stroke="#333333" points="752.74,-362.17 759.06,-353.66 748.82,-356.37 752.74,-362.17"/>
</g>
<!-- CreateWorkspace -->
<g id="node14" class="node">
<title>CreateWorkspace</title>
<polygon fill="none" stroke="black" points="623,-269.25 537,-269.25 537,-233.25 623,-233.25 623,-269.25"/>
<text text-anchor="middle" x="580" y="-255.05" font-family="Times,serif" font-size="14.00">Create job</text>
<text text-anchor="middle" x="580" y="-240.05" font-family="Times,serif" font-size="14.00">workspace</text>
</g>
<!-- InsertJobIntoDB&#45;&gt;CreateWorkspace -->
<g id="edge19" class="edge">
<title>InsertJobIntoDB&#45;&gt;CreateWorkspace</title>
<path fill="none" stroke="darkblue" d="M668.92,-390.07C651.42,-362.95 617.29,-310.05 596.78,-278.26"/>
<polygon fill="darkblue" stroke="darkblue" points="599.5,-276.01 591.13,-269.51 593.61,-279.81 599.5,-276.01"/>
</g>
<!-- CreateWorkspace&#45;&gt;FS -->
<g id="edge5" class="edge">
<title>CreateWorkspace&#45;&gt;FS</title>
<path fill="none" stroke="#333333" stroke-dasharray="1,5" d="M573.46,-233.19C563.34,-206.75 543.72,-155.54 531.27,-123.05"/>
<polygon fill="#333333" stroke="#333333" points="534.5,-121.7 527.66,-113.61 527.97,-124.2 534.5,-121.7"/>
</g>
<!-- CreateQueryFile -->
<g id="node15" class="node">
<title>CreateQueryFile</title>
<polygon fill="none" stroke="black" points="504,-185.25 418,-185.25 418,-149.25 504,-149.25 504,-185.25"/>
<text text-anchor="middle" x="461" y="-171.05" font-family="Times,serif" font-size="14.00">Create</text>
<text text-anchor="middle" x="461" y="-156.05" font-family="Times,serif" font-size="14.00">query file</text>
</g>
<!-- CreateWorkspace&#45;&gt;CreateQueryFile -->
<g id="edge25" class="edge">
<title>CreateWorkspace&#45;&gt;CreateQueryFile</title>
<path fill="none" stroke="darkblue" d="M555.05,-233.06C537.44,-220.92 513.65,-204.53 494.4,-191.26"/>
<polygon fill="darkblue" stroke="darkblue" points="496.13,-188.21 485.91,-185.42 492.16,-193.97 496.13,-188.21"/>
</g>
<!-- CreateQueryFile&#45;&gt;FS -->
<g id="edge6" class="edge">
<title>CreateQueryFile&#45;&gt;FS</title>
<path fill="none" stroke="#333333" stroke-dasharray="1,5" d="M474.98,-149.04C481.73,-140.73 489.99,-130.56 497.59,-121.22"/>
<polygon fill="#333333" stroke="#333333" points="500.44,-123.25 504.03,-113.28 495.01,-118.83 500.44,-123.25"/>
</g>
<!-- CreateQueryFile&#45;&gt;SubmitToQueue -->
<g id="edge26" class="edge">
<title>CreateQueryFile&#45;&gt;SubmitToQueue</title>
<path fill="none" stroke="darkblue" d="M417.69,-157.05C355.2,-143.78 239.86,-119.29 172.25,-104.93"/>
<polygon fill="darkblue" stroke="darkblue" points="172.74,-101.46 162.23,-102.81 171.29,-108.31 172.74,-101.46"/>
</g>
<!-- SubmitToQueue&#45;&gt;Queue -->
<g id="edge7" class="edge">
<title>SubmitToQueue&#45;&gt;Queue</title>
<path fill="none" stroke="#333333" stroke-dasharray="1,5" d="M119,-74.41C119,-66 119,-55.68 119,-46.23"/>
<polygon fill="#333333" stroke="#333333" points="122.5,-46.09 119,-36.09 115.5,-46.09 122.5,-46.09"/>
</g>
<!-- SubmitToQueue&#45;&gt;Remaining -->
<g id="edge27" class="edge">
<title>SubmitToQueue&#45;&gt;Remaining</title>
<path fill="none" stroke="darkblue" d="M119,-111.01C119,-139.91 119,-199.67 119,-250.25 119,-589.25 119,-589.25 119,-589.25 119,-647.26 158.92,-703.92 188.82,-738.22"/>
<polygon fill="darkblue" stroke="darkblue" points="186.52,-740.89 195.79,-746.02 191.74,-736.23 186.52,-740.89"/>
</g>
<!-- UpdateLastUsed -->
<g id="node17" class="node">
<title>UpdateLastUsed</title>
<polygon fill="none" stroke="black" points="281,-269.25 195,-269.25 195,-233.25 281,-233.25 281,-269.25"/>
<text text-anchor="middle" x="238" y="-255.05" font-family="Times,serif" font-size="14.00">Update job</text>
<text text-anchor="middle" x="238" y="-240.05" font-family="Times,serif" font-size="14.00">last used</text>
</g>
<!-- UpdateLastUsed&#45;&gt;Remaining -->
<g id="edge28" class="edge">
<title>UpdateLastUsed&#45;&gt;Remaining</title>
<path fill="none" stroke="darkblue" d="M234.88,-269.39C229.97,-297.89 221,-356.9 221,-407.25 221,-589.25 221,-589.25 221,-589.25 221,-632.1 221,-680.62 221,-716.79"/>
<polygon fill="darkblue" stroke="darkblue" points="217.5,-717.12 221,-727.12 224.5,-717.12 217.5,-717.12"/>
</g>
<!-- StatusSwitch -->
<g id="node19" class="node">
<title>StatusSwitch</title>
<polygon fill="none" stroke="black" points="402,-281.25 331,-251.25 402,-221.25 473,-251.25 402,-281.25"/>
<text text-anchor="middle" x="402" y="-255.05" font-family="Times,serif" font-size="14.00">Switch:</text>
<text text-anchor="middle" x="402" y="-240.05" font-family="Times,serif" font-size="14.00">job status</text>
</g>
<!-- UpdateLastUsed&#45;&gt;StatusSwitch -->
<g id="edge23" class="edge">
<title>UpdateLastUsed&#45;&gt;StatusSwitch</title>
<path fill="none" stroke="darkblue" d="M291.3,-251.25C304.46,-251.25 317.62,-251.25 330.77,-251.25"/>
<polygon fill="darkblue" stroke="darkblue" points="291.24,-247.75 281.24,-251.25 291.24,-254.75 291.24,-247.75"/>
<text text-anchor="middle" x="329.74" y="-255.05" font-family="Times,serif" font-size="14.00">COMPLETED</text>
</g>
<!-- RefreshStatus&#45;&gt;StatusSwitch -->
<g id="edge21" class="edge">
<title>RefreshStatus&#45;&gt;StatusSwitch</title>
<path fill="none" stroke="darkblue" d="M433.71,-317.66C429.21,-308.36 423.48,-296.55 418.13,-285.52"/>
<polygon fill="darkblue" stroke="darkblue" points="421.28,-283.99 413.77,-276.52 414.98,-287.04 421.28,-283.99"/>
</g>
<!-- StatusSwitch&#45;&gt;Remaining -->
<g id="edge22" class="edge">
<title>StatusSwitch&#45;&gt;Remaining</title>
<path fill="none" stroke="darkblue" d="M382.88,-273.6C359.5,-301.98 323,-354.7 323,-407.25 323,-589.25 323,-589.25 323,-589.25 323,-647.26 283.08,-703.92 253.18,-738.22"/>
<polygon fill="darkblue" stroke="darkblue" points="250.26,-736.23 246.21,-746.02 255.48,-740.89 250.26,-736.23"/>
<text text-anchor="middle" x="328.88" y="-292.4" font-family="Times,serif" font-size="14.00">ERRORED</text>
<text text-anchor="middle" x="328.88" y="-277.4" font-family="Times,serif" font-size="14.00">IN_PROGRESS</text>
</g>
<!-- StatusSwitch&#45;&gt;CreateWorkspace -->
<g id="edge24" class="edge">
<title>StatusSwitch&#45;&gt;CreateWorkspace</title>
<path fill="none" stroke="darkblue" d="M473.27,-251.25C490.93,-251.25 508.59,-251.25 526.24,-251.25"/>
<polygon fill="darkblue" stroke="darkblue" points="526.64,-254.75 536.64,-251.25 526.64,-247.75 526.64,-254.75"/>
<text text-anchor="middle" x="507.27" y="-255.05" font-family="Times,serif" font-size="14.00">EXPIRED</text>
</g>
<!-- LinkUser1&#45;&gt;DB -->
<g id="edge4" class="edge">
<title>LinkUser1&#45;&gt;DB</title>
<path fill="none" stroke="#333333" stroke-dasharray="1,5" d="M587.18,-394.56C627.5,-382.72 687.77,-365.02 730.99,-352.32"/>
<polygon fill="#333333" stroke="#333333" points="732.15,-355.63 740.76,-349.45 730.18,-348.91 732.15,-355.63"/>
</g>
<!-- LinkUser1&#45;&gt;RefreshStatus -->
<g id="edge20" class="edge">
<title>LinkUser1&#45;&gt;RefreshStatus</title>
<path fill="none" stroke="darkblue" d="M519.31,-390.18C506.13,-381.07 489.71,-369.73 475.41,-359.84"/>
<polygon fill="darkblue" stroke="darkblue" points="477.03,-356.71 466.82,-353.9 473.05,-362.47 477.03,-356.71"/>
</g>
</g>
</svg>
