<?xml version="1.0" encoding="UTF-8" standalone="no"?>
<!DOCTYPE svg PUBLIC "-//W3C//DTD SVG 1.1//EN"
 "http://www.w3.org/Graphics/SVG/1.1/DTD/svg11.dtd">
<!-- Generated by graphviz version 2.43.0 (0)
 -->
<!-- Title: %3 Pages: 1 -->
<svg width="529pt" height="703pt"
 viewBox="0.00 0.00 529.33 703.00" xmlns="http://www.w3.org/2000/svg" xmlns:xlink="http://www.w3.org/1999/xlink">
<g id="graph0" class="graph" transform="scale(1 1) rotate(0) translate(4 699)">
<title>%3</title>
<polygon fill="white" stroke="transparent" points="-4,4 -4,-699 525.33,-699 525.33,4 -4,4"/>
<text text-anchor="middle" x="260.67" y="-679.8" font-family="Times,serif" font-size="14.00">For Each Sub&#45;Job</text>
<!-- Start -->
<g id="node1" class="node">
<title>Start</title>
<ellipse fill="none" stroke="blue" cx="182" cy="-654" rx="43" ry="18"/>
<text text-anchor="middle" x="182" y="-650.3" font-family="Times,serif" font-size="14.00">Start</text>
</g>
<!-- Remaining -->
<g id="node4" class="node">
<title>Remaining</title>
<polygon fill="none" stroke="black" points="182,-600 122,-555 182,-510 242,-555 182,-600"/>
<text text-anchor="middle" x="182" y="-566.3" font-family="Times,serif" font-size="14.00">More</text>
<text text-anchor="middle" x="182" y="-551.3" font-family="Times,serif" font-size="14.00">sub&#45;jobs</text>
<text text-anchor="middle" x="182" y="-536.3" font-family="Times,serif" font-size="14.00">remain</text>
</g>
<!-- Start&#45;&gt;Remaining -->
<g id="edge1" class="edge">
<title>Start&#45;&gt;Remaining</title>
<path fill="none" stroke="darkblue" d="M182,-635.84C182,-635.84 182,-610.22 182,-610.22"/>
<polygon fill="darkblue" stroke="darkblue" points="185.5,-610.22 182,-600.22 178.5,-610.22 185.5,-610.22"/>
</g>
<!-- JobInDB -->
<g id="node2" class="node">
<title>JobInDB</title>
<polygon fill="none" stroke="black" points="332,-600 278,-555 332,-510 386,-555 332,-600"/>
<text text-anchor="middle" x="332" y="-566.3" font-family="Times,serif" font-size="14.00">Job</text>
<text text-anchor="middle" x="332" y="-551.3" font-family="Times,serif" font-size="14.00">already</text>
<text text-anchor="middle" x="332" y="-536.3" font-family="Times,serif" font-size="14.00">in DB</text>
</g>
<!-- InsertJobIntoDB -->
<g id="node3" class="node">
<title>InsertJobIntoDB</title>
<polygon fill="none" stroke="black" points="402,-474 316,-474 316,-438 402,-438 402,-474"/>
<text text-anchor="middle" x="359" y="-459.8" font-family="Times,serif" font-size="14.00">Insert job</text>
<text text-anchor="middle" x="359" y="-444.8" font-family="Times,serif" font-size="14.00">into DB</text>
</g>
<!-- JobInDB&#45;&gt;InsertJobIntoDB -->
<g id="edge4" class="edge">
<title>JobInDB&#45;&gt;InsertJobIntoDB</title>
<path fill="none" stroke="darkred" d="M351,-525.83C351,-525.83 351,-484.08 351,-484.08"/>
<polygon fill="darkred" stroke="darkred" points="354.5,-484.08 351,-474.08 347.5,-484.08 354.5,-484.08"/>
<text text-anchor="middle" x="340.5" y="-498.63" font-family="Times,serif" font-size="14.00">No</text>
</g>
<!-- IsUserLinked -->
<g id="node13" class="node">
<title>IsUserLinked</title>
<polygon fill="none" stroke="black" points="471,-600 422,-555 471,-510 520,-555 471,-600"/>
<text text-anchor="middle" x="471" y="-566.3" font-family="Times,serif" font-size="14.00">Is user</text>
<text text-anchor="middle" x="471" y="-551.3" font-family="Times,serif" font-size="14.00">linked</text>
<text text-anchor="middle" x="471" y="-536.3" font-family="Times,serif" font-size="14.00">to job</text>
</g>
<!-- JobInDB&#45;&gt;IsUserLinked -->
<g id="edge3" class="edge">
<title>JobInDB&#45;&gt;IsUserLinked</title>
<path fill="none" stroke="darkgreen" d="M386.14,-555C386.14,-555 411.77,-555 411.77,-555"/>
<polygon fill="darkgreen" stroke="darkgreen" points="411.77,-558.5 421.77,-555 411.77,-551.5 411.77,-558.5"/>
<text text-anchor="middle" x="398.64" y="-558.8" font-family="Times,serif" font-size="14.00">Yes</text>
</g>
<!-- LinkUser -->
<g id="node12" class="node">
<title>LinkUser</title>
<polygon fill="none" stroke="black" points="402,-402 316,-402 316,-366 402,-366 402,-402"/>
<text text-anchor="middle" x="359" y="-387.8" font-family="Times,serif" font-size="14.00">Link user</text>
<text text-anchor="middle" x="359" y="-372.8" font-family="Times,serif" font-size="14.00">to job</text>
</g>
<!-- InsertJobIntoDB&#45;&gt;LinkUser -->
<g id="edge7" class="edge">
<title>InsertJobIntoDB&#45;&gt;LinkUser</title>
<path fill="none" stroke="darkblue" d="M359,-437.83C359,-437.83 359,-412.41 359,-412.41"/>
<polygon fill="darkblue" stroke="darkblue" points="362.5,-412.41 359,-402.41 355.5,-412.41 362.5,-412.41"/>
</g>
<!-- Remaining&#45;&gt;JobInDB -->
<g id="edge2" class="edge">
<title>Remaining&#45;&gt;JobInDB</title>
<path fill="none" stroke="darkgreen" d="M242.15,-555C242.15,-555 267.66,-555 267.66,-555"/>
<polygon fill="darkgreen" stroke="darkgreen" points="267.66,-558.5 277.66,-555 267.66,-551.5 267.66,-558.5"/>
<text text-anchor="middle" x="254.65" y="-558.8" font-family="Times,serif" font-size="14.00">Yes</text>
</g>
<!-- CreateWorkspace -->
<g id="node5" class="node">
<title>CreateWorkspace</title>
<polygon fill="none" stroke="black" points="400,-36 314,-36 314,0 400,0 400,-36"/>
<text text-anchor="middle" x="357" y="-21.8" font-family="Times,serif" font-size="14.00">Create job</text>
<text text-anchor="middle" x="357" y="-6.8" font-family="Times,serif" font-size="14.00">workspace</text>
</g>
<!-- CreateQueryFile -->
<g id="node6" class="node">
<title>CreateQueryFile</title>
<polygon fill="none" stroke="black" points="278,-36 192,-36 192,0 278,0 278,-36"/>
<text text-anchor="middle" x="235" y="-21.8" font-family="Times,serif" font-size="14.00">Create</text>
<text text-anchor="middle" x="235" y="-6.8" font-family="Times,serif" font-size="14.00">query file</text>
</g>
<!-- CreateQueryFile&#45;&gt;CreateWorkspace -->
<g id="edge14" class="edge">
<title>CreateQueryFile&#45;&gt;CreateWorkspace</title>
<path fill="none" stroke="darkblue" d="M288.01,-18C288.01,-18 313.96,-18 313.96,-18"/>
<polygon fill="darkblue" stroke="darkblue" points="288.01,-14.5 278.01,-18 288.01,-21.5 288.01,-14.5"/>
</g>
<!-- SubmitToQueue -->
<g id="node7" class="node">
<title>SubmitToQueue</title>
<polygon fill="none" stroke="black" points="156,-36 70,-36 70,0 156,0 156,-36"/>
<text text-anchor="middle" x="113" y="-21.8" font-family="Times,serif" font-size="14.00">Submit job</text>
<text text-anchor="middle" x="113" y="-6.8" font-family="Times,serif" font-size="14.00">to queue</text>
</g>
<!-- SubmitToQueue&#45;&gt;Remaining -->
<g id="edge16" class="edge">
<title>SubmitToQueue&#45;&gt;Remaining</title>
<path fill="none" stroke="darkblue" d="M139,-36.17C139,-36.17 139,-532.18 139,-532.18"/>
<polygon fill="darkblue" stroke="darkblue" points="135.5,-532.18 139,-542.18 142.5,-532.18 135.5,-532.18"/>
</g>
<!-- SubmitToQueue&#45;&gt;CreateQueryFile -->
<g id="edge15" class="edge">
<title>SubmitToQueue&#45;&gt;CreateQueryFile</title>
<path fill="none" stroke="darkblue" d="M166.01,-18C166.01,-18 191.96,-18 191.96,-18"/>
<polygon fill="darkblue" stroke="darkblue" points="166.01,-14.5 156.01,-18 166.01,-21.5 166.01,-14.5"/>
</g>
<!-- UpdateLastUsed -->
<g id="node8" class="node">
<title>UpdateLastUsed</title>
<polygon fill="none" stroke="black" points="260,-120 174,-120 174,-84 260,-84 260,-120"/>
<text text-anchor="middle" x="217" y="-105.8" font-family="Times,serif" font-size="14.00">Update job</text>
<text text-anchor="middle" x="217" y="-90.8" font-family="Times,serif" font-size="14.00">last used</text>
</g>
<!-- UpdateLastUsed&#45;&gt;Remaining -->
<g id="edge17" class="edge">
<title>UpdateLastUsed&#45;&gt;Remaining</title>
<path fill="none" stroke="darkblue" d="M196.67,-120.04C196.67,-120.04 196.67,-510.78 196.67,-510.78"/>
<polygon fill="darkblue" stroke="darkblue" points="193.17,-510.78 196.67,-520.78 200.17,-510.78 193.17,-510.78"/>
</g>
<!-- StillCached -->
<g id="node9" class="node">
<title>StillCached</title>
<polygon fill="none" stroke="black" points="357,-132 302,-102 357,-72 412,-102 357,-132"/>
<text text-anchor="middle" x="357" y="-105.8" font-family="Times,serif" font-size="14.00">Job still</text>
<text text-anchor="middle" x="357" y="-90.8" font-family="Times,serif" font-size="14.00">cached</text>
</g>
<!-- UpdateLastUsed&#45;&gt;StillCached -->
<g id="edge12" class="edge">
<title>UpdateLastUsed&#45;&gt;StillCached</title>
<path fill="none" stroke="darkgreen" d="M270.15,-102C270.15,-102 301.85,-102 301.85,-102"/>
<polygon fill="darkgreen" stroke="darkgreen" points="270.15,-98.5 260.15,-102 270.15,-105.5 270.15,-98.5"/>
<text text-anchor="middle" x="289.35" y="-105.8" font-family="Times,serif" font-size="14.00">Yes</text>
</g>
<!-- StillCached&#45;&gt;CreateWorkspace -->
<g id="edge13" class="edge">
<title>StillCached&#45;&gt;CreateWorkspace</title>
<path fill="none" stroke="darkred" d="M357,-71.67C357,-71.67 357,-46.3 357,-46.3"/>
<polygon fill="darkred" stroke="darkred" points="360.5,-46.3 357,-36.3 353.5,-46.3 360.5,-46.3"/>
<text text-anchor="middle" x="346.5" y="-60.47" font-family="Times,serif" font-size="14.00">No</text>
</g>
<!-- RefreshStatus -->
<g id="node10" class="node">
<title>RefreshStatus</title>
<polygon fill="none" stroke="black" points="402,-330 316,-330 316,-294 402,-294 402,-330"/>
<text text-anchor="middle" x="359" y="-315.8" font-family="Times,serif" font-size="14.00">Refresh job</text>
<text text-anchor="middle" x="359" y="-300.8" font-family="Times,serif" font-size="14.00">status</text>
</g>
<!-- StatusFailed -->
<g id="node11" class="node">
<title>StatusFailed</title>
<polygon fill="none" stroke="black" points="358,-258 297,-213 358,-168 419,-213 358,-258"/>
<text text-anchor="middle" x="358" y="-224.3" font-family="Times,serif" font-size="14.00">Job</text>
<text text-anchor="middle" x="358" y="-209.3" font-family="Times,serif" font-size="14.00">status is</text>
<text text-anchor="middle" x="358" y="-194.3" font-family="Times,serif" font-size="14.00">failed</text>
</g>
<!-- RefreshStatus&#45;&gt;StatusFailed -->
<g id="edge9" class="edge">
<title>RefreshStatus&#45;&gt;StatusFailed</title>
<path fill="none" stroke="darkblue" d="M359,-293.84C359,-293.84 359,-267.38 359,-267.38"/>
<polygon fill="darkblue" stroke="darkblue" points="362.5,-267.38 359,-257.38 355.5,-267.38 362.5,-267.38"/>
</g>
<!-- StatusFailed&#45;&gt;Remaining -->
<g id="edge10" class="edge">
<title>StatusFailed&#45;&gt;Remaining</title>
<path fill="none" stroke="darkgreen" d="M296.78,-213C259.63,-213 219.33,-213 219.33,-213 219.33,-213 219.33,-527.57 219.33,-527.57"/>
<polygon fill="darkgreen" stroke="darkgreen" points="215.83,-527.57 219.33,-537.57 222.83,-527.57 215.83,-527.57"/>
<text text-anchor="middle" x="284.28" y="-216.8" font-family="Times,serif" font-size="14.00">Yes</text>
</g>
<!-- StatusFailed&#45;&gt;StillCached -->
<g id="edge11" class="edge">
<title>StatusFailed&#45;&gt;StillCached</title>
<path fill="none" stroke="darkred" d="M357,-168.49C357,-168.49 357,-142.21 357,-142.21"/>
<polygon fill="darkred" stroke="darkred" points="360.5,-142.21 357,-132.21 353.5,-142.21 360.5,-142.21"/>
<text text-anchor="middle" x="346.5" y="-157.29" font-family="Times,serif" font-size="14.00">No</text>
</g>
<!-- LinkUser&#45;&gt;RefreshStatus -->
<g id="edge8" class="edge">
<title>LinkUser&#45;&gt;RefreshStatus</title>
<path fill="none" stroke="darkblue" d="M359,-365.83C359,-365.83 359,-340.41 359,-340.41"/>
<polygon fill="darkblue" stroke="darkblue" points="362.5,-340.41 359,-330.41 355.5,-340.41 362.5,-340.41"/>
</g>
<!-- IsUserLinked&#45;&gt;RefreshStatus -->
<g id="edge6" class="edge">
<title>IsUserLinked&#45;&gt;RefreshStatus</title>
<path fill="none" stroke="darkgreen" d="M487.33,-524.72C487.33,-459.57 487.33,-312 487.33,-312 487.33,-312 412.09,-312 412.09,-312"/>
<polygon fill="darkgreen" stroke="darkgreen" points="412.09,-308.5 402.09,-312 412.09,-315.5 412.09,-308.5"/>
<text text-anchor="middle" x="504.33" y="-513.52" font-family="Times,serif" font-size="14.00">Yes &#160;</text>
</g>
<!-- IsUserLinked&#45;&gt;LinkUser -->
<g id="edge5" class="edge">
<title>IsUserLinked&#45;&gt;LinkUser</title>
<path fill="none" stroke="darkred" d="M454.67,-524.82C454.67,-475.73 454.67,-384 454.67,-384 454.67,-384 412.08,-384 412.08,-384"/>
<polygon fill="darkred" stroke="darkred" points="412.08,-380.5 402.08,-384 412.08,-387.5 412.08,-380.5"/>
<text text-anchor="middle" x="444.17" y="-513.62" font-family="Times,serif" font-size="14.00">No</text>
</g>
<!-- End -->
<g id="node14" class="node">
<title>End</title>
<ellipse fill="none" stroke="green" cx="43" cy="-555" rx="43" ry="18"/>
<text text-anchor="middle" x="43" y="-551.3" font-family="Times,serif" font-size="14.00">End</text>
</g>
<!-- End&#45;&gt;Remaining -->
<g id="edge18" class="edge">
<title>End&#45;&gt;Remaining</title>
<path fill="none" stroke="darkred" d="M96.22,-555C96.22,-555 121.96,-555 121.96,-555"/>
<polygon fill="darkred" stroke="darkred" points="96.22,-551.5 86.22,-555 96.22,-558.5 96.22,-551.5"/>
<text text-anchor="middle" x="111.46" y="-558.8" font-family="Times,serif" font-size="14.00">No</text>
</g>
</g>
</svg>
