<?xml version="1.0" encoding="UTF-8" standalone="no"?>
<!DOCTYPE svg PUBLIC "-//W3C//DTD SVG 1.1//EN"
 "http://www.w3.org/Graphics/SVG/1.1/DTD/svg11.dtd">
<!-- Generated by graphviz version 2.43.0 (0)
 -->
<!-- Title: %3 Pages: 1 -->
<svg width="691pt" height="613pt"
 viewBox="0.00 0.00 691.00 613.00" xmlns="http://www.w3.org/2000/svg" xmlns:xlink="http://www.w3.org/1999/xlink">
<g id="graph0" class="graph" transform="scale(1 1) rotate(0) translate(4 609)">
<title>%3</title>
<polygon fill="white" stroke="transparent" points="-4,4 -4,-609 687,-609 687,4 -4,4"/>
<text text-anchor="middle" x="341.5" y="-589.8" font-family="Times,serif" font-size="14.00">For Each Sub&#45;Job</text>
<!-- Start -->
<g id="node1" class="node">
<title>Start</title>
<ellipse fill="none" stroke="blue" cx="182" cy="-564" rx="43" ry="18"/>
<text text-anchor="middle" x="182" y="-560.3" font-family="Times,serif" font-size="14.00">Start</text>
</g>
<!-- Remaining -->
<g id="node2" class="node">
<title>Remaining</title>
<polygon fill="none" stroke="black" points="182,-510 122,-465 182,-420 242,-465 182,-510"/>
<text text-anchor="middle" x="182" y="-476.3" font-family="Times,serif" font-size="14.00">More</text>
<text text-anchor="middle" x="182" y="-461.3" font-family="Times,serif" font-size="14.00">sub&#45;jobs</text>
<text text-anchor="middle" x="182" y="-446.3" font-family="Times,serif" font-size="14.00">remain</text>
</g>
<!-- Start&#45;&gt;Remaining -->
<g id="edge1" class="edge">
<title>Start&#45;&gt;Remaining</title>
<path fill="none" stroke="darkblue" d="M182,-545.66C182,-538.37 182,-529.47 182,-520.28"/>
<polygon fill="darkblue" stroke="darkblue" points="185.5,-520.26 182,-510.26 178.5,-520.26 185.5,-520.26"/>
</g>
<!-- NextJob -->
<g id="node3" class="node">
<title>NextJob</title>
<polygon fill="none" stroke="black" points="364,-483 278,-483 278,-447 364,-447 364,-483"/>
<text text-anchor="middle" x="321" y="-468.8" font-family="Times,serif" font-size="14.00">Next</text>
<text text-anchor="middle" x="321" y="-453.8" font-family="Times,serif" font-size="14.00">sub&#45;job</text>
</g>
<!-- Remaining&#45;&gt;NextJob -->
<g id="edge2" class="edge">
<title>Remaining&#45;&gt;NextJob</title>
<path fill="none" stroke="darkgreen" d="M242.27,-465C250.82,-465 259.36,-465 267.91,-465"/>
<polygon fill="darkgreen" stroke="darkgreen" points="267.94,-468.5 277.94,-465 267.94,-461.5 267.94,-468.5"/>
<text text-anchor="middle" x="254.77" y="-468.8" font-family="Times,serif" font-size="14.00">Yes</text>
</g>
<!-- HashJob -->
<g id="node4" class="node">
<title>HashJob</title>
<polygon fill="none" stroke="black" points="486,-483 400,-483 400,-447 486,-447 486,-483"/>
<text text-anchor="middle" x="443" y="-468.8" font-family="Times,serif" font-size="14.00">Hash</text>
<text text-anchor="middle" x="443" y="-453.8" font-family="Times,serif" font-size="14.00">sub&#45;job</text>
</g>
<!-- NextJob&#45;&gt;HashJob -->
<g id="edge4" class="edge">
<title>NextJob&#45;&gt;HashJob</title>
<path fill="none" stroke="darkblue" d="M364.37,-465C372.9,-465 381.44,-465 389.98,-465"/>
<polygon fill="darkblue" stroke="darkblue" points="390,-468.5 400,-465 390,-461.5 390,-468.5"/>
</g>
<!-- JobInDB -->
<g id="node5" class="node">
<title>JobInDB</title>
<polygon fill="none" stroke="black" points="576,-510 522,-465 576,-420 630,-465 576,-510"/>
<text text-anchor="middle" x="576" y="-476.3" font-family="Times,serif" font-size="14.00">Job</text>
<text text-anchor="middle" x="576" y="-461.3" font-family="Times,serif" font-size="14.00">already</text>
<text text-anchor="middle" x="576" y="-446.3" font-family="Times,serif" font-size="14.00">in DB</text>
</g>
<!-- HashJob&#45;&gt;JobInDB -->
<g id="edge5" class="edge">
<title>HashJob&#45;&gt;JobInDB</title>
<path fill="none" stroke="darkblue" d="M486.12,-465C494.7,-465 503.28,-465 511.86,-465"/>
<polygon fill="darkblue" stroke="darkblue" points="511.93,-468.5 521.93,-465 511.93,-461.5 511.93,-468.5"/>
</g>
<!-- IsUserLinked -->
<g id="node16" class="node">
<title>IsUserLinked</title>
<polygon fill="none" stroke="black" points="454,-384 405,-339 454,-294 503,-339 454,-384"/>
<text text-anchor="middle" x="454" y="-350.3" font-family="Times,serif" font-size="14.00">Is user</text>
<text text-anchor="middle" x="454" y="-335.3" font-family="Times,serif" font-size="14.00">linked</text>
<text text-anchor="middle" x="454" y="-320.3" font-family="Times,serif" font-size="14.00">to job</text>
</g>
<!-- HashJob&#45;&gt;IsUserLinked -->
<!-- InsertJobIntoDB -->
<g id="node6" class="node">
<title>InsertJobIntoDB</title>
<polygon fill="none" stroke="black" points="683,-36 597,-36 597,0 683,0 683,-36"/>
<text text-anchor="middle" x="640" y="-21.8" font-family="Times,serif" font-size="14.00">Insert job</text>
<text text-anchor="middle" x="640" y="-6.8" font-family="Times,serif" font-size="14.00">into DB</text>
</g>
<!-- JobInDB&#45;&gt;InsertJobIntoDB -->
<g id="edge7" class="edge">
<title>JobInDB&#45;&gt;InsertJobIntoDB</title>
<path fill="none" stroke="darkred" d="M585.44,-427.85C588.91,-414.15 592.78,-398.39 596,-384 608.48,-328.29 613.17,-314.55 621,-258 631.58,-181.63 636.79,-90.65 638.87,-46.19"/>
<polygon fill="darkred" stroke="darkred" points="642.37,-46.32 639.32,-36.17 635.38,-46.01 642.37,-46.32"/>
<text text-anchor="middle" x="574.94" y="-400.65" font-family="Times,serif" font-size="14.00">No</text>
</g>
<!-- LinkUser1 -->
<g id="node14" class="node">
<title>LinkUser1</title>
<polygon fill="none" stroke="black" points="603,-231 517,-231 517,-195 603,-195 603,-231"/>
<text text-anchor="middle" x="560" y="-216.8" font-family="Times,serif" font-size="14.00">Link user</text>
<text text-anchor="middle" x="560" y="-201.8" font-family="Times,serif" font-size="14.00">to job</text>
</g>
<!-- JobInDB&#45;&gt;LinkUser1 -->
<!-- JobInDB&#45;&gt;IsUserLinked -->
<g id="edge6" class="edge">
<title>JobInDB&#45;&gt;IsUserLinked</title>
<path fill="none" stroke="darkgreen" d="M552.19,-439.8C532.71,-420 505.05,-391.89 484.05,-370.54"/>
<polygon fill="darkgreen" stroke="darkgreen" points="486.43,-367.98 476.93,-363.3 481.44,-372.88 486.43,-367.98"/>
<text text-anchor="middle" x="524.19" y="-412.6" font-family="Times,serif" font-size="14.00">Yes &#160;&#160;&#160;&#160;&#160;&#160;</text>
</g>
<!-- CreateWorkspace -->
<g id="node7" class="node">
<title>CreateWorkspace</title>
<polygon fill="none" stroke="black" points="371,-36 285,-36 285,0 371,0 371,-36"/>
<text text-anchor="middle" x="328" y="-21.8" font-family="Times,serif" font-size="14.00">Create job</text>
<text text-anchor="middle" x="328" y="-6.8" font-family="Times,serif" font-size="14.00">workspace</text>
</g>
<!-- LinkUser2 -->
<g id="node15" class="node">
<title>LinkUser2</title>
<polygon fill="none" stroke="black" points="524,-36 438,-36 438,0 524,0 524,-36"/>
<text text-anchor="middle" x="481" y="-21.8" font-family="Times,serif" font-size="14.00">Link user</text>
<text text-anchor="middle" x="481" y="-6.8" font-family="Times,serif" font-size="14.00">to job</text>
</g>
<!-- CreateWorkspace&#45;&gt;LinkUser2 -->
<g id="edge10" class="edge">
<title>CreateWorkspace&#45;&gt;LinkUser2</title>
<path fill="none" stroke="darkblue" d="M381.17,-18C399.99,-18 418.8,-18 437.61,-18"/>
<polygon fill="darkblue" stroke="darkblue" points="381.03,-14.5 371.03,-18 381.03,-21.5 381.03,-14.5"/>
</g>
<!-- CreateQueryFile -->
<g id="node8" class="node">
<title>CreateQueryFile</title>
<polygon fill="none" stroke="black" points="182,-36 96,-36 96,0 182,0 182,-36"/>
<text text-anchor="middle" x="139" y="-21.8" font-family="Times,serif" font-size="14.00">Create</text>
<text text-anchor="middle" x="139" y="-6.8" font-family="Times,serif" font-size="14.00">query file</text>
</g>
<!-- CreateQueryFile&#45;&gt;CreateWorkspace -->
<g id="edge18" class="edge">
<title>CreateQueryFile&#45;&gt;CreateWorkspace</title>
<path fill="none" stroke="darkblue" d="M192.23,-18C223.15,-18 254.07,-18 285,-18"/>
<polygon fill="darkblue" stroke="darkblue" points="192.19,-14.5 182.19,-18 192.19,-21.5 192.19,-14.5"/>
</g>
<!-- SubmitToQueue -->
<g id="node9" class="node">
<title>SubmitToQueue</title>
<polygon fill="none" stroke="black" points="115,-120 29,-120 29,-84 115,-84 115,-120"/>
<text text-anchor="middle" x="72" y="-105.8" font-family="Times,serif" font-size="14.00">Submit job</text>
<text text-anchor="middle" x="72" y="-90.8" font-family="Times,serif" font-size="14.00">to queue</text>
</g>
<!-- SubmitToQueue&#45;&gt;Remaining -->
<g id="edge20" class="edge">
<title>SubmitToQueue&#45;&gt;Remaining</title>
<path fill="none" stroke="darkblue" d="M77.25,-120.21C93.51,-173.58 143.46,-337.51 168.04,-418.19"/>
<polygon fill="darkblue" stroke="darkblue" points="164.79,-419.52 171.05,-428.07 171.48,-417.48 164.79,-419.52"/>
</g>
<!-- SubmitToQueue&#45;&gt;CreateQueryFile -->
<g id="edge19" class="edge">
<title>SubmitToQueue&#45;&gt;CreateQueryFile</title>
<path fill="none" stroke="darkblue" d="M92.77,-75.58C103.26,-62.74 115.71,-47.51 125.04,-36.08"/>
<polygon fill="darkblue" stroke="darkblue" points="89.83,-73.65 86.21,-83.61 95.25,-78.08 89.83,-73.65"/>
</g>
<!-- UpdateLastUsed -->
<g id="node10" class="node">
<title>UpdateLastUsed</title>
<polygon fill="none" stroke="black" points="237,-120 151,-120 151,-84 237,-84 237,-120"/>
<text text-anchor="middle" x="194" y="-105.8" font-family="Times,serif" font-size="14.00">Update job</text>
<text text-anchor="middle" x="194" y="-90.8" font-family="Times,serif" font-size="14.00">last used</text>
</g>
<!-- UpdateLastUsed&#45;&gt;Remaining -->
<g id="edge21" class="edge">
<title>UpdateLastUsed&#45;&gt;Remaining</title>
<path fill="none" stroke="darkblue" d="M193.43,-120.14C191.71,-171.81 186.53,-327.57 183.78,-410.58"/>
<polygon fill="darkblue" stroke="darkblue" points="180.27,-410.7 183.44,-420.81 187.27,-410.94 180.27,-410.7"/>
</g>
<!-- StillCached -->
<g id="node11" class="node">
<title>StillCached</title>
<polygon fill="none" stroke="black" points="328,-132 273,-102 328,-72 383,-102 328,-132"/>
<text text-anchor="middle" x="328" y="-105.8" font-family="Times,serif" font-size="14.00">Job still</text>
<text text-anchor="middle" x="328" y="-90.8" font-family="Times,serif" font-size="14.00">cached</text>
</g>
<!-- UpdateLastUsed&#45;&gt;StillCached -->
<g id="edge16" class="edge">
<title>UpdateLastUsed&#45;&gt;StillCached</title>
<path fill="none" stroke="darkgreen" d="M247.44,-102C255.85,-102 264.25,-102 272.66,-102"/>
<polygon fill="darkgreen" stroke="darkgreen" points="247.18,-98.5 237.18,-102 247.18,-105.5 247.18,-98.5"/>
<text text-anchor="middle" x="260.16" y="-105.8" font-family="Times,serif" font-size="14.00">Yes</text>
</g>
<!-- StillCached&#45;&gt;CreateWorkspace -->
<g id="edge17" class="edge">
<title>StillCached&#45;&gt;CreateWorkspace</title>
<path fill="none" stroke="darkred" d="M328,-71.86C328,-63.54 328,-54.5 328,-46.29"/>
<polygon fill="darkred" stroke="darkred" points="331.5,-46.11 328,-36.11 324.5,-46.11 331.5,-46.11"/>
<text text-anchor="middle" x="317.5" y="-60.66" font-family="Times,serif" font-size="14.00">No</text>
</g>
<!-- RefreshStatus -->
<g id="node12" class="node">
<title>RefreshStatus</title>
<polygon fill="none" stroke="black" points="481,-231 395,-231 395,-195 481,-195 481,-231"/>
<text text-anchor="middle" x="438" y="-216.8" font-family="Times,serif" font-size="14.00">Refresh job</text>
<text text-anchor="middle" x="438" y="-201.8" font-family="Times,serif" font-size="14.00">status</text>
</g>
<!-- RefreshStatus&#45;&gt;LinkUser1 -->
<g id="edge12" class="edge">
<title>RefreshStatus&#45;&gt;LinkUser1</title>
<path fill="none" stroke="darkblue" d="M491.39,-213C499.92,-213 508.46,-213 517,-213"/>
<polygon fill="darkblue" stroke="darkblue" points="491.37,-209.5 481.37,-213 491.37,-216.5 491.37,-209.5"/>
</g>
<!-- RefreshStatus&#45;&gt;IsUserLinked -->
<g id="edge9" class="edge">
<title>RefreshStatus&#45;&gt;IsUserLinked</title>
<path fill="none" stroke="darkgreen" d="M441.53,-241.35C443.69,-258.1 446.49,-279.82 448.89,-298.42"/>
<polygon fill="darkgreen" stroke="darkgreen" points="444.96,-240.61 440.21,-231.14 438.02,-241.51 444.96,-240.61"/>
<text text-anchor="middle" x="436.39" y="-287.22" font-family="Times,serif" font-size="14.00">Yes</text>
</g>
<!-- StatusFailed -->
<g id="node13" class="node">
<title>StatusFailed</title>
<polygon fill="none" stroke="black" points="298,-258 237,-213 298,-168 359,-213 298,-258"/>
<text text-anchor="middle" x="298" y="-224.3" font-family="Times,serif" font-size="14.00">Job</text>
<text text-anchor="middle" x="298" y="-209.3" font-family="Times,serif" font-size="14.00">status is</text>
<text text-anchor="middle" x="298" y="-194.3" font-family="Times,serif" font-size="14.00">failed</text>
</g>
<!-- StatusFailed&#45;&gt;Remaining -->
<g id="edge14" class="edge">
<title>StatusFailed&#45;&gt;Remaining</title>
<path fill="none" stroke="darkgreen" d="M282.65,-247.09C261.72,-292.19 224.24,-372.98 201.39,-422.21"/>
<polygon fill="darkgreen" stroke="darkgreen" points="198.2,-420.77 197.16,-431.32 204.55,-423.72 198.2,-420.77"/>
<text text-anchor="middle" x="270.15" y="-250.89" font-family="Times,serif" font-size="14.00">Yes</text>
</g>
<!-- StatusFailed&#45;&gt;StillCached -->
<g id="edge15" class="edge">
<title>StatusFailed&#45;&gt;StillCached</title>
<path fill="none" stroke="darkred" d="M308.07,-175.4C311.36,-163.44 315.01,-150.19 318.28,-138.33"/>
<polygon fill="darkred" stroke="darkred" points="321.75,-138.9 321.03,-128.33 315,-137.04 321.75,-138.9"/>
<text text-anchor="middle" x="297.57" y="-148.2" font-family="Times,serif" font-size="14.00">No</text>
</g>
<!-- StatusFailed&#45;&gt;RefreshStatus -->
<g id="edge13" class="edge">
<title>StatusFailed&#45;&gt;RefreshStatus</title>
<path fill="none" stroke="darkblue" d="M369.29,-213C377.84,-213 386.38,-213 394.93,-213"/>
<polygon fill="darkblue" stroke="darkblue" points="369.25,-209.5 359.25,-213 369.25,-216.5 369.25,-209.5"/>
</g>
<!-- LinkUser2&#45;&gt;InsertJobIntoDB -->
<g id="edge11" class="edge">
<title>LinkUser2&#45;&gt;InsertJobIntoDB</title>
<path fill="none" stroke="darkblue" d="M534.35,-18C555.09,-18 575.82,-18 596.56,-18"/>
<polygon fill="darkblue" stroke="darkblue" points="534.17,-14.5 524.17,-18 534.17,-21.5 534.17,-14.5"/>
</g>
<!-- IsUserLinked&#45;&gt;LinkUser1 -->
<g id="edge8" class="edge">
<title>IsUserLinked&#45;&gt;LinkUser1</title>
<path fill="none" stroke="darkred" d="M475.2,-313.2C493.62,-291.65 520.2,-260.56 538.67,-238.96"/>
<polygon fill="darkred" stroke="darkred" points="541.48,-241.06 545.31,-231.18 536.16,-236.51 541.48,-241.06"/>
<text text-anchor="middle" x="501.2" y="-286" font-family="Times,serif" font-size="14.00"> &#160;&#160;&#160;&#160;&#160;&#160;No</text>
</g>
<!-- End -->
<g id="node17" class="node">
<title>End</title>
<ellipse fill="none" stroke="green" cx="43" cy="-465" rx="43" ry="18"/>
<text text-anchor="middle" x="43" y="-461.3" font-family="Times,serif" font-size="14.00">End</text>
</g>
<!-- End&#45;&gt;Remaining -->
<g id="edge3" class="edge">
<title>End&#45;&gt;Remaining</title>
<path fill="none" stroke="darkred" d="M96.17,-465C104.69,-465 113.21,-465 121.73,-465"/>
<polygon fill="darkred" stroke="darkred" points="96.17,-461.5 86.17,-465 96.17,-468.5 96.17,-461.5"/>
<text text-anchor="middle" x="111.23" y="-468.8" font-family="Times,serif" font-size="14.00">No</text>
</g>
</g>
</svg>
