<?xml version="1.0" encoding="UTF-8" standalone="no"?>
<!DOCTYPE svg PUBLIC "-//W3C//DTD SVG 1.1//EN"
 "http://www.w3.org/Graphics/SVG/1.1/DTD/svg11.dtd">
<!-- Generated by graphviz version 2.43.0 (0)
 -->
<!-- Title: %3 Pages: 1 -->
<svg width="468pt" height="935pt"
 viewBox="0.00 0.00 468.00 934.60" xmlns="http://www.w3.org/2000/svg" xmlns:xlink="http://www.w3.org/1999/xlink">
<g id="graph0" class="graph" transform="scale(1 1) rotate(0) translate(4 930.6)">
<title>%3</title>
<polygon fill="white" stroke="transparent" points="-4,4 -4,-930.6 464,-930.6 464,4 -4,4"/>
<!-- Start -->
<g id="node1" class="node">
<title>Start</title>
<ellipse fill="none" stroke="blue" cx="227" cy="-906.8" rx="47" ry="19.6"/>
<text text-anchor="start" x="208" y="-910.6" font-family="Times,serif" font-size="14.00">POST</text>
<text text-anchor="start" x="206" y="-896.6" font-family="monospace" font-size="14.00">/jobs</text>
</g>
<!-- ValidateRequest -->
<g id="node6" class="node">
<title>ValidateRequest</title>
<polygon fill="none" stroke="black" points="180,-778.5 180,-814.5 274,-814.5 274,-778.5 180,-778.5"/>
<text text-anchor="middle" x="186.5" y="-792.8" font-family="Times,serif" font-size="14.00"> </text>
<polyline fill="none" stroke="black" points="193,-778.5 193,-814.5 "/>
<text text-anchor="middle" x="226.5" y="-800.3" font-family="Times,serif" font-size="14.00">Validate</text>
<text text-anchor="middle" x="226.5" y="-785.3" font-family="Times,serif" font-size="14.00">Request</text>
<polyline fill="none" stroke="black" points="260,-778.5 260,-814.5 "/>
<text text-anchor="middle" x="267" y="-792.8" font-family="Times,serif" font-size="14.00"> </text>
</g>
<!-- Start&#45;&gt;ValidateRequest -->
<g id="edge1" class="edge">
<title>Start&#45;&gt;ValidateRequest</title>
<path fill="none" stroke="darkblue" d="M227,-886.82C227,-886.82 227,-824.86 227,-824.86"/>
<polygon fill="darkblue" stroke="darkblue" points="230.5,-824.86 227,-814.86 223.5,-824.86 230.5,-824.86"/>
</g>
<!-- R1 -->
<g id="node15" class="node">
<title>R1</title>
</g>
<!-- Start&#45;&gt;R1 -->
<!-- 200 -->
<g id="node2" class="node">
<title>200</title>
<ellipse fill="none" stroke="green" cx="227" cy="-18" rx="47" ry="18"/>
<text text-anchor="middle" x="227" y="-14.3" font-family="Times,serif" font-size="14.00">200</text>
</g>
<!-- 400 -->
<g id="node3" class="node">
<title>400</title>
<ellipse fill="none" stroke="orange" cx="47" cy="-796.5" rx="47" ry="18"/>
<text text-anchor="middle" x="47" y="-792.8" font-family="Times,serif" font-size="14.00">400</text>
</g>
<!-- 400&#45;&gt;ValidateRequest -->
<g id="edge2" class="edge">
<title>400&#45;&gt;ValidateRequest</title>
<path fill="none" stroke="red" d="M104.29,-796C104.29,-796 179.71,-796 179.71,-796"/>
<polygon fill="red" stroke="red" points="104.29,-792.5 94.29,-796 104.29,-799.5 104.29,-792.5"/>
<text text-anchor="start" x="94.29" y="-799.8" font-family="Times,serif" font-size="14.00">JSON Error</text>
</g>
<!-- 401 -->
<g id="node4" class="node">
<title>401</title>
<ellipse fill="none" stroke="orange" cx="407" cy="-796.5" rx="47" ry="18"/>
<text text-anchor="middle" x="407" y="-792.8" font-family="Times,serif" font-size="14.00">401</text>
</g>
<!-- 422 -->
<g id="node5" class="node">
<title>422</title>
<ellipse fill="none" stroke="orange" cx="407" cy="-578.5" rx="47" ry="18"/>
<text text-anchor="middle" x="407" y="-574.8" font-family="Times,serif" font-size="14.00">422</text>
</g>
<!-- ValidateRequest&#45;&gt;401 -->
<g id="edge3" class="edge">
<title>ValidateRequest&#45;&gt;401</title>
<path fill="none" stroke="red" d="M274.29,-796C274.29,-796 349.71,-796 349.71,-796"/>
<polygon fill="red" stroke="red" points="349.71,-799.5 359.71,-796 349.71,-792.5 349.71,-799.5"/>
<text text-anchor="middle" x="313.29" y="-799.8" font-family="Times,serif" font-size="14.00">Auth Error</text>
</g>
<!-- ValidateQuery -->
<g id="node7" class="node">
<title>ValidateQuery</title>
<polygon fill="none" stroke="black" points="180,-669.5 180,-705.5 274,-705.5 274,-669.5 180,-669.5"/>
<text text-anchor="middle" x="186.5" y="-683.8" font-family="Times,serif" font-size="14.00"> </text>
<polyline fill="none" stroke="black" points="193,-669.5 193,-705.5 "/>
<text text-anchor="middle" x="226.5" y="-691.3" font-family="Times,serif" font-size="14.00">Validate</text>
<text text-anchor="middle" x="226.5" y="-676.3" font-family="Times,serif" font-size="14.00">Query</text>
<polyline fill="none" stroke="black" points="260,-669.5 260,-705.5 "/>
<text text-anchor="middle" x="267" y="-683.8" font-family="Times,serif" font-size="14.00"> </text>
</g>
<!-- ValidateRequest&#45;&gt;ValidateQuery -->
<g id="edge4" class="edge">
<title>ValidateRequest&#45;&gt;ValidateQuery</title>
<path fill="none" stroke="darkblue" d="M227,-778.01C227,-778.01 227,-715.72 227,-715.72"/>
<polygon fill="darkblue" stroke="darkblue" points="230.5,-715.72 227,-705.72 223.5,-715.72 230.5,-715.72"/>
</g>
<!-- ValidateQuery&#45;&gt;422 -->
<g id="edge5" class="edge">
<title>ValidateQuery&#45;&gt;422</title>
<path fill="none" stroke="red" d="M274.29,-687C327.62,-687 407,-687 407,-687 407,-687 407,-606.91 407,-606.91"/>
<polygon fill="red" stroke="red" points="410.5,-606.91 407,-596.91 403.5,-606.91 410.5,-606.91"/>
<text text-anchor="middle" x="331.79" y="-690.8" font-family="Times,serif" font-size="14.00">Validation Error</text>
</g>
<!-- ValidateMaxSize -->
<g id="node8" class="node">
<title>ValidateMaxSize</title>
<polygon fill="none" stroke="black" points="180,-560.5 180,-596.5 274,-596.5 274,-560.5 180,-560.5"/>
<text text-anchor="middle" x="185.5" y="-574.8" font-family="Times,serif" font-size="14.00"> </text>
<polyline fill="none" stroke="black" points="191,-560.5 191,-596.5 "/>
<text text-anchor="middle" x="227" y="-582.3" font-family="Times,serif" font-size="14.00">Validate</text>
<text text-anchor="middle" x="227" y="-567.3" font-family="Times,serif" font-size="14.00">Max Size</text>
<polyline fill="none" stroke="black" points="263,-560.5 263,-596.5 "/>
<text text-anchor="middle" x="268.5" y="-574.8" font-family="Times,serif" font-size="14.00"> </text>
</g>
<!-- ValidateQuery&#45;&gt;ValidateMaxSize -->
<g id="edge6" class="edge">
<title>ValidateQuery&#45;&gt;ValidateMaxSize</title>
<path fill="none" stroke="darkblue" d="M227,-669.01C227,-669.01 227,-606.72 227,-606.72"/>
<polygon fill="darkblue" stroke="darkblue" points="230.5,-606.72 227,-596.72 223.5,-606.72 230.5,-606.72"/>
</g>
<!-- ValidateMaxSize&#45;&gt;422 -->
<g id="edge7" class="edge">
<title>ValidateMaxSize&#45;&gt;422</title>
<path fill="none" stroke="red" d="M274.29,-578C274.29,-578 349.71,-578 349.71,-578"/>
<polygon fill="red" stroke="red" points="349.71,-581.5 359.71,-578 349.71,-574.5 349.71,-581.5"/>
<text text-anchor="start" x="274.29" y="-581.8" font-family="Times,serif" font-size="14.00">Validation Error</text>
</g>
<!-- ValidateTargOrgs -->
<g id="node9" class="node">
<title>ValidateTargOrgs</title>
<polygon fill="none" stroke="black" points="180,-442.5 180,-487.5 274,-487.5 274,-442.5 180,-442.5"/>
<text text-anchor="middle" x="183.5" y="-461.3" font-family="Times,serif" font-size="14.00"> </text>
<polyline fill="none" stroke="black" points="187,-442.5 187,-487.5 "/>
<text text-anchor="middle" x="227" y="-476.3" font-family="Times,serif" font-size="14.00">Validate</text>
<text text-anchor="middle" x="227" y="-461.3" font-family="Times,serif" font-size="14.00">Target</text>
<text text-anchor="middle" x="227" y="-446.3" font-family="Times,serif" font-size="14.00">Organisms</text>
<polyline fill="none" stroke="black" points="267,-442.5 267,-487.5 "/>
<text text-anchor="middle" x="270.5" y="-461.3" font-family="Times,serif" font-size="14.00"> </text>
</g>
<!-- ValidateMaxSize&#45;&gt;ValidateTargOrgs -->
<g id="edge8" class="edge">
<title>ValidateMaxSize&#45;&gt;ValidateTargOrgs</title>
<path fill="none" stroke="darkblue" d="M227,-560.26C227,-560.26 227,-497.89 227,-497.89"/>
<polygon fill="darkblue" stroke="darkblue" points="230.5,-497.89 227,-487.89 223.5,-497.89 230.5,-497.89"/>
</g>
<!-- ValidateTargOrgs&#45;&gt;422 -->
<g id="edge9" class="edge">
<title>ValidateTargOrgs&#45;&gt;422</title>
<path fill="none" stroke="red" d="M274.13,-465C328.35,-465 410,-465 410,-465 410,-465 410,-550.52 410,-550.52"/>
<polygon fill="red" stroke="red" points="406.5,-550.52 410,-560.52 413.5,-550.52 406.5,-550.52"/>
<text text-anchor="middle" x="331.63" y="-468.8" font-family="Times,serif" font-size="14.00">Validation Error</text>
</g>
<!-- TranslateConfig -->
<g id="node11" class="node">
<title>TranslateConfig</title>
<polygon fill="none" stroke="black" points="274,-370 180,-370 180,-334 274,-334 274,-370"/>
<text text-anchor="middle" x="227" y="-355.8" font-family="Times,serif" font-size="14.00">Translate</text>
<text text-anchor="middle" x="227" y="-340.8" font-family="Times,serif" font-size="14.00">JSON config</text>
</g>
<!-- ValidateTargOrgs&#45;&gt;TranslateConfig -->
<g id="edge10" class="edge">
<title>ValidateTargOrgs&#45;&gt;TranslateConfig</title>
<path fill="none" stroke="darkblue" d="M227,-442.4C227,-442.4 227,-380.09 227,-380.09"/>
<polygon fill="darkblue" stroke="darkblue" points="230.5,-380.09 227,-370.09 223.5,-380.09 230.5,-380.09"/>
</g>
<!-- Processing -->
<g id="node10" class="node">
<title>Processing</title>
<polygon fill="none" stroke="black" points="180,-108.5 180,-144.5 274,-144.5 274,-108.5 180,-108.5"/>
<text text-anchor="middle" x="183" y="-122.8" font-family="Times,serif" font-size="14.00"> </text>
<polyline fill="none" stroke="black" points="186,-108.5 186,-144.5 "/>
<text text-anchor="middle" x="226.5" y="-130.3" font-family="Times,serif" font-size="14.00">Blast Job</text>
<text text-anchor="middle" x="226.5" y="-115.3" font-family="Times,serif" font-size="14.00">Processing</text>
<polyline fill="none" stroke="black" points="267,-108.5 267,-144.5 "/>
<text text-anchor="middle" x="270.5" y="-122.8" font-family="Times,serif" font-size="14.00"> </text>
</g>
<!-- Processing&#45;&gt;200 -->
<g id="edge14" class="edge">
<title>Processing&#45;&gt;200</title>
<path fill="none" stroke="darkblue" d="M227,-108.09C227,-108.09 227,-46.13 227,-46.13"/>
<polygon fill="darkblue" stroke="darkblue" points="230.5,-46.13 227,-36.13 223.5,-46.13 230.5,-46.13"/>
</g>
<!-- ValidateConfig -->
<g id="node13" class="node">
<title>ValidateConfig</title>
<polygon fill="none" stroke="black" points="280,-257.5 174,-257.5 174,-221.5 280,-221.5 280,-257.5"/>
<text text-anchor="middle" x="227" y="-235.8" font-family="Times,serif" font-size="14.00">Validate config</text>
</g>
<!-- TranslateConfig&#45;&gt;ValidateConfig -->
<g id="edge11" class="edge">
<title>TranslateConfig&#45;&gt;ValidateConfig</title>
<path fill="none" stroke="darkblue" d="M227,-333.92C227,-333.92 227,-267.53 227,-267.53"/>
<polygon fill="darkblue" stroke="darkblue" points="230.5,-267.53 227,-257.53 223.5,-267.53 230.5,-267.53"/>
</g>
<!-- ValidationSvc -->
<g id="node12" class="node">
<title>ValidationSvc</title>
<polygon fill="none" stroke="purple" points="460,-262 366,-262 366,-258 362,-258 362,-254 366,-254 366,-225 362,-225 362,-221 366,-221 366,-217 460,-217 460,-262"/>
<polyline fill="none" stroke="purple" points="366,-258 370,-258 370,-254 366,-254 "/>
<polyline fill="none" stroke="purple" points="366,-225 370,-225 370,-221 366,-221 "/>
<text text-anchor="middle" x="413" y="-250.8" font-family="Times,serif" font-size="14.00">Config</text>
<text text-anchor="middle" x="413" y="-235.8" font-family="Times,serif" font-size="14.00">Validation</text>
<text text-anchor="middle" x="413" y="-220.8" font-family="Times,serif" font-size="14.00">Service</text>
</g>
<!-- ValidateConfig&#45;&gt;Processing -->
<g id="edge13" class="edge">
<title>ValidateConfig&#45;&gt;Processing</title>
<path fill="none" stroke="darkblue" d="M227,-221.34C227,-221.34 227,-154.61 227,-154.61"/>
<polygon fill="darkblue" stroke="darkblue" points="230.5,-154.61 227,-144.61 223.5,-154.61 230.5,-154.61"/>
</g>
<!-- ValidateConfig&#45;&gt;ValidationSvc -->
<g id="edge12" class="edge">
<title>ValidateConfig&#45;&gt;ValidationSvc</title>
<path fill="none" stroke="#333333" stroke-dasharray="1,5" d="M290.3,-239C290.3,-239 355.71,-239 355.71,-239"/>
<polygon fill="#333333" stroke="#333333" points="355.71,-242.5 365.71,-239 355.71,-235.5 355.71,-242.5"/>
<polygon fill="#333333" stroke="#333333" points="290.3,-235.5 280.3,-239 290.3,-242.5 290.3,-235.5"/>
</g>
<!-- L1 -->
<g id="node14" class="node">
<title>L1</title>
</g>
<!-- L1&#45;&gt;Start -->
<!-- L1&#45;&gt;400 -->
<!-- R1&#45;&gt;401 -->
</g>
</svg>
