<?xml version="1.0" encoding="UTF-8" standalone="no"?>
<!DOCTYPE svg PUBLIC "-//W3C//DTD SVG 1.1//EN"
 "http://www.w3.org/Graphics/SVG/1.1/DTD/svg11.dtd">
<!-- Generated by graphviz version 2.43.0 (0)
 -->
<!-- Title: %3 Pages: 1 -->
<svg width="468pt" height="935pt"
 viewBox="0.00 0.00 468.00 934.60" xmlns="http://www.w3.org/2000/svg" xmlns:xlink="http://www.w3.org/1999/xlink">
<g id="graph0" class="graph" transform="scale(1 1) rotate(0) translate(4 930.6)">
<title>%3</title>
<polygon fill="white" stroke="transparent" points="-4,4 -4,-930.6 464,-930.6 464,4 -4,4"/>
<!-- Start -->
<g id="node1" class="node">
<title>Start</title>
<ellipse fill="none" stroke="blue" cx="233" cy="-906.8" rx="47" ry="19.6"/>
<text text-anchor="start" x="214" y="-910.6" font-family="Times,serif" font-size="14.00">POST</text>
<text text-anchor="start" x="212" y="-896.6" font-family="monospace" font-size="14.00">/jobs</text>
</g>
<!-- ValidateRequest -->
<g id="node6" class="node">
<title>ValidateRequest</title>
<polygon fill="none" stroke="black" points="186,-778.5 186,-814.5 280,-814.5 280,-778.5 186,-778.5"/>
<text text-anchor="middle" x="192.5" y="-792.8" font-family="Times,serif" font-size="14.00"> </text>
<polyline fill="none" stroke="black" points="199,-778.5 199,-814.5 "/>
<text text-anchor="middle" x="232.5" y="-800.3" font-family="Times,serif" font-size="14.00">Validate</text>
<text text-anchor="middle" x="232.5" y="-785.3" font-family="Times,serif" font-size="14.00">Request</text>
<polyline fill="none" stroke="black" points="266,-778.5 266,-814.5 "/>
<text text-anchor="middle" x="273" y="-792.8" font-family="Times,serif" font-size="14.00"> </text>
</g>
<!-- Start&#45;&gt;ValidateRequest -->
<g id="edge1" class="edge">
<title>Start&#45;&gt;ValidateRequest</title>
<path fill="none" stroke="darkblue" d="M233,-886.82C233,-886.82 233,-824.86 233,-824.86"/>
<polygon fill="darkblue" stroke="darkblue" points="236.5,-824.86 233,-814.86 229.5,-824.86 236.5,-824.86"/>
</g>
<!-- 200 -->
<g id="node2" class="node">
<title>200</title>
<ellipse fill="none" stroke="green" cx="233" cy="-18" rx="47" ry="18"/>
<text text-anchor="middle" x="233" y="-14.3" font-family="Times,serif" font-size="14.00">200</text>
</g>
<!-- 400 -->
<g id="node3" class="node">
<title>400</title>
<ellipse fill="none" stroke="orange" cx="53" cy="-796.5" rx="47" ry="18"/>
<text text-anchor="middle" x="53" y="-792.8" font-family="Times,serif" font-size="14.00">400</text>
</g>
<!-- 400&#45;&gt;ValidateRequest -->
<g id="edge2" class="edge">
<title>400&#45;&gt;ValidateRequest</title>
<path fill="none" stroke="red" d="M110.29,-796C110.29,-796 185.71,-796 185.71,-796"/>
<polygon fill="red" stroke="red" points="110.29,-792.5 100.29,-796 110.29,-799.5 110.29,-792.5"/>
<text text-anchor="start" x="100.29" y="-799.8" font-family="Times,serif" font-size="14.00">JSON Error</text>
</g>
<!-- 401 -->
<g id="node4" class="node">
<title>401</title>
<ellipse fill="none" stroke="orange" cx="413" cy="-796.5" rx="47" ry="18"/>
<text text-anchor="middle" x="413" y="-792.8" font-family="Times,serif" font-size="14.00">401</text>
</g>
<!-- 422 -->
<g id="node5" class="node">
<title>422</title>
<ellipse fill="none" stroke="orange" cx="413" cy="-578.5" rx="47" ry="18"/>
<text text-anchor="middle" x="413" y="-574.8" font-family="Times,serif" font-size="14.00">422</text>
</g>
<!-- ValidateRequest&#45;&gt;401 -->
<g id="edge3" class="edge">
<title>ValidateRequest&#45;&gt;401</title>
<path fill="none" stroke="red" d="M280.29,-796C280.29,-796 355.71,-796 355.71,-796"/>
<polygon fill="red" stroke="red" points="355.71,-799.5 365.71,-796 355.71,-792.5 355.71,-799.5"/>
<text text-anchor="middle" x="319.29" y="-799.8" font-family="Times,serif" font-size="14.00">Auth Error</text>
</g>
<!-- ValidateQuery -->
<g id="node7" class="node">
<title>ValidateQuery</title>
<polygon fill="none" stroke="black" points="186,-669.5 186,-705.5 280,-705.5 280,-669.5 186,-669.5"/>
<text text-anchor="middle" x="192.5" y="-683.8" font-family="Times,serif" font-size="14.00"> </text>
<polyline fill="none" stroke="black" points="199,-669.5 199,-705.5 "/>
<text text-anchor="middle" x="232.5" y="-691.3" font-family="Times,serif" font-size="14.00">Validate</text>
<text text-anchor="middle" x="232.5" y="-676.3" font-family="Times,serif" font-size="14.00">Query</text>
<polyline fill="none" stroke="black" points="266,-669.5 266,-705.5 "/>
<text text-anchor="middle" x="273" y="-683.8" font-family="Times,serif" font-size="14.00"> </text>
</g>
<!-- ValidateRequest&#45;&gt;ValidateQuery -->
<g id="edge4" class="edge">
<title>ValidateRequest&#45;&gt;ValidateQuery</title>
<path fill="none" stroke="darkblue" d="M233,-778.01C233,-778.01 233,-715.72 233,-715.72"/>
<polygon fill="darkblue" stroke="darkblue" points="236.5,-715.72 233,-705.72 229.5,-715.72 236.5,-715.72"/>
</g>
<!-- ValidateQuery&#45;&gt;422 -->
<g id="edge5" class="edge">
<title>ValidateQuery&#45;&gt;422</title>
<path fill="none" stroke="red" d="M280.29,-687C333.62,-687 413,-687 413,-687 413,-687 413,-606.91 413,-606.91"/>
<polygon fill="red" stroke="red" points="416.5,-606.91 413,-596.91 409.5,-606.91 416.5,-606.91"/>
<text text-anchor="middle" x="337.79" y="-690.8" font-family="Times,serif" font-size="14.00">Validation Error</text>
</g>
<!-- ValidateMaxSize -->
<g id="node8" class="node">
<title>ValidateMaxSize</title>
<polygon fill="none" stroke="black" points="186,-560.5 186,-596.5 280,-596.5 280,-560.5 186,-560.5"/>
<text text-anchor="middle" x="191.5" y="-574.8" font-family="Times,serif" font-size="14.00"> </text>
<polyline fill="none" stroke="black" points="197,-560.5 197,-596.5 "/>
<text text-anchor="middle" x="233" y="-582.3" font-family="Times,serif" font-size="14.00">Validate</text>
<text text-anchor="middle" x="233" y="-567.3" font-family="Times,serif" font-size="14.00">Max Size</text>
<polyline fill="none" stroke="black" points="269,-560.5 269,-596.5 "/>
<text text-anchor="middle" x="274.5" y="-574.8" font-family="Times,serif" font-size="14.00"> </text>
</g>
<!-- ValidateQuery&#45;&gt;ValidateMaxSize -->
<g id="edge6" class="edge">
<title>ValidateQuery&#45;&gt;ValidateMaxSize</title>
<path fill="none" stroke="darkblue" d="M233,-669.01C233,-669.01 233,-606.72 233,-606.72"/>
<polygon fill="darkblue" stroke="darkblue" points="236.5,-606.72 233,-596.72 229.5,-606.72 236.5,-606.72"/>
</g>
<!-- ValidateMaxSize&#45;&gt;422 -->
<g id="edge7" class="edge">
<title>ValidateMaxSize&#45;&gt;422</title>
<path fill="none" stroke="red" d="M280.29,-578C280.29,-578 355.71,-578 355.71,-578"/>
<polygon fill="red" stroke="red" points="355.71,-581.5 365.71,-578 355.71,-574.5 355.71,-581.5"/>
<text text-anchor="start" x="280.29" y="-581.8" font-family="Times,serif" font-size="14.00">Validation Error</text>
</g>
<!-- ValidateTargOrgs -->
<g id="node9" class="node">
<title>ValidateTargOrgs</title>
<polygon fill="none" stroke="black" points="186,-442.5 186,-487.5 280,-487.5 280,-442.5 186,-442.5"/>
<text text-anchor="middle" x="189.5" y="-461.3" font-family="Times,serif" font-size="14.00"> </text>
<polyline fill="none" stroke="black" points="193,-442.5 193,-487.5 "/>
<text text-anchor="middle" x="233" y="-476.3" font-family="Times,serif" font-size="14.00">Validate</text>
<text text-anchor="middle" x="233" y="-461.3" font-family="Times,serif" font-size="14.00">Target</text>
<text text-anchor="middle" x="233" y="-446.3" font-family="Times,serif" font-size="14.00">Organisms</text>
<polyline fill="none" stroke="black" points="273,-442.5 273,-487.5 "/>
<text text-anchor="middle" x="276.5" y="-461.3" font-family="Times,serif" font-size="14.00"> </text>
</g>
<!-- ValidateMaxSize&#45;&gt;ValidateTargOrgs -->
<g id="edge8" class="edge">
<title>ValidateMaxSize&#45;&gt;ValidateTargOrgs</title>
<path fill="none" stroke="darkblue" d="M233,-560.26C233,-560.26 233,-497.89 233,-497.89"/>
<polygon fill="darkblue" stroke="darkblue" points="236.5,-497.89 233,-487.89 229.5,-497.89 236.5,-497.89"/>
</g>
<!-- ValidateTargOrgs&#45;&gt;422 -->
<g id="edge9" class="edge">
<title>ValidateTargOrgs&#45;&gt;422</title>
<path fill="none" stroke="red" d="M280.09,-465C328.65,-465 397.33,-465 397.33,-465 397.33,-465 397.33,-551.26 397.33,-551.26"/>
<polygon fill="red" stroke="red" points="393.83,-551.26 397.33,-561.26 400.83,-551.26 393.83,-551.26"/>
<text text-anchor="middle" x="337.59" y="-468.8" font-family="Times,serif" font-size="14.00">Validation Error</text>
</g>
<!-- TranslateConfig -->
<g id="node11" class="node">
<title>TranslateConfig</title>
<polygon fill="none" stroke="black" points="280,-370 186,-370 186,-334 280,-334 280,-370"/>
<text text-anchor="middle" x="233" y="-355.8" font-family="Times,serif" font-size="14.00">Translate</text>
<text text-anchor="middle" x="233" y="-340.8" font-family="Times,serif" font-size="14.00">JSON config</text>
</g>
<!-- ValidateTargOrgs&#45;&gt;TranslateConfig -->
<g id="edge10" class="edge">
<title>ValidateTargOrgs&#45;&gt;TranslateConfig</title>
<path fill="none" stroke="darkblue" d="M233,-442.4C233,-442.4 233,-380.09 233,-380.09"/>
<polygon fill="darkblue" stroke="darkblue" points="236.5,-380.09 233,-370.09 229.5,-380.09 236.5,-380.09"/>
</g>
<!-- Processing -->
<g id="node10" class="node">
<title>Processing</title>
<polygon fill="none" stroke="black" points="186,-108.5 186,-144.5 280,-144.5 280,-108.5 186,-108.5"/>
<text text-anchor="middle" x="189" y="-122.8" font-family="Times,serif" font-size="14.00"> </text>
<polyline fill="none" stroke="black" points="192,-108.5 192,-144.5 "/>
<text text-anchor="middle" x="232.5" y="-130.3" font-family="Times,serif" font-size="14.00">Blast Job</text>
<text text-anchor="middle" x="232.5" y="-115.3" font-family="Times,serif" font-size="14.00">Processing</text>
<polyline fill="none" stroke="black" points="273,-108.5 273,-144.5 "/>
<text text-anchor="middle" x="276.5" y="-122.8" font-family="Times,serif" font-size="14.00"> </text>
</g>
<!-- Processing&#45;&gt;200 -->
<g id="edge15" class="edge">
<title>Processing&#45;&gt;200</title>
<path fill="none" stroke="darkblue" d="M233,-108.09C233,-108.09 233,-46.13 233,-46.13"/>
<polygon fill="darkblue" stroke="darkblue" points="236.5,-46.13 233,-36.13 229.5,-46.13 236.5,-46.13"/>
</g>
<!-- ValidateConfig -->
<g id="node13" class="node">
<title>ValidateConfig</title>
<polygon fill="none" stroke="black" points="286,-257.5 180,-257.5 180,-221.5 286,-221.5 286,-257.5"/>
<text text-anchor="middle" x="233" y="-235.8" font-family="Times,serif" font-size="14.00">Validate config</text>
</g>
<!-- TranslateConfig&#45;&gt;ValidateConfig -->
<g id="edge11" class="edge">
<title>TranslateConfig&#45;&gt;ValidateConfig</title>
<path fill="none" stroke="darkblue" d="M233,-333.92C233,-333.92 233,-267.53 233,-267.53"/>
<polygon fill="darkblue" stroke="darkblue" points="236.5,-267.53 233,-257.53 229.5,-267.53 236.5,-267.53"/>
</g>
<!-- ValidationSvc -->
<g id="node12" class="node">
<title>ValidationSvc</title>
<polygon fill="none" stroke="purple" points="94,-262 0,-262 0,-258 -4,-258 -4,-254 0,-254 0,-225 -4,-225 -4,-221 0,-221 0,-217 94,-217 94,-262"/>
<polyline fill="none" stroke="purple" points="0,-258 4,-258 4,-254 0,-254 "/>
<polyline fill="none" stroke="purple" points="0,-225 4,-225 4,-221 0,-221 "/>
<text text-anchor="middle" x="47" y="-250.8" font-family="Times,serif" font-size="14.00">Config</text>
<text text-anchor="middle" x="47" y="-235.8" font-family="Times,serif" font-size="14.00">Validation</text>
<text text-anchor="middle" x="47" y="-220.8" font-family="Times,serif" font-size="14.00">Service</text>
</g>
<!-- ValidationSvc&#45;&gt;ValidateConfig -->
<g id="edge12" class="edge">
<title>ValidationSvc&#45;&gt;ValidateConfig</title>
<path fill="none" stroke="#333333" stroke-dasharray="1,5" d="M104.42,-239C104.42,-239 169.76,-239 169.76,-239"/>
<polygon fill="#333333" stroke="#333333" points="169.76,-242.5 179.76,-239 169.76,-235.5 169.76,-242.5"/>
<polygon fill="#333333" stroke="#333333" points="104.42,-235.5 94.42,-239 104.42,-242.5 104.42,-235.5"/>
</g>
<!-- ValidateConfig&#45;&gt;422 -->
<g id="edge14" class="edge">
<title>ValidateConfig&#45;&gt;422</title>
<path fill="none" stroke="red" d="M286.21,-239C344.15,-239 428.67,-239 428.67,-239 428.67,-239 428.67,-551.2 428.67,-551.2"/>
<polygon fill="red" stroke="red" points="425.17,-551.2 428.67,-561.2 432.17,-551.2 425.17,-551.2"/>
<text text-anchor="middle" x="343.71" y="-242.8" font-family="Times,serif" font-size="14.00">Validation Error</text>
</g>
<!-- ValidateConfig&#45;&gt;Processing -->
<g id="edge13" class="edge">
<title>ValidateConfig&#45;&gt;Processing</title>
<path fill="none" stroke="darkblue" d="M233,-221.34C233,-221.34 233,-154.61 233,-154.61"/>
<polygon fill="darkblue" stroke="darkblue" points="236.5,-154.61 233,-144.61 229.5,-154.61 236.5,-154.61"/>
</g>
</g>
</svg>
