<?xml version="1.0" encoding="UTF-8" standalone="no"?>
<!DOCTYPE svg PUBLIC "-//W3C//DTD SVG 1.1//EN"
 "http://www.w3.org/Graphics/SVG/1.1/DTD/svg11.dtd">
<!-- Generated by graphviz version 2.43.0 (0)
 -->
<!-- Title: %3 Pages: 1 -->
<svg width="475pt" height="935pt"
 viewBox="0.00 0.00 475.00 934.60" xmlns="http://www.w3.org/2000/svg" xmlns:xlink="http://www.w3.org/1999/xlink">
<g id="graph0" class="graph" transform="scale(1 1) rotate(0) translate(4 930.6)">
<title>%3</title>
<polygon fill="white" stroke="transparent" points="-4,4 -4,-930.6 471,-930.6 471,4 -4,4"/>
<!-- Start -->
<g id="node1" class="node">
<title>Start</title>
<ellipse fill="none" stroke="blue" cx="254" cy="-906.8" rx="47" ry="19.6"/>
<text text-anchor="start" x="235" y="-910.6" font-family="Times,serif" font-size="14.00">POST</text>
<text text-anchor="start" x="233" y="-896.6" font-family="monospace" font-size="14.00">/jobs</text>
</g>
<!-- ValidateRequest -->
<g id="node6" class="node">
<title>ValidateRequest</title>
<polygon fill="none" stroke="black" points="207,-778.5 207,-814.5 301,-814.5 301,-778.5 207,-778.5"/>
<text text-anchor="middle" x="213.5" y="-792.8" font-family="Times,serif" font-size="14.00"> </text>
<polyline fill="none" stroke="black" points="220,-778.5 220,-814.5 "/>
<text text-anchor="middle" x="253.5" y="-800.3" font-family="Times,serif" font-size="14.00">Validate</text>
<text text-anchor="middle" x="253.5" y="-785.3" font-family="Times,serif" font-size="14.00">Request</text>
<polyline fill="none" stroke="black" points="287,-778.5 287,-814.5 "/>
<text text-anchor="middle" x="294" y="-792.8" font-family="Times,serif" font-size="14.00"> </text>
</g>
<!-- Start&#45;&gt;ValidateRequest -->
<g id="edge1" class="edge">
<title>Start&#45;&gt;ValidateRequest</title>
<path fill="none" stroke="darkblue" d="M254,-886.93C254,-869.75 254,-844.18 254,-824.77"/>
<polygon fill="darkblue" stroke="darkblue" points="257.5,-824.72 254,-814.72 250.5,-824.72 257.5,-824.72"/>
</g>
<!-- R1 -->
<g id="node15" class="node">
<title>R1</title>
</g>
<!-- Start&#45;&gt;R1 -->
<!-- 200 -->
<g id="node2" class="node">
<title>200</title>
<ellipse fill="none" stroke="green" cx="53" cy="-18" rx="47" ry="18"/>
<text text-anchor="middle" x="53" y="-14.3" font-family="Times,serif" font-size="14.00">200</text>
</g>
<!-- 400 -->
<g id="node3" class="node">
<title>400</title>
<ellipse fill="none" stroke="orange" cx="88" cy="-687.5" rx="47" ry="18"/>
<text text-anchor="middle" x="88" y="-683.8" font-family="Times,serif" font-size="14.00">400</text>
</g>
<!-- 401 -->
<g id="node4" class="node">
<title>401</title>
<ellipse fill="none" stroke="orange" cx="420" cy="-687.5" rx="47" ry="18"/>
<text text-anchor="middle" x="420" y="-683.8" font-family="Times,serif" font-size="14.00">401</text>
</g>
<!-- 422 -->
<g id="node5" class="node">
<title>422</title>
<ellipse fill="none" stroke="orange" cx="287" cy="-352" rx="47" ry="18"/>
<text text-anchor="middle" x="287" y="-348.3" font-family="Times,serif" font-size="14.00">422</text>
</g>
<!-- 401&#45;&gt;422 -->
<!-- ValidateMaxSize -->
<g id="node8" class="node">
<title>ValidateMaxSize</title>
<polygon fill="none" stroke="black" points="152,-560.5 152,-596.5 246,-596.5 246,-560.5 152,-560.5"/>
<text text-anchor="middle" x="157.5" y="-574.8" font-family="Times,serif" font-size="14.00"> </text>
<polyline fill="none" stroke="black" points="163,-560.5 163,-596.5 "/>
<text text-anchor="middle" x="199" y="-582.3" font-family="Times,serif" font-size="14.00">Validate</text>
<text text-anchor="middle" x="199" y="-567.3" font-family="Times,serif" font-size="14.00">Max Size</text>
<polyline fill="none" stroke="black" points="235,-560.5 235,-596.5 "/>
<text text-anchor="middle" x="240.5" y="-574.8" font-family="Times,serif" font-size="14.00"> </text>
</g>
<!-- 401&#45;&gt;ValidateMaxSize -->
<!-- ValidateRequest&#45;&gt;400 -->
<g id="edge2" class="edge">
<title>ValidateRequest&#45;&gt;400</title>
<path fill="none" stroke="red" d="M227.33,-778.31C197.97,-759.38 150.8,-728.98 119.6,-708.87"/>
<polygon fill="red" stroke="red" points="121.17,-705.71 110.86,-703.24 117.37,-711.6 121.17,-705.71"/>
<text text-anchor="middle" x="186.33" y="-767.11" font-family="Times,serif" font-size="14.00">JSON Error</text>
</g>
<!-- ValidateRequest&#45;&gt;401 -->
<g id="edge3" class="edge">
<title>ValidateRequest&#45;&gt;401</title>
<path fill="none" stroke="red" d="M280.67,-778.31C310.03,-759.38 357.2,-728.98 388.4,-708.87"/>
<polygon fill="red" stroke="red" points="390.63,-711.6 397.14,-703.24 386.83,-705.71 390.63,-711.6"/>
<text text-anchor="middle" x="319.67" y="-767.11" font-family="Times,serif" font-size="14.00">Auth Error</text>
</g>
<!-- ValidateQuery -->
<g id="node7" class="node">
<title>ValidateQuery</title>
<polygon fill="none" stroke="black" points="207,-669.5 207,-705.5 301,-705.5 301,-669.5 207,-669.5"/>
<text text-anchor="middle" x="213.5" y="-683.8" font-family="Times,serif" font-size="14.00"> </text>
<polyline fill="none" stroke="black" points="220,-669.5 220,-705.5 "/>
<text text-anchor="middle" x="253.5" y="-691.3" font-family="Times,serif" font-size="14.00">Validate</text>
<text text-anchor="middle" x="253.5" y="-676.3" font-family="Times,serif" font-size="14.00">Query</text>
<polyline fill="none" stroke="black" points="287,-669.5 287,-705.5 "/>
<text text-anchor="middle" x="294" y="-683.8" font-family="Times,serif" font-size="14.00"> </text>
</g>
<!-- ValidateRequest&#45;&gt;ValidateQuery -->
<g id="edge4" class="edge">
<title>ValidateRequest&#45;&gt;ValidateQuery</title>
<path fill="none" stroke="darkblue" d="M254,-778.31C254,-761.46 254,-735.52 254,-715.84"/>
<polygon fill="darkblue" stroke="darkblue" points="257.5,-715.65 254,-705.65 250.5,-715.65 257.5,-715.65"/>
</g>
<!-- ValidateQuery&#45;&gt;422 -->
<g id="edge5" class="edge">
<title>ValidateQuery:se&#45;&gt;422</title>
<path fill="none" stroke="red" d="M301,-669.5C301,-669.5 291.7,-458.52 288.26,-380.53"/>
<polygon fill="red" stroke="red" points="291.75,-380.28 287.81,-370.44 284.76,-380.59 291.75,-380.28"/>
<text text-anchor="middle" x="243.5" y="-658.3" font-family="Times,serif" font-size="14.00">Validation Error</text>
</g>
<!-- ValidateQuery&#45;&gt;ValidateMaxSize -->
<g id="edge6" class="edge">
<title>ValidateQuery:s&#45;&gt;ValidateMaxSize</title>
<path fill="none" stroke="darkblue" d="M254,-669C254,-669 231.26,-632 215.03,-605.58"/>
<polygon fill="darkblue" stroke="darkblue" points="217.82,-603.44 209.6,-596.76 211.86,-607.11 217.82,-603.44"/>
</g>
<!-- ValidateMaxSize&#45;&gt;422 -->
<g id="edge7" class="edge">
<title>ValidateMaxSize:s&#45;&gt;422</title>
<path fill="none" stroke="red" d="M199,-560.5C199,-560.5 251.7,-435.64 275.53,-379.17"/>
<polygon fill="red" stroke="red" points="278.83,-380.35 279.5,-369.78 272.38,-377.63 278.83,-380.35"/>
<text text-anchor="middle" x="141.5" y="-549.3" font-family="Times,serif" font-size="14.00">Validation Error</text>
</g>
<!-- ValidateTargOrgs -->
<g id="node9" class="node">
<title>ValidateTargOrgs</title>
<polygon fill="none" stroke="black" points="6,-442.5 6,-487.5 100,-487.5 100,-442.5 6,-442.5"/>
<text text-anchor="middle" x="9.5" y="-461.3" font-family="Times,serif" font-size="14.00"> </text>
<polyline fill="none" stroke="black" points="13,-442.5 13,-487.5 "/>
<text text-anchor="middle" x="53" y="-476.3" font-family="Times,serif" font-size="14.00">Validate</text>
<text text-anchor="middle" x="53" y="-461.3" font-family="Times,serif" font-size="14.00">Target</text>
<text text-anchor="middle" x="53" y="-446.3" font-family="Times,serif" font-size="14.00">Organisms</text>
<polyline fill="none" stroke="black" points="93,-442.5 93,-487.5 "/>
<text text-anchor="middle" x="96.5" y="-461.3" font-family="Times,serif" font-size="14.00"> </text>
</g>
<!-- ValidateMaxSize&#45;&gt;ValidateTargOrgs -->
<g id="edge8" class="edge">
<title>ValidateMaxSize:sw&#45;&gt;ValidateTargOrgs</title>
<path fill="none" stroke="darkblue" d="M152,-560C152,-560 112.57,-522.56 83.48,-494.94"/>
<polygon fill="darkblue" stroke="darkblue" points="85.62,-492.15 75.96,-487.8 80.8,-497.23 85.62,-492.15"/>
</g>
<!-- ValidateTargOrgs&#45;&gt;422 -->
<g id="edge9" class="edge">
<title>ValidateTargOrgs:e&#45;&gt;422</title>
<path fill="none" stroke="red" d="M101,-465C101,-465 200.43,-405.13 253.89,-372.93"/>
<polygon fill="red" stroke="red" points="255.92,-375.8 262.68,-367.64 252.31,-369.8 255.92,-375.8"/>
<text text-anchor="middle" x="158.5" y="-468.8" font-family="Times,serif" font-size="14.00">Validation Error</text>
</g>
<!-- TranslateConfig -->
<g id="node11" class="node">
<title>TranslateConfig</title>
<polygon fill="none" stroke="black" points="100,-370 6,-370 6,-334 100,-334 100,-370"/>
<text text-anchor="middle" x="53" y="-355.8" font-family="Times,serif" font-size="14.00">Translate</text>
<text text-anchor="middle" x="53" y="-340.8" font-family="Times,serif" font-size="14.00">JSON config</text>
</g>
<!-- ValidateTargOrgs&#45;&gt;TranslateConfig -->
<g id="edge10" class="edge">
<title>ValidateTargOrgs&#45;&gt;TranslateConfig</title>
<path fill="none" stroke="darkblue" d="M53,-442.33C53,-424.64 53,-399.52 53,-380.42"/>
<polygon fill="darkblue" stroke="darkblue" points="56.5,-380.24 53,-370.24 49.5,-380.24 56.5,-380.24"/>
</g>
<!-- Processing -->
<g id="node10" class="node">
<title>Processing</title>
<polygon fill="none" stroke="black" points="6,-108.5 6,-144.5 100,-144.5 100,-108.5 6,-108.5"/>
<text text-anchor="middle" x="9" y="-122.8" font-family="Times,serif" font-size="14.00"> </text>
<polyline fill="none" stroke="black" points="12,-108.5 12,-144.5 "/>
<text text-anchor="middle" x="52.5" y="-130.3" font-family="Times,serif" font-size="14.00">Blast Job</text>
<text text-anchor="middle" x="52.5" y="-115.3" font-family="Times,serif" font-size="14.00">Processing</text>
<polyline fill="none" stroke="black" points="93,-108.5 93,-144.5 "/>
<text text-anchor="middle" x="96.5" y="-122.8" font-family="Times,serif" font-size="14.00"> </text>
</g>
<!-- Processing&#45;&gt;200 -->
<g id="edge14" class="edge">
<title>Processing&#45;&gt;200</title>
<path fill="none" stroke="darkblue" d="M53,-108.39C53,-91.62 53,-65.8 53,-46.21"/>
<polygon fill="darkblue" stroke="darkblue" points="56.5,-46.07 53,-36.07 49.5,-46.07 56.5,-46.07"/>
</g>
<!-- ValidateConfig -->
<g id="node13" class="node">
<title>ValidateConfig</title>
<polygon fill="none" stroke="black" points="106,-257.5 0,-257.5 0,-221.5 106,-221.5 106,-257.5"/>
<text text-anchor="middle" x="53" y="-235.8" font-family="Times,serif" font-size="14.00">Validate config</text>
</g>
<!-- TranslateConfig&#45;&gt;ValidateConfig -->
<g id="edge11" class="edge">
<title>TranslateConfig&#45;&gt;ValidateConfig</title>
<path fill="none" stroke="darkblue" d="M53,-333.73C53,-316.06 53,-288.32 53,-267.69"/>
<polygon fill="darkblue" stroke="darkblue" points="56.5,-267.64 53,-257.64 49.5,-267.64 56.5,-267.64"/>
</g>
<!-- ValidationSvc -->
<g id="node12" class="node">
<title>ValidationSvc</title>
<polygon fill="none" stroke="purple" points="272,-262 178,-262 178,-258 174,-258 174,-254 178,-254 178,-225 174,-225 174,-221 178,-221 178,-217 272,-217 272,-262"/>
<polyline fill="none" stroke="purple" points="178,-258 182,-258 182,-254 178,-254 "/>
<polyline fill="none" stroke="purple" points="178,-225 182,-225 182,-221 178,-221 "/>
<text text-anchor="middle" x="225" y="-250.8" font-family="Times,serif" font-size="14.00">Config</text>
<text text-anchor="middle" x="225" y="-235.8" font-family="Times,serif" font-size="14.00">Validation</text>
<text text-anchor="middle" x="225" y="-220.8" font-family="Times,serif" font-size="14.00">Service</text>
</g>
<!-- ValidateConfig&#45;&gt;Processing -->
<g id="edge13" class="edge">
<title>ValidateConfig&#45;&gt;Processing</title>
<path fill="none" stroke="darkblue" d="M53,-221.16C53,-203.4 53,-175.54 53,-154.82"/>
<polygon fill="darkblue" stroke="darkblue" points="56.5,-154.72 53,-144.72 49.5,-154.72 56.5,-154.72"/>
</g>
<!-- ValidateConfig&#45;&gt;ValidationSvc -->
<g id="edge12" class="edge">
<title>ValidateConfig&#45;&gt;ValidationSvc</title>
<path fill="none" stroke="#333333" stroke-dasharray="1,5" d="M116.14,-239.5C133.27,-239.5 150.4,-239.5 167.53,-239.5"/>
<polygon fill="#333333" stroke="#333333" points="116.08,-236 106.08,-239.5 116.08,-243 116.08,-236"/>
<polygon fill="#333333" stroke="#333333" points="167.62,-243 177.62,-239.5 167.62,-236 167.62,-243"/>
</g>
<!-- L1 -->
<g id="node14" class="node">
<title>L1</title>
</g>
<!-- L1&#45;&gt;Start -->
<!-- L1&#45;&gt;400 -->
<!-- R1&#45;&gt;401 -->
</g>
</svg>
